<svg xmlns="http://www.w3.org/2000/svg" viewBox="0 0 393 393">
  <defs>
    <style>
      .c{fill:none}.d{fill:#f7e3d5}.e{fill:#fff}.f{fill:#745e84}.g{fill:#8e657a}.h{fill:#93673d}
    </style>
  </defs>
  <g id="b">
    <path class="d" d="M235.61 73.48a3.6 3.6 0 0 0-.9-2.72 4 4 0 0 0-.61-1.75c-1.22-1.91-2.83-2.68-4.38-4.2-1.34-1.31-1.74-3.32-3.11-4.75a13.9 13.9 0 0 0-3.04-2.37c-.57-.8-1.21-1.56-1.96-2.21-.27-.23-.58-.45-.9-.67a4 4 0 0 0-4.14-3.52 5.1 5.1 0 0 0-3.88.07c-2.01-.13-3.81-.69-5.38-2.48-2.78-3.16-6.37-3.98-10.5-3.82-2.28.09-4.58.54-6.69 1.42-.56 0-1.13.04-1.69.09-6.23.64-7.55 4.79-6.94 9.68a1.06 1.06 0 0 0-.19-.04c-4.15-.96-8.38-.99-11.8 1.9-3.22 2.73-6.45 6.82-8.69 10.34-1.01 1.59-.88 4.31-2.38 5.53-1.3 1.06-2.4 0-4.03-.14-.41-.3-.89-.54-1.44-.69-2.11-.59-5.14.78-5.48 3.16l-.02.14a11.46 11.46 0 0 0-2.45 3.88c-.5 1.29-.11 2.68.72 3.75a8.88 8.88 0 0 0 .24 3.95c.52 1.61 1.16 3.01 1.61 4.65a10.54 10.54 0 0 0 2.62 4.77c.42.44.86.75 1.32.97 1.8 5.23 3.96 10.5 4.93 15.95.44 2.43.53 5.06-.37 7.4-1.06 2.74-3.17 4.91-4.12 7.73-1.89 5.63.7 10.76 6.07 13.02 2.65 1.12 5.42 1.98 8.13 2.93 2.97 1.04 6 2.45 9.07 3.15 2.97.68 5.33-.6 7.85-1.99 2.5-1.38 4.98-2.78 7.37-4.35a57.82 57.82 0 0 0 6.15-4.63c1.77-1.55 3.32-3.95 5.51-4.9 2.05-.89 4.42-.99 6.54-1.71a13.63 13.63 0 0 0 6.23-4.06c1.79-2.13 2.95-4.73 4.24-7.17l4.84-9.19c3.2-6.08 6.5-12.12 9.61-18.25 1.4-2.77 2.67-5.66 2.81-8.81.16-3.41-1.17-6.65-.79-10.06ZM289.36 144.82c-2.61 1.96-5.74 4.88-8.86 5.9-1.28.42-2.8.21-4.13.28-1.29.06-2.57.2-3.84.36-1.13 0-2.34.17-3.36.61-1.45-1.54-4.07-2.02-6.21-2.51-.09-.34-.2-.67-.35-.98l.06-.99.06-.23a3.56 3.56 0 0 0-2.53-4.38c-2.01-.45-3.72.64-4.38 2.53-.22.64-.3 1.35-.34 2.05a4.72 4.72 0 0 0-.94 1.56c-.84.39-1.62.86-2.33 1.62-1.59 1.71-1.79 4.67.05 6.33a4.92 4.92 0 0 0 2.91 1.24c0 .11 0 .21.03.33.29 1.91 2.15 3.59 3.55 4.75.91.76 2.05 1.42 2.74 2.42.53.77.83 1.56 1.45 2.29a3.45 3.45 0 0 0 3.41.91 14.6 14.6 0 0 0 6.99-5.73c.16-.26.3-.53.44-.81.22 0 .45 0 .69-.03 2.68-.35 5.39-.46 8.09-.38 2.14.06 4.27.42 5.84-1.38 1.33-1.54 1.16-3.52 2.02-5.25 1-2.01 2.49-3.88 3.84-5.67 2.1-2.77-2.13-6.95-4.9-4.87ZM177.6 227.58c-.61-2.93-3.45-7.08-6.87-6.45-1.81.33-3.46 1.23-5.33 1.47-.78.1-1.94.34-2.68.11-.9-.28-.84.35-.72-.76.36-3.47-5.3-5.04-6.69-1.79a37.91 37.91 0 0 1-3.29 6.2c-1.23 1.85-2.57 3.4-2.9 5.67a3.67 3.67 0 0 0 .69 2.79c-.19 2.73 2.94 4.34 5.43 5.42 3.64 1.58 6.2 1.43 10.01.66 3.2-.64 7.83-1.05 10.17-3.64 1.07-1.18 1.3-3.13 1.71-4.62.46-1.67.83-3.34.47-5.07Z"/>
    <path class="h" d="M245.23 66.49c.01-2.85-1.06-5.37-2.39-7.8-.4-1.15-.8-2.3-1.25-3.43-1.12-2.86-2.69-5.24-4.31-7.82-3.01-4.8-2.26-12.44-8.83-14.52a4.93 4.93 0 0 0-1.69-.24 17.53 17.53 0 0 0-3.19-.2c-.86-.88-.65-2.4-1.67-2.77-.58-.69-2.33-.46-2.96-.88a13.03 13.03 0 0 0-5.34-2.03c-4.2-.62-7.48 1.66-11.45 2.15 2.01-2.42.18-7.35-3.45-5.98-4.24 1.6-8.44 3.33-12.53 5.28a13.15 13.15 0 0 0-3.36 2.07 13.85 13.85 0 0 0-2.33-1.99 3.08 3.08 0 0 0-2.26-.58c-1.03-.91-2.53-1.17-4.08-.44l-7.92 3.73c-2.29 1.08-4.68 2.06-6.49 3.91-1.21 1.24-1.99 3.03-2.81 4.77-1.63-1.16-4.05-1.17-5.08 1.04A88.01 88.01 0 0 0 145 61.87a4.82 4.82 0 0 0-1.27-.67c-2.39-.88-4.95.23-6.33 2.29-3.34 4.96-3.3 12.42-2.48 18.06.27 1.88 2.66 3.06 4.36 2.56 3.13-.91 4.71-3.43 5.25-6.52.25-1.45.24-2.22 1.37-3.15 1.1-.91 2.34-1.52 3.38-2.49.3.02.61.06.96.11 1.21.2 2.35.33 3.57.11 5.75-1.05 7.73-6.4 10.71-10.65a76.68 76.68 0 0 1 6.05-7.4c1.26-.01 2.51-.19 3.71-.52a3.87 3.87 0 0 0 5.79-1.78c.21-.51.37-1.03.5-1.54.1-.27.22-.54.34-.8.62-.71 1.17-1.49 1.64-2.34 1.22-.62 2.49-1.27 3.77-1.87.66 0 1.34-.13 1.98-.4 2.21-.91 5.16-.42 7.5-.34l6.79.24c.5.05 1 .08 1.51.05.25-.01.49-.05.72-.1l.39.33c1.56 1.13 1.62 3.16 3.06 4.36 1.73 1.45 2.96.93 4.84.49 1.52-.35 2.9.52 4.37 1.17 2.02.9 3.71 1.25 4.51 3.41.66 1.76 1.19 3.5 2.54 4.88 1.19 1.21 2.79 1.63 4.05 2.66 1.45 1.18 2.4 3.15 3.44 4.67.96 1.39 3.61 4.12 3.21 5.91-.99 4.49 5.92 6.36 6.91 1.85a9.22 9.22 0 0 0-.13-4.51 3.28 3.28 0 0 0 3.2-3.43ZM150.68 95.98a9.58 9.58 0 0 0-5.63-4.6c1.13-2.5-.69-6.13-3.97-5.02-4.93 1.67-10.84 3.52-15.08 6.65-4.18 3.08-1.45 9.84-.77 14.07.41 2.57.49 5.55 1.4 7.99 1.06 2.84 3.7 2.99 6.27 3.66 4.8 1.25 9.53 4.82 14.66 3.24 11.32-3.49 7.53-18.38 3.11-26Z"/>
    <path class="d" d="M163.78 358.86c.65-3.09 1.07-6.21 1.79-9.28.47-3.44.83-6.9 1.32-10.26.52-3.58 1.03-7.18 2.09-10.65.79-2.57 2.44-5.2.41-7.65-1.71-2.06-4.75-1.79-7-.71-1.7-.5-3.81.27-4.61 2.38l-2.07 5.45c-.16.42-.22.83-.22 1.21-.44.67-.89 1.31-1.29 1.93-.37.56-3.22 5.38-4.11 4.98-2.2-.98-5.61.15-5.35 3.09.72 8.26-3.54 15.96-2.98 24.25.16 2.39 2.18 3.54 4.04 3.45a2.92 2.92 0 0 0 2.73 1.33c3.24-.24 7.44.18 10.42-1.25 2.71-1.3 3.67-4.33 4.48-7.01.13-.42.23-.85.35-1.28ZM225.76 362.15c-1.49-5.31-.91-10.98-3.9-15.8.18-2.26-.26-4.69-.59-6.74-.51-3.18-1.25-8.37-4.57-9.9-1.81-.83-3.63-.41-5.54-.23-2.28.21-4.55.17-6.82.29-.66.03-1.23.13-1.75.27-.38-2.85-.79-6.4.25-8.57 1.25-2.6-.88-6.2-4.01-5.24-1.3.4-2.59.73-3.94.87-3.54.36-4.37 4.79-2.39 6.5a3.7 3.7 0 0 0 0 1.15c.56 3.27 2.04 6.21 3.62 9.1.28.89.55 1.79.79 2.7a2.89 2.89 0 0 0-.35 2.79 70.6 70.6 0 0 1 4.15 16.63 3.7 3.7 0 0 0 1.42 2.56c0 .53.12 1.08.41 1.65 1.92 3.84 3.47 8.05 8.26 8.74 4.08.59 8.62-1 12.39-2.42 1.78-.67 3.13-2.34 2.56-4.36Z"/>
    <path class="e" d="M208.3 194.57a94.8 94.8 0 0 0-13.73-6.15 83.9 83.9 0 0 0-7.29-2.22c-2.12-.54-4.93-.7-6.72-2.06-1.79-1.37-4.37-1.44-5.62.78-2.91 5.15-4.43 10.81-5.84 16.51-1.31 5.28-2.6 10.83-6.36 14.96-2.57 2.83.52 6.8 3.42 6.07.97.19 2.01-.11 2.85-1.2.54-.7 3.32-.31 4.24-.18 1.81.26 2.57 1.54 3.84 2.78 1.09 1.06 1.26 2.22 1.36 3.77.13 1.96-.89 3.01-1.32 4.79a5.2 5.2 0 0 0-.03 2.08c.04.2.46 1.62.5 1.36-.22 1.21-2.88 2.27-3.82 2.73a49.76 49.76 0 0 1-11.45 4.19 3.3 3.3 0 0 0-1.92 1.11l-.2-.04c-4.51-.67-6.41 6.24-1.85 6.91l.35.06a3.32 3.32 0 0 0 1.96 1.28c2.56.63 4.88 1.83 7.34 2.76 2.44.92 4.95 1.65 7.44 2.42 3.66 1.13 10.41 4.45 13.46.67 1.52-1.88 1.73-5.12 2.29-7.4.6-2.42.96-5.08 1.93-7.37.9-2.13 2.44-3.9 3.37-6.05 1.14-2.65 2.15-5.36 3.22-8.04.5-1.25.25-2.29-.38-3.03a152.9 152.9 0 0 1 4.85-12.01c1.11-2.37 2.61-4.53 3.74-6.88 1.34-2.77 1.29-5.64 2.04-8.55a3.63 3.63 0 0 0-1.68-4.03Z"/>
    <path class="c" d="M143.28 175.5c-.26-6.33.04-13-1-19.26a18.2 18.2 0 0 0-1.29-4.57c-.46-1-1.24-1.73-1.81-2.6l-.69.54c-.97.81-1.89 1.69-2.78 2.6-3.81 3.9-6.78 8.49-9.66 13.09-3.19 5.09-6.36 10.19-9.5 15.3-3.03 4.93-6.77 10.39-8.01 16.12-.53 2.46-.09 3.53 1.83 5.03 2.04 1.59 3.27 3.48 4.89 5.46 3.4 4.14 8.58 7.23 13.25 9.7 2.46 1.3 5 2.42 7.62 3.35-1.07-2.56.15-6.03 3.66-5.75 5.34.43 4.26-14.16 4.24-17.4-.05-7.21-.47-14.41-.76-21.61Z"/>
    <path class="c" d="M139.8 214.52c5.34.43 4.26-14.16 4.24-17.4-.05-7.21-.47-14.41-.76-21.61-.26-6.33.04-13-1-19.26a18.2 18.2 0 0 0-1.29-4.57c-.46-1-1.24-1.73-1.81-2.6l-.69.54c-.97.81-1.89 1.69-2.78 2.6-3.81 3.9-6.78 8.49-9.66 13.09-3.19 5.09-6.36 10.19-9.5 15.3-3.03 4.93-6.77 10.39-8.01 16.12-.53 2.46-.09 3.53 1.83 5.03 2.04 1.59 3.27 3.48 4.89 5.46 3.4 4.14 8.58 7.23 13.25 9.7 2.46 1.3 5 2.42 7.62 3.35-1.07-2.56.15-6.03 3.66-5.75ZM147.84 243.61s-.05.02-.06.04l.06-.04Z"/>
    <path class="c" d="M139.8 214.52c5.34.43 4.26-14.16 4.24-17.4-.05-7.21-.47-14.41-.76-21.61-.26-6.33.04-13-1-19.26a18.2 18.2 0 0 0-1.29-4.57c-.46-1-1.24-1.73-1.81-2.6l-.69.54c-.97.81-1.89 1.69-2.78 2.6-3.81 3.9-6.78 8.49-9.66 13.09-3.19 5.09-6.36 10.19-9.5 15.3-3.03 4.93-6.77 10.39-8.01 16.12-.53 2.46-.09 3.53 1.83 5.03 2.04 1.59 3.27 3.48 4.89 5.46 3.4 4.14 8.58 7.23 13.25 9.7 2.46 1.3 5 2.42 7.62 3.35-1.07-2.56.15-6.03 3.66-5.75ZM145.48 328.04c.09-.03.2-.2.3-.44l-.3.44ZM151.65 309.67c2.1-7.05 2.73-14.32 2.67-21.71-.06-7.55.15-15.91-1.99-23.2-1.11-3.8-2.99-7.17-4.56-10.77a13.41 13.41 0 0 1-1.34-4.96c-.02-.66.14-2.89.62-4.29-.43-.25-.84-.53-1.24-.8a33.85 33.85 0 0 1-5.4-4.33c.27 2.54.48 5.08.6 7.63.7.67 1.15 1.65 1.11 2.94l-.55 15.39c-.16 4.41-.08 8.91-.86 13.28-.83 4.67-2.85 9.07-4.39 13.54a223.87 223.87 0 0 0-7.37 26.57l-.08.37.14.08c.94.09 2.19.98 3.03 1.36l6.05 2.71c2.03.91 4.03 1.9 6.12 2.66.61.23 1.24.42 1.87.6.23-.77.44-1.66.55-1.98 1.64-4.72 3.19-9.48 4.66-14.25.1-.31.21-.59.35-.85Z"/>
    <path class="c" d="M139.8 214.52c5.34.43 4.26-14.16 4.24-17.4-.05-7.21-.47-14.41-.76-21.61-.26-6.33.04-13-1-19.26a18.2 18.2 0 0 0-1.29-4.57c-.46-1-1.24-1.73-1.81-2.6l-.69.54c-.97.81-1.89 1.69-2.78 2.6-3.81 3.9-6.78 8.49-9.66 13.09-3.19 5.09-6.36 10.19-9.5 15.3-3.03 4.93-6.77 10.39-8.01 16.12-.53 2.46-.09 3.53 1.83 5.03 2.04 1.59 3.27 3.48 4.89 5.46 3.4 4.14 8.58 7.23 13.25 9.7 2.46 1.3 5 2.42 7.62 3.35-1.07-2.56.15-6.03 3.66-5.75Z"/>
    <path class="f" d="M160.82 264.15a57 57 0 0 0-4.27-11.12c-.66-1.36-2-3.19-1.7-4.79.31-1.67 1.45-2.84 1.35-4.7-.24-4.24-4.1-5.27-7.02-7.36a23.06 23.06 0 0 1-5.35-5.45 5.81 5.81 0 0 0 4.22-2c3.31-3.69 6.24-7.82 9.33-11.7a4.58 4.58 0 0 0 .4-5.11c1.26-4.36 1.61-8.93 1.56-13.53-.08-7.43-.56-14.88-.87-22.3-.31-7.41-.23-14.96-1.03-22.34-.76-6.94-5.3-13.96-10.64-18.39a4.4 4.4 0 0 0-5.02-.64l-4.77 2.31c-2.11 1.02-2.5 2.96-1.87 4.64-5.97 3.88-10.44 10.4-14.24 16.23a653.37 653.37 0 0 0-13.03 20.95c-3.73 6.22-9.01 14.45-7.68 22.07.68 3.9 3.18 5.5 5.87 7.99.99.92 1.69 2.09 2.52 3.16a28.37 28.37 0 0 0 4.82 4.79 69.7 69.7 0 0 0 21.16 11.68c-2.01.54-3.8 2.38-3.36 5.01.91 5.39 1.41 10.8 1.57 16.27.03 1.06.38 1.91.92 2.56l-.55 15.53c-.2 5.68-.66 10.69-2.61 16.05a241.95 241.95 0 0 0-9.52 32.29c-.5 2.34-1.17 4.66-.15 6.94 1.13 2.54 3.66 3.31 6.04 4.38 5.01 2.25 9.99 4.8 15.16 6.64 2.21.79 4.92 1.65 7.25.84 2.78-.98 3.72-3.39 4.64-5.94 1.71-4.75 3.28-9.57 4.79-14.39.09-.19.18-.38.25-.59 2.79-8.03 3.69-16.56 3.7-25.02 0-8.12.1-17.04-1.85-24.96Zm-32.29-47.24c-4.67-2.47-9.85-5.56-13.25-9.7-1.62-1.97-2.85-3.87-4.89-5.46-1.92-1.5-2.36-2.56-1.83-5.03 1.24-5.74 4.98-11.2 8.01-16.12 3.14-5.11 6.32-10.21 9.5-15.3 2.88-4.6 5.85-9.19 9.66-13.09.89-.91 1.81-1.79 2.78-2.6l.69-.54c.57.87 1.35 1.6 1.81 2.6a18.2 18.2 0 0 1 1.29 4.57c1.04 6.26.74 12.93 1 19.26.29 7.2.71 14.41.76 21.61.02 3.24 1.1 17.83-4.24 17.4-3.51-.28-4.72 3.19-3.66 5.75a57.37 57.37 0 0 1-7.62-3.35ZM262.88 170.09c-1.02-2.59-3.61-5.05-5.45-7.1a71.95 71.95 0 0 0-7.29-7 4.35 4.35 0 0 0-5.02-.64 40.93 40.93 0 0 0-7 4.76c-1.97 1.65-3.57 4.3-5.71 5.65-2.07 1.3-4.66-.45-6.3-1.72-2.15-1.68-4.09-3.54-6.35-5.05-2.83-4.91-5.5-9.91-7.99-15.01a3.52 3.52 0 0 0-2.81-2.13l-.66-.91c-1.73-2.38-3.35-5.36-6.54-5.84-3.05-.46-5.43 1.64-7.59 3.48-2.34 1.98-4.92 4.23-6.64 6.8-1.72 2.59-1.48 5.3-.63 8.18.9 3.08 1.71 6.17 2.34 9.31 1.37 6.83 1.91 13.78 2.44 20.71.21 2.73 2.5 4.08 4.64 4.03.12.07.24.15.38.21a612.8 612.8 0 0 1 11.4 5.87c.5.26 1.97.81 2.2 1.03.26.26.44 1.15.51 1.74.23 1.92.02 3.8-.43 5.66-.81.33-1.49.91-1.83 1.72-3.29 7.87-5.41 16.12-8.58 24.03-3.02 7.56-6.43 15-7.05 23.23-.63 8.3 2.52 16.67 4.57 24.59l6.82 26.33c-.02.18-.03.37-.02.57.11 3.9 0 7.78-.25 11.67-.22 3.44-.11 7.32-1.02 10.64-.54 1.99.72 4.79 2.95 5.11 4.01.58 7.87.46 11.84-.42 3.81-.85 7.44-2.95 11.33-3.38 2.39-.27 3.97-1.68 4.2-4.15.38-4.23-1.53-8.43-2.07-12.61a134 134 0 0 0-2.51-13.78c-.1-.43-.26-.81-.45-1.15l-3.89-20.76c-.68-3.61-1.42-7.21-2.02-10.84-.63-3.81-.38-7.73-.71-11.58-1.24-14.77-5.79-29.86-1.79-44.57l.05-.21c1.49.4 3.03.7 4.48.39 2.17-.47 4.46-2.49 6.27-3.69a40.03 40.03 0 0 0 7.09-5.71c.27-.17.53-.38.78-.64 5.9-6.01 11.61-12.5 18.32-17.62a5.48 5.48 0 0 0 1.69-2.04l1.12-.64c2.53-1.34 4.35-3.51 3.17-6.51Z"/>
    <path class="f" d="M147.77 194.06c-.14-11.13.11-22.25.77-33.37.13-2.14-1.48-3.88-3.41-4.53.5-2.38.69-4.84-.17-7.06-1.06-2.75-4.64-4.45-7.09-3.03a4.6 4.6 0 0 0-4.26 2.21 588.99 588.99 0 0 0-24.39 41.33c-2.24 4.19-4.56 8.93-2.37 13.63 1.94 4.15 6.59 5.92 10.11 8.48 3.86 2.81 7.48 5.98 11.69 8.29 3.78 2.07 9.15 4.47 13.52 3.13a6.3 6.3 0 0 0 2.51-10.6c4.15.72 8.24.16 10.5-3.51 3.96-6.44-2.31-11.57-7.42-14.97Z"/>
    <path class="e" d="M283.57 118.94c-.26-.28-.67-.51-1.04-.74a2.48 2.48 0 0 0-.15-.64c-.5-1.32-.08-3.12 0-4.52.05-1-.4-1.83-1.09-2.41 1.23-3.5.77-7.71.81-11.27 0-.62-.13-1.15-.37-1.59.37-.23.72-.44 1.01-.65 2.68-1.9 1.73-5.85-1.62-6.12a39.6 39.6 0 0 0-9.42.42c-4.13.65-2.51 6.88 1.54 6.36a9.4 9.4 0 0 0-.6 2.71c-.29 3.66-2.4 9.08-.77 12.58.09.19.19.36.29.52-.68 1.31-1.33 2.66-2.13 3.89-.69 1.08-1.47.95-2.63 1.7-3.53 2.28-.27 7.98 3.28 5.68.43-.28 1.08-.48 1.69-.78.47.3 1.07.46 1.79.42 2.37-.12 4.73-.11 7.1.04 3.01.19 4.15-3.65 2.32-5.62Z"/>
    <g>
      <path class="g" d="M283.9 125.5c-2.66.14-5.32.54-7.98.68-2.05.11-4.66.58-6.52-.42-5.22-2.8-10.01 1.65-10.22 6.15a6.07 6.07 0 0 0-.41 7.32c.86 1.42 2.58 3.53 3.37 5.29a6.44 6.44 0 0 0 3.29 6.13 7.07 7.07 0 0 0 5.76.45c3.85.44 8.08-.3 11.12-1.94 4.53-2.45 9.91-7.66 12.09-12.31 3.34-7.13-4.39-11.66-10.5-11.35ZM190.78 178.17c-.99-1.67-.95-3.92-1.18-5.82l-.84-6.76c-.53-4.29-.51-9.24-1.7-13.38-1.4-4.87-5.64-3.86-9.42-3.51a36.3 36.3 0 0 1-7.14-.28c-1.05-.11-2.08-.28-3.12-.43-.67-.1-.93-.55-.82-.14-1.56-6.11-11.04-3.64-9.48 2.47a8.94 8.94 0 0 0 1.9 3.71c-3.55 3.49-2.34 11.5-1.57 15.63 1.25 6.7 5.38 13.45 3.33 20.37a4.43 4.43 0 0 0 1.32 4.66c-1.34 4.09-3.1 8.16-2.79 12.44.3 4.17 6.83 4.23 6.53.04-.2-2.79.71-4.85 1.66-7.38.6-1.6 1.04-3.25 1.44-4.91.31-.32.6-.7.83-1.15 1.99-3.81 3.75-7.9 6.06-11.53.53-.84.59-.36.3-.32.76-.11 1.75.32 2.47.52 2.03.55 3.78 1.4 5.57 2.5 4.17 2.54 9.11-2.58 6.66-6.7ZM202.2 302.59a3.4 3.4 0 0 0 .21-1.82 94.54 94.54 0 0 0-2.11-10.41c-.91-3.45-2.28-6.83-2.76-10.37-.39-2.87-.65-5.43-1.77-8.14a40.17 40.17 0 0 1-2.6-9.93c-.31-2.19-3.11-2.91-4.79-2-3.54 1.92-7.57.43-11.14-.64l-5.7-1.72c-1.49-.45-4.02-.83-4.98-2.22-2.36-3.44-8.03-.21-5.65 3.26l.34.45a2.9 2.9 0 0 0-.15 2.29c1.77 5.7 1.53 12.28 1.81 18.2.29 6.25.4 12.49.17 18.74-.03.89.23 1.58.67 2.1-.17.34-.29.71-.34 1.14-.27 2.11-1.52 3.97-1.9 6.07-.17.96.11 4.82-.89 5.15-3.97 1.3-2.4 7.54 1.64 6.32 4.37-1.32 8.93-1.44 13.45-1.76l14.13-1.01c2.08-.15 4.44-.22 6.64-.7 2.11 1.15 4.18 1.92 5.98-.91 2.09-3.29.3-8.53-.27-12.06ZM240.3 376.06c-2.16-3.91-7.65-6.34-11.86-7.05a.88.88 0 0 1-.16-.02c-.59-.27-1.17-.55-1.74-.88a3.3 3.3 0 0 0-4.37.79c-3.73.33-7.49 1.27-11.19.5-4.45-.92-5 2.71-4.35 4.93-.9.3-1.68.9-2.12 1.67.15.55.28 1.1.36 1.67.09.61.07 1.27.05 1.93 1.53 2.15 3.88 3.02 6.49 3.29 1.7.33 3.48.44 5.33.51 5.26.21 10.82.44 16.05-.24 1.18-.15 2.55.88 3.31.28 1.78-.15 2.96-2.08 4.22-3.81.73-1.01.55-2.56-.01-3.57ZM158.67 372.01c.47-2-1.39-4.47-3.52-4.26-4.22.41-8.38.43-12.57-.26a9.58 9.58 0 0 0-3.59 0c-3.04-2.32-7.1.87-6.18 3.61-4.07 3.08-11.3 8.83-5.6 13.48l.28.2c1.13.33 2.23.72 3.37.99 1.8.07 3.73-.29 5.35-.34 3.66-.1 7.36.48 11.01.22 6.66-.49 11.66-5.51 11.71-12.25 0-.52-.09-.98-.24-1.38Z"/>
      <path d="M154.09 90.47c.15-.27.24-.53.3-.79.04-.35-.03-.72-.16-1.07-.25-.68-.73-1.19-1.13-1.78a6.7 6.7 0 0 1-.88-1.9c-.13-.43-.23-.97.03-1.37.28-.45.88-.42 1.25-.11.35.3.52.87.99.99.22.05.44.03.65-.03 1.38-.87 1.65-1.58 1.17-2.73-.63-1.5-2.5-2.58-3.98-2.29-.67.13-1.24.36-1.72.68l-.21.27c-.33.48-.64 1-.88 1.53a3.75 3.75 0 0 0-.3 1.78c.04 1.21.07 2.49.47 3.65.24.7.78 1.26 1.03 1.95.8.88 1.57 1.64 2.82 1.7.22-.11.41-.28.56-.49Z"/>
      <path d="M297.07 130.53c-.12-1.17-.75-2.33-1.26-3.39-.83-1.74-2.54-2.54-4.12-3.49l-1.39-.86-.05-.07-.16-.09-.8-.5a16.21 16.21 0 0 1-2.87-2.57c-.22-.29-.42-.58-.61-.89-.17-.16-.32-.34-.48-.52-.4-.58-.75-1.19-1.08-1.82-.44-2.03-.24-4.25-.29-6.26l-.05-5.7c.02-2.4-.28-4.61 1.23-6.39.28-.14.54-.31.76-.51a10.29 10.29 0 0 0 .69-1.19l.08-.18.04-.09.15-.46.11-.47.03-.15.01-.11v-.77l-.07-.34a3.97 3.97 0 0 0-.15-.49l-.03-.09a1.2 1.2 0 0 0-.08-.16 6.32 6.32 0 0 0-2.33-1.7 30.25 30.25 0 0 0-7.5-1.31c-.91-.05-1.82.05-2.73.18-.55 0-1.11.02-1.65.06-.7.05-1.41.17-2.06.4-2.05.16-3.66 1.05-4.26 2.81-.32.95-.28 1.8.02 2.56.01.29.08.57.23.82.4.65 1.13.79 1.69 1.23.56.45.9 1.12 1.11 1.79.59 1.97.16 4.29.18 6.25l-.14 4.82c-.05.94.04 2.06 0 3.16a11.3 11.3 0 0 1-4.3 5.08 21.1 21.1 0 0 0-5.96 5.53 19.8 19.8 0 0 0-3.24 13.16 51.06 51.06 0 0 0-.93 7.07 6.22 6.22 0 0 1-1.41 3.44 20.39 20.39 0 0 1-3.56 3.38c-.47.37-1.55.66-1.89.4-1.58-1.23-2.54-.2-3.54.75-1.64 1.57-3.12 3.33-4.89 4.74-3.11 2.47-6.39 4.73-9.63 7.1-1.89-1.88-3.75-3.69-5.57-5.55-1.39-1.41-2.57-3.06-4.13-4.25-.69-.53-1.15-.98-1.27-1.59-.99-1.08-1.47-2.74-1.96-4.01-.15-.38-.32-.74-.5-1.1a46.78 46.78 0 0 0-3.75-5.55l-.89-.81a25.62 25.62 0 0 1-3.24-3.49 20.3 20.3 0 0 0-.5-.45c-.41-.27-.84-.55-1.2-.88-.22-.19-.39-.42-.57-.65-.42-.36-.82-.73-1.23-1.1-.35-.16-.71-.3-1.04-.49-1.24-.71-.38-2.54.94-2.23 1.49.35 2.95.87 4.46 1.07.54.07 1.08.08 1.61.02.26-.07.52-.15.77-.25.18-.07.22-.08.47-.21.38-.18.75-.39 1.1-.63 2.56-3.69 5.17-7.36 7.52-11.19a77.75 77.75 0 0 0 3.48-6.25c1.05-2.11 1.92-4.3 2.96-6.41 2.13-4.33 4.63-8.46 6.9-12.71a80.35 80.35 0 0 0 3.17-6.54c.7-1.65 1.26-3.36 1.76-5.09.79-2.74 1.77-5.38 3.56-7.42.27-.53.54-1.06.83-1.59.32-1.12.64-2.25.98-3.37.23-.75.59-1.46 1.08-2.08 2.35-3 2.42-6.38 1.19-9.67-1.45-3.87-3.12-7.69-6.03-10.83a9.34 9.34 0 0 1-2.58-5.59c-.17-1.75-1.1-3.44-1.72-5.14-.28-.76-.71-1.47-.94-2.25-1.19-4.13-4.56-6.59-8.98-7.03-.45-.04-.99.12-1.34-.08-2.83-1.59-5.56-3.36-8.44-4.85-1.74-.91-3.74-.75-5.65-.98-.36.02-.72.03-1.07.06-.44.05-.86.19-1.29.27-.39.07-.77.08-1.15.05a2.51 2.51 0 0 1-2.26-.7l-.24-.12c-.58-.36-.99-.93-1.55-1.33a4.9 4.9 0 0 0-1.91-.77c-.94-.17-1.92-.15-2.9-.09-.75.12-1.5.2-2.26.24-.11 0-.22.02-.32.03l-1.11.2c-.21.03-.43.03-.64.04a.56.56 0 0 1-.23.05c-.6-.01-1.18.14-1.78.2-.56.06-1.12 0-1.68-.02a6 6 0 0 0-2.89.56c-.36.17-.69.39-1 .63l-.35.33c-.73.7-1.46 1.41-2.3 1.98-.81.55-1.76.88-2.74.74a3.59 3.59 0 0 1-.35-.08 3.57 3.57 0 0 1-1.34-.38c-.5-.24-.95-.57-1.49-.72a8 8 0 0 1-1.25-.51l-.92-.45c-1.76-.3-3.56-.87-5.26-.42-2.18.58-3.69 2.87-5.4 4.22-1.69 1.33-3.04 3.04-4.78 4.31-1.59 1.16-3.56 1.52-5.29 2.4-1.69.86-3.34 1.9-4.93 2.93-.17.19-.34.4-.49.61a28.04 28.04 0 0 0-4.83 11.22c-.3 1.81-.4 3.68-1.16 5.38-1.24 2.78-4.11 3.43-6.47 4.93-2.07 1.32-2.87 3.75-3.33 6.21.08.38-.01.89-.06 1.3-.51 4.17-1.05 8.34-1.55 12.51-2.5.86-4.96 1.8-7.26 3.1l-.03.02c-.34.29-.66.61-.95.95l-.11.13-.12.17c-.1.14-.19.29-.27.45l-.09.18-.05.13-.05.19-.01.06v.25l.05.19v.02l.02.03.14.23.07.08.21.2.09.07.04.02c.19.12.39.21.58.29 1 .05 2.03-.25 2.98-.61l4.22-1.6a8.57 8.57 0 0 1-3.33 3.91c-.23.25-.51.45-.83.68-.63.45-1.18 1.01-1.8 1.48-1.28.96-3 1.66-3.8 3.11-.66 1.2-.61 2.67-.5 4 .15 1.65.53 3.27.57 4.92.09.37.18.75.25 1.12.3 1.5.3 2.99.35 4.5.04 1.29.25 2.56.51 3.82.34 1.7.42 3.65 1.12 5.33.59 1.42 1.45 1.81 2.91 1.94 1.11.1 2.24.13 3.26.63 1.46.72 2.79 1.88 4.12 2.81l.45.31c1.43.77 2.84 1.57 4.18 2.48a6.61 6.61 0 0 0 5.45.97c1.47-.31 2.93-.72 4.41-1.13a.9.9 0 0 0 .16-.09c.28-.15.54-.33.82-.48.51-.28 1.05-.52 1.57-.75.59-.26 1.2-.54 1.84-.66.34-.06.65 0 .9.14l.2-.16a21.68 21.68 0 0 1-2.09 4.7c-.46.82-.98 1.84-1.61 2.77-1.06 2.83-4.26 2.6-6.87 2.76-.33.02-.64.07-.96.12l-1.29.55c-1.04.44-2.01 1-3.07 1.4-.81.31-1.58.73-2.23 1.29-.84.71-1.6 1.51-2.34 2.32-1.31 1.43-2.69 2.83-3.97 4.29l-.55.7c-3.18 3.94-6.71 7.57-9.69 11.67-1.09 1.5-2.21 2.98-3.31 4.48-.43.76-.87 1.51-1.33 2.25a16.34 16.34 0 0 1-2.49 3.24c-.49.75-.96 1.51-1.41 2.29-1.58 2.72-3.04 5.68-5.07 8.14l-.49.97c-2.04 3.72-4.31 7.3-6.48 10.95l-.02.06a29.1 29.1 0 0 0-3.14 10.08c-.16 1.69-.03 3.45.6 5.04a16.34 16.34 0 0 0 2.78 4.3c.31.38.63.74.95 1.11.9 1.22 1.94 2.31 3.07 3.34 1.06 1.08 2.15 2.15 3.25 3.18a20.27 20.27 0 0 0 5.52 3.47c1.47.99 2.96 1.96 4.44 2.94 3.61 2.41 7.25 4.79 11.42 7.54.26 2.22.65 5.11.92 8.01.46 4.91.91 9.82 1.22 14.74.09 1.47.07 2.94 0 4.41-.27 6.61.11 13.23-.76 19.84a91.52 91.52 0 0 1-3.12 14.92c-1.52 4.95-3.65 9.7-5.29 14.62-1.2 3.61-2.3 7.3-2.91 11.05-.12.76-.2 1.52-.34 2.27-.05 1.02-.2 2.04-.22 3.07a5.87 5.87 0 0 0 .94 3.2l.04.06.04.04c.69.62 1.6 1.09 2.3 1.59 1.25.9 2.45 1.85 3.84 2.54.94.47 1.96.88 2.96 1.35.65.16 1.29.37 1.94.57a70.1 70.1 0 0 1 11.82 4.81c-.08 1.61-.03 3.08-.24 4.52-.09.62-.2 1.23-.3 1.85-.11 1.01-.25 2.01-.39 3.01-.29 2.09-.49 4.2-.59 6.31a26.45 26.45 0 0 1-2.81 10.97 9.58 9.58 0 0 1-2.87 3.48c-1.31.97-2.63 1.69-3.72 2.93-2.23 2.52-5.04 4.57-6.84 7.46-.81 1.3-1.79 3.04-1.8 4.61.28.95.75 1.82 1.52 2.49 1.02.89 2.37 1.01 3.63 1.37 1.47.42 2.89.97 4.41 1.2 3.33.5 6.76-.16 10.11-.16.86 0 1.72.02 2.58.04 1.1-.09 2.2-.12 3.31-.13.32-.06.68-.06.99-.07 2.57-.09 5.15-.16 7.72-.24.78-.02 1.53-.3 2.12-.81a5.1 5.1 0 0 0 1.36-1.85c.75-1.74.67-3.76.67-5.62 0-1.35.07-2.67.25-3.97-.01-1.65.02-3.25.34-4.9.43-2.18 1.17-4.3 1.76-6.44 1.16-4.18 1.58-8.48 2.6-12.69 1.02-4.18 2.38-8.26 3.26-12.48.27-1.31.64-2.58 1-3.85a19.11 19.11 0 0 1 .68-2.56l.29-1.29a8.2 8.2 0 0 0 .59-1.92c.18-1.25.15-2.51.38-3.76.12-.65.27-1.29.45-1.92l.13-.47.13.02c.61.08 1.23.1 1.84.06 1.32-.08 2.64-.13 3.95-.28 1.34-.16 2.68-.37 4.01-.56.64-.09 1.29-.17 1.92-.34l.6-.18c1.37-.13 2.75-.2 4.1-.01a.6.6 0 0 1 .49.48c.1.49.17.98.31 1.47.29.98.55 1.96.69 2.97.21 1.41.6 2.74 1.13 4.05 0 .09 0 .18-.02.28 1.07 4.31 2.61 8.46 4.22 12.61 1.55 3.99 1.76 8.3 2.82 12.42.53 2.06.94 4.17 1.53 6.22.57 1.98 1.59 3.74 2.37 5.63.74 1.8.71 3.66.84 5.58.15 2.22 1.16 4.21 1.47 6.4.28 1.97-.45 4.33.58 6.13a3.27 3.27 0 0 0 1.95 1.41c.9.19 1.85.26 2.73.34h.04c.99-.06 1.98-.15 2.97-.18 2.98-.1 5.96.25 8.95.17 3.26-.09 6.51-.35 9.77-.36 1.22 0 2.43-.05 3.64-.19 3.17-.35 6.1-.66 6.86-3.85.57-2.38-.5-4.86-1.4-7.02-.31-.74-.59-1.51-.91-2.26a7.4 7.4 0 0 0-1.25-1.45c-.78-.69-1.65-1.26-2.51-1.85-.9-.35-1.75-.68-2.64-.99l-1.54-.35c-2.34-.55-4.46-1.68-4.71-3.89-.06-.27-.1-.55-.12-.83-.05-.7.04-1.41-.03-2.11-.07-.78-.25-1.56-.42-2.32a28.28 28.28 0 0 1-.76-4.46c-.79-4.62-2.93-8.71-3.01-13.35-.05-2.57-1.23-5.11-1.85-7.68-.14-.57-.09-1.18-.13-1.89l1.31-.12c.93-.32 1.89-.51 2.83-.81 1.02-.32 2.01-.77 3.04-1.05 1.46-.39 2.99-.4 4.47-.66 1.2-.22 2.7-.56 3.3-1.76.24-.49.34-1.03.37-1.58a20.08 20.08 0 0 0-.99-3.98l-.31-.82-.14-.3-.14-.29c-.04-.07-.06-.15-.09-.22a1.28 1.28 0 0 1-.16-.36c-.54-2.11-.93-4.26-1.33-6.41-.83-4.47-1.57-8.96-2.44-13.42-.75-3.83-1.67-7.63-2.46-11.45-.2-.97-.17-1.99-.31-2.98-.54-3.85-1.09-7.69-1.68-11.53-.6-3.88-.93-7.84-2.03-11.58a38.62 38.62 0 0 1-1.59-9.36c-.07-1.75-.25-3.49-.43-5.23-.24-2.43-.97-4.9-.71-7.27.05-.41.05-.82.03-1.24l-.04-.6c-.11-1.29-.34-2.58-.13-3.84-.04-2.48-.03-4.95-.2-7.42-.3-4.46-.82-8.91-.9-13.38 0-.24.05-.44.13-.61 0-1.32.1-2.66.28-4.07.97.57 1.83 1.51 2.62 1.45 2.03-.15 4.2-.16 5.8-1.88 3.67-3.94 8.49-6.71 11.53-11.31.2-.31.48-.56.79-.77 1.1-.72 1.93-1.78 2.84-2.73a18.02 18.02 0 0 1 3.02-2.85c.9-.7 1.85-1.38 2.84-1.96a54.18 54.18 0 0 1 6.58-5.58c2.74-1.94 5.31-4.11 7.2-6.98.38-.58 1.05-.99 1.63-1.42a9.14 9.14 0 0 0 2.89-3.55c.6-1.25 1.69-2.3 2.68-3.32 3.52-3.65 7.95-3.69 12.42-2.68 2.43.55 3.95.36 4.99-1.58.59-1.1 1.3-2.17 1.69-3.34.74-2.2 1.45-4.31 2.86-6.13.53-1.15 1.5-2.22 2.17-3.14a7.91 7.91 0 0 0 1.43-3.5v-.08c-.1-.46-.29-.85-.55-1.2l-2.32-1.65 1.81-1.87c.45-.86.79-1.79 1.1-2.71l.9-5.53v-.03c-.03-1.22-.2-2.38-.58-3.49Zm-26.71-36.92c1.44-1.49 3.9-1.04 5.74-.85 2.28.24 4.73-.38 6.84.71.06.02.12.05.17.09l.07.04c.43.26.58.83.33 1.26a3.18 3.18 0 0 1-1.74 1.22c-.63.2-1.27.25-1.92.21-.67-.04-1.36-.04-2.03-.13-.26-.03-.55-.09-.83-.14a62.9 62.9 0 0 1-3.64-.18c-1.03-.09-2.27-.07-2.99-.94-.33-.39-.37-.92 0-1.3Zm-2.29 27.34.23-.77.5-.43c.28-.07.57-.15.85-.26l.39-.14c.47-.32.99-.57 1.44-.92.68-.53.7-1.31.72-2.12.04-1.83-.07-3.63-.13-5.46-.07-1.88-.11-3.92.21-5.86 0-.27 0-.54.02-.81.06-1.19.53-2.26.73-3.42.17-.96.61-1.74 1.48-2.14 1.89.06 3.79.12 5.68.13.6.7.58 1.74.56 2.68.31 1.31.08 2.73.02 4.05-.04.92-.06 1.84-.11 2.75.07 2.23.13 4.46.14 6.69a6.25 6.25 0 0 0 1.98 4.84c.89.83 1.49 1.84.94 3.24-5.22 1.29-10.28.28-15.37-1.05-.09-.29-.36-.68-.28-.98ZM136 74.16c.43-2.15.58-4.38 1.34-6.44l.12-.27c.24-2.64 1.33-5.03 4.01-6.08.97-.38 1.87.57 1.92 1.46.07 1.32-.13 2.65-.17 3.97a18.38 18.38 0 0 0 .04 1.6v.09l.03.1c.06.24.11.49.2.72l.1.15c.21-.17.42-.34.65-.48l.21-.1c.24-.38.46-.78.65-1.18l.08-.18.09-.23c.08-.2.14-.4.21-.61.11-.36.19-.72.26-1.09-.09-1.03-.17-2.06-.23-3.09-.06-1.21.22-2.3.97-3.52.87-1.41 1.53-2.9 2.82-4.02.19-.16.3-.47.35-.73.64-3.1 1.31-6.2 1.86-9.31.38-2.16.7-4.28 3.68-5.4-.36 1.86-.59 3.33-.93 4.78-.25 1.06-.79 2.07-.87 3.13-.04.56.49 1.33.99 1.71.72.56 1.41.06 1.83-.61.38-.6.68-1.27.95-1.93 1.04-2.53 1.91-5.14 3.12-7.58a9.63 9.63 0 0 1 2.81-3.28c1.96-1.47 4-3.37 6.24-3.76 2.51-.44 3.88-1.87 5.53-3.29 1.03-.89 2.21-.75 3.27.08 1.39 1.09 2.98 1.55 4.71 1.91 1.79.38 3.15-.19 4.52-1.05 2.44-1.54 4.81-3.07 7.57-4.17a14.98 14.98 0 0 1 6.26-.96c.22 1.65-.63 2.58-1.5 3.53-.74.8-1.45 1.63-2.07 2.52-.65.91-.5 1.93.57 2.23 1.23.35 2.6.9 3.85-.11.28-.23.62-.4.88-.65 2.73-2.65 6.36-3.31 9.8-4.29.96-.27 2.2-.15 3.15.22 1.78.69 3.45 1.65 5.12 2.58.42.23.96.76.95 1.14-.05 1.56 1.1 1.82 2.14 2.04 1.93.42 3.9.67 6.27 1.06a24.74 24.74 0 0 1 4.33 9.82c.8 3.58 2.64 6.75 4.6 9.81.79 1.23 1.6 2.5 2.65 3.48a5.55 5.55 0 0 1 1.83 4.61 9.5 9.5 0 0 1-.44 4.2c-.41 1.35-1.06 2.61-1.63 3.89a49.55 49.55 0 0 0-1.92 5c-.16.5-.66.67-1.11.45-1.26-.6-1.58-1.96-2.3-3.04-.28-.42-.07-.82.27-1 .58-.59 1.53-1.3 1.41-1.67a8.4 8.4 0 0 0-2.02-3.45c-.96-.92-1.95-1.62-2.59-2.92-.55-1.12-1.87-1.87-2.85-2.77-.87-.8-1.68-1.72-2.67-2.33-1.95-1.2-3.32-2.72-3.73-5.03-.1-.53-.39-1.02-.62-1.61l.05-.05c-.4-.8-.67-1.68-.85-2.55a1.75 1.75 0 0 1-.02-.6c-.09-.43-.19-.86-.26-1.29-.16-.88-.5-1.67-1.47-1.71-1.17-.04-1.15.94-1.21 1.76l-.1 1.17c-.77-.15-1.46-.46-2.12-.4a6.78 6.78 0 0 1-3.13-.4c-.77.25-1.53.5-2.24.87a1.5 1.5 0 0 1-1.57.83l-.06.06-.1-.09a1.38 1.38 0 0 1-.36-.15c-.2-.11-.38-.26-.55-.42-.21-.2-.33-.43-.39-.67a7.23 7.23 0 0 1-.83-2.15 12.73 12.73 0 0 0-1.28-3.13c-.46-.85-.88-1.87-1.61-2.54-.34-.31-.64-.41-1.06-.55l-.14-.03-.02.23-.01 1.07c-.05 1.06-.56 1.97-1.65 2.24-1.07.26-1.98-.18-2.97-.47l-.1-.03c-1.77-.08-3.55-.4-5.3-.29-1.96.13-3.99.09-5.82 1.22-.69.43-1.7.4-2.57.48-1.89.18-3.55.74-4.41 2.59-.72 1.56-1.34 3.18-2 4.78l-7.29.38c-2.85.13-4.93 1.53-6.45 3.88-.64.99-1.35 1.95-2.02 2.92-.17.24-.36.47-.55.71l-.38 1.11c-.16.49-.28 1-.37 1.5-.71 1.34-1.34 2.73-2.35 3.85-.82.9-1.86 1.62-2.82 2.37-.24.16-.49.33-.74.47a5.69 5.69 0 0 1-4.99.58l-.15.02-.5.01c-.47.07-.93.16-1.38.26l-.46.15c-.81.28-1.58.7-2.33 1.17-.28.17-.53.35-.78.53-.39.41-.82.78-1.28 1.11l-.05.05a9.6 9.6 0 0 0-.47.9l-.08.17-.16.41c-.78.5-1.59.95-2.41 1.36-2.03.74-4.04 1.51-6.03 2.35.06-1.37.32-2.75.59-4.07Zm6.85 5.57-.14.55c-.58 1.84-1.96 3.37-4.04 3.28a2.94 2.94 0 0 1-2.43-1.33l6.61-2.5Zm10.19 33.5v1.78l-.2 1.59a2.81 2.81 0 0 1-1.83 2.47c-2 .87-3.9 1.95-5.91 2.8-1 .42-3.68-.49-4.96-1.41h-.33a4.19 4.19 0 0 1-.8-.15 2.3 2.3 0 0 1-.71-.41 5.5 5.5 0 0 1-1.03-1.15 5.02 5.02 0 0 1-.61-.69c-.8-1.06-1.24-2.35-2.04-3.41-.9-1.19-2.2-1.3-3.55-1.58-.13.1-.25.21-.33.34a.92.92 0 0 0-.14.39l.01.3c0 .05.09.28.07.23.05.11.13.18.21.26.46.28 1.49.86 1.43.87l.23.19c.35.31.27.98-.15 1.19-1.72.87-3.7-.38-4.51-1.94a7.62 7.62 0 0 1-.63-2.79c-.05-.56-.07-1.12-.05-1.67-1.07-5.16-1.37-10.45-2.08-15.89l2.86-1.76c1.95-1.87 4.74-2.52 7.19-3.48 2.12-.83 4.68-2.42 7.05-1.87.43.1.73.7.47 1.09.28.32.25.85-.16 1.16-2.07 1.55-4.21 3.12-6.58 4.17-1.25 1.3-3.12 2.03-4.74 2.82a7.3 7.3 0 0 0-1.1 1.99c-.23 2.34-.47 4.55-.61 6.76-.11 1.61.53 2.4 1.96 2.83 1.5.46 2.49-.11 2.73-1.67a9.9 9.9 0 0 0-.03-2.43c-.15-1.59.03-3.01.76-4.16.24-.81.74-1.44 1.51-1.94.97-.63 2.05-1.05 3.01-1.73 1.01-.71 1.95-1.54 3.09-2.03a3.81 3.81 0 0 1 3.63.24.7.7 0 0 1 .34.5l.05.02c.13.09.26.18.37.29a21.88 21.88 0 0 1 3.33 4.51c.32.95.72 1.87 1.11 2.8a20.75 20.75 0 0 1 1.42 5.14c.26 1.8.3 3.63.28 5.44Zm.17 23.33c3.15-4.34 4.37-9.58 6.71-14.29 1.19-2.41-2.37-13.18-3.71-15.37-.56-.92-1-1.93-1.4-2.94-.4-1-1.02-2.07-.95-3.07.19-2.78-1.33-4.56-3.08-6.33-1.08-1.09-2.23-2.17-3.02-3.46-.4-.65-.47-1.5-.61-2.54-.14-.42-.3-.84-.41-1.27-.23-.9-.14-1.83-.32-2.74-.08-.41-.17-.82-.17-1.24 0-.37.01-.74.03-1.1a4.65 4.65 0 0 1 .63-3.6c.45-.68.78-1.44 1.2-2.15 1.46-2.45 2.99-3.01 5.16-1.32 1.8 1.41 4.15 1.11 5.9 2.47.19.15.68-.07 1.27-.29a2.5 2.5 0 0 0-.29-.61c-.33-.56-.83-.92-1.3-1.35a2.2 2.2 0 0 1-.57-.83c2.96-.87 5.91-1.75 8.86-2.64l2.27-.69c.63-.19 1.31-.35 1.85-.74.8-.58 1.04-1.54.66-2.31.1-.67-.41-1.35-1.18-1.15-3.43.92-6.81 2.01-10.14 3.24.41-.68.82-1.35 1.27-2 .63-.91 1.39-1.97 2.34-2.71.43-.7 1.35-1.24 2.03-1.76l1.02-1.09.05-.07c.29-.59.52-1.19.84-1.76 0-.11 0-.22.05-.31.12-.26.28-.49.48-.7.75-1.98 2.44-2.4 4.06-2.94l.06-.04c.28-.19.54-.26.78-.26l.14-.05.04.07c.33.04.66.2 1.04.38 1.06.49 2.26.87 3.38 1.21.9.27 1.87.42 2.79.22.16-.14.32-.25.51-.29 1.15-.25 1.35-.97 1.45-1.98.21-2.11.05-4.41 2.38-5.64 1.16-3.98 4.79-3.4 7.63-3.87 2.85-.46 5.8-.24 8.71-.3.48-.01 1.03-.12 1.45 0h.09c.46.05.75.13 1.17.33.25.12.47.3.67.49.33.31.61.71.81 1.12.15.31.28.63.39.95.94 1.04 1.67 2.3 2.76 3.18 1.84 1.49 2.42 1.49 4.1-.32.37-.4.63-.89.93-1.32 5.06 1.9 7.49 5.52 9.51 9.83 2.17.26 3.72 1.79 4.78 3.75a7.8 7.8 0 0 0 2.82 2.94 5.4 5.4 0 0 1 2.82 5c-1.93-.19-3.81-.34-5.68-.55-2.05-.24-3.99-.03-5.75 1.14-1.36.91-2.77 1.74-4.04 2.76-.88.7-2.01 1.46-1.29 3.06 1.2.56 2.24-.14 3.22-.73a14.11 14.11 0 0 1 7.32-1.92c1.32-.02 2.63-.48 3.95-.61 1.06-.11 2.13-.02 3.5-.02.04 1.75.27 3.21.07 4.61a62.66 62.66 0 0 1-4.54 15.88c-1.93 4.48-4.52 8.68-6.81 13l-3.68 6.93-2.75 4.5c-1.42 2.13-2.6 4.54-4.21 6.58-1.11 1.41-2.51 2.62-4.39 2.68-2.28.07-4.48-.86-6.77-.91-.12 0-.23.01-.34.04a1373 1373 0 0 1-9.16-2.55c-.89-.18-1.77-.37-2.66-.54-3.24-.63-6.5-1.22-9.68-2.13-.27-.08-1.8-1.03-2.41-1.24a3.49 3.49 0 0 0-1.31-.22c-.94.05-1.23 1.32-.44 1.82 6.49 4.1 13.6 6.74 21.19 8.87a47.02 47.02 0 0 1-11.79 9.91 31.47 31.47 0 0 0-4.97 3.78 4.97 4.97 0 0 1-5.27.86c-1.23-.5-2.4-.5-3.58-.79a45.5 45.5 0 0 1-5.95-1.84 44.37 44.37 0 0 1-5.87-2.89c-2.34-1.37-4.56-2.93-6.88-4.43.09-.3.09-.59.23-.78Zm36.72 112.41c-.79 1.08-1.16 2.52-1.62 3.73-.67 1.74-1.15 4.01-2.57 5.31-1.6 1.46-3.59.84-5.45.3l-.22-.07a20.3 20.3 0 0 1-.8-.43l-.74-.18c-1.64-.43-3.1-1.51-4.71-2.09-3.49-1.26-7.03-2.38-10.55-3.58-2.19-.74-4.39-1.47-6.52-2.63l1.78-4.51c3.98.01 7.7-1.47 11.45-2.81a58.16 58.16 0 0 0 6.6-2.97c.38-.19.7-.43.96-.7.19-.33.38-.66.55-1 .38-.77.53-1.61-.06-2.33-.24-.29-.51-.55-.73-.83a.5.5 0 0 0 .27-.28c.38-.82 1.17-1.33 1.69-2.06.55-.77.67-1.73.41-2.63-.15-.5-.42-.94-.64-1.41-.27-.58-.2-1.17-.33-1.78a5.82 5.82 0 0 0-1.55-2.61c-.33-.34-.85-.54-1.02-1-.15-.42-.14-.87-.35-1.28-.44-.85-1.36-1.32-2.27-1.45-1.06-.15-2.17.08-3.22.28l-.31.07h-.05l-.18.05c-.58.12-1.15.26-1.72.41-.39.22-.79.42-1.21.58-.86.33-1.84.67-2.76.4-1.19-.35-1.49-1.52-1.25-2.62.22-1 .7-1.97 1.08-2.91a24.01 24.01 0 0 1 1.66-3.36c.59-1.42 1.19-2.83 1.77-4.25 2.11-5.08 4.7-9.95 5.91-15.41a29.1 29.1 0 0 1 1.53-4.95c.73-1.5 1.66-2.9 3.51-2.91.98 0 1.97.21 2.95.49 1.42.6 2.84 1.14 4.31 1.44 2.98.62 5.74 1.85 8.7 2.59a173.32 173.32 0 0 1 5.44 1.92c2.11.81 4.06 2 6.02 3.11l.35.19c.1.07.21.13.33.19.61.35 1.19.74 1.57 1.37.22.37.36.77.45 1.18-.64 4.25-2.77 8.06-3.74 12.16-1.15 4.84-3.31 9.25-4.85 13.92-.88 2.67-2 5.26-3.02 7.88-2.24 5.75-4.47 11.49-6.75 17.23l-.11.23v.04Zm-30.72-24.72.54.41c1.97 1.42 2.6 1.44 4.47.09.93-1.15 2.32-1.58 3.73-2.02 1.59-.49 3.27-1.14 4.96-1.02.58.04.99.64.67 1.18-.66 1.12-2.06 1.58-3.23 1.96-.9.29-1.76.63-2.6 1.04l-.46.16c-.57.21-1.11.54-1.27 1.16-.03.14.03.3.15.37.36.19.72.38 1.13.42.41.04.77-.1 1.14-.27.94-.42 1.89-.8 2.85-1.15.92-.33 1.85-.64 2.78-.94.33-.11 1.28-.52 1.95-.51a1.36 1.36 0 0 1 .51 1.8c-.47.57-1.08.93-1.76 1.22-1.39.58-2.89.83-4.32 1.31a6.8 6.8 0 0 0-.9.35c-.14.07-.29.14-.43.23l-.21.13-.06.04-.33.31c-.1.11-.01 0-.03.04l-.02.03a2.4 2.4 0 0 0 .56.78l.1.06h.04c.17-.03.34-.06.5-.11l.05-.02c.1-.05.2-.08.3-.09.67-.22 1.32-.5 1.98-.77.92-.38 1.84-.7 2.82-.86.6-.31 1.22-.57 1.89-.64.43-.05.74.36.77.76a8.1 8.1 0 0 1-2.02 2.37 7.53 7.53 0 0 1-3.11 1.64c-.56.15-1.14.29-1.62.63-.3.21-.87.69-.69 1.11a.6.6 0 0 0 .25.29l-.03.1v.02l.05.02a.2.2 0 0 1 .07.01h.07l.25-.01c1.56-.43 3.15-1.35 4.77-.66.57.24.45 1.07 0 1.35-2.37 1.46-5.16 1.99-7.74 2.94a.6.6 0 0 1-.4 0c-2.18 1.03-4.7 1.07-7.07 1.49-.6.11-1.41-.35-1.97-.76a581.05 581.05 0 0 1-5.56-4.05l-.54-.24c-.59-.28-1.08-.67-1.59-1.07-.19-.16-.26-.22-.45-.34v-.02l-.12-.23-.04-.07-.09-.32a2.59 2.59 0 0 1-.09-.4l-.03-.19v-.03c-.01-.28 0-.56.01-.84l.05-.24.13-.57.1-.42 5.82-9.49a4.8 4.8 0 0 1 2.71-2.35c.46-.15 1.13.18 1.21.69.09.56.07 1.07-.03 1.62-.07.39-.2.76-.31 1.14l-.17.61-.06.27c0 .03-.01.21-.01.08v.04l-.01.31v.13Zm26.09-40.85c-2.12-1.01-4.27-1.95-6.42-2.9-.32-.14-.71-.11-1.06-.17l-3.44-.58c-1.61 1.21-3 2.88-2.96 5.58.02 1.29-.48 2.63-.94 3.87-1.54 4.19-3.19 8.34-4.77 12.52-1.01 2.69-1.97 5.41-3.32 8.11-.08-.46-.26-.92-.24-1.37.3-6.47.64-12.94.93-19.41.05-1.09-.01-2.2-.14-3.28-.21-1.9-.73-3.78-.74-5.67a58.36 58.36 0 0 0-1.56-13.75c-.24-.99.07-2.11-.02-3.16-.46-5.34-.97-10.67-1.44-16.01-.05-.58-.01-1.17 0-1.95a39.16 39.16 0 0 0 5.98 2.97c.95.54 1.95.96 2.97 1.34l.17.1c.31.18.66.27 1.03.35 1.13.41 2.27.78 3.44 1.02 1.34.28 2.74.44 4.1.26a10.86 10.86 0 0 0 1.83-.47c.94-.23 1.86-.57 2.76-.97l2.97-.93c2.32 11.73 5.23 23.04 5.12 34.85-1.54.59-2.89.28-4.25-.37ZM124.72 222c-2-1.31-4-2.61-6.07-3.78-.65-.37-1.32-.69-2-1.01a1.2 1.2 0 0 1-.05-.18c-4.19-3.01-7.64-6.82-11.01-10.72-1.59-1.85-3.24-3.63-4.34-5.83-.06-.67-.05-1.35 0-2.05.12-1.42.29-2.85.49-4.27.21-.66.45-1.3.75-1.91 1.85-3.85 4-7.56 6.02-11.32.17-.32.27-.8.54-.93l.51-.28c1.24-1.98 2.62-3.88 3.94-5.8a93.77 93.77 0 0 1 3.37-4.55c.93-1.35 1.85-2.71 2.8-4.05l6.02-8.55c2-3.29 4.28-6.41 6.7-9.41.93-1.39 1.68-2.96 3.21-3.86 1.11-1.29 2.24-2.57 3.37-3.84.16-.18.33-.29.5-.36a8.89 8.89 0 0 1 5.69-2.65 3 3 0 0 1 1.92.59 14.9 14.9 0 0 1 2.35 2.28c2 2.32 4 4.65 5.88 7.06.45.57.65 1.48.66 2.23.06 5.56-.04 11.13.11 16.68.06 2.1.65 4.19.96 6.29.14.99.27 1.99.24 2.99-.14 5.85-.35 11.69-.49 17.53-.04 1.62.14 3.24.12 4.86-.03 3.09-.13 6.19-.21 9.83-6.21-4.82-12.04-9.18-17.39-14.4.16-.25.27-.53.36-.81a3.7 3.7 0 0 1-.03-.75 9.07 9.07 0 0 1 1.33-3.78l.46-.83c.15-.29.23-.47.3-.66l.02-.06-.81-2.63-.19-.05h-.46c-.03 0-.06 0-.08.02l-.35.09c-.31.27-.57.53-.74.83-1.03 1.81-2.02 3.59-3.47 5.17-1.14 1.25-.76 3.05.41 4.27 1.94 2.03 4.03 3.93 6.13 5.81 1.4 1.26 3.13 2.22 4.34 3.64 2.24 2.6 5.17 4.28 7.8 6.35 3.54 2.78 3.8 5.6.45 8.6a39.33 39.33 0 0 0-8.6 11.17c-.17.32-.38.61-.72 1.14-4.1-.64-7.79-2.22-11.6-4.4a48.88 48.88 0 0 1-9.14-3.7Zm13.83 107.43c-4.4-.51-8.65-1.39-12.43-3.81-1.37-.87-2.66-1.86-4.01-2.82.86-4.36.84-8.77 2.19-13.01-.09-.28 1.07-2.7 1.25-3.04l.03.09c1.55-2.94 2.51-6.14 3.59-9.29a70.1 70.1 0 0 1 1.26-5.57c.88-3.13 2.31-6.11 3.53-9.14.65-1.61 1.27-3.18 1.19-4.99-.2-4.17-.35-8.33-.49-12.5.07-2.94.09-5.87.05-8.81a71.7 71.7 0 0 0-.77-9.48c-.43-2.98-.73-5.9-.62-8.91.1-2.71.24-5.48-.42-8.12l11.06 3.7c.41.14.9.34 1.12.67 1.6 2.46 4.13 3.78 6.45 5.37l3.14 2.17c-.34 2.17-.39 4.31-1.05 6.25-.82 2.44.25 4.33 1.68 5.7a11.45 11.45 0 0 1 3.02 5.65c.87 3.4 1.22 6.97 1.5 10.49.33 4.17.46 8.36.48 12.54 0 .91-.04 1.82-.1 2.73.12.2.2.43.2.73 0 4.72.34 9.45-.07 14.16-.2 2.28-.57 4.51-1.3 6.68a12.55 12.55 0 0 1-.94 2.99c-2.11 4.13-2.85 8.59-3.52 13.09a11.9 11.9 0 0 1-1.32 4.05c-1.17 2.05-.63 4.79-2.49 6.34-1.45 0-2.46.13-3.42-.04-.93-.16-2.22-.34-2.64-.98-1.51-2.3-3.89-2.63-6.16-2.89Zm19.09 45.66c-.26 1.12-.5 2.28-.93 3.34-.13.32-.28.61-.44.9a3.2 3.2 0 0 1-1.82 2.13c-.42.11-.83.27-1.27.43-.87.31-1.78.46-2.68.61-1.85.32-3.7.63-5.57.79-2.05.17-4.1.16-6.16.1-.36-.05-.72-.1-1.08-.17a1.42 1.42 0 0 1-.2-.04 41.62 41.62 0 0 1-3.68-.35c-1.35-.19-2.69-.48-4.04-.66-2.49-.33-3.62-2.04-2.33-4.19a20.6 20.6 0 0 1 4.3-4.88c.9-.76 1.83-1.27 2.36-2.44a6.86 6.86 0 0 1 2.04-2.47c.46-.36 1.47-.44 2-.18 2.3 1.13 10.08 1.87 11.07 1.78 2.61-.25 4.33.02 6.94-.29.26-.03 1.26.23 1.23.27.53.2.96.71.92 1.29-.09 1.36-.34 2.7-.65 4.02Zm8.89-40.27c-.63 2.56-1.03 5.18-1.76 7.71a448.3 448.3 0 0 1-2.69 8.82l-.12.57-.06.39c-.66 2.36-.73 4.86-1.28 7.26a29.02 29.02 0 0 1-1.48 4.66c-.24.59-.53 1.32-.94 1.94l-.11.06h-.05c-.31.07-1.19.14-1.3.08-3.61.12-7.25.54-10.9-.58-3.19-.98-3.93-1.69-3.5-5.01.27-2.06.59-4.12 1.04-6.2-.04-.2-.03-.43.05-.68.44-1.28.74-2.55.89-3.9.16-1.49.48-2.96.7-4.44.34-2.31-.4-4.87.5-7.09.2-.49 1.08-1.06 1.07-1.11.95.11 1.67.11 2.35.29 1.42.37 2.69.92 3.86-.76.79-1.13 1.82-1.81 1.91-3.53.11-2.09 1.03-4.16 1.77-6.18.69-1.89 1.57-3.71 2.42-5.65.49.05.99.05 1.41.06 1 .02 2-.05 2.99-.13l4.87-.43c.17.97.39 1.8.36 2.62-.15 3.83-1.08 7.53-1.99 11.23Zm11.12-18.14c-5.7.47-11.45.34-17.6.48.99-3.8 2.04-7.01 2.65-10.31.82-4.47 1.49-8.99 1.86-13.52.17-2.02-.72-4.1-.84-6.18-.31-5.46-.51-10.93-.67-16.4-.08-2.62.07-5.24.03-7.87-.01-.89-.27-1.78-.4-2.67l-.74-5.24 1.34.8c.31-.09.65-.07 1.01.14 1.96 1.14 4.24 1.64 6.41 2.23l.13.04c.36.06.72.15 1.07.32 1.8.56 3.57 1.25 5.34 1.91l.58.22c.26.07.52.15.77.24.68.25 1.35.52 2.02.79 1.01.36 2.03.71 3.06 1.02.98.3 1.8.42 2.8.12.53-.16 1.05-.36 1.57-.55l3.02-2.02c.04.05.56.36.68.78.63 2.25 1.15 4.54 1.75 6.8.11.42.49.77.59 1.19.54 2.19 1.07 4.38 1.54 6.58.67 3.12 1.26 6.27 1.92 9.39.66 3.1 1.36 6.18 2.06 9.27.22.98.35 2.03.81 2.9 1.81 3.39 1.7 7.04 1.71 10.69v5.42c-1.4.09-2.47.21-3.53.2-2.29-.02-4.5.12-6.69 1.03-4.55 1.89-9.48 1.79-14.26 2.19Zm48.88 51.85c.44-.13.89 0 1.23.27 2.96 1.13 6.22 1.02 8.43 3.71a11.37 11.37 0 0 1 2.71 6.4l.02.27c.18.44.13.95-.35 1.37-2.16 1.88-5.16 2.15-7.92 2.15-2.99 0-5.96-.32-8.95-.23-2.63.08-5.26.2-7.89.34-1.88.09-4.23.05-5.4-1.69-.69-1.03-.85-2.44-.98-3.64-.13-1.3-.09-2.62.02-3.92.02-.19.07-.36.14-.51-.04-.86-.07-1.73-.13-2.61 2.88.21 5.67.72 8.41.54 2.58-.17 5.11-.94 7.76-1.52.94-.38 1.93-.63 2.9-.91Zm-4.28-15.22c.35 2.38.97 4.72 1.54 7.05.04.79.19 1.57.33 2.34l.48 2.55a21.75 21.75 0 0 1-8.58 1.28c-1.89.34-3.8.45-5.72.12-.11-.02-2.78-.22-3.93-.77-.72-.34-1.25-1.5-1.48-2.38-.67-2.53-1.13-5.11-1.7-7.67-1.16-5.29-2.1-10.62-4.25-15.66-1.09-2.56-1.82-5.29-2.67-7.95v-.02a213.6 213.6 0 0 1-3.4-12.19c-.07-.29-.09-1.51-.18-1.88l8.58-1.22c0 3.58.16 7.01-.04 10.42-.24 3.94 1.29 5.36 5.05 4.42 1.04-.26 2.32-.48 3.23-.1 2.27.95 4.43.74 6.66.1.3-.09.63-.1 1.12-.15.1.41.24.81.39 1.2.34.92.53 1.78.67 2.74.15 1.04.39 2.06.59 3.09.16.81.28 1.65.55 2.44.89 4.08 2.14 8.08 2.75 12.22Zm-1.9-87.88c.66 3.3 1.4 6.6 1.97 9.92.57 3.3.92 6.64 1.45 9.94.16.97.52 1.95.95 2.84 1.41 2.92 1.71 6.13 2.32 9.24.74 3.76 1.05 7.6 1.78 11.35.76 3.91 1.8 7.76 2.7 11.64.18.77.29 1.55.43 2.35-4.32 1.63-8.36 3.25-12.48 4.64-1.44.49-3.06.54-4.61.58-3.27.08-6.54.02-10.43.02.11-2.46.05-5 .42-7.47.2-1.32.24-2.62.32-3.94.1-1.88.28-3.77.51-5.64.51-4.03.18-7.97-.88-11.9-.68-2.53-1.07-5.14-1.7-7.69-.77-3.08-1.76-6.1-2.48-9.19-.85-3.63-1.5-7.3-2.24-10.95l-.04-.21a57.26 57.26 0 0 1-2.64-7.73 48.28 48.28 0 0 1-1.74-12.18c0-.23.05-.43.13-.6-.18-.49.01-1.04.2-1.59.63-1.81 1.18-3.64 1.86-5.43 1.78-4.65 3.96-9.18 5.36-13.94 1.84-6.25 4.75-12.08 6.54-18.33.75-2.6 2.12-5.01 3.06-7.56.83-2.27 1.72-4.48 1.01-7.1-.71-2.63-2.63-3.78-4.7-4.93-.71-.39-1.51-.63-2.2-1.05a27.63 27.63 0 0 0-10.69-3.96l-.18-.03a1.8 1.8 0 0 1-.41-.42c-.4-.61-.18-1.88-.2-2.59a113.9 113.9 0 0 0-.28-5.55c-.26-3.55-.69-7.08-1.21-10.61-.48-3.27-.91-6.49-1.86-9.65a56.5 56.5 0 0 0-1.01-3.82c-.58-1.93-.82-3.87-1.09-5.84-.15-1.06.24-1.76.89-2.43 1.71-1.75 3.41-3.51 5.16-5.22.17-.17.38-.3.59-.43l1.01-.97a9.11 9.11 0 0 1 2.32-2.01c.05-.03.11-.04.16-.06.84-.97 2.16-.87 3.38-1.06 1.53-.24 2.31.8 3.07 1.85 2.39 3.3 5.6 5.91 7.75 9.43a8 8 0 0 1 1.31 3.5c.15 1.64.38 3.26.49 4.9.33 5.24.59 10.49.92 15.73.12 1.99.4 3.98.52 5.97.2 3.28.46 6.57.48 9.85.02 4.29-.16 8.58-.3 12.86l-.26 10.86a164.87 164.87 0 0 0 .66 17.93c.03.58.11 1.15.3 1.72l1.22 10.35c-.02 3.26.06 6.5.83 9.66 1.21 4.95.53 10.02 1.52 14.94Zm40.54-91.32a130.37 130.37 0 0 1-7.12 6.79c-6.1 5.42-12.9 10.02-18.23 16.37-2.48 2.96-5.65 5.35-8.61 7.87-1.95 1.67-3.4 1.43-6.37-.64l-.88-26.84c-.11-3.3-.28-6.6-.35-9.9l-.02-.05c-.33-2.06-.17-4.14-.03-6.2.03-.46.33-.84.8-.91h.06v-.06l.07.06c.39 0 .82.26.89.67l.02.15 6.48 5.81c1.96 1.76 4.89 1.51 6.64-.87 1.78-2.43 4.32-3.84 6.61-5.6 1.72-1.32 3.42-2.68 5.25-3.83 2.04-1.29 2.94-1.14 4.46.77a38.71 38.71 0 0 1 4.03 5.79c1.46 2.74 3.79 4.56 6 6.54 2.05 1.83 2.22 2.14.33 4.1Zm31.38-23.07c-.92 1.35-1.49 2.94-2.39 4.32-.3.46-.6.92-.92 1.37-.07.2-.13.41-.21.6a7.79 7.79 0 0 1-2.03 3.13 3.78 3.78 0 0 1-3.65.84c-.16-.05-6.47-.62-9.47-.45-2.08.12-3.49 1.82-4.82 3.29-1.09 1.2-1.95 2.6-3.05 4.09l-13.29-13.34a.66.66 0 0 1-.17-.12c-.37-.34-.33-.95 0-1.3.18-.19.36-.4.53-.61l.13-.16.02-.03.25-.34 1.04-1.41a9.25 9.25 0 0 1 2.36-2.35c.87-1.05 1.39-2.35 2.13-3.49l.04-.17a.2.2 0 0 0 .04.06l.29-.41c.38-.49.95-.61 1.45-.19.13.11.24.23.34.36l.57 1.23c.21.83.22 1.76.27 2.55.05.88.29 1.96.85 2.78.52.32 1.1.56 1.7.79a6 6 0 0 0 2.33.78l1.48.23c.56.22 1.22.31 1.83.35l1.49.1.37.04c1.71.13 3.46.12 5.17.04.45-.02.92-.04 1.39-.08.66.06 1.32.1 2-.04 1.23-.24 2.36-.79 3.45-1.38 1.11-.61 2.25-1.2 3.32-1.89 1.04-.67 1.89-1.46 2.8-2.29a5.46 5.46 0 0 1 2.14-1.26c.13-.08.26-.15.41-.2l.03.11c.14-.03.27-.07.42-.08.38-.04.81.32.89.68.33 1.57-.7 2.65-1.52 3.86Zm1.87-17.56a4.7 4.7 0 0 1-.1.84c-.09.73-.22 1.46-.44 2.16a7.73 7.73 0 0 1-1.87 2.93c-2.94 2.96-5.92 5.9-9.05 8.66-.78.69-2.18.95-3.29.97-3.63.05-7.25-.11-10.88-.17h-.76c-.93-.14-1.98-.27-2.74-.7-.49-.27-.82-.86-1.08-1.46-.12-.46-.34-.91-.54-1.35-.96-2.14-2.06-4.27-2.87-6.47a21.97 21.97 0 0 1-1.05-3.57c.06-.67.19-1.33.32-2.01.22-1.23.35-2.54.93-3.67.47-.9 1.07-1.75 1.66-2.59.41-.29.83-.57 1.3-.78l.25-.28.33.08c.14-.04.27-.06.41-.08 1.04-.12 2.02.3 2.93.75l.56.27 1.56.41c1.3.37 2.58.84 3.81 1.39 1.76.78 3.32.89 5.16-.12a29.17 29.17 0 0 1 6.79-2.58 4.62 4.62 0 0 1 2.71.15c.72.22 1.4.61 2.02 1.01.93.6 1.89 1.3 2.6 2.16.44.53.77 1.15 1 1.82l.17.05c.18.31.36.48.34.62-.07.52-.12 1.04-.17 1.57Z"/>
      <path d="M150.41 104.62a.76.76 0 0 0-.83-.25c-1.14.32-1.75 1.99-2.41 2.85-1.6 2.08-4.42 2.84-6.51 4.3-.88.62-2.08 1.64-2 2.84l.03.07.16.3.09.14.24.25h.01a1.53 1.53 0 0 0 .34.21l.12.05.36.1h.04l.21.02h.39l.33-.03c1.87-.57 3.4-1.47 4.71-2.58a34.2 34.2 0 0 0 1.59-2.01c.81-1.11 1.71-2.17 2.45-3.32.64-.99.95-1.95.67-2.95ZM117.44 48.04c.39.14.77.28 1.18.34.12.02.27.03.42.01.19-.21.38-.4.6-.58v-.02a2 2 0 0 1 .51-.53l.04-.08.07-.19c.08-.24.12-.48.17-.73l.02-.18.02-.38c.02-.82-.04-1.65-.04-2.47l-4.83-5.94c2.38-2.17 4.43-4.22 6.66-6.04 1.92-1.57 2.17-2.35.49-4.21-2.1-2.33-3.65-4.95-5.19-7.6a6.18 6.18 0 0 0-2.58-2.29c-1.08-.6-2.43-.66-3.24.46-2.02 2.81-4.86 4.47-7.78 6.12-.92.52-1.71 1.25-2.51 1.94a9.94 9.94 0 0 0 .06 1.21l.04.22c1.24 1.56 1.98 1.57 3.72.59.47-.26.88-.65 1.33-.97 2.05-1.44 4.06-2.96 6.19-4.27.52-.32 1.66-.21 2.18.17 1.54 1.13 2.91 2.48 3.12 4.35-2.66 2.99-5.15 5.88-7.75 8.67-2.02 2.17-1.57 3.32.75 5.4.58.52 1.1 1.13 1.62 1.72 1.57 1.78 2.92 3.79 4.75 5.28ZM268.48 31.77c1.69-.71 2.56.16 3.58.91.64.47.84 1.33.46 2.02-2.34 4.24-5.61 7.62-7.84 11.58-4.41.34-5.06-.11-4.41-3.25 0-.05-.02-.09-.07-.1-1.66-.13-3.3-.3-4.95-.37-1.55-.06-2.4-.48-2.7-2.31a24.54 24.54 0 0 1-.4-4.53c.03-1.87-.4-3.76-.71-5.63-.57-3.41 1.13-4.96 4.48-4.11 1.22.31 3.34.6 4.55.48a13.2 13.2 0 0 1 5.28.38 2.78 2.78 0 0 1 2.02 2.02l.71 2.91Zm-11.87 5.02c0 .82.49 1.57 1.25 1.89l2.31.98c1.37.57 2.5.31 3.37-.86.49-.65.98-1.32 1.29-2.06.25-.61.46-1.39.29-1.99a13.27 13.27 0 0 0-1.46-3.21c-.28-.46-.92-.95-1.43-.99-1.78-.12-3.56-.05-5.62-.05v6.27ZM297.25 68.49c-.18-.47-.62-.8-1.12-.89-2.65-.47-5.45.39-7.91-1.6.29-.65.67-1.45.99-2.27.41-1.05.02-1.85-1.03-2.15-2.21-.63-4.46-1.16-6.62-1.71.31-.98.84-2 .89-3.05.04-.9.03-2.14-1.31-2.41-1.4-.28-1.58.93-2.05 1.77-.75 1.33-1.47 2.69-2.26 3.99-.31.52-.9.88-1.17 1.41-.73 1.46-1.29 3-2.03 4.44-.51.99-.41 1.79.48 2.38.89.59 1.76.42 2.37-.5.83-1.28 1.62-2.58 2.65-4.25l5.45.39-3.35 6.23c-.13.24-.36.51-.33.74.09.67.11 1.45.48 1.94.52.7 1.37.91 2.17.25.57-.46 1.11-.96 1.7-1.39 1.95-1.4 5.45-1.42 7.29-.08-1.18 2.43-3.74 4.33-3.03 7.31 1.14 1.28 2.1.53 3.04-.09.15-.14.3-.27.44-.42.78-1.27 1.64-2.5 2.45-3.76a25.83 25.83 0 0 0 2.04-4.24c.07-.67.02-1.36-.25-2.06ZM298.3 45.75c1.6 2.04 4.36 2.62 5.94 4.69.34.45.28 1.08-.15 1.44-.41.35-.99.42-1.48.17l-6.51-3.26-1.91 2.21c-.97 1.16-2.26 1.55-3 .9-.97-.86-.43-2.79 1.54-4.2a6.08 6.08 0 0 0 2.44-3.27c.58-2.15 2.87-3.16 2.78-5.6-.03-.74.61-1.31 1.55-1.11.53.11 1.17.06 1.59.33 2.59 1.68 5.16 3.4 7.66 5.21.48.34.97 1.3.81 1.75-.35.97-1.33.77-2.09.39-1.63-.81-3.24-1.66-4.82-2.55-1.56-.88-2.07-.77-3.03.83-.23.39-.44.79-.68 1.18-.19.29-.41.56-.65.88ZM133.54 21.58c-1.45-2.82-2.97-5.72-3.67-8.77-.67-2.87-2.5-4.53-4.41-6.28-.05-.05-.12-.09-.19-.13-.42.1-.83.22-1.23.38l-.44.22c-.04.27-.07.54-.06.82.1 2.76 2.28 4.74 2.7 7.51.4 2.68 2.2 5.14 2.67 7.82.36 2.06 1.42 3.16 2.89 4.13.21-.05.42-.1.63-.17.09-.03.23-.12.33-.13l.09-.04.42-.22.07-.1c1.33-1.64 1.18-3.17.22-5.03ZM131.38 39.68c1.86 2.16 3.02 3.34 4.13 4.01.17.03.35.04.53.03.54-.04 1.02-.41 1.5-.64.35-.17.7-.31.99-.54l.1-.16c.2-.32.39-.66.58-.99.04-.43.09-.85.15-1.27.36-2.55-.24-3.76-2.62-4.98-2.17-1.12-2.96-.96-4.93 1.1l-.25.29c-.1.19-.21.37-.29.57a2.7 2.7 0 0 0-.23 1.72c.07.3.2.59.35.86ZM298.57 62.46v.02c-.34.37-.87.5-1.33.3a34.8 34.8 0 0 1-11.59-8.19c-1.01-1.07-.65-1.68.25-2.44.93-.78 1.65-.96 2.44.25 1.92 2.99 4.8 4.9 7.77 6.71.77.47 1.48 1.03 2.3 1.68.52.4.6 1.16.16 1.66ZM124.1 56.83l.27.01c1-.28 1.96-.9 2.55-1.62.39-.49.42-1.08.4-1.68a3.64 3.64 0 0 0-.23-1.24c-.13-.06-.27-.13-.42-.18-.22-.08-.18-.71-.41-.95l-.08-.08a4.7 4.7 0 0 0-2.06-1.07 3.4 3.4 0 0 0-2.43.36c-.1.12-.23.21-.36.27-.06.05-.13.08-.18.14-.38.39-.48 1.03-.57 1.57-.07.4-.1.83-.02 1.23l.2.36c.71 1.37 1.69 2.6 3.37 2.89ZM283.73 45.72c.39.45.47 1.14.07 1.59-.31.36-.78.47-1.47.23-3.94-1.38-6.85-3.88-8.36-7.84-.14-.38.12-1.24.43-1.39.48-.23 1.34-.28 1.72.01a45.03 45.03 0 0 1 4.32 3.72c1.16 1.15 2.2 2.42 3.28 3.67ZM279.39 52.32c-2 .77-3.38-.54-4.62-1.32-2.04-1.29-3.75-3.11-5.61-4.68-.71-.6-1.11-1.26-.4-2.08.65-.74 1.25 0 1.91.1 3.29.53 4.88 3.48 7.41 5.06.91.57 1.65 1.47 1.3 2.92ZM191.1 71.61c3.67 1.02 8.78 3.63 11.04 5.67.48.43.62 1.12.34 1.71l-.46.94c-.23.05-.41.15-.57.12-1.08-.22-1.98-.67-3.31-.46-1.34.21-3.1-.91-4.36-1.86a6.1 6.1 0 0 0-4.59-1.24c-1.88.19-3.78.08-5.6.97-.42.21-.92.26-1.44.26-1.64 0-2.06-2.32-.5-2.8h.04c1.91-.58 3.84-1.09 5.72-1.76.83-.29 1.58-.8 2.61-1.39.33-.19.72-.25 1.09-.15ZM208.21 112.23c.66-.23 1.41-.1 1.9.39 1.1 1.12 2.97.66 4.36 1.14.47.63-.4.96-.69 1.07-1.35.53-2.73 1.23-4.14 1.33-1.96.14-4.5.45-6.16.49-2.89.06-5.76-.94-6.48-.97-1.8-.08-2.54-.25-2.82-.98-.43-1.09.47-2.26 1.64-2.29a26.7 26.7 0 0 1 7.84.75c.7.19 1.57-.03 2.32-.22a27.4 27.4 0 0 0 2.24-.71ZM201.57 102.89s.07.03 0 0ZM212.27 99.53a64.66 64.66 0 0 0-.43-3.52 9.93 9.93 0 0 0-.29-1.42 2.4 2.4 0 0 0-.39-.85c-.1-.1-.17-.21-.23-.33a2.08 2.08 0 0 0-.78-.06c-.68.06-1.24.65-1.22 1.33.05 2.45 1.51 4.84.95 7.41l-.06.15v.02l-.06.11-.08.16-.04.07-.06.07h-.01l-.14.1-.23.15-.21.08c-1.3.52-2.74.41-4.09.23-1.08-.14-2.13-.31-3.25-.34l-.08-.03-.18-.08a.67.67 0 0 0-.52 0 .66.66 0 0 0-.39.6c0 .2.06.38.14.56.11.61.61 1.09 1.25 1.14 2.56.19 4.99.4 7.42.5 1.1.05 2.07-.34 2.62-1.55.1-.21.18-.43.27-.64.04-.2.09-.39.1-.6.09-1.09.08-2.19 0-3.28ZM228.89 84.63v.03c.48.91.14 2.03-.74 2.54-1.6.93-3.24 1.61-5 1.94a6.91 6.91 0 0 1-3.85-.61 1.9 1.9 0 0 1-1.01-2.34l.21-.64c.24-.72.88-1.23 1.64-1.3l6.89-.65c.78-.07 1.52.33 1.88 1.03ZM187.98 84.7a12.88 12.88 0 0 1 8.5-.52c.52.13.89.61.85 1.15l-.13 1.82a1.1 1.1 0 0 1-.76.97c-2.79.91-6.29.28-8.72-1.54-.67-.5-.5-1.55.27-1.88Z"/>
    </g>
  </g>
</svg>
