<svg xmlns="http://www.w3.org/2000/svg" viewBox="0 0 393 393">
  <defs>
    <style>
      .d{fill:#f7e3d5}.e{fill:#e3c724}.g{fill:#8f8f8f}.j{fill:#c7b051}
    </style>
  </defs>
  <g id="b">
    <path class="e" d="m246.86 339.83-3.41-17.63c-2-10.37-5.34-20.05-7.76-30.25-2.78-11.71-5.04-23.58-7.51-35.36 3.3-21.92 8.76-44.62 8.64-66.82-.06-11.34-.23-22.67-.34-34.01-.08-8.35-.52-13.62-7.41-16.77-2.94-4.34-10.73-1.72-10.57 3.64.26 9.04 2 24.06-4.08 31.71-3.06 3.85-12.11 2.63-16.88 2.77-5.73.17-11.47.22-17.2.15-5.73-.06-11.47-.2-17.19-.53-6.66-.38-7.77-2.13-9.29-8.48-1.34-5.56-2.64-11.13-3.96-16.69-1.21-5.11-1.65-8.99-6.22-11.87-2.09-1.32-5.24-.85-7.05.89-4 .36-6.85 4.85-5.44 8.15-.1.69-.11 1.42.05 2.22 2.25 10.77 6.15 22.36 5.81 33.41-.27 8.96-1.39 17.96-2.1 26.9-1.77 22.04-3.45 44.09-6.18 66.04-.03.27-.02.51-.02.76-.07.17-.16.33-.22.51-2.89 9.27-.95 20.46-1.65 30.12-.84 11.53-2.3 23.02-2.32 34.59-.02 10.11 3.45 13.54 13.47 15.33 10.31 1.85 20.71 1.29 31.1.57 3.16-.22 5.93-2.49 5.93-5.86-.02-9.65 3.98-19.23 4.59-29 .18-2.85.5-25.36 5.42-28.41 3.59 6.88 5.87 15 8.76 22.04 3.24 7.91 6.51 15.81 9.82 23.7 2.36 5.62 4.4 15.24 9.34 19.16 2.91 2.31 6.74 2.03 10.51 1.08.66.25 1.38.37 2.18.27 6.39-.76 20.39-2.16 22.69-9.69 1.18-3.86-.79-8.84-1.53-12.63Zm-83.61-140.67c.09-.17.14-.34.21-.51 8.42-.02 17.48.79 25.9-.25 1.59.01 3.19.03 4.78.07 3.74.1 7.4.36 11.02 1.38 3.03.85 4.29.93 5.4 3.33 2.19 4.73.73 12.65 1.48 17.86 0 .06.02.11.03.16-1.02 3.09-1.15 6.05-4.34 7.83-3.32 1.85-12.39 1.74-16.42 2.21-5.58.66-8.71-.91-13.97-1.78-5.1-.84-11.15 2.62-15.72-.93a6.3 6.3 0 0 0-2.4-1.17c.73-5.13-.43-9.49-.29-14.82.06-2.35-.07-4.4-.54-6.71l-.22-1.12a14.3 14.3 0 0 0 5.08-5.55ZM94.43 278.11c-.72-.45-1.56-.53-2.37-.69l-4.81-.91c-3.47-.66-6.8-1.39-10.3-.45-.48.13-.82.37-1.08.66a7.51 7.51 0 0 0-2.92.66l-.03-.02a2.26 2.26 0 0 0-3.02.83 72.9 72.9 0 0 0-1.84 3.06c-.59 1.04-1.3 2.13-1.5 3.32a8.66 8.66 0 0 0 1.82 6.67c1.67 2.05 4.4 2.27 6.7 1.28 2.01-.86 3.55-2.69 4.61-4.54.54-.95.97-1.97 1.38-2.99.35-.88.73-1.8.98-2.72 1.3.35 2.59.71 3.91.98 1.61.33 3.25.47 4.89.31 1.77-.18 4.15-.47 4.73-2.51a2.61 2.61 0 0 0-1.14-2.93ZM348.97 96.74c-1.72-.45-3.33.05-4.99.52l-4.92 1.38c-1.72.48-3.57.78-4.67 2.33a14.4 14.4 0 0 0-1.86 4.18 37.12 37.12 0 0 0-.96 4.33c-.31 1.84-.04 3.38 1.28 4.76.95.99 2.2 1.7 3.26 2.56 1.03.84 2.02 1.75 2.75 2.87.65 1 1.94 1.43 3.02.81.99-.57 1.47-2.02.81-3.02l-.08-.11a277.14 277.14 0 0 0 7.92-17.9c.45-1.1-.52-2.44-1.56-2.71Z"/>
    <path class="d" d="M166.8 379.82a86.14 86.14 0 0 0-4.83-17.55c-.58-1.48-1.93-2.55-3.6-2.11-.29.08-.57.22-.84.4-1.32-.32-2.73-.4-4.03-.27-2 .19-3.98.39-5.99.28-2-.11-3.83-.82-5.8-1.05-4.41-.52-6.92 3.12-7.93 6.91-1.08 4.06-2.06 8.15-3.09 12.22-.36 1.42.49 3.36 2.08 3.61l17.53 2.72c.99.15 1.99-.06 2.7-.65 3.64 0 7.28-.36 10.89-.81 2-.25 3.21-1.64 2.87-3.69ZM251.73 367.5a32.88 32.88 0 0 1-5.15-2.96c-1.72-1.26-3-3.16-4.94-4.1-2.16-1.05-4.5-.71-6.75-.16-2.45.6-4.9 1.24-7.35 1.86-2.42.61-5.68.83-6.24 3.76-.29 1.49-.04 3.16 0 4.67.03 1.31.04 2.61.09 3.92.11 2.56.79 4.86 3.12 6.25 1.79 1.07 3.94 1.31 5.98 1.37.38.01.72-.05 1.03-.15.64 0 1.28-.02 1.92-.07 4.78-.36 9.57-.68 14.35-1.1 3.96-.35 10.71-.24 12.15-4.98 1.51-4.99-4.89-6.71-8.19-8.31Z"/>
    <path d="M107.79 270.66c-6.15-4.01-14.24-2.3-21.14-2.13-1.86.05-3.73.13-5.59.02-1.7-.1-3.36-.59-5.06-.65-1.81-.07-3.63.4-5.39.73-1.64.3-3.19.56-4.67 1.39-3.31 1.85-.37 6.95 2.95 5.1 1.12-.62 2.65-.68 3.91-.91 1.47-.27 2.73-.5 4.21-.27 1.34.2 2.65.32 3.97.4.28.76.89 1.41 1.94 1.65 3.9.92 7.9 1.18 11.9 1.09 4.07-.09 8.26-.2 12.25-1 2.69-.54 2.73-4.1.72-5.41Z" style="fill:#737474"/>
    <path d="M114.03 303.63c-.77-3.84-.82-7.8-1.08-11.7l-.85-12.87c-.1-1.51-1.25-3.06-2.93-2.96-2.36.14-4.33 1.35-6.41 2.39l-6.49 3.25c-1.98.99-4.33 1.82-5.98 3.33-1.54 1.4-2.03 3.53-1.88 5.53.25 3.49.7 6.92.94 10.4-.15 1.4-.14 2.81.14 4.26-.02 2.09-.14 4.2.18 6.26.32 2.03 1.49 3.92 1.53 5.98.07 3.39 4.76 3.77 5.72 1.11.31-.06.62-.14.9-.3l11.21-6.24c3.48-1.94 5.86-4.16 5-8.44Z" style="fill:#a3a3a3"/>
    <path class="g" d="M90.37 310.35c-.58-2.83-2.13-5.58-2.39-8.45-.26-2.79.62-5.57.4-8.37a19.8 19.8 0 0 0-2.51-8.2c-1.04-1.84-4.15-2.04-5.11.01l-2.82 5.99c-.84 1.77-1.3 2.72-3.28 3.18-3.02.7-6.37-.44-7.08-3.7a2.59 2.59 0 0 0-1.35-1.8c-.07-3.24.15-6.49.82-9.75.76-3.7-4.93-5.25-5.69-1.53-2.03 9.87-.74 19.89 1.37 29.65 1.03 4.74 5.8 6.07 9.77 7.82 4.52 2.01 9.14 3.79 14 4.79 1.26.26 2.68-.19 3.32-1.39 1.41-2.63 1.14-5.42.56-8.26ZM329.21 99.14a7.62 7.62 0 0 0-3.19-.03l-.51.08h-.05c-.38-.04-.79-.02-1.18-.04h-.07l-.53-.09-1.2-.22c-.84-.14-1.72-.33-2.58-.28a4.75 4.75 0 0 0-3.07 1.21c-.59.55-.92 1.26-1.3 1.96-.1.18-.23.53-.39.76 0-.02-.03 0-.14.11l-.19.2-.03.02c-1.46-.35-3.17.6-3.51 2.1a3 3 0 0 0 2.08 3.61c1.03.29 2.07.24 3.04-.05.24.37.54.7.94.92 1.36.74 2.75 1.46 4.23 1.93 1.63.52 3.95.87 5.5-.04 1.42-.82 2.08-2.45 2.68-3.89.63-1.5 1.17-3.03 1.55-4.62.37-1.54-.5-3.2-2.08-3.61ZM299.96 96.79a2.99 2.99 0 0 0-2.11-2.36 64.01 64.01 0 0 0-16.06-2.96c-.65-.04-1.26.2-1.76.58-.43-.16-.87-.31-1.28-.5-1.44-.67-3.19-.36-4.02 1.1-.74 1.3-.35 3.35 1.1 4.02 1.63.76 3.3 1.31 4.99 1.73 1.9 2.13 4.7 3.55 7.34 4.39 3.9 1.25 8.49.67 11.4-2.41a3.04 3.04 0 0 0 .41-3.6Z"/>
    <path d="M233.89 26.09c-2.67-2.78-6.25-5.22-9.5-7.27a55.78 55.78 0 0 0-10.73-5.02 87.3 87.3 0 0 0-11.02-3.44c-1.78-.39-3.57-.59-5.39-.39-2.03.22-3.7 1.1-5.6 1.74-2.95.98-5.78-1.36-8.61-1.99-3.76-.83-6.97.41-9.73 2.98-2.44 2.28-4.42 4.22-7.92 4.58-4.17.43-8.17.23-12.16 1.77a26.1 26.1 0 0 0-10.16 6.92c-.32.36-.55.76-.7 1.18-.6.44-1.19.9-1.73 1.43-3.52 3.38-4.81 8.6-6.51 13.03-.86 2.24-1.93 4.5-2.55 6.82-.67 2.55-.2 4.84.83 7.22.97 2.22 2.03 4.41 3.04 6.61.43.92.9 1.85 1.29 2.79-1.24.21-2.39.98-3.17 2.56-1.66 3.35-2.17 7.02-.6 10.49 1.32 2.93 3.72 5.2 5.15 8.07 1.41 2.81 2.24 5.76 4.62 7.98.69.65 1.48 1.17 2.24 1.74.02.05.03.11.06.16 1.93 4.39-.98 9.31.36 13.78a8.46 8.46 0 0 0 4.32 4.96c.78.42 1.6.74 2.38 1.16.12.07.8.47.69.39.33.26.08-.02.34.47 1.69 3.24 6.96 1.78 6.87-1.82a89.7 89.7 0 0 1 .12-7.33c.12-2.13-1.77-3.51-3.66-3.7h-.18a16.2 16.2 0 0 1-1.11-2.39c-.65-1.79-.83-3.64-1.32-5.46a9.9 9.9 0 0 0-2.9-4.79c-.18-.16-.38-.31-.58-.46 1.08-1.47 1.4-2.78 1.63-4.62a4.16 4.16 0 0 1 1.37-2.7c.41-.41.85-.79 1.31-1.14.36-.28 1.06-.58 1.5-.93l.41.15c.86.37 1.68.57 2.63.57 1.48 0 3.34-1.14 3.58-2.73.56-3.68.46-7.39-.75-10.94a23.39 23.39 0 0 0-2.28-4.92c-.54-.86-1.17-1.65-1.8-2.45-.23-.28-.87-.91-.93-1.29-.12-.83 1.13-1.89 1.63-2.46a45.53 45.53 0 0 0 3.39-4.43c1.75-2.58 3.54-5.77 6.76-6.63a3.6 3.6 0 0 0 1.56-.84l5.9-.19c3.38-.11 6.76-.09 9.91-1.46 2.34-1.01 4.22-2.67 6.27-4.15 1.66-1.19 3.22-2.26 5.33-1.75 2.73.67 5.16 2.06 8.01 2.31 3.32.3 6.28-1.23 8.73-3.33.45-.39 1.47-1.8 1.95-1.93.33-.09 1.29.32 1.63.4a55.98 55.98 0 0 1 11.9 4.26c2.3 1.13 5.71-.24 5.51-3.18-.11-1.6.48-3.13.56-4.73a7.57 7.57 0 0 0-2.21-5.67Z" style="fill:#a47341"/>
    <path class="d" d="m221.87 43.71-.25.03c.04 0 .12 0 .25-.03Z"/>
    <path class="d" d="m235.67 65.33-4.43-13.79c-.38-2.37-.78-4.74-1.26-7.09-.84-4.11-3.63-7.75-7.72-8.02-.87-.62-1.96-.92-2.97-.54-5.12 1.89-10.88 6.19-16.55 4.43-3.29-1.02-5.98-1.16-8.97.8-2.28 1.5-4.44 2.95-7.06 3.82a25.03 25.03 0 0 1-8.05 1.24c-2.96 0-5.93-.07-8.75.96a17.48 17.48 0 0 0-9.23 7.8 3.69 3.69 0 0 0-1.66 3l-.06 1.69a3.3 3.3 0 0 0 1.85 3.18c.42.65.87 1.29 1.29 1.96 1.16 1.88 1.62 4.15 1.9 6.32.55 4.37.1 8.84-1.18 13.04-.97-1.56-3.35-2.37-4.97-1.26-5.27 3.62-5.86 10.49-3.3 15.98a15 15 0 0 0 7.58 7.32l-.66 14.16c-.25 5.38-.95 10.83 1.21 15.93 1.68 3.98 4.65 7.26 7.81 10.14 1.64 1.5 3.36 2.91 5.04 4.37 1.27 1.11 3.01 2.43 2.93 4.28-.16 3.77 5.07 4.93 6.88 1.84 2.08-3.55 5.65-5.93 8.79-8.48 3.62-2.94 7.27-5.98 10.53-9.33 1.5-1.54 2.84-3.33 3.4-5.44.61-2.32.08-4.63-.68-6.84-.42-1.22-1.19-2.75-.61-3.88.56-1.08 1.98-1.77 3.15-2.17 4.11-1.42 8.49-.93 12.45-3 3.53-1.85 5.93-5.28 7.48-8.85 1.85-4.26 3.11-8.77 4.54-13.18 1.54-4.74 3.57-9.56 4.19-14.53.69-5.48-1.24-10.72-2.89-15.86ZM326.39 92.44c-3.9-2.3-8.91-2.9-13.09-.99a7.7 7.7 0 0 0-3.74 3.57c-.25.14-.48.3-.7.49-1.32 1.14-3.77 1.55-5.54 2.61-2.77 1.65-3.93 4.03-4.56 7.1-.54 2.62-2.37 4.13-4.34 5.81l-7.97 6.77-7.97 6.77c-2.57 2.18-5.11 4.27-7 7.1-1.62 2.42-2.59 5.24-4.75 7.27-.76.71-1.62 1.25-2.49 1.77a3.84 3.84 0 0 0-3.45-2.47l-2.77-.2c-2.82-.2-3.95 2.31-3.43 4.46.28 5.01.35 10.1.96 15.09.29 2.35.93 4.59 1.43 6.9.51 2.35.63 4.71.53 7.11-.13 3.08 3.13 4.22 5.53 3.21 4.58-1.93 9.53-2.66 13.26-6.25 1.86-1.79 2.68-4.01 3.77-6.28.95-2 2.22-3.72 3.75-5.31 3.27-3.42 7.57-5.77 10.57-9.44 3.33-4.07 5.89-8.81 8.66-13.27.3-.48.46-.95.53-1.41 5.52-5.06 8.29-12.48 14.12-17.26 2.51-2.06.36-6.3-2.6-6.27-1.76.02-4.23-.3-5.01-2.16-.75-1.79.81-2.35 2.05-3.23a9.13 9.13 0 0 0 3.05-3.16c.59-1.14.49-2.54 1.32-2.71 2.31-.5 4.15-.45 6.24.79 4.08 2.41 7.74-3.98 3.65-6.4ZM122.67 193.7a138.08 138.08 0 0 0-12.7-12.9c-3.05-2.71-7.33.82-6.15 3.87-.06.06-.13.1-.18.17-3.61 4.41-5.87 9.47-8.29 14.58-2.44 5.15-6.03 9.64-8.38 14.82-4.57 10.05-4.87 21.52-9.82 31.39-1.47 2.93-3.05 5.81-3.49 9.11a12.4 12.4 0 0 0 .25 4.89c.23.84.59 1.74 1.03 2.5.09.16.2.3.3.45-.26 1.27.08 2.76 1 3.49 3.04 2.41 6.31 4.23 10.23 2.75 1.55-.58 2.89-1.07 4.57-.96 1.63.1 3.12.27 4.62-.6a4.58 4.58 0 0 0 2.03-5.02 5.1 5.1 0 0 0-1.8-2.57l-.47-.39.03-.06c.11-.2.24-.39.36-.58.38-.59.93-1.1 1.37-1.64.14-.18.25-.37.39-.55 2.39.78 4.94-.58 5.04-3.33a8.25 8.25 0 0 0-1.18-4.57 3.78 3.78 0 0 0-3.98-1.75l.32-.66c2.49-5.36 4.27-11.01 6.29-16.56a84.42 84.42 0 0 1 7.58-15.59c2.74-4.45 5.69-8.75 8.43-13.2.6-.44 1.22-.86 1.87-1.25 2.16-1.33 2.33-3.98.74-5.81Z"/>
    <path d="M210.91 213.66c-.07-3.86-.09-7.84-1.5-11.49-.61-1.58-1.78-2.71-3.55-2.76-10.42-.29-20.81.55-31.17 1.66l-7.59.84c-2.12.25-4.18.5-5.97 1.78a6.1 6.1 0 0 0-1.8 8.12c-1.56 5.46-.99 11.51 3.73 15.37 2.76 2.26 6.07 2.85 9.5 3.34 3.68.53 7.37.91 11.08 1.06 8.28.33 16.6-.42 24.72-2.06 1.55-.31 2.78-1.99 2.76-3.55l-.22-12.31Z" style="fill:#f4d75c"/>
    <path class="j" d="M219.41 139.85c.17-2.41-2.13-4.39-4.4-4.44-6.26-.15-7.12 1.29-10.27 5.52-.57.06-1.14.25-1.67.58a27.48 27.48 0 0 0-5.43 4.43c-.76.15-1.49.49-2.11 1.07-4.35 4.07-8.79 9.46-13.66 13.25a4.78 4.78 0 0 0-1.38-.82c-1.84-3.15-4.98-6.12-7.22-8.87-1.33-1.64-2.63-3.37-4.11-4.88-1.57-1.62-4.35-3.01-5.23-5.16-.8-1.94-2.09-3.18-4.26-3.31-3.3-.2-6.83-.6-9.83 1.01a4.34 4.34 0 0 0-2.21 3.8c.31 5.72 2.95 11.59 4.85 16.92 1.75 4.93 1.32 10.41 4.33 14.84a4.34 4.34 0 0 0 4.2 1.95c.67.47 1.47.77 2.32.78 7.87.13 15.72-.05 23.57-.65.68-.05 1.37-.12 2.06-.2.7.67 1.69 1.08 2.96.99l19.23-1.32a4.62 4.62 0 0 0 4.32-4.26 9.61 9.61 0 0 0 1.93-2.34c1.9-3.25 1.48-7.19 1.44-10.78-.07-6.05.12-12.07.54-18.1ZM136.03 180.97c-1.02-9.18-3.64-18.74-3.46-27.93.09-4.71-5.89-5.68-8.26-2.21-3.98 5.82-8.38 11.31-12.44 17.07-1.73 2.45-3.46 4.66-3.26 7.85.24 3.91 3.29 5.58 5.49 8.42 2.79 3.61 4.56 6.96 8.22 9.9a4.79 4.79 0 0 0 3.86 1.1c.8.37 1.74.5 2.82.24 7.21-1.7 7.74-8.1 7.03-14.44ZM256.9 168.12c-.94-8.83-2.48-17.57-3.96-26.32-.43-2.57-3.2-3.44-5.39-3.17-2.35.29-3.66 1.13-6.36 1.08a4.47 4.47 0 0 0-4.44 4.4c.06 6.85.11 13.71.19 20.56.06 5.61 1.3 11.54.73 17.07-.57 5.56 7.91 5.64 8.78.34.81.34 1.72.44 2.68.15 7.52-2.32 8.57-6.64 7.77-14.12Z"/>
    <path d="M221.17 92.26a4.52 4.52 0 0 0-5.39-3.17l-.73.13c-.56.05-1.11.1-1.67.1a4.6 4.6 0 0 0-3.3 1.5 2 2 0 0 0-.21.1c-.26.16-.53.31-.8.44l-.11.03h-.15c-.35-.06-.7-.12-1.06-.09-.73.05-1.27.2-1.93.51-.49.23-3.01.05-3.14.55-.14.52 2.04 2 2.33 2.47.31.48.77.9 1.34 1.03l.56.08c.26 0 .5-.06.74-.14l.23-.06h.24a3.4 3.4 0 0 0 1.4.06 4.34 4.34 0 0 0 3.82 2.36c1.56.01 3.15-.18 4.68-.51a4.47 4.47 0 0 0 3.17-5.39Z" style="fill:#fff"/>
    <path d="M352.66 98.8a9.9 9.9 0 0 0-.24-2.77c-.85-1.28-2.21-2.18-3.69-2.04-5.28.51-10.52 1.35-16.33 2.13l-.19-.22c-1.42-.6-2.33-1.8-3.47-2.8-1.28-1.12-2.72-2.08-4.1-3.08-.64-.46-1.29-.92-1.97-1.33-1.78-.98-3.68-1.71-5.92-1.45-4.55.55-8.91 1.69-11.66 4.8l-3.48-.38-1.86-.16c-7.36-.79-14.71-1.65-22.08-2.34-2.93-.27-5.31 2.09-5.45 5.12-.04.88-.11 2.25.39 2.58a67.05 67.05 0 0 0 6.84 3.81c1.16.58 2.42.97 3.67 1.38 3.55 1.15 7.11 2.28 10.67 3.39.63.2 1.28.31 2.54.61-2.41 2.3-4.32 4.29-6.41 6.07-3.54 3-7.36 5.68-10.75 8.83-4.88 4.54-9.47 9.39-14.22 14.07-.4.39-1.1.49-1.66.71-4.04 1.56-8.18-1.3-12.31.4-2.09.86-4.54.8-6.73 1.48-3.23 1.01-5.97 1.98-9.81.79-6.7-2.06-13.89-2.53-20.85-3.78-.91-.16-2.31-.97-2.41-1.64-.53-3.37-.69-6.8-.99-10.18 4.08-.76 7.63-1.36 11.14-2.1 6.66-1.39 10.57-5.78 12.59-12.02.98-3.04 1.73-6.17 2.44-9.3 1.06-4.72 1.67-9.58 3.07-14.19 1.95-6.46 1.02-12.51-1.08-18.69-2.05-6.04-3.72-12.22-5.51-18.36-.15-.53-.02-1.65.2-1.71 1.95-.54 1.7-2.21 2.02-3.59.43-1.87.83-3.75 1.3-5.61.59-2.34 1.4-4.64 1.8-7a4.25 4.25 0 0 0-.86-3.02 20.97 20.97 0 0 0-4.25-4.01c-4.9-3.37-8.66-8.29-14.53-10.39-1.75-.63-3.14-2-5.19-.84-.47.27-1.36.03-1.98-.19-3.97-1.44-7.87-3.09-11.89-4.36-1.37-.43-3.04-.08-4.55.13-.69.09-1.31.69-1.95 1.07l-4.24 2.57c-.42-.32-.85-.81-1.4-1.02-3.24-1.24-6.5-2.41-9.76-3.61-1.86-.69-3.74-.69-5.02.89-1.63 2.02-2.89 4.33-4.41 6.44-.48.66-1.2 1.42-1.93 1.57-2.55.51-5.16.78-7.74 1.13-1.82.25-3.69.27-5.43.78a21.1 21.1 0 0 0-5.53 2.39c-2.76 1.77-6.63 1.71-8.44 5.03-1.74 3.19-3.75 6.27-5.1 9.61a115.77 115.77 0 0 0-4.32 13.29c-.7 2.59-.99 5.26.97 7.8 1.73 2.24 2.91 4.92 4.21 7.21-.59.33-1.41.49-1.59.92-1.46 3.48-3.01 6.94-4.08 10.54a6.68 6.68 0 0 0 .57 4.83c1.64 2.71 3.9 5.04 5.81 7.6 2.33 3.13 4.59 6.32 6.81 9.54.31.45.29 1.19.28 1.79-.09 3.37-.2 6.74-.34 10.1-.2 4.65 1.84 7.72 6.27 9.35 3.36 1.25 6.74 2.48 10.07 3.8.44.18.91.88.94 1.38.26 3.46.42 6.92.63 10.8h-.01a.6.6 0 0 1-.06.23c.12.7-.26 1.5-1.17 1.5-1.66 0-3.37-.03-5.02.13-1.64.16-3.25.63-4.86.99-2.75.61-5.57.71-8.36 1.1-.69.2-1.37.4-2.07.57a49 49 0 0 0-6.28 1.82c-2.16.84-3.42 2.42-4.72 4.27-2.39 3.41-4.48 7.04-6.97 10.38-.73.98-1.71 2.17-2.83 3.14-2.31 2.74-5.93 4.33-6.95 8.31-.39 1.53-2.19 2.72-3.39 4.03a7.07 7.07 0 0 0-1.55 7.67c-.15.12-.3.23-.39.39-.11.24-.27.45-.39.68-.17.11-.33.24-.42.4-2.17 3.66-4.3 7.35-6.36 11.08-.76 1.37-1.18 2.92-1.95 4.28-1.41 2.48-3.16 4.78-4.43 7.33-3.28 6.55-6.59 13.11-9.49 19.83-2.32 5.39-4.56 10.89-4.41 16.98.01.5-.21 1.04-.43 1.5-2.17 4.55-4.24 9.16-6.63 13.59-.89 1.65-2.48 2.94-3.86 4.29-.11.11-.24.2-.36.3-.62.63-1.27 1.19-1.81 1.91a56.34 56.34 0 0 0-3.47 5.4 27.95 27.95 0 0 0-2.68 6.12c-.25 1.4-.35 2.86-.25 4.42.63 9.43.4 18.91.91 28.35.16 2.93.85 6.3 2.53 8.55 1.62 2.17 4.69 3.5 7.37 4.59 4.11 1.67 8.55 2.55 12.63 4.27 5.36 2.26 10.2 1.77 15.02-1.32 2.07-1.33 4.26-2.7 6.59-3.32a23.28 23.28 0 0 0 8.77-4.63 6.75 6.75 0 0 0 2.68-5.9c-.26-4.91-.35-9.84-.55-14.75-.19-4.59-.39-9.17-.66-13.75-.1-1.62-.65-3.29-.12-4.8l-.07-2.88a14.75 14.75 0 0 0-2.54-8.19 26.9 26.9 0 0 0-2.63-3.13 30.4 30.4 0 0 1-1.96-1.41c-.75-.33-1.51-.61-2.1-1.2-1-1-.98-2.57-.98-4.03-.26-1.03-.49-2.08-.8-3.04-.42-1.27-.8-2.53-.97-3.79-.64-2-.38-4.05.87-6.31 1.4-2.54 2.12-5.43 3.36-8.07 2.39-5.09 5.35-9.95 7.31-15.19a42.24 42.24 0 0 1 11.28-16.87 2 2 0 0 1 .96-.39l.06-.03c.2-.11.41-.17.63-.17l.33.04.02.01c.76-.05 1.51.09 2.27.08.13-.01.27-.02.4-.05 1.33-.38 2.59-1.02 4.12-1.66 0 .79.03 1.39 0 1.99-.2 4.09-.49 8.18-.6 12.28-.19 6.84-.12 13.68-.45 20.51-.21 4.41-1.05 8.79-1.43 13.2-.52 6.14-.88 12.3-1.3 18.46-.1 1.52-.01 3.06-.28 4.54-.4 2.2-1.3 4.32-1.54 6.53-.81 7.69-1.44 15.39-2.11 23.09-.63 7.3-1.2 14.61-1.81 21.91-.63 7.58-1.19 15.17-1.94 22.74-.43 4.43 1.53 8.16 3.1 12.02.26.64 1.06 1.18 1.73 1.5 2.57 1.21 5.19 2.31 8 3.54-1.01 2.75-1.97 5.79-3.22 8.7a137.7 137.7 0 0 1-4.79 10.04c-1.21 2.3-.18 3.27 1.79 4.04 8.9 3.49 18.2 4.21 27.63 3.99 2.11-.05 4.2-.49 6.31-.56 4.56-.16 6.86-2.4 6.14-6.99-.74-4.73-2.09-9.38-3.3-14.03-.31-1.18-1.1-2.24-1.87-3.73 3.7 0 6.88-.07 10.06.03 1.61.05 2.57-.52 2.9-2.07.75-3.54 1.65-7.07 2.15-10.65.68-4.94 1.05-9.91 1.52-14.88.78-8.23 1.45-16.48 2.34-24.7.32-2.98 1.14-5.91 1.73-8.86l.92-.03c2.18 5.64 4.28 11.32 6.56 16.92 1.97 4.83 4.26 9.52 6.17 14.36 1.25 3.17 1.96 6.56 3.14 9.77 2.36 6.39 6.31 12.03 7.99 18.82 1.54 6.19 3.85 7.08 10.9 6.36v7.39c.01 1.54-.23 3.16.16 4.59.75 2.7 6.44 5.78 9.8 5.61.78-.04 1.56-.1 2.34-.06 3.64.19 7.31.76 10.92.52 4.23-.28 8.4-1.34 12.61-1.9 2.6-.34 4.78-1.49 5.66-3.83 1.13-3.04-.28-7.1-2.67-8.63-4.06-2.61-8.24-5.06-12.33-7.63-.89-.56-1.63-1.34-2.57-2.13.96-.42 1.58-.75 2.24-.98 4.37-1.49 6.1-4.8 5.17-9.28-.97-4.7-2.19-9.44-2.35-14.2-.17-4.96-.66-9.72-2.49-14.33-.37-.92-.56-1.91-.79-2.88-.64-2.69-1.18-5.41-1.92-8.07-.85-3.02-2.06-5.94-2.77-8.99-.77-3.32-.92-6.78-1.71-10.09-1.81-7.62-3.84-15.18-5.78-22.77-.29-1.15-.69-2.31-.75-3.48-.12-2.16 0-4.33-.04-6.49-.05-3.87-.25-7.74-.17-11.6.06-2.82.53-5.63.7-8.45.15-2.46-.16-4.97.27-7.37 1.19-6.74 2.86-13.4 3.93-20.16 1.18-7.47 1.9-15.02 2.77-22.11 1.69-.65 3-1.06 4.22-1.64 2.71-1.29 5.36-2.73 8.09-3.99 1.73-.8 3.78-1.06 5.31-2.12 2.18-1.5 4.35-2.76 6.83-3.1 2.77-1.1 5.55-2.18 8.17-3.59 3.58-1.93 6.26-4.6 8.99-7.57a84.1 84.1 0 0 0 8.13-10.21c1.82-2.74 3.86-5.36 5.9-7.95 1.71-2.7 3.33-5.46 5.2-8.05 2.27-3.14 4.78-6.11 7.2-9.14 3.46-4.33 7.11-8.51 10.37-12.99 3.34-4.59 8.21-2.73 12.42-3.16 1.34-.14 3.01 2.19 4.41 3.52.96.91 1.72 2.03 2.57 3.05.5.59.93 1.05 1.34 1.4.77.43 1.57.67 2.62.52a2.48 2.48 0 0 0 2.05-1.59l-.15-.24.03-.05.23.04c.17-.41.3-.87.44-1.34 1.73-3.52 2.89-7.3 4.6-10.84 1.42-2.96 3.9-6.83 3.62-10.37l.05-.34Zm-193.87 18.74c-3.91-1.66-7.6-2.97-11.04-4.77-2.14-1.12-1.87-3.7-1.72-5.73.25-3.44.94-6.85 1.3-10.29.07-.66-.39-1.5-.84-2.07-3.11-3.91-6.29-7.77-9.42-11.66a141.48 141.48 0 0 1-3.68-4.79c-.24-.33-.43-.9-.32-1.26 1.04-3.48 1.41-7.26 4.47-10.01.73.82 1.36 1.91 2.3 2.5.7.44 1.61.54 2.49.7l.15-.04h.01l.19-.1.25-.15.18-.17.1-.18.07-.26c-.57-1.06-1.07-2.19-1.82-3.11a43.88 43.88 0 0 1-7.01-11.73c-.89-2.31-.47-5.4.14-7.95.89-3.69 2.43-7.24 3.81-10.8.84-2.18 1.65-4.45 2.94-6.36 2.07-3.04 4.89-5.22 8.69-5.94 1.13-.21 2.15-.99 3.23-1.47.91-.41 1.81-.88 2.77-1.13 1.88-.49 3.79-.99 5.71-1.2.77-.08 1.84.4 2.4.98 1.24 1.28 2.41 1.48 3.67.26 2.99-2.89 6.02-5.74 8.83-8.8 1.52-1.66 3.02-2.01 4.96-1.13 2.34 1.07 4.69 2.12 7.01 3.24 1.85.89 3.39.95 5.06-.63 1.98-1.87 4.23-3.01 7.26-1.81 2.65 1.05 5.56 1.42 8.34 2.14.57.15 1.09.49 1.85.85-1.85 2.14-3.57 4.07-5.21 6.06-.41.49-.58 1.17-.86 1.77.92.18 2.15.83 2.71.47 2.03-1.32 3.87-2.95 5.72-4.53 4.09-3.48 4.15-3.6 8.46-.4 3.63 2.7 7.04 5.7 10.56 8.56 2.34 1.91 2.3 4.26 1.29 6.79l-2.41 6c-2.65-1.31-5.28-2.63-7.94-3.9-2.09-1-4.19-2-6.35-2.84-.47-.18-1.33.16-1.8.53-2.44 1.96-4.57 4.47-7.28 5.82-1.48.74-3.97-.26-5.91-.79-2.15-.59-4.16-1.64-6.29-2.31-2.27-.71-3.72 1.04-5.22 2.2-1.8 1.39-3.34 3.1-5.08 4.58-.54.46-1.34.78-2.05.84-5.44.49-10.91.72-16.31 1.47-1.65.23-3.75 1.48-4.54 2.88-1.98 3.48-4.61 6.26-7.41 9.01-.56.55-.74 2.09-.39 2.85a21.82 21.82 0 0 0 3.05 4.71c3.72 4.5 4.74 9.82 2.78 15.82l-1.75-1.09c-2.16-1.29-2.91-1.03-4.4 1.07-.85 1.19-2.06 2.11-3.02 3.24-1.37 1.61-2.44 3.15-1.71 5.64 1.13 3.84 1.77 7.84 2.48 11.79a4.55 4.55 0 0 0 3.04 3.74c1.37.55 2.69 1.26 4.22 1.99-2.38 3.28-.99 6.91-.72 10.93Zm-2.29-18.42c-.54-3.83-1.6-7.59-2.13-11.43-.29-2.08 1.52-3.06 3.05-4.14 1.5-1.05 2.07.33 2.93.87 1.55.97 2.98 2.15 4.56 3.08.33.19 1.18-.18 1.57-.53.17-.16-.06-1.14-.38-1.38-2.55-1.89-1.51-4.45-1.35-6.82.12-1.78.47-3.55.55-5.32.15-3.2-.28-6.2-2.7-8.68-1.24-1.27-2.17-2.86-3.09-4.4-.31-.52-.47-1.55-.17-1.95 2.65-3.56 4.65-7.9 9.05-9.63 2.46-.97 5.27-1.14 7.94-1.43 3.41-.37 6.88-.3 10.27-.81 1.41-.21 2.75-1.3 3.99-2.16a22.43 22.43 0 0 0 3.96-3.28c1.42-1.58 2.76-1.41 4.34-.47 1.14.68 2.33 1.27 3.5 1.91 3.75 2.06 6.79.63 9.63-1.92.91-.82 1.99-1.46 2.87-2.3 2.19-2.09 4.52-1.53 6.87-.47.92.42 1.71 1.18 2.65 1.5 2.87.95 3.93 2.98 4.06 5.84.06 1.27.51 2.54.86 3.79.98 3.49 2.05 6.96 2.99 10.46 1.54 5.71 3.22 11.4 4.37 17.2.41 2.06-.37 4.44-.94 6.59a488.93 488.93 0 0 1-5.23 18.42c-1.03 3.34-2.47 6.55-3.7 9.82-1.64 4.35-5.09 6.11-9.43 6.76-7.24 1.08-14.46 2.25-21.68 3.47-1.1.19-2.14.75-3.2 1.19v.08l.03.12c.01.05.05.13.06.2l.05.1.05.07.1.11.02.02.2.12.12.04c.11.04.22.08.34.1l.18.03 12.76-.94.89 11.82a37862.6 37862.6 0 0 0-24.88 23.12c-5.71-6.22-11.08-12.06-16.42-17.93a30.71 30.71 0 0 1-2.5-3.27c-.3-.43-.61-1.04-.54-1.52 1.08-7.4-.47-14.65-1.13-21.96-.17-1.82.39-3.7.59-5.37l4.55-.64c.1-.1.07-.06 0 0l.09-.08a.5.5 0 0 1 .07-.06l.03-.05.12-.21.11-.43v-.15l-.05-.05-.05-.03-.03-.02c-1.72-.63-3.41-1.34-5.17-1.81-2.82-.75-5.14-1.73-5.63-5.15Zm3.84 39.08c.52-.03 1.2.56 1.61 1.03 3.06 3.53 6 7.16 9.1 10.65 2.75 3.09 5.55 6.16 8.54 9.01.69.65 1.49 1.22 2.34 1.78a2.2 2.2 0 0 0 1.63-.05c1.15-.56 2.13-1.47 3.18-2.17.45-.3.85-.57 1.24-.94 3.5-3.31 7.05-6.56 10.57-9.84 3.05-2.84 6.08-5.7 9.13-8.55.17-.16.35-.37.56-.41h.01c.14-.23.27-.46.42-.68.43-.61.95-1.13 1.69-1.32.82-.21 1.75-.05 2.58 0 .44.03.87.03 1.31.05.42.02.84.08 1.27.06.36-.02.67.14.89.39l.52-.09c0 7.7.14 14.61-.06 21.51-.11 3.64-.73 7.28-1.3 10.89-.35 2.19-3.5 5.07-5.71 5.19-3.9.21-7.81.16-11.71.27-3.81.11-7.62.45-11.43.4-4.04-.06-8.08-.56-12.12-.7-4.04-.13-8.08 0-12.12-.08a17.08 17.08 0 0 1-4.26-.63c-.55-.16-1.3-1.02-1.28-1.54.28-6.59-2.62-12.45-4.18-18.61-.6-2.37-1.47-4.7-1.86-7.1-.4-2.45-.35-4.96-.52-7.79 3.32-.27 6.64-.59 9.98-.76Zm-60.21 115.86c.18.35.13.77-.15 1.07a.92.92 0 0 1-1.01.19.82.82 0 0 1-.31-.11 2.92 2.92 0 0 1-1.13-1.8 4.7 4.7 0 0 1-.19-3.47c.16-.43.53-.72 1-.65.44.06.79.44.79.9v.43l.99 3.45ZM97.6 268.7c.89-.05 1.8.02 2.7.17 2.18.37 4.24 1.07 6.23 2 .58.27 1.27.54 1.6 1.13.57 1.03-.48 1.73-1.34 1.98-.45.13-.92.2-1.39.24-.35.13-.71.23-1.07.26-5.03.48-10.09 1.08-15.12.95-2.93-.08-5.79-1.77-8.76-2.16-2.31-.31-4.75.16-7.1.48-2.4.34-4.83 1.69-7.24.02-.44-.17-.83-.44-.97-.92-.3-.97.6-1.72 1.3-2.2a5.77 5.77 0 0 1 2.24-1.02c.55-.09 1.1-.12 1.66-.16 1.31-.54 2.7-.88 4.1-1.06 1.53-.2 3.22 1.35 4.92 1.85 1.28.38 3.01.94 3.97.4 3.72-2.08 7.84-.16 11.53-1.52a7.3 7.3 0 0 1 2.74-.44Zm-22.45 9.39c2.61-2.13 4.96-1.34 6.93-.42a23.3 23.3 0 0 0 8.71 2.21c.88-.26 1.72-.64 2.66-.66 1.18-.03 1.17 1.8 0 1.83-.24 0-.47.06-.7.12-4.43 2.37-8.25.94-12.12-1.24-1.51-.85-3.34-1.14-5.48-1.84Zm4.25 6.38c-.72.84-1.25 1.81-1.67 2.83-.42 1.01-.75 2.07-1.31 3.02a4.5 4.5 0 0 1-2.12 2.04c-.95.36-2.03.14-2.95-.22a6.36 6.36 0 0 1-3.9-3.99c-.64-2.12-.18-4.24.84-6.15.37-.69.82-1.41 1.5-1.84.37-.23.77-.33 1.17-.33.7-.07 1.61.26 3.05.91l4.71 2.13c.66 0 1.26.91.68 1.59Zm-14.87-17.44a11.37 11.37 0 0 1 2.21-4.84c1.11-1.49 2.52-3.03 4.35-3.6.39-.12.82.09 1.03.42a8.6 8.6 0 0 1 1.11 3.52 5.2 5.2 0 0 1-.1 1.93l.19.66c.19.63-.31 1.09-.88 1.16-2.44.31-4.73 1.48-7.04 2.26-.47.16-1-.18-1.12-.64a.9.9 0 0 1 .25-.87Zm21.05 52.32a645.4 645.4 0 0 1-9.79-3.96 81.61 81.61 0 0 1-5.18-1.82c-2.14-.84-4.67-1.62-6.14-3.51-1.38-1.77-1.37-4.33-1.56-6.46a63 63 0 0 0-.49-4.33 9.36 9.36 0 0 1-.02-3.46c-.07-.73-.1-1.46-.16-2.19a86.69 86.69 0 0 1-.27-5.35c-.02-1.77.19-3.55.04-5.31-.15-1.7.21-3.36.23-5.06 0-.62.52-.91 1-.87v-.04l.25.09 3.19 1.11c-.31.68-.46 1.3-.82 1.77-2.27 3.02-2.36 5.66-.36 8.78 1.08 1.69 1.94 3.53 3.1 5.17a3.9 3.9 0 0 0 2.27 1.44c4.62.82 6.69-.25 8.9-4.43a61.2 61.2 0 0 0 2.26-4.6c.47-1.11 1.1-1.51 2.31-1.26 1.27.26 1.79.85 1.88 2.19.42 6.63.86 13.27 1.45 19.88.3 3.38.95 6.74 1.45 10.1.27 1.83-1.39 2.98-3.54 2.13Zm25.46-21.58a20 20 0 0 0 .36 3.78c.57 2.67 1.54 5.99-.61 8.23-1.81 1.89-4.8 2.52-7.03 3.79-2.72 1.55-5.32 3.41-8.15 4.75-.93.44-2.05.75-2.79-.17-.51-.64-.59-1.54-.47-2.37l-.05-.23c-.46-3.44-.87-6.89-1.19-10.35-.52-5.51-.97-11.04-1.4-16.56-.1-1.34.2-2.33 1.92-2.59 4.47-.69 7.69-3.84 11.4-6.04 1.99-1.19 4.14-2.11 6.25-3.16 1.56 4.93 2.29 15.45 1.76 20.92Zm-2.13-28.83c-1.4-.77-2.66-1.57-4.02-2.18-1.05-.47-2.15-.81-2.99-1.08-.15-.04-.29-.08-.45-.1-.75-.11-1.26-.65-1.57-1.32-.19-.43-.31-.88-.46-1.33-.14-.42-.28-.84-.39-1.28a7.58 7.58 0 0 1-.15-3c.07-.42.52-.66.92-.65v-.02c4.31.08 10.01 5.39 9.1 10.95Zm9.87-68.78c-1.04 1.02-2 .95-3.11-.32-.98-1.12-1.73-2.96-3.63-2.71a.31.31 0 0 0-.06.04l-.19.18-.04.03-.01.03-.11.2-.07.21-.03.12c-.02.22-.02.44 0 .66v.05l.02.1.09.39c.06.24.15.48.24.71.49.85 1.38 2.07 2.95 4.24-4 8.12-8.09 16.23-11.99 24.43-1.39 2.91-2.2 6.09-3.49 9.05a248.22 248.22 0 0 1-6.12 13c-.11.22-.17.42-.25.63-.07.52-.02 1.05.03 1.57.15 1.4.45 2.73 1 4.02.42.99.88 1.98 1.43 2.91.5.85 1.01 1.7 1.37 2.63.61 1.58.29 4.04-1.88 4.03-2.12 0-2.79-2.9-3.42-4.52l-.77-1.49-.42-.79-.21-.36a.26.26 0 0 1-.03-.07l-.03-.03a3.38 3.38 0 0 0-1.02-.78c-.21-.11-.28-.12-.54-.2h-.13l-.19.03-.05.02c-.04.12-.11.23-.14.36-.07.38-.05.78-.03 1.17 0 .46.05.91.16 1.36.06.37.16.73.31 1.08l.58 1.92c.2.67.61 1.53.15 2.17-.1.14-.22.29-.35.43h-.08a1.7 1.7 0 0 1-1.04.38h-.06c-.15-.04-.28-.12-.42-.17-.51-.25-.83-.74-1.08-1.28-.35-.74-.46-1.63-.69-2.42a44.1 44.1 0 0 0-1.51-4.27l-.15-.33c-.05-.12-.09-.25-.15-.37-.03-.06-.08-.11-.12-.15-.47-.8-1.11-1.3-1.73.76h-.06c.11.4.27.79.37 1.14.29 1 .43 2.04.71 3.04.16.56.39 1.11.52 1.68.13.58.18 1.23-.22 1.72-.5.6-1.38.62-2.05.3l-.1-.1c-.38-.56-.6-1.27-.81-1.9a15.4 15.4 0 0 1-.76-4.46c-.02-.95-1.49-.96-1.47 0 .04 1.64.3 3.28.81 4.84l.06.16c-.2.56-.63 1.04-1.28 1.04-1.28 0-1.65-1.61-1.94-2.57-.5-1.62-1.24-3.8-.6-5.44-.03-3.46 3.52-13.2 6.17-16.6.19-.4.34-.82.42-1.25.18-1 .03-2.05.04-3.06.02-2.47.99-4.76 1.58-7.12a76.16 76.16 0 0 1 2.08-7.22c1.66-4.65 3.84-9.08 6.11-13.46 1.11-2.14 2.45-4.13 3.61-6.24.57-1.04 1.14-2.08 1.82-3.05 3.53-6.73 6.86-13.75 12.24-19.77l14.15 14.81c-1.57 1.77-2.88 3.39-4.35 4.84Zm11.8-5.87a6.16 6.16 0 0 1-4.5-.42 9.03 9.03 0 0 1-3.2-3.18l-.02-.07a125.88 125.88 0 0 0-5.82-6.6 58.47 58.47 0 0 0-5.58-4.96 5.34 5.34 0 0 1-2.04-2.15c-1.28-2.66 1.39-5.88 2.79-7.95.96-1.43 1.87-2.9 2.91-4.28 1.18-1.57 2.54-2.95 3.89-4.37 2.91-3.07 5.76-6.2 8.52-9.41.29-.34.63-.43.96-.39.73-.25 1.71.13 1.74 1.14.07 2.37 1 4.57 1.35 6.9.36 2.36.22 4.74.63 7.1.71 4.08 1.91 8.06 2.6 12.15.36 2.11.83 5.24.56 8.06.05.64.07 1.29.05 1.93a7.65 7.65 0 0 1-1.09 3.99 6.39 6.39 0 0 1-3.73 2.52Zm34.57 180.57c.44 1.66.26 3.52.13 5.27-.03.41-.91.98-1.48 1.1-1.98.42-3.97.81-6.03 1.21-3.53.41-7.1.44-10.65.04-.29-.03-.56.06-.79.22-2.42-.4-4.89-.77-7.38-.98a12.73 12.73 0 0 1-6.05-2.01c-1.42-.9-1.74-1.9-1.14-3.3 1.03-2.44 2.19-4.83 3.19-7.28.84-2.07 1.47-4.23 2.31-6.3.62-1.53 1.45-2.38 3.53-1.93 3.3.71 6.6 1.07 10.11.13 2.7-.72 5.78-.39 8.62-.02.83.11 1.66 1.9 2.09 3.06 1.31 3.55 2.57 7.14 3.54 10.79Zm83.91-7.3c.36.29.79.49 1.2.71 2.22 1.17 4.62 2.1 6.6 3.59.89.67 1.41 2.52 1.23 3.71-.13.88-1.53 1.93-2.57 2.26a46.72 46.72 0 0 1-17.09 1.96c-3.4-.2-6.83.2-10.25.39a4.03 4.03 0 0 1-4.21-3.65c-.15-1.56-.62-3.1-.73-4.66-.14-1.99-.04-4-.12-6-.02-.51-.34-1-.48-1.37l3.34-.83c2.01-.27 3.99-.65 5.88-1.3.68-.23 1.37-.44 2.06-.64l2.88-.69c2.04-.47 4.02-.69 5.82 1.11 1.97 1.98 4.26 3.64 6.43 5.42Zm-13.83-179.99c-.01.76-.08 1.51-.24 2.25-.15.71-.37 1.42-.47 2.14-.5 6.27-.92 12.55-1.72 18.78-1.44 11.21-3.22 22.38-4.74 33.58a70.17 70.17 0 0 0 .47 22.68 455.82 455.82 0 0 0 5.49 25.88c1.8 7.14 4.46 14.06 6.41 21.17 1.19 4.35 1.7 8.88 2.57 13.32.87 4.41 1.89 8.79 2.71 13.2.57 3.05 1.17 6.14 1.29 9.23.07 1.94-.22 3.98-1.45 5.5-1.77.94-4.23 1.33-5.68 1.69a110.6 110.6 0 0 0-8.75 2.52c-3.04 1.03-6.22 1.28-9.4 1.62-2.46.26-5.28.71-7.4-.62-1.03-2.09-1.92-4.27-2.83-6.42-2.51-5.92-5.08-11.81-7.46-17.78-1.32-3.32-2.14-6.85-3.48-10.16-3.7-9.2-7.11-18.56-11.51-27.42-2.77-5.58-3.83-10.77-2.4-16.8.8-3.38.55-7 .84-10.51v-.04c-.01-.1-.02-.2 0-.31.18-.95.32-1.83.12-2.79-.11-.53-.21-1.06-.35-1.58l-.12-.17c-.22-.23-.91-.25-1.44-.13-.2.11-.38.23-.51.38-.43.5-.57 1.25-.71 1.87l-.25 1.13c.1.33.26.67.21.98-.98 6.43-1.54 12.97-3.23 19.21-.71 2.61.12 4.9-.36 7.41-1.4 7.24-1.99 14.64-2.77 22-.4 3.73-.39 7.51-.82 11.24-.71 6.15-1.34 12.33-2.58 18.38a42 42 0 0 0-.19 1.57c-.13 1.41-.53 2.74-.9 4.1-.35 1.28-1.03 2.44-2.26 3.03-1.19.57-2.49.51-3.77.5l-.06-.01c-.51.02-1.02.02-1.46 0-4.92-.2-9.84-.62-14.75-1.05a1.85 1.85 0 0 1-.54-.16c-.65-.02-1.29-.11-1.94-.14a22.8 22.8 0 0 1-1.68-.15l-1.35.06c-.79.05-1.62.1-2.41-.08h-.04a134 134 0 0 1-10.4-.8c-2.46-.31-6.05-4.75-6.15-7.38-.23-5.84-.56-11.69-.51-17.54.03-2.88.92-5.75 1.27-8.64.45-3.77.77-7.55 1.08-11.33.28-3.49.42-6.99.71-10.47.48-5.85.95-11.7 1.57-17.53.56-5.23 1.42-10.43 1.99-15.67.51-4.64.75-9.3 1.21-13.95.51-5.15 1.21-10.28 1.65-15.44.2-2.43-.09-4.89-.03-7.33.03-1.23.48-2.44.52-3.67.13-4.29.04-8.59.26-12.88.32-6.29.21-12.7 1.42-18.83 1.45-7.34.65-14.35-.64-21.49-.37-2.06-.09-4.24-.4-6.32-.57-3.75-1.39-7.46-2.06-11.19-.3-1.66-.49-3.33-.72-5l-1.05-7.42c3.19-2.23 7.28-2.63 11.22-3.36.41-.08 1.32.77 1.49 1.34a758.5 758.5 0 0 1 4.66 16.78c-.01.32-.03.63 0 .93.07 1.19.67 2.28.71 3.45.04 1.29.05 2.39.49 3.61.01.44.04.88.11 1.31.43 2.58 1.19 5.1 1.76 7.66.48 2.16 2.29 2.57 3.94 2.61 8.25.2 16.5.36 24.75.28 7.96-.08 15.92-.44 23.87-.71 2.63-.09 5.26-.16 7.87-.46a5.32 5.32 0 0 0 2.54-.78c.49-.2.95-.48 1.35-.87a6.43 6.43 0 0 0 1.61-3.58c.24-1.38.39-2.78.47-4.18.03-.47.03-.95.04-1.42.03-.26.07-.51.13-.74.7-2.83.33-5.94.34-8.93.03-6.01 0-12.02 0-18.44 3.56.71 6.76 1.29 9.94 2a3.79 3.79 0 0 1 3.14 3.64c.37 4.87.67 9.74 1.01 14.61.33 4.82.87 9.64.96 14.46.07 3.76-.13 7.53-.32 11.3.06 1.08.13 2.16.11 3.24Zm91.01-91.03c-2.57-.5-5-1.02-7.44-1.44-2.47-.43-4.96-.78-7.4-1.15 3.6-4.28 10.86-3.06 14.85 2.6Zm-45 .83c-1.41-.53-2.95-.96-4.06-2.01-.39-.37-.3-.92 0-1.29 1.15-1.43 3.37-1.3 5.01-1.17 2.12.16 4.28.07 6.31.75 3.67.51 7.78 1.44 9.59 2.26l-1.56 5.16c-5.14-.9-10.54-1.19-15.3-3.7Zm-28.58 81.27c-4.36 1.96-8.74 3.86-13.16 5.81l-1.42-41.6c2.83-.87 5.8-1.74 8.74-2.69 2.79-.91 4.62-.13 5.5 2.65.35 1.1.44 2.29.56 3.46.68 6.9 1.31 13.81 2.01 20.71.23 2.32.68 4.63.9 6.95.22 2.34-1.11 3.82-3.11 4.72Zm58.4-58.84c-6.61 9.31-12.92 18.84-19.68 28.04-2.92 3.97-6.75 7.26-9.97 11.02a56.93 56.93 0 0 0-4.82 6.88c-1.17 1.85-2.6 3.27-4.71 3.92-4.01 1.23-7.8 3.41-12.5 3.15l-3.73-33.07 5.57-.34c-.68 1.18-1.41 1.88-1.36 2.52.06.73.76 1.9 1.31 1.98a3.5 3.5 0 0 0 2.63-.9c1.67-1.74 3.04-3.76 4.64-5.58 3.59-4.07 6.93-8.44 10.95-12.03a244 244 0 0 1 18.1-14.39c2.16-1.59 2.67-3.54 2.95-5.77.23-1.83-.09-4.12 1.43-5.16a3 3 0 0 1 .37-.43c.92-.92 2.16-.98 3.37-1.21 2.44-.46 5.25-1.62 7.68-.49.91.43 1.49 1.29 1.06 2.29-.45 1.05-1.57 1.51-2.57 1.91a10.5 10.5 0 0 0-5.39 4.54 6.72 6.72 0 0 0-.66 4.21c.57 1.59 1.53 2.98 2.59 3.25.28.07 1.12-.7 1.11-1.06-.04-1.29-.34-2.57-.58-4.13l8.24 3.78c-2.18 2.53-4.32 4.66-6.04 7.09Zm19.76-17.03c-.46 1.52-1.32 2.86-2.02 4.27-.18.36-.34.7-.4 1.11-.06.36-.07.73-.14 1.09-.13.72-.44 1.44-1.16 1.73-.58.24-1.18.1-1.74-.11l-.62-.19c-4.36-.66-8-3.52-12.33-4.01q5.68-4.11 6.4-6.76l10.35 1.68.79.02c.19 0 .36.08.51.19h.08v.05c.24.22.4.56.29.92Zm2.27 9.64a1.5 1.5 0 0 1-.37-1.21c.7-2.87 1.47-5.73 2.23-8.62-.33-2.15 3.25-2.5 4.71-2.64l1.38-.12.22-.02h.05c.4-.07.8-.13 1.21-.16 1.54-.13 3.33.03 4.68-.86a.8.8 0 0 1 .65-.12l.12-.4.88.3-.32.98a.9.9 0 0 1-.2.62c-.56 1.73-1.11 3.45-1.76 5.15-.89 2.32-1.93 4.59-2.9 6.88l-3.1 7.32c-2.56-2.42-5.04-4.73-7.47-7.09Z"/>
    <path d="M211.81 201.93c-.13-.28-.28-.54-.4-.83-.26-.62-.39-1.26-.59-1.9a2.4 2.4 0 0 0-.36-.67c-.1-.12-.19-.24-.3-.35-.12-.12-.24-.25-.39-.36l-.2-.13c-.15-.1-.31-.18-.47-.27l-.41-.21c-3.28-.11-6.56-.12-9.83-.33-4.33-.29-8.66.21-12.99.33-4.23.11-8.44.17-12.65.61-2.23.24-4.46.49-6.69.66-1.93.14-3.89.03-5.81.24-.99.11-2.08.39-2.71 1.23-.6.81-.72 1.89-.75 2.9l.01.04c.14 6.47.29 12.94.12 19.4-.05 1.92.24 3.42 1.57 4.65a20.18 20.18 0 0 0 12.9 5.42c6.21.27 12.46-.25 18.69-.48 3.73-.13 7.47-.27 11.19-.56 2.77-.22 5.59-.45 8.25-1.16a4.47 4.47 0 0 0 2.7-2.85c.52-2.64.68-5.42.54-8.12-.31-5.77-.76-11.53-1.43-17.27Zm-2.96 24.04c-.16.85-1.88 1.96-2.93 2-7.25.3-14.51.31-21.76.49-1.36.03-2.71.41-4.07.64-.3.05-.6.25-.89.23-4.49-.42-9.03-.6-13.45-1.41-2.78-.5-3.48-2.26-3.67-5.43-.34-5.65-.83-11.28-1.22-16.93-.05-.8.17-1.61.19-1.79 4.96-.43 9.37-.82 13.77-1.18 4.35-.36 8.69-.67 13.04-1.01a5157 5157 0 0 0 17.51-1.37c2.01-.16 3 .15 3.05 2.71.07 4.6 1 9.17 1.19 13.77.13 3.09-.19 6.24-.76 9.28ZM221.3 86.02c-5.4 2.9-11.23 3.76-17.22 3.48-1.53-.07-2.74.09-3.61 1.17-.11.14-.19.32-.26.5-.21.25-.39.54-.51.88-.39 1.13.2 2.21 1.09 2.89.53.4 1.13.7 1.75.96 1.09.49 1.84.91 2.84 1.16l1.68.58h.03c3.06 1.1 6.14 2.13 9.26 3.05.73.21 2-.04 2.47-.57 3.02-3.38 5.17-7.28 5.88-11.81.36-2.3-1.32-3.4-3.4-2.28Zm-3.9 8.27c-1.99 3.3-2.44 3.28-5.96 1.81a21.4 21.4 0 0 0-4.01-1.11h-.18a13.23 13.23 0 0 1-1.89-.58l-.08-.03h-.02l-.45-.21c-.15-.07-.3-.15-.44-.24l-.03-.02-.02-.03-.09-.09a2 2 0 0 1-.22-.37l-.1-.19a.49.49 0 0 1-.03-.07l-.07-.25-.01-.06v-.14c.11-.05.22-.09.33-.1 4.85-.48 9.71-.86 14.91-1.31-.61 1.12-1.08 2.08-1.62 2.98ZM216.84 73.79a21.45 21.45 0 0 0-3.59-5.63c-.54-.65-1.52-.93-2.42-1.27-.25.09-.35.36-.29.83.19 1.45 1.05 2.85 1.76 4.1.64 1.13 1.53 2.86.65 4.03l.04.1-.15.02c-.08.09-.15.19-.26.28-.9.7-2.07.46-3.11.29-1-.16-2.21.11-3.14.5-.61.25-.82.88-.7 1.5.74 1.27 1.93 1.64 3.63 1.31 1.44-.28 2.91-.35 4.36-.59 1.12-.18 3.01-.24 3.17-.78.44-1.46.6-3.32.05-4.7ZM176.79 59.12c1.55-2.41 3.67-3.87 6.35-5.13 2.22-1.04 4.37-1.99 6.74-2.25 1.8-.2 3.65-.06 5.46.11.42.04 1.17 1.04 1.09 1.18-.39.62-1.11 1.61-1.54 1.53-3.92-.71-6.89 2.2-10.51 2.65-1.14.14-2.31 1.18-3.18 2.08-1.94 2-2.54 2.05-4.4-.17ZM163.91 101.21c.16-.41.26-.84.21-1.29a3.3 3.3 0 0 0-1.03-2.01c-1.14-1.03-2.88-1.98-2.64-3.8a1.95 1.95 0 0 1 2-1.72c.65.01 1.18.13 1.8-.14.23-.1.47-.24.64-.42.14-.15.23-.3.24-.37.04-.23 0-.48-.1-.7-1.95-.7-3.87-1.49-5.87-2.04-.57-.16-1.87.36-1.94.73-.29 1.54-.7 3.31-.21 4.69.84 2.37 2.32 4.5 3.52 6.74.63 1.18 1.5 2.02 2.76.95.24-.2.45-.42.62-.65ZM189.63 64.81a14.63 14.63 0 0 0-1.66.38c-.98 1.13-2.32 2.45-3.05 4.07-.58 1.3 2.28 3.04 4.81 3.12 1.83.06 4.74-2.37 4.81-4.02.06-1.47-2.08-3.13-4.91-3.55ZM224.79 47.27l.08-.36v-.43l-.01-.07-.06-.2a7.28 7.28 0 0 0-2.39-.74 50.85 50.85 0 0 0-5.08-.39c-1.18-.03-2.66-.28-3.48.3-1.66 1.17-2.97 2.84-4.52 4.4 2.15 2.26 3.11 2.3 4.38.26 1.19-1.91 2.46-2.52 4.82-1.97 2.01.47 4.31.85 6.26-.81ZM221.92 64.06c-2.54-.04-4.38-1.52-4.38-3.52 0-1.43 3.26-4.23 4.84-3.64 1.4.53 2.87 1.9 3.47 3.27.53 1.21-2.53 3.91-3.93 3.89Z"/>
  </g>
</svg>
