<svg xmlns="http://www.w3.org/2000/svg" viewBox="0 0 393 393">
  <defs>
    <style>
      .c{fill:#fff}.d{fill:#edcbb6}.e{fill:#8b769c}.g{fill:#8e657a}
    </style>
  </defs>
  <g id="b">
    <path class="d" d="M201.83 66.19c-1.08-1.91-3.48-2.25-4.92-3.81-1.58-1.71-2.92-3.47-5.15-4.37-2.6-1.06-5.27-.46-7.9.13-3.17.72-5.25-.1-7.99-1.69-4.87-2.83-9.94-4.83-15.69-3.84-3.28.57-5.73 2.29-7.75 4.88-.88 1.13-1.82 2.78-3.1 3.53-1.44.84-2.56.03-4.01-.35-5.66-1.49-10.12 3.31-12.16 8.18a10.38 10.38 0 0 0-3.77 5.57c-.92 3.46.46 6.13 1.7 9.27 1.32 3.36-1.26 6.15-2.37 9.22-.44 1.21-.39 3.09-1.09 4.15-.74 1.12-2 1.61-2.7 2.88-.44.81-.49 1.6-.29 2.29a19.82 19.82 0 0 0-1.73 8.05c.1 4.38 4.48 5.33 7.55 7.31.3.19.6.33.89.41-.49 2.45-1.66 4.69-1.07 7.3.72 3.21 2.66 6.2 4.41 8.93 1.79 2.78 3.82 5.55 4.89 8.71 1.35 3.96-.14 7.13-.15 11.1a3.2 3.2 0 0 0 2.31 3.03c.9.26 1.77.33 2.64.33.5.64 1.27 1.08 2.33 1.08.12 0 .23 0 .35-.02.34.18.71.31 1.12.36a124.12 124.12 0 0 0 27.18.2c2.96-.3 3.74-3.87 2.28-5.48.35-4.08.36-8.15 0-12.24 4.71-.83 9.39-2.05 13.31-4.89 4.52-3.27 6.92-7.9 7.63-13.38.79-6.09.29-12.22 1.17-18.32.97-6.72 1.75-13.46 2.19-20.23.2-3.16.34-6.33.41-9.5.06-2.56.8-6.41-.53-8.76ZM137.55 269.51c.3-1.66.18-3.33-.25-4.98-.49-1.88-2.86-3.02-4.58-1.91a26.24 26.24 0 0 0-4.79 4.2c-1.16 1.22-2.67 2.43-3.39 3.97-1.78 3.85 2.49 6.61 5.19 8.48 1.9 1.32 3.72.07 4.3-1.66a7.17 7.17 0 0 0 2.03-2.11c.41-.67.58-1.56 1.06-2.17.9-1.14 1.17-2.61.43-3.82ZM272.33 176.67a21.57 21.57 0 0 0-5.01-4.57c-.97-.64-2.02-1.06-3.02-1.62-1.1-.61-.72-.61-1.46-1.91-3.12-5.46-9.27-.79-11.93 2.43a11.79 11.79 0 0 0-2.69 6.85c-.14 1.67.1 3.51 0 5.25-.86 1.41-1.56 2.88-1.5 4.63.08 2.36 1.5 3.44 3.25 4.68 1.74 1.23 2.59 3.27 4.46 4.45 1.69 1.07 4.32 2.39 6.32 2.57 2.28.19 5.13-1.82 6.91-3.1 1.76-1.26 2.78-3.1 4.69-4.17 2.1-1.18 4.43-2.12 5.36-4.53 1.71-4.41-2.97-7.93-5.37-10.95Z"/>
    <path d="M176.14 158.17c-1.56 1.45-5.43 1.16-7.42 1.33-2.95.26-5.9.43-8.86.49-5.5.12-11.68.49-16.91-1.45-3.77-1.39-5.35 4.64-1.61 6.02.73.27 1.47.5 2.23.7.06.35.18.72.39 1.1 3.23 5.99 7.04 12.05 13.45 14.64 1.97 1.77 3.97 3.51 6 5.23 1.49 1.27 3.87 1.2 4.9-.68 3.44-6.3 6.74-12.66 9.93-19.08.23-.47.35-.93.37-1.36.62-.88 1.28-1.74 1.99-2.57 2.59-3.03-1.47-7.13-4.44-4.38Z" style="fill:#ac899c"/>
    <path d="M222.95 357.48c-2.82-15.32-5.36-30.72-9.11-45.84-3.78-15.23-7.76-30.41-11.65-45.6a3.62 3.62 0 0 0-1.88-2.45c-.57-1.8-2.24-3.19-4.58-2.46a36.86 36.86 0 0 1-13.88 1.67c-4.38-.32-8.57-1.79-13-1.79-4.53 0-9.02 1.06-13.4 2.11-2.14.51-4.28 1.04-6.45 1.44-2.17.4-4.48.23-6.62.71-4.6 1.03-3.68 5.37-5.04 8.78-1.62 4.05-4.05 7.49-4.61 11.93-.57 4.58.12 9.36.4 13.94.15 2.4.32 4.72.71 7 1.26 12.63.51 25.37 2.06 37.98a85.6 85.6 0 0 0 1.57 9.12c.65 2.76 1.19 6.5 3.8 8.13 2.21 1.38 5.75 1.12 8.26 1.41l10.57 1.19c1.48.17 2.68-.92 3.47-2 2.83-3.89 4.01-8.54 4.86-13.21.85-4.68 1.84-9.21 3.26-13.76l2.33-7.36c.81-2.55 1.38-5.39 2.57-7.79.19-.39 1.01-2.14 1.75-1.93.04.01.57.97.45.81 1.34 1.81 1.94 4.89 2.76 6.99l11.96 30.63c1.8 4.61 2.93 10.16 9.05 9.1 5.88-1.02 11.72-2.6 17.55-3.89 2.2-.49 3.22-2.79 2.84-4.84Z" style="fill:#544262"/>
    <path class="e" d="M169.58 378.39c-.47-.8-.3-1.91-.54-2.79a9.93 9.93 0 0 0-2.2-3.76c-1.68-1.96-3.71-4.28-6.07-5.39-2.37-1.11-5.07-.85-7.61-.97a51.13 51.13 0 0 1-9.38-1.36c-4.06-.95-6.18 3.99-4.1 6.46a4.5 4.5 0 0 0-1.16 3.78c.46 2.64.5 6.32 1.82 8.69 1.48 2.66 4.28 3.02 7.04 2.9 3.1-.13 5.96-1.16 8.99-1.68 3.21-.55 6.55-.2 9.77.05 3.05.25 4.9-3.5 3.46-5.95ZM233.63 370.98c-1.59-.8-2.63-2.55-4.12-3.61a21.8 21.8 0 0 0-4.98-2.58 27.49 27.49 0 0 0-12.75-1.34c-3.48.4-8.85.89-11.45 3.53-2.93 2.98-1.48 8.08.18 11.31a3.41 3.41 0 0 0 4.02 1.89c3.12 2.5 8.76-.6 12.1-1.5 2.27-.61 5.04-.61 7.36-1.02 2.28-.4 4.43.08 6.65.6 4.23.99 7.17-5.18 2.99-7.28Z"/>
    <path d="M208.43 58.04c-.29-2.27-1.58-4.58-2.44-6.69l-1.28-3.14c-.38-.93-.78-2.99-1.49-3.67l-.05-.15c.33-.66.57-1.44.57-2.17a5.49 5.49 0 0 0-2.64-4.58c-3.34-2.02-6.76.17-8.61 3.01-1.03-1.48-2.57-2.72-4.07-3.88-3.07-2.36-6.46-5.05-10.19-6.25-3.74-1.2-8.3-.82-12.14-.34-.98.12-1.95.25-2.91.49-.73.18-1.83.81-2.6.82.29-.08-1.46-.94-1.48-.96-.82-.49-1.66-.88-2.56-1.22-3.65-1.39-7.21-1.99-10.59.25a54.36 54.36 0 0 0-9.9 8.51 3.84 3.84 0 0 0-1.07 2.44c-2.1-.3-4.28-1.01-6.2-1.09-3.91-.15-7.39 1.34-10.34 3.84-2.97 2.51-4.83 6.13-6.91 9.49-2.51 2.51-4.95 5.1-7.31 7.77a4.07 4.07 0 0 0-.49 4.72 13.53 13.53 0 0 0-2 3.68c-1.26 3.75.8 6.64 3.49 9.15 1.79 1.67 6.08 3.34 6.51 5.93.29 1.72 1.36 2.61 2.63 2.85-1.13 3.92-3.57 7.87-5.22 11.48-.89 1.95-2.18 4.02-2.58 6.14-.42 2.24.48 4.44 1.35 6.46 1.78 4.08 5.07 7.24 7.32 11.04 1.1 1.86 2.59 3.49 4.66 4.26 1.03.38 2.01.54 3.11.43.33 0 .65-.04.96-.12 2.08 1.23 5.38.63 6.09-2.23a6.71 6.71 0 0 0-2.33-7.03c-1.64-1.37-3.7-1.78-4.62-3.87-1.04-2.38-.65-5.28-.34-7.77.27-2.23.46-5.11 1.85-6.98 1.45-1.95 3.56-2.84 4.72-5.14a19.78 19.78 0 0 0 1.9-7.63 20.4 20.4 0 0 0-1.13-8.09c-.76-2.15-2.01-4.14-2.14-6.4 1.52-1.71 2.9-3.58 4.42-5.33 2.31-2.67 8.85-9.9 12.18-5.61 1.67 2.15 5.02 1.03 6.23-.86 1.66-2.6 3.51-5.61 6.28-7.16 7.13-.65 13.98 1.83 20.5 5.01 1.6.78 3.38.29 4.6-.75a13.9 13.9 0 0 0 7.06-3.74 13.75 13.75 0 0 0 3.39 5.48c1.43 1.44 3.16 2.56 4.79 3.74 1.4 1.01 2.73 2.2 4.49 2.52 4.07.74 7.01-2.79 6.51-6.66Z" style="fill:#c29368"/>
    <path class="c" d="M184.86 117.9c-3.55 1.06-7.95-.12-11.48-.78-3.21-.6-4.55 4.32-1.32 4.93 4.42.83 9.66 2.12 14.09.79 3.14-.94 1.86-5.88-1.28-4.94ZM332.76 23.93c-5.59-3.04-11.96-5.1-17.83-7.58-5.47-2.31-11.73-6.21-17.86-5.82-6.37.41-12.92 3.11-18.97 5.02a436.08 436.08 0 0 0-42.03 15.77 2.4 2.4 0 0 0-2.94 1.09c-4.01 6.78-7.43 13.88-10.77 21.01-1.49 3.19-3.28 6.35-2.81 9.98.43 3.34 2.04 6.72 3.6 9.68.85 1.62 1.9 3.14 2.61 4.83.71 1.66.79 3.37 1.21 5.1.76 3.17 3.03 5.77 4.49 8.64 1.21 2.37 1.54 4.03.46 6.57a53.36 53.36 0 0 1-9.38 14.13 2.4 2.4 0 0 0-.68 1.82l-.73.51c-2.65 1.89-.12 6.33 2.55 4.42 6.08-4.35 12.43-8.34 18.68-12.45 1.33-.87 3-2.39 4.66-2.49 1.81-.11 3.87 1.09 5.57 1.6 3.28.97 6.69 1.42 10.08 1.78 3.63.39 7.26.69 10.89 1.03 3.83.36 7.8 1.07 11.65.92 7.07-.28 13.31-5.75 19.03-9.4.59-.38.94-.87 1.09-1.41l14.16-8.83c2.13-1.33 4.41-2.65 5.82-4.79 1.55-2.34 1.98-5.27 2.59-7.95 3.07-13.48 6.1-26.99 8.88-40.53 1.01-4.96.95-9.97-4.02-12.67Z"/>
    <path class="g" d="M293.16 35.44c-1.87.4-3.92.81-5.27 2.04-1.74-1.78-5.73-.17-5.16 3.01.46 2.57.73 5.13.77 7.74.03 2.17.27 5.07-.73 7.09-.4.79-1.07 1.56-1.57 2.29a7.3 7.3 0 0 1-.19.31l-1.2-.18c-2.4-.49-4.58-1.76-6.71-2.93-1.84-1.01-3.76.02-4.44 1.85a37.9 37.9 0 0 1-2.34 5.1l-.12-.07c-2.84-1.41-5.71-2.83-7.3-5.71-1.24-2.26-4.58-.5-3.86 1.72-.13.26-.22.55-.24.87-.11 1.74.28 3.2.87 4.83.39 1.07.52 2.24.76 3.32-.61.05-1.22.15-1.86.31a4.68 4.68 0 0 0-2.09-2.64c-2.56-1.64-5.26-2.73-7.45-4.92-1.93-1.93-4.93 1.09-2.98 3.03l.14.14c0 2.13.73 4.22 1.59 6.23 0 1.32.27 2.52.65 3.76-.08.22-.15.43-.19.66-.55 2.89 1.51 5.52 1.6 8.41.06 1.77 1.75 2.4 2.98 1.89.72 1.05 2.62 1.11 3.38.07 1.72.65 4.01.22 5.96-.17 3.7.8 7.81.79 11.51.78 4.55 0 9.03-.68 13.53-1.25l7.09-.9c1.77-.22 3.53-.22 4.8-1.66 2.42-2.74 1.74-7.69 1.72-11.02-.04-5.25-.17-10.5-.38-15.75a3.44 3.44 0 0 0-.21-1.05c.15-2.28.22-4.56.23-6.84 0-.4-.06-.75-.17-1.07.16-2.09.4-4.18.68-6.32.27-2.05-2.1-3.32-3.8-2.96ZM319.03 33.29c.9-2.27-1.06-3.72-3.01-3.61a3.24 3.24 0 0 0-1.45-.04c-1.66.37-4.12.71-5.37 2.03-.1.1-.18.21-.26.32-1.93-.31-4.23 1.2-3.62 3.69 1.16 4.74-.37 9.53.81 14.28.1.4.23.77.37 1.13-.85 2.72 2.07 4.85 4.25 3.69 1.12.17 2.24.02 3.43.39 1.77.55 3.96-1 3.82-2.92a109.5 109.5 0 0 1 .09-16.6l.94-2.36ZM316.36 65.76c-1.08-1.46-2.98-1.92-4.74-1.82-4.06.23-5.79 3.85-6.18 7.47-.14 1.34.96 2.53 2.2 2.92a3.02 3.02 0 0 0 3.63 2.15c3.39-.8 4.96-3.74 6.43-6.59a2.91 2.91 0 0 0-1.34-4.13ZM169.01 198.22c-1.42-5.69-7.29-8.35-10.39-13.01-1.76-2.65-3.54-5.1-6.03-7.11-2.47-1.99-5.28-3.54-7.66-5.64-2.66-2.36-4.28-5.35-6.15-8.31-1.54-2.44-3.65-4.2-6.71-3.73-3.33.51-6.37 3.19-9.02 5.1a145.6 145.6 0 0 0-9.1 7.13c-3.28 2.77 1.49 7.46 4.76 4.69a123.9 123.9 0 0 1 10.9-8.29c.32-.21 2.92-2.24 2.97-2.23.55.12 1.69 2.81 2.01 3.33a44.48 44.48 0 0 0 2.34 3.4 28.29 28.29 0 0 0 5.85 5.66c2.06 1.52 4.29 2.84 6.2 4.54 1.93 1.72 3.18 3.84 4.63 5.95a26.04 26.04 0 0 0 4.71 5.23c1.66 1.41 3.66 2.74 4.21 4.95 1.04 4.18 7.51 2.49 6.47-1.68Z"/>
    <path class="g" d="M256.19 198.77c-2.03-2.77-6.13-4.8-8.53-6.53-1.16-.84-3.06-.68-4.23.01-6.24 3.69-10.15 10.38-16.68 13.55-.3.15-.57.31-.8.49-3.01-4.06-6.67-7.6-9.83-11.73-4.92-6.44-8.04-14.05-12.73-20.65-4.46-6.28-9.85-11.4-17.15-14.13-2.33-.87-4.41 1.05-5.21 3.01-4.03 9.93-11.69 18.06-15.92 27.64a37.93 37.93 0 0 0-6.4-7.67c-4.63-4.25-12.02-7.59-14.8-13.54l-.67-1.56c-.79-1.83-2.6-2.33-4.31-1.99-5.45-2.51-12.13-.92-17.97 1.78-4.06 1.88-8.08 3.84-11.56 6.69-3.56 2.93-5.96 6.89-7.94 11a725.31 725.31 0 0 0-12.77 28.48c-1.87 4.36-4.32 8.85-4.93 13.61-.65 5.12 1.69 8.88 5.16 12.4 7.01 7.09 14.11 14.1 21.18 21.13a48.94 48.94 0 0 0 4.27 4.25c.32.28.66.5 1 .68l.33.54c.4.69.91 1.19 1.47 1.52 1.81 1.82 5.11 2.21 6.68-.71a19.63 19.63 0 0 1 9.31-8.71c.31-.14.56-.31.8-.5a9.88 9.88 0 0 0 7.71 5.11c6.11.81 12.84-.26 18.98-.6 6.29-.34 12.29-1.88 18.58-.86 5.79.94 11.47 1.94 17.06-.44 2.55-1.08 5.41-2.58 6.32-5.39.87-2.67-.07-6.24-.21-8.98-.47-9.04-.33-18.09.06-27.13 2.87 4.37 6.82 7.99 10.98 11.11a121.2 121.2 0 0 0 8.15 5.51c1.06.66 2.15 1.23 3.26 1.6.82 2.94 4.79 4.43 7.12 1.95a269.38 269.38 0 0 0 27.64-34.79c2.03-3.03-.59-5.91-3.45-6.14Zm-124.03 51.76c-1.56-.62-3-1.46-4.32-2.48a4.78 4.78 0 0 0-.92-1.73 117.99 117.99 0 0 1-11.66-16.73c-1.15-1.98-1.91-2.52-.65-4.5 2.26-3.56 3.73-7.17 5.16-11.14.69-1.92 1.53-4.24 2.85-6.08l.23.53c1.22 2.77.81 5.48 1.18 8.41.77 6.2 3.41 12.42 5.24 18.38.87 2.85 1.83 5.7 2.43 8.62.46 2.24.43 4.48.54 6.74l-.07-.03Z"/>
    <path d="M279.54 183.67c-.23-1.21-.98-2.28-1.63-3.3l-.96-1.48a56.88 56.88 0 0 0-4.16-4.65l-.05-.04c-.78-.51-1.62-.92-2.41-1.42-.59-.38-1.16-.78-1.72-1.19l-.1-.03c-.72-.26-1.47-.37-2.18-.64-1.63-.62-1.87-2.02-2.76-3.33a5.22 5.22 0 0 0-1.99-1.55c-.78-.42-1.56-.91-2.38-1.25a6.83 6.83 0 0 0-3.1-.49 5.6 5.6 0 0 0-2.01 1.31 32.76 32.76 0 0 1-6.1 4.91 4.7 4.7 0 0 0-2.43 4.7c.19 2.9.19 5.83.01 8.73-.09 1.4-.44 3.04-1.27 4.1-1.36 1.72-2.39 3.81-4.62 4.83-1.03.47-1.71 1.67-2.61 2.48-1.18 1.06-2.21 2.31-3.51 3.22-1.02.87-2.12 1.65-3.2 2.42a6.69 6.69 0 0 1-3.28 1.31c-.37.02-.68-.08-.97-.23a5.34 5.34 0 0 1-1.05-.57c-.05-.03-.08-.07-.12-.11a2.35 2.35 0 0 1-.53-.61c-.86-1.38-1.9-2.64-2.85-3.96a11.2 11.2 0 0 1-.8-1.05c-.7-1.04-1.54-2-2.16-3.09l-.1-.06c-.85-.92-1.63-1.9-2.36-2.91-1.93-2.69-3.8-5.41-5.72-8.1-2.43-3.4-4.89-6.78-7.35-10.16-1.75-2.41-3.46-4.85-5.28-7.21a288.98 288.98 0 0 0-3.46-4.38 23.62 23.62 0 0 0-4-1.74c-2.74-.94-5.58-1.56-8.4-2.27-.73.02-1.42-.1-1.99-.67a.99.99 0 0 1-.29-.88l-1.04-9.85c-.25-.3-.29-.77-.12-1.16l-.07-.66c1.54.18 3.11.31 4.62.14 2-.21 3.77-1.14 5.45-2.2 2.99-1.89 6.07-3.89 8.12-6.84a22.25 22.25 0 0 0 3.97-9.05c.51-3.43.63-6.99.41-10.46-.33-5.2-.34-10.33.81-15.44.26-1.17.1-2.45.43-3.6 1.08-3.74 1.86-7.47 1.83-11.41-.02-2.92-1.01-5.75-.48-8.71.25-1.4.04-2.89.04-4.39.52-.64 1.1-1.4 1.73-2.11 1.29-1.43 2.58-2.87 3.94-4.24 1.85-1.87 2.98-4.08 2.14-6.63-1.36-4.12-1.97-8.46-3.85-12.43-1.07-2.25-1.8-4.65-2.72-6.98-.48-1.24-2.71-2.75-4.02-2.69-2.18.11-4.36.24-6.53.48-1.43.15-2.68.03-3.89-.88-2.4-1.78-4.87-3.45-7.29-5.21l-.26-.14a17.52 17.52 0 0 1-2.84-2.15c-.59-.52-1.29-1.29-2.07-1.62-1.01.19-2.01.45-3.01.71-1.27.4-2.56.75-3.86 1.08-.45.12-.93.15-1.4.2l-.95.14c-.24.06-.47.14-.68.25-1.97 1.08-4.11.86-6.18 1.14-.29.04-.62 0-.94-.08l-.85-.39a13.75 13.75 0 0 0-5.81-2.28c-.46-.08-.91-.17-1.37-.27a35.2 35.2 0 0 0-2.31-.53c-.92-.18-1.94-.48-2.86-.21-.93.28-1.71 1.15-2.44 1.76l-.35.29c-.55.4-1.08.83-1.61 1.25-1.21.96-2.44 1.91-3.62 2.9-2.3.97-4.02 2.9-5.88 4.58-1.2 1.08-2.61 2.14-4.27 2.32-1.2.13-2.4.04-3.61.02-.7-.02-1.41-.04-2.11-.03l-.03.03a9.8 9.8 0 0 0-3.35.42h-.39c-.78.22-1.53.55-2.24.97a4.5 4.5 0 0 0-2.23 1.53c-1.12 1.48-1.96 3.23-2.9 4.82l-1.39 2.37c-1.63 1.98-3.26 3.96-4.7 6.06-2.37 3.45-4.54 7.03-6.74 10.59-.23.98-.54 1.95-.81 2.92a9 9 0 0 0-.43 3.24c.2.34.24.7.23 1.07.07.18.14.36.23.54a13.48 13.48 0 0 0 4.41 4.58c.51.64 1.04 1.27 1.63 1.85.81.81 1.73 1.47 2.58 2.23.84.74 1.26 1.77 1.76 2.75l.15.3c.19.57.37 1.15.51 1.75.52 1.01 1.1 2.18 1.75 3.56-.94 1.72-2.01 3.7-3 5.43-.28.49-.55.97-.78 1.48-1.08 2.35-1.81 4.9-3.12 7.1-.99 1.67-.77 2.91 0 4.27 1.36 1.09 2.32 2.7 3.14 4.21 1.51 2.81 2.93 5.65 4.91 8.17.97 1.23 1.99 2.42 2.91 3.69.82 1.14 1.56 2.36 2.53 3.38a4.08 4.08 0 0 0 4.18 1.33c.91-.18 1.83-.28 2.75-.35a8.47 8.47 0 0 1 3.02-.77c.91.98 1.46 2.03 2.28 2.35 1.1.42 1.7 1.07 2.23 2.02 1.07 1.95 2.23 3.85 3.31 5.8.92 4.25 1.87 8.48 1.47 12.84l-3.17 2.26c-.29.21-.59.4-.9.57-1.04.56-2.1 1.07-3.08 1.72-1.8 1.2-3.35 2.75-5.44 3.52-.9.33-1.75.82-2.51 1.4-4.2 3.24-8.38 6.52-12.56 9.78a8.2 8.2 0 0 1-1.88 1.73c-1.31.94-2.88 1.57-4.06 2.68-1.7 1.61-2.85 3.81-4.27 5.67-1.41 2.63-2.96 5.2-4.12 7.93-1 2.35-1.39 4.96-2.26 7.37-.76 2.11-1.81 4.12-2.77 6.16-1.23 2.61-2.65 5.14-3.73 7.82-1.76 4.36-3.34 8.79-4.96 13.2a79.6 79.6 0 0 0-.36 2.14 41.25 41.25 0 0 0-.5 4.8c-.13 1.95-.07 3.88.64 5.76a12.15 12.15 0 0 0 3.83 5.23c1.09.87 2.27 1.61 3.42 2.41.7.81 1.43 1.59 2.25 2.32.88.78 1.72 1.61 2.4 2.57.83 1.17 2.06 1.9 3 2.96.09.1.14.21.16.31l4.71 4.49c1.15 1.11 2.35 2.18 3.41 3.37.74.83 1.14 1.97 1.93 2.72 2.04 1.93 4.23 3.71 6.36 5.55.37.32.95.86 1.29 1.21 2.3 2.3 4.56 4.64 7.85 5.6.36.11.72.42.96.73 1.76 2.28 4.11 3.85 6.43 5.5l.07.24.05.24.04.53.05 1.23c-.09.38-.12.78-.09 1.18.22 2.43 0 4.9.37 7.32l.14.81v.02c.16.52.26 1.05.32 1.58l.32 1.49c.07 2.54.15 5.08.33 7.62.38 5.38 1.33 10.7 1.99 16.06 0 .2.02.39.03.59.06 1.49.02 2.98.12 4.46l.07 1c.4 1.46.61 2.91.67 4.42.06 1.85.24 3.7.3 5.56.1 3.3.24 6.6.2 9.9l-.03 1.6c.35 2.78.69 5.56.97 8.34.04.31.06.63.09.95.09.98.17 1.97.24 2.95l.05.37c.22 1.42.87 2.74 1.04 4.16.14.22.21.51.21.89-.01 3.47.03 6.94.02 10.41 0 2.83-.1 5.67-.07 8.5.03 2.07.87 3.12 2.89 3.57.43.1.85.22 1.28.33a37.4 37.4 0 0 0 4.23.08c4.77.1 9.61.06 14.34-.51 1.43-.17 2.85-.45 4.24-.83a5.3 5.3 0 0 0 1.62-.28c.15-.05.29-.07.43-.07l.11-.02c4.93-.58 6.67-2.29 5.1-5.82-.82-1.85-1.78-3.64-2.66-5.47l-3.43-7.15c0-.17-.02-.33-.01-.5.01-.62.07-1.21.14-1.79.36-1.11.73-2.21 1.04-3.33.6-2.17.88-4.48 1.77-6.52 1.59-3.66 2.42-7.51 3.48-11.31.69-2.49 1.15-5.04 1.82-7.53.6-2.24 1.55-4.4 1.96-6.67.4-2.23 1.22-4.24 2.08-6.25.33.82.71 1.63 1.1 2.41a136.5 136.5 0 0 1 3.98 8.38l3.96 9.33c.6 1.42 1.2 2.85 1.63 4.33.43 1.47.6 3 1.07 4.46.53 1.64 1.41 3.13 2.25 4.63l.26.46a41.6 41.6 0 0 0 1.82 4.26c1.4 2.81 2.97 5.66 3.15 8.86.03 1.08 0 2.16.08 3.23.1 1.42.32 2.83.71 4.2.29 1.02.58 2.24 1.27 3.08.4.49 1.04.7 1.71.77 1.46.64 3.12.49 4.78.37a170.05 170.05 0 0 0 19.95-2.43c1.46-.05 2.93-.07 4.39-.1 1.54-.04 3.09-.03 4.62-.16 1.09-.09 2.47-.31 3.16-1.15.86-1.04.39-2.94-.18-4.09a19.89 19.89 0 0 0-2.68-3.82l-.07-.04a13.46 13.46 0 0 0-1.76-1.78 25.5 25.5 0 0 0-3.13-2.34 7.05 7.05 0 0 1-2.4-2.57 11.89 11.89 0 0 1-1.32-3.39l-.01-.03c-.45-2.25-.85-4.52-1.34-6.76a59.2 59.2 0 0 0-2.09-9.49c-.32-1.06-.7-2.12-1.07-3.18l-1.22-4.77c-.24-1.88-.43-3.7-.75-5.54.02-.17.03-.35 0-.55a128.67 128.67 0 0 0-3.51-16.47c-1.1-3.85-2.48-7.61-3.69-11.42-1.24-4.82-2.6-9.62-3.78-14.45v-.06c-.88-3.56-1.65-7.15-2.4-10.74-.2-.7-.37-1.41-.58-2.11-.32-1.11-.67-2.21-.99-3.32-.77-3.12-1.64-6.21-.88-9.42.06-.24.07-.46.04-.66.25-.8.5-1.6.78-2.4.28-.81.59-1.6.72-2.45l.05-.46c.11-.6.15-1.21.11-1.84v-.32a.95.95 0 0 0-.11-.46.59.59 0 0 0-.02-.13c-.27-1.26-.26-2.59-.29-3.89-.13-5.42.42-10.85-.69-16.24-.27-1.3-.16-2.68-.1-4.12l.31-1.26.05-.18.08-.14c-.06.1.11-.14.11-.14l.14-.17a.47.47 0 0 1 .1-.1c.03 0 .04 0 .05-.02.02 0 .01 0 0 0h.18l.14.03.06.01.03.02c.15.08.3.16.44.26.25.17.52.39.86.64l.4.26c.5.47 1.14.88 1.66 1.28 1.17.9 2.3 1.83 3.41 2.8.27.24.54.49.82.72l.14.1c.09.06.19.13.29.18.44.27.91.49 1.37.73.71.37 1.36.83 1.9 1.4l2.55 2.16a36.3 36.3 0 0 1 2.53 1.72c1.02.58 2.03 1.19 3.01 1.85.84.57 1.7 1.17 2.69 1.45.97.28 2 .31 2.99.14 1.38-.24 2.65-.8 3.86-1.5l.2-.15c.02-.02.17-.14.07-.05l.05-.04c.73-.58 1.37-1.24 2.07-1.85.15-.2.3-.41.46-.6 2.44-2.99 5.02-5.87 7.36-8.93 2-2.62 3.7-5.47 5.63-8.14 1.93-2.68 4.23-5.12 5.91-7.93.44-.73.94-1.42 1.47-2.1.61-.96 1.24-1.91 1.8-2.9l.4-.72c.45-.89.91-1.77 1.32-2.67.19-.41.33-.94.49-1.44.12-.38.27-.79.5-1.13.03-.31.12-.62.3-.89.49-.75 1.39-1.21 2.12-1.69.9-.59 1.92-.86 2.76-1.34.26-.15.5-.31.74-.48l.58-.51c1.65-1.41 3.18-3.09 5.07-4.06.99-.5 1.81-1.2 2.62-1.9 1.05-1.43 2.47-2.61 2.92-4.38.29-1.14.57-2.36.34-3.53Zm-99.72-24.35.35.51c-1.29 3.63-2.55 7.26-4.64 10.55-2.12 3.34-4.21 6.7-6.25 10.09-.7 1.16-1.2 2.45-1.83 3.65-.33.62-.75 1.2-1.31 2.07-2.96-1.99-5.82-3.79-8.55-5.77-2.35-1.69-4.87-3.23-6.51-5.75-.92-1.42-1.85-2.84-2.84-4.22-2.07-2.91-4.17-5.78-6.25-8.68-.32-.45-.59-.94-1.03-1.65.6-.04 1.07-.22 1.27-.06 1.53 1.22 3.27 1.11 5.07 1.06 4.09-.12 8.23-.5 12.28-.09 5.71.58 11.31.03 16.93-.68 1.13-.14 2.22-.68 3.33-1.03Zm-51.1-35.33c-.07.73-.47 1.58-1.32 1.47v.02c-2.28-.18-4.11-.28-5.93-.5-.52-.06-1.32-.36-1.46-.74-.72-1.99-3.2-1.7-4.16-3.68-1.71-3.54-3.98-6.82-6.09-10.16-.41-.64-1.18-1.04-1.75-1.6a4.22 4.22 0 0 1-.63-.81c-.05-.35-.05-.71.06-1.09.43-1.51 1.23-2.9 1.95-4.28.34-.66.66-1.34.96-2.02.17-.3.32-.6.43-.92.15-.19.24-.48.29-.72 0-.05.03-.09.04-.13.68-1.65 1.33-3.32 1.98-4.97.8-1.51 1.69-2.98 2.43-4.51.78-1.6 1.41-3.29 2.33-4.81 1.1-1.82.76-3.6.12-5.33a16.82 16.82 0 0 1-1.11-4.82 9.2 9.2 0 0 1 .07-2.23c.14-.97.33-1.87.3-2.86a17.1 17.1 0 0 0-.09-1.25c-1.13-1.17-1.99-1.11-3.19.15-1.25 1.3-1.36 3.55-.47 5.12.03.22.07.44.12.65.29 1.31 1.05 2.44 1.28 3.77.24 1.43.44 2.93.4 4.38-.03 1.17-.34 2.46-1.27 3.23-.57-.08-.85-.62-1.15-1.09a41.17 41.17 0 0 0-7.33-8.51c-1.59-.71-2.77-1.99-2.71-4.07.04-1.5.59-2.98 1.09-4.38.5-1.42 1.1-2.8 1.76-4.15 1.38-2.79 3.1-5.4 5.04-7.83.92-1.15 2.03-2.15 2.88-3.34.9-1.25 1.68-2.58 2.53-3.86a13.36 13.36 0 0 1 2.83-2.98c.74-.52 1.54-.98 2.3-1.45.7-.43 1.48-.98 2.29-1.28h.23c.22-.08.45-.16.67-.22.41-.05.82-.05 1.22-.1.29-.04.58-.1.86-.16 1.03.02 2.06.12 3.1.12 1.1 0 2.2-.02 3.3.01 1.9.06 3.8.27 5.56-.61.58-.29 1.5-.82 1.66-1.52.05-.21-.09-.54-.25-.87l-3.24-.19v-.06l.04-.15.02-.04.18-.3s.06-.09.1-.12l.24-.25c.17-.17.35-.33.53-.48.11-.1.18-.22.22-.36.4-.34.78-.67 1.18-.97.75-.58 1.52-1.14 2.27-1.71.25-.04.5-.15.74-.34l2.87-2.37c1.17-.87 2.33-1.75 3.48-2.64l.39-.27.72.13a40.82 40.82 0 0 1 9.2 2.95 8.83 8.83 0 0 1 1.42 3.4l.07.18.06.16v.03c.1.18.2.37.33.53l.16.17.04.04.04.02a.3.3 0 0 1 .04.03l.1.03c.04.01.04.02.03.02H161.42l.24-.06.14-.07.02-.01.07-.05c.09-.1.11-.12.06-.04l.08-.11.21-.34.35-.61c.3-.47.7-.89 1.14-1.26.64-1.29 1.64-1.58 4.01-1.85 2.07-.24 4.12-.75 6.17-1.15 2.29-.44 4.48-.51 6.49 1.03a514.3 514.3 0 0 0 7.4 5.51c.69.38 1.43.65 2.12 1.03.54.3 1.08.72 1.25 1.35.17.62.02 1.32-.13 1.92-.14.55-.35 1.07-.53 1.61-.13.39-.51 1.16-.28 1.58.12.23.43.35.73.4l1.01-.17c.3-.14.58-.35.82-.57a6.2 6.2 0 0 0 1.27-1.68l.45-3.37c2.15-1.23 4.48-.16 6.9-.44l2.41 7.83c1.07 3.46 1.96 6.99 3.3 10.35.81 2.03.41 3.45-.98 4.79-.92.89-1.95 1.65-3.07 2.58-2.68-1.95-5.63-4.18-8.66-6.29a5.1 5.1 0 0 1-1.35-1.36 7.33 7.33 0 0 1-1.24-2.97c-.13-.71-.06-1.46-.23-2.16a1.09 1.09 0 0 0-.1-.25l-.66-.78a1.71 1.71 0 0 0-1.08-.32c-.84.13-1.43.52-1.78 1.62a5.09 5.09 0 0 1-3.38 3.25c-1.5.51-3 1.04-4.62 1.62-2.15-1.36-4.28-2.8-6.53-3.99-2.39-1.26-4.87-1.84-7.5-2.36-2.36-.47-4.72-1.7-7.1-.72l-1.3.55c-1 .1-1.96.48-2.81 1-.23.14-.48.29-.71.47-.18.23-.38.43-.59.62-.16.27-.36.5-.56.72l-.06.1c-.15.29-.28.59-.42.88l-.08.22c-.29.73-.56 1.5-1.03 2.13a4.6 4.6 0 0 1-.36.41 6.92 6.92 0 0 1-3 3.36c-1.06-.58-2.14-1.33-3.34-1.78-.97-.37-1.96-.55-2.96-.65h-.93c-.75-.01-1.48 0-2.2.23-1.36.43-2.51 1.63-3.26 2.8a.86.86 0 0 1-.42.35c-.25.46-.63.85-.98 1.26-3.1 3.58-6.27 7.09-9.39 10.65-1.08 1.23-.94 1.5.24 2.91 1.02 1.22 1.84 2.6 2.67 3.96.5.82.87 1.72 1.29 2.59.89 1.85 1.16 3.69-.06 5.53-.53.79-1.07 1.58-1.5 2.43a6.4 6.4 0 0 0-.52 1.83c-.12.71-.13 1.44-.2 2.29h-.03a3.8 3.8 0 0 1-1.15 2.34c-.81.79-1.81 1.36-2.43 2.35-1.27 2.03-1.48 4.82-1.62 7.15-.15 2.5-.01 5.03.68 7.45.17.28.35.56.54.83l.21.29.03.04c.14.18.29.36.45.53l.39.4c.1.09.19.18.3.26l.02.02.05.03c.32.21.65.41.99.58l.31.15.07.03.49.19c.58.22 1.23.31 1.75.66.29.19.52.47.67.78 0 .01.03.02.03.04.48.85.65 1.8.68 2.76.02.78 0 1.59-.08 2.37Zm7.6 8.93c-.95-1.37-2.03-2.65-2.99-4.02-.49-.7-1.09-1.46-1.19-2.25-.08-.6-.29-1.2-.47-1.79.06-.71.2-1.43.3-2.1.21-1.41.47-2.81.77-4.2a.88.88 0 0 0-.45-.99 8.44 8.44 0 0 0-2.7-1.95c-.84-.36-1.73-.64-2.54-1.07-.78-.42-1.47-1-2.35-1.61-.2-2.24-.47-4.57-.59-6.9-.04-.77.16-1.61.46-2.33.53-1.26 1.21-2.46 1.87-3.65.91-1.63 1.38-1.77 3.04-.94 1.23.62 2.48 1.21 3.63 1.95 1.23.79 2.22.77 3.18-.53-1.51-2.53-4.42-3.08-6.67-4.68.24-1.11.42-2.21.74-3.28.28-.95.82-1.71 1.49-2.51 1.17-1.39 1.9-3.17 2.68-4.85.19-.41.03-1.14-.22-1.58-.84-1.47-1.8-2.87-2.7-4.31-.46-.75-.97-1.5-1.29-2.31-1.13-2.82-.89-3.39 1.23-5.55 3.27-3.34 6.61-6.6 10.1-9.71 1.04-.92 1.49-.97 2.7-.09.26.19.56.34.79.56 1.63 1.64 3.47 2.3 5.67 1.28 1.83-2.8 3.69-5.61 5.52-8.43.86-1.33 2.25-1.6 3.61-1.61 2.77-.03 5.52.18 8.1 1.48 1.64.82 3.44 1.3 5.13 2.03 1.01.43 1.94 1.05 2.84 1.55-.36 1.65-2.45 1.97-2.59 3.71l.03.08.03.06.08.16.11.18.07.09.04.05.1.09.05.03.04.02.33.09.07.01h.06a5.1 5.1 0 0 0 1.76-.18 20.18 20.18 0 0 0 3.86-1.93 24.1 24.1 0 0 1 3.62-1.83 21.1 21.1 0 0 1 1.62-.33 6.42 6.42 0 0 1 3.08.08c.28.09.54.2.81.31.28.4.62.77 1.01.94a31.69 31.69 0 0 1 10.91 7.45c.05.58.15 1.39.18 2.19.04 1.14-.4 1.48-1.43 1.16-2.2-.68-3.76-1.71-6.13-1.78-.35-.01-1.2-.46-1.57-.55a2.99 2.99 0 0 0-2.3.38 15.93 15.93 0 0 0-3.61 3.04c-2.04 2.24-2.82 2.99-2.65 4.01a1.12 1.12 0 0 0 1.8.69c1.39-1.1 2.43-2.58 3.76-3.9a3.45 3.45 0 0 1 3.59-.74c2.45.87 5.23 1 8.16 1.28-.16 1.28-.35 2.61-.5 3.95-.35 3.23-.66 6.46-1.04 9.68-.44 3.7-1.01 7.38-1.42 11.08-.25 2.26-.07 4.58-.48 6.8-.73 3.92.26 7.71.41 11.56a26.8 26.8 0 0 1-.58 6.75c-.55 2.57-.91 5.3-2.87 7.36-.35.37-1.11 1.54-1.27 1.7a29.3 29.3 0 0 1-5.93 4.51 17.06 17.06 0 0 1-4.25 1.83c-.6.32-2.53.32-2.96.28-1.13-.1-2.22-.37-3.29-.71-2-.35-9.13-2.4-10.75-2.83-1.95-.52-3.84-1.24-5.75-1.9h-.66l-.17.01-.35.09H159l-.03.02-.13.08h-.02l-.09.1-.04.06-.08.17c-.14.4 0 .89.25 1.18.38.45.79.72 1.25 1.06a8.79 8.79 0 0 0 2.09 1.14h.02c1.71.67 3.42 1.3 5.13 1.96 2.37.74 4.7 1.65 7.14 2.08 1.28.23 1.34 1.31 1.39 2.27.12 2.75.18 5.5.23 8.25.03 1.36 0 2.73 0 4.42-1.9.82-7.32 1.52-7.62 1.62-2.16-.09-4.31 0-6.47.06l-3.87-.26c-.48-.03-7.74-.43-10.88-.39-2.23.03-4.06-.99-5.93-1.91a1.3 1.3 0 0 1-.66-1.21c.11-1.13-.02-2.32-.01-3.48-.15-.99 0-1.93.23-2.91.25-1 .4-1.87.33-2.9l-.04-.1c-.31-1.12-.41-2.28-.58-3.43l-.14-.93c-.03-.27-.04-.57-.14-.83-.09-.25-.21-.49-.3-.73-1.37-1.95-2.37-4.11-3.71-6.06Zm-12.73 133.24c-.87.89-2.15 1.41-3.29 2.01-.8.42-1.57.29-2.17-.64v-.04a17.39 17.39 0 0 1-2.5-1.88c-.92-.86-1.64-1.9-2.37-2.91a12.42 12.42 0 0 0-2.54-2.73c-1.04-.79-2.12-1.55-3.08-2.45-1.79-1.69-2.64-4.05-4.48-5.69-.74-.66-1.48-1.3-2.16-1.99a32.05 32.05 0 0 1-4.58-4.59c-.84-.99-1.66-1.97-2.6-2.86-.95-.89-1.95-1.74-2.88-2.65-.97-.95-1.91-1.89-2.94-2.77-.82-.7-1.63-1.42-2.4-2.18-1.77-5.34.66-11.93 2.39-16.92a194.85 194.85 0 0 1 9.31-22.24 140.1 140.1 0 0 1 5.64-10.36c1.98-3.28 4.03-6.57 6.78-9.26 2.91-2.86 6.38-5.04 9.78-7.25l5.94-3.84c.83-.37 1.67-.71 2.54-1.04 1.78-.66 3.33-1.94 4.98-2.95.27-.16.56-.29.84-.43 3.21 1.94 5.64 4.61 7.93 7.43l8.38 10.31a15.4 15.4 0 0 0 3.63 3.13c1.79 1.18 3.23 2.91 4.78 4.45.61.61 4.88 4.7 5.86 6.63.13.58.37 1.12.68 1.72.18.34.33.7.48 1.06.2.61.38 1.23.52 1.86.5 2.25.42 4.53.46 6.83.05 2.54.47 5.03.99 7.51 1.01 4.89 1.51 9.79 1.8 14.77l.87 15.33.94 16.69c-.24.48-.74.58-2 .87-1.48.34-3.04.68-4.35 1.4-1.37.75-2.76.78-4.2.94-2.97.33-5.93.76-8.9 1.08-2.09.23-4.2.5-6.3.48-1.43 0-2.88-.36-4.26-.77-1.6-.47-3.11-1.19-4.69-1.73-.83-.29-1.07-.79-1.06-1.65.03-5.17-.81-10.32-3.04-14.86-2.22-4.51-2.06-9.34-3.33-13.93-.64-2.33-1.13-4.7-1.74-7.04-.54-2.07-1.15-4.12-1.75-6.16l-.39-.9c-.07-.15-.14-.3-.19-.46l-.3-.9a19.41 19.41 0 0 1-.77-3.29c-.04-.25-.02-.49.05-.7l-.05-.05c.98-1.65 1.82-3.3 2.88-4.79 1-1.41 1.16-2.75.45-4.29a4.46 4.46 0 0 1-.31-1.05.2.2 0 0 0-.04-.06l-.16-.17-.05-.04c-.13-.07-.07-.05 0 0l.06.03-.16-.1-.03-.02-.09-.02h-.03l-.14.05h-.01l-.11.06-.24.14-.13.09.11-.09c-.08 0-.3.27-.37.35-1.44 3.15-2.72 6.37-4.98 9.12-.05.16-.14.32-.25.47a8.1 8.1 0 0 0-.26.36c-.27.59-.44 1.26-.63 1.92a45.97 45.97 0 0 0-2.29 4.81l-1.81 4.25c-.5.94-1.01 1.88-1.53 2.81a7.67 7.67 0 0 0-1.15 4.01c.33.58.65 1.16.87 1.82.32.5.67.97.96 1.43.94 1.44 2.07 2.65 3.21 3.94 1.12 1.27 2.06 2.76 3.06 4.14l.07.1a27.7 27.7 0 0 1 2.85 2.98c1.33 1.63 2.52 3.37 3.79 5.06 1.18 1.58 2.39 3.13 3.56 4.72 1.41 1.92.99 3.99-.25 5.6a90.34 90.34 0 0 1-7.08 7.95Zm4.46-21.24-1.18-1.63a7.22 7.22 0 0 1-.54-.86c-.39-.51-.68-1.1-.98-1.67-.5-.69-1.01-1.39-1.53-2.07-2.32-3.01-4.64-6.02-6.98-9.01-.62-.8-.95-1.5-.71-2.63.76-3.61 2.54-6.74 4.21-9.94.15-.28.36-.53.78-1.12.54.9 1.11 1.45 1.19 2.07.17 1.38.87 2.53 1.29 3.79a31.55 31.55 0 0 1 1.31 5.32c.43 2.98.74 5.98 1.07 8.97l.23.87c.21.88.4 1.76.68 2.61.56 1.7 1.68 3.15 2.08 4.92.13.58-.58.82-.9.38Zm4.79 32.34c-.24.3-.49.65-.82.84a1.4 1.4 0 0 1-.32.12l-.06.09-.18-.07c-.38 0-.73-.22-1.02-.48a13.93 13.93 0 0 1-5.42-5.57l9.44-9.26c.99 1.03 2.23 2.19 1.86 4.24-.11.59.21 1.25.27 1.88.11 1.28.25 2.53-1.16 3.39-.2.12-.34.32-.46.55a5.2 5.2 0 0 1-.25 1.8 4.23 4.23 0 0 1-1.11 1.63c-.28.26-.52.55-.76.85Zm33.32 98.5a10.09 10.09 0 0 1 1.87 5.81c-.07.17-.14.35-.24.51-.19.31-.46.53-.75.72-6.94.63-13.81 1.84-20.98 1.59-.97-.14-1.94-.3-2.89-.51-.53-.12-1.17-.19-1.62-.52-.33-.24-.57-.64-.8-1.02-.37-5.45.24-10.82-.28-16.07l.04-.1c.1-.26.19-.6.36-.81.1-.13.26-.16.51-.21.3-.06.66-.07 1-.08.72-.02 1.43.05 2.14.18l.24.04c.47.12.94.18 1.42.23 1.77.52 3.56 1.17 5.36 1.19 2.23.01 4.47-.08 6.71-.17.58.11 1.11.28 1.56.58 1.21.79 1.73 2.59 2.66 3.87 1.18 1.63 2.55 3.12 3.68 4.79Zm55.44-11.29c1.96.37 3.72 1.27 5.35 2.4 1.6 1.11 3.25 2.47 4.15 4.24a24.59 24.59 0 0 1 1.45 1.82l.04.13a2.3 2.3 0 0 1-.15 1.7 2.2 2.2 0 0 1-.43.49l-2.03.39c-5.1.9-10.19 1.99-15.33 2.6-4.23.5-8.5 1.08-12.93.61-1.04-2.52-1.86-4.97-1.37-7.74.1-.58-.09-1.22-.26-1.88.15-.57.45-1.07 1.02-1.31.96-.4 2.21-.39 3.24-.58 2.16-.4 4.31-.88 6.45-1.41 2.06-.51 4.05-1.07 6.18-1.25a45 45 0 0 1 4.64-.2Zm-14.67-68.46c1 4.06 2.34 7.99 3.63 11.94.33 1.36.64 2.72.93 4.09.79 3.73 1.45 7.49 2.37 11.19.17.68.38 1.34.6 2 .45 1.98.99 3.93 1.53 5.89.34 1.94.52 3.88.8 5.85.32 2.3 1.25 4.5 1.94 6.71 1.66 5.34 2.86 10.71 2.6 16.33l.01.27c-1.76-.01-3.57.43-5.29.63-1.6.19-3.21.41-4.79.72-.1-.01-.2-.03-.32-.01-1.53.25-3.03.6-4.51 1.06-1.53.48-3.01 1.01-4.61 1.22l-.13.01h-.23l-.06.03c-.64.06-1.29.09-1.93.08l-.32-.01-.06-.11c-.13-.34-.38-.68-.55-1-.5-.93-.83-2.03-1.52-2.83l-1.61-2.85c-.86-2.12-1.72-4.24-2.53-6.38-.57-1.5-.99-3.05-1.47-4.59-.74-1.42-.97-3.01-1.62-4.49-.39-.9-.71-1.64-1.09-2.46-.3-.65-.58-1.3-.71-2-1.33-4.08-3.25-7.97-5.05-11.85a38.65 38.65 0 0 0-3.14-5.39v-.02a9.92 9.92 0 0 1-.33-3.4c.02-.19-.02-.37-.08-.53l.26-.68c.06-1.32.38-2.66.89-4.03a15.3 15.3 0 0 0 1.04-3.94c.38-4.99 2.23-9.6 3.61-14.33.38-1.29.68-2.59 1-3.91l-.01-.29-.02-.13-.06-.26-.05-.15-.02-.05c-.07-.14-.15-.26-.23-.39l-.15-.17c-.93.05-1.24 1.15-1.73 1.71-1.56 3.17-1.73 6.88-3.42 10l-.87 3.29c-.33 1.24-.56 2.51-.9 3.74-1.44 5.32-2.98 10.61-4.33 15.95-.36 1.41-.67 2.84-.97 4.27-.11.22-.22.43-.31.66-.21.5-.28 1-.39 1.53-.24 1.24-.71 2.45-1.1 3.65a51.04 51.04 0 0 0-1.53 5.67c-1.71 3.47-2.56 7.22-3.5 10.94-.84 3.35-1.67 6.71-2.41 10.08-.47 2.13-2.27 2.5-3.87 3.04-.7.24-1.46.26-2.33.3-1.01.28-2.13.13-3.16.15-1.23.03-2.47.01-3.71-.02-.94-.03-1.88-.04-2.82-.11-2.38-.58-4.57-1.55-7.16-1.29-1.29-13.48-2.51-26.96-3.89-40.43-.65-6.31-1.9-12.57-2.27-18.91-.37-6.35-.29-12.69-1.06-19.01 1.1-.82 1.68-1.97 2.34-3.11 2.52-4.36 4.95-8.74 5.65-13.95 3.8.34 7.17.7 10.56.91l.36.02c.41-.04.83-.07 1.25-.09.34-.02.67-.05.99-.1.29-.08.57-.19.87-.33.34-.17.79-.17 1.25-.12 1.52-.39 3-.73 4.48-1.32a30.4 30.4 0 0 1 1.68-.61c.43.19.94.16 1.4-.05a12.87 12.87 0 0 1 6.24-1.09c2.29.16 4.41 1.18 6.69 1.46 2.42.3 4.91.18 7.34.08a91.78 91.78 0 0 0 14.2-1.78c.24.16.45.35.63.54-.26 4.5 1.33 9.03 2.39 13.36 1.57 6.39 3.13 12.79 4.71 19.18Zm46.58-84.64c-2.32 3.7-4.98 7.18-7.29 10.88-2.47 3.95-5.62 7.3-8.73 10.71-.92 1-1.77 2.07-2.67 3.09-.96 1.65-2.57 3.12-4.48 3.53-.99.21-1.99.15-2.93-.23a4.02 4.02 0 0 1-1.36-.91c-.28-.28-.52-.63-.85-.86-.43-.3-.95-.46-1.41-.71-.46-.24-.89-.54-1.32-.83-.86-.6-1.7-1.25-2.49-1.95-.79-.7-1.46-1.53-2.32-2.16-.56-.41-1.12-.81-1.63-1.27l-.69-.51c-.35-.26-.69-.54-1.03-.81-.4-.47-.82-.9-1.24-1.36-.25-.28-.46-.59-.72-.86a4.4 4.4 0 0 0-.61-.52c-.1-.11-.21-.21-.35-.3a15.83 15.83 0 0 1-6.54-8.24c-.59-1.75-.76-3.5-.92-5.33-.18-2.11-.56-4.02-1.89-5.71-.05-.07-.12-.12-.18-.18v-.06c-.64-.6-1.28-.33-1.99.13v.15c-.56.6-.47 1.36-.05 1.98a32.98 32.98 0 0 0-.04 3.72c.06.85.09 1.7.1 2.55l.16 1.91c.21 2.02.53 4.05.7 6.08.39.96.44 2.07.43 3.1 0 .42-.03.85-.05 1.27l.02.19c.02 4.6 1.12 9.36.52 13.95v15c-8.94 3.68-22.32 4.83-26.76 2.44l-.64-2.28c-.09-.32-.2-.65-.27-.98l-.05-.9c-.04-5.67.06-11.34-.16-17-.13-3.38-.86-6.73-1.25-10.11l-.24-2.06c-.1-1.62-.21-3.24-.36-4.86v-.34c.02-4.25-.53-8.43-1.23-12.6l-1.25-7.55a20.99 20.99 0 0 0-1.12-6.5l-.67-2.83c.25-.86.36-1.82 1.28-3.66 1.65-3.25 3.25-6.6 5.04-9.84 3.11-5.63 6.35-11.2 9.51-16.8 1.39.25 2.84.25 4.24.41 1.13.41 2.28.8 3.43 1.2l.23.09c.45.32.88.67 1.31.99l1.22.92.13.15c.13.41.28.8.54 1.08 3.06 3.14 5.07 7.05 7.7 10.51 4.05 5.32 8.41 10.45 11.61 16.4.86 1.61 2.16 2.99 3.32 4.42 2.24 2.74 4.6 5.38 6.75 8.19.65.85.83 2.09 1.1 3.18.58 2.37.66 4.75.33 7.11v.24c-.2 1.35-.15 2.75-.18 4.11v.11l.2.59c.05.11.11.22.18.32l.15.15.3.17.07.02c.07 0 .12-.02.19-.09.34.15.78.13 1.03-.17.51-.63.83-1.31 1.03-2.02l.03.02c.18.1.4.16.61.2.64-.32.48-.93.37-1.49-.42-2.23-.89-4.45-1.27-6.69-.14-.81-.21-1.63-.28-2.41-.07-.2-.14-.4-.17-.61-.13-.22-.2-.58-.11-.82.07-.19.16-.36.26-.53.06-.16.15-.32.26-.46.37-.48.92-.78 1.47-1.03.25-.12.51-.22.76-.35l.33-.17.15-.09.07-.05-.06.04s-.05.05 0 0a.72.72 0 0 1 .27-.15c1.2-.86 2.41-1.72 3.6-2.63 1.77-1.35 3.51-2.74 5.23-4.15a24.8 24.8 0 0 0 2.52-2.28c1.07-1.15 2.03-2.39 3.09-3.67 2.11.89 4.16 1.96 5.87 3.8 1.4 1.51 3.26 2.59 4.91 3.87.95.74 1.88 1.49 2.76 2.2-1.9 3.4-3.58 6.7-5.54 9.82Zm16.15-18.59c-.15.99-1 1.9-1.71 2.54-1.58 1.43-3.08 3.13-5.4 3-2.03-.11-4-1.15-5.8-2.03-1.92-.93-3.56-2.38-5.13-3.81-.81-.74-1.63-1.48-2.46-2.2a2.89 2.89 0 0 1-1.08-1.66c-.03-.15-.05-.3-.04-.45.02-.93.41-1.85.71-2.75.27-2.06.3-4.19.22-6.34a8.56 8.56 0 0 1-.02-1.24v-.13l.11-1.27c.16-1.45.7-2.63 1.7-3.71.92-1 2.13-1.76 2.97-2.83.85-1.09 1.55-2.28 3.05-2.54a3.6 3.6 0 0 1 1.99.18c.47.06.92.17 1.36.34.52.2 1.12.44 1.48.89.35.43.46 1.1 0 1.52-.71.63-1.63.88-2.53 1.12-.39.1-.77.21-1.16.34l-.05.01-.07.04-.3.14a5.11 5.11 0 0 0-2.35 2.38l-.08.17a12.1 12.1 0 0 0-.61 2.09c-.13.63-.24 1.28-.33 1.92-.27 1.89.32 3.24 1.76 4.25.16.05.34.1.52.13 1.09.21 2.13.56 3.08 1.13.86.51 1.52 1.25 2.34 1.81.65.44 1.4.47 1.95 1.09.65.73 1.04 1.58 2.04 1.89 1 .32 1.76.66 2.55 1.37.74.67 1.45 1.56 1.29 2.62Zm7.47-6.24c-.14.74-.53 1.4-1.12 1.88a9.57 9.57 0 0 1-3.3 1.57c-.27.16-.57.28-.91.34-.74.12-1.53-.06-1.93-.75-.46-.79.01-1.65.51-2.28.69-.86 1.54-1.58 2.26-2.41.23-.27.28-.33.48-.63l.22-.36.12-.24.08-.28-.02-.12-.03-.15c0-.04-.07-.21-.06-.21v-.02l-.03-.02-.19-.05h-.7a2.68 2.68 0 0 0-.33.09l-.08.03-.19.11a6.1 6.1 0 0 0-.32.22 8.85 8.85 0 0 0-1.12 1.18l-.2.28a11.63 11.63 0 0 1-1.1 1.33c-.77.8-1.81 1.49-2.74.6-.75-.72-.49-1.57.02-2.28a15.56 15.56 0 0 0 2.78-2.47c.14-.12.45-.67.46-.69.2-.29.23-.71.05-.99-.29-.45-.78-.54-1.24-.33-.53.23-1.1.43-1.59.74-.26.16-.5.36-.69.6l-.33.43-.11.14-.02.02-.03.04c-.08.09-.15.18-.24.26l-.17.15-.09.07-.08.06-.21.15-.34.25-1.33.98a1.61 1.61 0 0 1-1.72-.8.98.98 0 0 1-.37-.79c.01-.23.06-.46.14-.67.02-.12.04-.23.08-.34.24-.77.76-1.44 1.32-2.01.51-.51 1.08-.96 1.67-1.38l.41-.29.03-.02.02-.02.13-.11c.11-.09.2-.19.3-.29l.02-.02v-.02l.09-.14.01-.05v-.04c0-.03-.03-.09-.05-.13l-.06-.13-.12-.19h-.01l-.15-.15c.15.15.03.04-.03 0s-.08-.02-.11-.03h-.12l-.09.01-.25.05-.24.08h-.02l-.05.02-.32.15c-.25.13-.49.27-.72.42-.41.26-.81.54-1.21.81-.32.34-.65.67-.98.99-.62.61-1.38 1.35-2.26 1.54a1.4 1.4 0 0 1-1.71-1.03c-.2-.81.09-1.72.47-2.44.74-1.4 2.18-2.51 3.54-3.27a5.03 5.03 0 0 1 2.57-.79c.31.01.6.08.88.17.48.3 1.01.51 1.53.74l.46.19c1.61.95 3.12 1.82 4.54 2.81 1.1.77 2.07 1.78 2.96 2.8.9 1.03 1.65 2.19 2.44 3.31.22.31.37.61.5.9l.11.09c.22.22.28.46.31.76.08.69.04 1.41-.09 2.09Z"/>
    <path d="M339.13 25.96c-.3-.6-1.67-.63-2.53-.99-.59-.25-1.12-.63-1.69-.92-3.77-1.88-7.67-3.55-11.28-5.7-2.97-1.76-5.73-3.69-9.13-4.77-3.98-1.26-7.71-3.32-11.57-5-.54-.23-1.28-.58-1.72-.44a29.6 29.6 0 0 0-2.04-.59 4.7 4.7 0 0 0-2.92.1.73.73 0 0 0-.25.04c-2.55.76-5.11 1.51-7.6 2.46-2.23.84-4.34 2.03-6.68 2.58a.86.86 0 0 0-.45 0c-1.27.34-2.52.72-3.75 1.16l-.22.11c-2.22.63-4.05 2.06-6.29 2.66-2.78.75-5.5 1.71-8.23 2.67-.1 0-.19.03-.28.07l-.62.25c-1.16.41-2.32.81-3.49 1.18-2.47.8-5.07 1.22-7.47 2.18-4.56 1.82-8.96 4.07-13.77 5.26-1.79.44-3.49 1.3-5.3 1.66-1.76.35-2.34.52-2.44 2.29a8.9 8.9 0 0 1-1.17 3.88c-.65 1.2-1.14 2.49-1.69 3.75l-2.63 6.09-1.12 2.4c-1.71 3.66-3.72 7.36-4.78 11.3l-.63 1.47a2.13 2.13 0 0 0 0 1.57l.44.88.03.32c.23 1.61.97 3.03 1.66 4.48.81 1.68 1.61 3.37 2.39 5.07l2.12 4.63 2.13 6.84c.22.69.51 1.37.83 2.02 1.13 2.31 2.3 4.6 3.45 6.9-1.87 3.11-2.34 6.72-4.37 9.74-2.14 3.2-3.93 6.64-5.75 10.04-.9 1.69-1.58 3.5-2.27 5.29a1 1 0 0 0-.27.61v.32a5.25 5.25 0 0 0-.53 1.97 2.5 2.5 0 0 0 .52 1.6c.31.4.8.69 1.33.68.21 0 .39-.05.57-.11h.12a.7.7 0 0 0 .28-.16l.03-.01.21-.11c.33-.06.66-.14.91-.31 4.45-3 8.64-6.36 13-9.5 2.74-1.97 5.46-3.97 8.1-6.07 1.04-.74 2.08-1.49 3.19-2.09.56-.3 1.11-.43 1.65-.45.17.03.33.07.49.12.43.08.88.2 1.21.32a43.74 43.74 0 0 0 10.67 2.3l.92.16c3.42.51 6.86.81 10.28 1.32 3.13.46 6.24 1.01 9.35 1.62h.01c.57.11 1.15.21 1.72.33.19.04.37.04.54.01.85.18 1.7.36 2.54.57a4.3 4.3 0 0 0 2.54-.39c.7-.3 1.35-.7 2.01-1.1.18-.09.36-.17.53-.28l1.06-.63c2-1.03 4.07-1.93 6.03-3.03l.24-.1c.23-.09.41-.21.56-.36a20.6 20.6 0 0 0 2-1.35l1.52-1.13c1.98-1.26 3.87-2.66 5.78-4.06l2.97-2.19c2.53-1.72 5.08-3.42 7.61-5.15 2.54-1.74 4.93-3.73 7.61-5.23 2.68-1.5 4.27-3.52 4.77-6.5.25-1.52.38-3.08.84-4.54 2.11-6.76 2.67-13.82 4.17-20.7.86-3.93 1.55-7.9 2.38-11.84.86-4.12 1.79-8.22 2.7-12.33.41-1.87-.33-3.57-1.1-5.12Zm-3.25 9.97c-.18 1.99-.69 3.96-1.16 5.91-.17.69-.38 1.38-.6 2.06-.13 3.92-1.11 7.89-2.02 11.68-.48 1.99-1.08 3.95-1.59 5.93-.47 1.81-.8 3.64-1.15 5.48a76.04 76.04 0 0 1-2.61 10.84 24.9 24.9 0 0 1-2.22 5.04c-.11.18-.25.34-.38.51-1.2.92-2.46 1.78-3.66 2.67l-6 4.42-3.09 2.29a12.69 12.69 0 0 0-2.89 2.08l-.34.31a494.02 494.02 0 0 1-5.9 4.31 38.74 38.74 0 0 1-5.76 3.49c-2.14 1.04-4.35 1.95-6.37 3.22-1.53.97-2.84 1.79-4.47 2.1a25.8 25.8 0 0 1-2.3-.2 83.57 83.57 0 0 0-8.63-1.31 117.3 117.3 0 0 0-8.95-1.22 1.7 1.7 0 0 0-.46.03 36.1 36.1 0 0 0-1.75-.35c-1.36-.23-2.73-.4-4.09-.58l-2.83-.35c-2.57-.64-5.11-1.42-7.71-1.95a6.14 6.14 0 0 0-1.03-.12c-1.37-.43-2.36-.22-3.59.76-1.61.74-3.09 1.91-4.62 2.96-.12.08-.21.17-.3.27-3.03 2.08-5.7 4.67-8.68 6.82-1.37.99-2.84 1.86-4.25 2.79-1.13.74-2.22 1.54-3.37 2.24-.49.3-1.04.5-1.58.71l.06-.13c.12-.24.19-.5.19-.76l3.29-6.54c.03-.11.08-.23.16-.35l.08-.12.5-.99.11.02c1.19-1.94 2.22-3.98 3.45-5.89.73-1.14 1.42-2.33 2.17-3.47.28-.54.54-1.08.79-1.64.68-1.55 1.42-3.08 2.16-4.6.4-.82.49-1.66-.27-2.21a6.56 6.56 0 0 1-2.07-2.77l-.68-1.66-.12-.29c-.6-1.44-1.27-2.86-1.45-4.53-.18-1.63-1.03-3.21-1.72-4.75a560.9 560.9 0 0 0-5.39-11.69 14.74 14.74 0 0 0-1.96-3.23 9.37 9.37 0 0 1 .52-4.05c1.13-2.11 2.27-4.22 3.25-6.41 1.7-3.81 3.25-7.68 4.84-11.53l.88-1.89c.78-1.68 1.43-3.63 2.56-5.11 1.13-1.48 3.1-1.7 4.79-2.14 1.46-.38 2.89-.85 4.31-1.36.47-.13.94-.3 1.39-.49 2-.75 3.98-1.56 5.96-2.36l11.26-4.5c3.88-.92 7.43-2.77 11.17-4.07 3.35-1.16 6.65-2.46 9.98-3.65.76-.27 1.6-.27 2.39-.48 2.18-.56 4.34-1.16 6.51-1.75l4.5-1.22c.14 0 .27-.04.4-.1l.07-.03.37-.1.07-.06c.87-.27 1.85-.3 2.73-.37.8-.06 1.59-.05 2.37.02a19.9 19.9 0 0 1 7.06 2.66c1.6 1 3.64 1.25 5.38 2.06 3.21 1.49 6.39 3.06 9.49 4.76 3.82 2.1 7.53 4.38 11.31 6.54.92.53 1.5 1.12 1.48 2.27-.03 2.02.2 4.06.02 6.07ZM190.11 119.5a.85.85 0 0 0-.04-.22c0-.03-.02-.05-.03-.08v-.02a6.72 6.72 0 0 0-1.21-2.84c-.6-.75-1.41-.75-2.25-.75-.74.17-1.47.34-2.19.42-.51.13-1.05.21-1.58.28h-.61c-.92.01-1.82.04-2.72-.1-3.2-.74-6.37-.23-9.51.4-1.12.23-1.5 1.06-1.14 2.16.35 1.08.73 2.14 1.09 3.22h-.03l.69.69c.48.5 1.04.86 1.65 1.17.48.25.99.45 1.51.63 2.19.31 4.32 1.11 6.51 1.55 1 .2 2.2.29 3.11-.07.37-.14.73-.3 1.09-.46.84-.47 1.66-1 2.45-1.48 1.25-.75 2.47-1.65 2.97-2.92.04-.07.05-.15.08-.23.05-.1.1-.21.13-.31l.04-.19c.02-.14.05-.29.05-.43 0-.15-.02-.29-.04-.44Zm-12.25 2.83a16.63 16.63 0 0 0-3.97-1c-1.42-.22-2.31-.99-3.16-2.55 2.79.22 5.35.47 7.91.62 2.58.15 5.17.19 8.24.3-2.82 2.91-5.52 4.11-9.02 2.62ZM133.29 112.57c-1.87-1.09-2.82-1.68-3.16-2.31l-.17-.17c-.27-.34-.52-.7-.6-1.14-.05-.27-.07-.55.02-.82v-.02c.03-.34.17-.68.47-.98a1.98 1.98 0 0 1 1.65-.54c.3.05.82.4.97.38.13-.01.41-.39.55-.65-.06-.54-.53-.97-1.09-1.39a10.48 10.48 0 0 0-1.9-1.22c-.38 0-.77 0-1.15.03-.13.02-.25.06-.38.1-.09.05-.19.1-.27.16-.27.25-.51.53-.74.81a7.68 7.68 0 0 0-.92 3.11c-.02 1 .03 2.02.33 2.99.28.9.83 1.42 1.64 1.88.87.49 1.89 1.1 2.9 1.21.52.06.96-.12 1.41-.35.19-.27.35-.59.53-.88-.02-.07-.04-.15-.08-.21ZM184.85 101.58c-.52-1.75-.8-3.57-1.21-5.35-.37-1.64-2.41-3.25-3.29-2.86-.12.12-.21.25-.26.39-.17.5-.05 1.07.11 1.62l.09.23c.15.45.27.91.48 1.33.24.49.43 1 .65 1.5.18.41.42.78.57 1.2.09.25.16.52.2.79l.17.35c.59 1.35.62 3.26-1.26 3.38-.72.05-1.45-.07-2.17-.07-.59 0-1.17 0-1.75-.05l-.27.02c-.33.03-.9.7-.85.97.09.45.55 1.09.94 1.16 1.73.3 3.52.69 5.21-.02 2.74-1.15 3.32-2.28 2.64-4.58ZM167.28 75.29c.74.39.92 1.38.34 1.99l-.45.47-.64-.19c-2.56-.71-5.09-1.6-7.69-2.03-1.11-.18-2.4.41-3.55.86a30.18 30.18 0 0 0-4.26 2.02c-.94.55-1.7.53-2.5.07-.46-.26-.43-.94.03-1.2 3.1-1.75 6.01-3.5 9.31-4.44.33-.09.75.12 1.12.21 2.11.53 4.21 1.14 6.33 1.59.69.14 1.34.32 1.94.64ZM194.87 83.59l.22.25c.65.74.6 1.89-.16 2.52-.24.2-.53.38-.87.55-1.64.85-3.33.42-4.97.57-1.11.1-1.63-1.04-1.6-2.79.02-1.19.73-1.43 1.76-1.46 1.35-.03 2.69-.14 4.17-.24.55-.04 1.09.19 1.45.6ZM166.47 88.04l-.18.28c-1.07.23-2.09.54-3.14.67-1.44.18-2.9.28-4.36.33-1.09.04-1.69-.26-2.03-1.08-.27-.65.11-1.39.77-1.62 3.85-1.36 5.61-1.63 8.37-.44.72.31.98 1.2.57 1.87Z"/>
    <path d="M297.69 55.06c.17-3.43 1.09-6.78.79-10.29-.27-3.13.07-6.31-.06-9.45-.09-2.16-.74-2.57-2.82-2.09-.41.1-.82.19-1.22.24h-.03a.5.5 0 0 1-.21.09h-.06a9.45 9.45 0 0 1-3.39.49c-2.71.21-5.38.39-8.04.63-.15.01-.3.08-.45.16a2.2 2.2 0 0 0-.2.23l-.05.08-.1.16-.11.2-.02.04v.03c-.13.33-.15.51-.16.83-.01.39-.02.78-.11 1.17-.08.33-.15.66-.27.97-.04 3.51 1.34 6.84.91 10.35-.26 2.14-.32 4.3-.47 6.59-.73-.07-1.15-.01-1.5-.15-2.39-.96-4.75-1.99-7.15-2.94-.67-.27-1.4-.4-2.11-.53-1.01-.19-1.74.16-2.07 1.18l-1.33 4.14-.97 2.97c-.75-.6-1.33-.91-1.72-1.38a55.3 55.3 0 0 0-8.8-8.3c-.38-.29-1.11-.62-1.39-.45-.37.22-.51.9-.65 1.41-.08.3-.02.65.04.97a24.3 24.3 0 0 1-.48 10.64c-.44-.25-.88-.46-1.27-.73-1.75-1.25-3.5-2.5-5.23-3.77-.83-.61-1.7-1.2-2.45-1.9-1.58-1.47-1.81-1.7-3.2-.97-.58.44-.73.74-.89 1.49a7.7 7.7 0 0 0-.04 2.49c.05.29.1.57.12.83l.01.21c.24 1.68.57 3.36.85 5.04.34 2 .79 3.98 1.14 5.97.16.9.2 1.81.28 2.72l.08.86.3 1.65c.41 2.13 1.13 4.17.87 6.44-.22 1.89 1.12 2.99 3.01 2.93 3.06-.09 6.11-.14 9.17-.24 1.21-.04 2.42-.2 3.63-.25 1.37-.06 2.74-.06 4.12-.09 1.85-.03 3.71.07 5.54-.11 4.11-.41 8.2-1.04 12.31-1.44 3.74-.36 7.44-1.33 11.26-.65l.3-.01a5.07 5.07 0 0 0 4.48-4.56c.06-.66.08-1.31.14-1.94l-.07-.15c-.12-.22.15-.62.18-.94a97.1 97.1 0 0 0-.26-17.96c-.09-.95-.2-1.92-.16-2.87Zm-1.91 20.12-.3 3.13c-.15 1.78-.74 2.56-2.41 2.27-3.54-.63-6.88.57-10.31.82-4.68.34-9.32 1.2-14 1.41-7.11.33-14.25.31-21.9.44a163.32 163.32 0 0 1-4.29-23.22c2.1.19 3.56 1.09 9.91 6.53.09.05.17.11.25.18.13.12.26.25.4.36l.13.11.03.03c.25.18.51.35.78.51.26.15.54.28.81.41h.03l.24.07h.2c.06-.03.13-.04.19-.06.06-.02.26-.11.04 0l.19-.09.38-.22.19-.13c.55-.75.71-1.66.32-2.74-.79-2.25-.22-4.5-.13-6.74.03-.78.15-1.55.26-2.67.82.57 1.59.98 2.18 1.56a155.1 155.1 0 0 1 5.09 5.17c2.13 2.26 2.95 2.14 4.29-.74.48-1.03.9-2.08 1.29-3.15.38-1.06.68-2.14 1.08-3.45 2.7 1.1 5.3 2.15 7.89 3.22.22.09.42.25.64.36 2.52 1.32 3.56.91 4.4-1.89.55-1.83 1.33-3.71 1.32-5.56-.01-2.77-.63-5.53-.99-8.3-.06-.47-.15-.93-.17-1.4-.03-.85 0-1.71 0-2.95l5.11-.94c1.59-.29 3.19-.53 4.78-.84 1.75-.34 2.33-.02 2.3 1.74-.06 4.91.45 9.83-.37 14.74-.61 3.62-.45 7.26.19 10.88.66 3.71.3 7.43-.07 11.14ZM303.84 30.94l12.1-2.83.23-.08c3.31-.62 4.52-.45 3.86 3.07-.46 2.44-.2 5.02-.31 7.53-.11 2.43-.37 4.85-.39 7.28-.03 2.81.17 5.62.2 8.42.02 2.08-1.6 3.39-3.5 2.69a15.13 15.13 0 0 0-6.93-.71c-.96.1-1.94.02-3.18.02-.24-.9-.55-1.79-.7-2.7-.33-1.99-.58-4-.85-6-.05-.4-.1-.81-.12-1.21-.22-4.61-.44-9.23-.63-13.84-.02-.54.15-1.1.23-1.63Zm13.35 23.27.59-23.5c-4.23.31-7.84 1.76-11.58 2.82-.12 7 .48 13.69 1.89 20.42 1.62-.08 3.05-.23 4.47-.19 1.49.05 2.98.28 4.63.45ZM303.54 71.92c.2-.61.29-.91.4-1.21l2.77-7.68c.64-1.76 2.32-1.27 3.55-1.41 1.75-.19 3.55-.03 5.31.18.7.08 1.56.54 1.97 1.1.85 1.16 1.5 2.47 2.15 3.77a3.1 3.1 0 0 1-.29 3.44 230.96 230.96 0 0 1-6.32 7.65c-1.26 1.47-1.31 1.39-2.91.22-1.69-1.23-3.5-2.32-5.1-3.65-.73-.61-1.09-1.68-1.53-2.4Zm8.4 3.8c2.59-2.06 3.96-4.79 5.82-7.04-.63-1.12-1.09-1.97-1.59-2.79-.24-.4-.51-.93-.88-1.07a8.33 8.33 0 0 0-5.92-.08c-.33.12-.66.48-.83.81-.72 1.43-1.35 2.92-2.08 4.35-.5.97-.3 1.76.51 2.35 1.61 1.18 3.27 2.29 4.98 3.47ZM178.65 141.58c-.03-.52-.43-1.03-.99-1.01-.51.02-1.04.44-1.01.99.08 1.35.09 2.71.03 4.06-.02.52.47 1.03.99 1.01.56-.02.98-.44 1.01-.99.06-1.35.05-2.71-.03-4.06Z"/>
  </g>
</svg>
