<svg xmlns="http://www.w3.org/2000/svg" viewBox="0 0 393 393">
  <defs>
    <style>
      .c{fill:#fff}.d{fill:#9fc077}.e{fill:#8c705d}.f{fill:#6daf8d}
    </style>
  </defs>
  <g id="b">
    <path class="c" d="M166.66 228.91a14.3 14.3 0 0 0-2.6-4.68l-3.49-8.95-3.3-8.46c-.85-2.17-1.64-4.39-2.68-6.49a2.95 2.95 0 0 0-1.9-2.89c-.91-.4-1.8-.48-2.63-.18l-.9-.44a7.43 7.43 0 0 1-2.24-1.51c-.76-.83-1.11-1.86-.43-2.77.82-1.11 1.41-2.03 1.34-3.45-.07-1.23-.68-2.43-1.1-3.57l-2.56-6.93c-.48-1.31-1.59-2.29-2.94-2.34-.58-1.45-1.18-2.9-2.26-4.06-1.6-1.72-3.73-1.9-5.92-1.53-1.92.32-3.82.78-5.69 1.3-1.87.51-3.99 1-5.13 2.73-1.19 1.81-.85 4-.78 6.06l.22 6.34c0 .08.02.14.03.22-.86 1.19-1.97 1.44-3.42 1.79-2.21.53-3.41 1.98-4.61 3.78-1.83 2.76-5.04 4.33-8.06 5.42-3.81 1.38-8.18 2.98-12.29 2.59-2.75-.26-6.03-2.09-6.02-5.17 0-.74-.28-1.43-.74-1.98-.44-1.98-2.81-2.97-4.63-2-2.06 1.1-4.49 2.03-6.29 3.55-2.06 1.75-2.05 4.13-.87 6.4 2.2 4.23 4.8 8.29 7.18 12.41a887.27 887.27 0 0 1 13.86 24.84c4.4 8.24 8.51 16.63 12.76 24.95 1.86 3.63 4.52 9.57 9.41 9a42.35 42.35 0 0 0 13.2-3.72c4.61-2.21 8.94-5.14 13.33-7.76l10.77-6.42c.15-.02.29-.04.45-.09 5.97-1.83 14.1-4.6 14.2-12.05a31.64 31.64 0 0 0-3.27-13.96Z"/>
    <path class="e" d="M233.14 59.46c-.32-7.62-1.71-11.65-8.58-15.28-2.76-1.46-5.31-4.02-8.39-4.68-3.57-.77-8.35.51-11.82 1.33-3.09.73-7.56 1.55-9.79 4.1-.91 1.04-1.15 2.3-1.78 3.48a15.51 15.51 0 0 1-5.49 5.75c-6.14 4.02-14.92 4.1-18.58 11.31-1.68 3.31-1.9 7.25-2.91 10.79-1.48 5.22-3.86 9.83-6.29 14.65-4.36 8.66-1.29 14.12 2.61 22.24a47.26 47.26 0 0 0 5.91 9.5c4.02 5.11-1.62 13.2-3.91 18.58-1.21 2.86 1.1 5.44 3.39 5.7l.08.04c.18.91.75 1.76 1.82 2.35 4.42 2.41 7.88 6.39 11.78 9.55 3.83 3.1 7.83 5.96 11.97 8.64 2.26 1.46 4.65-.21 5.51-2.3 3.1-7.56 9.15-13.38 12.44-20.78 1.49-3.35 1.61-6.22 1.22-9.85l-.84-6.56c.79.64 1.83.99 3.08.78 8.01-1.35 11.56-8.36 14.38-15.24 3.34-8.15 6.09-16.65 6.62-25.5.57-9.51-2.03-19.08-2.43-28.59ZM120.68 179.25c.68-3.84-3.38-6.05-6.33-3.62 1.25-1.03 1.58-.5.56-1.39-.8-.7-2.7-.68-3.75-.72-2.15-.08-4.43.31-6.48.9a86.17 86.17 0 0 0-15.79 6.47c-8.05 4.26-2.76 15.17 3.44 18.66 2.15 1.21 4.17.11 5.09-1.58 5.68 1.58 11.72-3.05 16.03-6.22 2.11-1.55 5.72-3.15 6.64-5.84.31-.91.09-1.57.15-2.49.07-1.23.17-2.56.45-4.16ZM187.88 198.38c-.22-3.36-2.35-5.54-5.03-7.34a16.58 16.58 0 0 0-7.02-2.82 2.55 2.55 0 0 0-2.81-1.23c-.47.11-.89.29-1.29.51-.16.01-.32.04-.48.09-.44.14-.88.26-1.33.35-.27 0-.55 0-.83.02-.9.04-1.73.34-2.39.96-.19.18-.34.37-.47.58-1.31.44-2.66.97-4.07 1.53l-.74.34a4.55 4.55 0 0 0-2.14.03l-.56.13-.06.01h-.07c-.46 0-.92.02-1.38-.01l-.59-.05-.55-.07a6.55 6.55 0 0 1-.4-.06l-.62-.09-1.34-.19-2.78-.4c-.69-.1-1.28-.11-1.91.25-.53.31-1.03.91-1.17 1.53-.27 1.2.39 2.88 1.78 3.08l5.43.79 1.52.2c-.69 2.84.47 6.24 2.26 9.81 4.47 8.9 13.8 5.94 21.86 7.73 2.49.55 4.57-1.14 4.75-3.62l.06-.83a3.15 3.15 0 0 0-.47-1.92c1.31-3 3.02-6.17 2.82-9.3Z"/>
    <path d="m249.71 55.19-2.36-6.34a5.8 5.8 0 0 0-5.08-3.86l-.18-.23c-3.25-4.31-1.34-7.93-2.07-12.7-1.09-7.15-5.65-8.52-10.97-9.39-2.84-1.46-5.56-1.65-8.83-1.01-.41.08-.79.22-1.14.38-5.01-1.62-9.94-5.29-14.01-7.58-4.57-2.58-10.43-7.58-16.02-6.82-5.34.72-11.01 5.97-14.52 9.79-2.29 2.49-3.95 5.63-6.32 8.02-1.83 1.85-3.87 1.85-6.2 1.68a13.6 13.6 0 0 0-2.83-.17 6 6 0 0 0-2.07.46l-7.46.28a5.38 5.38 0 0 0-4.42 2.38c-.62.24-1.23.6-1.8 1.11-8.66 7.62-19.25 15.8-24.55 26.37-2.39 4.77-2.88 9.33-2.05 14.43a127.19 127.19 0 0 1 1.84 20.69c-2.43 4.46-4.56 9.29-3.7 13.29.79 3.67 4.08 7.54 5.99 10.7l7.12 11.75a5.52 5.52 0 0 0 1.9 1.94l-.44 1.24a54.44 54.44 0 0 0-2.35 9.76c-.45 2.98-.22 6.81-2.6 8.95-4.79 4.33 1.41 12.02 6.86 8.87a16.48 16.48 0 0 0 7.04-7.45c.32-.67.49-1.34.55-2.01 1.67-.34 3.26-1.3 4.66-2.49 3.4-2.87 7.1-4.94 11.58-5.4 1.34 1.24 2.88 2.04 5.21 1.56 4.32-.9 4.96-5.02 6.17-8.62 1.48-4.39 2.67-7.43.42-11.71-2.58-4.89-5.8-9.44-8.3-14.42-1.73-3.44-6.09-9.49-4.92-13.42.71-.08 1.4-.33 2.02-.8 3.74-2.85 6.87-6.19 8.99-10.44.58-1.16.76-2.5.58-3.76 2.59-5.73 3.7-12.41 4.06-18.84 3.95-2.41 8.44-3.52 12.73-5.19 2.47-.96 4.86-2.02 6.89-3.75 1.82-1.55 2.9-3.64 3.95-5.74.96-1.92 1.86-3.36 3.92-4.22 2.3-.96 4.83-1.57 7.24-2.19a97.43 97.43 0 0 1 8.11-1.73c2.49-.42 4.24.16 6.42 1.33a45.2 45.2 0 0 1 12.74 10.27c.39.45.91.7 1.47.82l.14.18a2.5 2.5 0 0 0-.37 1.48c.11 1.71.25 3.43.52 5.12.09.57.34 1.65.39 1.93-.02-.14.04.69.04.85l.02 1.03c.03 1.44.04 2.88.01 4.31a20.86 20.86 0 0 0-.4 5.26 3.17 3.17 0 0 0 2.73 3.11c1.4.19 3.23-.72 3.45-2.28l.09-.8h.02v-.14c.16-1.35.28-2.71.34-4.06l.04-.13.19-.38.04-.05.13-.15.06-.04c.41-.28.85-.51 1.27-.75l3.18-1.79a3.02 3.02 0 0 0 1.45-1.99c2.58-.96 4.54-3.43 3.4-6.52Z" style="fill:#474949"/>
    <path class="d" d="M221.95 233.38c-.14 0-.26.03-.39.04a4.58 4.58 0 0 0-1.91.36c-3.84 1.6-7.39 2.15-11.42.93-2.62-.79-5.5 1.91-4.63 4.59.46.68.35 1.26-.33 1.73a3.6 3.6 0 0 0-.99 2.9c-.2.09-.36.16-.44.18-3.81 1.23-3.55 7.9.93 7.42 2.46-.26 4.99-.39 7.41-.89 2.3-.47 4.46-1.49 6.74-2.06a8.2 8.2 0 0 0 1.71-.63c.2.03.39.06.61.06 2.83 0 4.01-2.54 3.56-4.68.51-1.03.97-2.13 1.47-3.26 2.28-1.96 1.53-6.71-2.33-6.71ZM183.2 245.59l-.4-.13c-.02-.1-.03-.21-.07-.31a9.97 9.97 0 0 0-1.66-2.81l-.58-.72-.11-.16a9.05 9.05 0 0 1-.26-.4l-.13-.25-.05-.19v-.35l.03-.09.19-.61.15-.32c.22-.43.46-.85.71-1.26.98-1.63-.32-3.75-2.17-3.76l-3.29-.02c-1.36 0-2.86-.07-3.9.98-1.14 1.16-.97 2.61-.69 4.07.2 1.01.46 2.01.79 2.99.77 2.31 1.66 4.52 3.85 5.8 1 .58 2.13 1 3.21 1.41 1.01.38 2.03.71 3.07 1 1.27.35 2.79-.46 3.08-1.78a2.55 2.55 0 0 0-1.78-3.08Z"/>
    <path class="e" d="M263.74 374.4c-.51-.95-1.48-1.48-2.34-2.07-1.12-.77-1.39-2.54-2.48-3.34-2.01-1.47-4.82-2.01-6.75-3.58a157.67 157.67 0 0 1-5.73-4.91c-1.65-1.49-3.28-3.56-5.47-4.25-2.16-.68-4.95.11-7.07.65a34.14 34.14 0 0 0-6.25 2.28c-1.66-.37-3.69.89-3.08 2.99a47.18 47.18 0 0 1 1.67 11.2c.08 1.77.4 3.6 1.78 4.85 1.29 1.18 3 1.5 4.68 1.63 6.54.51 13.12.73 19.69 1.01.42.49 1.01.83 1.76.85 2.15.08 5.6.89 7.37-.66.89-.78 1.33-1.91 1.82-2.96.56-1.21 1.09-2.38.4-3.69ZM203.87 377.3a20.44 20.44 0 0 0-2.57-7.77c-1.35-2.3-3.65-3.24-6.18-3.56-5.59-.71-11.47-.98-17.1-.87-1.6.03-3 .37-4.06 1.64-.9 1.09-1.53 2.48-2.2 3.73a29.03 29.03 0 0 0-3.16 8.43c-.24 1.34.39 2.71 1.78 3.08.71.19 1.54 0 2.17-.43.35.17.74.27 1.1.28 5.97.11 11.95.21 17.92.33 1.25.03 2.51.04 3.75.22 1.53.22 3.03.57 4.58.33 2.84-.42 4.25-2.65 3.96-5.41Z"/>
    <path class="f" d="M259.32 198.48c-.9-8.62-2.58-17.14-5.14-25.43a137.6 137.6 0 0 0-7.2-18.34c-.88-1.82-1.74-3.73-3.21-5.17-1.75-1.72-4.11-2.33-6.43-2.86l-7.89-1.8-7.28-1.66c-2.79-.64-5.32-2.2-7.68-.21-1.7 1.43-2.78 4.74-3.95 6.59a126.2 126.2 0 0 1-13.01 17.04c-5.12-.2-9.64-2.89-13.65-5.92-4.68-3.54-9.15-7.3-14.03-10.57-4.64-3.1-10.29-6.94-16.15-6.43-5.49.48-10.72 4.49-14.22 8.53-.28.32-.5.69-.64 1.07-2.68 2.4-5.36 4.79-7.99 7.24-1.46 1.36-2.66 2.93-4.06 4.34a2.9 2.9 0 0 1-.83.58c-.4.23-.81.44-1.22.64l-3.19 1.58c-1.48.73-2.02 2.93-1.15 4.29a3.22 3.22 0 0 0 4.29 1.15c2.08-1.03 4.26-1.93 6.08-3.41a13.8 13.8 0 0 0 1.55-1.51c.56.16 1.11.16 1.74.07-.97.13-.05.02.15.01h.58c.45 0 .9.04 1.34.08.16.09.57.08.74.12l1.25.23 1.15.22c3.3 6.1 6.49 12.29 9.93 18.32.79 1.39 1.86 2.63 3.47 3.05 1.64.43 3.47.13 5.11-.09 3.2-.43 6.06-1.63 8.97-2.99 2.28-1.06 4.87-2.38 7.45-1.81 2.9.64 5.54 2.76 8.02 4.28l4.14 2.53c.87.53 2.35 1.04 2.7 2.06.35 1.04.03 2.64-.18 3.7a33.72 33.72 0 0 1-1.15 4.19c-1.02 3.09-2.24 6.13-2.74 9.36-.13.85-.25 1.7-.28 2.56-.02.34-.01.68-.01 1.02v.08h-.8a15.3 15.3 0 0 1-1.36-.16 3.5 3.5 0 0 0-3.43-.11 60.73 60.73 0 0 1-5.82-.93c-3.33-.71-6.56-2-9.95-2.37-2.94-.32-3.88 3.55-2.22 5.38 2.57 2.85 3.72 6.68 5.63 9.95 2.03 3.47 4.94 6.6 8.96 7.61a9.77 9.77 0 0 0 10.37-3.52c.81-1.02 1.74-2.82 3.04-3.28 1.39-.49 3.09.22 4.29.88 1.69.93 3.21 2.13 4.86 3.11a19.7 19.7 0 0 0 5.97 2.34c4.12.88 8.38.71 12.54.38 3.66-.29 7.56-1.06 9.77-4.31 1.04-1.53 1.36-3.31 1.56-5.11.11-.98-.01-3.02.83-3.6.99-.68 3.01-.43 4.12-.48 2.03-.09 4.06-.14 6.09-.24 3.96-.21 8.04-.58 11.81-1.89 3.9-1.35 8.48-3.5 8.94-8.11.4-3.98-.2-8.3-.61-12.27ZM251.76 338.07c-2.26-9.17-7.11-18.17-10.6-26.94-7.67-19.27-14.76-38.78-18.84-59.17-.45-2.25-3.2-3.84-5.37-3.15-7.71 2.44-15.49 1.17-23.09 3.39-3.7 1.08-5.35-.84-9.01-1.45-4.06-.67-8.44-.5-12.53-.72a3.8 3.8 0 0 0-3.45 1.49 37.03 37.03 0 0 0-16.12 7.2c-9.1 7.15-9.86 18.19-9.43 28.96a4.22 4.22 0 0 0 2.09 3.6c3.34 11.71 5.48 23.67 7.47 35.68 1.03 6.2 2.03 12.41 3.2 18.58.92 4.83 1.15 12.04 4.48 15.94 2.6 3.06 6.83 3.02 10.52 3.39 5.86.58 11.73 1.28 17.62 1.6 10.35.56 18.9-1.23 27.99-6.34 7.91-.02 18.92-2.93 25.75-5.85 7.41-3.16 11.37-7.85 9.31-16.21Z"/>
    <path d="M203.87 236.49a12.97 12.97 0 0 0-3.71-3.85c-.8-.57-1.9-1.01-2.82-1.57-1.16-3.53-6.02-3.51-7.94-.61-.23.35-.4.7-.52 1.06-2.58 1.76-4.4 4.26-6.14 6.89-1.4 2.12-.62 4.16.93 5.35-.02.42.02.83.14 1.2.71 2.24 1.99 2.96 3.79 4.24 1.6 1.13 2.62 2.2 4.71 2.21 4.35.03 5.58-3.9 8.14-6.53 1.17-1.2 2.67-1.77 3.49-3.31a4.97 4.97 0 0 0-.08-5.08Z" style="fill:#2e5e60"/>
    <path class="c" d="M212.08 104.99c-.05.03-.38.2-.52.29l-.08.02-.5.09c-.54.06-1.09.07-1.64.04-.64-.03-.64-.03-1.34-.19-.61-.14-1.2-.34-1.77-.57-.82-.33-1.79.04-2.43.68a3.59 3.59 0 0 1-.35-.08l-.83-.22c-1.45-.34-2.88-.11-4.34-.29-1.31-.17-2.57 1.26-2.53 2.5.06 1.5 1.1 2.35 2.5 2.53.75.1 1.48.05 2.23.05.56 0 .78.06 1.42.22 1.51.39 3.09.43 4.63.55 2.12.16 4.31.21 6.31-.46a4.25 4.25 0 0 0 2.67-1.74c1.37-2.1-1.37-4.71-3.44-3.42Z"/>
    <path d="M262.79 369.62c-.48-.38-1.08-.61-1.58-.96-1.71-1.18-3.44-2.34-5.1-3.59-1.7-1.29-3.33-2.68-4.99-4.02l-6.76-5.42a48.44 48.44 0 0 0 6.75-3.86 5.42 5.42 0 0 0 1.58-1.51l.08-.14c1.1-1.32 1.46-3.35 1.59-4.97.23-3.06.09-6.36-1.01-9.24-1.32-3.45-3.02-6.76-4.49-10.15-1.09-2.51-2.61-4.8-3.48-7.38-.77-1.55-1.53-3.1-2.24-4.67-1.16-2.56-1.9-5.32-2.79-8-1.71-5.16-3.37-10.34-5.09-15.5-.9-2.71-1.94-5.38-2.79-8.1-1.04-3.38-1.97-6.79-2.91-10.2-.54-1.98-1.05-3.97-1.56-5.97-.36-.8-.6-1.66-.81-2.52-.42-1.78-1.03-3.5-1.49-5.27-.51-1.94-.62-3.94-.97-5.91-.23-1.27-.55-2.67-.2-3.93-.02-.36.04-.75.13-1.16.61-2.93.98-5.93 1.76-8.82a46.13 46.13 0 0 1 4.26-10.9c.31-.53.38-1.12.28-1.65l.83-2.42c.05-.15.05-.34.02-.53 6.6.23 13.5-.16 19.91-1.83l.72-.2c3.09-.58 6.76-1.64 8.25-4.29a6.74 6.74 0 0 0 1.87-4.83c-.3-1.7 0-3.41-.2-5.11-.51-4.22-.3-8.53-.97-12.71-.81-5.01-2.13-9.95-3.44-14.87-.88-3.3-2.1-6.5-3.2-9.74-1.58-4.66-3.06-9.37-4.83-13.96-.85-2.21-2.17-4.25-3.44-6.27-.4-.64-1.19-1.44-1.82-1.59-.2-.14-.41-.28-.64-.39l-.38-.16c-.55-.39-1.12-.75-1.75-1.07-3.78-1.91-8.06-2.67-12.15-3.64l-6.73-1.6-3.87-1.13a4.77 4.77 0 0 0-.69-.15c-1.24-.37-2.48-.73-3.71-1.11l-.19-.06a4.14 4.14 0 0 1-.12-.38l-.08-.33a.78.78 0 0 1-.02-.14l-.04-.73v-1.45c0-.73.05-1.49 0-2.22-.05-.7-.19-1.34-.08-2.04.07-.46.58-.72.99-.75 1.01-.08 2 .04 3.01.09.93-.2 1.87-.38 2.77-.63.72-.33 1.42-.7 2.09-1.07.9-.5 1.71-1.1 2.35-1.91.81-1.02 1.29-2.25 1.94-3.37.35-.61.77-1.18 1.09-1.8l.31-.6.35-.82.1-.37.07-.02c1.55-3.65 2.83-7.41 4.23-11.13.96-3.42 1.86-6.85 2.8-10.27.3-1.11.85-2.17.98-3.3.48-4.06 1.42-8.13.29-12.21-.15-.54 0-4.63.64-6.14.76-1.81 1-3.78 1.72-5.61 1.09-2.74 3.11-4.46 5.61-5.87 2.09-1.19 4.66-2.23 5.93-4.4.67-1.14.87-2.41.85-3.72-.13-.35-.27-.69-.37-1.04-.24-.81-.37-1.65-.58-2.46a16.54 16.54 0 0 0-3.51-6.65c-1.96-2.28-4.09-4.4-6.11-6.64-.33-.36-.7-1.12-.54-1.4.83-1.46.8-3.1 1.22-4.63.27-.97.52-1.92.64-2.88a.59.59 0 0 0-.02-.13l-.11-.61c-.14-.71-.35-1.38-.6-2.06l-.08-.17-.25-.48c-.18-.33-.39-.65-.6-.96l-.25-.34-.21-.25c-.3-.36-.61-.7-.93-1.04-.11-.11-.2-.23-.28-.36h-.06c-1.08-.91-2.27-2.02-3.57-2.98-.52-.39-1.27-.52-1.93-.65-2.89-.56-5.77-1.13-8.68-1.58-2.2-.34-4.43-.74-6.64-.66a9.38 9.38 0 0 1-3.08-.33c-1.97-.55-3.31-1.94-4.92-2.98-1.17-.75-2.28-1.56-3.46-2.28a7.53 7.53 0 0 0-1.07-.87c-1.21-.77-2.66-1.13-4-1.6-.45-.16-.87-.34-1.29-.52-.1-.1-.21-.17-.29-.28-1.51-.96-2.68-2.38-4.15-3.4-1.53-1.07-3.22-1.92-5.12-1.96-.36 0-.7.02-1.05.05-.64-.03-1.3.05-1.98.28-1.12.39-2.07 1.09-3.03 1.76l-.32.21c-1.2.78-2.49 1.32-3.81 1.89a16.95 16.95 0 0 0-6.17 4.63c-.26.31-.51.64-.76.97a17.67 17.67 0 0 0-3.11 4.31c-.53.96-.97 1.93-1.44 2.92a4.23 4.23 0 0 1-2.32 2.27 3.3 3.3 0 0 1-.89.13c-.44-.08-.88-.19-1.32-.28-1.17-.24-2.34-.5-3.52-.73a21.56 21.56 0 0 0-6.66-.21c-2.26.26-4.61.67-6.74 1.52-.41 0-.85.06-1.14.26-.25.17-.5.29-.75.4l-.05.05c-1.49 1.15-3.19 1.97-4.73 3.05a16.2 16.2 0 0 0-3.56 3.69c-1.35 1.79-2.79 3.51-4.23 5.24l.38-.14a24.62 24.62 0 0 0-2.96 2.73 233.14 233.14 0 0 0-10.07 11.45l-.77.61c-.06.23-.17.45-.35.66-.63.76-1.39 1.54-2.16 2.35-.4.69-.8 1.38-1.23 2.05-.44.61-.86 1.23-1.24 1.86-.43.63-.83 1.26-1.15 1.94l-.03.15-.02.32a10.81 10.81 0 0 0-.74 5.66c.34 2.43 1.34 4.66 2.17 6.94.28 1.78.66 3.5 1.23 5.22.2 2.51.39 4.97.74 7.47l.05.45a18.46 18.46 0 0 1-.4 3.05 29.8 29.8 0 0 1-1.83 5.34c-.76 1.77-1.57 3.53-2.33 5.3-.41.96-.79 1.93-1.01 2.92-.19.44-.34.89-.43 1.34-.44 1.26.21 2.85.72 4.01a34.3 34.3 0 0 0 3.5 6c.56.78 1.19 1.49 1.83 2.19 1.43 1.97 2.92 3.89 4.2 5.96 1.57 2.55 2.86 5.28 4.25 7.94.21.4.46.89.41 1.3-.38 3.36-.21 6.77-1.62 10.03-1.24 2.87-1.95 5.97-2.89 8.98-.3.95-.42 1.99-.89 2.84-.58 1.07-.34 2.05.21 2.85a19.98 19.98 0 0 0 2.89 3.28c1.44 1.34 1.46 1.68.07 3.13-2.53 2.64-5 5.35-7.57 8.12-.71-.05-1.65-.04-2.55-.19-2.81-.46-5.62-.99-8.43-1.44-.44-.07-.95.01-1.36.19-1.41.6-2.85 1.18-4.17 1.94-4.81 2.75-9.59 5.57-14.38 8.35-2.19 1.27-3.15 3.16-2.76 5.65.18 1.13.55 2.24.85 3.38a69.83 69.83 0 0 0-6.35 2.74c-.63.31-1.25.66-1.87.99-1.99.47-3.49 1.59-5.1 2.63-1.44.92-1.66 2.04-.57 3.22.45.48.83.99 1.18 1.51.38.85.86 1.66 1.36 2.47 1.25 2.04 2.5 4.08 3.77 6.11 2 3.19 4.06 6.33 6.21 9.41.93 1.64 1.64 3.45 2.53 5.11.98 1.85 2.03 3.66 3.12 5.45 1.63 2.69 3.31 5.34 5 7.99a330.33 330.33 0 0 0 9.41 18.48 70.9 70.9 0 0 0 2.2 3.66l3.75 7.53c.58 1.16 1.04 2.38 1.69 3.5 1.38 2.36 1.84 5.43 4.8 6.46 1.19-.4 11.23-3.58 14.71-5.05.79-.33 1.56-.68 2.34-1.03 1.49-.51 2.97-1.02 4.44-1.6 2.11-.82 4.16-1.81 6.54-2.85l-.15.72a18.82 18.82 0 0 0-1.05 4.85c-.13 1.3-.29 2.55-.66 3.8-.29.99-.63 1.96-.82 2.97a14.9 14.9 0 0 0-.21 3.45 7.53 7.53 0 0 0 .22 3.65c1.18 3.27 2.43 6.52 3.47 9.83 1.09 3.44 1.98 6.95 2.96 10.43a46.49 46.49 0 0 1 1.76 10c.09 1.53.33 3.07.69 4.56.66 2.65 1.58 5.24 2.18 7.91a405.86 405.86 0 0 1 3.15 15.44c.64 3.5 1 7.06 1.51 10.58.31 2.16.31 4.42 1.14 6.43.21.97.47 1.97 1.1 2.72.18.22.41.4.67.51.37.17.75.2 1.15.25h.08l.22.07c.53.12 1.07.21 1.61.31l1.94.38a33.2 33.2 0 0 0 1.27.24c2.05.08 4.08.19 5.98 1.09a41.5 41.5 0 0 1-5.45 12.66l-.02.09-.02.41.02.41v.07c.06.27.11.53.19.8l.13.38.03.07c.15.14.24.51.32.69.12.26.25.51.39.76l.04.06c1.13 1.17 2.77 1.13 4.2 1.13 3.53.02 7.06-.25 10.58-.56 4.04-.36 8.05-.1 11.95.86 2.24.55 4.41.73 6.66.58 1.89-.13 3.93-1.72 4.25-3.61.66-3.86 1.24-7.76-.61-11.49-.12-.14-.23-.3-.31-.48-.26-.6-.17-1.51.37-1.96 1.99-1.64 4.43-1.85 6.81-2.55.61-.18 1.21-.36 1.82-.52.62-.16 1.05-.3 1.53-.57.56-.32.77-.53 1.29-.97.24-.21.49-.42.75-.61.31-.35.64-.58.98-.75 1.74.62 3.49.29 5.2-.2.36 1.97.83 3.63.88 5.3.1 2.91.8 5.8.72 8.73l.04.41a6.44 6.44 0 0 0 .18 3.19c.6 1.63 2.17 2.57 3.77 3.02 1.92.54 3.95.54 5.92.57l5.31.08c1.34.25 2.68.48 4.03.63 4.64.54 9.27 1.13 13.93 1.44 1.88.12 3.94-.35 5.27-1.86a14.9 14.9 0 0 0 2.43-4.18c1.63-4 1.04-6.15-2.19-8.67Zm-42-122.63c-2.16.27-4.22.28-6.13.82-2.09.59-4.16 1.2-6.28 1.63-.58.05-1.16.09-1.75.11-1.9.06-3.8.03-5.7-.02-.45-.2-.9-.46-1.33-.81 1.36-1.73 2.83-3.35 4-5.17.29-.46.59-.86.92-1.2.25-.42.52-.83.8-1.24.29-.34.59-.69.8-1.08l.4-.53c-.05-.22-.12-.43-.19-.64a3.9 3.9 0 0 0-.76-1.65l.26-.04c3.17-.24 6.35-.21 9.51-.69.1 0 .2 0 .3-.02 3.04-.23 5.96-.8 8.87-1.58L220.8 247Zm-39.45-1.33 2.92 2.9c-.53.02-3.99-.03-4.54-.03h-.05a5.79 5.79 0 0 1-4.79-2.05 6.49 6.49 0 0 1-.46-.45c-1.31-1.51-2.13-8.32-2.39-10.23 1.55.29 3.18.11 4.74.33 1.11.16 2.19.35 3.28.45-3.05 4.08-1.65 6.17 1.27 9.06Zm2.23-2.97-.09-.05c-.53-1.74.02-2.76.75-3.69 1.98-2.51 3.97-5.01 5.97-7.49.33-.41.72-.82 1.16-1.1.9-.56 1.41-.62 1.78-.07.92.2 1.66.94 2.26 1.67 1.76 2.12 3.72 4 5.79 5.81.34.29.7.56 1.03.86.4.35.43.78.28 1.19.1.43.07.89-.2 1.25a58 58 0 0 1-2.47 3.15c-.77.89-1.64 1.67-2.49 2.49a20.1 20.1 0 0 0-1.43 1.54c-.17.22-.33.44-.51.65a5.04 5.04 0 0 1-2.38 1.82c-1.18.37-2.45 0-3.32-.85-.31-.3-.55-.66-.84-.97-.38-.39-.79-.75-1.16-1.14-.67-.7-1.27-1.46-1.96-2.15a11.4 11.4 0 0 1-.74-.82 5 5 0 0 1-1.42-2.08Zm44.48-19.94-.06.93-.02.08c-.15.31-.3.6-.34.95v.07c-.04.11-.09.2-.12.33-.49 2.09-1.16 4.14-1.75 6.08-.52.33-1.1.56-1.71.73-.75.1-1.45.2-2.1.43l-1.09.16c-2.15.33-4.28.46-6.44.48l-12.46.1c-.4-.41-.79-.82-1.21-1.21a39.8 39.8 0 0 0-3.75-3.1c-.86-.63-1.77-1.3-2.72-1.87a4.76 4.76 0 0 0-.76-.5c-1-.51-2-.85-3.06-.27-.48.26-.89.66-1.28 1.08-.5.42-.94.94-1.37 1.42a39.23 39.23 0 0 1-4.33 4.22c-.64.53-2.41.01-2.65-.02-2.28-.34-4.56-.89-6.84-.91-2.8-.02-4.25-1.07-5.22-3.77-1.36-3.76-3.34-7.29-5.02-10.93-.62-1.34-1.14-2.73-1.89-4.56 3.84.69 7.2 1.21 10.53 1.93 1.19.26 2.38.39 3.58.46l1.57.21c1.23.17 2.46.4 3.7.47.47.03.94-.01 1.4-.09l-.13 2.14a21.3 21.3 0 0 0 12.14 5.02c4.24.4 8.52.33 12.79.38 2.54.03 5.09-.13 7.63-.18 3.03-.06 6.05-.05 9.08-.17 1.33-.05 2.63-.39 3.97-.26-.01.06-.04.12-.04.18Zm-60.95-21.49c-1.91-.31-3.82-.62-5.74-.84-1.01-.12-2.37.04-2.41-1.41-.08-1.24 1.5-.74 2.29-.74 1.06 0 2.2.28 2.45-.7.22-.87-.39-1.4-1.9-1.7-1.06-.21-2.14-.44-3.21-.6-.87-.05-1.74-.07-2.62.02-1.03.11-2.07.24-3.1.18-1.33-.08-3.28 0-4.2-1.14-.52-.65-.37-1.6.49-1.86l.22-.04.04-.02.24-.03.17-.02c1.58-.21 3.17-.25 4.77-.24l2.54-.02 1.34-.11c1.52-.09 3.07.15 4.6.22 2.62.12 5.24.3 7.86.29.61 0 1.73-.38 1.86-1.04-1.32-2.19-3.44-1.14-5.03-1.8 2.05-1.79 5.53-2.16 7.7-1.31 3.93 1.53 6.87 4.4 10.09 6.9.72.56 1.05 1.18.87 1.98-.23 1.03-.62 2.02-.94 3.03-.11.36-.24.72-.3 1.1-.32 2.05-.59 4.11-.94 6.15-.26 1.54-.58 3.09-.89 4.68-.14.11-.29.21-.47.32l-.13.06-.24.08-.37.09c-.49.07-1.02.01-1.52-.04-1.43-.16-2.85-.36-4.27-.57l-2.48-.51c-3.09-.61-6.21-1.08-9.28-1.77-.4-.09-.88-.16-1.3-.32-1.05-.41-.8-1.96.31-2.13.97-.14 2.03-.07 2.92-.49.89-.42.7-1.12-.24-1.38-1.85-.52-6.21.09-6.21-1.95-.18-2.26 5.47.32 7.9-.98.07-.67.17-1.15-.86-1.32Zm66.01-105.02c-1.89 5.03-2.87 10.4-4.61 15.49a68.6 68.6 0 0 1-4.83 10.75c-.88 1.62-2.66 2.76-4.08 4.06-.75.69-1.69.72-2.63.4a28.64 28.64 0 0 0-8.92-1.31 63.47 63.47 0 0 1-9.95-.6 37.04 37.04 0 0 1-8.14-2.58c-2.75-1.16-5.33-2.72-8-4.07-1.25-.63-1.68-.41-2.62 1.23 1.85 2.07 4.41 3.04 6.81 4.25.48.24 1.06.32 1.46.64 2.72 2.19 6.1 2.47 9.29 3.26 1.87.46 3.74.93 5.64 1.28 1.36.25 2.75.32 4.13.44.38.03.77-.1 1.16-.08 2.5.15 3.01.95 2.63 3.46-.11.7-.02 1.44.03 2.17.55 3.9 1.75 8.19-.87 11.37-.76 1.2-1.51 2.41-2.31 3.59-2.35 3.44-4.64 6.92-7.12 10.26-1.58 2.13-3.16 4.33-5.87 5.9-2.29-1.51-4.7-3.14-7.15-4.7a44.83 44.83 0 0 1-7.09-5.88c-1.31-1.28-2.94-2.25-4.48-3.28-1.91-1.27-3.9-2.43-5.81-3.71-.61-.41-1.04-1.06-1.61-1.55-.09-.02-.17-.06-.26-.1a9.63 9.63 0 0 1-.96-3.01c.34-4.12 1.78-8.04 3.23-11.89.77-2.05 1.51-4.1 2.13-6.19a4.84 4.84 0 0 0-1.5-3.7c-.86-.84-1.88-1.51-2.78-2.3-.46-.41-.97-.86-1.2-1.4-1.69-3.99-4.48-7.29-6.75-10.92a4.28 4.28 0 0 1-.54-1.72l-.03-.3c-.09-.21-2.31-4.29-1.94-6.27a12.89 12.89 0 0 1 2.25-5.27c1.05-1.42 2.36-2.6 3.48-3.97 1.44-1.76 2.18-3.9 2.85-6.05.34-1.1.67-2.2 1.09-3.28.19-.51.42-1 .62-1.5.11-.37.24-.74.36-1.1l.1-.38c.2-1.07.1-2.15.19-3.22.08-.95.28-1.87.53-2.79.4-1.47.7-2.91.96-4.4.4-2.23 1.11-4.93 3.33-5.84l.03-.28 8.21-1.45c2.15-.25 4.12-1.49 5.81-2.77a22.5 22.5 0 0 0 1.95-1.69c1.57-.8 2.51-2.27 3.53-3.73.58-.83 1.04-1.59.93-2.75.37-.76.76-1.51 1.23-2.22a6.9 6.9 0 0 1 2.51-2.11c3.29-.38 6.31-1.67 9.31-2.87 2.75-1.1 5.6-1.05 8.41-1.47.39-.06.9.22 1.27.47 3.78 2.53 7.69 4.9 11.26 7.71 2.28 1.79 4.27 4.13 3.08 7.57a3.83 3.83 0 0 0-.05 1.62c.43 3.92.9 7.84 1.33 11.76.18 1.69.25 3.39.41 5.08.07.75.02 1.5.44 2.17.07.59.15 1.18.26 1.76.17.97.46 1.89.74 2.83.27.92.28 1.84.29 2.79l.03 2.52c-.45 3.26.04 6.62-1.18 9.89Zm-107.93 58.35c-.22-.31-.2-.9-.09-1.31.84-3.13 1.72-6.25 2.6-9.36.69-2.45 1.34-4.91 2.13-7.33.42-1.28 1.12-2.47 1.68-3.71.39-.86.83-1.71 1.2-2.57 1.89-2.43 3.91-4.83 4.65-7.85.56-2.29-.45-4.43-1.16-6.57-.61-1.85-.96-4.77-2.79-5.83a1.53 1.53 0 0 0-1.81.25c-1.25 1.34-.52 3.31-.2 4.9.18.91.55 1.9.8 2.9l.24 1.74c.02.14 0 .28.01.42l-.06.51a11.94 11.94 0 0 1-2.72 4.95c-.67.73-1.04.72-1.65-.02-.58-.69-1.06-1.5-1.54-2.25l-.42-.65-1.87-3.28c-.12-.21-.26-.4-.39-.61a1.85 1.85 0 0 0-.62-.96 25.62 25.62 0 0 0-2.52-2.98c-1.54-2.52-3.18-4.99-4.67-7.54-1.37-2.34-1.03-3.23 1.1-4.82.97-.72 1.81-1.68 2.53-2.66 2.31-3.19 4.57-6.42 6.79-9.68 1.57-2.3 3.08-4.63 4.55-7 .32-.51.41-1.16.55-1.77.21-.41.21-.81.07-1.14a1.14 1.14 0 0 0-.58-.69c-.66-.44-1.62-.44-2.14.43-.07.13-.17.24-.25.36a13.4 13.4 0 0 0-1.77 1.99c-.19.21-.39.41-.56.63a22.99 22.99 0 0 0-2.28 3.7 8.93 8.93 0 0 1-2.18 2.89c.02-.81.1-1.62.13-2.43.02-.72.01-1.44-.02-2.16l.18-.47a28.06 28.06 0 0 0-.99-6.73l-.08-.5c-.22-1.45-.5-2.89-.99-4.28-.09-.26-.2-.5-.32-.75a6.42 6.42 0 0 0-.89-2.56l-.62-2.41c-.03-.63-.03-1.26.02-1.91.24-2.88 1.3-5.49 2.82-7.85.65-.74 1.27-1.51 1.75-2.39.29-.34.58-.69.88-1.02 2.73-3 5.88-5.58 8.64-8.55 1.46-1.57 2.75-3.36 4.13-5.05 1.13-1.08 2.36-2.08 3.72-3.27l.03.15c-.25 2.76-.22 5.52-.29 8.3-.04 1.61-.05 3.32-.4 4.9-.06.29-.16.55-.27.79-.79.61-1.79 1.05-2.7 1.46-1.12.5-2.1 1.18-3.1 1.88-.88.61-1.83 1.27-2.63 2.04a2.4 2.4 0 0 1-.68.92l-.29.25c-.53.94-.36 1.96-.13 3.02l.18.91c.39.83.39 1.62.23 2.47 0 .47-.02.95-.09 1.45-.07.55-.21 1.12-.25 1.69.07.34.18.66.31.96.12.67.49 1.22 1.37 1.44 2.23.56 2.38-2.02 2.36-3.51-.03-1.93-.62-3.86.4-5.61.88-1.51 1.85-2.8 3.3-3.8l1.55-1.06.26-.08.8-.2c1.1-.45 2.21-.91 2.88-1.75.3-.22.5-.57.49-1.06.06-.32.09-.65.08-.99-.04-.1-.11-.19-.17-.29l-.03-.43.14-.3-.06-.63c-.11-1.47-.11-2.95-.15-4.43-.03-1.51-.08-3.02.12-4.52.08-.63.19-1.25.3-1.87l-.04-.51c.02-.14.03-.28.06-.41a16.28 16.28 0 0 1 2.35-5.7l.61-1a.43.43 0 0 1 .07-.06l.05-.13c.85-1.34 1.8-2.57 3.37-3.14 1.42-.51 3.01-.72 4.56-.86 1.11-.02 2.22-.08 3.33-.15 1.55.05 3.06.3 4.61.68 1.94.48 4.09 1.27 6.12 1.12.29-.02.58-.08.86-.16.86.29 1.15-.03 2.09-1.21 1.83-2.31 4.2-3.99 6.57-5.64 1.12-.6 2.29-1.12 3.48-1.59 2.63-1.05 5.79-1.85 6.73-4.87.12-.39.03-.82-.19-1.17v-.08l-.14-.14-.33-.3-.15-.1-.17-.1-.07-.02-.04-.03-.11.05c-.2-.03-.41-.03-.61.04a36 36 0 0 0-7.21 3.54c-.97.62-1.93 1.33-3.03 1.71-.55.19-1.15.31-1.74.25l.09-.21a22.63 22.63 0 0 1 2.51-3.69c.32-.3.63-.59.96-.87a41.31 41.31 0 0 1 3.27-2.48l.56-.36c1.09-.52 2.21-.97 3.3-1.55.67-.35 1.35-.9 2.06-1.4.36-.17.72-.34 1.09-.49.09-.04.17-.07.26-.09.24-.18.49-.32.75-.42.16-.06.34-.1.52-.14.37-.03.76.02 1.15.17 2.16.81 3.79 2.83 5.81 3.94 2.14 1.17 4.47 1.74 6.69 2.68l.35.23c.87.63 1.68 1.33 2.5 2.03.85.98 1.62 2.06 2.51 2.9 3.84 3.6 8.96 4.17 13.89 3.11 1.05.04 2.11-.03 3.21-.14a11.24 11.24 0 0 1 9.02 3.4c1.73 1.73 2.64 4.33 3.71 6.64.54 1.17.59 2.34-.63 3.56-1.78 1.78-1.42 3.78.46 5.6 2.55 2.46 5.28 4.74 7.37 7.67 1.47 2.07 2.08 4.46 3.01 6.74.34.84-.23 1.22-.82 1.69-2.53 1.99-4.72 4.32-7.6 5.98-2.58 1.48-3.79 4.38-4.27 7.41-.1.65-.27 1.29-.4 1.93l-.56-.02c-.34-3.48-.76-6.95-1-10.43-.23-3.23-.3-6.48-.41-9.72-.05-1.54-.68-2.69-1.71-3.9a31.15 31.15 0 0 0-5.48-5.29c-3.01-2.16-5.95-4.5-9.51-5.71.21-.1.41-.21.62-.3.48-.17 1-.18 1.44-.47.26-.18.47-.41.56-.72.1-.38-.02-.79-.28-1.07a1.8 1.8 0 0 0-.92-.49 4.62 4.62 0 0 0-1.85.09l-.09.02c-.74-.01-1.51.31-2.26.57-3.26 1.14-6.49 2.35-9.75 3.51-.5.18-1.05.35-1.57.36-4.35.11-7.67 2.81-11.4 4.49-.21.1-.35.46-.43.73-.39 1.24-.89 2.47-1.08 3.74-.35 2.31-1.78 3.69-3.73 4.59-2.83 1.3-5.7 2.53-8.6 3.66-1.42.55-2.93.92-4.44 1.19a5.7 5.7 0 0 0-3.72 2.13c-.75.98-1.57 1.03-2.66.78-1.34-.31-2.72-.45-4.09-.65a3.58 3.58 0 0 1-2.65-2.32c-.55-2.08-1.08-4.17-1.68-6.24-.27-.94-.82-1.55-1.52-1.79-.37-.34-.8-.56-1.33-.39-1.31.41-.98 1.86-.62 2.83.47 1.25.85 2.43 1.04 3.75.18 1.29.31 2.6.8 3.81.94 2.33 3.14 3.08 5.46 3.37 1.14.15 2.75-.07 3.72.66.25.19.44.41.59.65.05.93-.03 1.88-.18 2.8-.16.96-.58 1.88-.89 2.82l-.93 2.79-1.01 3.01c-.35-.04-.78-.18-1.18-.12-1.23.17-1.91 1.36-1.44 2.59.33.87.69 3.11.72 3.33a7.77 7.77 0 0 1-2.24 6.94c-1.52 1.6-3.73 2.65-5.26 4.25-.22.32-.47.62-.74.92-1.46 2.14-1.64 5.22-.81 7.63.24 1.45 1.03 2.86 1.67 4.14 1.12 2.24 2.34 4.43 3.57 6.61 1.2 2.12 2.43 4.22 3.61 6.35.16.29.32.59.47.9l.53 1.42a10.43 10.43 0 0 0 1.99 3.39c.46.28.92.55 1.43.78.16.07.3.16.45.24.14.23.3.46.46.68.45.61.75 1.19.82 1.96l.03.72c-.3 1.22-1.02 2.43-1.53 3.46a25.78 25.78 0 0 0-2.19 6.11c-.04.19-.1.37-.15.55a7 7 0 0 1-1.59 3.27c0-.1-2.01-.2-2.72-.49a12.02 12.02 0 0 0-3.7-.82c-.9.15-1.79.34-2.67.51-.18.03-.34.02-.49-.02l-.69.15c-1.35-1.92-2.76-3.84-4.07-5.82a14.63 14.63 0 0 1-1.44-2.88 2.2 2.2 0 0 1 .06-1.54c1.1-2.29 2.18-4.61 3.48-6.79.78-1.3.81-2.67.83-4.02.02-1.29-1.01-1.59-2.54-1.09-.79 2.09-1.45 4.02-2.24 5.91a54.53 54.53 0 0 1-2.37 5.01c-.61 1.13-1.37 2.14-1.73 3.44-.37 1.35-.1 2.28.94 3.05.68.5 1.4.95 2.15 1.35 1.65.89 2.83 2.11 3.2 4.2-3.96.98-6.24 4.26-9.08 6.77-2.45 2.16-4.54 4.72-6.84 7.05-1.13 1.15-2.38 2.19-3.65 3.35-1.31-1.69-2.61-3.31-3.83-4.99Zm-4.12 16.86c.66-.64 1.28-1.33 1.88-2.05a30.8 30.8 0 0 0 3.72-3.85c.38-.44.75-.91 1.13-1.36.37-.35.72-.72 1.1-1.07l.42-.36c.24-.17.49-.34.77-.47l.88-.93c3-2.44 6.19-4.63 8.91-7.43 1.76-1.81 3.52-3.78 5.48-5.46l.06-.03c.1-.04.2-.1.29-.16l.25-.19c.07-.06.15-.12.2-.19.09-.12.19-.21.28-.32.73-.56 1.49-1.06 2.3-1.5l.34-.11a14.05 14.05 0 0 1 1.48-.73c3.38-1.25 6.75-.65 9.82.8.03.07.78.42.92.47a24.6 24.6 0 0 1 2.83 1.8c.18.13.36.2.53.22.47.39.95.76 1.45 1.13a12.27 12.27 0 0 0 4.84 3.81c2.18 1.07 4.2 2.64 6.16 4.07.95.7 1.89 1.42 2.81 2.15.47.5.87 1.09 1.41 1.47.53.37.87.6 1.07.82.83.56 1.5 1.28 2.2 2 .82.84 1.77 1.51 2.71 2.2.94.68 1.94 1.28 2.99 1.76.39.21.78.43 1.19.62 1.12.51 2.37 1.08 3.6 1.19 1.57.13 2.71-.76 3.9-1.72a19.56 19.56 0 0 0 4.8-5.86 40 40 0 0 1 3.1-4.79l.08-.08c1.79-1.42 2.93-3.26 4.22-5.04a32.24 32.24 0 0 0 2.53-4.26c.73-1.56 1.39-3.17 2.15-4.93 3.58 2.22 7.4 1.82 10.99 2.57.98.2 1.94.51 2.92.71.99.2 2 .32 3 .49.57.1 1.49.35 2.04.54 2.85 1.01 5.79 1.78 8.4 3.39.45.28.95.57 1.25.98.39.53.76 1.07 1.12 1.62.36.61.7 1.26 1 1.95 1.2 2.77 1.99 5.75 2.81 8.68.02.51.14 1.05.29 1.63.19.75.44 1.46.72 2.16.39 1.8 1.2 3.47 1.97 5.15a36.33 36.33 0 0 1 2.19 6.61l1.82 7.57.66 3.53c.29 1.49.51 2.99.74 4.49.21 1.4.48 2.8.6 4.21.12 1.52.11 3.06.15 4.59l.02.6.02 3.19c-.07 1.48.09 3.13.03 4.71v.06c-.49 1.04.96 3.31-8.65 5.7-.66.1-1.32.19-1.98.26-4.2.43-8.44.47-12.66.63l-10.35.39-.4-.02c-3.9-.1-7.83.19-11.71.52a27.2 27.2 0 0 1-8-.48c-2.35-.49-10.37-1.5-11.5-1.77-1.81-.44-3.69-.67-5.77-.99-.22-.4-.38-.84-.47-1.29.26-1.42.57-2.9.48-4.35-.13-2.22.28-4.3.77-6.4.32-1.37.66-2.73 1.04-4.08.01-.93.09-1.86.34-2.76a4.6 4.6 0 0 1 1.53-2.44c.2-.46.64-.6 1.55-.75l.3-.04c.76-.15 1.56-.19 2.3-.21h.1c2.92-.09 5.81.36 8.7.78l.48.05c.13 0 .25.04.36.07l1.32.18.77.11c5.79.02 11.58.24 17.34.72 1.06.05 2.13.09 3.19.15l.08.02.92-.02c1.64 0 3.31.08 4.95-.1l.8-.32.5-.2c.21-.12.45-.22.7-.29l.49-.22c.65-.3 1.3-.63 1.9-1.03l.2-.14.09-.08a1.7 1.7 0 0 1-.27-.39c-2.02-.95-4.29-.91-6.72-.79 1.47-4.76 2.56-9.37 1.78-14.23-.81-.27-1.6-.41-2.24-.79-.69-.41-1.28-.84-2.25-.29 0 4.92 1.14 9.95-.83 14.93-3.01.26-6.17-.19-9.31-.85-.65-.14-1.72-.29-2.38-.32-2.89-.15-5.79-.24-8.68-.46a39.55 39.55 0 0 1-7.79-1.41c-2.64-.87-5.24-.64-7.9-.4-.44.04-.88.05-1.37.04a3.34 3.34 0 0 0-2.94 1.71l-.51.91c-.89-.57-1.91-1.18-2.9-1.84-1.98-1.34-3.96-2.68-5.9-4.09-1.71-1.25-3.34-1.88-5.51-.85-1.56.74-3.44.79-5.13 1.31-1.37.42-2.81.86-3.94 1.68a4 4 0 0 1-2.52.84c-2.32-.03-4.63-.15-6.81.96-1.24.63-2.24.12-2.9-1.02-1.15-1.98-2.64-3.72-3.48-5.94a15.59 15.59 0 0 1-1.98-3.74c-.19-.46-.4-.9-.61-1.34-.31-.53-.6-1.06-.87-1.61-.17-.36-.37-.72-.56-1.07-.48-.82-.98-1.63-1.48-2.44-.82-1.47-1.66-3.03-2.85-4.23l-.25-.41a6.37 6.37 0 0 0-.55-.5c-.1 0-.2-.03-.29-.04a5.91 5.91 0 0 0-1.79-.78l-.09-.06h-.17a6.6 6.6 0 0 0-3.08.14c-2.03.56-3.96 1.62-5.87 2.48l-1.39.64c-.04-.02-.09-.02-.13-.05-1.59.5-3.14 1.33-4.86 1.91l.08-.22Zm-23.45 6.29c.76-.37 1.4-1.01 2.18-1.28 2.02-.69 4.15-1.07 6.11-1.89 3.22-1.34 6.24-.15 9.32.36.45.08.88.27 1.33.38 2.36.56 3.16 1.8 2.95 4.36-.13 1.61-.15 3.23.01 4.84.19 1.89-.99 2.88-2.53 1.99a5.59 5.59 0 0 1-1.86-2c-.77-1.32-1.27-2.78-2.01-4.12-.62-1.12-1.29-1.42-2.34-.99l-.11.18c-.04.07-.07.15-.12.22l-.02.05-.06.22v.03c-.02.26 0 .51.03.77l1 2.14c.12.27.31.57.27.83-.25 1.67.45 2.88 1.7 3.88.1.05.2.12.27.21l.08.06-.02.05c.18.3.2.7.04 1.01a4.6 4.6 0 0 1-1.02 1.82.99.99 0 0 1-.69.29 1 1 0 0 1-.69-.29c-.04-.04-.07-.1-.1-.15-1.42-1.37-3-2.55-4.03-4.09-.3-.45-.64-.75-.99-.99l-.22-.12H106c-.36-.11-.7-.27-1.05-.42l-.04-.02a8.25 8.25 0 0 0-.9-.1c-.14.02-.27.05-.39.11a.72.72 0 0 0-.2.16c-.02.04-.02.04 0 0l-.03.09v.09c0 .35.1.75.13 1.16.97 2.85 3.23 4.62 5.89 6.42.12.05.22.13.29.24.19.29.05.69-.23.86-.67.42-1.48.45-2.24.36h-.18a.6.6 0 0 1-.29-.08c-2.1-.71-2.73-2.47-3.56-4.12a1.44 1.44 0 0 0-1.5-.78l-.29.04c-.78.12-1.28.95-.97 1.68.68 1.6 1.77 2.91 2.9 4.19.08.03.17.1.22.15.31.32.19.77-.09 1.06a1.6 1.6 0 0 1-.65.36l-.09.04-.07.03-.15.05c-.14.04-.3.06-.45.06-.46.01-.99-.15-1.39-.39a2.17 2.17 0 0 1-.61-.56 8.9 8.9 0 0 1-.64-.62c-.85-.88-1.55-1.91-2.38-2.81-.57-.62-1.25-1.35-2.19-.69-.82.58-.71 1.33-.38 2.26.26.74.4 1.35 1.14 1.83.12.08.21.19.31.3.15.11.3.2.44.32.12.11.24.24.32.38.03.06.03.13.05.19l.03.04c.18.29.06.69-.23.86-.45.26-.94.49-1.45.62-.41.1-.85.14-1.26.04-.86-.03-1.61-.49-2.39-1.39-.23-.27-.48-.65-.48-.97-.56-1.22-1.15-2.43-1.68-3.66-.34-.79-.66-1.6-.91-2.42a9 9 0 0 1-.21-.93 15.6 15.6 0 0 1-1.14-5.35c2.89-3.28 6.85-4.67 10.56-6.47Zm43.67 82.93c-1.88 1.04-3.83 1.96-5.71 3-2.36 1.3-4.64 2.74-7.03 3.98a42.65 42.65 0 0 1-6.15 2.73c-1.73.57-3.61.91-5.44.95-.11 0-.21-.02-.32-.03-1.47-.59-2.44-2.5-3.08-3.78-1.24-2.45-2.44-4.91-3.67-7.36-2.01-4.04-3.96-8.12-6.65-11.75a822.47 822.47 0 0 0-7.64-15.12 101 101 0 0 0-6.96-11.61l-1.29-1.82c-.68-1.14-1.39-2.26-1.97-3.45a6.48 6.48 0 0 0-1.57-2.06l-1.06-2.05a2.2 2.2 0 0 0-.36-.8c-2-2.88-4.01-5.74-6.03-8.61l-.76-1.24c-.55-.92-1.26-2.14-1.27-3.28.11-.2.25-.41.44-.64.52-.62 1.09-1.15 1.68-1.63a57.8 57.8 0 0 1 7.36-3.49c.55 0 1.12.04 1.66.01.84 1.64 1.55 3.24 2.44 4.73a66.97 66.97 0 0 0 3.25 4.78c.6.82 1.34 1.12 2.42.61a6.22 6.22 0 0 1 2.69-.56c1.3.02 2.24-.45 2.92-1.47 1.73.44 3.32.75 4.72-.72a2.62 2.62 0 0 1 1.89-.77 5.95 5.95 0 0 0 4.49-1.37c1.8-1.35 3.7-2.58 4.91-4.56.56-.92 1.1-1.86 1.69-2.85.94.17 1.82.4 2.72.49 1.6.17 2.68-.74 2.62-2.35-.13-3.47-.34-6.93-.59-10.39-.1-1.47.19-2.3 1.28-2.99 2.26-.99 4.53-1.98 6.84-2.83 1.32-.48 2.69-.64 4.02-1.05a3.4 3.4 0 0 1 1.76-.16c.35.05.73.08 1.1.15 1.15 1.82 2.96 3.03 4.15 4.84a41.79 41.79 0 0 1 3.84 6.8l2.98 7.28-2.31 1.81c-.84.67-1.02 1.53-.58 2.49.39.85.82 1.38 1.97 1.6 1.86.34 3.61 1.25 5.52 1.97-1.02 2.33-.28 4.39 1.18 6.46a47.5 47.5 0 0 1 5.73 10.5c.92 2.42 2.3 4.65 3.42 6.99.56 1.17.97 2.42 1.52 3.59 1.19 2.56 2.57 5.04 3.6 7.66a19.13 19.13 0 0 1 1.44 7.45 9.36 9.36 0 0 1-3.28 6.93c-2.63 2.38-5.53 4.4-9.04 5.48a57.92 57.92 0 0 0-12.66 5.6c-.99.59-1.88 1.36-2.88 1.92Zm60.92 119.21c-.19 1.63-.76 2.15-2.49 2.05-1.84-.11-3.67-.49-5.5-.78l-1.43-.25c-2.69-.19-5.37-.51-8.08-.32-3.58.25-7.2.85-10.77.34-.16 0-.31.02-.46.03a8.77 8.77 0 0 1-3.4-.48 1.37 1.37 0 0 1-.76-1.93c.48-.96 1.14-1.84 1.54-2.83.95-2.35 1.77-4.75 2.68-7.11.27-.71.67-1.37.97-1.98l25.16 1.85c.48 1.04 1.08 2.37 1.71 3.68 1.2 2.48 1.13 5.11.83 7.74Zm1.27-63.19c-.95-2.95-.42-6.07-.4-9.1 0-.12.02-.22.03-.33-.04-.3-.07-.6-.07-.91-.04-3.09-.45-6.17-.61-9.25-.11-2.17-.02-4.35-.13-6.52a3.08 3.08 0 0 0-.71-1.87c-.28-.29-1.07-.1-1.63-.12 0 .65-.21 1.03-.54 1.27.51 3.3-.18 6.58-.28 9.91l-.02 1.17c.29 2.58.46 5.17.66 7.76.18 2.32.26 4.64.44 6.96.1 1.27.1 2.55.18 3.82.05.83.13 1.66.22 2.47-.38 1.78.2 3.56.93 5.23a50 50 0 0 1 2.45 7.13c1.09 4 2.77 7.63 4.71 11.22.76 2.11 1.42 4.25 2.22 6.34.74 1.94 1.52 4.04 1.47 6.15a5.67 5.67 0 0 1-.42 2.06c-.06.08-.11.16-.18.23-.55.62-1.01 1.38-1.62 1.93-.66.59-1.53.87-2.38 1.02-1.93.36-3.99.31-5.95.42l-5.42.31-3.95-.32c-3.34-.27-6.7.02-10.04-.13-2.5-.11-6.08-.1-8.77-1.21-.85-.1-1.69-.22-2.55-.19-2.09.08-4.19-.09-6.28-.24-.83-.06-1.67-.3-2.47-.55-1.06-.33-1.48-.95-1.53-2.22-.09-2.05-.66-4.07-1.02-6.11-.56-3.2-1.04-6.41-1.68-9.59-.6-2.99-1.38-5.95-2.03-8.93-1.19-5.5-2.85-10.95-3.39-16.52a87.02 87.02 0 0 0-6.2-24.74 51.23 51.23 0 0 1-2.78-8.59c-.37-1.75-.1-3.73.26-5.53.87-4.39 2.03-8.72 2.91-13.1.42-2.09 2.18-2.66 3.57-3.54 2.93-1.85 6.01-3.46 9.04-5.15.23-.13.5-.26.75-.32 2.71-1.3 5.11-3.14 7.76-4.57a18.7 18.7 0 0 1 4.45-1.8c.32-.08.63-.11.93-.14a6.6 6.6 0 0 1 3.72.32c.48.12.95.26 1.43.35l1.01.17.3.04.47.05c.55.06 1.11.09 1.66.11l.06.01 1.2.03h.02c.8.15 1.61.18 2.43.16h.62l.14.09c.7.95 1.47 1.83 2.44 2.58.09.1.17.2.26.28.11.11.24.21.37.31a4 4 0 0 0 1.12.93c.24.14.5.24.75.34.28.11.7.02.95-.13.19-.11.35-.3.46-.51.52-.38.97-.96 1.39-1.36.56-.55 1.14-1.08 1.71-1.61.5-.04 1.01-.14 1.5-.22.02 0 .04 0 .05.02 1.88-.27 3.84.11 5.73.09a62.9 62.9 0 0 0 3.36-.14c2.8-.64 5.68-.94 8.51-1.49 1.64-.32 3.23-.84 5.02-1.32.5 1.69 1.07 3.48 1.55 5.29.69 2.59 1.26 5.21 1.98 7.79.97 3.48 2.02 6.94 3.06 10.4 1.2 3.97 2.06 8.04 3.9 11.82.97 1.98 1.41 4.22 2.09 6.34 1.09 3.36 2.22 6.72 3.28 10.09.58 1.83.98 3.72 1.58 5.55a98.7 98.7 0 0 0 3.73 10.09c1.65 3.65 3.73 7.11 5.18 10.8 1.64 4.16 4.38 8 4.39 12.73 0 .18.05.36.12.53.05.79.08 1.59.05 2.38-.04 1.26-.08 2.67-.6 3.85-.91 2.07-3.3 3.3-5.24 4.23a39.8 39.8 0 0 1-3.5 1.47h-.02l-1.22.44c-1.84.63-3.71 1.18-5.58 1.72h-.12a27 27 0 0 1-5.61 1.15c-1.94.13-3.82.62-5.68 1.15-1.71.48-3.81 1.34-5.58.76-.95-.31-1.38-1.01-1.81-1.84l-.01-.05c-.05-.23-.16-.4-.29-.54l-.02-.04c-1.09-3.39-2.21-6.66-2.89-10.01-.72-3.58-2.04-6.92-3.09-10.36a89.16 89.16 0 0 0-3.12-8.5c-.69-1.61-.97-3.39-1.44-5.09-.22-.82-.8-1.78-.69-2.46-.33-.84-.73-1.71-1.03-2.65Zm59.67 59.84a28.52 28.52 0 0 1-2.85 4.18c-.41.48-1.42.75-2.1.66-4.13-.49-8.25-1.11-12.37-1.68l-.69-.08-13.58-1.53c-.46-.05-.9-.22-1.36-.28-1.89-.24-2.85-1.36-3.08-3.18-.09-.69-.25-1.38-.25-2.07 0-3.96-.34-7.87-1.47-12.08l14.04-3.54c2.04.83 3.65 2.59 5.44 4.17a49.39 49.39 0 0 0 5.54 4.08c2.56 1.68 5.02 3.49 7.79 4.89 1.82.92 3.03 2.99 4.63 4.41.78.7.69 1.41.32 2.05ZM103.42 185.34v-.03.03ZM297.67 64.54a36.75 36.75 0 0 0-4.63-1.93c-.39-.29-.94-.51-1.39-.69a69.77 69.77 0 0 0-5.41-1.95c-1.32-.41-2.69-.64-4.05-.93-.82-.18-1.67-.26-2.47-.49-1.41-.41-1.71-.26-2.22 1.13-.2.54-.41 1.22-.84 1.49-.84.52-.92 1.21-.73 1.97.22.89.96.99 1.8 1.12 2.89.44 5.79.9 8.64 1.56 2.31.53 4.56 1.34 6.92 2.05-.35 1.54-.69 2.88-.96 4.23-.37 1.81-.69 3.64-1.03 5.46-.31 1.68-1.32 2.49-3.03 2.52-1.69.03-3.41-.01-5.08.2l-9.55.4a1.3 1.3 0 0 0-.61.19c-.2 0-.4.08-.46.08-.66 1.88-1.17 3.62-1.87 5.28-1.47 3.5-2.21 7.2-2.97 10.88-.26 1.26 1.37 3.45 2.56 3.58.94.1 2.1-.72 2.65-1.93a840.5 840.5 0 0 0 3.62-8.14c.43-.99.7-2.07 1.24-3 .1-.17.24-.33.39-.49 3.28-.4 6.55-.91 9.8-1.55 1.48-.29 3.54-.41 4.71-1.49 1.28-1.18 1.49-3.5 1.94-5.09a44.8 44.8 0 0 1 1.85-5.41c.7-1.64 1.44-3.27 1.95-4.98.23-.77.57-1.72.49-2.54-.07-.81-.6-1.17-1.27-1.51ZM268.83 116.67c-3.62-.84-6.08 2.03-9.02 3.33-2.04-1.41-.29-3.72-1.77-5.37-1.06-1.18-.98-3.38-1.49-5.44 2.19-1.9 5.25-2.5 8.06-3.54 1.24-.46 2.66-1.58 3.82-.44.45 2.6.88 4.93 1.23 7.27.22 1.43.65 2.93-.84 4.2Z"/>
    <path d="M216.98 102.52c-3.22.34-6.26.92-9.43.73-3.61-.22-7.27.31-10.91.52-.23.01-.47 0-.7.05-.54.14-.91.36-1.09.68-.36.31-.57.74-.61 1.23-.04.44.07.94.19 1.36.13.45.32.9.54 1.32.18.35.37.7.6 1.02.09.13.19.24.29.34.25.28.63.46 1.24.68 3.15 1.14 6.45 1.59 9.75 1.95.78.08 1.54.18 2.28.36.62.04 1.23.14 1.83.26h.22c1.34-.28 2.67-.59 3.98-.96l.22-.12c.38-.27 2.06-1.11 2.28-2.08.11-.48-.62-1.15-1.03-1.81a10.64 10.64 0 0 0 1.58-4.14 1.15 1.15 0 0 0-1.24-1.38Zm-3.04 6.06c-.29.51-1 1.13-1.51 1.12-2.76-.08-5.62.37-8.19-1.17-.43-.26-1.03-.25-1.56-.33a164.14 164.14 0 0 0-6.02-.89l-.09-.18-.04-.09-.07-.18-.07-.2a4.37 4.37 0 0 1-.12-.49l-.01-.09c1.1.15 2.21.31 3.32.29 1.52-.03 3.02-.41 4.54-.6.36-.05.88-.13 1.09.06 1.32 1.22 2.77.52 4.18.38 1.74-.16 3.47-.35 5.52-.55-.39 1.24-.53 2.17-.97 2.93ZM196.36 69.33a1.97 1.97 0 0 1-2.12 1.21c-1.42-.21-2.87-.43-4.31-.5-1.21-.06-2.43.33-3.65.4-1.39.08-2.84.3-4.16 0-1.82-.42-3.48.14-5.05.6-1.34.39-1.66.42-2.32-.95-.31-.77 3.62-2.69 5.69-2.82 1.71-.1 3.35-.66 4.96-1.25 2.82-1.02 5.68-.72 8.5-.5 2.34.18 3.25 1.83 2.47 3.8ZM211.67 93.86c.71-.5.96-1.45.58-2.24-1.1-2.26-2.19-4.39-3.09-6.59a8.98 8.98 0 0 1-.58-3.83c1.79-.82 2.34-.78 2.57.77.39 2.67 1.91 4.81 2.84 7.21.16.42.37.83.63 1.19.83 1.13 1.07 1.44 1.11 2.36.03.83-.35 1.64-1.03 2.13-.89.65-1.79 1.31-2.78 1.79-2.46 1.18-5.02 1.63-7.39-.25-.34-.26-.63-.97-.51-1.32.13-.38.75-.78 1.19-.82a6.76 6.76 0 0 1 2.53.24 4.2 4.2 0 0 0 3.95-.66ZM218.72 62.02a27.88 27.88 0 0 0-8.19 2.31c-.48.23-1 .51-1.51.53-.48.02-1.26-.15-1.39-.46-.21-.48-.21-1.34.09-1.71a5.74 5.74 0 0 1 2.03-1.46 84.88 84.88 0 0 1 5.29-2.26c.56-.22 1.2-.3 1.81-.32 3.21-.1 6.34.16 9.08 2.09.68.48 1.29 1.01.85 1.89-.45.89-1.3.99-2.21.77l-5.86-1.38ZM223.6 74.62v.05a2.59 2.59 0 0 1-2.05 3.12c-.89.17-1.82.33-2.77.46a5.9 5.9 0 0 1-4.39-1.05c-.68-.5-.97-1.16-.41-1.76.77-.81 1.64-1.78 2.64-2.07 1.31-.38 2.68-.57 4.09-.76 1.33-.18 2.58.7 2.89 2.01ZM194.52 80.25l-.43 1.55c-.64.43-1.87.06-3.12.6-.57.25-1.53.22-2.07.55-.92.56-1.97 1.05-2.76.13-.59-.68-1.1-1.79-1-2.62.16-1.26 1.25-2.07 2.65-2.31 1.06-.18 2.08-.53 3.09-.89s1.86-.28 2.69.41l.58.48c.62.52.78 1.4.39 2.11ZM132.7 238a7.8 7.8 0 0 0-1.45 0h-.16l-.93.09c0-2.64.19-4.53-.7-7.23-.2-.62-.32-1.25-.4-1.88l.44-.1c.42-.1.9-.14 1.29-.34.51-.26.62-.7.64-1.23.04-.91.03-1.83.05-2.74l.1-5.48c.01-.76-.75-1.11-1.34-.92a1.49 1.49 0 0 0-.72.05l-4.88 1.62c-1.43 1.38-2.64 2.8-4.09 3.91-1.98 1.52-4.05 2.01-5.82 1.22-.39-.65-.8-1.29-1.27-1.89-.61-.77-1.8-1.87-2.86-1.35-.52.26-.77.79-1.04 1.28a22.23 22.23 0 0 0-2.55 8.36c-.07.07-.15.13-.19.22-.26.51-.09 1.05.37 1.36l2.62 1.78.78.53c-.23 2.65-.41 5.31-.49 7.98-.02.57.47.96.99 1.01l1.82.16c.47.09.96.12 1.46.13l.43.04c.51.14 1.07.23 1.7.22.84.14 1.67.3 2.52.42 1.35.19 2.71.3 4.07.39.38.16.76.33 1.14.53 2.28 1.19 4.42 2.68 6.58 4.07.56.36 1.28-.02 1.46-.61 1.05-3.43 1.52-7 1.39-10.58-.02-.58-.44-.94-.99-1.01Zm-18.07-1.81c.67-.96 1.3-1.94 1.87-2.96.54-.98 1.43-2.22 1.12-3.38 1.32-1.45 3.25-2.37 4.96-3.51.11.43.22.86.35 1.28.23.78.4 1.99 1.31 2.25.47.14.95-.02 1.4-.13l.45-.1c.09 2.82.17 5.64.44 8.45l-.09.36c-.89-.01-1.77-.03-2.62.26-.45.15-.71.49-.75.96-.06.79-.05 1.57.01 2.35-2.18-.25-4.36-.51-6.53-.79-1.74-.22-1.75-.35-1.95-2.21a8.75 8.75 0 0 1 .04-2.85ZM150.13 221.7c-.11-.53-.36-1.02-.49-1.55-.54-2.25-1.36-4.48-1.5-6.75-.11-1.79-.84-3.23-1.48-4.75a1.88 1.88 0 0 0-.87-.82 2.13 2.13 0 0 0-.82-.56c-.83-.32-1.73-.53-2.59-.71-1.44-.29-4.38-.74-4.99 1.14-.31.94.31 1.85.77 2.63.43.72.88 1.43 1.33 2.14l.46.75c1.62 4.24 2.42 8.72 4.43 12.77.3.06.68.11 1.05.2a3.81 3.81 0 0 0 4.71-4.5ZM136.83 191.36c-.75-1.57-3.86.2-5.56 1.01l-.7.32c-1.71.52-3.4 1.1-5 1.85-.43.06-.86.12-1.25.28-1.43.6-2.78 1.41-4.19 2.02l-1.5.49-.68.26c-2.16.64-4.29 1.27-6.26 2.48-1.59.98-3.53 1.36-5.26 2.14-2.93 1.32-5.78 2.81-8.72 4.1-1.41.62-2.96.94-4.57 1.43l-.07.34h-.04c-1.27.23-.76 2.16.5 1.94 7.34-1.27 13.66-5.38 20.28-8.54.41-.2.83-.37 1.25-.56 1.67-.57 3.38-1.05 5.03-1.66 1.04-.38 2.15-.47 2.97-1.3.52-.2 1.02-.41 1.52-.66l.9-.44c1.01-.26 2.04-.49 3.03-.83 1.81-.62 3.6-1.31 5.38-2.03.59-.24 1.58-.49 2.3-.87l.14-.04a.98.98 0 0 0 .64-.61c.18-.3.18-.67-.12-1.12ZM149.61 230.28c.73.2 1.23.21 1.59.45 1.01.67 1.98 1.4 2.93 2.15 1.32 1.03 1.58 2.13.94 3.68l-.69 1.7a3.48 3.48 0 0 1-3.84 2.31 2.76 2.76 0 0 1-1.22-.49c-.61-.43-1.13-.99-1.75-1.43-1.9-1.34-2.26-2.58-1.18-4.68a16 16 0 0 1 1.75-2.7c.38-.47 1.04-.72 1.45-.99ZM125.48 206.65l-.31.13c0-.05-.01-.1 0-.14-2.01.7-2.88 1.12-4.32 2l-1.16.5c-2.72.73-5.74.73-7.72 3.25-.11.14-.43.11-.65.19l-6.23 2.47a.47.47 0 0 0-.16.04l-2.7 1.01c-.93.35-1.86.64-2.64 1.28-.19.15-.27.39-.28.64-.28.68.53 1.67 1.46 1.28l7-2.93c2.52-1.03 5.17-1.82 7.53-3.18l4.78-2.06c1.79-.39 3.53-.88 4.92-2.11l1.48-.63c1.18-.51.17-2.24-1-1.73ZM269.7 113.61l-.66-1.87c-.22-.64-.84-1.08-1.53-.9-.62.16-1.13.89-.9 1.53l.55 1.58c.14.4.43.93.42 1.36 0 .03 0 .03.02.03l-.07.07c.12-.13-.18.1-.2.11-.23.12-.73.25-1.1.36l-5.12 1.57a31.07 31.07 0 0 1-1.77-7.55c-.07-.68-.52-1.26-1.25-1.26-.62 0-1.33.57-1.26 1.25a33.23 33.23 0 0 0 2.3 9.42c.25.61.82 1.12 1.53.9l3.7-1.13c1.17-.36 2.36-.67 3.51-1.09 1.15-.42 2.13-1.18 2.22-2.49a4.9 4.9 0 0 0-.38-1.89Z"/>
  </g>
</svg>
