<svg xmlns="http://www.w3.org/2000/svg" viewBox="0 0 393 393">
  <defs>
    <style>
      .c{fill:#fff}.e{fill:#dcdcda}.f{fill:#e0b89b}.i{fill:#78bdd5}.j{fill:#4d8ca3}
    </style>
  </defs>
  <g id="b">
    <path class="j" d="M227.7 12.63c.32-3.22-3.38-4.35-5.74-3.34-12.78 5.5-26.53 7.71-39.43 12.93-5.08 2.06-10.99 4.06-15.38 7.39-4.29 3.25-4.75 9.13-6.02 14-1.23 4.72 5.98 6.7 7.34 2.12.87.17 1.77.09 2.54-.35 5.57-3.2 13.83-2.74 20.07-4.19 7.05-1.63 14.1-2.45 21.23-3.61 4.01-.65 10.41-.45 12.31-4.79 1.12-2.57.21-6.01.54-8.76.48-3.92 2.14-7.44 2.54-11.4Z"/>
    <path class="i" d="M239.72 176.44c-.22-6.22-5.69-9.22-9.8-13.02-4.73-4.37-7.71-10.24-13.09-13.86-2.38-1.61-5.87.09-6.53 2.72-.91 3.67-3.61 23.02-7.22 23.25-2.5.16-6.96-4.66-9.29-5.75-.16-.08-.32-.13-.48-.2-.9-1.9-2.85-3.27-5.03-2.37l-3.56 1.46a4.74 4.74 0 0 0-3.14 3.93c-4.64 3.95-11 8.27-13.71 3.69-1.5-2.54-1.3-7.27-1.45-10.11-.23-4.48.15-8.92.92-13.33.58-3.28-1.97-6.3-5.44-5.48a48.1 48.1 0 0 0-21.5 11.44c-.42.38-.71.79-.93 1.2a162.65 162.65 0 0 0-8.44 11.77c-3 4.5-7.15 8.74-9.67 13.48-4.56 8.59 4.57 17.4 8.97 24.18 1.21 1.86 4.07 3.12 6.1 1.63 4.07-2.97 9-4.06 13.79-5.38 1.27 2.34 2.35 4.99 2.1 7.31-.37 3.4-4.12 7.79-5.81 10.77a852.54 852.54 0 0 0-11.87 21.57 4.52 4.52 0 0 0 3.86 6.68c5.11.23 9.87.46 14.86 1.52 4.1.87 7.69.71 11.65-.94 4.66-1.93 8.48-5.39 13.29-7a39.47 39.47 0 0 1 9.39-1.73c5.85 1.09 13.77 2.85 19.51.91 5.85-1.97 4.61-7.13 4.32-11.98a48.28 48.28 0 0 1 4.61-23.27c.64-1.4 1.6-6.18 2.51-7.08.77-.76 1.48.26 3.15 1.12 1.08.56 2.18 1.08 3.38 1.36 6.23 1.42 8.32-2.99 9.92-8.1 1.93-6.19 4.86-13.84 4.63-20.4ZM268.67 44.58c-.5-1.89-2.06-3.17-3.7-4.07-.7-.38-1.37-.7-1.94-1.27-.73-.73-1.26-1.6-2.05-2.28-3.3-2.8-7.6-4.28-11.01-6.97-3.54-2.79-6.44-6.29-9.73-9.35-2.91-2.69-6.96-4.79-8.54-8.59a1.76 1.76 0 0 0-.64-.78c-.19-2.54-4.28-3.36-4.99-.47-.96 3.9-.75 7.91-1.4 11.86-.67 4.03-1.55 8.09-1.22 12.2.11 1.37 1.08 2.56 2.54 2.57.21 0 .42-.04.63-.09l.51.41a61.73 61.73 0 0 0 5.67 3.68c3.55 2.08 7.2 4 10.52 6.45 3.23 2.39 6.23 5.1 9.59 7.32a20.9 20.9 0 0 0 4.93 2.64c2.49.79 4.13-1.11 5.59-2.81a42.54 42.54 0 0 0 3.52-4.72c1.11-1.72 2.31-3.58 1.74-5.71Z"/>
    <path d="M310.67 124.48c-.11-1.33-.19-2.86-1.28-3.8-.97-.83-2.3-1.06-3.5-1.41-2.22-.64-4.47-1.46-6.76-1.81a12.16 12.16 0 0 0-4.5.11c-1.13.23-2.43.52-3.42 1.13-1.55.95-1.62 2.67-1.64 4.29-.02 1.37-.01 2.74 0 4.11.01 1.34 1.15 2.62 2.54 2.57a2.8 2.8 0 0 0 1.49-.51c.85.28 1.78.34 2.68.44 1.24.14 2.48.26 3.72.36 2.15.16 4.42.41 6.58.23 1.4-.12 2.77-.61 3.54-1.86.72-1.15.67-2.54.56-3.83Z" style="fill:#3b7477"/>
    <path class="j" d="M239.46 358.09c-7.87-3.64-14.44-3.34-22.14.2-1.37.63-2.35 2.83-1.79 4.28.36.92.54 1.82.61 2.71-.19.25-.33.54-.39.87a35.88 35.88 0 0 0-.58 4.74c-.31.86-.66 1.73-1.02 2.6-1.11 2.7 1.06 4.47 3.38 4.53.75.3 1.64.29 2.29-.12.18-.12.34-.25.48-.39.29.06.61.1.95.1 3.13-.03 6.25-.07 9.38-.13.6.04 1.2.08 1.8.14 3.27.37 6.95 1.7 10.28 1.18a6.55 6.55 0 0 0 4.25-2.4c.55-.15 1.09-.33 1.61-.55 1.2-.51 1.91-2.07 1.91-3.29.03-6.23-5.76-12.02-11.03-14.45ZM190.63 373.18c-1.49-3.13-3.23-6.93-5.7-9.43-2.21-2.23-5.86-2.22-8.79-2.32-2.92-.09-6.33-.08-8.61 2.05-2.5 2.34-1.46 5.39-2.25 8.35-1.01 3.8-2.4 6.89-1.22 10.84.87 2.94 4.07 3.3 6.03 2.02 3.98.29 7.94.13 11.91-.29 3.03-.32 7.2-.04 9.22-2.67 2.11-2.74.72-5.79-.6-8.57Z"/>
    <path d="M225.01 315.61c-2.1-10.81-4.18-21.63-6.23-32.45-2.07-10.96-5.03-22.21-5.93-33.34-.2-2.51-1.86-4.33-4.44-4.49-10.29-.64-23.35-2-33.21 1.67-4.27 1.59-6.49 5.71-10.67 6.68-5.69 1.33-13.11.19-18.95.1-.12 0-.23.02-.34.03-.3-.3-.59-.62-.87-.96-3.57-4.44-9.76 1.84-6.33 6.28-.07.6 0 1.27.31 2.01 2.37 5.77 3.76 11.78 5.6 17.72 1.52 4.92 3.77 9.52 5.46 14.38 2.87 8.23 2.45 19.51 8.48 26.31 2.99 3.37 7.3 2.8 11.45 2.75l17.22-.2c11.69-.14 23.66.48 35.26-1.03 2.5-.33 3.61-3.32 3.2-5.45Z" style="fill:#89c9ca"/>
    <path class="c" d="M202.01 151.32a37.02 37.02 0 0 0-2.25 3.93c-1.91 2.1-4.71 3.67-6.93 5.09-3.5 2.25-2.47 6.76 1.08 8.18a7 7 0 0 1 3.05 2.52c2.93 4.23 9.49 1.05 8.37-3.08a22.9 22.9 0 0 0 1.73-5.97c.15-1.07.46-2.01.86-2.92.69-.97 1.26-2.05 1.76-3.19l.08-.13h-.02c.15-.36.32-.69.45-1.06 1.77-4.98-5.57-7.45-8.19-3.37ZM184.1 160.47c-4.46-3.3-7.74-8.56-11.17-12.85-2.19-2.73-6.41-.28-6.52 2.71-.24 6.77 2.77 12.85 1.92 19.7-.02.16 0 .29-.01.44-.15.2-.31.37-.46.58-2.87 4 3.8 7.77 6.65 3.79 1.36-1.89 3.3-3.21 5.13-4.6.95-.72 2.64-2.56 3.52-2.73 3.64-.73 3.37-5.23.93-7.03ZM319 131.25c-.22-2.82-3.07-4.88-5.74-3.34-1.24.72-1.82 2.37-2.84 2.97-2.06 1.21-9.42-.06-11.92-.24-3.89-.28-7.3-.16-9.01-3.6-1.04-2.09-1.06-3.38-3.42-4.45-12.18-5.55-10.52 19.06-11.66 24.58-.71 3.44 2.85 5.43 5.31 4.53.28.33.51.61.57.77.67 1.54-.48 7.03-1.05 8.07-1.54 2.81-4.87 4.45-6.65 7.12-2.65 3.98-3.43 12.66-2.36 17.16 1.58 6.63 9.68 6.43 15.16 7.2 7.27 1.02 15.76 2.97 23.06 1.94 1.38-.19 2.32-1.52 2.73-2.71.72-2.06.4-4.37.53-6.52.23-4.05.82-8.08 1.46-12.08.95-5.97 1.95-11.92 2.54-17.94a3.93 3.93 0 0 0 1.32-2.54c.8-6.78 2.51-14.09 1.97-20.91Z"/>
    <path class="e" d="M310.35 137.64a75.58 75.58 0 0 0-6.89-.41c-2.32-.03-4.67.24-6.97-.16a105.2 105.2 0 0 0-13.11-1.71c-1.65-.08-1.65 2.47-.01 2.55 4.52.22 8.84 1.12 13.3 1.76 2.16.31 4.34.1 6.52.11 2.39.02 4.78.16 7.16.41 1.64.17 1.63-2.38.01-2.55ZM310.53 145.48c-9.17-1.65-18.52-2.21-27.78-3.05-1.64-.15-1.64 2.41-.01 2.55 9.05.82 18.19 1.35 27.14 2.96 1.61.29 2.28-2.17.66-2.46ZM309.02 153.83c-9.36-1.38-18.73-2.97-28.19-3.39-1.65-.07-1.65 2.48-.01 2.55 9.25.41 18.4 1.96 27.54 3.31 1.61.24 2.29-2.23.66-2.46ZM307.73 160.88c-4.78-.35-9.71-.39-14.41-1.38a85.24 85.24 0 0 0-13.7-1.53c-1.65-.08-1.65 2.48-.01 2.55 2.33.11 4.65.21 6.97.45 2.38.24 4.67.74 7.01 1.18 4.62.87 9.44.93 14.13 1.28 1.64.12 1.64-2.43.01-2.55ZM306.33 168.54c-10.7.39-20.82-4.42-31.54-3.83-1.64.09-1.66 2.64-.01 2.55 10.71-.59 20.84 4.22 31.54 3.83 1.64-.06 1.66-2.61.01-2.55Z"/>
    <path class="f" d="M248.24 68.38c-.18-1.71-1.14-3.18-2.07-4.59-1.63-2.48-3.65-5.87-6.78-6.55-3.43-.74-5.65 1.81-8.63 2.77-2.72.88-5.65.66-8.46.44-3.24-.26-6.47-.57-9.7-.86l-10.18-.91c-3.22-.29-6.5-.59-9.68.18a1.2 1.2 0 0 1-.18.05c-1.4-1.24-3.69-1.42-4.75.73-.47.96-.97 1.91-1.48 2.85a27.22 27.22 0 0 0-4.91 6.8c-.36.15-.7.37-1 .65a17.94 17.94 0 0 0-3.41 4.65c-.85 1.57-1.56 3.25-2.62 4.69l.15-.19c-.34.45-.6.92-.7 1.46l-.68.11a7.81 7.81 0 0 0-3.2 1.51c-.85.66-1.53 1.45-2.28 2.21-.83.84-1.8 1.49-2.68 2.27-1.99 1.77-3.45 4.49-2.77 7.21.63 2.5 2.84 4.03 4.46 5.88a29.14 29.14 0 0 1 3.96 5.98c.27.52.61.89.99 1.15.11 3.08.19 6.16-.07 9.23a25.04 25.04 0 0 1-1.34 6.42c-1.7.49-2.53 2.19-2.21 3.86.6 3.08 2.08 5.87 2.53 9 .45 3.12.3 6.32.2 9.46-.07 2.26 1.86 3.32 3.62 3.06a148.5 148.5 0 0 1 4.87 6.29c2.13 2.91 3.93 6.49 7.05 8.46 1.11.7 2.98.5 3.85-.53 4.13-4.85 9.22-9.01 13.85-13.38 1.12-1.06 2.23-2.14 2.89-3.56.66-1.42.94-3 1.24-4.53.43-2.18.73-4.39.94-6.6 4.58.76 9.35 1.41 13.87 0 4.69-1.47 7.68-4.73 9.98-8.95a88.26 88.26 0 0 0 6.17-14.3c1.58-4.7 3.32-9.42 4.34-14.28 1.22-5.75 1.41-11.64 1.57-17.5 0-.26-.01-.5-.05-.72l2.05-4.93c.67-1.62 1.43-3.18 1.24-4.98ZM275.09 153.7a52.46 52.46 0 0 0-6.21 5.99c-1.82 2.08-3.36 4.29-5.69 5.84a58.23 58.23 0 0 1-15.47 7.06c-2.61.78-5.6.96-7.09 3.56-1.4 2.46-2.44 5.3-3.42 7.95a38.26 38.26 0 0 0-2.01 8.22c-.32 2.4-.58 4.83-1.91 6.92-1.76 2.77 2.67 5.3 4.43 2.53l.4-.69 14.61-9.42 7.43-4.79c2.32-1.5 4.83-2.87 6.98-4.61 2.03-1.66 2.54-3.9 2.71-6.41.16-2.44.91-4.62 2.1-6.75 1.27-2.28 2.87-4.36 4.39-6.47 1.52-2.11 3.35-4.37 3.13-7.13-.19-2.33-2.61-3.25-4.37-1.81ZM127.81 207.92c-2.86-2.99-3.15-7.6-5.49-10.94-1.46-2.09-3.35-3.65-6-3.69-2.82-.04-5.68.38-8.5.5-11.74.49-23.5.03-35.17-1.32-1.37-.16-2.56 1.27-2.57 2.54 0 1.51 1.17 2.41 2.54 2.57l.41.04c-1.04.58-2.02 1.27-3.14 1.7-.21 0-.44.03-.67.1-.53.14-1.14.33-1.76.57-.88.17-1.77.3-2.64.43-1.85.28-2.23 2.41-1.5 3.81 0 1.04.46 2.01.87 2.97l1.51 3.58c.97 2.31 2.3 4.27 5.08 4.2 2.34-.06 4.11-1.78 6.3-2.36 2.23-.58 4.55-.61 6.83-.91 2.43-.31 4.77-1.04 7.19-1.4 2.71-.41 5.45.07 8.14.43 2.7.36 5.42.55 8.14.7 6.2.36 12.41.64 18.63.85 2.3.08 3.3-2.81 1.81-4.37ZM182.62 321.85c-1.15-.36-2.39-.22-3.58-.26-1.38-.04-2.75-.29-4.13-.23-2.99.13-5.69 1.32-8.37 2.56-.8.37-1.26 1.36-1.28 2.2-.11 5.52-.22 11.06.29 16.56.25 2.71.62 5.41 1.21 8.07s1.44 5.22 1.21 7.98c-.15 1.78 1.28 2.58 2.67 2.44.38.29.88.48 1.49.49 1.67.03 3.34-.03 5-.22 1.36-.15 2.88-.21 4.11-.87 2.37-1.28 2.51-4.7 2.83-7.06.8-5.79.59-11.62.86-17.44.12-2.68.48-5.29.87-7.95.39-2.65-.34-5.39-3.18-6.27ZM227.72 348.42c-1.37-4.88-2.09-9.86-3.16-14.8a62.6 62.6 0 0 0-1.92-6.88c-.4-1.17-.73-2.54-1.68-3.41-1.05-.96-2.38-.87-3.69-.79-5.1.29-10.3.85-15.37-.03-1.36-.23-2.75.39-3.13 1.8-.33 1.24.44 2.89 1.8 3.13l.16.02c.05.28.15.55.33.79 3.08 4.09 5.4 8.7 7.83 13.2 2.64 4.9 5.23 9.83 7.76 14.78.47.92 1.84 1.55 2.85 1.19 2.44-.85 5.21-1.48 7.5-2.67 2.65-1.37 1.32-4.18.72-6.33Z"/>
    <path d="M262.14 66.39c-1.36-5.24-5.48-7.89-9.74-10.7l-14.59-9.63-7.43-4.9c-2.12-1.4-4.21-2.98-6.62-3.84-2.51-.9-5.17-.58-7.75-.31-2.91.31-5.82.68-8.71 1.11-5.67.83-11.31 1.87-16.93 2.95-5.3 1.02-10.77 1.82-15.86 3.66-7.83 2.84-14.08 8.46-18.62 15.28a2.73 2.73 0 0 0-3.39 1.7 9.72 9.72 0 0 0-.15 5.94c.18.62.6 1.09 1.12 1.42.5 6.7-.91 13.52-4.16 19.45-1.83 3.35-6.63 7.87-4.86 12.08.55 1.31 2.04 1.68 3.22 2.26 1.16.56 2.3 1.14 3.43 1.75 2.13 1.15 4.39 2.31 6.32 3.78 2.04 1.56 1.45 4.39 1.92 6.68a20.07 20.07 0 0 0 3.19 7.36c.09.13.2.25.3.36.59 1.21 2 2.02 3.5 1.16a9.02 9.02 0 0 0 4.34-5.86c.53-2.61-.39-5.16-.47-7.77a12.1 12.1 0 0 0-2.16-7.02c-1.3-1.82-2.79-3.29-3.67-5.37 0-.02-.02-.03-.03-.05-.05-.13-.09-.26-.17-.39-1.92-3.49-3-7.78-1.21-11.55 1.9-3.99 6.32-4.46 9.59-6.87 3.64-2.69 6.05-6.69 8.61-10.34l3.9-5.56c1.15-1.64 2.34-4.28 4.35-4.97 1.55-.53 3.4-.25 4.99-.09 2.75.27 5.5.57 8.24.86l14.58 1.52c2.41.25 4.85.65 7.26.33 2.19-.3 4.15-1.25 6.14-2.18 3.82-1.78 7.63-2.38 11.12.35a22.69 22.69 0 0 1 4.11 4.42c1.32 1.78 3.22 3.83 3.1 6.17-.13 2.53-1.12 5.24-1.75 7.68-.73 2.81-1.53 5.61-2.36 8.4-.85 2.83 3.21 4.37 4.68 1.92 1.03-1.7 3.21-2.39 4.81-3.42a19.22 19.22 0 0 0 4.99-4.61 15.5 15.5 0 0 0 2.83-13.13Z" style="fill:#717374"/>
    <path class="c" d="M225.01 111.67c-1.87-.56-3.8-.8-5.74-.92-.86-.06-1.72-.09-2.57-.17l-.69-.07-.18-.02h-.06c-.46-.09-.91-.17-1.35-.28-1.3-.32-4.71-.55-5.01.81-.3 1.33.75 4.38 3.69 4.12 1.93-.17 3.82.57 5.75.69l1.29.09.69.06.17.01c.91.08 1.84.35 2.7.6 1.28.38 2.83-.48 3.13-1.8a2.61 2.61 0 0 0-1.8-3.13Z"/>
    <path d="M321.2 128.95c0-.11-.02-.2-.03-.31 0-.42-.02-.84-.08-1.25-.19-1.37-1.3-2.01-2.55-2.25-.98-.19-1.98-.26-2.98-.27-.07 0-.13-.02-.2-.03-.95-.07-1.9-.16-2.82-.24a8.9 8.9 0 0 0-.29-2.17l-.04-1.33c-.04-.64-.02-1.33-.3-1.92-.3-.65-.88-.95-1.53-1.18a7.66 7.66 0 0 0-2.33-.41l-.15-.08c-.92-.13-1.85-.23-2.77-.34-1.59-.19-3.17-.46-4.77-.65-1.2-.14-2.41-.27-3.59-.51-.95 0-1.9.01-2.85.07-1.28.07-2.75 0-3.97.45-1.01.38-1.18 1.36-1.52 2.28-.65 1.75-2.03 1.74-3.59 1.41-1.13 0-2.24-.07-3.36-.12-.86-.04-1.71-.04-2.57.05-1.23.14-1.97.43-2.46 1.16-.18.15-.32.35-.39.64l-.07.32c-.07.22-.14.47-.2.74a91.04 91.04 0 0 0-.65 3.29 88.7 88.7 0 0 0-1.74 10.62c-.21 2.47-.35 4.95-.51 7.43l-.18 2.67c-.61 2.73-.52 5.73-2.89 7.86a35.33 35.33 0 0 0-6.7 7.76c-.57.92-1.7 1.6-2.65 2.13a87.3 87.3 0 0 1-14.91 6.58c-4.34 1.45-4.56 1.74-6.92-.9-1.21-1.36-2.45-2.69-3.68-4.02a1.18 1.18 0 0 0-.58-.95c-.27-.17-.53-.36-.79-.54-2.79-2.95-5.7-5.74-7.88-9.31-.45-.74-.97-1.43-1.53-2.1l-.15-.23a6.75 6.75 0 0 0-.86-.91c-1.32-1.41-2.77-2.74-4.11-4.13l-.08-.04c-.28-.13-.41-.18-.72-.3l-1-.43-6.78-1.34c-.12-2.86-.17-5.86.92-8.81v-.02l.11-.3h.03a.91.91 0 0 1 .86-.41h.12c1.23.24 2.57.01 3.82.12 1.29.1 2.56.11 3.85 0 2.1-.18 4.17-.76 6.2-1.38 1.63-.86 3.03-2 4.33-3.34.68-.7 1.36-1.41 1.94-2.19a74.93 74.93 0 0 0 5.64-11.08c1.7-4.11 2.43-8.49 3.87-12.68.72-2.1 1.49-4.22 2.34-6.29.42-1.55.65-3.3 1.52-4.58a26.82 26.82 0 0 1 4.84-5.51 94.95 94.95 0 0 0 9.9-9.75c1.71-1.9 3.04-4.05 2.77-6.88a57.76 57.76 0 0 1-.12-6.84c.05-2.13.09-4.23-1.54-6.11 1.18-1.63 2.25-3.21 3.44-4.7 1.81-2.28 3.69-4.5 5.54-6.73 1.52-1.83 1.48-2.91-.16-4.57-.99-1-1.93-2.04-2.98-2.98-2.16-1.92-4.22-4.02-6.62-5.59a33.84 33.84 0 0 1-4.64-3.51 36.97 36.97 0 0 0-3.89-3.29 92.9 92.9 0 0 1-14.75-12.68l-1.36-1.46-.16-.22a19.42 19.42 0 0 0-2.76-2.9 27.62 27.62 0 0 0-6.87-4.24 1.74 1.74 0 0 0-.59-.13c-.11-.03-.23-.08-.34-.1-2.86-.61-5.43.8-8.09 1.35a45.1 45.1 0 0 0-6.96 2.24c-5.72 1.97-11.3 4.27-16.97 6.42l-1.33.49c-.72.18-1.43.41-2.08.76-2.18.8-4.37 1.57-6.56 2.32l-2.23.55c-1.1.29-2.17.71-3.22 1.14-.28.12-.57.24-.85.38-2.37.75-4.75 1.48-7.14 2.17a1.2 1.2 0 0 0-.67.49c-1.8.67-3.47 1.58-5.12 2.56-1.54.91-3.09 2.06-3.4 4.07-.25 1.65-.51 3.3-.6 4.96-.18 3.16-.32 6.3-1.43 9.35-.65 1.78-.9 3.7-1.38 5.76-1.69.77-3.06 2.43-4.45 3.82-1.76 1.75-3.38 4.28-3.71 6.65-.38 2.74.68 5.68 1.19 8.52.25 1.37 1.18 2.81.92 4.04-.68 3.25-1.45 6.49-3 9.53-2.29 4.5-5.22 8.69-6.57 13.65-.53 1.96-.42 2.52 1.28 3.76a64.51 64.51 0 0 0 10.31 6.28c1.12.54 2.43 1.43 2.88 2.49 1.34 3.14 2.8 6.38 3.25 9.71.54 3.94 2.12 6.01 5.96 5.83 1.22 5.4 3.58 10.32 3.44 15.8 0 .29-.09.58-.29.78-.52.54-1.24.76-1.92 1.02l-.23.09c-.35.17-.7.31-1.04.43-2.08.76-4.32 1.08-6.5 1.41-5.19.79-10.55 2.13-14.72 5.48-4.68 3.76-7.27 9.75-10.62 14.62a115.6 115.6 0 0 1-5.9 7.89c-2.12 2.58-4.52 4.91-6.68 7.46a16.22 16.22 0 0 0-2.82 4.33c-.22.54-.4 1.1-.63 1.63-.06.64-.2 1.12-.42 1.51-.61 2.05-3.48 2.3-5.37 2.36-3.53.1-7.08-.12-10.61.17-4.57.37-9.08 1.72-13.7 1.27-2.09-.2-3.91-.85-5.92-1.38-.83-.22-1.69-.36-2.51-.61-3.12-.43-6.18-.52-9.28.43-.2.07-.4.12-.6.2-.34.13-.79.39-1 .59a4.6 4.6 0 0 0-1.24 2.32c-.08.4-.03.72.06 1.12.12.52.28 1.02.39 1.54.12.56-.23 1.23-.83 1.29-.52.34-1.24.51-1.83.8-2.09 1.03-3.85 2.84-3.22 5.32.26 1.03.67 1.98.83 3.04.14.93.17 1.88.21 2.82.09 2.17.3 4.49 2.64 5.29.78.26 1.56.45 2.32.77 1.21.5 2.45 1.07 3.78 1.17 2.24.17 4.45-.84 6.51-1.58 2.08-.76 4.12-1.65 6.22-2.36 1.07-.36 2.14-.62 3.23-.82 1.52-.47 3.06-.88 4.64-.83 2.17-.6 4.49 0 6.68.4 3.43.61 6.96.8 10.44 1 3.59.21 7.19.37 10.79.43 1.8.03 3.6 0 5.4.15 1.74.14 3.46.34 5.2.24l.09.01c.19-.02.4.01.61.17.95.7 2.23.57 3.3.27 1.44-.41 2.87-.92 4.28-1.42.9-.32 1.79-.69 2.67-1.06l1.66-.48c1.15-.31 2.31-.63 3.43-1.05.58-.21 1.14-.49 1.72-.69l.51-.16c.2.27.3.62.18.93.52.99.5 1.87-.08 2.81-.74 1.2-1.38 2.46-2.06 3.69-3.55 6.4-7.83 12.37-10.98 19-1.31 2.76-2.82 5.44-4.02 8.25-.75 1.74-1.55 3.57-1.2 5.05 1.08 1.23 2.4 2.04 2.44 2.91.13 2.93 1.73 5.29 2.61 7.91 1.06 3.16 2.62 6.17 3.44 9.38 1.03 4.04 2.92 7.7 4.36 11.56 1.6 4.29 3.44 8.51 4.7 12.9 1.84 6.43 3.26 12.98 4.86 19.47 1.15 4.68 3.33 8.6 7.9 10.59.45-.01.89-.03 1.31.21.6.34.66 1.08.67 1.7-.14 4.87.31 9.74.92 14.58v.03c.56 5.52 1.24 11.03 1.76 16.55.18 1.86.6 3.86-1.1 5.43-.38.35-.47 1.09-.55 1.66-.12.9-.2 1.8-.27 2.71a71.88 71.88 0 0 0-1.96 9.66c-.38 1.53-.7 3.08-1.17 4.59-.12.38-.15.73-.14 1.06-.05.58.03 1.16.24 1.72.28.75.57 1.53 1.34 1.91 1.19.58 2.49.89 3.81.95l.18-.03c.66.04 1.3.06 1.84.06h2.14l.42.05c1.47.14 2.97.11 4.46.09h.53c.19-.05.37-.09.56-.12l1.75-.23c2.14-.1 4.28-.22 6.4-.34 2.72-.16 5.46-.35 8.15-.75a6.1 6.1 0 0 0 2.47-.89c.78-.27 1.23-.87 1.29-1.82.05-.26.08-.53.06-.83a1.23 1.23 0 0 0-.2-.62c-.03-.15-.04-.28-.08-.43a26.31 26.31 0 0 0-4.38-9.44c-2.31-3.04-4.2-6.41-6.18-9.68a2.58 2.58 0 0 1-.15-2.02c1.81-4.58 2.03-9.45 2.16-14.22.21-7.27-.25-14.56-.43-22.12 2.52.12 4.98.21 7.43.4.46.03.99.38 1.31.73 1.29 1.44 2.73 2.82 3.73 4.46 3.65 5.91 7.12 11.94 10.68 17.91l.22.4c.74 1.43 1.49 2.86 2.19 4.3.22.35.45.7.66 1.06.16.27.29.55.42.83a7.5 7.5 0 0 1 1.1 2.6c.48 1.76-.29 3.24-.86 4.88a32.24 32.24 0 0 0-1.42 5.63c-.13.82-.21 1.67-.38 2.49-.2 2-.36 3.99-.44 5.99-.13 3.15 1.54 5.16 4.22 5.74 3.01 0 6.01.05 9.02-.02 5.27-.13 10.54-.36 15.8-.53 2.56-.08 5.32-.04 7.83-.59 1.91-.42 3.22-2.17 3.83-3.93.58-1.67.43-3.37.11-5.08-.09-.49-.2-.99-.32-1.48-.17-.46-.37-.91-.59-1.35-.1-.13-.18-.26-.29-.38-.58-.7-1.15-1.41-1.71-2.12a23.74 23.74 0 0 0-4.58-5.47 14 14 0 0 0-2.61-2.12c-.99-.6-2.06-1.02-3.16-1.39-1.83-.87-3.71-1.66-5.49-2.62-1.19-.65-2.34-1.33-2.94-2.6a10.03 10.03 0 0 1-.74-3.52l-.21-.96-.07-.13c-.1-.61-.21-1.21-.33-1.82-.25-1.15-.54-2.28-.83-3.42l-.2-.78-.15-.59c-.19-.8-.27-1.63-.39-2.44-.54-1.97-1.08-3.94-1.6-5.92-.76-2.86-1.39-5.75-2.08-8.62l1.22-.74.64-.48.13-.09.09-.07.07-.06.15-.13.27-.28.09-.14c.03-.06.06-.13.1-.18s0-.01 0-.03l.13-.48c.08-.37.11-.59.14-.86l.01-.11c-1.13-5.9-2.2-11.58-3.33-17.23-.45-2.24-1.2-4.42-1.64-6.66-.68-3.44-1.28-6.91-1.78-10.38-.6-4.18-1.09-8.38-1.59-12.58-.32-2.66-.39-5.37-.91-7.99-1.06-5.33-2.41-10.6-3.49-15.92-.13-.63-.29-1.33-.22-2.03l-.02-.18c-.01-1.16.22-2.33.53-3.49a968.2 968.2 0 0 1-.26-5.38c-.08-1.75-.14-3.48-.4-5.21l-.31-2.16a11.9 11.9 0 0 1-.66-2.3c-.4-2.36.49-4.79 1.4-6.94 1.15-2.71 2.39-5.29 3.32-8.09.45-1.36.85-2.74 1.28-4.11.36-1.13 1.11-2.16 1.37-3.3a.93.93 0 0 1 .24-.45c.09-.52.27-1.05.44-1.75.85.71 1.37 1.17 1.92 1.58.75.55 1.5 1.11 2.27 1.62 1.04.48 2.1.93 3.21 1.25 1.25.36 2.67.63 3.96.28.12-.14.27-.22.43-.29.14-.21.25-.44.35-.59.37-.58.77-1.05 1.33-1.47 1.29-.96 2.87-1.62 4.29-2.38 1.57-.84 3.21-1.62 4.68-2.62.48-.33.95-.67 1.42-1.02a8.92 8.92 0 0 1 1.95-1.59c2.51-1.41 4.84-3.2 7.44-4.41a40.25 40.25 0 0 0 7.84-4.86c1.48-1.14 3.07-2.13 4.76-3.28.02 1.83.19 3.01.69 3.89.08.59.27 1.13.7 1.57.53.55 1.21.89 1.93 1.13 1.36.61 2.88.81 4.41 1.01l8.68 1.13 13.24 1.72c3.32.57 6.65 1.07 10.01 1.37 3.55.32 4.79-1.13 5.6-4.17.5-1.86.71-3.81.99-5.72.84-5.84 1.6-11.69 2.5-17.52.73-4.7 1.7-9.37 2.42-14.07.82-5.39 1.47-10.81 2.23-16.21l.08-.33.02-.6c.49-1.98.67-4.04.71-6.08.02-1.14.03-2.29-.02-3.43Zm-29.73-4.33c.1-.75.26-1.51.4-2.28a2.58 2.58 0 0 1 .21-1.6c.02-.28.05-.55.05-.83-.01-.92.97-1.19 1.58-.82 1.81-.77 4.46-.2 6.19.13l1.71.31c1.61.19 3.21.47 4.8.87.58.15 1.14.42 1.7.65.4.16.63.42.78.7.78.86.68 2.12.45 3.22-.23 1.14-.51 2.69-1.39 3.52a.55.55 0 0 1-.09.07c-.42 1.05-1.07 1.25-2.68.85-1.3-.33-2.61-.51-3.92-.63l-1.47-.04c-1.48-.04-2.96-.22-4.43-.23-.99 0-2.15.04-3.03-.49-1.16-.7-1-2.25-.85-3.4Zm-45.15-56.44c-.83 1.44-.52 3.03-1.27 4.41-.62 1.14-1.51 2.55-1.3 3.66.5 2.75-.96 5.17-.81 7.8.06 1.05-.04 2.1-.03 3.16.04 5.6-.76 11.04-2.74 16.3-1.41 3.76-2.59 7.61-4.09 11.32-1.71 4.23-3.39 8.5-5.59 12.48a11.75 11.75 0 0 1-8.41 6.09c-4.52.9-8.75-.07-13-.81-2.7-.47-5.35-1.8-7.79-3.15a22.79 22.79 0 0 0-6.12-2.11l-.15-.02-.28-.01-.54-.03a5.47 5.47 0 0 1-1.67-.43l-.6-.16c-.12-.02-.13-.02-.02-.01l-.33-.04-.13-.02H191.3a6.5 6.5 0 0 0-.62-.06h-.14l-.08.02h-.03l-.18.1-.06.04c-.09.05-.2.2-.25.26s0 .01 0 .03l-.09.14-.02.23v.32c-.02-.15.06.19.07.22l.02.06.09.16.13.21a3.18 3.18 0 0 0 .58.6l.17.11.35.23c.42.27.86.54 1.3.78a7.05 7.05 0 0 0 2.65.53c2.83.03 5.27 1.39 7.76 2.5 1.67.75 3.25 1.67 5 2.58-.38 2.5-.71 5.02-1.18 7.51a4.2 4.2 0 0 1-1.04 2.03c-1.87 1.94-3.83 3.8-5.79 5.66-3.95 3.76-7.92 7.49-11.81 11.17-3.23-1.46-4.91-4.06-6.81-6.46-2.39-3.03-4.84-6-7.33-8.95-.48-.57-1.22-.93-2.04-1.54 1.4-1.03.88-2.32.82-3.59-.27-5.5-2.01-10.68-3.38-16.24 3.57-2.3 3.91-5.99 3.81-9.91-.07-2.65.13-5.3.11-7.95 0-.74-.17-1.65-.62-2.18-2.43-2.88-4.97-5.65-7.45-8.48a22.6 22.6 0 0 1-2.11-2.68c-.66-1.04-.76-2.29.07-3.23 2.15-2.43 4.3-4.88 6.68-7.06 1.01-.93 1.62-1.19 2.29-.91.93.13 1.79.54 2.55 1.11.8.59 1.42 1.21 2.31 1.65l.54.23c.25.1.51.2.77.25.32.06.58-.03.71-.29v-.07l.01-.06a4.6 4.6 0 0 0-.17-.53l-.04-.1-.04-.08a2.58 2.58 0 0 0-.74-.82l-.17-.13-.35-.27a4.93 4.93 0 0 1-.49-.42l-.06-.08-.13-.09c-.51-.47-.91-1.06-1.3-1.53.38-3.72 2.88-6.21 4.71-9.01 2.93-4.47 6.09-8.78 9.13-13.12 2.81.54 5.47 1.21 8.2.64 3.18-.66 6.31.09 9.44.37 3.59.31 7.15.93 10.73 1.39.96.12 1.94.08 2.9.18 1.56.15 3.12.37 4.69.53 2.12.22 4.08.26 5.95-1.34 1.56-1.34 3.64-2.04 5.45-3.11 1.07-.63 1.9-.23 2.61.48 1.99 1.99 4.03 3.94 5.81 6.1.75.91 1.56 2.72 1.15 3.42Zm-39.65 89.87c-.63 2.55-1.29 5.09-2 7.62-.35 1.23-.61 2.48-.94 3.71-.3 1.12-.71 2.19-1.66 2.9-.35.26-.84.1-1.13-.15a9.35 9.35 0 0 1-.46-.43c-2.67-1.84-4.91-4.26-7.81-5.76a.79.79 0 0 1-.45-.66.72.72 0 0 1 .12-.74c1.06-1.39 2.12-2.78 3.28-4.08.52-.59 1.07-1.15 1.62-1.72.33-.37.67-.73 1.02-1.09.28-.3.57-.59.84-.9 1.14-1.31 2.24-2.67 3.51-3.85.65-.6 1.36-1.1 2.1-1.58.23-.38.61-.56 1.06-.68l.66-.42c.53-.34 1.2.01 1.37.56.76 2.38-.16 4.93-1.11 7.27ZM163.29 43.9c.57-2.32.68-4.66 1-6.98a11.59 11.59 0 0 1 3.15-6.39c1.3-1.36 2.88-1.97 4.57-2.45 6.41-1.8 12.88-3.37 18.87-6.42 1.95-.99 4.11-1.56 6.16-2.36 2.78-1.09 5.49-2.36 8.32-3.3 3.84-1.27 7.84-2.06 11.61-3.49a23.95 23.95 0 0 1 8.41-1.6c.4 0 .88-.09 1.18.09 1.35.81 2.76 1.57 3.94 2.59 3.04 2.64 6.29 5.14 8.87 8.19 3.1 3.68 6.96 6.35 10.53 9.42 1.73 1.49 3.49 2.94 5.28 4.36 2.27 1.79 4.58 3.53 6.88 5.29 1.52 1.17 3.16 2.22 4.55 3.53 1.77 1.69 1.6 2.82-.2 4.37-.93.8-1.84 1.64-2.63 2.57-1.53 1.8-2.97 3.69-4.48 5.57-2.74-.4-4.38-1.82-6.02-3.48a55.29 55.29 0 0 0-7-5.95c-2.26-1.64-4.82-2.87-7.18-4.38-1.55-.99-2.93-2.25-4.5-3.2a333.83 333.83 0 0 0-10.06-5.74 2.8 2.8 0 0 0-1.55-.22c-4.78.5-9.64.69-14.32 1.67-3.97.83-8.03 1.25-11.98 2.22-3.15.61-6.3 1.26-9.43 1.96-5.48 1.08-10.96 2.21-16.43 3.33-.33.07-.66.22-.95.4-2.18 1.4-4.35 2.82-6.61 4.29 0-1.37-.24-2.7.05-3.9Zm5.81 75.25c-.62 1.52-1.45 3.06-3 3.76-.97.44-2.35.55-2.83-.37l-.12-.05c-1.23-4.08-2.55-8.24-3.71-12.45-.53-1.92-1.9-2.87-3.46-3.73-3.06-1.69-6.15-3.33-9.2-5.06-1.73-.98-1.95-1.56-1.08-3.42 1.88-4.02 3.87-7.98 5.82-11.97a31.92 31.92 0 0 0 3.41-11.85c.1-1.39-.6-2.89-1.13-4.26-1.3-3.32-1.35-3.3-1.02-6.61l.17-.05c.58-1.13 2.32-1.51 3.54-1.84 1.71-.46 3.47-.7 5.21-1l6.38-2.07a6.14 6.14 0 0 0 1.86-1.64l.59-2.05a.96.96 0 0 0-.5-.49c-3.92.62-7.25 2.8-10.98 3.36l-.33-.67c1.96-1.55 3.97-3.04 5.88-4.65 2.56-2.17 6.05-2.82 8.45-5.26.37-.38 1.11-.41 1.69-.58.67-.19 1.35-.32 2.01-.52 4.03-1.23 8.14-2.06 12.28-2.82 6.27-1.14 12.67-1.03 18.9-2.17 2.47-.45 5.07-.54 7.5-1.48.16.02.32.01.47-.05.85-.34 1.7-.72 2.56-1.04.93-.22 1.89-.39 2.82-.6.38-.08.87.1 1.25.29 1.41.7 2.87 1.35 4.18 2.21 7.03 4.62 14.06 9.24 21.03 13.97 3.37 2.29 6.59 4.8 9.9 7.18.63.45 1.35.78 2.02 1.16.32 1.55.99 3.11.87 4.61-.17 2.03.19 4.15-.88 6.11-.78 1.44-1.1 3.14-1.92 4.56-2.4 4.2-6.14 7.08-10.27 10.23-.05-1.7-.08-3.34 0-4.93-.02-.07-.05-.15-.05-.23 0-1.72-.06-3.5.32-5.2.3-1.33.82-2.61 1.3-3.89.61-1.63 1.43-3.58 1.37-5.41-.48-2.11-2.29-3.61-3.58-5.34-1.04-1.39-2.25-2.66-3.27-4.06-1.35-1.86-3.25-2.89-5.28-3.74a2.24 2.24 0 0 0-1.51-.05c-1.3.5-2.56 1.12-3.83 1.72-1.8.85-3.58 1.73-5.39 2.54-.1.04-.23.02-.37-.02-1.66.6-3.48.52-5.23.25a36.95 36.95 0 0 1-4.64-1.14h-.54c-2.77.1-5.55-.59-8.34-.83-3.16-.27-6.33-.48-9.5-.62-2.9-.13-5.82-.04-8.71-.26-1.83-.14-3.02.59-3.95 2-1.72 2.61-3.35 5.28-5.15 7.83-1.87 2.63-3.92 5.13-5.84 7.72-.57.76-.95 1.65-1.47 2.45-.72 1.12-1.37 2.25-3.14 1.65-.55-.18-1.45.38-2.07.78-3.34 2.21-5.62 5.48-8.24 8.42a5.6 5.6 0 0 0-1.45 3.81 6.36 6.36 0 0 0 1.32 3.91c2.2 3.27 4.38 6.54 7.26 9.29a5.66 5.66 0 0 1 1.6 3.21c.09.92.19 1.84.26 2.77.1.71.11 1.43.16 2.15.15 2.17.45 4.47-.39 6.54Zm.07 32.47c.02-1.45 0-2.91 0-4.36l.42-.29c2.44 3.06 4.8 6.19 7.36 9.15 2.58 2.98 5.35 5.79 8.26 8.91-4.51 4.1-9.56 7.2-14.14 11.05-1.51-2.88-1.58-5.88-1.53-8.92.06-3.43.37-6.84-.42-10.27-.38-1.67.03-3.51.05-5.27Zm-44.42 58.06c-2.66-.81-5.34-.58-8.07-.21-1.34.19-2.74-.11-4.11-.16-1.23-.04-2.49-.2-3.7-.04-3.27.43-6.46-.27-9.68-.4-2.09-.09-4.12-1.21-6.24-.71a11.3 11.3 0 0 1-4.3 1.06c-.82.21-1.64.43-2.45.68l-1.2.42c-3.03.72-5.98 1.65-8.95 2.61a17.9 17.9 0 0 1-5.09 1.1 4.7 4.7 0 0 1-2.55-.55c-.69-.42-.55-1.02-.17-1.51 1.03-.51 2.21-.79 3.29-1.07 1.74-.46 3.49-.86 5.26-1.21.81-.16.48-1.39-.32-1.24-1.17.23-2.33.49-3.49.77-1.99.27-3.98.52-6 .53-.71 0-1.37-.9-.89-1.55.1-.13.21-.22.32-.32 1.15-.44 2.39-.61 3.61-.76l6.2-.75c.81-.1.82-1.37 0-1.28l-6.59.79c-1.28.16-2.56.36-3.75.82-.56-.4-.68-1.28.04-1.71l.16-.08c1.22-.33 2.44-.64 3.69-.85 1.85-.31 3.72-.4 5.59-.31.82.04.83-1.24 0-1.28a28 28 0 0 0-5.71.32c-1.35.21-2.67.55-3.99.91l-.31.02a.92.92 0 0 1-.95-.78c-.35-.46-.27-1.22.25-1.54.11-.1.25-.19.43-.24 1.67-.44 3.3-.98 5.02-1.18a45.5 45.5 0 0 1 5.22-.24c.05 0 .09.02.14.03h.27a3 3 0 0 1 .83.17 11 11 0 0 1 1.44.66c.31.17.61.37.91.56l.61.26c.46.22.95.48 1.41.67.25.1.51.2.78.27l.35.08c.13.02.07.02.25.02.38 0 .65-.04.98-.37a2 2 0 0 0 .43-.6l.03-.12v-.21l-.04-.14c0-.03-.05-.13-.06-.16a3.1 3.1 0 0 0-.77-1.03l-1.59-1.17c-.82-.4-1.65-.78-2.5-1.13-1.2-.49-2.44-.88-3.7-1.18-1.07-.26-2.17 0-3.23-.3-.99-.28-.89-1.41-.18-1.87.11-.11.25-.2.45-.24 2.89-.67 5.65-.24 8.46.24a7.93 7.93 0 0 1 .75.13l2.01.32c2.12.29 4.11 1.21 6.25 1.39 1.04.09 2.08.05 3.12-.04 1.38-.3 2.77-.68 4.15-.8 2.63-.23 5.25-.63 7.88-.79 3.95-.25 7.91-.39 11.87-.52 1.5-.05 2.47.48 3.25 2.03 1.18 2.32 3.05 4.28 4.37 6.55 1.27 2.17 2.3 4.5 3.58 7.13-1.02.05-2.05.07-3.07.1Zm65.11 165.44c.96 1.81 2.2 3.86 1.36 6.33-.98 0-1.93-.05-2.86 0-2.27.14-4.48.29-6.72 1.07-2.25.79-4.68 1.09-7.07 1.44-1.45.05-2.9.09-4.35.11a12.13 12.13 0 0 1-4.17-1.58c-.71-.32-1.35-.76-1.63-1.56-.41-1.15-.03-2.4.27-3.53.39-1.47.68-2.94.9-4.44.25-1.69.33-3.42.77-5.08.25-.95.59-1.89.99-2.79.33-.75.76-1.59 1.55-1.92l.04-.16 13.34-.52c2.56 4.19 5.29 8.29 7.58 12.61Zm-22.38-50.59c5.32-.66 10.39-2.58 16.06-.96v.06c.5.03.96.35.96.98 0 5.61.09 11.26-.21 16.87-.14 2.66-.4 5.31-.77 7.95-.38 2.76-.58 5.55-.97 8.31.02.24.02.49-.04.72-.16.59-.67.99-1.23 1.17-.51.16-1.04.07-1.56.05h-.35l-.21.02-.14.02-.3.04c-.88.12-1.88.27-2.85.25-.52.06-1.04.11-1.56.13a10.6 10.6 0 0 1-3.13-.28c-1.83-.06-2.14-.8-2.32-2.99-.33-3.93.08-7.88-1.06-11.8-.32-1.1-.39-2.27-.38-3.46l-.04-.52c-.08-1.37-.03-2.73-.12-4.1-.26-3.83-.39-7.63-.39-11.47 0-.49.28-.79.63-.92v-.07Zm62.21 32.08c2.74.68 5.41 1.62 8.06 2.59a22.6 22.6 0 0 1 6.5 3.86c.33.35.64.73.94 1.13a34.83 34.83 0 0 1 3.18 5.42c.13.71.26 1.43.46 2.13.25.86.34 1.63.1 2.37a5.8 5.8 0 0 1-1.04.82 14.84 14.84 0 0 1-6.94 2.26c-1.73.04-3.45.07-5.18.09-2.74-.08-5.47-.27-8.2-.53l-1.7-.02c-1.75-.03-3.54-.15-5.28-.03-.87.06-2.38.22-3.51-.09a1 1 0 0 1-.53.16c-.61 0-.93-.44-.97-.92h-.05l.9-14.38.05-.02c.29-1.31 1.66-1.87 2.9-2.36 1.91-.74 3.89-1.4 5.91-1.75 1.44-.39 2.89-.69 4.4-.73Zm-2.03-3.66-8.58 2.33c-1.07-1.7-2.36-3.56-3.45-5.52-3.35-6.03-6.49-12.18-9.97-18.13-1.52-2.6-3.65-4.83-5.75-7.55h20.49c3.67 9.1 5.59 18.94 7.27 28.87Zm-13.06-78.61c.32 1.24.6 2.49.84 3.75.85 3.43 1.81 6.83 2.13 10.38.45 4.87 1.52 9.49 2.59 14.24.29 1.31.53 2.63.74 3.95.28 1.04.56 2.08.86 3.12.73 2.52 1.03 5.18 1.4 7.79.19 1.3-.4 2.22-1.84 2.41-2.52.35-5.02.95-7.55 1.04-5.03.19-10.07.22-15.1.1-2.9-.07-5.78-.69-8.68-.85-3.49-.19-7-.23-10.5-.27-1.08.06-2.15.11-3.23.19-2.81.19-5.62.51-8.44.57-2.1.34-4.15-.19-6.23-.63a2.83 2.83 0 0 1-2.28-1.96c-.81-2.4-1.76-4.77-2.4-7.22-.98-3.78-1.84-7.6-2.76-11.4l-.02-.05c-.68-1.94-1.37-3.87-2.11-5.79-1.62-4.25-3.19-8.49-4.96-12.68a209.86 209.86 0 0 1-4.95-12.75c-1.35-3.9-2.17-7.98-3.69-11.82-.53-.54-.61-1.33.04-1.98a4.11 4.11 0 0 1 2.97-.97c1.8.1 3.67.68 5.45.98 2.1.35 4.19.55 6.31.75 4.17.39 8.3.94 12.49 1.07l1.61.03c.6-.28 1.17-.64 1.72-1.13a87.3 87.3 0 0 1 1.8-1.56c.42-.66.83-1.31 1.25-1.87 2.34-3.1 6.34-3.8 9.98-4.12 2.49-.22 4.98-.53 7.47-.72 1.75-.31 3.53-.46 5.38-.4 2.36.07 4.7.25 7.06.21 2.05-.03 4.1-.1 6.15-.12.36-.17.7-.11.97.07s.07 0 .11 0h.09c.85 0 1.15.85.9 1.46-.39 4.24 1.67 8.49 2.68 12.52 1.13 4.48.87 9.17 1.73 13.69Zm18.8-80.48c-1.07 3.5-2.27 6.97-3.46 10.58-3.3-.19-4.95-3.15-7.79-3.8.06-.39 0-.7.14-.85 1.98-2.2 2.06-4.7 1.43-7.44-.93-4.03-1.66-8.11-2.54-12.15-.14-.67-.61-1.26-.88-1.91-.49-1.15-1.45-1.36-2.4-.94-.85.38-.9 1.19-.78 2.22.48 4.31 1.96 8.37 3.07 12.5a7.3 7.3 0 0 1-.59 5.58c-1.24 2.35-1.88 4.94-3.28 7.25-.63 1.6-1.25 3.21-1.86 4.82a24.94 24.94 0 0 1-2.46 6.86 67.59 67.59 0 0 0-2.64 9.58c.03.81.26 1.6.62 2.42 1.81 4.14 2.34 8.38.76 12.78-.41 1.13-.96 1.59-2.06 1.6l-4.76.04c-3.61.01-7.21.05-10.82 0a62.63 62.63 0 0 1-5.81-.31 19 19 0 0 0-8.84.96c-.84.32-1.78.41-2.7.45-1.86 1.02-3.37 2.45-5.06 3.69-.53.6-1.13 1.16-1.73 1.7-.88.65-1.75 1.28-2.65 1.87a7.4 7.4 0 0 1-5.03 1.35c-1.87-.13-3.73-.29-5.59-.43-.63-.05-1.27-.09-1.92-.12-.68-.16-1.37-.32-2.04-.5-3.57-.92-7.06-2.2-10.64-3.07-1.68-.41-3.5-.22-5.45-.31.35-2.56 1.69-4.57 2.7-6.66l.36-.72c1.4-3.95 3.5-7.57 5.49-11.24 2.09-3.85 3.78-7.93 6.19-11.59 1-1.52 2.6-3.01 2.95-4.86.45-2.38.35-4.98.56-7.39.18-2.12.42-4.24 1.02-6.29.58-1.98 1.29-3.91 1.73-5.92 0-.83-.12-1.66-.39-2.4a2.6 2.6 0 0 0-.82-1.13c-.16-.12-.33-.22-.5-.32a.47.47 0 0 1-.1-.06l-.05-.01-.19-.06-.08-.02h-.16c-.05 0-.1.02-.13.03l-.04.02-.08.04-.09.05-.04.04c-.07.07-.32.35-.28.29l-.2.31c-.16.27-.3.55-.42.84a27.23 27.23 0 0 0-1.29 4.98c-.34 1.78-.62 3.57-1.07 5.33-.3 1.18-.69 2.71-1.81 3.39-.16.09-.31.13-.45.14-.19.09-.39.16-.59.23-2.67.84-5.43 1.42-8.11 2.24-1.51.46-2.93 1.19-4.4 1.79-1.13.46-2.27.91-3.5 1.39-.27-.41-.5-.73-.7-1.05a5.82 5.82 0 0 1-1.65-2.6c-.65-1.64-1.51-3.19-2.3-4.76a283.46 283.46 0 0 1-3.17-6.58 52.15 52.15 0 0 1-1.49-2.17c-.74-.62-1.35-1.6-1.18-2.36.39-1.78.67-3.78 1.67-5.21 3.27-4.67 6.91-9.08 10.28-13.68 2.9-3.96 5.61-8.07 8.45-12.08 1.11-1.57 2.18-3.22 3.53-4.56 1.9-1.88 4.09-3.3 6.87-3.89 3.34-.71 6.57-1.89 9.85-2.88l3.43-1.05c0 1.2.15 2.13-.03 2.99-.69 3.35-.28 6.65.29 9.95.12.69.23 1.45.06 2.1-.85 3.16-.28 6.3-.03 9.44.14 1.73.31 3.46.55 5.18a5.2 5.2 0 0 0 1.1 2.65c.24.24.5.47.79.65 1.39.92 2.85.61 4.2-.21l.03-.02c1.57-1.3 3.24-2.72 5.11-3.82a14.09 14.09 0 0 0 3.24-2.79c.51-.69.99-1.4 1.53-2.06a15.5 15.5 0 0 1 2.44-2.35c.95-.75 2.44-1.79 3.73-1.64 1.76 0 3.28 1.35 4.47 2.77 1.47 1.74 3.35 3.02 5.12 4.43 1.36 1.08 3.48 2.82 5.35 2.13l.1-.06c.25-.92.85-1.71 1.85-2.33l.06-.13.36-.8.11-.25c.2-.46.42-.92.64-1.37l.09-.28c.63-2 1.24-4 1.82-6.01.82-2.88 1.29-5.85 2.14-8.72l.02-.26c.02-1.21.56-2.4.79-3.61.21-1.12.36-2.26.53-3.51.55.18 1.09.36 1.65.52 1.17.33 2.38.38 3.5.87 1.98.86 4.08 2.23 5.29 4.07l.3.54c.05.1.12.19.17.3a26.7 26.7 0 0 0 8.79 10.4c1.58 1.64 3.17 3.28 4.72 4.95a5.76 5.76 0 0 1 1.58 5.22c-.84 5.88-2.76 11.42-4.48 17.03Zm35.4-21.52c-.05.52.07 1.05.09 1.58.17 4-1.25 7.19-4.74 9.34-6.48 4-12.97 7.98-19.42 12.02-2.68 1.68-5.27 3.51-7.91 5.25-.49.32-1.03.57-1.78.99.43-4.41 2.03-8.22 3.4-12.08v-.05c.31-1.97 1.16-3.76 1.89-5.6.58-1.46.75-2.9 1.05-4.42.12-.61.3-1.21.54-1.77v-.03c-.2-.61-.07-1.27.39-1.75.41-.43.98-.67 1.53-.85.54-.18 1.1-.3 1.66-.39h.05l1.26-.36 1.26-.31c.04 0 .07-.02.11-.03l.71-.15c.19-.04.38-.08.55-.14a55.66 55.66 0 0 0 11.17-4.93c.37-.23.77-.55 1.16-.65a8.62 8.62 0 0 1 1.92-1.08 9.2 9.2 0 0 0 1.13-.57l.26-.17.07-.04.05-.05c.15-.14.3-.28.43-.44l.05-.07c.36-.61.69-1.26 1.08-1.84l.53-.73c.23-.36.48-.7.75-1.02a32.2 32.2 0 0 1 7.37-7.32c.93-.65 2.13-1.24 2.74-.1.44.82.37 2.43-.17 3.16-1.62 2.16-3.36 4.35-5.47 6-2.91 2.29-3.42 5.34-3.72 8.6Zm48.91-38.73c-1 6.6-2.06 13.19-2.98 19.8-.62 4.45-1.03 8.94-1.59 13.4a225.4 225.4 0 0 1-1.26 8.6c-.72 4.41-1.47 8.81-2.28 13.21a19.54 19.54 0 0 1-1.06 3.77c-.17.42-.53.87-.94 1.16-.79.16-1.68.08-2.47.02-1.9-.15-3.77-.55-5.63-.91a95.82 95.82 0 0 0-10.93-1.42l-1.37-.1c-3.19-.33-6.38-.62-9.55-1.1a15.91 15.91 0 0 1-4.67-1.58c-1.23-.61-1.66-2.2-1.07-3.76.68-1.78.61-3.6.74-5.43.22-3.07.48-6.15 1.1-9.16a9.19 9.19 0 0 1 2.31-4.61 39.15 39.15 0 0 0 4.25-5.35 10.7 10.7 0 0 0 1.56-3.85c.78-4-.82-5.85-4.95-6.03-.25-.01-.5-.13-.8-.21-.28-8.76.77-17.36 2.62-25.95 3.16-1.23 6.06-.28 8.9.92.28.12.49.7.51 1.08.03.51.16.95.34 1.36.03 1.54.3 2.95 2.11 3.67 1.27.51 2.71.55 4.06.65l4.72.35c3.1.23 6.26.64 9.36.32 1.13-.11 2.39-.32 2.98-1.42.3-.55.28-1.19.33-1.79 0-.1.03-.2.04-.3.17-.17.35-.34.49-.51h4.15a6.83 6.83 0 0 1 1 5.17Z"/>
    <path d="M228.02 111.36a3.17 3.17 0 0 0-1.32-.79c-2.05-.42-4.1-.88-6.18-1.08-1.9-.19-3.85.06-5.76-.13a35.46 35.46 0 0 1-3.78-.63c-.05-.02-.09-.06-.15-.08-.69-.2-1.54-.33-2.09.26-.42.45-.54 1.15-.66 1.73-.06.31-.14.63-.13.95.02.31.02.65.08.95l.06.18c.09.85.4 1.68.82 2.42.3.53.76.88 1.31 1.1.58.33 1.25.5 1.97.52l.58-.01.68.06.62.03c.13-.04.28-.06.43-.08.5.04 1 .12 1.5.21h.2c.9.25 1.78.65 2.38.86 1.63.6 3.57.29 5.2-.19 1.05-.31 2.01-.85 2.99-1.32h.01c.37-.38.8-.68 1.19-1.03 1.94-1.72 1.95-2.22.02-3.94Zm-2.76 2.64c-.26.44-.79.62-1.27.7-.57.1-1.15.14-1.73.16-.55.01-1.11 0-1.66-.03-.41-.03-.84-.05-1.23-.15-.64-.02-1.29-.08-1.94-.18-2.17-.31-4.33-.98-6.54-.64a.55.55 0 0 1-.5-.17c-.35-.37-.87-1.25-.15-2.89v-.03l.17.03a5.88 5.88 0 0 0 3.35 1.22c2.66.14 5.31.35 7.96.56.21-.04.42-.06.63-.08.41-.03.83.03 1.24.09l.53.09.16.02h.07l.17.02c.62.05 1.08.69.73 1.28ZM177.94 93.18c-.03-.25-.08-.47-.22-.6-1.77-1.67-3.44-3.52-5.87-4.28a1.87 1.87 0 0 0-1.23.12 5.12 5.12 0 0 0-1.36 8.48c.46.44 1.04.88 1.41 1.37.32.3.59.64.87.98l.44.52.24.24.15.13.03.02c.37.28.77.5 1.19.69l.31.14h.03l.01.02.18.07.65.26.02.01c.35-.08.74-.26.96-.45.19-.17.06-1.02-.2-1.36a76.8 76.8 0 0 0-2.09-2.6 9.45 9.45 0 0 1-1.26-.92c-.93-.85-1.58-2.2-.63-3.29.46-.53 1.15-.73 1.78-.35.46.27.79.73 1.23 1.03a6.3 6.3 0 0 0 1.47.77c.45.15.92.2 1.35.07l.12-.04h-.03l.06-.03.06-.05.02-.01.14-.24c-.06.13.06-.16.07-.19.05-.16.08-.33.12-.5ZM201.65 72.46c1.6.13 3.19-.59 4.67-1.12a30.83 30.83 0 0 1 5.71-1.36c.89-.13 2.89-.08 3.64-.92.07-.2.12-.42.13-.69.04-1.26-.75-1.92-2.78-1.96-2.82.63-6.15 1.37-9.47 2.13a13 13 0 0 0-2 .66c-1.2.5-1.38 1.1-.78 2.27.24.48.53.8.87.99ZM216.77 98.74c-.16.17-.26.39-.28.63v.1c0 .07 0 .14.02.21.03.13.1.23.15.35.07.1.15.2.26.3 1.08.87 2.7 1.03 4.01 1.35.81.2 1.56.31 2.4.27.64-.03 1.25 0 1.8-.37.72-.48 1.09-1.32 1.34-2.15.08-2.02.24-4.06-.71-5.98-.33-.66-.62-1.37-1.37-1.78h-.44c-.12.04-.13.03-.1.02l-.12.03-.09.05c.12-.08-.16.16-.12.11.05-.06-.04.07-.05.08v.03c-.04.13-.06.25-.06.37 0 .28.03.49.08.76.26 1.22.6 2.5.58 3.75.13 1.19-.14 2.32-1.38 2.65-.58.15-1.2 0-1.75-.19-.54-.19-1.08-.39-1.65-.51a6.38 6.38 0 0 0-1.79-.19c-.25.01-.49.07-.73.13ZM203.54 80.64c3.02-.63 5.79-1.19 8.73-.66.8.14 1.35.89 1.25 1.7l-.08.67a1.5 1.5 0 0 1-1.03 1.27c-1.2.4-2.25.73-3.27 1.13-2.2.85-4.11-.19-5.96-1.02-.32-.15-.54-.53-.75-1.03a1.51 1.51 0 0 1 1.11-2.05ZM236.34 88.44c-2.26-.68-4.55-1.28-6.76-2.09a3.06 3.06 0 0 1-1.58-1.66c-.24-.65-.17-1.67.21-2.2.36-.5 1.34-.85 2-.78 1.48.16 2.96.52 4.38.98 1.94.63 2.88 2.26 3.43 4.08.3 1-.29 1.45-1.68 1.68ZM240.23 77.79l.23-.23.12-.19.03-.12v-.14a1.55 1.55 0 0 0-.04-.21c-.33-.43-.63-.84-1.03-1-2.87-1.14-4.94-3.5-7.64-4.87l-.55-.31a1.23 1.23 0 0 0-1.77.57c-.56 1.4-.16 1.89 1.38 2.78 1.21.7 2.67 1.22 3.54 2.22 1.57 1.82 3.24 2.43 5.45 1.65l.26-.16ZM232.52 23.58c-.9-1.05-1.99-1.94-3-2.89l-1.44-1.32c1.33-3.65.89-5.13-1.98-6.07l-.63.18-.06.03-.07.04-.17.17a.83.83 0 0 0-.08.12l-.41.64a9.7 9.7 0 0 0-.66 2.48c-.12 1.45-1.22 1.97-2.07 2.44-.96.53-2 .94-3.07 1.32-.3.16-.6.33-.88.53l-.24.17-.04.02-.05.04-.43.38a5.5 5.5 0 0 0-.49.53l-.13.18c-.1.15-.19.3-.27.46l-.05.12-.06.18-.06.21a3.25 3.25 0 0 1-.03.08c-.07.06 0 .44 0 .53v.02l.07.33.08.24.02.05.05.1c.03.06.04.12.06.19.36.33 1 .47 2.02.55 1.76.15 2.92-.93 4.66-1.77-.09 1.23-.06 2.15-.26 3.02-.26 1.1-.74 2.14-1.08 3.23-.34 1.09.03 1.98.96 2.36l.26.03.35.05h.08l.05.02c.31.04.61.07.92.08.15 0 .29 0 .44-.02h.03l.09-.02.23-.05c2.01-2.01 1.53-4.69 2.2-7.33l1.55.8c.18 0 .36.03.52.11a15.98 15.98 0 0 0 3.59 1.26l.21.03h.38l.22-.06.07-.04.07-.04h.01l.06-.07.07-.12.08-.26.05-.22.01-.08v-.02l.01-.27c-.63-1.01-1.14-1.91-1.79-2.68Z"/>
  </g>
</svg>
