<svg xmlns="http://www.w3.org/2000/svg" viewBox="0 0 393 393">
  <defs>
    <style>
      .c{fill:#f8d7c0}.d{fill:#fff}
    </style>
  </defs>
  <g id="b">
    <path class="d" d="M188.58 135.2c-2.69-.1-5.66-.04-8.26.76a10.84 10.84 0 0 0-3.74 1.97c-.96.8-1.6 2.19-2.61 2.86-.9.6-2.36.35-3.4-.03-1.15-.43-1.72-1.47-2.67-2.26-2.44-2.03-5.5-3.46-8.22-5.07a3.3 3.3 0 0 0-.91-.37c-.48-.8-.93-1.63-1.33-2.48-1.72-3.68-7.18-.5-5.47 3.16 1.38 2.95 3.43 5.51 5.43 8.1 0 .48.11 1 .38 1.52.48.94.99 1.86 1.53 2.75 2.94 5.63 4.93 11.64 7.72 17.36a138.3 138.3 0 0 0 5.22 9.57c.88 1.49 1.78 2.97 2.68 4.46.98 1.61 2.47 3.42 2.57 5.37.22 4.06 6.09 4.1 6.31.03.1-1.84-.2-3.7-.05-5.53.15-1.91 1.06-3.61 1.7-5.39a86.16 86.16 0 0 0 2.82-10.36 157.22 157.22 0 0 0 3.41-23.25c.13-1.74-1.53-3.11-3.14-3.17Z"/>
    <path class="c" d="M213.55 51.78c-3.34-2.41-7.52-4.03-11.18-5.91a3.11 3.11 0 0 0-1.81-.35 104.41 104.41 0 0 0-8.49-4.35c-2.9-1.32-5.68-2.63-8.82-1.25-2.87 1.26-4.68 3.91-7.78 4.81-3.51 1.02-6.35-.38-9.73-1.05a3.09 3.09 0 0 0-3.21 1.23c-1.37.07-2.7.42-3.89 1.17-1.64 1.02-2.74 2.83-3.89 4.33-1.35 1.76-2.7 3.53-3.99 5.33-2.18 3.05-1.75 6.36-1.12 9.88.5 2.8 1.28 5.56 2.09 8.3-2.29-.18-4.86-.49-6.69 1.11-.82.71-1.36 1.75-2.04 2.59-.77.94-1.54 1.8-1.91 2.98-.2.63-.29 1.24-.29 1.83l-.17.28a3.14 3.14 0 0 0-.31 2.36c.24.76.73 1.61 1.49 1.95l.84.37.35.51c1.73 2.41 3.39 5 5.33 7.25 1.03 1.19 2.39 2.2 3.94 2.35l.07.38c.24.84.64 1.67.92 2.5.72 2.06 1.92 4.39 1.92 6.6 0 1.44.79 2.38 1.82 2.8 0 5.52 2.28 11.87-.72 16.83a3.2 3.2 0 0 0 1.18 4.31c4.55 2.4 9.14 5.41 13.92 7.31 2.1.84 3.52.25 5.44-.74 2.47-1.27 4.88-2.69 7.31-4.03a2.9 2.9 0 0 0 1.36-1.66c1.48-.43 1.43-1.64 1.04-3.58-.48-2.35-.14-4.81-.27-7.2 3.57-.75 7.67-1.23 10.68-3.29 3.09-2.12 5.52-5.56 7.95-8.38 2.55-2.97 5.4-5.94 7.19-9.46 1.9-3.74 2.42-7.87 2.53-12.02.11-4.33-.07-8.66.42-12.97.5-4.37 1.89-8.5 1.91-12.94.02-3.69-.11-7.82-3.37-10.17ZM294.93 162.8c-1.34-1.84-3.99-5.58-6.33-6.18a4.37 4.37 0 0 0-2.82.37 2.88 2.88 0 0 0-.91-.83c-.63-.36-1.29-.71-1.95-1.03l.27-.16c4.65-2.96 9.19-6.09 12.12-10.88 2.12-3.47-3.36-6.6-5.48-3.13-2.32 3.8-6.12 6.2-9.8 8.54-1.59 1.01-1.76 2.74-1.14 4.07a19.38 19.38 0 0 0-3.12-.63 7.78 7.78 0 0 0-2.47.12c-3.01-.31-5.36 1.31-7.27 3.72-.56.7-.78 1.52-.74 2.3-.44.47-.87.95-1.26 1.45a8.02 8.02 0 0 0-1.2 2.12c-2.13.9-3.13 4.23-.5 5.66l3.11 1.69c.48.26.85 2.34 1 2.63.71 1.31 2.25 1.21 2.96 2.52a2.8 2.8 0 0 0 2.19 1.5c.33.26.66.5 1.02.69 2.39 1.26 4.97.62 7.34-.31 3.06-1.19 6.11-2.42 9.16-3.63 2.39-.95 4.96-1.55 6.2-4.01a6.68 6.68 0 0 0-.4-6.62ZM191 323.73c.88-1.98-.14-4.88-2.73-4.72-5.64.35-11.28.75-16.93 1.01-2.72.12-5.44.21-8.16.2-2.77 0-6.27.35-8.87-.74-3.33-1.39-6.24 2.91-4.04 4.92-.04.38 0 .78.17 1.21 1.44 3.73 2.01 7.71 2.63 11.65a219 219 0 0 1 1.76 14.22c.27 3-.5 8.43 2.35 10.37 1.54 1.05 3.36.72 5.11.6l1.96-.13c2.7 1.46 5.84 1.44 8.2-1.45.63.35 1.39.48 2.22.22 2.84-.89 5.42-1.36 6.47-4.43 1.18-3.44 2.03-7.02 3.08-10.49.79-2.61 1.6-5.21 2.43-7.81 1.44-2.46 1.91-5.18 2.55-7.86a776.9 776.9 0 0 1 1.73-5.15c.19-.57.19-1.11.06-1.59v-.02Z"/>
    <path d="M190.62 371.57c-1.55-1.46-2.95-3-4.11-4.8-.97-1.5-1.54-3.53-2.77-4.83-2.21-2.33-6.46-.64-8.81.66a8.12 8.12 0 0 0-2.49 2.07c-3.13-1.87-6.8-1.35-10.49-.72-4.08.7-8.27 3.58-7.88 8.2.33 3.96 4.37 8.31 7.86 9.85l.19.07a3.05 3.05 0 0 0 2.54 1.4c3.3.01 6.06 1.76 9.4.53.33-.12.64-.26.94-.41 2.59.6 5.29.63 7.53-1.01 1.53-1.12 2.34-3.51.64-4.98l-.37-.35c2.05.51 4.53.08 6.41-.37 2.31-.55 3.16-3.67 1.42-5.3Z" style="fill:#745e84"/>
    <path d="M235.26 51.76c-.27-3.79-.19-7.61.24-11.39.37-3.21-.13-5.25-3.22-6.64-3.52-1.58-7.24-2.77-10.82-4.19l-1.25-.51a3.72 3.72 0 0 0-.32-1.25c-1.23-2.77-3.4-4.76-5.36-7.01a17.55 17.55 0 0 1-3.12-5.18l-.9-2.88a3.07 3.07 0 0 0-1.81-2.03c-.69-1.33-2.05-2.3-3.65-1.81-4.42 1.34-8.83 2.7-13.26 4.01-2.21.66-4.43 1.36-6.76.96-2.07-.35-4.04-1.37-5.98-2.15-3.22-1.29-6.77-2.15-10.21-1.19-3.81 1.07-5.02 4.54-8.06 6.57-5.6 3.72-13.94 2.16-19.02 6.8-2.95 2.7-3.45 7.64-4.47 11.31l-2.95 10.62c-5.21.52-10.51 2.2-12.13 7.7-1.83 6.23-3.03 12.72-4.53 19.04-.72 3.05-1.85 6.25-2.18 9.37-.32 3.02 1.93 4.13 4.28 5.38 2.82 1.5 5.72 2.84 8.61 4.18 1.7.79 3.86 1.5 5.64 2.55l2.23 1.77c.45.36.92.58 1.38.7l.14.44c.37.96.35 1.8.2 2.83-.07.48-.05.96.03 1.41l-.23.63c-.89 3-.51 6.45 1.24 9.07 2.07 3.09 6.09 4.35 9.29 5.88.75.36 1.49.44 2.15.31 1.69 2.03 5.78 1.43 5.61-1.85l-.18-3.48c.34-2.73.5-5.36.53-8.15.04-2.86-1.03-5.41-3.43-7.03a2.63 2.63 0 0 0-2.59-.34c-1-.35-2.05-.55-3.1-.61a7.6 7.6 0 0 0-2.5-2.82 2.5 2.5 0 0 0-1.1-.41c-.29-.46-.6-.92-.92-1.36a2.97 2.97 0 0 0-.87-1.08c-.61-.49-1.23-.94-1.86-1.35-.07-3.36.36-6.63 1.49-9.81.59-1.66 2.52-6.96 5.17-5.61 2.99 1.52 5.47-1.51 4.3-4.32a26.76 26.76 0 0 1-1.94-11.56c1.97-2.61 3.26-5.56 4.95-8.39 2.07-3.46 5.15-5.23 9.18-5.45 4.1-.23 8.05 1.69 12.05.24 1.77-.64 3.24-1.77 4.79-2.81 1.37-.92 4.3-3.31 6.1-3.23 1.89.09 4.41 1.89 6.09 2.65 2.09.94 4.18 1.9 6.26 2.88 4.15 1.95 8.26 4 12.27 6.23 1.55.86 5.04 2.19 6.11 3.62.96 1.29.32 3.69.25 5.27l-.71 15.45c-.14 2.98 3.44 3.89 5.4 2.23l8.71-7.37c2.4-2.03 5.22-3.84 5.68-7.19.43-3.12-.75-6.54-.98-9.66Z" style="fill:#747475"/>
    <path class="d" d="M155.3 119.51c-1.47-1.62-3.99-1.95-5.96-2.63-3.9-1.34-9.69-2.89-12.13-6.52l-.19-.26c.35-5.1.31-12.68-4.03-15.43-1.15-.73-2.49-1.05-3.67-1.73-1.27-.73-2.11-1.94-3.35-2.75-2.88-1.88-6.29-3.21-9.37-4.74a3.63 3.63 0 0 0-.93-.31c-.66-1.39-1.01-2.84-.44-4.46.34-.97.2-1.8-.21-2.43l.02-.06c1.02-3.75 2.06-7.5 3.1-11.25l3.14-11.37c.43-1.57.76-3.3 1.56-4.73 1.03-1.83 2.73-2.71 4.55-3.62l.21-.11h1.11c4.07-.03 4.1-6.34.03-6.31-2.71.02-5.41-.03-8.11-.1a3.14 3.14 0 0 0-1.73-.58 406.6 406.6 0 0 0-33.31-.04c-3.18.13-3.88 4.02-2.09 5.63 0 20.97-.06 41.94 0 62.91.05 20.39.42 40.8 2.34 61.11a3.04 3.04 0 0 0-.54 1.76c-.15 10.41-1.09 21.21.7 31.53.34 1.98.81 4.16 2.75 5.21 1.7.92 3.74.43 5.54.16 2.58-.39 4.88-.84 7.46-.27 2.51.56 4.59 1.3 7.15.51 1.46-.45 2.93-2.21 2.26-3.85-1.34-3.28-1.95-5.75-.88-9.2 1.06-3.42 2.2-6.82 3.3-10.23l6.66-20.67c2.1-6.53 3.8-13.41 6.46-19.73.99-2.34 2.5-4.17 4.3-5.7.88.17 1.84-.04 2.69-.81 3.34-3.05 8.29-4.77 12.29-6.81 3.31-1.69 8.46-3.24 10.04-6.95.72-1.71.63-3.75-.68-5.18ZM328.39 45.78c-1.04-.07-14.26-3.25-14.78-2.7-12.35-.22-24.7-.49-37.05-.77l-24.25-.56c-6.11-.14-13.6-.99-18.05 4.05a3.06 3.06 0 0 0-.37 3.69c-.02.16-.04.31-.04.48-.03 4.86 3.34 11.65.26 16.02-1.46 2.08-3.87 3.48-5.91 4.95-2.46 1.77-4.9 3.56-7.32 5.38-2.09 1.57-4.42 3.04-5.97 5.16-1.57 2.15.37 3.84-.32 6.37-.71 2.61-1.1 4.31-.77 6.99.16 1.32-1.87 5.11-1.77 6.83l-.18.22a64.07 64.07 0 0 1-12.35 12.65 59.97 59.97 0 0 1-7.35 4.87c-2.31 1.29-4.38 1.99-6.3 3.83-1.68 1.6-.5 4.94.08 6.97.78 2.7 1.6 3.47 3.92 4.72a76.45 76.45 0 0 0 8.27 3.83c2.93 1.17 6.04 1.98 8.83 3.46.49.26.98.38 1.44.4 2.66 2.27 4.36 6.11 5.92 9.05 1.91 3.6 3.61 7.29 5.43 10.94a85.82 85.82 0 0 0 5.75 10.14c1.69 2.49 4.51 7.29 8.17 6.87 1.75-.2 3.85-1.44 5.42-2.18a73.49 73.49 0 0 0 5.82-3.09c3.46-2.04 6.74-4.35 9.92-6.78 3.16-2.41 6.22-4.88 8.62-8.05 2.39-3.17 4.59-6.1 7.58-8.64l.37.13c3.1.91 5.55-.58 7.84-2.52 2.66-2.25 5.27-4.51 8.12-6.54 1.72-1.22 5.88-5.04 8.11-3.66 3.09 1.9.09 6.6-1.34 8.52-1.59 2.12-4.14 4.19-3.82 7.07.33 2.91 3.23 5.55 5.09 7.67.82.93 2.48 2.17 2.86 3.41.51 1.64-.88 3.77-1.6 5.16a13.43 13.43 0 0 1-2.63 3.74 3 3 0 0 0-2.06-.03l-3.53 1.1c-.35.11-.66.27-.94.46-1.69.59-3.38 1.2-5.06 1.8a2.72 2.72 0 0 0-2.19 0c-3.59 1.39-7.18 1.55-9.66 4.83-.96 1.27-1.54 2.72-2.39 4.05-1.19 1.86-2.94 3.1-4.76 4.35-.56.38-.94.85-1.16 1.36-.51.62-1.03 1.21-1.57 1.8-.4.05-.79.18-1.16.43l-32.37 21.52c-2.93 1.95-1.25 6.67 2.43 5.79 11.09-2.65 22.74-1.79 34.05-1.61l33.91.55a3.38 3.38 0 0 0 2.82.89l6.45-.86a3.57 3.57 0 0 0 1.39.23c.49.8 1.37 1.34 2.61 1.21 6.46-.65 12.21-.25 18.64.66 2.28.32 3.15-176.35-1.11-176.64Z"/>
    <path d="m268.61 176.82-6.16-6.33c-.04-1.71-1.15-3.38-3.35-3.38a3.2 3.2 0 0 0-3.03 1.86c-.26.11-.5.24-.73.4l-4.95 3.42c-.87.05-1.76.27-2.6.66-5.33 2.44-11.29 4.8-16.82 7.77-.75-3.32-3.29-6.4-4.97-9.29a498.4 498.4 0 0 1-10.58-19.05c-1.58-3.01-2.8-6.71-5.82-8.61-2.92-1.83-6.27-2.31-9.16-4.38-3.78-2.7-8.25 1.1-8.55 4.94-.38 4.81-.75 9.63-1.89 14.34-1.09 4.49-3.23 8.48-4.76 12.82-2.07 5.89-2.37 12.35-3.99 18.36a6.44 6.44 0 0 0-.51-1.28 374.6 374.6 0 0 0-12.6-21.08c-.18-3.11-1.97-6.42-3.62-9.44a188.5 188.5 0 0 0-8.84-14.45c-1.44-3.4-3.29-7.03-3.89-10.57-.5-2.98-4.62-3.3-6.22-1.14l-.33.18-.94.4c-.7.37-1.36.85-1.85 1.47-.5.63-.82 1.35-.92 2.08a28.32 28.32 0 0 0-9.05 4.29c-4.05 2.96-6.03 7.13-7.63 11.76-3.27 9.43-5.63 19.15-8.72 28.64-1.53 4.71-3.65 9.19-5.22 13.87-1.66 4.94-.01 9.45 4.44 12.06 2.05 1.21 3.85 2.37 5.4 4.23 1.33 1.6 2.18 3.53 3.39 5.22a33.66 33.66 0 0 0 4.71 5.13c1.29 1.19 3.27 2.56 3.93 4.28 1.25 3.24 3.84 4.66 6.88 4-.32 3.09.16 6.15 1.38 8.87a5.94 5.94 0 0 0-1.34 3.41c-.74 10.16-1.68 20.33-1.87 30.52-.19 10.36.98 20.55 2.82 30.73.84 4.64 1.12 10.29 6.49 11.87 2.41.71 5.34.7 7.83.99l2.19.24a15.78 15.78 0 0 0 6.15 2.67c.52.1 3.11.8 2.07-.08 2.35 2 5.8 2.26 8.09-.06.25-.25.47-.54.67-.84 6.69.52 13.4.84 20.12.81 4.01-.02 5.85-3.41 5.51-6.5 1.66-2.3 2.67-5.32 3.69-8.17a90.95 90.95 0 0 0 4.23-16.73 99.5 99.5 0 0 0-1.85-39.96 5.38 5.38 0 0 0-.96-1.93l-.03-.25a150.65 150.65 0 0 1-1.5-20.69c-.02-5.33.62-9.39 6.37-10.72l.32-.05c.59.83 1.5 1.68 1.89 2.02 2.41 2.13 5.89 2.61 8.92 1.71 1.09-.32 2.05-.81 2.93-1.42 1.22.21 2.49.03 3.57-.72l22.99-15.88c6.96-4.81 14.11-9.24 19.26-16.08 1.52-2.01.65-5.26-.95-6.91Z" style="fill:#8e657a"/>
    <path d="M261.04 164.88ZM333.59 186.97l-.03-34.99L333.5 82c-.01-12.34.94-25.2-1.79-37.33l.1-.3a6.98 6.98 0 0 0-.37-1.38c-.05-.1-.11-.2-.18-.29a3.81 3.81 0 0 0-.91-.74 7.87 7.87 0 0 0-.86-.47c-.92-.05-1.88.11-2.81.05l-3.52-.21h-.04a44.56 44.56 0 0 0-8.33-.27l-2.64.16c-17.71-.57-35.44-1.2-53.15-1.01h-.1c-3.49-.41-7.08-.07-10.62 0-1.19.02-2.37.26-3.55.39-1.58.07-3.16.16-4.74.26-1-.03-1.99-.15-2.99-.38a5.4 5.4 0 0 0 .45-2.55v-.09c.02-.32.02-.66-.05-.98a1 1 0 0 0-.15-.31 3.3 3.3 0 0 0-.99-1.35c-.57-.56-1.58-1.4-2.24-1.86-3.03-2.1-6.14-4.08-9.67-5.29-1-.34-2-.77-2.91-1.31a3.1 3.1 0 0 1-1.13-1.34 55.9 55.9 0 0 0-5.3-9.22c-1.73-2.42-3.12-5.07-4.7-7.6l-.33-.48a3.26 3.26 0 0 0-2.05-2c-1.45-.49-3.09.35-4.46.79-.75.24-1.49.5-2.24.75-2.49.65-5 1.22-7.41 2.08a38.42 38.42 0 0 1-7.38 2.03l-.64.06a22.16 22.16 0 0 1-5.29-1.52 30.8 30.8 0 0 1-3.46-1.57c-.98-.55-1.82-1.2-2.92-1.51-1.05-.29-2.17-.42-3.25-.59a4.85 4.85 0 0 0-2.92.19c-1.85.83-3.36 2.86-4.6 4.51a51.83 51.83 0 0 0-3.3 3.69c-1.52 1.9-3.31 2.31-5.48 2.48-1.2.1-2.4.24-3.59.42l-1.05.11c-2.21.22-4.48.34-6.64.9-1.33.34-2.88.82-3.84 1.87a4.9 4.9 0 0 0-.97 1.15l-.08.16v.03c-.1.23-.18.47-.26.71l-.22.63c-.61 2.38-1.19 4.7-1.83 6.99-.54 1.95-1.18 3.87-1.79 5.8-.29.92-.78 1.57-1.88 1.56-1.66-.02-3.31.06-4.97.03-2.02-.04-4.07-.43-6.04-.17l-1.71.21c-1.8.01-3.6.03-5.4.01-4.01-.04-7.91-1.08-11.92-.52-.03 0-.05.02-.08.03-5.61.19-11.22.6-16.83.92-1.23-.24-2.55-.3-3.53.61-.93.86-1.04 2.19-1.08 3.38-.1 2.52-.04 5.04.29 7.54.31 9.27.65 18.55.92 27.82.13 4.62.13 9.25.17 13.87.07 7.83.14 15.67.18 23.5.05 8.36-.01 16.72.13 25.07.06 3.36.65 6.71.78 10.07.2 4.8.25 9.61.28 14.42.03 5.23-.05 10.46-.08 15.69-.03 6.22-.08 12.44-.08 18.66 0 .34.05.68.13 1.01a51.09 51.09 0 0 0 .4 6.38c.09.75.12 1.58.42 2.28.35.82 1.05 1.05 1.88 1.07.89.02 1.78.03 2.67.02l.81-.02c1.74.1 3.49.08 5.25.04 4.26-.08 8.52-.08 12.77.15.36.02.7.03 1.01.01l.1.03.24.03h.18c1.28-.01 2.55-.06 3.82-.13l.41.41c2.17 2.31 4.15 4.84 6.49 6.96a41.93 41.93 0 0 1 5.58 6.13c.56.52 1.1 1.06 1.69 1.55.83.69 1.6 1.39 2.36 2.16 1.34 1.35 2.95 2.28 4.23 3.7.66.74 1.42 1.16 2.25 1.7l.29.22.72.49c.18.1.37.19.53.31.15.11.27.22.38.36l.05.04.65.55c-.31 3.58-.58 7.06-.98 10.51-.17 1.46-2.02 16.97-2.77 19.85-.35 1.33-.56 9.21-.19 11.86 1.11 8.01 1.78 16.09 2.68 24.14.2 1.76.6 3.5.91 5.25.59 3.3 1.23 6.58 1.76 9.89.18 1.16.85 1.66 1.84 2.02 1.57.56 3.14 1.13 4.66 1.79.45.19.98.64 1.1 1.07.29 1.09.38 2.24.5 3.36l.02.29c.14.19.23.42.25.67.08 1.15.26 2.28.48 3.4.49 1.63 1.02 3.24 1.46 4.89.69 2.56 1.39 5.14 1.85 7.75.85 4.72 1.57 9.47 2.27 14.21.36 2.43.77 4.86.03 7.27a54.33 54.33 0 0 1-1.23 4.13c-.51 1.5-1.2 3.01-1.53 4.56-.32 1.54.02 3.05.49 4.53l.02.04c.27.41.56.81.84 1.21a11 11 0 0 0 .92 1.81 7.18 7.18 0 0 0 1.8 1.85c.42.42.84.83 1.22 1.29.69.84 1.68 1.03 2.68 1.31.63.18 1.25.34 1.87.48 1.15.44 2.33.79 3.55.98 2.3.37 4.64.53 6.96.75 2.55.25 5.11.6 7.66.75 1.95.11 4.14-.35 5.22-2.16.57-.95.63-2.05.66-3.12.01-.39-.03-1.14.21-1.58a.92.92 0 0 1 .54-.19v-.02c2.48-.69 4.82-1.24 7.09-2.01 2.31-.78 2.75-2.56 1.31-4.44a114.05 114.05 0 0 1-3.44-4.73c-2.08-3.06-3.7-6.45-6.58-8.93a1.81 1.81 0 0 1-.51-1.4c.2-1.49.43-2.99.86-4.42 1.15-3.82 2.5-7.59 3.62-11.43 1.93-6.63 3.76-13.29 5.58-19.96.07-.27.12-.54.17-.81 1.46-.1 3.08-.32 4.34-.92.2-.16.39-.34.56-.54a10.17 10.17 0 0 0 1.7-3.81c.7-2.51 1.56-4.97 2.33-7.45a.86.86 0 0 1-.05-.66c1.54-5.25 2.84-10.57 4.24-15.86 1.25-4.7 2.51-9.34 3.13-14.17.29-2.3.54-4.64.52-6.96-.03-2.29-.34-4.56-.62-6.83-.16-1.26-.23-2.53-.34-3.8l-.08-.46c-.13-.92-.24-1.84-.34-2.76l-.02-.12c-.45-2.16-1.17-4.25-1.71-6.39a47.13 47.13 0 0 1-1.09-6.88c-.08-.76-.21-1.51-.34-2.27-.17-.63-.35-1.26-.55-1.89-1.88-5.98-2.11-11.76 1.28-17.13 5.8-.33 11.61-.48 17.42-.46 1.72.05 2.5.1 3.75.07 2.02-.05 4.04-.38 6.05-.33 7.55.17 15.1.45 22.66.66 4.98.14 9.95.26 14.93.37 5.5.12 10.99.2 16.49.32 1.06.02 2.12.22 3.18.21 5.02-.05 10.03-.13 15.05-.19l3.56.07 2.1-.18c1.67-.11 3.34.03 5.01.08 3.32.09 6.66-.09 9.97.09 2.45.13 5.94.1 6.4-2.92-.73-10.99-.61-22.02-.62-33.04ZM234.17 69.04c.76-.75 1.43-1.59 1.99-2.5.2-.22.4-.43.62-.62.97-.84.99-1.75.85-2.84-.34-2.63-.77-5.25-.93-7.89-.17-2.91-.14-5.84-.06-8.75 0-.17.02-.33.03-.48 0-.3.06-.6.15-.89 22.73-1.66 45.57-.62 68.32 0l16.36.45.65.14c.28.15.6.24.98.26l3.17.19c.34.02.69.05 1.04.06 2.29 10.54 1.55 21.64 1.56 32.35l.03 34.99.06 69.4c0 8.61-.08 17.24.14 25.85-18.21-.46-36.45-.72-54.66-1.46-.62-.04-1.23-.09-1.85-.11l-2.6-.08-5.37-.25c-4.88-.25-9.75-.56-14.61-.97-1-.23-1.91-.9-3.2-1.54l2.23-1.33c2.1-1.28 4.31-2.43 6.28-3.89 2.61-1.93 5.07-4.09 7.55-6.2 1.41-1.21 2.64-2.64 4.1-3.78 1.39-1.08 2.85-1.95 4-3.42 1.33-1.7 2.75-3.17 2.06-5.61l10.34-2.69c.51.96.89 1.96 1.52 2.77 1.46 1.87 3.11 3.6 4.55 5.49.7.93 1.45.99 2.3.57.42-.2.78-.53 1.28-.96a.8.8 0 0 0-.04-1.23c-.3-.22-.58-.41-.88-.54-2.41-.98-3.79-3.11-5.47-4.88-1.13-1.19-.99-1.84.31-2.73 1.35-.92 2.71-1.65 4.46-1.18 1.66.44 3.02-.21 3.83-1.67 1.07-1.93 2.19-3.88 2.87-5.96.53-1.61 1.05-3.69-.65-4.97-2.68-2.01-4.42-4.81-6.56-7.26-1.22-1.39-1.08-1.93.34-3.36 1.73-1.75 3.52-3.44 5.19-5.25.71-.76 1.5-1.69 1.68-2.65.47-2.42-1.47-5.31-3.91-6.48-1.14-.55-1.93-.36-2.79.41-1.16 1.06-2.29 2.16-3.5 3.18-4.06 3.42-8.13 6.77-12.42 10.33.08.02-.19 0-.43-.09-3.32-1.39-3.79-1.37-6.24 1.33-2.21 2.43-4.24 5.01-6.38 7.51-1.38 1.61-2.61 3.42-4.25 4.7-3 2.33-6.16 4.49-9.43 6.43-3.71 2.19-7.59 4.09-11.43 6.05-1.3.67-2.69 1.16-4.07 1.74-.41-.72-.6-1.11-.85-1.47-.24-.35-.5-.68-.76-1.02l-.16-.2-.04-.06c-1.83-2.35-7.97-12.26-8.9-13.82-1.77-2.95-3.25-6.07-4.87-9.12-1.49-2.82-2.99-5.64-4.5-8.45-1.28-2.39-2.98-4.32-5.71-5.08-1.78-.49-3.64-.77-5.34-1.46-4.71-1.92-9.36-4-14.33-6.14l-.57-8.47 1.32-.29c4.45-1.05 8.46-3 11.73-6.22 4.15-4.1 8.13-8.37 12.26-12.48 1.76-1.75 2.22-3.99 2.8-6.21.18-.67.18-1.39.28-2.23 2.88-.82 5.42-2.66 8.65-2.25.6.08 1.26 0 1.97-.38a.66.66 0 0 0-.13-1.23c-.96-.26-1.79-.49-2.56-.37-1.79.28-3.49 1.07-5.25 1.6-.84.25-1.71.38-2.75.6.12-2.06-.37-3.84.66-5.77.97-1.82 1.12-4.08 1.76-6.1.63-2.01 1.65-3.65 3.67-4.32.26.08.55.06.82-.06.21-.09.41-.2.62-.3.63-.21 1.24-.64 1.83-1.03 1.94-1.24 3.7-2.79 5.47-4.23 1.27-1.03 2.6-2.01 3.77-3.15Zm58.24 93.42c-.23.3-.53.54-.83.77l-.62.47-.19.14a.34.34 0 0 0-.09.08c-.86.72-1.69 1.47-2.55 2.19-.37.31-.78.62-1.21.83l-.02.02-.07.03a1.8 1.8 0 0 1-1.79-.09.83.83 0 0 1-.17-1.29c.49-.5 1.12-.64 1.71-.96.48-.25.64-.72.7-1.23.2-1.62-.21-3.28.12-4.9.08-.38.26-.68.5-.87a.93.93 0 0 1 .55-.27v-.02l.02.02c.09 0 .18 0 .27.02.22.02.44.08.67.21a5.03 5.03 0 0 1 1.84 1.88c.17.18.34.35.49.54.53.66 1.32 1.6.68 2.44Zm1.88 1.64c.13.11.24.22.29.3 1.4 1.11 1.54 2.39.46 4.16l-.1.18c-.16.6-.41 1.19-.76 1.72l-.2.28c-.18.26-.4.48-.68.64l-.06.04c-.47.28-1.04.29-1.56.17a3.25 3.25 0 0 1-2.27-2.01 2.1 2.1 0 0 1-.02-1.44c.18-.5.54-.91.89-1.31.53-.9 1.09-1.78 1.75-2.58l.03-.03c.02-.04.16-.14.34-.26a1.63 1.63 0 0 1 1.89.12Zm-6.7-13.18c-2.42 2.46-4.32 2.9-7.15 1.24h-.05l-.08-.07c-.49-.33-.71-.44-.42-1.02.2-.41.51-.75.84-1.07 1.51-1.48 3.33-2.7 4.99-4.01 1.69-1.34 3.08-2.99 4.8-4.29.62-.46 1.49-1.34 2.33-1.29.45.03.8.28 1.06.62.09.25.48 1.02.48 1.04.32.69-.41 1.12-1.3 2.38a51.43 51.43 0 0 1-5.49 6.47Zm-5.29 5.11c.49.16.99.3 1.43.58.85.2 1.7.59 1.93 1.49a.96.96 0 0 1-.68 1.14c-1.69.47-3.32-.26-4.96-.58h-.07l-1.08-.34c-.78-.27-1.6-.11-2.41-.16-.56-.04-1.16-.12-1.69.05-.75.12-1.46.35-2.06.82l-.12.51a2.14 2.14 0 0 0 1.62 2.56l2.7.6c.36.24.61.32.63.44.51 2.49 2.52 3.4 4.52 4.3 1.47.66 2.69 1.45 3.23 3.12.25.79.96 1.42 1.68 2.43-1.53.8-2.85 1.68-4.29 2.19-2.08.73-4.31 1.06-6.38 1.8-1.66.6-2.91-.61-4.42-.83-.56-.59-1.01-1.32-1.53-1.96-1.05-1.3-2.09-2.61-3.22-3.84l-1.68-1.82c-.47-.51-.92-1.1-1.53-1.45-.63-.36-1.2-.59-1.64-1.2a3.1 3.1 0 0 1-.47-.9c-.12-.38-.05-.67.11-.96 1.2-.86 2.12-1.85 2.9-3.09 1.31-2.08 3-3.93 4.61-5.8 2.04-2.36 4.61-1.77 7.11-1.03 1.95.57 3.84 1.31 5.77 1.93Zm-1.93 5.23a3.02 3.02 0 0 1 2.01-.24c.54.09 1.07.28 1.55.54.25.14.4.4.44.67.04.3-.06.54-.25.77-.3.37-.64.73-1.05.97-.29.22-.57.3-.85.24-.44 0-.82-.17-1.17-.44-.16-.13-.31-.28-.46-.42l-.03-.02a.92.92 0 0 1-.43-.7l-.08-.11a.92.92 0 0 1 .33-1.25Zm-13.85 14.63 2.23 2.63c1 1.18 1.27 2.77.73 4.67-1.08.19-1.6-.57-2.06-1.26-.44-.58-.84-1.18-1.29-1.76-.44-.58-.97-1.07-1.45-1.62-.92-1.03-1.69-2.18-2.62-3.2-.46-.51-1-.93-1.46-1.43a14.1 14.1 0 0 1-1.12-1.43c-.61-.86-1.18-1.82-2.12-2.35-.6-.34-.47-1.44-.5-1.44.89-1.72 1.79-1.79 2.71-.77 2.35 2.62 4.64 5.3 6.95 7.96ZM152.46 95.3c-1.56.5-2.9-.07-3.52-1.51-.58-1.36-1.74-2.07-2.63-3.07-1.47-1.65-3.08-3.18-4.47-4.89-1.26-1.54-1.1-2.28.06-4.04 1.29-1.97 2.48-4.02 3.95-6.42.89 0 2.37-.12 3.83.03.29.03.57.05.84.05a3.36 3.36 0 0 0 2.91-5.13l-.02-.03c-1.91-3.06-1.78-6.65-2.71-9.96-.11-.39-.08-.81.1-1.17 2.01-3.9 4.81-7.28 7.28-10.87.15-.21.36-.44.6-.52 3.16-1.1 6.32-2.26 9.73-2.14.79.03 1.6.6 2.33 1.06 2.38 1.5 4.15 1.43 6.31-.36 2.31-1.92 4.66-3.79 6.9-5.78a3.16 3.16 0 0 1 1.82-.17c.53.12 1.04.32 1.55.56.3.19.61.34.93.46l1.74.97.08.06c.77.74 1.68 1.2 2.61 1.71 1.59.88 3.21 1.95 5 2.4.37.2.81.33 1.18.36 3.86.26 7.42 1.15 10.5 3.71 1.69 1.4 3.65 2.49 5.52 3.67.92.58 1.42 1.31 1.25 2.43-.37 2.53-.8 5.05-1.08 7.58-.44 3.96-.76 7.93-1.15 11.89-.62 2.14-1.27 4.26-1.42 6.49-.14 1.96-.39 3.98-.14 5.94-.02.69 0 1.39.03 2.1.09 1.95 0 3.92-.02 5.87-.04 2.77-1.28 4.88-3.28 6.65-.62.91-1.25 1.8-1.97 2.64a21.77 21.77 0 0 1-3.21 2.93c-2.31 1.79-4.31 3.9-6.58 5.75-2.08 1.69-3.83 3.92-6.38 4.94-2.2.88-4.27.22-6.12-.94a29.32 29.32 0 0 1-5.99-3.04c-.87-.58-2.17-.58-3.29-.65-.38-.03-1.07.48-1.14.84-.1.5.07 1.36.43 1.58 1.43.88 2.97 1.58 4.48 2.32.94.46 1.92.85 2.87 1.31a2.62 2.62 0 0 1 1.55 2.29c.31 2.98.73 5.95 1.11 9.02-.58.12-.91.26-1.24.26-3.91-.03-6.92 1.78-9.5 4.53-1.55 1.65-1.95 1.5-3.96.27-3.94-2.41-8.01-4.64-12.02-6.94l-1.06-.61.03-.02a.82.82 0 0 1-.24-.41c-.14-.3-.09-.69.15-.9h.01a4.57 4.57 0 0 0 1.55-2.73c.32-2.35.71-6.22.03-7.38-.41-.7-.28-1.74-.36-2.62l-.47-4.74c.08-.2-.3-3.42-.37-4.42.12-1.1.11-2.19.03-3.28-.16-2-.36-4.04-1.21-5.88l.02-.02c-.67-1.96-1.86-2.58-3.74-1.98Zm36.86 41.3a1.4 1.4 0 0 1-.14 2.28l-9.63 6.16c-.73.47-1.71.29-2.21-.42a19.9 19.9 0 0 1-1.18-1.84 1.75 1.75 0 0 1 0-1.73c.45-.77.88-1.52 1.42-2.19a4.73 4.73 0 0 1 1.82-1.32c1.85-.79 3.7-1.84 5.63-2.08a5.66 5.66 0 0 1 4.28 1.15Zm-18.09 6.59a.88.88 0 0 1-.16-.39l-.02-.02a.71.71 0 0 1-.09-.42v-.04a.82.82 0 0 1 .37-.62c.36-.23.88-.08 1.09.29.17.31.39.59.6.88a9.7 9.7 0 0 1 1.36 2.43c.14.41.21.9.06 1.32a1.6 1.6 0 0 1-1.15 1.02c-.4.1-.75-.11-.92-.45a.82.82 0 0 1-.24-.37c-.17-.63-.25-1.29-.37-1.93l-.53-1.64v-.02c-.06-.08-.04-.05 0 0v-.02Zm-13.63-9.28c2.85 1 5.71 2.28 8.16 4.02 1.25.89 1.75 2.95 2.4 4.56.47 1.18.62 2.49.96 3.94-.51-.16-.99-.28-1.44-.46-1.45-.6-2.9-1.2-4.33-1.84l-.52-.26a15 15 0 0 1-4.79-2.28c-1.15-.62-1.81-1.76-2.38-3.1-.99-2.3-2.17-4.53-3.28-6.78l.68-.46c.53.41 1.09.78 1.6 1.22.87.75 1.86 1.07 2.96 1.45Zm4.07 12.19c2.34.95 4.64 1.88 7.26 1.93.96.02 2.3.81 2.76 1.63.78 1.41.99 3.13 1.47 4.71.87 2.88 1.76 5.76 2.66 8.64.62 2.01 1.29 4 1.88 6.01.46 1.56.77 3.17 1.28 4.72.6 1.82 1.58 3.54 1.97 5.39.42 2 .69 4.12-.27 6.55-1.91-3.09-3.73-5.78-5.26-8.62-1.49-2.78-2.67-5.73-4-8.59-.45-.96-.94-1.9-1.43-2.85-2.34-4.54-4.7-9.07-7-13.63-1.01-1.99-1.89-4.04-2.97-6.38.73.21 1.21.29 1.65.47Zm15.18 6.59a1.14 1.14 0 0 1-.1-.19 2.2 2.2 0 0 1 .39-2.21 5.18 5.18 0 0 1 1.59-1.15c.87-.48 1.77-.91 2.66-1.36.15-.15.29-.3.45-.44 2.24-2.07 4.51-4.22 8.07-5.37-.29 1.89-.54 8.66-3.5 19.6-.55 2.03-2.59 8.67-3.16 10.72-.18.65-.57 1.23-.86 1.84h-.78l-4.76-21.45Zm-43.06-103.4c.5-.02 1.22-.76 1.41-1.32 1.71-4.99 3.81-9.85 4.95-15.04a48.42 48.42 0 0 1 2.54-7.72c.71-1.75 2.21-2.46 3.58-2.9 2.59-.84 5.36-1.16 8.06-1.65.29-.05.63.15 1.1.28-1.44 2.06-2.82 3.96-4.1 5.91-.27.42-.46 1.23-.24 1.58.48.75 1.34.9 2.08.28.94-.78 1.99-1.53 2.65-2.52 1.27-1.88 2.4-3.82 3.97-5.48 2.37-1.98 4.09-4.75 6.18-7.06.48-.33 1.02-.61 1.25-1.06.08-.16.17-.29.25-.43.55-.49 1.13-.95 1.77-1.33.42-.25.85-.35 1.29-.37.93.05 1.91.37 2.87.65.79.25 1.56.55 2.32.89.68.36 1.36.73 2.08 1.01 1.1.61 2.19 1.25 3.32 1.78 1.49 1.76 3.48 2.02 5.67 2.04 1.6.02 3.22-.11 4.82.12a16.8 16.8 0 0 1 2.66 1.09c.44.23.9.56 1.42.4 1.02-.32.95-1.37.45-2.1-.21-.79-1.05-1.26-3.69-2.28 2.34-1.91 5.15-2.11 7.89-2.56 1.05-.17 2.14-.29 3.1-.71 2.19-.95 3.13-.97 4.2.84 1.72 2.92 3.27 5.96 4.93 9.11.02.36.04.98-.2 1.11-.2.11-.56.1-.78.18a1.9 1.9 0 0 0-.87.57c-.62.72-.32 1.61.22 2.25a7.8 7.8 0 0 0 3.17 2.13c.57.24 1.09.54 1.62.85 1.54 1.76 3.64 2.32 5.84 2.83.85.2 1.68.51 2.46.91 1.47.77 2.79 1.6 4.49 1.91a44.41 44.41 0 0 1 4 1.95c.52.8.81 1.82.84 3.03.04 1.83.02 3.79-.55 5.49-.67 1.97-.51 3.77-.26 5.73.53 4.2.85 8.43 1.21 12.18-2.38 2.06-4.43 3.8-6.43 5.58-2.56 2.28-5.07 4.61-7.65 6.87-.4.35-1.02.44-1.7.72 1.78-7.2 2.9-12.24 1.52-21-5.11-3.73-10.08-7.76-16.17-10.51 1.69-1.65 3.44-3.63 5.47-5.24a6.98 6.98 0 0 0 1.96-2.08c.4-.77-.35-1.69-1.19-1.47-.47.12-.93.13-1.39-.07-.59-.27-1.3-.04-1.72.46-1.09 1.29-2.09 2.52-3.24 3.6-1.47 1.39-3.16 2.53-4.92 3.9a28.5 28.5 0 0 1-9.89-6.29c-1.09-1.03-2.13-1.43-3.23-1.19-1.22.26-2.79.9-3.33 1.86-1.11 2-2.98 2.95-4.59 4.27-.87.71-1.82 1.34-2.78 2.04l-8.83-1.59.21-1.86c.1-.89-.75-1.6-1.6-1.33-.72.23-1.39.22-2.14-.33-.36-.26-1.65.39-2.27.91a22.07 22.07 0 0 0-5.77 7.49c-1.43 3.02-3.58 5.43-5.77 7.84-.2.22-.45.39-.74.54a2.35 2.35 0 0 0-1.17 2.73c1.36 4.79 2.84 9.59 3.45 14.66-1.2-.3-2.3-.45-3.29-.81a3.38 3.38 0 0 0-1.67-.14c-.45.08-.9.19-1.32.36-1.44.57-2.23 1.76-2.97 3.06-1.45 2.56-2.79 5.73-2.78 8.72a5.9 5.9 0 0 0 1.54 4.24 44.9 44.9 0 0 1 3.02 3.45c.89 1.14 1.76 2.28 2.8 3.29 1.08 1.05 2.37 1.83 3.47 2.87 1.16 1.1 2.31 2.1 4.01 2.09l.57-.03.05-.04.14.37a18.18 18.18 0 0 1 1.18 4.54c.11.83.18 1.67.27 2.51.01 2.85.11 5.69.17 8.54v1.83c-2.7-.98-5.28-1.81-7.77-2.86-1.94-.83-3.77-1.93-5.64-2.92-1.65-.87-2.35-2.38-2.54-4.12-.23-2.02-.32-4.05-.46-5.95l.02-.02a4.89 4.89 0 0 1 .08-1.87.72.72 0 0 1 .27-.38l1.95.7.12.11c.36.14.71.25 1.06.31.68.23 1.39.36 2.05.02a1.7 1.7 0 0 0 .94-1.74c-.08-.66-.52-1.11-1.09-1.38-1.12-.53-2.27-1-3.39-1.53-.51-.28-1.03-.54-1.54-.81-.55-.33-1.08-.71-1.61-1.07-.54-.36-1.06-.75-1.65-1a3 3 0 0 0-.26-.15c-2.66-1.16-5.33-2.32-7.99-3.53-1.7-1.06-3.57-1.91-5.28-2.96a22.21 22.21 0 0 0-2.99-1.54l-.23-.1c-.91-1.3-.83-3.1-.5-4.78.45-2.26.99-4.5 1.51-6.74.37-.42 1.23-6.07 1.69-8.19.93-4.31 1.89-8.62 2.94-13.38l4.21-3.1c1.35 1.79 3.18 1.13 4.85 1.06Zm-47 119.87c-.02-8.9-.76-17.79-.67-26.9h7.07c.59 0 1.14-.31 1.44-.82l.35-.59a1.02 1.02 0 0 0-.76-1.54c-2.66-.26-5.25.6-7.91 0a12.88 12.88 0 0 1-.69-4.43c.16-3.79.33-7.56-.52-11.39-.6-2.72.08-5.71.12-8.58.03-2.63-.03-5.25-.06-7.88 0-.53-.1-1.06-.1-1.59-.04-4.8-.2-9.6-.07-14.4.2-7.47-.07-14.92-.27-22.39-.15-5.49.26-10.99.31-16.48.02-2.21-.17-4.43-.07-6.77v-.05l.04-1.4c.01-.42 0-.87.13-1.28.23-.67 1.05-.74 1.67-.87a22.02 22.02 0 0 1 4.27-.49c5.43-.16 10.86-.24 16.29-.34.73-.01 1.47-.03 2.05.27.89-.06 1.8.05 2.7.15.44.05.87.11 1.31.18 5.61.12 11.21.29 16.82.46.15 0 .3.16.8.44-2.19 1.53-4.26 2.85-6.79 3.67l-.03-.07-.33.18-.13.09a11.5 11.5 0 0 0-.77.6 5.7 5.7 0 0 0-1.27 2.31 18.7 18.7 0 0 0-2.53 6.63c-.49 2.42-.94 4.82-1.63 7.19-.67 2.3-1.44 4.56-2.08 6.87a51.04 51.04 0 0 0-1.38 6.92c-.2 1.49-.61 5.48-.74 5.98a5.62 5.62 0 0 0 1.47 2.78l.06.03a6.5 6.5 0 0 0 2.74 2.68c.93.46 1.96.67 2.88 1.15 1.02.52 1.92 1.24 2.85 1.91 3.17 2.26 7.03 3.47 10.2 5.71l.16.13c1.29 1.15 1.52 2.54 1.38 4.27-.17 2.18.18 4.39.3 6.59.02.27.07.53.08.8.02 2.79.12 5.33-2.91 7.23-2.94 1.84-5.3 4.62-7.92 6.99-.21.19-.41.39-.57.6-.51.68.42 1.53 1.09 1 1.45-1.14 2.89-2.24 4.25-3.43 2.1-1.84 4.11-3.74 6.83-4.71 1.11-.4 2.04-1.3 3.3-2.14l15.38 6.04c.81 2.6.91 3.42-.43 4.53-.38.39-.81.73-1.27 1.03l-.05.03c-.06.08-.13.15-.21.21-1.26.96-2.63 1.7-4.03 2.44-.65.34-1.17.89-1.81 1.26l-.07.04a8.39 8.39 0 0 1-2.59 1.51c-2.26.91-4.25 2.47-6.43 3.61a125.54 125.54 0 0 1-7.74 3.77 7.37 7.37 0 0 0-4.05 4.08c-.13.31-.27.58-.44.81a3.9 3.9 0 0 0-.7 1.8c-.29 2.17-1.4 4.38-2.19 6.21-.55 1.27-1.09 2.79-1.7 4.2-.76 1.77-1.61 3.49-2.38 5.26-1.53 3.52-2.79 7.2-3.98 10.85-1.23 3.76-2.35 7.56-3.49 11.35-.92 3.03-1.07 6.22-1.84 9.28v.1a41.5 41.5 0 0 0-.65 2.67c-.42.56-1.03.94-1.98 1.1-5.05.83-10.09.47-15.13.22-1.48-.08-2.95-.56-4.62-.89-.12-8.84-.32-17.79-.34-26.73Zm18.62 37.64c-2.84.02-5.69.04-8.52-.06a47.74 47.74 0 0 1-6.09-.59c-2.2-.37-2.81-1.26-2.77-3.5.02-.87.13-1.74.24-3.07 4.81.17 9.33.33 13.85.46.68.02 1.37-.14 2.05-.21 2.19-.25 2.92.37 3.57 2.58.41 1.39 1.12 2.69 1.81 4.28-1.22.34-2.7.11-4.14.12Zm34.19-37.73v-.16c-.03-.42-.03-.86-.17-1.26a2.1 2.1 0 0 0-1.44-1.41 1.7 1.7 0 0 0-1.6.44c-.26.27-.39.58-.52.93a11.4 11.4 0 0 0-.47 3.16l.03.24-.01.07c-.22 2.65-.22 5.32-.45 7.97-.21 2.4-.4 4.79-.99 7.18-1.05 4.25-.24 8.38 1.69 12.36.96 1.98 1.7 4.08 2.39 6.19.14.87.27 1.74.39 2.62-.02 2.89 0 5.77-.26 8.65l-.38 2.74.03.04-.08.52a31.65 31.65 0 0 0-.5 3.36c-.1 1.23.16 2.5 0 3.71-.05.39-.15.96-.49 1.02-.3.06-1.22-.67-1.49-.83-.27-.16-.54-.34-.8-.51l-17.37-18.78c-.69-.66-1.4-1.31-2.14-1.93-1.17-.98-2.42-2.02-3.24-3.34a8.37 8.37 0 0 1-.21-4.19c.12-.68.27-1.36.42-2.03a.2.2 0 0 1 .04-.06l.08-.1a27.8 27.8 0 0 1 2.33-6.41c.94-1.78 1.47-3.8 2.02-5.75.95-3.4 1.7-6.85 2.66-10.25a21.7 21.7 0 0 1 1.75-4.13c1.9-3.53 2.44-7.46 3.49-11.25.56-2.04 1.34-4.02 2.03-6.03.32-.92.71-1.82.95-2.76.99-3.75 3.27-6.7 6.47-8.58a42.34 42.34 0 0 1 7.37-3.51c2.91-1.02 5.48-3.04 8.19-4.63l.71-.41c.9 2.45 1.51 4.99 2.73 7.19 1.57 2.82 2.38 5.99 4.71 8.5 1.61 1.74 2.44 4.29 3.36 6.58 1.18 2.93 2.34 5.8 4.09 8.5 1.81 2.78 2.86 6.05 4.39 9.03 1.24 2.41 2.69 4.71 4.06 7.05 1.92 3.29 3.86 6.56 5.76 9.85.25.44.51.75.83.96l.02.03a12.45 12.45 0 0 1 .16.67l.05.63.05.92c-.39 1.44-.5 2.87-.47 4.31.06 3.01.19 6.03.2 9.04 0 2.19-.03 4.37-.08 6.56v.06c0 2.61.06 5.22 0 7.83.59 1.81.27 3.69.2 5.53-.12 3.54-.44 7.07-.64 10.61-.04.61.11 1.23.14 1.85.1 1.77.24 3.55-.65 5.41-1.88-.33-3.76-.65-5.64-1a1.16 1.16 0 0 1-.34-.12c-1.06-.1-2.11-.24-3.17-.34-1.82-.18-3.65-.18-5.48-.28-4.77-.26-9.61-.72-14.16-2.26-2.84-.96-7.08-2.6-8.22-5.73l-.56-.62c-.29-.35-.35-1.01-.3-1.51.23-2.73.51-5.46.78-8.18.5-4.94 1.15-9.88 1.42-14.83.09-1.7-.74-3.44-1.14-5.17l-.2-.88c-.93-2.12-1.96-4.26-2.56-6.51-1.47-2.18-1.4-4.82-1.23-7.33.33-4.87 1.06-9.71 1.68-14.55.25-1.95.23-3.29-.22-4.71Zm11.22 151.55c7.6.77 15.12 1.63 22.94.92 0 .78.12 1.38-.02 1.92a54.54 54.54 0 0 0-1.78 11.72c-.08 1.83-.62 3.64-.82 5.48-.3 2.72-.36 5.46-.75 8.16-.58 4.02-1.33 8.02-2.13 12-.1.48-.92 1.03-1.5 1.18-2.74.7-5.42.22-8.09-.46-1.05-13.96-3.87-27.36-7.85-40.91Zm31.37 61.79c-.32.45-.73.73-1.2.91l-.15.01c-.97.06-1.96-.02-2.96-.14-.2-.08-.4-.17-.58-.28-1.75-.4-3.54-.34-5.31-.38a393.4 393.4 0 0 1-3.41-.34 306 306 0 0 1-5.88-1.19c-1-.4-1.96-.9-2.9-1.45-1.32-2.13-2.66-4.26-3.73-6.51-.66-1.38-.98-3 .23-4.43.27-.32.33-.81.54-1.2 1.06-2.01 2.4-3.21 5.01-2.88 2.35.3 4.78-.07 7.18-.09 1.15 0 2.18.09 3.01 1.23 2.75 3.78 5.65 7.45 8.49 11.17.52.68.98 1.41 1.5 2.17l-.03.02c.18.17.3.39.33.64.11.17.2.35.25.55.18.72.05 1.58-.38 2.19Zm2.65-17.33c1.37 2.62 3.27 4.95 4.93 7.42.31.47.51 1.02.91 1.86-2.01.36-3.71.72-5.42.93-.54.06-1.37-.14-1.66-.53-2.63-3.51-6.21-6.23-8.41-10.1l-.77-1.41 7.03-2.31a12.71 12.71 0 0 1 3.39 4.14Zm5.26-40.27c-2.03 7.16-3.86 14.39-6.38 21.37-1.22 3.38-2.57 6.74-3.65 10.18-.47 1.49-2.01 1.23-2.93 2.01-.7.59-1.98.49-3.57.81 0-1.57-.13-2.72.03-3.82.27-1.93.83-3.82 1.06-5.75.4-3.31.54-6.65.95-9.96.51-4.05 1.19-8.08 1.78-12.13.29-1.99.53-3.99.8-6.05l12.19-.53c-.1 1.48.04 2.73-.28 3.85Zm16.04-63.72c.88 5.21 1.75 10.44 1.27 15.74-.29 3.17-.6 6.42-1.6 9.4-1.23 3.66-1.88 7.45-2.99 11.14-1.8 5.97-3.04 12.1-4.64 18.13-.38.21-.69.55-.86 1.01a10.47 10.47 0 0 1-1.92.47c-.53.08-1.06.11-1.6.14a60.57 60.57 0 0 0-4.04-.35c-.96-.05-1.94.22-2.91.25-5.6.21-11.2.39-16.8.59-.24 0-.48.02-.72.05-.93-.02-1.85-.05-2.78-.11-2.01-.13-3.99-.62-5.99-.66-2.08-.31-4.17-.47-6.26-.65a31.56 31.56 0 0 1-10.36-2.69c-.51-4-1.02-7.85-1.48-11.71-.65-5.37-1.25-10.75-1.89-16.13-.52-4.4-1.05-8.79-1.63-13.18-.47-3.64.3-7.19.66-10.77.19-1.94.3-3.89.54-5.82.29-2.36.74-4.71.99-7.08.27-2.54.39-5.1.59-7.84.68.19 1.09.29 1.49.42 1.69.52 3.35 1.2 5.07 1.54 3.57.7 7.35.73 10.74 1.9 6.44 2.23 13.18 1.78 19.74 2.71 6.76.96 13.66.51 20.44-.72 1.3-.24 2.62-.32 4.16-.5.39 1.39.85 2.63 1.08 3.92.62 3.59 1.1 7.21 1.71 10.81Zm.11-53.74c-.68 1.62-4.08 10.61-4.45 23.77-.11 3.88.65 7.74.97 11.77a86.77 86.77 0 0 1-19.98.62c-.18-.25-.4-.43-.37-.53.87-2.65-.27-5.32.09-8.02.36-2.71.07-5.49.15-8.24.15-5.01.42-10.02.52-15.04.05-2.45-.3-4.92-.2-7.36.1-2.34.23-4.7.51-7.03 0-.03.02-.05.03-.08.09-.58.17-1.15.23-1.73l.1-.7.13-.83a7.92 7.92 0 0 1-.06-.7c.06-1.42.03-2.85-.11-4.27-.03-1.56 0-3.12.11-4.68.12-1.62.34-3.24.65-4.83a8.53 8.53 0 0 1 .69-2.88c.18-.62.36-1.23.57-1.83v-.47a.96.96 0 0 1 .24-.71h-.03c1.47-3.81 2.97-7.19 4.07-10.71 1.16-3.7 2-7.51 2.84-11.3.81-3.68 1.93-7.32 2.1-11.52 2.24.66 4.46 1.31 6.67 1.98 1.19.36 2 1.11 2.37 2.32 1.66 5.48 4.04 10.71 4.7 16.53.38 3.38 1.79 6.66 2.8 9.96.65 2.11 1.51 4.15 2.11 6.27.22.8.08 1.76-.11 2.61-.83 3.81-1.78 7.6-2.58 11.41-1.16 5.53-2.56 10.98-4.76 16.21Zm17.17 8.42-.2.12-1.65.53c-.79.26-1.59.53-2.4.74l-.28-.16c-3.06-.81-5.68-3.64-7.97-5.81l-.03-.18v-.02l-.01-.12-.03-.36a8.73 8.73 0 0 1-.03-.73c0-.47 0-.94.04-1.4.25-1.05.5-2.09.68-3.13.18-1.03.06-2.13.26-3.15.54-2.69 1.31-5.34 1.75-8.04.61-3.74 1.77-7.32 2.85-10.93.35-1.16.64-2.33.93-3.51.03-1.12.15-2.24.18-3.37l-.01-.7a16.4 16.4 0 0 1-.81-3.85c-.43-1.23-.92-2.44-1.36-3.67-.48-1.35-.87-2.74-1.27-4.12-1.64-5.64-3.35-11.3-5.97-16.58-.88-1.78 1.79-3.35 2.68-1.57a65.6 65.6 0 0 1 1.73 3.82l17.36 31c-1.04.27-1.96.42-2.8.78-.49.21-1.18.78-1.18 1.17.02.96.84.97 1.6.79.94-.22 1.88-.44 2.82-.68l1.42-.37a29.62 29.62 0 0 1 7.13-3.3l.19-.11c3.03-1.88 6.51-2.84 9.71-4.37 1.4-.67 2.57-1.82 3.84-2.75 1.73-1.26 2.97-1.3 4.12.27 3.39 4.63 6.64 9.35 10.08 14.23-4.05 3.33-7.66 6.34-11.35 9.25-.17.13-.39.2-.64.24a34.36 34.36 0 0 1-8.39 5.98 1.2 1.2 0 0 0-.32.1c-.48.24-.98.44-1.47.67-.3.14-.59.3-.86.48h-.03l-1.28.53c-.04.02-.09.02-.14.03-.31.19-.6.42-.86.66-1.55 1.38-3.49 2.05-5.12 3.35-4 3.18-8.44 5.78-12.93 8.24Zm95.68 2.09c-1.68.09-3.37.22-5.05.24-2.13.03-4.26-.1-6.39-.04-3.28.1-6.55.33-9.83.45-10.76.39-21.52-.21-32.29.4-7.95.45-15.97-.18-23.96-.33-1.77-.03-3.55-.09-5.32-.1-2.64-.02-5.28 0-8.44 0 .45-1 .59-1.78 1.05-2.22.82-.77 1.8-1.41 2.79-1.95 2.63-1.43 4.69-3.72 8.18-3.78 3.38-.06 6.69-.9 10.17-.29 3.3.58 6.71.63 10.08.76 5.94.23 11.88.41 17.82.49h1.42c10.83.35 21.67.53 32.48.81l17.17.44.25.04c.06 1.52.13 3.03.21 4.55-3.45.14-6.9.34-10.35.52Z"/>
    <path d="M301.43 123.77c-.57.61-.57 1.57.01 2.17l6.02 6.37c.36.38.79.75.97 1.21.5 1.26-.28 2.24-1.57 1.91-1.61-.41-3.18-.97-4.44-2.16-1.16-1.09-2.45-2.06-3.51-3.23a5.56 5.56 0 0 1-.85-1.34 1.58 1.58 0 0 0-2.13-.72c-1.83.91-3.65 1.84-5.54 2.64l-.66.29c-1.7.78-3.07-1.46-1.65-2.68l.05-.04c1.07-.94 2.54-1.43 3.92-1.9.88-.3 1.31-1.29.94-2.13l-2.67-6.17c-.32-.74-.63-1.52.09-2.22.76-.74 1.51-.25 2.19.13a11.57 11.57 0 0 1 4.69 4.59 1.58 1.58 0 0 0 2.17.64c1.24-.7 2.22-1.74 3.17-2.84a14.3 14.3 0 0 1 2.27-2.2c.62-.45 1.6-.87 2.12.03.43.73.51 1.64-.31 2.42-1.74 1.64-3.41 3.36-5.1 5.05l-.18.19ZM316.38 94.39c-1.09.9-2.11 1.44-2.66 2.28-1.4 2.15-3.5 2.78-6.11 3.21-1.1-1.55-2.29-3.16-3.42-4.83-.73-1.08-.65-2 .35-3.04 1.45-1.51 2.7-3.22 4-4.88 1.32-1.68 2.51-1.97 3.93-.38 1.94 2.18 4.35 4.25 3.91 7.63ZM259.3 108.69c.35.56.19 1.3-.37 1.67-2.15 1.4-4.18 2.72-6.22 4.01h-.01c-.51.33-1.19.15-1.56-.33-1.28-1.69-2.51-3.26-3.61-4.93-.29-.43-.25-1.47.08-1.85 1.27-1.45 2.78-2.7 4.08-4.13.81-.89 1.57-1.07 2.53-.38.78.56 1.74.99 2.29 1.72.99 1.31 1.85 2.72 2.78 4.21ZM274.28 71.68l-3.03 2.06a2.72 2.72 0 0 1-3.75-.67l-.62-.88c-.14-.21-.06-.61-.23-.75-2.52-2.14-1.3-3.76.54-5.57 1.03-1.01 1.62-2.48 2.4-3.75.66-1.08 1.5-1.15 2.26-.18.05.07.1.15.13.23a18.88 18.88 0 0 0 2.95 5.63c.91 1.25.63 3-.65 3.87ZM290.91 81.3c.21-.57.3-1.22.63-1.7 1.7-2.47 3.56-4.84 5.17-7.37.71-1.11 1.23-2.34 1.78-3.6.41-.94 1.89-.4 1.54.57-.05.14-.11.27-.19.39-2.45 3.94-5.04 7.79-7.6 11.66-.12.17-.46.2-.7.29l-.64-.24ZM310.32 62.32c-.81.5-1.66-.6-1.03-1.31.45-.5 1.06-.8 1.58-1.1a141.9 141.9 0 0 1 8.08-4.31c1.46-.73 3.01-1.3 4.54-1.87.27-.1.86-.38 1.61.27.41.81-2.85 2.11-4.2 2.51-3.97 1.18-7.16 3.66-10.57 5.8h-.01ZM277.07 91.77c-.43.62-.72 1.57-1.3 1.82-3.15 1.33-6.37 2.49-9.57 3.67a1 1 0 0 1-.25.05c-.54.04-1.06-.34-1.09-.87-.03-.59.47-.94 1.14-1.19 2.71-.97 5.44-1.88 8.13-2.88.53-.2.92-.76 1.44-1.03.33-.17.77-.1 1.16-.14l.34.57ZM254.04 96.19v.02a.93.93 0 0 1-1.22.34c-1.15-.59-2.26-1.18-3.4-1.71-1.92-.88-3.85-1.77-5.83-2.5-.95-.35-1.2-.78-.91-1.5a.92.92 0 0 1 .97-.57c3.7.56 6.62 2.97 10.02 4.63.48.23.65.84.38 1.29ZM251.93 151.22l-.21.25c-.32.37-.86.48-1.29.24a14.78 14.78 0 0 0-7.98-1.87c-.61.03-1.16-.45-1.13-1.06.03-.57.47-.86 1.21-.82 1.91.11 3.83.37 5.72.72 1.02.19 2.02.49 3.19.84.73.22 1 1.12.5 1.7ZM303.4 184.91c.17-.24.38-.88.77-1.03 2.67-.99 5.38-1.88 8.08-2.81l.31.5c-.43.5-.75 1.24-1.29 1.47a119.15 119.15 0 0 1-8.37 3.2c-.62.21-1.47-.21-2.19-.42-.06-.02.02-.88.07-.88.77-.06 1.55-.04 2.62-.04ZM222.86 155.59s-.18-.22-.15-.35c.07-.32.13-.75.36-.91 3.5-2.47 7.02-4.91 10.55-7.33.15-.1.48.07 1.15.2-.48.75-.72 1.55-1.26 1.89-3.52 2.23-7.1 4.35-10.65 6.51ZM257.75 152.28c.76-1.24 1.86-1.2 2.98-.76.89.34 1.77.73 2.74 1.16.79.35.97 1.39.34 1.98l-.02.02a1.2 1.2 0 0 1-1.31.22c-1.48-.65-2.87-1.26-4.24-1.9-.2-.09-.29-.41-.49-.72ZM186.17 63.07l.03-.41c0-.01-.03-.24 0-.12a.85.85 0 0 0-.04-.15c-.14-.35-.48-.58-.84-.78-.99-.23-1.99-.44-2.98-.69-2.49-.62-5.19-.85-7.38-2.04-2.38-1.29-4.49-.81-6.64-.17-.92.27-1.68 1.44-2.26 2.36a2.2 2.2 0 0 0-.23 1.13 1.1 1.1 0 0 0 1.4 1.1c.85-.24 1.56-.43 2.25-.68 2.5-.9 4.96-1.32 7.43.13.52.31 1.21.35 1.72.68.35.22.67.5 1.04.85.52.48 1.22.7 1.93.66.19-.01.39 0 .58.05 1.91.53 3.16-.15 3.98-1.82v-.11ZM193.87 94.55c-.33-.05-1.38 0-2.23-.4a4.06 4.06 0 0 1-1.76-1.79c-.42-.86.22-1.51 1.22-1.5 1.22 0 2.45.12 3.65-.05 1.51-.22 1.86-1.01 1.33-2.49-.41-1.16-.71-2.37-1.26-3.46-1.01-2-.44-3.76.58-5.49.2-.33.69-.8.93-.74.44.11.83.53 1.17.89.16.17.14.5.2.75.62 2.48 1.21 4.97 1.86 7.44 1.02 3.86-1.15 6.83-5.67 6.83ZM200.25 101.71c-.57.47-1.14.92-1.71 1.37-.61.48-1.66 1.16-2.34 1.52a52.8 52.8 0 0 1-3.7 1.82c-.39.17-1.02-.06-1.49-.22-2.1-.74-4.16-1.48-6.48-1.03-.52.1-1.61-.41-1.67-.77-.11-.67.12-1.72.6-2.1.68-.53 1.66-.75 2.56-.89s1.78-.06 2.64.17c2.43.65 4.64.5 6.97-.75 1.28-.68 3.05-.44 4.61-.56.04 0 .07.02.12.06.39.38.31 1.03-.12 1.38ZM200.41 63.02c-1.53-.27-2.98.37-3.28-1.05-.3-1.38 1.26-1.59 2.12-2 2.37-1.14 4.93-1.89 7-3.65.33-.28 1.03-.29 1.51-.18 1.82.38 3.63.81 5.41 1.34.49.15 1.11.61 1.25 1.06.25.84-.18 1.64-1.07 1.88-.84.23-1.76.19-2.62.36-2.6.5-5.19 1.02-7.78 1.57-1.01.22-2.01.53-2.53.68ZM153.06 89.43c-.04.09.05-.14.04-.13l.07-.3c.05-.25.04-.59-.06-.88-.04-.13.02.02-.06-.13a1.37 1.37 0 0 0-.23-.32l-.21-.22c-.6-.6-1.31-1.09-1.78-1.81a2.36 2.36 0 0 1 0-2.61c.23-.38.7-.48 1.09-.29.35.18.68.41 1.04.59l.23.1.73-.13c.06-.06.13-.12.19-.2.14-2.33-1.27-3.32-2.99-4.15-1.15-.56-2.03-.48-2.68.67a8.05 8.05 0 0 0-.28 8c1.31 2.62 1.93 2.98 4.75 2.07.06-.09.12-.19.16-.29ZM203.51 73.47c-1.29-.2-1.76-1.87-.71-2.64.25-.19.53-.34.78-.47a14.12 14.12 0 0 1 4.51-1.32c.72-.1 1.95.36 2.21.92.34.71.23 1.94-.19 2.65-1.44 2.44-2.98 2.65-5.44 1.23a3.4 3.4 0 0 0-1.17-.36ZM183.63 71.38c.67.02 1.16.58 1.03 1.17-.55 2.44-.86 2.45-3.5 2.53-1.4.04-2.81.1-4.2.03-2.09-.1-3.35-1.29-3.44-2.96-.03-.57.5-1.04 1.12-1.02l8.99.25ZM102.1 116.18a3.1 3.1 0 0 1 4.64.27l.02.03c1.24 1.71 2.3 3.55 3.37 5.37.96 1.65.57 2.95-.94 4.04-1.21.88-2.3 1.93-3.5 2.82l-.07.05a3.5 3.5 0 0 1-5.02-1c-.87-1.39-1.71-2.73-2.52-4.1a3.35 3.35 0 0 1 .46-3.93l3.57-3.55ZM105.96 138.71c-.74.27-1.36-.65-.82-1.23a9.14 9.14 0 0 1 3.88-2.48c1.77-.61 3.26-2.02 4.94-2.95.38-.21.79-.37 1.24-.53.6-.21 1.08.54.63.99a31.93 31.93 0 0 1-9.87 6.21ZM329.96 170.04c-.96.5-2.01.78-2.93 1.35-.86.54-1.64 1.21-2.39 1.89-1.5 1.37-2.98 2.64-4.91 3.37-.48.18-.82.63-.68 1.16.12.46.68.87 1.16.68a16.87 16.87 0 0 0 5.41-3.53c.71-.65 1.41-1.31 2.22-1.83.96-.63 2.06-.92 3.07-1.44 1.09-.56.13-2.21-.95-1.65Z"/>
    <path d="M312.94 181.78c-.12-.45-.68-.88-1.16-.68-.85.35-1.76.39-2.64.61-.9.21-1.77.53-2.62.87-1.69.67-3.35 1.42-5.16 1.69-.51.08-.8.7-.68 1.16.14.54.65.76 1.16.68 1.81-.27 3.47-1.03 5.16-1.69.83-.33 1.67-.64 2.54-.85.91-.22 1.86-.27 2.73-.63.48-.19.82-.62.68-1.16ZM233.6 146.9c-3.78 1.83-6.32 6.08-10.65 6.77-.51.08-.8.7-.68 1.16.14.54.65.76 1.16.68 4.58-.73 7.15-5.04 11.12-6.96 1.1-.53.15-2.18-.95-1.65ZM226.46 92.68c-.14-.54-.65-.76-1.16-.68a37.74 37.74 0 0 0-9.58 2.79c-.47.21-.59.89-.35 1.3.28.49.83.56 1.3.35a36.02 36.02 0 0 1 9.1-2.6c.51-.08.8-.7.68-1.16ZM323.8 53.24a98.4 98.4 0 0 0-14.06 7.63c-1.02.67-.08 2.32.95 1.65a98.94 98.94 0 0 1 14.06-7.63c1.12-.5.16-2.14-.95-1.65ZM299.52 68.08c-.41-.23-1.09-.12-1.3.36a45.96 45.96 0 0 1-7.32 11.59c-.8.92.55 2.27 1.36 1.34a47.4 47.4 0 0 0 7.62-11.98c.21-.47.12-1.03-.36-1.3ZM277.31 91.42c-.23-.4-.89-.66-1.3-.35-3.2 2.42-7.17 3.26-10.93 4.42-1.17.36-.69 2.21.48 1.84 3.91-1.2 8.08-2.1 11.41-4.61.41-.31.63-.82.35-1.3ZM137.33 113.09a71 71 0 0 1-12.89 10.07c-1.05.64-.1 2.29.95 1.65a72.93 72.93 0 0 0 13.29-10.38c.87-.86-.48-2.2-1.36-1.34ZM114.55 131.64c-2.99 1.93-6.34 3.22-9.23 5.32-.42.3-.63.82-.35 1.3.24.41.88.65 1.3.35 2.89-2.09 6.24-3.39 9.23-5.32 1.03-.66.08-2.32-.95-1.65ZM275.77 67.06a23.9 23.9 0 0 0-2.74-4.85c-.79-1.09-2.11-1.33-3.16-.4l-2.65 2.34-1.26 1.11c-.64.57-1.34 1.07-1.47 1.99-.11.82.3 1.46.69 2.14l.83 1.44c.33.56.68 1.09 1.1 1.6.33.4.74.73 1.08 1.13.67.8 2.13.73 2.81 0 .17-.04.33-.1.48-.19 1.26-.76 2.5-1.55 3.71-2.39.44-.31.79-.68.93-1.21a2 2 0 0 0 .05-.74 3.76 3.76 0 0 0-.43-1.96Zm-6.75.84 1.26-1.11.61-.54c.32.54.61 1.11.89 1.67l-1.8.9c-.13.06-.24.15-.35.24l-.06-.1-.61-1.01.06-.05ZM316.87 93.09c-.21-.41-.58-.76-.82-1.09-.61-.85-1.03-1.82-1.82-2.53-.33-.3-.79-.59-1.04-.9-.3-.37-.41-.75-.5-1.23-.14-.8-1.09-1.27-1.83-1.07-.84.22-1.21 1.03-1.07 1.83.16.91.58 1.74 1.16 2.45.48.58 1.21.99 1.62 1.55.48.66.83 1.39 1.35 2.03-.21.31-.48.57-.77.81-.64.53-1.34.97-1.9 1.6-.31.34-.59.72-.85 1.1l-.36.53c-.17-.15-.35-.3-.5-.47-.43-.48-.67-1-.76-1.7-.11-.8-1.11-1.26-1.83-1.07-.86.23-1.18 1.02-1.07 1.83a5.72 5.72 0 0 0 1.38 2.86c.68.82 1.68 1.76 2.79 1.82 1.24.07 2.05-.76 2.62-1.76a6.3 6.3 0 0 1 1.8-2.01 6.98 6.98 0 0 0 2.32-2.54c.31-.67.4-1.37.06-2.05Z"/>
    <g>
      <path d="M257.76 107.02c-.27-.68-.54-1.36-.83-2.03a7.6 7.6 0 0 0-.82-1.51c-.52-.71-1.18-1.5-2.11-1.62a1.92 1.92 0 0 0-1.65.59c-.19.2-.34.44-.49.68-.28.33-.61.63-.91.95a4.24 4.24 0 0 0-1.07 1.75c-.23.75.29 1.67 1.06 1.84.8.18 1.57-.25 1.82-1.03a.2.2 0 0 1-.04.06l.06-.12c.03-.08.06-.12.05-.08l.05-.08c.25-.3.54-.56.81-.84l.1-.12c.24.41.45.84.63 1.28l.42 1.04c.16.39.33.71.71.93.31.18.77.26 1.12.15.38-.12.74-.35.93-.71.17-.32.29-.77.15-1.12Z"/>
      <path d="M252.79 106.57v.02l-.02.03.07-.13c0 .02-.02.03-.03.04l-.02.03Z"/>
    </g>
    <path d="M308.23 133.88c-.74-1.78-2.22-3.04-3.64-4.28-1.47-1.29-2.75-2.73-4.26-3.97l.23-.18c2.67-2.15 5.92-4.7 7.06-8.06.27-.81-.14-1.41-.74-1.67a1.33 1.33 0 0 0-1.76-.25 50.78 50.78 0 0 0-7.88 5.88l-.73.69a35.13 35.13 0 0 1-4.44-5.84c-.68-1.13-2.11-.79-2.63.07a2.63 2.63 0 0 0-.66 2.39c.24 1.1 1.08 2.05 1.72 2.95.79 1.11 1.61 2.2 2.46 3.26l-.23.14c-.28.16-.57.3-.86.45a13.77 13.77 0 0 0-3.36 2.35 7.89 7.89 0 0 0-1.4 1.6 1.83 1.83 0 0 0-.07 1.81c.29.5.78.75 1.3.94a4.4 4.4 0 0 0 2.41.14c1.35-.28 2.59-1.29 3.69-2.07.7-.5 1.39-1.02 2.07-1.56a69.8 69.8 0 0 0 3.98 3.51c1.9 1.54 3.72 3.06 6.05 3.91 1.38.5 2.13-1.14 1.69-2.2Z"/>
  </g>
</svg>
