<svg xmlns="http://www.w3.org/2000/svg" viewBox="0 0 393 393">
  <defs>
    <style>
      .c{fill:#f4d75c}.e{fill:#e3c724}.k{fill:#846528}
    </style>
  </defs>
  <g id="b">
    <path class="e" d="m251.25 43.52.01-.06c.62-3.37-.4-6.83-1.26-10.13-.03-.39-.08-.79-.09-1.18a70.9 70.9 0 0 1-.09-4.61c.01-1.36.28-2.87-.04-4.21-.78-3.27-4.17-3.12-6.86-3.13-6.13-.04-12.09.89-18.1 1.97a107.53 107.53 0 0 1-18.44 1.67c-5.29.02-11.8-1.02-15.6 3.2-4.11-.08-8.22-.08-12.3.63-2.36.41-4.9 1.06-6.59 2.89-1.77 1.93-1.75 4.28-1.33 6.64-1.33-.18-2.93.9-2.58 2.64l.05.21a222.06 222.06 0 0 0-8.66 18.41 92.47 92.47 0 0 0-3.36 9.87c-.67 2.45-1.7 5.22-.99 7.64l-.13.45c-.38 1.43 1.06 3.27 2.63 2.65 3.8-1.5 6.95-4.9 9.85-7.69a104.8 104.8 0 0 0 8.93-9.79c.94-1.17 1.93-2.36 2.32-3.79.31.03.63.02.97-.07.5-.13.99-.45 1.38-.87.2.05.4.09.63.1 3.69.24 7.39.39 11.09.44 3.09.04 6.43.27 9.43-.64 3.09-.94 5.16-3.06 7.13-5.51.9-1.12 1.83-2.27 2.55-3.52.81-1.41 1.04-2.99 1.73-4.42l1.15-.41.26.19c1.37.99 2.65 1.88 4.18 2.63 3.13 1.52 6.25 3.18 9.48 4.47 2.97 1.2 6.18.57 9 2.02 2.81 1.44 5.98 2.42 8.77.39.2-.14.38-.32.57-.49 1.52.6 3.58.1 3.99-1.82.48-2.23.5-4.49.32-6.76Z"/>
    <path d="M235.67 337.15c-.79-6.94-2.9-13.44-3.2-20.46a64.98 64.98 0 0 0-3.5-19.25c-2.47-7.19-2.87-14.5-3.84-21.97-.57-4.43-1.66-8.65-6.37-10.17-5.92-1.91-13.69-.6-19.87-.67l-22.1-.24c-7.97-.09-17 .9-24.76-1.1-5.39-1.39-8.43 4.54-6.56 8.36-.3.72-.44 1.57-.35 2.56 1.2 13.72-1.34 27.9-2.62 41.56-1.35 14.36-2.28 28.84-4.81 43.06-.58 3.28 1.54 7.65 5.53 7.25a80.86 80.86 0 0 1 15.94-.15c4.68.47 9.16 2.21 13.79 2.66 8.85.87 9.9-7.28 11.32-14.13.95-4.58 1.84-9.22 3.36-13.65.28-.92.62-1.82 1-2.71 1.03 1.65 1.79 4.13 2.29 5.51 3.03 8.37 4.24 17.08 8.33 25.08 1.12 2.2 4.1 3.35 6.44 2.7a337.16 337.16 0 0 1 27.17-6.45c2.34-.45 4.46-3.14 4.31-5.55-.46-7.4-.66-14.87-1.5-22.23Z" style="fill:#c7b051"/>
    <path class="k" d="M232.88 173.76a18.88 18.88 0 0 0-4.61-.22c2.92-3.59-2.78-8.78-6.78-5.43-2.67 2.24-6.35 2.9-9.4 4.48-2.83 1.47-5.47 3.45-8.07 5.29a47.87 47.87 0 0 0-4.15 3.27 4.08 4.08 0 0 0-2.29-.59l-25.61.59c-3.07-1.5-7.61.68-6.16 4.67 3.06 8.45 3.25 16.82 3.75 25.7.15 2.69 2.59 5.03 5.41 4.21 8.61-2.52 17.51-5.76 24.47-11.59 3.08-2.58 5.77-6.49 9.5-8.16 4.81-2.15 11.73-.7 16.76-.41.28.02.53 0 .78-.03 1.75.55 3.53.89 5.44.57a4.2 4.2 0 0 0 3.09-3.06c.52-3.17.36-5.93 1.92-8.88.89-1.68 2.09-2.64 2.15-4.67.12-4.04-2.85-5.18-6.2-5.73ZM242.63 233.44a2.93 2.93 0 0 0-4.07.03l-.55.5-.05.05-.05.03a12.33 12.33 0 0 1-2.59 1.41l-.17.07-.05.02-.71.27c-2.1.79-4.26 1.49-6.2 2.61-1.3.75-1.89 2.62-1.05 3.94a2.93 2.93 0 0 0 3.94 1.05c.46-.26.93-.51 1.41-.73l.51-.23c-.18.07-.32.12 0 0l.08-.03.09-.04-.08.04.23-.09c1-.39 2.01-.73 3-1.12 2.33-.9 4.53-1.93 6.34-3.7 1.08-1.06 1.11-3.04-.03-4.07ZM233 242.47l.09-.04-.09.04ZM244.91 205.57c-.3-1.34-1.52-2.03-2.77-2.16a76.1 76.1 0 0 0-10.24-.37c-1.51.05-2.96 1.27-2.9 2.87.02.44.14.87.33 1.26-.45 1.27-.1 2.93 1.22 3.56.79.37 1.59.66 2.44.82.68.13 1.37.2 2.06.32 1.41.24 2.81.59 4.17 1.05.98.33 1.85.75 2.93.47a3.14 3.14 0 0 0 2.34-3.14l-.02-.29.02-.1.1-.4.24-.87a6.5 6.5 0 0 0 .08-3.04Z"/>
    <path d="M241.06 216.33c-.27-.7-.8-1.33-1.6-1.75-.87-.46-1.83-.83-2.8-1.17a8.95 8.95 0 0 0-4.48-1.37 2.55 2.55 0 0 0-2.14.85c.2-4.55-.07-9.12-.67-13.62-.15-1.08-.31-2.27-1.13-3.08-.93-.91-2.24-.92-3.45-.91l-8.1.01c-2.82 0-3.51 3.32-2.06 4.92l-.05.17c-.49 3.52-.19 7 .19 10.49a2.64 2.64 0 0 0-2.99-.14c-3.14 1.96-7.07 2.01-10.27 3.94-2.61 1.57-1.31 5.08 1.42 5.38 3.22.35 6.4 1.2 9.54 2.23.13.42.37.82.75 1.16a7.72 7.72 0 0 0 3.23 1.83c.96.25 1.83.14 2.74.13a4.2 4.2 0 0 0 2.1.64 6.8 6.8 0 0 0-2.44 2.35c-1.18 2.11-.48 5.16-.37 7.41.24 4.68 6.43 5.44 8.18 2.21a3.5 3.5 0 0 0 2.95-.74c3.55-2.68 7.78-3.82 11.61-5.99 4.37-2.47 3.38-6.17 3.66-10.65.13-2.12-1.76-4.06-3.83-4.33Z" style="fill:#8f8f8f"/>
    <path d="M219.86 228.67c-.54-1.7-2.11-2.21-3.58-2.87-1.21-.54-2.41-1.1-3.63-1.62-2.4-1.02-4.87-1.26-7.37-1.88-2.5-.62-4.92-1.48-7.34-2.34-1.91-.68-3.44 1.08-3.63 2.77a35.58 35.58 0 0 0-.05 7.44c.15 1.55 1.2 2.89 2.87 2.9.35 0 .71-.08 1.05-.22.91.42 1.9.72 2.76 1.06l5.12 2.05c3.29 1.32 6.58 2.84 10.08 3.53 1.95.39 3.43-.85 3.63-2.77.13-1.31.23-2.62.29-3.94.05-1.33.23-2.83-.18-4.11Z" style="fill:#737474"/>
    <path d="M236.89 212.58a59.62 59.62 0 0 0-7.86-1.74 13.7 13.7 0 0 1-.93-5.91c.25-2.48 1.23-4.57.56-7.11a2.96 2.96 0 0 0-2.77-2.16c-3.01-.04-5.99-.3-8.95-.85-2.22-.41-4.77 1.99-3.24 4.22 1.65 2.41 1.77 5.17 1.64 8.01-.06 1.33-.11 2.7-.33 4.02-1.1.14-2.11.42-3.07.85a35.4 35.4 0 0 0-3.95.52 31.76 31.76 0 0 0-6.71 2.2c-1.43.63-1.77 2.69-1.05 3.94.85 1.47 2.5 1.68 3.94 1.05l.5-.2c.27.88.92 1.66 1.93 1.98l8.44 2.72c2.65.85 5.07 1.22 7.74.19 4.82-1.85 8.91-5.25 14.09-6.15 2.97-.51 2.61-4.82.02-5.57Z" style="fill:#a3a3a3"/>
    <path d="M228.41 14.69c-8.95-1.32-17.93-2.98-26.93-3.91-4.55-.47-8.77.33-13.25.95-3.98.55-8.01.35-11.99.87-7.07.93-13.33 4.99-16.68 11.38-1.72 3.28-2.09 6.49-2.54 10.1a4.18 4.18 0 0 1-2.07 3.36 66.74 66.74 0 0 0-4.79 3.56c-5.63 4.67-10.24 11.01-11.64 18.3-.74 3.84-.69 7.82.47 11.57 1.22 3.94 2.85 7.26 2.43 11.51-.41 4.14-2.02 8.16-3.45 12.03a253.68 253.68 0 0 1-10.02 23.37c-1.75 3.58-4.42 7.43-1.73 11.26 1.36 1.93 3.38 3.39 5.13 4.94l5.12 4.52c3.54 3.1 7.29 4.87 12.04 3.51a25.84 25.84 0 0 0 6.41-3.05c1.86-1.15 3.27-2.41 3.59-4.68.65-4.69.79-9.5 1.14-14.23.59-1.34.97-2.77 1.06-4.3h2c.35 0 .68-.01 1.03-.06a3.5 3.5 0 0 0 2.11-.97c.91-.93 1.2-2.18.95-3.43-.04-.22-.13-.4-.22-.61-.1-.24-.15-.4-.29-.59a4.91 4.91 0 0 0-1.46-1.41c-.47-.32-.99-.56-1.49-.82-.42-.23-.9-.34-1.38-.36a2.42 2.42 0 0 0-.27-.67 2.89 2.89 0 0 0-3.94-1.05l-.61.47-.04.05c-.62-2.3-1.14-4.61-2.27-6.79a19.15 19.15 0 0 1-2.28-9.85c.09-3.89.66-7.74.33-11.63l.11-.32a292.35 292.35 0 0 1 10.53-35.36c.38-1.02.79-2.02 1.17-3.04.53-.86 1.05-1.72 1.52-2.61 1.21-2.29 2.09-4.74 3.21-7.07.44-.91.91-1.86 1.49-2.72.87-.33 1.87-.44 2.76-.6 1.58-.3 3.17-.59 4.75-.87 1.17-.21 2.34-.4 3.51-.59.5.46 1.13.74 1.81.66l43.89-5.15c1.43-.17 2.66-.96 2.85-2.5.15-1.29-.65-2.95-2.09-3.16Z" style="fill:#fce695"/>
    <path d="M246.86 57.49a3.74 3.74 0 0 0-2.67-3.5c-3-.96-6.1-.87-9.2-.58-1.49.14-2.98.31-4.45.31a18.44 18.44 0 0 0-7.78-4.89 2.59 2.59 0 0 0-.54-.11c-.66-.92-1.24-1.87-1.78-2.72-1.74-2.74-5.57-2.08-6.6.87a17.73 17.73 0 0 1-7.77 9.28c-4.43 2.61-8.99 2.34-13.96 2.47-2.98.07-5.97.39-8.91.88-3.08.52-5.3 1.71-7.5 3.92-4 4.04-8.8 7.98-11.82 12.86a14.3 14.3 0 0 0-1.15 2.32 8.54 8.54 0 0 0-5.31 2.5c-3.62 3.79-4.18 9.89-2.95 14.77 1.42 5.61 5.85 11.67 11.88 12.69.68.12 1.36.07 1.98-.11.89 2.66-.2 6.02-2.27 7.88-1.49 1.34-3.62 1.78-4.67 3.76-1.29 2.43-1.46 5.6-1.66 8.28-.18 2.5-.19 5.02-.12 7.52.07 2.89.83 5.03 2.93 7.09a88.36 88.36 0 0 0 11.42 9.26c3.97 2.76 8.22 4.88 12.38 7.31 1.07.62 1.88 1.58 2.94 2.19a4.5 4.5 0 0 0 4.1.01c2.24-1.13 4-3.62 5.81-5.34 3.64-3.46 7.52-6.59 11.5-9.64a5.5 5.5 0 0 0 2.19-2.92c.38-1.43-.09-2.81-.35-4.21-.18-.98-.26-1.97-.28-2.97l.03-.46c.1 0 .2 0 .3-.02a25.76 25.76 0 0 0 22.82-19.32c.06-.24.09-.48.11-.7a87.6 87.6 0 0 0 1.69-2.98c1.31-2.42 2.61-4.87 3-7.62.37-2.59-.05-5.23 1.03-7.67 1.14-2.56 2.17-4.81 2.45-7.64.25-2.59.2-5.2.47-7.79.28-2.63.72-5.25 1.15-7.86.93-5.66 1.84-11.36 1.55-17.12Z" style="fill:#ecc1a4"/>
    <path class="c" d="M242.45 373.54c-.75-.75-1.7-1.27-2.5-1.95-.8-.68-1.16-1.76-1.93-2.53-.45-.45-1.02-.81-1.55-1.17-.1-.07-.47-.35-.66-.47a4.85 4.85 0 0 0-.3-.44 4.15 4.15 0 0 0-2.17-1.7c-2.44-.87-5.65-.04-8.08.62-2.3.62-4.52 1.47-6.79 2.19-2.57.81-5.44 1-7.86 2.2a6.94 6.94 0 0 0-3.97 6.11c0 1.51.63 2.84 1.12 4.23a46.2 46.2 0 0 1 1.17 3.85c.78 2.98 4.1 3.17 5.91 1.66 3.82 1.09 8.06-1.05 11.92-1.78 5.1-.97 10.02 0 15.13-.02 1.85 0 3.74-1.62 3.62-3.58a10.87 10.87 0 0 0-3.07-7.22ZM169.7 376.91c-.45-2.1.33-4.85-1.19-6.77-1.56-1.97-5.14-2.57-7.52-2.66-1.19-.05-2.36.16-3.54.18-1.19.02-2.28-.24-3.43-.54-2.5-.65-5.21-1.44-7.8-.86-3.06.69-4.54 4.06-6.12 6.47-1.54 2.37-3.12 4.71-4.2 7.34-.74 1.79-.5 3.86 1.34 4.91 1.2.68 3.08.57 4.2-.39.44.2.91.34 1.44.33l16.2-.43 3.84-.1c1.38-.04 2.92.1 4.27-.22a4.39 4.39 0 0 0 3.28-3.04c.43-1.62-.51-2.9-.79-4.21Z"/>
    <path class="e" d="M247.38 174.53c-1.2-4.21-3.01-8.22-4.82-12.2-2.14-4.7-5.2-8.8-8.11-13.04-.85-1.24-2.08-1.55-3.14-1.27-1.89-1.15-4.11-1.49-6.25-1.92-4.38-.87-9.53-3-13.47-.03-1.71 1.29-3.59 2.28-5.32 3.52-1.97 1.42-3.42 3.25-5 5.06a49.29 49.29 0 0 1-9.6 8.41c-.2-.12-.42-.23-.66-.31a27.86 27.86 0 0 1-6.14-2.85c-1.83-1.15-3.42-2.66-5.31-3.72-1.92-1.08-4.03-1.76-5.83-3.06-1.78-1.29-3.31-2.92-4.93-4.39a37.79 37.79 0 0 0-5.22-3.94 24.37 24.37 0 0 1-4.56-3.79c-1.57-1.62-3.58-2.52-5.83-1.88a23.9 23.9 0 0 0-3.8 1.52 2.13 2.13 0 0 0-1.41.03c-3.2 1.28-6.79 2.28-9.78 4-3.01 1.73-3.98 5.19-4.96 8.29a254.98 254.98 0 0 0-5.68 20.86c-.79 3.49-1.01 7.05-1.63 10.57-.6 3.43-1.6 6.76-2.26 10.18-1.27 6.53-1.21 13.6 3.26 18.96 4.21 5.05 10.92 5.22 17.14 5.22l-.01 1.54c-.12 4.72.78 8.12 1.41 12.57.66 4.66-1.71 9.99-2.11 14.66-.62 7.18-.17 13.53 7.87 15.56 3.44.87 6.83.14 10.3.23 4.91.14 9.59 1.76 14.54 1.8a5.51 5.51 0 0 0 3.35-1.01c10.08.81 19.91.81 30.16-.07.8.52 1.77.88 2.94.93 4.28.19 9.64 1.12 12.55-2.94 2.98-4.16.2-9.63 1.98-14.21 1.85-4.75-4.45-8.92-8.45-6.48-1.17.71-6.25-2.12-7.35-2.48-2.84-.93-5.75-1.63-8.63-2.45-2.07-.59-6.42-1.05-7.76-2.92-1.3-1.81-1.66-9.27-1.39-10.93.13-.81.1-1.55-.05-2.25a102.8 102.8 0 0 1 12.34-6.48c2.11-.92 4.29-1.71 6.29-2.86 2.44-1.4 4.18-3.07 2.91-6.01-.42-.97-.76-1.97-.87-3.03-.13-1.16-.05-2.31-.65-3.37-1.51-2.67-4.59-2.15-6.68-.58a35.76 35.76 0 0 0-5.37 4.84c-1.63 1.83-3.1 3.72-4.97 5.32-4.01 3.43-9 4.92-13.93 6.47a5.35 5.35 0 0 0-2.99.16c-2.15.69-4.53 1.72-6.81 1.72a4.5 4.5 0 0 0-1.88.24 2.26 2.26 0 0 0-.47-.68c-1.62-1.82-1.24-11.08-1.53-13.58-.78-6.78-.98-14.18-4.05-20.36-.06-.12-.14-.21-.2-.32l.94-.18c1.81-.32 3.53-.33 5.35-.17 3.45.3 6.81-.38 10.09-1.36a96.78 96.78 0 0 0 14-.39c1.59-.16 3.16-.29 4.65-.78a7.43 7.43 0 0 0 4.02-1.43c2.17-1.57 4.14-3.34 6.41-4.8 2.34-1.5 4.77-2.84 7.2-4.18 2.28-1.25 4.56-2.64 7.25-2.17 1.19.21 2.45.6 3.57 1.07 1.12.46 1.27 1.07 1.81 2.1 1.13 2.14 3.14 3.54 5.26 4.59 1.48.73 4.26 1.55 4.78 3.36.61 2.11-1.51 4.66-2.33 6.47-1.24 2.74-1.28 5.4-1.41 8.34-.13 2.77-1.66 3.77-4.09 4.73-3.1 1.22-2.59 5.24.71 5.67 3.23.42 6.49.49 9.73.11 1.59-.18 3.04-.68 3.91-2.12.75-1.23.75-2.81.88-4.19.6-6.5 1.03-13.02 1.3-19.55a2.52 2.52 0 0 0-1.21-2.38Z"/>
    <path d="M254.26 43.81c-.03-2.13.04-4.29-.31-6.37-.85-5.17-1.98-10.28-2.84-15.45-.51-3.08-2.3-4.94-5.47-4.87-2.95.06-5.89.34-8.83.56-1.27.09-2.3.1-2.96-1.41-1.95-4.43-5.66-6.33-10.31-6.61a87.9 87.9 0 0 0-6.49-.19c-4.04.06-8.07.35-12.11.3-3.5-.04-6.98-.53-10.48-.63-4.88-.14-9.75-.27-14.48-1.46h-1.31c-2.23-.09-4.32-.11-6.3 1.04-2.38 1.39-4.35 3.44-6.54 5.14a2.8 2.8 0 0 1-.48.81c-1.38 1.42-2.98 2.63-4.34 4.07-2.69 2.83-6.17 4.86-6.04 9.87.1 3.91-2.15 7.49-5.66 9.86-.5.34-.95.76-1.38 1.18-3.03 2.94-6.02 5.91-9.08 8.82-2.34 2.22-3.67 4.63-3.11 8.1.72 4.49 1.01 9.05 1.4 13.59.08.91-.3 1.84-.28 2.76.06 2.69.23 5.38.32 8.07.08 2.51.86 4.81-1.01 7.44-1.85 2.59-2.24 6.21-3.29 9.37-1.13 3.41-2.38 6.77-4.63 9.65-.22.29-.31.69-.43 1.05-1.86 5.52-3.81 11.01-5.5 16.58-.34 1.11-.14 2.88.57 3.71 1.91 2.25 4.22 4.16 6.38 6.19l8.09 7.58-1.9.59c-.29.46-.62.9-.95 1.34a29.4 29.4 0 0 0-2.86 7.05c-.94 3.13-1.91 6.24-2.86 9.36a171.44 171.44 0 0 0-5.17 21.05c-.43 2.47-.76 4.94-1.08 7.42-.13.2-.23.43-.25.72a54.87 54.87 0 0 1-.78 6.92l-.07.34v.05l-.15.83c-.56 2.7-.74 5.24-.18 7.96.35 1.7.85 3.34 1.54 4.86 1.51 5.7 7.27 7.97 12.7 9.14 1.21.15 2.42.29 3.63.35 1.4-.11 2.81-.21 4.23-.36.2 2.95.67 5.48.46 7.95-.36 4.24-1.26 8.43-1.71 12.66-.37 3.46-.66 6.9-.21 10.46.41 3.25-.05 6.61 2.13 9.29-.47 1.3-.57 2.55-.56 3.79 0 .51.34 1.03.31 1.54-.39 7.99-.31 16.02-1.42 23.96-.03.23-.11.46-.19.68.02 2.93.13 5.87-.03 8.8-.16 2.93-.61 5.83-.78 8.76-.06 1.09-.14 2.17-.22 3.26.08.66.15 1.32.1 1.98-.1 1.42-.47 2.83-.75 4.24-.16 1.93-.03 3.94-.63 5.79-.4 4.66-.77 9.32-1.06 13.99-.16 2.52.27 5.09-.07 7.58-.82 6.13-1.93 12.22-2.93 18.33-.55 3.37-.29 3.87 3.31 5.71-.37.75-.68 1.56-1.13 2.27-2.25 3.56-4.92 6.98-5.44 11.31-.42 3.53-.48 4.64 3.78 4.41 4.74-.25 9.48-.41 14.23-.55 6.04-.18 12.08-.24 18.11-.46 1.79-.07 3.12-1.22 3.18-3.02.14-4.4.05-8.81.05-13.51 1.3.15 2.94.49 4.57.48 1.38 0 3.14.05 4.08-.72 3.67-3 4.81-7.27 5.51-11.83.74-4.86 1.97-9.64 3.07-14.83.49.79.97 1.29 1.15 1.89 1.09 3.55 2.07 7.13 3.17 10.68 1.46 4.72 2.93 9.44 4.5 14.12 1.3 3.85 3.45 5.35 7.37 5.32-.09 1.75-.23 3.5-.25 5.25-.04 4.26 3.56 7.98 7.8 7.87.88-.02 1.76-.11 2.64-.21a267.4 267.4 0 0 0 16.74-.74c3.2-.21 6.39-.68 9.56-1.13.65-.09 1.31-.18 1.95-.3 1.4-.1 2.84-.24 3.99-1.11l.17-.29c.26-.53.44-1.11.61-1.71-.19-1.1-.34-2.23-.91-3.06-3.29-4.77-6.79-9.39-10.35-14.25 2.47-1.84 2.67-4.64 2.5-7.38-.41-6.45-.92-12.9-1.6-19.32a368.64 368.64 0 0 0-2.44-18.43c-.5-3.12-1.46-6.17-2.29-9.23-.25-.93-.66-1.87-1.03-2.81l-.28-1.09c-.39-1.6-.85-3.23-.97-4.89-.23-3.19-.31-6.29-.99-9.44 0-.04-.03-.06-.04-.1-.5-3-1.24-5.97-1.63-8.99-.72-5.47-1.23-10.97-1.8-16.46-.04-.39.05-1.01.31-1.17 2.74-1.74 2.5-4.44 2.47-7.13-.06-4.33-.02-8.67-.02-12.48 2.66-1.22 5.35-2.32 7.92-3.67 2.19-1.14 4.49-2.29 6.27-3.94l.34-.3c.67-1.05 1.37-2.12 1.71-3.29.54-1.82.16-4.04.14-5.92-.06-4.03-.2-8.04.21-12.06.2-1.93.47-3.86.83-5.77.38-2 1.05-3.98 1.25-6 .21-2.08.48-4.18 1.04-6.19.35-2.8.69-5.59 1-8.4.56-5.17.63-10.46-.64-15.54-.68-2.75-1.62-5.42-2.5-8.11a28 28 0 0 1-.63-2.39 253.14 253.14 0 0 0-9.78-16.71c-.26-.4-.6-.75-.96-1.1-.36-.28-.73-.55-1.11-.8-1.25-.8-2.7-1.31-4.09-1.82a30.7 30.7 0 0 0-2.29-.76c-2.27-.14-4.54-.28-6.81-.4-5.48-.3-5.38-.07-6.89-5.25 1.27-.17 2.57-.19 3.78-.52 4.38-1.18 9.2-1.29 12.01-5.92 1.44-2.37 3.07-4.63 4.69-6.89a180.2 180.2 0 0 0 2.7-4.92c.52-1 1.09-2.01 1.56-3.04.3-.9.63-1.8.97-2.69.22-.77.42-1.53.65-2.29.31-1.02.78-2 1.24-2.99.48-1.6.82-3.21.87-4.83.26-8.85 3.3-17.02 4.69-25.56.52-3.21 1.39-6.39 1.59-9.61.28-4.54.07-9.11.07-13.64 3.92-.89 5.38-3.07 4.97-6.95-.14-1.26.22-2.56.2-3.84Zm-123.41 88.15c-1.37-1.39-2.82-2.74-3.96-4.3-.41-.56-.17-1.74.03-2.58.65-2.64 1.29-5.3 2.18-7.87.64-1.85 1.68-3.57 2.52-5.35.14-.31.3-.61.47-.92.62-1.59 1.3-3.16 2.02-4.71v-.04c.24-1.74 1.14-3 2.05-4.26.81-1.63 1.64-3.24 2.5-4.83.19-.49.38-.98.6-1.46.22-.46.53-1 .91-1.35l.08-.15a20.53 20.53 0 0 0 2.68-9.44c0-.19.06-.34.14-.47l-.83-17.87c-.18-4.09-.43-8.19-.41-12.29 0-1.17.56-2.54 1.3-3.46 1.39-1.72 3.44-2.96 4.6-4.79 2.31-3.64 6.28-5.05 9.26-7.73.98-.88 1.45-2.56 1.68-3.96.31-1.86.29-3.8.16-5.69-.16-2.31 1.19-3.51 2.77-4.8 1.11-.91 1.77-2.35 2.85-3.3a27.06 27.06 0 0 1 4.03-2.8c2.91-1.77 5.73-3.82 9.36-3.78 1.82.02 3.72.52 5.46.18 8.42-1.67 16.89-.26 25.32-.54 1.16.21 2.31.48 3.47.72 2.23.46 4.41.64 6.68.47l2.77-.25c1-.02 1.99-.03 2.99 0 3.06.11 4.84 1.53 5.57 3.98l-19.06 2.97c-.56.09-1.12.2-1.68.32l-.73.05c-2.06.16-4.11.37-6.16.55-5.32-.39-10.49.53-15.64 1.49-3.34.37-6.67.85-9.94 1.56l-.66.06c-2.15.18-4.23 1.06-6.36 1.53-.66.14-1.13.38-1.28.74-.16.11-.32.2-.46.34-.84.83-.98 2.01-1.22 3.12a47.09 47.09 0 0 1-.83 3.31c-1.86 5.03-3.57 10.11-5.54 15.09-1.38 3.5-2.92 6.95-4.51 10.37a96.1 96.1 0 0 1-1.94 6.82c-.81 2.38-1.74 4.72-2.53 7.11-.73 2.22-1.23 4.49-.77 6.78l.17.3c.33.12.59.4.58.87-.11 3.49-.28 6.94-.26 10.43 0 1.58.03 3.19.45 4.72a12.92 12.92 0 0 0 1.87 3.75c.85.98.89 1.94.29 3.45-2.23 5.59-1.38 10.64 4.8 14.28l.03 3.09c0 .06.03.11.04.17-.27 2.8.03 5.62-.07 8.43-.06 1.7-.24 4.43-1.77 5.6l-.04.04-.08.05c-.08.05-.15.11-.23.15a8.21 8.21 0 0 1-3.03 1.26c-2.01.35-4.11.18-6.1.6a13.06 13.06 0 0 0-4.39 1.89c-2.24 1.48-3.72 1.19-5.41-.77-2.1-2.45-4.55-4.61-6.82-6.91Zm39.44-91.34 7.06 17.31c-4.37 4.77-8.81 9.41-13.02 14.26-2.37 2.73-5.57 3.54-9.25 4.99 1.59-5.01 2.99-9.56 4.47-14.08 1.32-4.03 2.62-8.08 4.15-12.03.62-1.6 1.12-3.26 2.18-4.68l2.66-6.02c.11-.26.37-.4.64-.44l.45-.91.61 1.48.05.12Zm-13.6 68.68c.11-.87.52-1.79 1.31-2.2l.09-.08c.36-.23.91-.29 1.32-.17.3.08.52.26.72.46.53.32 1.02.67 1.58.95 1.11.57 2.29.98 3.43 1.49.15.07.25.21.3.37.09.1.18.2.25.32.56.96.35 2.21-.19 3.13a4.28 4.28 0 0 1-2.19 1.83c-.69.26-1.45.19-2.11-.11-1.13-.4-2.39-.61-3.02-1.35a4.6 4.6 0 0 1-1.08-2.39 4.42 4.42 0 0 1-.41-2.24Zm7.52 274.59c-3.56.28-7.16 0-10.74 0-3.68 0-7.36-.03-11.03.09-1.93.06-4.05.28-5.06-1.56-1.26-2.29-.16-4.52 1.21-6.53 1.18-1.73 2.37-3.51 3.92-5.81l.11-.16.38-.58c.17-.21.36-.39.57-.56l-.31.24c.35-.27.7-.52 1-.85.16-.17.31-.34.48-.5 1.35-.29 2.71-.46 4.11-.51 1.62-.06 3.32-.13 4.98-.04.73.13 1.46.29 2.2.49 1.51.41 3.01.91 4.56 1.15.3.05.61.07.91.1l.81.21c1.64.34 3.3.56 4.97.68.33 3.71.67 6.98.86 10.24.18 3.07-.28 3.63-3.92 3.91Zm75.99-9.38c1.09 1.45 2.29 2.83 3.27 4.35 1.3 2.03 1.09 3.22-.62 3.69-.7.1-1.37.13-1.62.17l-1.08.15c-7.93.61-15.87 1.21-23.81 1.75-1.42 0-2.84-.04-4.26-.08a5.47 5.47 0 0 1-3.52-5.72c.19-1.54.1-3.13 0-4.68-.1-1.46.66-1.88 1.91-2.32a79.93 79.93 0 0 1 20.49-4.35c1.03-.08 2.04-.49 3.29-.81l5.95 7.87Zm-11.22-65.76c.74 2.26.9 4.7 1.42 7.04.5 2.28 1.21 4.52 1.65 6.82.39 2 .55 4.04.79 6.07 1 8.53 2.01 17.06 2.99 25.59.16 1.44.31 2.91.17 4.34-.33 3.27-1.74 4.29-6.21 4.72-7.03.67-13.5 3.22-20 5.76-1.76.69-3.64 1.08-5.47 1.6-1.36.39-1.68-.53-1.97-1.55-.32-1.14-.6-2.3-1.04-3.39-1.51-3.74-3.18-7.43-4.6-11.2-.61-1.63-.65-3.47-1.11-5.17-.91-3.33-2.04-6.59-2.86-9.93-.71-2.86-1.5-5.79-1.56-8.7-.08-3.61.33-7.28.94-10.85 1.21-7.03 2.66-14.02 4.11-21.01.35-1.7-.29-2.88-1.69-3.32a2.43 2.43 0 0 0-.75-.11 38.16 38.16 0 0 0-1.5 5.72 31.2 31.2 0 0 1-1.17 4.23 12.23 12.23 0 0 0-.88 4.26c0 .21-.04.37-.09.54-.1 2.06-.76 4.09-1.04 6.13-.79 5.72-1.78 11.4-2.7 17.1-1.1 6.83-2.15 13.68-3.32 20.5a82.95 82.95 0 0 1-1.99 8.97c-.72 2.49-3.82 4.29-6.37 4.18-2.04-.09-4.09-.09-6.13-.16l-.77-.04c-2.82-.16-5.44-.99-8.16-1.84-3.41-1.07-7.2-1.2-10.83-1.2-2.66 0-5.32.86-7.92 1.33l6.67-100.13c4.96.57 9.84 1.29 14.75 1.66 13.36 1.02 26.71 1.95 40.14 1.18 6.16-.35 12.36-.06 18.97-.06.58 3.98 1.48 8.59 1.87 13.24.8 9.46 2.71 18.66 5.66 27.68Zm-32.77-122.3c1.06.8 2.23.64 3.21-.57 1.26-1.55 2.3-3.29 3.46-4.8 2-2.62 4.86-4.78 7.74-6.49 4.03-2.39 8.44-4.13 12.62-6.27.85-.44 1.47-.54 1.92-.33.25.04.49.12.7.25.61.38.91 1.06 1.25 1.67.17.3.33.6.47.91.13.3.35.71.3 1.05a.92.92 0 0 1-.24.57.82.82 0 0 1-.57.24l-.08-.02-6.82 1.15c-.27.14-.53.31-.67.56-.19.34-.03.82.15 1.13.21.37.55.64.9.87.33.22.66.39 1.01.54.66.13 1.46.16 2.51.08 2.65-.18 5.29-.73 7.9-1.28 3.13-.66 4.34-.14 6.1 2.5.91 1.36.95 2.18-.47 3.18-3.06 2.13-4.1 5.17-3.63 8.81.08.6.07 1.23 0 1.84-.32 3.02-.43 2.88-3.49 2.78-7.01-.22-14.04-.33-21.05-.22-2.28.03-4.1 1.29-5.73 3.23-2.36 2.81-5.38 5.06-8.06 7.6-3.67 3.48-8.3 5.33-12.84 7.14-3.03 1.21-6.43 1.48-10.3 2.31-.39-5.46-.57-10.09-1.09-14.69-.42-3.71-1.13-7.4-1.94-11.04-.43-1.96-1.34-3.81-2.23-6.27h11.45l.04-.01c1.54-.14 3.1-.12 4.64-.31 1.51-.19 2.98-.29 4.5-.36 1.5-.06 2.99-.16 4.49-.2.75-.02 1.53 0 2.27-.14l.82-.16.31-.09a7.64 7.64 0 0 1 2.68-.39c.34.03.6.18.74.5.12.27.07.68-.17.89-.52.44-1.06.86-1.55 1.33-.42.42-.8.9-1 1.41-.06.14-.1.28-.14.43l-.05.19-.03.13-.02.33Zm34.46 30.65.25-.14h.01c.03-.05.11-.15.05-.05l.11-.19a2.77 2.77 0 0 0 .15-.48l.02-.13v-.04l.02-.13V215.53l-.02-.11-.06-.21-.14-.41a2.36 2.36 0 0 1-.09-1.12c.06-.4.55-.58.89-.5.11.03.2.08.27.14l5.13 1.29c.91-.17 1.59 1.14.65 1.61-4.19 2.07-8.65 3.57-12.83 5.67-1.6.8-3.96 2.38-5.99 2.27-1.02.18-2.06-.24-3.06-.7-.67-.16-1.36-.4-2.07-.73-4.26-1.96-8.74-3.45-13.09-5.13 2.46-1.07 5.13-2.26 7.88-3.42l.6-.32c.49-.26.99-.49 1.49-.73.83-.4 1.59-1.08 2.55-1.11.41-.01.74.39.71.78a4.2 4.2 0 0 1 0 1.58l-.06.4c.03-.19 0 .12 0 .14v.55c-.13.31-.16.61-.11.96.07.45.12.83.41 1.2.48.63 1.33.78 2.02.41.49-.26.72-.77.74-1.3l.01-.45.02-.95c.01-.51.02-1.02.07-1.53.06-.18.1-.36.17-.54.74-4.04-.33-13.34-2.97-16.64l12.89.63c0 6.12-.03 11.9.04 17.68 0 .63.46 1.33.87 1.87.19.24.44.46.72.69l.31-.01.16-.02.08-.01c.23-.04.47-.09.69-.16l.33-.11c.08-.03.12-.06.02 0l.15-.07Zm-12.74 14.83c-.26 2.33-.71 4.64-1.1 7.14l-5.18-1.79c-4.66-1.6-9.35-3.13-13.97-4.86-.81-.3-1.81-1.38-1.86-2.16-.21-3.15-.09-6.32-.09-9.68 3.34.71 6.4 1.25 9.39 2.03 2.95.77 5.85 1.74 8.74 2.72 3.75 1.27 4.54 2.53 4.08 6.6Zm-45.78-14.65c5.44-.21 10.79-1.03 15.65-3.74 4.04-2.25 8.12-4.42 12.07-6.83 1.3-.79 2.18-2.25 3.32-3.32 1.96-1.83 3.87-3.75 6.02-5.35 1.32-.98 2.71-.42 3.18 1.28.82 2.98 1.52 6 2.27 8.96-5.07 2.01-9.53 3.79-14.01 5.53-.7.27-1.43.52-2.16.66-.4.18-.79.35-1.18.55-1.21.6-2.68 1.23-3.68 2.15-.77.7-.97 1.83-1.12 2.81a42.65 42.65 0 0 0-.38 8.3c.07 1.91.08 3.83.12 5.74l9.9 3.34c3.85 1.32 7.74 2.54 11.51 4.04 3.01 1.2 5.93 2.24 9.15.94 1.68-.68 2.51-.02 2.42 1.73-.28 5.38-.55 10.76-.97 16.13-.15 1.95-.98 3.41-3.48 3.31-8.47-.33-16.94-.56-25.41-.73-3.74-.08-7.49.08-11.23.12-6.35.06-12.71.27-19.06.11-5.01-.13-10.03-.55-14.77-2.49a7.72 7.72 0 0 1-4.73-7.82c.69-8.39 1.34-16.79 2.01-25.19.17-2.11.25-4.23.51-6.34.07-.55.56-1.32 1.03-1.49a819.37 819.37 0 0 1 17.85-6.22c.35-.12 1.32.42 1.36.74.3 2.3 1.99 3.15 3.81 3.08Zm69.34 18.12c-2.97 3.36-7.26 5.09-11.26 6.85-.44.2-.96.13-1.22-.32a.84.84 0 0 1-.1-.39h-.01l-.29-.63 11.77-6.87c.77-.6 1.84.56 1.13 1.37Zm-.16-6.45c-.03.38-.31.94-.62 1.07-2.82 1.2-5.7 2.27-8.51 3.48-1.31.56-2.5 1.4-3.79 2.03-2.18 1.06-4.4 2.06-7.11 3.32 0-4.19-.03-7.38.03-10.57.01-.49.34-1.25.73-1.43 6.4-2.98 12.83-5.88 20-9.14-.27 4.23-.48 7.74-.74 11.24Zm1.14-16.08-10.18-3.31a.6.6 0 0 1-.54-.11l-.21-.14-.67-.22.07-.24c-.06-.05-.13-.1-.18-.16-.31-.36-.38-.81-.42-1.27-.08-.95-.22-2.34.57-3.06.14-.13.3-.22.47-.3 3.5.48 7.02.93 10.55 1.02l.51.17 1.94.24-1.9 7.36Zm-25.49-66.98.18-.03c2.62.21 5.28.08 7.87.59 1.64.32 3.24.83 4.81 1.42.82.31 1.63.63 2.43.97.27.11.72.24 1.11.41 3.03 4.78 6.26 9.45 8.83 14.46 2.14 4.18 3.36 8.85 4.82 13.35.35 1.08-.13 2.4-.04 3.59.44 5.76-.35 11.45-.84 17.16-.28 3.19-.97 4.22-4.27 4.32-.52.02-1.04 0-1.56 0-2.68-.15-5.35-.46-8.02-.82a2.1 2.1 0 0 1-.57-1.06c-.07-.7.28-1.44.46-2.17 4.66-.9 5.84-2.41 5.75-7.15-.04-1.84.16-3.57 1.37-5.11.74-1.53 1.89-2.93 2.32-4.61a5.96 5.96 0 0 0-.21-3.34c-.31-.79-.71-1.54-1.19-2.25-.5-.41-.99-.82-1.52-1.18-1.87-1.26-3.97-2.19-6.37-3.45-.79-.17-1.55-.49-1.9-1.18-.24-.48-.22-1.01-.27-1.53a6.25 6.25 0 0 0-.29-1.35c-.1-.3-.29-.63-.53-.88-.34-.35-.74-.58-1.14-.85h-.02a8.85 8.85 0 0 0-7.5.56c-4.44 2.27-8.9 4.48-13.29 6.85-1.58.85-3.24 1.85-4.34 3.21-1.77 2.19-3.99 2.46-6.48 2.58-9.02.43-18.04.87-27.05 1.42-1.57.1-3.12.44-4.67.76-.27.14-.53.29-.79.47l-.15.14-.16.17-.11.18-.09.14a.74.74 0 0 0-.04.14l-.03.12.63 2.21c-.83.22-1.73.21-2.58.22-1.41.01-2.83.02-4.24-.02-1.14-.03-2.14-.12-3.01-.92a6 6 0 0 1-1.2-1.59 8.9 8.9 0 0 1-.39-1.62c-.18-1.22-.24-2.45-.45-3.66-.11-.62-.19-1.68-.78-2.07l-.03-.01h-.14a3.58 3.58 0 0 0-1.02.34l-.39.22-.38.24-.03.02c-2.12 3.64-.59 10.53 3.42 11.74 1.79.54 3.81.43 5.82.21h2.91c.96-.01 1.89-.08 2.8-.27l.22.09c.7 3.38 1.68 6.71 2.25 10.12.1.58.18 1.15.26 1.73a500.58 500.58 0 0 0 .49 5.62c.06.21.13.41.18.62l.22.85.31 3.07c-2.93 1.12-5.86 2.25-8.8 3.35-3.09 1.16-6.27 1.93-9.4 2.98-.94.32-1.86.7-2.81.98h-.03c-.52.05-1.02.19-1.52.33l-.66.07v-.03l-.17.04c-1.08.05-2.17-.05-3.24-.12-3.25-.21-6.5-.71-9.52-1.99-.03-.01-.06 0-.08-.02l-.13-.1c-.69-.33-1.38-.67-2.04-1.05a11.19 11.19 0 0 1-2.94-2.92 15.48 15.48 0 0 1-2.49-6.64 437.67 437.67 0 0 1 2.92-21.07c.96-5.82 1.91-11.67 3.46-17.35 1.5-5.49 3.76-10.76 5.93-16.79.09-.27.19-.53.33-.79.68-1.26 1.95-2.09 3.22-2.66 1.06-.48 2.19-.88 3.34-1.24 3.25-1.27 6.43-2.78 9.75-3.81 1.81-.56 3.61-.88 5.33 1.42 2 2.68 4.94 4.76 7.71 6.76 6.2 4.47 12.56 8.7 18.8 13.11.21.15.4.34.57.55 1.5.98 3.11 2.07 4.85 2.42a6.78 6.78 0 0 0 4.68-1.56c4.23-3.66 8.54-7.23 12.81-10.84 1.68-1.42 3.27-2.96 5.02-4.27a10.55 10.55 0 0 1 3.72-1.95Zm27.54-70.94a15.6 15.6 0 0 1-1.26 5.09c-2.55 6.11-3.34 12.48-3.49 19.04-.13 5.52-1.4 10.81-4.35 15.62-1.29 2.11-2.06 4.54-3.36 6.64-2.2 3.55-4.21 7.36-7.1 10.28-2.35 2.38-6.23 2.8-9.56 2.44-7.34-.81-14.63-2.03-21.92-3.23-.29 0-.57 0-.86.02-.71.06-2.16.41-2.24 1.33-.09.98 1.68 1.38 2.35 1.56 1.38.38 2.79.52 4.2.69 2.96.37 5.95.93 8.85 1.59 1.2.28 2.8.53 3.8 1.3l.06.06c.56.27 1.04 1.21 1.33 1.9 1.55 3.67 1.4 4.37-1.48 6.96-2.95 2.65-5.88 5.33-8.95 7.82-1.73 1.4-3.77 2.41-5.61 3.68a14.34 14.34 0 0 0-2.92 2.44c-1.01 1.21-2.1 1.31-3.2.52a857.94 857.94 0 0 1-16.27-11.92c-4.27-3.23-8.41-6.63-11.91-9.4.21-5.4.37-9.85.58-14.3.05-1.13.3-2.24.4-3.36.16-1.76 1.19-2.23 2.63-2.4.86-.39 1.77-.68 2.61-1.13a8.23 8.23 0 0 0 2.54-2.27c1.32-1.77 1.22-3.85.88-5.91-.51-1.75-1.07-3.48-1.63-5.22a7.83 7.83 0 0 0-1.41-1.9c-.68-.64-2.79-2.02-3.08-.44 0 .05-.04.08-.05.12a9.67 9.67 0 0 0 .36 1.11c.02.05.06.13.01.04l.05.11.03.06.29.47v.03l.18.27.02.03.11.14.26.34c.28.36.5.74.65 1.17.13.38-.15.77-.5.89-.06.02-.11.01-.16.01a.63.63 0 0 1-.59-.05c-.48-.3-1.02-.5-1.52-.77-.1-.05-.17-.13-.27-.19a2.71 2.71 0 0 1-.75-.52c-2.51-2.76-5.04-5.54-7.13-8.61-.74-1.08-.48-3.03-.28-4.53.4-2.96 1.31-5.87 1.58-8.83.25-2.77 2.32-3.81 4.19-4.14 1.49-.26 3.97.65 4.78 1.86.1.15.2.26.3.39.89.56 1.79 1.13 2.79 1.49.35.12.71.23 1.08.3.58-.08 1.2-.24 1.86-.48a1 1 0 0 0 .07-.67 3.35 3.35 0 0 0-.31-.83l-6.8-5.58c4.49-4.57 9.01-9.32 13.72-13.9.32-.31.66-.58 1.01-.83 7.3-.8 14.61-1.52 21.9-2.42a27.3 27.3 0 0 0 2.82-.5c.28-.05.57-.08.86-.14a7.92 7.92 0 0 0 4.22-2.44c.08-.08.17-.14.25-.23a18.79 18.79 0 0 0 2.87-4.34c.15-.15.29-.3.41-.46 1.34-1.9 2.63-3.83 4.01-5.85l6.47 5.12c1.1.87 2.13 1.78 3.15 2.75.3.28.61.55.94.8l.1.12c.4.47 1.16.81 1.87.93.19.06.37.13.56.16.34.06.68 0 .98-.13 3.49-.06 6.98-.24 10.47-.37 3.33-.12 4.14.65 4.06 3.92-.13 5.56-.24 11.12-.54 16.67Zm5.12-26.93c-.04.25-.09.48-.16.7a3.8 3.8 0 0 1-1.86 1.48c-.86.29-1.91.21-2.81.26a5598.4 5598.4 0 0 0-3.87.23c-.78.01-1.55.05-2.33.16-.84.05-1.69.09-2.52.07a31 31 0 0 1-4.28-.49c-.22-.1-.44-.21-.67-.34-.18-.1-.35-.22-.52-.33-.61-.19-1.19-.45-1.76-.73a168.09 168.09 0 0 1-5.09-3.8c-1.23-.96-2.43-1.97-3.69-2.9-.58-.43-1.28-.99-2.03-1.41l-.26-.3c-.53-.2-1.06-.38-1.59-.54-.69-.21-2.07.55-2.58 1.27-2.08 2.88-3.84 5.99-5.93 8.86-1.46 2-2.93 4.18-5.64 4.77-1.96.43-3.92.97-5.91 1.17-2.99.3-5.99.39-9 .46-1.94.05-3.93.16-5.79-.26-.84-.19-1.66-1.48-2.08-2.44a146.12 146.12 0 0 1-4.54-11.29c-1.15-3.38-1.9-6.9-2.9-10.65h.07a8.07 8.07 0 0 1-.1-.56c-.03-.2.09-.43.21-.58.13-.17.3-.28.5-.34.27-.08.55-.18.82-.28v-.03c2.01-.62 3.94-1.5 5.95-1.77 5.2-.71 10.42-1.21 15.65-1.7 5.85-.55 11.71-.98 17.56-1.49l.21-.02c1.46-.33 2.9-.74 4.39-.92 2.32-.27 4.63-.56 6.95-.75 4.35-.35 8.55-1.79 12.93-1.93 2.6-.38 5.19-.79 7.8-.86 1-.02 2.7 1.19 2.96 2.14 2.22 8.23 3.3 16.6 1.92 25.13Z"/>
    <path d="M168.02 87.48a37.9 37.9 0 0 0-4.18-2.78c-1.18-.7-2.02-.46-2.7.92-.69 1.4-1.96 2.54-2.58 3.96-.16.38-.34.82-.49 1.27-.03.37-.05.73-.03 1.1.06.92.3 1.85.69 2.71a27.58 27.58 0 0 0 4.86 4.5c.19.04.36.12.54.17.8.12 1.54-.04 1.65-.83.07-.56-.54-1.1-.89-1.45-.53-.52-1.1-.98-1.57-1.57a7.57 7.57 0 0 1-1.57-4.92c.04-.74.21-1.55.75-2.1a2 2 0 0 1 2.15-.48c.3.12.52.3.71.51l.05-.05.13.29c.15.21.27.45.37.69.04.06.07.14.12.2 1.1 1.24 2.12.55 2.83-.38.19-.25-.35-1.39-.83-1.77ZM220.4 114.66h.03l.12-.08.2-.13.02-.02.16-.16.03-.04.07-.14c0-.03.02-.06.03-.08v-.08c0-.02 0-.02 0 0v-.16a1.82 1.82 0 0 0-.07-.25v-.02l-.05-.07-.13-.22-.02-.02-.14-.14h-.01l-.1-.07a46.6 46.6 0 0 0-6.34-1.22c-3.51-.33-7.08-.24-10.57-.7-2.61-.35-5.15-1.13-7.72-1.78-.17-.02-.33-.04-.5-.04h-.09l-.2.11-.08.08-.06.06c-.02.06-.07.17-.07.13v.26l.03.18.02.08c.34.49.67.99 1.09 1.4 2.67 2.53 6.28 2.89 9.56 3.22 4.81.48 9.71.03 14.57-.07.08 0 .15-.02.23-.04ZM205.83 70.77c.1-.04.19-.09.04 0l.22-.12.12-.08.18-.18.05-.08v-.02s.03-.04.03-.07v-.11l-.01-.04-.06-.11-.08-.13c-.08-.1-.17-.18-.26-.26-5.37-2.48-11.07-2.28-16.82-1.57-.63.08-1.24.64-1.75 1.17l-.06.16a3.9 3.9 0 0 0-.12.49v.27l.04.09c0 .03.06.14.06.16l.08.16.05.08.02.02.13.08c.12.07.22.15.32.22 1.27.43 2.57.9 3.85.88 3.38-.06 6.75-.49 10.13-.75 1.28-.1 2.56-.17 3.84-.24ZM223.83 95.7c-.29-1.1-.66-2.18-.99-3.27l-.41-.88c-.07-.15-.14-.3-.23-.44l-.13-.21-.09-.13.09.11c0-.07-.26-.28-.31-.33l-.05-.04-.11-.07-.21-.12-.08-.04-.15-.06a7.71 7.71 0 0 1-.26-.09l-.28-.08c-.03 0-.03-.01-.04-.02H220.26l-.14.01a.76.76 0 0 0-.37.86c.41 1.45.73 2.69 1.18 3.87 1.01 2.64-.17 4.52-2.92 4.86-1.05.13-2.18 0-3.28.08-.45.17-.91.31-1.38.46l-.38.13a.32.32 0 0 0-.09.03c-.12.05-.29.12-.1.05.19-.07-.04.02-.09.05l-.19.12h-.01l-.02.03-.17.17-.11.12-.05.07-.14.24-.01.03-.06.19V101.57l.02.02c.19.16.35.28.51.28 3.06-.05 6.12-.05 9.16-.34 1.22-.12 1.98-.91 2.45-2.49.12-.4.17-.79.18-1.16-.08-.78-.23-1.54-.4-2.21ZM241.69 66.12v-.45c-.5-.48-1.01-.96-1.55-1.01-2.3-.21-4.64-.09-6.96-.08-1.6.14-3.19.28-4.75.7-.52.14-1.12.3-1.62.57-.2.19-.38.39-.49.61-.28.56 0 2 .4 2.16a5.6 5.6 0 0 0 2.94.11c1.53-.27 3-.96 4.52-1.1 1.89-.17 3.82.18 5.7.01.24-.02.47-.1.69-.2l.07-.04.23-.16.03-.02.05-.04c.13-.11.27-.22.39-.35l.09-.1.08-.11.09-.18.03-.09.05-.22v-.01ZM199.29 83.05c.71.05 1.42-.03 2.12-.09l.24-.02c.82-.21 1.62-.44 2.35-.81 1.82-.92 1.91-2.39.12-3.17a11.7 11.7 0 0 0-5.43-1.06c-1.57.13-3.86.89-3.71 2.92.13 1.74 1.68 1.95 3.15 2.15.38.01.76.05 1.16.08ZM235.17 77.81c-1.17-.32-2.38-.47-3.57-.7l-.04-.04h-.65l-.18.01c-.86.58-1.89 1.13-2.03 1.85-.14.72 1.06 2.02 1.97 2.54 1.83 1.04 3.74.51 5.32-.73.49-.38.77-1.35.7-2-.04-.38-.94-.79-1.51-.95ZM207.32 29.62c-1.67.15-3.3.68-4.96.91-5.92.8-11.84 1.71-17.79 2.27-3.6.34-4.93.41-5.23 1.82.55 2.92 1.11 5.87 1.81 8.74.78 3.16 2.02 6.46 5.26 7.75 1.4.56 2.75.58 4.09.38a24.64 24.64 0 0 1 10.6-1.96c.72-.15 1.43-.34 2.14-.53.36-1.21.69-2.47 1.23-3.64 1.83-3.97 3.82-7.87 5.69-11.83 1.29-2.72.25-4.19-2.84-3.91ZM218.62 29.77c4.89-.77 9.39-1.48 13.9-2.17 3.3-.51 6.6-.97 9.89-1.49 1.92-.3 4.21 1.63 4.36 3.77.25 3.76.44 7.52.74 11.28.1 1.26-.17 2.25-1.47 2.4-5.62.66-11.25 1.25-16.88 1.77a2.6 2.6 0 0 1-1.97-.86c-2.64-3.44-5.26-6.9-7.67-10.5-.64-.96-.55-2.42-.91-4.2Z"/>
  </g>
</svg>
