<svg xmlns="http://www.w3.org/2000/svg" viewBox="0 0 393 393">
  <defs>
    <style>
      .c{fill:#e8c2a7}.e{fill:#9fc077}.f{fill:#c3d995}.g{fill:#538d71}.h{fill:#2b2b2b}.i{fill:#2e5e60}.j{fill:#798b5d}.k{fill:#7c5c44}
    </style>
  </defs>
  <g id="b">
    <path class="e" d="M354.18 132.98a46.22 46.22 0 0 0-7.87-8.83c-5.81-5.14-12.5-9.14-19.09-13.17-7.25-4.43-14.48-9.01-20.16-15.43-1.12-1.26-3.29-1.11-4.42.03-.4.41-.64.88-.77 1.37a2.74 2.74 0 0 0-1.08 2.38l1.21 39.19c.2 6.33.17 12.63 1.68 18.82.76 3.1 1.18 5.95.99 9.15-.18 3.16-.57 6.29-.18 9.45.16 1.28.66 2.37 1.95 2.88 1.06.42 2.63.31 3.4-.67 2.6-3.29 7.06-4.77 10.64-6.73a161.6 161.6 0 0 0 12.53-7.63c7.38-4.99 14.52-10.59 19.56-18.05 1.2-1.77 2.5-3.76 3.08-5.84.67-2.44-.11-4.87-1.48-6.92ZM225.96 31.65c-1.75-.93-2.62-2.62-3.65-4.3-1.34-2.21-2.79-4.27-4.91-5.8-2.27-1.63-5.12-2.62-7.8-3.35-3.09-.84-6-.67-8.95.55-2.58 1.07-4.97 2.55-7.56 3.61a69.42 69.42 0 0 1-8.67 2.78l-1.89.46a3.04 3.04 0 0 0-2.15-.92 23.55 23.55 0 0 0-15.74 5.39c-.43.34-.69.73-.85 1.14-7.05.98-14.18 1.3-21.3 1.02l-.25.02c-1.62-1-4.1-.69-4.69 1.7l-3.21 13.02c-.47 1.9-2.81 5.36-2.43 7.33.43 2.21 4.24 3.41 6.04 4.51 6.52 3.98 13.97 4.12 21.51 3.89 8.56-.27 17.06-2.23 25.41-4 8.07-1.71 16.11-3.8 23.58-7.39 7.39-3.55 13.95-8.64 18.66-15.38.95-1.36.22-3.52-1.17-4.26Z"/>
    <path class="c" d="M222.38 71.82c-7.16-8.43-17-6.06-26.48-3.33l-.1.04c-.35.01-.72.06-1.11.15-8.57 2.07-17.58 3.56-25.91 6.48-7.72 2.71-15.64 4.05-23.1 7.51-1.56.72-2.49 2.66-2.5 4.3v.63c-.13.28-.25.58-.34.91l-.05.18c-3.5 1.23-5.79 3.72-5.15 8.29a22.12 22.12 0 0 0 3.03 8.06 7.83 7.83 0 0 0 2.05 2.2l.79.38.04.02c-.19 1.08-.34 2.8-.33 2.87.12.94.33 1.64.67 2.52 1.17 3.07 3.47 5.95 5.19 8.72 1.85 2.99 4.61 6.49 4.61 10.19 0 3.44-1.55 6.88-1.69 10.38a4.35 4.35 0 0 0 2.24 4.2c.39.8 1.03 1.54 2.01 2.1 4.42 2.52 10.24 5.81 11 10.96.95 6.39 10.85 5.29 10-.98a35.7 35.7 0 0 0-.63-3.01c-.06-.23-.14-.46-.21-.68.05-.11.42-.04 1.52-.79.98-.67 1.9-1.34 2.87-1.95a64.66 64.66 0 0 0 4.61-2.2c.19-.1.35-.23.51-.34 2.06.11 4.05-.95 4.54-3.61.77-4.21.88-8.04.36-12.17 8 1.21 15.81 4.82 20.88-4.44 2.47-4.51 5.82-7.62 8.66-11.82 3.18-4.71 4.24-9.94 4.6-15.52.57-8.94 3.78-22.76-2.58-30.25ZM93.78 225.95c-3.57-1.82-5.96-2.59-9.72-3.97-4.35-1.59-8.71-.98-13.05-2.18-5.38-1.48-11.95 1.04-8.52 4.06.02.05 3.94 4.62 3.96 4.67 1.35 3.58 3.19 4.19 5.84 6.46 2.37 2.03 4.18 4.85 6.46 7.03 1.77 1.69 5.4 2.13 7.07-.05a12.63 12.63 0 0 1 6.02-4.48 5.12 5.12 0 0 0 2.86-2.58c.26-.13.52-.28.78-.43 3.09-1.89 1.8-6.74-1.69-8.52ZM121.38 249.38c-2.01-3.26-6.28-4.6-9.69-5.83-1.69-.61-3.3-.96-4.88-1.03-2.23-1.68-6.13-1.13-7.62 1.45a4.3 4.3 0 0 1-1.26 1.69c-.6.63-.95 1.34-1.14 2.07-5.84 2.17-3.36 11.63 2.68 9.6.28-.09.55-.2.82-.3.25 2.74 1.86 5.5 3.18 7.78 2.15 3.72 5.22 6.76 9.66 4.18 3.2-1.85 5.78-5.87 7.62-9 1.95-3.31 2.73-7.16.61-10.6ZM305.1 219.98c-.5.02-.98.05-1.45.09a3.37 3.37 0 0 0-1.61-4.38c-4.52-2.44-8.73-1.56-13.6-.8-8.22 1.28-15.45.34-23.36-2.05-4.27-1.29-10.21-5.16-14.72-3.46-1.93.72-3.02 2.28-4.13 3.9-2.15 3.16-5.03 5.03-8.13 7.21-.25.18-.47.37-.66.58-4.12-.06-5.61 6.4-1.15 7.32 11.39 2.34 22.69 3.35 33.95 6.26 5.78 1.49 11.54 2.17 17.45 2.73 2.3.22 3.93 1.17 6.1 1.47 2.37.33 4.88-.74 7.36-.44.32.04.62.04.9 0 1.55.67 3.52.34 4.72-1.48.61-.94.89-1.96.81-3 .71-3.4 1.2-6.28 1.25-10.2.02-1.97-1.71-3.83-3.73-3.77Z"/>
    <path class="j" d="M201.76 12.75c-1.3-.31-2.47-.4-3.59-.35-3.37-.72-6.25-2.83-9.88-2.53-3.88.32-7.07 2.94-10.36 4.72-5.46 2.96-11.27 3.32-17.15 3.68a3 3 0 0 0-2.6-.91 31.23 31.23 0 0 0-10.32 2.8 3.06 3.06 0 0 0-1.88 2.7c-.43.27-.78.62-1.06 1.01a5.99 5.99 0 0 1-1.82-.45c-4.64-1.34-6.57 5.89-1.94 7.24 2.01.58 3.91.75 5.76.49.4.33.9.59 1.52.74 4.19 1.02 8.19 1.03 12.22-.61 3.61-1.47 6.2-4.43 9.68-6.09l.44-.19c1.44-.23 2.87-.55 4.29-1.01 3.55-.3 7.29.34 10.78.01 3.46-.33 8.12-3.49 11.83-4.05 1 .15 2.03.22 3.12.16 4.07-.24 5.33-6.33.99-7.37Z"/>
    <path class="e" d="M251.84 40.08c-4.55.39-8.79-1.35-13.08-2.59-4.31-1.24-10.25-2.55-14.28.15-2.03 1.36-2.95 3.64-4.39 5.52a29.05 29.05 0 0 1-4.53 4.61 37.87 37.87 0 0 1-11.31 6.22c-10.02 3.6-20.91 4.72-31.36 6.46-5.39.9-10.78 1.87-16.19 2.68-5 .75-9.94.73-14.69-1.19-2.43-.98-4.59-2.92-7.16-3.48-3.12-.67-5.97 1.18-8.67 2.48l-17.39 8.36c-1.52.73-1.94 2.88-1.14 4.26.9 1.56 2.74 1.88 4.26 1.14l.22-.1c.27.19.57.34.91.44l18.12 5.35c2.87.85 5.71 1.73 8.7 2.09 3.11.37 6.25-.1 9.29-.74 11.51-2.44 22.21-7.74 33.83-9.75a2.78 2.78 0 0 0 1.93-1.52c15.11-3.73 30.69-5.54 45.52-10.4a3.3 3.3 0 0 0 1.18-.66c.95 0 1.89-.02 2.82-.07a17.44 17.44 0 0 0 6.34-1.19l.16-.05c.26-.11.52-.2.78-.32a2.49 2.49 0 0 0 1.44-1.77 29.06 29.06 0 0 0 11.39-11.25c1.06-1.9-.28-4.87-2.7-4.67Z"/>
    <path class="j" d="m164.81 19.24-.51-.66a3.09 3.09 0 0 0-1.38-.79l-1.93-.57a2.4 2.4 0 0 0-1.19-.06 2.4 2.4 0 0 0-1.18.37c-.38.2-.68.48-.91.83-.27.3-.45.66-.55 1.06l-.11.79c0 .56.14 1.09.42 1.58l.51.66c.39.38.85.65 1.38.79l1.93.57c.4.12.79.14 1.19.06a2.4 2.4 0 0 0 1.18-.37c.38-.2.68-.48.91-.83.27-.3.45-.66.55-1.06l.11-.79c0-.56-.14-1.09-.42-1.58Z"/>
    <path class="h" d="M141.95 84.31c-.91-1.17-2.69-1.65-4.01-.81l-.16.11-.87-.02c-.72-.02-1.52 0-2.22.19-1.87.52-3.02 1.87-3.95 3.48l-2.59 4.48c-.85 1.48-1.9 2.99-2.32 4.67-.89 3.6 1.76 6.79 3.54 9.67 1.03 1.66 2.18 3.01 4.04 3.73 1.48.57 3.08.54 4.64.39 1.4-.14 2.65-.87 3.03-2.31.39-1.45-.34-2.68-1.47-3.52-.27-.2-.57-.37-.87-.53 0-.53-.11-1.08-.35-1.62-.64-1.45-1.54-3.21-1.97-4.47-.46-1.36-.21-2.04.27-3.51l.07-.22.11-.21c.16-.33.32-.66.5-.98.18-.32.37-.63.58-.94l.33-.45a13.87 13.87 0 0 1 2.05-2.05c.04 0 .66-.44.73-.49l-.03-.03c.23-.15.46-.29.69-.48 1.2-.98 1.08-2.98.22-4.08ZM237.04 61.48a3.1 3.1 0 0 0-2.69-1.56c-2.72.09-5.41.64-8.08 1.11l-7.77 1.37c-1.61.28-2.71 2.29-2.24 3.81.53 1.73 2.08 2.54 3.81 2.24l.92-.16c.04.41.17.82.42 1.19 1.03 1.54 2.22 2.86 4.02 3.47 1.65.56 3.55.14 5.13-.47a8.08 8.08 0 0 0 4.33-3.47c.82-1.4 1.45-2.94 2.15-4.41.49-1.01.57-2.1 0-3.11Z"/>
    <path class="k" d="M304.26 211.97c-1.15-1.75-.25-4.74-.11-6.7.2-2.82.28-5.65.31-8.48.05-5.6-.11-11.2-.23-16.81l-.7-34.45c-.07-3.22-5.06-3.24-5-.03l.72 35.7c.12 5.79.29 11.59.17 17.38-.06 2.83-.18 5.66-.43 8.47-.22 2.55-.57 5.14.92 7.41 1.76 2.67 6.1.19 4.33-2.5ZM307.1 362.78c-.54-12.68-.23-25.33-2.02-37.93-.99-6.98-.67-14.02-1.23-21.03-.45-5.55-.15-10.71-1.25-16.17 1.03-2.84.26-6.22.41-9.22.17-3.49.31-6.99.38-10.48.13-6.74-1.53-13.29-1.06-20.03a2.22 2.22 0 0 0-.39-1.5c-.07-1.3-.16-2.59-.29-3.89-.13-1.34-1.04-2.5-2.48-2.51-1.24 0-2.64 1.14-2.51 2.48 1.25 12.65-.52 25.31-.49 37.97a2.96 2.96 0 0 0-1.77 3.53c.34 1.44.67 2.88.96 4.32 1.02 6.04 1.6 11.94 1.59 18.07l-.07 19.58-.13 38.61-.02 4.98c0 1.57-.1 3.24.38 4.76.94 2.98 3.96 5.09 7.07 3.98 2.61-.93 3.57-3.71 3.52-6.27-.06-3.07-.47-6.16-.61-9.24Z"/>
    <path class="g" d="M213.56 201.97a2.96 2.96 0 0 0-.84-1.45 72.33 72.33 0 0 0-7.41-19.29 2.95 2.95 0 0 0-1.44-1.33 199.9 199.9 0 0 1-5.31-16.53 2.88 2.88 0 0 0-1.24-1.75 3.26 3.26 0 0 0-1.24-2.75c-1.34-.99-2.84-.73-4.09.28-3.5 2.82-5.22 7.05-5.97 11.38l-.02.03c-2.71 4.07-3.14 9.05-3.22 13.81-.05 2.8-.08 5.61-.1 8.41a38.95 38.95 0 0 0-.07 8.08c.04.39.14.77.28 1.13a407.97 407.97 0 0 0-2.47 31.02c-.37 7.6-.57 15.2-.62 22.81-.02 2.84 3.07 3.68 4.91 2.53 1.4 2.14 3.92 2.72 6.54 2.97 3.15.31 6.33.35 9.5.13 2.88-.2 6.13-.36 8.89-1.3 3.38-1.16 4.31-3.89 4.43-7.19a1166.4 1166.4 0 0 0 .62-29.28c.06-7.14.72-14.74-1.1-21.72ZM154.43 171.36a16.64 16.64 0 0 0-3.22-7.76c-1.28-1.62-3.17-3.05-3.62-5.14-1.17-3.85-6.9-2.36-6.04 1.57.78 2.54-.84 5.63-1.6 8.04l-2.91 9.13-5.91 18.56c-1.71 5.36-3.36 10.79-6.16 15.7a32.09 32.09 0 0 1-4.85 6.5c-1.9 1.96-4.14 3.43-6.15 5.26-4.95 4.5-4.24 11.3-2.97 17.22.5 2.33 2.81 2.71 4.44 1.84.46.58.96 1.12 1.49 1.62 2.86 2.67 7.31 4.71 7.87 9.03.14 1.07-.07 2.14.17 3.21a4.6 4.6 0 0 0 2.5 3.11c1.25.62 2.69.57 4.05.59l4.33.07c2.45.04 4.94.13 7.25-.83a8.73 8.73 0 0 0 4.67-4.66c1.98-4.52 1.51-10.05 1.53-14.87.02-5.61.14-11.2.56-16.8.85-11.09 3.12-21.92 4.56-32.93.8-6.14 1.05-12.33.01-18.46Z"/>
    <path class="j" d="m138.51 379.08-2.67-6.1c-.78-1.79-1.43-3.79-2.55-5.41-2.78-3.99-7.73-3.47-12.05-3.66a15.3 15.3 0 0 0-5.14.44 2.86 2.86 0 0 0-1.42-.37c-1.54 0-3.32 1.42-3.14 3.11l.06.53c-.29.37-.58.75-.86 1.14-2.41 3.33-4.72 7.2-4.27 11.48.18 1.68 1.29 3.13 3.11 3.14.18 0 .36-.02.54-.06.59.61 1.41 1.04 2.19.94 7.8-.95 15.66-1.11 23.49-.49 2.61.21 3.58-2.72 2.72-4.68ZM222.48 372.29a99.3 99.3 0 0 1-5.43-2.55 3.03 3.03 0 0 0-1.47-2.07l-6.88-3.92c-2.08-1.19-4.26-2.83-6.59-3.46-2.43-.66-5.09.24-7.53.5-2.56.27-5.13.39-7.7.4-.57 0-1.11.17-1.59.45l-.1.01c-1.74.45-2.53 2.14-2.24 3.81.35 1.96.76 3.9 1.25 5.82.47 1.82.85 4.04 1.84 5.66 1.19 1.95 3.27 2.2 5.35 2.17l6.23-.09 12.15-.17c3.98-.06 8.03.08 11.93-.84 2.46-.58 3.33-4.63.76-5.73Z"/>
    <path class="f" d="M198 153.76c-.22-1.65-1.63-2.87-3.11-3.4l-.09-.02a5.63 5.63 0 0 0-2.27-2.06c-1.87-.77-3.45.49-4.97 1.4-2.1 1.25-4.23 2.45-6.12 4.01a11.38 11.38 0 0 0-3.84 6.13c-.28 1.16-.4 2.34-.43 3.52a2.93 2.93 0 0 0-2.09.35c-.5.33-.92.71-1.29 1.11a3.44 3.44 0 0 0-1.78-.69l-2.54-.27a2.43 2.43 0 0 0-1.47.34 8.55 8.55 0 0 1-.73-.11c.12-1.7-.02-3.38-.75-5.01-1.09-2.47-3.31-4.14-5.31-5.85-2.1-1.8-4.23-3.58-6.4-5.3-1.86-1.48-4.51-2.91-5.83-4.9a3.2 3.2 0 0 0-4.26-1.14 9.48 9.48 0 0 0-3.71 3.36c-1.87.71-3.15 3.28-1.34 5.21l1.76 1.88c.49.52 1.06.79 1.65.87.7 1.3 1.89 2.27 3.26 3.15a14.9 14.9 0 0 1 4.52 4.63 19.5 19.5 0 0 0 4.31 4.73c-.86 1.94-.25 4.01.47 5.98-.44.51-.7 1.16-.64 1.92.4 4.77.85 9.66.1 14.42-.77 4.93-2.03 9.61-2.09 14.65-.06 4.73-1.09 9.17-1.75 13.83-.7 4.98-1.07 9.98-1.05 15 0 .23.03.45.07.65-.18 2.03-.15 4.08-.15 6.12v7.03a3.29 3.29 0 0 0 0 1.59v.83c0 1.63 1.41 3.2 3.11 3.14.33-.01.64-.08.95-.18 1.52 1.36 3.55 1.23 5.45.98 4.1-.54 8.2-1.11 12.3-1.67 1.71-.23 4.66 1.46 5.96.13 1.65-1.67.39-5.51.2-7.59-.04-.44-.06-.89-.09-1.33.15-.24.26-.51.32-.8 2.17-12.31 1.69-24.82 2.84-37.22 1.13-12.28 4.46-24.56 3.72-36.96a4.16 4.16 0 0 0-.12-.72l1.87-3.35c.31-.55.61-1.1.94-1.63l.25-.37c.28-.31.55-.63.85-.91l.22-.2.26-.18c.56-.33 1.15-.61 1.74-.89l2.08-1.01c.8.61 1.9.89 2.79.62 1.78-.55 2.47-2.07 2.24-3.81ZM251.33 204.55c-.11-.26-.25-.5-.36-.76l.05-.02-.39-.69c-.42-.83-.88-1.63-1.4-2.38a50.48 50.48 0 0 0-12.33-13.51c-1.17-.89-1.7-1.85-2.49-3.07a37.44 37.44 0 0 0-5.95-7.03 3.28 3.28 0 0 0-.43-.33 24.47 24.47 0 0 1-2.92-4.48c-1.13-2.3-5.32-1.91-5.72.75a80.44 80.44 0 0 1-2.48 10.96c-1.05 3.55-2.85 7.1-3.25 10.8-.4 3.61-.18 7.39.08 11 .29 3.97.82 7.93 1.58 11.84.09.47.32.88.63 1.22 1.07 2.97 3.54 4.99 6.31 6.8 1.58 1.04 3.48 2.04 5.43 1.63 2.07-.44 3.99-2.36 5.65-3.6 3.35-2.49 6.67-5.05 9.76-7.86a66.05 66.05 0 0 0 3.95-3.9c1.08-1.16 2.3-2.4 2.68-3.89 1.33-.58 2.28-1.89 1.63-3.49ZM113.67 159.9c-4.5-3.8-10.01-.04-13.37 3.51-3.54 3.75-6.15 8.4-8.95 12.7-1.46 2.25-2.82 4.62-4.47 6.74-1.67 2.13-3.82 3.85-5.69 5.8-3.89 4.07-6.96 8.69-10 13.4-2.6 4.03-5.41 8.04-9.79 10.26-3.44 1.75-.69 6.78 2.69 5.57.48.37 1.1.61 1.86.62 1.83.03 3.52-.35 5.06-1.01.65.11 1.31.29 1.96.48 2.48.73 4.92 1.45 7.47 1.91 1.84.33 3.7.6 5.56.85.74 1.54 4.06 3.72 5.7 2.76 1.18-.69 1.17-2.53 2.34-3.22a9 9 0 0 0 .79-.46c.84-.57 2.23-.79 2.36-1.58 1.89-.96 2.95-2.31 4.59-3.36 4.34-2.77 7.33-6.97 9.95-11.31 1.37-2.27 2.74-4.6 3.15-7.25.43-2.73.02-5.49.37-8.22.65-5.18 2.76-10.05 3-15.31.2-4.55-.96-9.81-4.6-12.88Z"/>
    <path class="i" d="M102.6 234.75c-.94-.85-2.63-1.31-3.75-.48l-7.33 5.42c-2.51 1.85-5.24 3.53-7.1 6.07-.43.59-.49 1.66-.31 2.33.2.75.77 1.57 1.48 1.93.12.06.25.1.37.15.69 1.19 2.1 2.02 3.5 1.56a12.16 12.16 0 0 0 4.66-2.74c.67-.64 1.21-1.39 1.76-2.13l.35-.48a.62.62 0 0 0 .08-.12c.19-.27.42-.52.63-.76 2.04-2.36 4.4-4.37 6.17-6.97.74-1.09.44-2.9-.52-3.77Z"/>
    <path d="M206.34 349.23a966.45 966.45 0 0 0 1.45-68.94c-.09-5.91.55-12.51-2.1-17.97a3.02 3.02 0 0 0-2.69-1.56c-5.22.4-10.52.38-15.72-.28-3.51-.45-7.95-1.53-8.62-5.59-.22-1.34.09-4.28-1.2-4.29-8.09-.03-17.97 1.46-26.01.57-1.23-.14-2.85 1.06-3.03 2.31-.57 3.94-4.31 5.84-7.97 6.57-2.61.52-5.38.32-8.03.26a54.71 54.71 0 0 0-6.41.17 2.67 2.67 0 0 0-1.81-.02l-1.48.49a3.09 3.09 0 0 0-2.22 2.7 291.18 291.18 0 0 0-8.09 8.76 3.02 3.02 0 0 0-.59 3.19c-.08.18-.16.38-.21.6-1.44 5.79-.87 11.66-.48 17.54.41 6.07.56 12.15.6 18.23.07 12.27-.33 24.55-.01 36.82.08 3.02-.15 6.36.46 9.33.71 3.49 4.12 4.01 7.09 4.56 2.94.55 5.92.94 8.9 1.17a9.4 9.4 0 0 0 4.12-.34c1.54-.58 2.51-1.73 3.44-3.04 2.97-4.2 4.63-9.22 6.1-14.09 1.54-5.12 3.06-10.12 5.47-14.92 5.28-10.5 10.94-20.83 16.49-31.2 1.51 4.11 1.96 8.59 2.72 12.86a50.88 50.88 0 0 0 1.83 7.32c.83 2.46 1.82 4.87 2.49 7.38.63 2.37.85 4.79 1.13 7.21.32 2.77.79 5.5 1.43 8.21 1.24 5.3 2.62 10.58 3.94 15.86a3.17 3.17 0 0 0 3.81 2.24c3.7-.94 7.36-1.82 11.2-1.39 1.85.21 3.54.4 5.39.07 1.69-.3 3.31-1.17 5.03-1.29 1.53-.11 3.34-1.33 3.14-3.11a53.22 53.22 0 0 1-.3-4.54c.4-.47.67-1.09.71-1.86Z" style="fill:#6aaf8d"/>
    <path class="i" d="m147.95 130.16-1.01 2c-.82.84-2.12 1.2-3.31 1.33-2.81.3-5.77-.09-8.59-.21-2.76-.12-5.71-.45-8.41.35a11.3 11.3 0 0 0-5.68 3.94c-2.23 2.83-3.55 7.34-6.22 9.35-1.11.84-2.53 1.3-3.8 1.84l-1.32.56-5.8.77c-2 .27-4.04.49-5.75 1.67-1.78 1.23-2.56 3.01-3.2 5.01-.68 2.1-1.32 4.21-1.94 6.32-1.14 3.86 4.89 5.47 6.03 1.62.47-1.6.96-3.2 1.46-4.8l.12-.03a118.9 118.9 0 0 0 12.23-4.95c.2-.1.38-.23.55-.37l.57-.23a5.03 5.03 0 0 0 .86 4c.82 1.16 2.01 1.65 3.1 2.41a3.83 3.83 0 0 0-.06 1.55c.76 4.41.03 8.95-.56 13.34-.57 4.27-.72 8.5-.9 12.8-.17 4.04-.6 8.07-1.85 11.94-1.27 3.93-3.95 7.06-5.57 10.81-1.54 3.57-2.13 8.04.2 11.44 1.45 2.11 4.24 2.59 6.18.81 1.57-1.45 2.73-3.68 3.86-5.47 4.55-7.19 9.54-14.44 12.6-22.42 1.78-4.64 2.83-9.52 4-14.33l3.57-14.69.13-.3c.12-.3.15-.61.14-.92.1-.67 0-1.26-.25-1.76.15-.37.3-.73.41-1.11.73-2.52.13-4.99-.84-7.35-.87-2.13-2-4.11-3.95-5.43a7.27 7.27 0 0 0-1.7-.84c2.74-.35 5.47-1.25 7.32-3.37.54-.62.99-1.29 1.38-2.01.24-.43.41-1.05.79-1.38.74-.64 2.44-.36 3.36-.42a4.96 4.96 0 0 0 4.55-2.98l1.43-2.83a8.36 8.36 0 0 0 1.6-3.32c.81-3.33-4.08-5.62-5.73-2.35ZM218.29 161.45c-1.01-1.15-2.44-1.85-3.76-2.59l-4.78-2.69c-.68-.38-1.35-.48-1.95-.38l-.33-.16c-1.84-.85-3.8-2-5.77-.84-.65.38-1.17.97-1.6 1.65a2.7 2.7 0 0 0-1.34 1.81l-.41 2.3c-.14.81-.02 1.51.25 2.08.04.39.15.8.34 1.21 3.84 8.3 8.52 16.64 10.53 25.62.6 2.68 4.43 3.09 5.73.76a32.97 32.97 0 0 0 3.56-9.34c.36-1.73.56-3.49.68-5.25.11-1.61.6-2.92 1.01-4.46.8-3.01-.1-7.35-2.18-9.72Z"/>
    <path d="M356.89 133.54a10.15 10.15 0 0 0-3-4.01l.1-.08-.91-.84c-.83-.56-1.64-1.1-2.39-1.67-4.72-3.8-9.46-7.58-14.26-11.28-.72-.63-1.42-1.29-2.14-1.92a65.2 65.2 0 0 1-5.18-3.72c-1.66-1.36-3.18-2.88-4.82-4.26-1.53-1.29-3.23-2.32-4.91-3.39-3.24-2.05-5.89-4.77-9.16-6.79-.51-.31-1-.63-1.48-.96a83.02 83.02 0 0 0-1.94-1.81c-1.33-1.19-2.88-2.37-4.61-2.91a2.7 2.7 0 0 0-2.14.11c-.67.06-1.28.47-1.44 1.35-.91 4.82-.43 9.78-.87 14.66-.47 5.23-.31 10.46-.27 15.7l.17 22.76c-.07.11-.12.22-.21.32.09.2.15.41.22.61l.05 6.7c-.02.09-.06.16-.06.26-.02.63-.01 1.25-.02 1.88 0 .21-.02.42-.03.62a68.48 68.48 0 0 0 0 5.55c-.5 3.8.17 7.6.2 11.41 0 .97-.02 1.93-.05 2.89v.07c-.12 3.24-.44 6.48-.67 9.72a186.4 186.4 0 0 0-.44 13.16l-.03.55c-.13 2.39.09 4.79-.04 7.18-.09 1.67-.82 3.3-.28 5.02.07.23-.13.55-.22.9-1.19.25-2.32.5-3.45.71-.43.08-.86.14-1.3.2-.55.03-1.09.1-1.62.21l-.78.09-.02.09c-.84.23-1.67.53-2.49.84-.71.27-1.43.54-2.15.76-4.62.68-9.25.49-13.87-.64-5.81-1.42-11.27-3.94-16.81-6.12-.82-.32-.9-1.28-.53-1.82.08-.37.25-.79.36-1.36.3-1.54-.7-2.28-1.14-3.07-1.08-1.91-1.98-3.99-3.37-5.65-2.19-2.63-4.79-4.92-7.1-7.45a283.9 283.9 0 0 1-7.57-8.7l-1.7-2.06c-.76-.6-1.44-1.32-2.06-2.11-1.18-1.48-2.46-2.84-3.68-4.28-1.21-1.43-2.48-2.91-3.46-4.51-.64-1.05-1.16-2.17-1.73-3.26-.25-.29-.5-.58-.77-.86a16.85 16.85 0 0 0-2.36-3.01c-.03-.07-.08-.13-.11-.21l-.08-.12c-.78-.62-1.63-1.17-2.46-1.72-1-.66-1.96-1.45-2.97-2.16-.33-.19-.66-.38-1-.54a18.57 18.57 0 0 0-4.29-1.34c-1.74-.6-3.62-.53-5.41-.89-.15.02-.3.02-.45.05-.92.18-1.73.31-2.65.17l-.54.07c-.99-1.71-1.71-3.35-2.79-4.71-1.06-1.34-2.49-2.39-3.64-3.46v-8.45c.85.14 1.45.16 2 .35l.29.09c3.28.7 6.67 1.83 10.05 1.45 3.47-.39 6.59-3.1 8.4-5.98 1.01-1.6 1.7-3.39 2.55-5.07.91-1.8 1.94-3.53 3.05-5.22l.59-.82c.19-.31.37-.63.57-.93.68-1.01 1.49-1.93 2.26-2.88l.69-1.01a28.55 28.55 0 0 0 4.31-11.87c.67-4.55.77-9.25.72-13.84-.04-3.76.22-8.05-.92-11.69.43-.06.81-.32.93-.88 0 .02.07-.08.19-.16.27-.19.59-.34.88-.5.5-.26 1.01-.5 1.54-.69 1.04-.38 2.07-.61 2.79-1.52.58-.72.84-1.6 1.13-2.46l3.06-1.87c.37-1.15.68-1.93.86-2.75.37-1.61.82-3.22.97-4.85.06-.65.11-1.08.23-1.39l.11-.05c.29-.09.58-.2.88-.33.72-.32 1.43-.66 2.14-1.01l.75-.37a8.9 8.9 0 0 0 3.41-1.54c.93-.7 1.71-1.57 2.43-2.49.59-.67 1.1-1.41 1.57-2.18l1.14-1.64.52-1.08c.92-1.45 1.89-2.9 2.68-4.43 1.1-1.4 2.21-2.78 2.84-4.49.21-.59.4-1.25.31-1.88a1.79 1.79 0 0 0-.33-.8c0-.09 0-.18-.02-.28l-.24-.03a2.52 2.52 0 0 0-.9-.53l-.89-.2-.89-.21h-.04c-.4-.08-.96-.11-1.36-.21-.28-.11-.57-.2-.85-.29a62.3 62.3 0 0 0-9.78-1.33c-4.71-.21-10.85.83-13.67-3.36a18.18 18.18 0 0 1-1.76-2.23c-1.23-1.77-2.19-3.75-3.36-5.58-2.43-1.92-4.74-3.84-7.23-5.48-2.47-1.63-4.96-3.33-7.95-4.05-.5-.12-3.77-1.66-3.84-1.52l-.58-.34a82.1 82.1 0 0 1-6.98-2.82c-4.48-2.03-9.39-4.14-14.28-3.13l-.43.23c-1.01.6-1.92 1.41-2.77 2.44-1.5 1.8-2.91 3.17-5.14 4.02-2.24.86-4.7 1.39-7.09 1.48-2.69.11-5.36-.32-8.04-.4-2.55-.08-4.99.32-7.39 1.17-1.38.49-2.7 1.12-3.99 1.81-1.96 2.02-4.63 3-6.97 4.47l-.8.5c-.24.2-.49.4-.71.61a12.36 12.36 0 0 0-2.81 4.61l-.05.85c-.08 1.82-1.17 3.31-1.41 5.14-.63 4.81-2.09 9.46-3.74 14.03-.57 1.59-.94 3.25-1.39 4.88-.4 1.45-1.05 2.57-2.56 3.27-2.13.99-4.12 2.28-6.17 3.45-.53.3-.99.72-1.54.97a73.41 73.41 0 0 0-9.01 4.71c-1.71.76-3.45 1.52-5.03 2.49a5.1 5.1 0 0 0-1.48 1.24c-1.06.67-1.53 1.81-1.61 3.27.17.2.25.39.38.43l8.16 2.59c2.21.82 4.44 1.6 6.7 2.29.32.16 10.5 3.47 12.34 4.42.03 2.51.02 2.5-1.49 4.69-.25.37-.37.84-.62 1.21-1.19 1.75-2.15 3.75-3.66 5.17-2.81 2.65-3.11 5.02-.63 7.9.2.23.38.48.57.71.4.99.89 1.96 1.38 2.82a9.7 9.7 0 0 0 1.62 2.04c.13.28.27.54.39.83.89 2.07 2.12 3.98 3.02 5.65 3.48.32 6.12-1.2 8.58-1.83.8 1.32 1.39 2.45 2.13 3.48 2.12 2.99 4.3 5.94 6.44 8.91.65.9 1.23 1.85 1.99 2.99-2.25.4-3.82 1.58-5.33 2.86a7.1 7.1 0 0 1-1.9 1.22c-.18.12-.38.22-.66.21h-.15a2.9 2.9 0 0 1-.88-.02c-3.62-.07-7.3-.19-10.86-.79-2.11-.12-4.21-.09-6.33-.06-.96.01-1.83.18-2.51.93-1.56 1.74-3.29 3.33-3.86 5.78-.22.93-.86 1.77-1.35 2.62-.76 1.31-1.8 2.52-2.26 3.93-.43 1.29-1.12 1.93-2.32 2.2-1.71.38-3.46.64-5.14 1.13a368.73 368.73 0 0 0-11.84 3.68c-1.5.49-2.68 1.69-2.54 3.23.17 1.81-.7 3.24-1 4.86-.35 1.91-.79 3.81-1.03 5.73-.13.22-.24.44-.3.7a3.5 3.5 0 0 0-.05 1.33c.09.66.42 1.28.81 1.8a4.8 4.8 0 0 0 1.66 1.52c-.24.3-.46.6-.63.94-2.2 4.19-4.45 8.33-7.55 11.97-1.62 1.91-2.75 4.27-4.53 6-2.3 2.24-3.99 4.96-6.25 7.19-.74.74-1.65 1.31-2.37 2.07-1.67 1.76-3.17 3.68-4.91 5.35-.82.78-1.63 1.55-2.37 2.37-.04.15-.12.31-.24.45-.5.59-.98 1.2-1.43 1.84-.18.31-.38.61-.53.96-.23.52-.57.99-.94 1.45a19.99 19.99 0 0 0-1.66 4.11c-.37 1.31-.91 3.27.01 4.47.16.21.38.37.61.53a10.6 10.6 0 0 0 2.03 6.57c.15.58.61 1.08 1.41 1.63.75.52 1.58 1 2.17 1.68 2.15 2.49 4.33 4.97 6.28 7.62a24.13 24.13 0 0 0 4.75 4.98c1.45 1.1 2.79 2.36 4.17 3.54.06.1.11.2.19.3.56.66 1.11 1.32 1.69 1.97a5.66 5.66 0 0 0 .44.46c.14.31.3.61.5.89v.02c.12.1.22.2.27.33.82 2.2 2.79 2.94 4.6 3.94.53.29.99.4 1.47.35.05.04.09.1.15.13 1.03.58 1.96 1.3 2.98 1.88l.04.03.1.05c.35.19.71.37 1.09.51 1.41.65 2.83 1.28 4.23 1.94 1.05.49 1.74 1.33 1.74 2.52-.02 3.75 2.69 6.23 4.24 9.25.18.36.7.59 1.11.78 1.36.64 2.74 1.24 3.97 1.8l.02.39c-.1 1.62-.29 3.12-.2 4.59l.2 2.91c-.01.75-.02 1.51 0 2.26.04 1.65.2 3.3.54 4.92l.26 3.18.08.68.03 1.33.58 26.94v1.2c-.08.19-.13.41-.12.66.25 7.38 0 14.78-.05 22.17-.19 3.34-.18 6.68.11 10.01.12 3.38.35 6.75.75 10.12-1.56 2.48-2.65 5.27-5.21 7.09-1.66 1.18-2.04 3.13-1.9 5.15.11 1.67 0 3.36.24 5 .18 1.27.6 2.56 1.2 3.68.28.53 1.22.91 1.91.98.44.05.89.07 1.34.09 2.83.7 5.84.52 8.76.45 3.32-.08 6.65-.26 9.96-.49.64 0 1.29-.02 1.93-.04.83-.03 1.65-.2 2.48-.31l6.4-.89a2.96 2.96 0 0 0 1.16-2.89 50.4 50.4 0 0 1-.46-5.21c-.07-1.93-.91-3.57-1.78-5.18-.97-1.8-2.11-3.51-3.04-5.04.72-1.05 1.16-1.63 1.53-2.25.3-.51.51-1.07.76-1.61 1-2.15 2.05-4.27 3-6.45 1.19-2.74 2.28-5.51 3.45-8.26.29-.68.62-1.33.94-2 .19-.28.38-.56.54-.86.35-.63.57-1.32.8-2.01.2-.61.42-1.21.64-1.82a127.34 127.34 0 0 0 10.31-25.57l1.27-2.92c.68-1.52 1.45-3 2.26-4.46.82-1.48 1.72-2.91 2.76-4.65.35.78.64 1.23.76 1.72.58 2.38 1.1 4.78 1.66 7.17.5 2.16 1.08 4.31 1.53 6.49a1816.8 1816.8 0 0 1 4.22 21.89c.46 2.48.73 5 1.36 7.44.92 3.57 2.07 7.09 3.17 10.61.32 1.02.65 2.07 1.2 2.96.29.47 1.08.91 1.62.88 2.37-.12 3.37.59 3.65 2.89.2 1.6.47 3.19.55 4.8.15 2.61.18 5.23.24 7.85.02.69-.19 1.53.52 1.89 1.23 1.7 3.39 2.09 5.43 1.94a95.5 95.5 0 0 1 8.46-.26l8.32.11c2.74.05 5.58.37 8.31.03.96-.12 1.9-.32 2.84-.57.59-.07 1.18-.13 1.77-.23 2.16-.34 4.46-.68 6.41-1.73l.54-.31c.35-.64 1.01-1.16 1.24-1.84.42-1.24 1.32-2.59.51-3.87a8.96 8.96 0 0 0-3.05-3.22c-1.83-1.58-4.3-2.71-6.18-3.55l-.32-.14a89.05 89.05 0 0 0-7.88-4.95 37.9 37.9 0 0 0-1.61-1.51c-.19-.35-.3-.74-.3-1.18 0-1.06.19-2.13.31-3.19.38-3.28.87-6.55 1.11-9.83.27-3.6.23-7.22.49-10.83.25-3.52.96-7.03 1-10.55.07-4.92-.27-9.84-.48-14.76-.08-1.84-.4-3.66-.46-5.5-.11-3.39-.18-6.78-.24-10.17l.07-2.17c.22-4.98.3-9.96.25-14.94l.01-.62c0-.28-.02-.56-.05-.84-.04-2.29-.1-4.57-.2-6.86.08-1.98.19-3.91.27-5.64.93-.77 1.6-1.14 2.04-1.7l.26-.37c.28-.25.55-.52.8-.83a9.67 9.67 0 0 0 1.92-4.81c.39-1.38.64-2.8.76-4.25.47-5.59.56-11.22.76-16.83.12-3.31.16-6.63.23-10.15.33.26.66.51 1.03.72.78.45 1.6.84 2.41 1.25 1.63.84 3.25 1.72 4.95 2.43l.1.04c.46.22.93.42 1.4.56 1.08.4 2.18.66 3.37.43a5.07 5.07 0 0 0 2.83-1.66c3.81.66 7.38 2.34 11.12 3.32 2.9.76 5.87 1.04 8.84 1.29 1.47.25 2.95.48 4.42.71 2.72.43 5.46.81 8.17 1.3 1.28.23 2.52.68 3.79.96l1.4.32c.2.02.41.02.61.03 1.62.51 3.23 1.03 4.92 1.24 1.62.2 3.25.14 4.87.16l.38.07c1 .15 2.01.16 3.02.17 1.88.25 3.73.66 5.56 1.17.28.16.55.32.81.5 1.19.52 2.36 1.14 3.57 1.6l.15.07c.1 1.37.17 2.75.24 4.12-.27 1.1-.27 2.23-.27 3.35 0 3.67.36 7.34-.2 11-.21 1.35-.3 2.73-.31 4.1 0 2.64.14 5.28.13 7.92-.02 4.07-.07 8.13 0 12.2-.15 7.04-.15 14.09.1 21.14.16 4.39.38 8.78.61 13.17-.06 1.5-.08 2.99.24 4.49l.04.84c.01.22.08.39.17.55l.15 4.17.01.5v.05c.22 6.79.36 13.58.34 20.37l-.07 1.8c-.01.43.02.86.06 1.29l-.08 4.12c-.46 3.56-.17 7.15-.76 10.72-.46 2.85-.36 5.81.64 8.8.72 2.17 1.83 3.41 3.62 4.11.18.13.38.25.59.35.84.48 1.76.84 2.75.98 1.08.16 2.16.06 3.16-.29 1.81-.13 3.16-1.49 3.84-3.12.28-.66.48-1.32.59-2.01.27-.52.37-1.11.42-1.69.05-.6.04-1.2-.02-1.8-.07-.69-.21-1.36-.36-2.03l-.15-.78-.03-.35.03-.51c.03-.22-.02-.43-.12-.62-.34-4.58-.66-9.16-1.01-13.74-.24-3.14-.56-6.28-.83-9.43-.04-.46 0-.93-.04-1.39-.16-2.08-.39-4.16-.58-6.24-.15-3.22-.27-6.44-.36-9.66v-1.73c0-.05.02-.08.01-.14l-.01-.14c-.01-2.3-.06-4.59-.21-6.89-.36-5.6-.47-11.22-.73-16.84-.2-4.38-.46-8.76-.67-13.14-.13-2.61-.24-5.23-.35-7.84-.24-5.9-.5-11.8-.68-17.7-.09-2.97-.11-5.94-.12-8.91l.04-11.68c0-.11-.04-.2-.06-.29v-1.47c.55-.13 1.19-.3 1.85-.44.18-.04.39-.05.6-.07 1.17-1.35 2.49-2.62 2.8-4.44.2-1.18.16-2.32.68-3.43.49-1.05 1.12-2.04.98-3.26-.1-.87-.44-1.64-.71-2.41 0-.52.02-1.04.09-1.56.12-.84.3-1.69.21-2.53.08-.41.03-.81-.37-1.25l-.06-.05c-.34-.55-.82-.99-1.29-1.45a5.67 5.67 0 0 1-1.13-1.54l.01-.04-.05-.03a6.7 6.7 0 0 1-.39-1 .55.55 0 0 0-.2-.3c-.11-1.27-.2-2.32-.27-3.36a21.5 21.5 0 0 1-.05-2.27c.05-1.38.18-2.76.24-4.14.09-2.07.18-4.15.21-6.22.05-3.13.09-6.26.08-9.4a48.1 48.1 0 0 0-.25-5.5c-.06-.5-.03-.95.04-1.36a.92.92 0 0 1 .1-.65c.02-.06.01-.12.04-.18 1.41-3.12 5.27-4.38 8.03-5.96 3.48-2.01 6.5-4.69 9.97-6.75a118.6 118.6 0 0 0 10.36-6.82 55.2 55.2 0 0 0 2.26-1.78l.38-.31.24-.21c6.58-4.36 12.94-9.2 16.97-16.1 2.04-3.5 3.9-8.63 1.61-12.27Zm-56.86 74.89c.54-8.7 1.21-17.4 1.58-26.11.18-4.33.04-8.6-.37-12.91-.28-2.93-.56-5.84-.67-8.76l.05-.39a1.5 1.5 0 0 0-.09-.88c-.02-.86-.03-1.73 0-2.59.08-2.96.24-5.93.42-8.89.23-1.18.46-2.35.45-3.89l.05-.04c.24 1.54.59 2.92.65 4.3.15 3.65.14 7.3.27 10.96.14 3.89.35 7.78.55 11.67.18 3.44.36 6.89.62 10.33l-.12 3.36a3.02 3.02 0 0 0-.18 1.87l.1.42c-.23 7.25-.3 14.5-.21 21.75 0 .11.02.2.05.3v5.79c-1.42-.38-2.05-1.83-3.27-2.41.12-1.29.17-2.58.12-3.87Zm-107.92-60.21.02-.02.1.08c.1.06.19.13.27.22 1.83 1.46 2.36 3.82 3.84 5.64-1.33.65-2.54 1.41-3.78 1.96l-.51.2c-.35.13-.7.27-1.06.35-.6.14-1.01.43-1.36.74-.23.12-.47.22-.7.35a11.4 11.4 0 0 0-4.14 4.33c-.96 1.65-1.67 3.43-2.7 5.04a9 9 0 0 1-2.12 2.34c-.56-2.74-1.16-5.46-1.65-8.19-.15-.81-.18-1.63-.2-2.33.06-.35.14-.74.24-1.11l3.36-2.88 1.15-.56c1.2-.61 2.37-1.27 3.51-1.98a21.16 21.16 0 0 0 3.03-2.21c.79-.72 1.58-1.6 2.61-1.99l.1.03Zm-14.84 94.03c-.11.69-.22 1.37-.31 2.06a67.8 67.8 0 0 0-.35 3.16c-.04.47-.05.96-.07 1.45l-7.4.95c0-3.5.03-6.67-.01-9.83-.02-1.54-.17-3.07-.24-4.6-.26-6-.02-11.97.73-17.93.47-3.74.83-7.49 1.31-11.22.59-4.65 1.18-9.29 1.89-13.92.96-6.25 1.74-12.48.46-18.8-.25-1.24.09-2.59.13-3.9.03-1.03 0-2.07 0-3.24l.16-.5.36-1.33c.02-.07 0-.14.01-.22.94.03 1.88-.02 2.79-.26.22 1.2.34 2.41.35 3.64 0 1.5-.38 3.08.25 4.51 1.08 2.45 3.86 1.18 5.32-.61 0 1.7.05 2.87-.01 4.03-.08 1.58-.2 3.17-.31 4.75-.23 1.24-.47 2.47-.67 3.7-.61 3.86-.56 7.75-.73 11.65-.37 8.22-1.53 16.37-2.4 24.55-.31 2.94-.57 5.89-.75 8.84-.26 1.75-.5 3.49-.62 5.25-.18 2.59.08 5.22.13 7.83ZM165.42 238c0 1.67-.04 3.35-.07 5.02 0 .23-.14.49-.07.68l.11.3c.04.74.16 1.48.23 2.21.1 1.09.11 2.19.08 3.29-6.01-.04-12.31.18-14.34-1.26l-.1-.45c.47-3.91.37-7.91.39-11.81v-3c.14-.58.26-1.16 0-1.72-.02-4.33-.05-8.66.17-12.97l.05-.31c.38-2.35.74-4.7 1.09-7.05.77-3.52 1.62-7.03 1.49-10.65l.05-.44a161.07 161.07 0 0 0 .46-5.3c.09-.38.18-.77.23-1.16l.74-5.77c.42-3.34.52-6.71.56-10.08.03-.88.04-1.76.02-2.64v-.16a28.1 28.1 0 0 0-.66-5.52l3.97 1.66 2.8 1.17c.82.34 1.71.78 2.6.9.68.09 1.07-.2 1.34-.64l.1-.03c.13-.25.26-.39.25-.51v-.24l.09-.26c.31-.9.63-1.8.78-2.74.14-.87.23-1.66.51-2.49.14-.42.26-.82.32-1.26v-.07c.02 0 .03 0 .05-.02a4.56 4.56 0 0 1 1.62-.42 4.35 4.35 0 0 0 .16 1.18l.03.12c.15 6.34.66 12.7.48 19.05a3.6 3.6 0 0 0-.08.72c.03 3.95-1.33 7.61-2.15 11.39-.21.95-.26 1.94-.35 2.92-.05.54-.01 1.08-.05 1.62l-.64 8.41c-.36 4.89-.65 9.79-1.09 14.68-.29 3.26-.85 6.49-1.19 9.75-.13 1.29.04 2.61.03 3.91Zm-17.22-4.52c-.12 4.65.15 9.32-.09 13.96l-.07 1.76c-.45 2.75-1.34 5.97-3.22 7.99-.31.14-.64.25-1.01.33-3.36.71-6.63 1.91-10.17 1.21-1.03-.2-2.15.09-3.21.01-.99-.07-1.97-.32-3.3-.56-.14-2.07-.31-3.96-.36-5.85-.03-1.12-.2-2.08-1.08-2.9-2.74-2.55-5.41-5.18-8.14-7.74a3.87 3.87 0 0 0-2.95-1.07c-1.7.08-1.98-.12-2.32-1.85a38.56 38.56 0 0 1-.62-5.25c-.09-1.48-.04-2.98-.03-4.7a23.86 23.86 0 0 0 6.07-5.21c.95-1.16 1.69-2.5 2.71-3.6.26-.27.52-.53.8-.79l.33-.28c.75-.65 1.55-1.26 2.33-1.88 2.47-1.96 4.26-4.47 5.84-7.19 1.67-2.87 2.32-6.09 2.9-9.32.02-.11 0-.21 0-.3.65-1.86 1.26-3.74 1.82-5.63 1.06-3.57 2.17-7.22 2.67-10.91.5-3.72 1.05-7.23 2.51-10.72 1.02-2.45 2.49-4.8 2.8-7.4.86-2.44 1.41-4.94.66-7.57-.05-.19.07-.43.13-.74l.26.05c2.07 1.85 4.2 3.65 5.68 6.04.37.59.73 1.18 1.14 1.73.06.15.13.29.18.45.76 2.31 2.21 4.45 2.63 6.79.22 1.25.33 2.52.4 3.8a93.38 93.38 0 0 1-.57 11.46c-.25 1.91-.42 3.89-.76 5.78a75.95 75.95 0 0 0-.8 5.57c.56 5.46-1.47 10.65-2.23 15.99-.3 2.1-.42 4.23-.47 6.37-.62 4.03-.36 8.11-.46 12.17Zm-27.59-67.14c-.2-1.87-.99-3.76-1.84-5.41-.39-.74-.82-1.51-1.34-2.19l-.18-.22a5.62 5.62 0 0 0-1.86-1.53c-.64-.31-.68-.94-.4-1.42l-.04-.05.28-.25.04-.03c1.9-1.67 3.85-2.37 6.15-2.06.44.06.94 0 1.36-.13 2.18-.7 4.33-1.46 6.5-2.17 2.85-.94 5.08-.87 6.75 2.05.94 1.64 1.94 3.24 2.88 4.88.1.17.17.37.22.58.09.16.15.35.12.6-.66 5.22-1.54 10.34-3.25 15.33a204.16 204.16 0 0 0-4.36 14.94c-.68 2.65-1.28 5.4-2.03 8.09a161.2 161.2 0 0 1-2.08 5.29 31.05 31.05 0 0 1-2.46 4.85l-.46.66-.12.22a26.2 26.2 0 0 1-1.83 2.39 571.7 571.7 0 0 1-6.46 7.42c-1.04 1.17-2.07 2.35-3.16 3.48a9.47 9.47 0 0 1-1.89 1.46c-.32-.18-.52-.55-.56-1.03-.25-3.33-.49-6.65-.64-9.98a35.3 35.3 0 0 0 4.34-5.7l1.41-1.64c1.19-2.21 1.6-5.24 2.03-7.7l.02-.14.89-8.34c.15-2.41.25-4.82.4-7.22.15-2.44.32-4.89.7-7.3.41-2.55 1.12-5.12.84-7.72Zm18.79-18.18c.05-.1.13-.21.23-.31 1.26-1.31 2.49-2.67 3.88-3.84.75-.63 1.84-.78 2.58-1.59.2-.22 1.34-.02 1.64.33 2.02 2.42 4.5 4.31 6.88 6.34 3.41 2.92 6.41 6.32 10.13 8.91.72.5 1.24 1.09 1.55 1.79.12.58.15 1.17.03 1.77-.2 1.04-.73 2.02-1.03 3.04-.3 1.02-.49 2.07-.6 3.13-.03.3-.03.59-.05.89-1.63.23-2.95-.69-4.32-1.2a25.3 25.3 0 0 1-4.74-2.3 8.5 8.5 0 0 1-2.72-2.68 31.67 31.67 0 0 0-6.53-7.59c-.57-.9-1.2-1.76-1.97-2.49-.32-.55-.55-.77-.98-.8-.36-.25-.72-.48-1.1-.71a6.85 6.85 0 0 1-1.21-1 44.62 44.62 0 0 1-1.68-1.69Zm96.77-84.44c-.22 1.71-.15 4.07-1.7 5.18-.72.51-1.6.59-2.45.68-.66.06-1.18.19-1.58.76-.52.74-.88 1.7-1.69 2.19-.89.54-1.92.3-2.73-.25a16.44 16.44 0 0 1-3.98-3.96c-1.52-1.2-3.2-2.24-5.02-3.52 2.39-.65 4.72-1 6.79-1.92 2.73-1.22 5.61-1.27 8.44-1.78.45-.08.92-.07 1.38-.05.9.05 2.05-.12 2.34.99.12.44.22.9.25 1.36l-.06.31Zm-92.72-39.19c2.13-1.25 4.39-2.32 6.58-3.46 2.16-1.13 4.32-2.55 6.77-2.9 1.36-.19 2.76-.21 4.15-.19h.06c1.69.36 3.45.41 5.18.55 1.38.11 2.77.15 4.16.2.64.03 1.31.3 1.91-.05.89.06 1.77.11 2.65 0a7.19 7.19 0 0 0 3.47-1.6c2.63-2.06 5.16-4.99 8.45-5.99 3.46-1.05 6.93 1.16 9.92 2.63a48.06 48.06 0 0 0 7.79 3.14l-.12.09a140.7 140.7 0 0 0-11.63 4.55 22.99 22.99 0 0 1-8.09 1.71 10.6 10.6 0 0 1-.93-.24 6.65 6.65 0 0 0-3.57-.11c-1.62.35-3.34.22-5.02.3-1.38.07-2.78 0-4.12.25-.91.17-1.86.62-2.57 1.21-1.05.87-1.86 2.01-2.83 2.98-.48.48-1.05.97-1.67 1.21-4.04 1.59-8.04 3.55-12.59 2.65-1.72-.34-3.37-1-5.08-1.41-1.55-.37-3.15-.56-4.7-.91-.54-.12-1.05-.43-1.75-.77a10.4 10.4 0 0 1 3.59-3.84Zm-6.98 18.56c.79-3.21 1.52-6.45 2.31-9.89 1.59-1.94 6.43.7 8.18 1.08 2.65.56 5.49.99 8.23.73 2.49.35 4.87-.46 7.05-1.99a25.97 25.97 0 0 0 4.57-2.45c1.72-1.17 3.53-2.69 5.51-3.65.69-.18 1.38-.33 2.09-.45 2.93-.5 5.95-.53 8.94-.66 1.66-.07 3.32.11 4.98.09 2.65-.02 5.06-1.03 7.37-2.16 1.35-.66 2.6-1.53 3.87-2.34.93-.38 1.86-.74 2.8-1.09.64-.13 1.29-.25 1.88-.49.53-.22 1.05-.46 1.55-.71l1.14-.38c.2-.06.35-.17.48-.29l6.51 3.34.95.47c.05.11.12.2.19.25 1.22.9 2.52 1.7 3.78 2.55.37.25.73.56 1.04.88.75.75 1.45 1.54 2.12 2.35.59.96 1.15 1.94 1.73 2.86.31.49.74 1.02.95 1.56l.02.09c-.05.23-.13.44-.24.56-1.39 1.5-2.95 2.85-4.37 4.33-.8.83-1.71 1.56-2.23 2.67-.29.62-1.08.98-1.5 1.57-.81 1.12-1.65 2.24-2.23 3.48-1.39 2.96-4.03 3.94-6.89 4.23a19.89 19.89 0 0 0-6.68 2.04 12 12 0 0 0-2.62 1.17 6.9 6.9 0 0 0-1.56.84c-2.07.47-4.13.9-6.09 1.59-3.72 1.3-7.67 1.39-11.4 2.46-4.21 1.21-8.58.87-12.81 1.66-3.01.56-5.96 1.41-8.98 1.89-3.06.49-6.13 1.54-9.28.36l-.34-.13a35.64 35.64 0 0 1-4.69-2.56c-1.64-1.03-3.25-2.14-5-2.98l-.66-.31a3 3 0 0 0-.7-.34 19.6 19.6 0 0 1-2.74-1.57c.95-3.59 1.91-7.11 2.78-10.64Zm-8.87 34.25c-1.21-.4-2.38-.94-3.6-1.32a53.57 53.57 0 0 0-7.56-1.89c-2.08-.33-4.19-.66-6.22-1.36-.87-.35-1.72-.77-2.47-1.31 1.2-1.83 3.23-2.3 4.82-3.32l1.15-.7c2.9-1.35 5.8-2.71 8.72-4.02 1.78-.8 3.54-1.59 5.22-2.59 1.07-.64 2.13-1.29 3.24-1.82.19-.04.39-.04.58-.06 1.48.19 4.58 1.04 4.71 1.1 2.62 1.12 5.26 2.21 7.91 3.26 2.47.98 5.05 2.28 7.77 2.07 1.33-.1 2.6-.5 3.88-.85l2.62-.5a41.2 41.2 0 0 1 1.6-.17c1.6-.15 3.08-.61 4.58-1.04 1.06-.24 2.12-.48 3.19-.67l1.81-.29c2.28-.22 4.58-.27 6.84-.55 1.06-.13 2.12-.29 3.18-.46h.09a7.8 7.8 0 0 0 2.31-.41c.89-.16 1.79-.32 2.67-.51 1.74-.37 3.45-.82 5.16-1.29.87-.23 1.73-.48 2.6-.65 1.29-.24 2.51-.64 3.72-1.07.75-.11 1.5-.2 2.25-.35 1.18-.25 2.31-.68 3.51-.89 1.16-.2 2.32-.31 3.48-.48 1.14-.16 2.26-.42 3.34-.79l.22-.08a12.5 12.5 0 0 0 5.06-3.34 17.6 17.6 0 0 0 1.9-1.67c2.76-2.65 5.46-5.36 8.21-8.02.76-.74 1.68-1.33 2.36-2.14 1.07-1.27 2.44-1.25 3.8-1.04 1.17.18 2.32.54 3.47.48 4.28.7 8.59 1.06 12.87 1.76h.03c.68.12 1.35.23 2.03.37 1.46.28 2.92.59 4.38.89l.49.12-.08.39c-.13.63-.27 1.26-.47 1.88-.15.44-.33.92-.53 1.39l-.58.87-.41.62v.02h-.01l-1.92 2.91c-.26.23-1.28 1.12-1.34 1.42-.67.59-1.22 1.28-1.85 1.92-.8.81-1.68 1.54-2.62 2.19a29.46 29.46 0 0 1-5.24 2.84c-1.29.24-2.61.37-3.91.55-2.96.42-5.93.8-8.9 1.13-.98.11-2.02-.14-2.96.09-2.31.58-4.64 1.19-6.68 2.53-.31.2-.7.31-1.07.37-2.41.4-4.84.72-7.24 1.16-1.88.35-3.73.84-5.59 1.28-2.61.61-5.24 1.15-7.82 1.87-6.6 1.84-13.16 3.8-19.77 5.64-3.73 1.03-7.52 1.87-11.26 2.86-1.69.45-3.31 1.13-5 1.57-1.52.39-3.11.54-4.64.89-1.64.38-3.26.83-4.87 1.33-2.4.74-4.77 1.61-7.19 2.28-.56.16-1.3-.23-1.93-.44-4.01-1.3-8.03-2.61-12.03-3.94Zm7.43 31.96c-.34.08-.85-.27-1.18-.54a29.4 29.4 0 0 1-7.37-9.04 4.66 4.66 0 0 1-.09-1.58c.08-.58.26-1.13.48-1.67h.04l.06-.24c.4-.91.91-1.78 1.41-2.62l4.09-6.9c.56-.67 1.12-1.34 1.64-2.04.52-.7 1.11-.77 1.81-.46q3.06 1.31 6.3 1.04c-.93 1.05-1.61 1.86-2.34 2.62-.36.38-.8.7-1.21 1.04-1.27 1.03-1.84 2.28-2.29 3.96-.93 3.5.03 6.74.54 10.03.22 1.41 1.35 2.72 2.21 3.97.23.33 1 .29 1.7.46-1.62 1.85-3.85 1.51-5.8 1.97Zm13.34 9.98c-1.27-1.25-2.83-2.58-2.96-4.91-.1-1.71-1.21-3.37-1.83-4.94l1.77-1.57a.91.91 0 0 0 .06-1.31c-.43-.46-.81-.87-1.27-1-3.14-.91-4.55-3.1-4.97-6.16-.12-.91-.34-1.8-.45-2.71-.25-2.07.09-3.99 1.64-5.51.71-.7 1.56-1.25 2.61-2.08 2.99.3 4.4.94 6.85 3.35 1.26-1.35 1.12-1.45.28-2.75-1.32-2.05-3.18-3.46-5.44-5.02l4.55-1.39c4.98-1.55 9.97-3.07 14.93-4.66 3.42-1.1 6.77-2.45 10.22-3.45 4.89-1.42 9.92-2.39 14.75-4a39.84 39.84 0 0 1 7.61-1.77c2.69-.34 5.38-.73 8.08-.87 1.87-.09 3.61-.26 5.38-.97 1.87-.75 3.84-.84 5.65.47a6.5 6.5 0 0 0 2.09 1c1.84.51 3.58 1.56 4.29 3.1.75 1.64 2.27 2.91 2.04 5.22-.24 2.41.74 4.92 1.04 7.4a13 13 0 0 1 .05 1.65c-.13 4.36-.29 8.72-.44 13.09a20.7 20.7 0 0 1-1.26 6.99c-.53 1.34-.56 2.89-1.14 4.2-1.11 2.5-2.57 4.82-4.83 6.48a7.03 7.03 0 0 0-2.62 3.94c-.12.42-.35.8-.52 1.21l-1.59 3.75c-.17.4-.37.79-.58 1.17-.46.84-1.17 1.61-1.37 2.51-.56 2.46-2.57 3.5-4.47 4.26-2.48.99-5.15.98-7.92.54a46.62 46.62 0 0 1-12.26-3.83 7.02 7.02 0 0 0-1.42-.42c-2.67-.48-4.73-2.19-6.88-3.64a2.98 2.98 0 0 0-2.79-.45c0 .23 0 .46.02.69l.02.28.02.22v.03c.65 1.11 2.15 1.42 3.02 2.38l-.06.03c.19.1.38.19.56.3 1.04.63 2.03 1.38 3.17 1.84.93.38 1.88.71 2.78 1.17.23.12.47.25.7.39 1.57.5 3.1 1.11 4.59 1.96v10.85l-4.4 3.36c-1.08.52-2.2 1.12-3.36 1.61-1.45.61-2.9 1.28-4.41 1.65-.87.21-1.51.94-1.57 1.84-.04.56-.11 1.12-.18 1.67a15.24 15.24 0 0 0-.62 3.95c0 .32.05.62.08.94v.09a1.4 1.4 0 0 0-.35.45c-1.05.11-2.13-.01-3.2-.08-.91-.05-1.81-.03-2.68.12a1.5 1.5 0 0 1 .01-.47c.09-.52.19-1.03.27-1.55-.07-.15-.11-.24-.1-.32.43-1.99-.32-3.15-2.14-4.21-2.28-1.32-4.24-3.2-6.37-4.78-1.34-.99-2.82-1.8-4.12-2.83a40.82 40.82 0 0 1-4.42-3.99c-.39-.41-.3-1.44-.17-2.14.66-3.4 2.21-6.49 3.49-9.67.55-1.36.44-2.41-.42-3.39-.75-.86-1.2-1.93-1.86-2.76-1.72-2.17-3.18-4.55-5.21-6.53Zm-53.18 39.54c.51-1.11.95-2.27 1.28-3.45.5-1.84 1.79-2.74 3.5-3.21.89-.24 1.79-.47 2.69-.67 3.07-.68 6.16-1.3 9.21-2.03 1.1-.26 2.11-.87 3.19-1.19 1.58-.47 2.22-1.81 2.3-3.12.16-2.52 1.91-4.05 3.15-5.9a27.66 27.66 0 0 1 2.54-3.26c.54-.58 1.29-1.21 2.03-1.32a88.7 88.7 0 0 1 8.45-.92c2.06-.11 4.13.1 6.2.2 1 .05 2.02.09 2.99.32 1.96.45 3.36-.28 4.57-1.75a7.88 7.88 0 0 1 4.97-2.72c.25 1.44.17 2.34-.59 3.33-.7.9-.87 2.2-1.28 3.32l-1.37 3.64c-.17-.06-.54-.1-.79-.29-1-.79-2.03-.67-2.98-.04-1.07.71-2.04 1.57-3.08 2.32-.66.48-1.33.99-2.08 1.28-1.05.41-1.47.61-1.68 1.19-.22.2-.42.44-.57.69-.15.24-.24.5-.34.76-.14.3-.32.59-.49.88l-.15.26c-1.8-1.18-3.79-.4-5.54-.17-3.15.42-6.21 1.55-9.32 2.33-2.15.54-4.33.96-6.47 1.53-1.09.29-2.1.84-3.16 1.24-.4.15-.81.31-1.23.35-1.97.17-2.17.38-2.02 2.35.02.22-.04.45-.07.67-2.25 1.09-4.45 2.24-6.72 3.22-2.29.99-3.59 3.05-5.28 4.68-.73.71-1.2 1.69-1.82 2.61-1.23-2.79-1.18-4.68-.04-7.15Zm-33.16 57.61c.31-1.7.85-3 1.72-4.24 3.67-5.25 8.07-9.87 12.55-14.39 2.58-2.6 4.84-5.45 7.32-8.11 3.26-3.5 5.87-7.43 8.46-11.39 2.29-3.51 4.45-7.12 6.75-10.63.92-1.4 2.07-2.66 3.13-3.97a6.13 6.13 0 0 1 3.7-2.08c2.12-.47 4.16-1.31 6.42-2.06a12.8 12.8 0 0 1 4.81 10.32c-.08 2.62-.99 5.16-1.46 7.72a88.87 88.87 0 0 0-1 8.13c-.45 5.01-.82 10.06-2.53 14.83a20.97 20.97 0 0 1-3.22 5.98c-1.52 1.92-3.44 3.2-5.41 4.59-2.3 1.63-4.04 3.67-5.9 5.77-.18.21-.38.4-.56.6l-5.31 4.44-4.74-1.13c-.84-.37-1.67-.78-2.5-1.17a29.74 29.74 0 0 0-7.01-2.32 39.92 39.92 0 0 0-5.5-.75l-.19-.04a.96.96 0 0 0-.41.02c-.51-.02-1.01-.04-1.52-.04-.9 0-6.89.59-7.6-.06Zm44.47 19.17a28.36 28.36 0 0 0-2.91-2.47c-.79-.56-1.71-.95-2.59-1.4-.83-.4-1.52-.68-1.97-1.37-.19-.29-.35-.6-.56-.88l-.12-.15a5.07 5.07 0 0 0-.22-.26l-.4-.48-.32-.4-.11-.14-.04-.06-.15-.17-.21-.23a8.07 8.07 0 0 0-.87-.78l-.24-.19-.1-.08a26.9 26.9 0 0 1-1.61-1.31 1 1 0 0 1-.29-.89 41.34 41.34 0 0 0 4.76-4.31l7.02-5.66c.86 2.51 0 4.93.37 7.28.37 2.32.92 7.07 1.02 7.08l.38.79.41.84.12.26.12.31c.16.43.29.87.41 1.32l1.16 7.88c-2.14 1.04-2.94-.36-4.01-1.44.39-.43.77-.79 1.07-1.21.46-.64.46-1.34-.13-1.88Zm-22.18 6.77c-1.53 1.13-1.73.9-3.38-.14-2.14-1.34-2.93-3.79-4.85-5.27-.9-.7-1.63-1.62-2.43-2.45-2.35-2.44-4.71-4.88-7.03-7.36-.17-.15-.32-.31-.5-.45l-.41-.31a5.09 5.09 0 0 1-1.24-.91 1.89 1.89 0 0 0-.26-.48v-.02l-.1-.14-.22-.35a4.79 4.79 0 0 1-.35-.72l-.07-.19-.1-.29a23.5 23.5 0 0 1-.23-.79l-.09-.4v-.49c0 .23.02.04.04-.09l.1-.19a.96.96 0 0 0 .14-.13l.11-.09h.02s.53-.36.89-.49a5.02 5.02 0 0 1 2.18-.16c.5.04 1 .13 1.49.16.24-.06.5-.09.79-.09 2.29.05 4.57.14 6.85.28.29.02.57.08.85.16h.19c1.4.3 2.78.73 4.18 1.05l2.74.61.46.22c1.6.78 3.2 1.58 4.78 2.4l.07.04h.03l2.65 1.4c.13.07 1.57 1.46 2.17 2.02.99.91 2.51 2.23 2.7 3.69l-.06.09c-.97 1.31-1.94 2.55-3.6 3.35-1.94.94-3.5 2.63-5.23 4-1.08.85-2.16 1.72-3.27 2.54Zm3.98 7.91a4.48 4.48 0 0 1-2.49-4.52c.09-.5.3-1.1.66-1.42 1.43-1.26 3.06-2.3 4.41-3.64 2.45-2.44 5.82-3.62 8.25-6.38l4.32 2.21c-3.57 4.19-6.98 8.18-10.36 12.18-1.06 1.26-3.47 2.08-4.78 1.56Zm20.8 14.96c.69.77 2.73 2.2 1.84 3.4-.68.91-2.09.87-3.01.39a4.1 4.1 0 0 1-.68-.47l-.25-.26-.14-.1-.04-.05a26.94 26.94 0 0 1-3.34-7.61 13.7 13.7 0 0 0-.56-1.86 1.68 1.68 0 0 0-.42-.88l-.12-.22a7.22 7.22 0 0 0-2.7-2.23 116.82 116.82 0 0 0-6.38-3.32c1.3-.82 2.52-1.75 3.46-3.09 1.45-2.07 3.15-3.96 4.67-5.98.71-.94 1.42-1.02 2.38-.48 1.07.6 2.34.97 3.22 1.77 1.31 1.19 2.75 1.22 4.3 1.1l.33-.03c.7.17 1.43.24 2.17.29a7.9 7.9 0 0 1 3.89 1.34c.32.2.61.4.89.61 1.16 1.3 1.99 3.02 2.88 4.4.6.93 1.42 2.23.24 3.11-.67.5-1.47.42-2.23.14l-.53-.4c-.3-.24-.58-.49-.83-.78-.24-.28-.48-.56-.78-.78a1.48 1.48 0 0 0-1.17-.26.95.95 0 0 0-.57.45l-.08.15-.04.05-.09.1c-.65.77.09 1.76.71 2.29.09.08.2.15.3.22.77.75 1.73 1.22 2.59 1.88.46.36.93.83 1.03 1.43.03.18.02.37-.01.55l-.11.15a2 2 0 0 1-.96.57c-.41-.02-.83-.16-1.16-.27a7.36 7.36 0 0 1-1.86-.98c-1.07-.76-2.04-1.71-3.38-1.95-.57-.1-.92.41-.7.92a7.09 7.09 0 0 0 2.28 2.89c.59.44 1.23.8 1.82 1.23.58.55 1.06 1.28 1 2.11-.02.34-.17.64-.35.91-.24.23-.49.45-.74.65-.19.09-.4.16-.62.18h-.31c-.32.3-.93.38-1.28.13-.43-.3-.7-.65-.95-1.07a7.94 7.94 0 0 1-1.55-1.72c-.49-.73-1.01-1.57-1.7-2.19a3.35 3.35 0 0 0-1.35-.76h-.04l-.01.08c-.33.06-.54.4-.49.76.17 1.3.72 2.5 1.59 3.48Zm27 114.15c.26.74.04 1.65.04 2.44-3.65.28-7.08.5-10.51.81-3.85.35-7.68.55-11.53-.09-1.54-.26-3.17-.04-5.04-.04-.13-.16-.62-.52-.75-.99-.4-1.37-.79-2.77-.94-4.19-.18-1.61.79-2.98 1.61-4.22 1.98-2.96 4.16-5.78 6.39-8.83 2.77.48 5.55 1.06 8.35 1.42 2.3.3 4.68.08 7.31.24-.03.25 0 .51.13.76.09.17 3.76 9.31 4.96 12.69Zm44.23-19.22c-.44 0-.83-.12-1.17-.31-3.3-9.56-5.29-19.5-7.4-29.37l-3.45-16.07c-1.1-5.11-2.32-10.22-3.14-15.38a96.12 96.12 0 0 0 2.14-4.88c.24-.41.4-.83.51-1.28l.72-1.89c.37-1.02-.96-1.54-1.64-.95-.44.1-.77.42-1.23 1.09-.74 1.08-1.29 2.26-1.85 3.44-2.26 3.38-4.48 6.8-6.34 10.4-.33.4-1.86 3.25-2 4.37-.45 1.11-.87 2.24-1.28 3.36-.77 1.4-2.48 6.45-2.93 7.51-1.23 2.93-2.61 5.79-3.87 8.7-.43.99-.88 1.96-1.29 2.95-.66 1.6-1.32 3.19-1.92 4.81-.41 1.1-.63 2.28-1.1 3.36-.87 1.99-1.77 3.97-2.69 5.94l-.42.66a42.47 42.47 0 0 0-3.56 6.6c-.07.02-.38.78-.49 1.14l-.22.59c-.35.92-.82 1.81-1.45 2.67-.96 1.32-1.35 3.05-1.96 4.52-2.23 1.03-4.35.84-6.59.39-2.48-.49-5.04-.54-7.56-.84-.83-.1-1.65-.33-2.44-.59-.94-.31-1.37-.92-1.58-2-.13-.7-.24-1.4-.34-2.09-.63-11.28.15-22.62-.16-33.92.09-.19.14-.4.14-.65l-.11-5.26v-.16l-.02-.22-.41-19.15c.06-1.25.1-2.5.09-3.76 0-.83-.1-1.65-.22-2.46l-.21-9.75c0-.45-.1-6.39-.08-6.74.09-1.58.43-3.36 1.5-4.6.63-.44 1.33-.77 1.97-1.19 1.54-1 2.78-2.34 3.9-3.77.95-1.21 1.85-2.46 2.86-3.62l3.45.1c1.56.41 3.24.4 4.86.46l1.79-.26c2.52.11 5.08.3 7.58.11.74-.06 1.43-.2 2.08-.39.49 0 .98-.02 1.48-.05.94-.07 1.91-.83 2.7-1.48 1.88-1.55 2.48-3.83 3.18-6.03.18-.57.29-1.17.48-1.91 4.2 1.77 8.57 1.5 12.83 1.73 3.08.17 6.18-.09 9.23.57.58.12 1.24.06 1.83-.08l.25-.07h.99c.23 0 .46.02.68.04h.04l.05.14c.14.6.27 1.16.48 1.73-.04.13-.1.26-.13.39-.24 1.06.34 1.69 1.23 2.21 3.83 2.21 8.04 3.27 12.34 3.91.59.09 1.2.08 1.81.04 3.32.48 6.66.77 10.01.81 1.03.01 2.11-.02 3.17-.12l.26 1.16h-.02c.27 1.77.45 3.39.75 4.97.16 4.22.21 8.44.17 12.66l-.02.35c-.16 2.75-.14 5.51-.19 8.26l-.01.69-.01.35c-.13 2.96-.17 5.91-.16 8.87l-.02 1.17c-.06 3.69-.1 7.37-.17 11.06-.02 1.15-.13 2.3-.15 3.45-.1 4.98-.15 9.97-.29 14.95-.09 3.22-.33 6.43-.41 9.65-.09 3.61-.01 7.22-.12 10.82-.05 1.74-.38 3.46-.61 5.43-2.24.36-4.27.7-6.3 1.01-1.52.24-3.03.49-4.56.66-3.28.35-6.56.67-9.85.96-1.13.1-2.28.12-3.41.11Zm27.55 4.14a19.74 19.74 0 0 0 5.27 3.71c1.15.57 2.33 1.09 3.5 1.62 1.81 1.15 3.59 2.36 5.34 3.6 1.63 1.15 1.42 1.74.04 3.18-.18.19-.37.37-.57.53-.4.1-.79.18-1.08.27-1.57.49-3.15 1.05-4.75 1.47-.79-.02-1.58-.09-2.34-.16-3.86-.37-7.68-.05-11.51-.16-4.14-.12-8.29-.02-12.43-.05-1.52-.01-2.14-.66-2.44-2.19-.89-4.42-1.8-8.82-2.73-13.32 3.3-1.19 6.6-1.13 9.9-1.22 2.37-.06 4.74-.39 7.09-.76 1.25-.2 2.08 0 3.04.91 1.06 1.01 2.37 1.79 3.65 2.57Zm5.09-139.82c.11 1.98.17 3.91.07 5.89l-.36 6.63c-.36 3.04-.71 6.09-1.01 9.13-.17 1.72 0 3.51.31 5.23a60.2 60.2 0 0 1-.34 3.82c-.04.3-.1.59-.17.86-.25.63-.56 1.25-.89 1.86-.22.41-.75.87-1.18.91-2.74.24-5.49.51-8.24.5-3.47 0-6.95-.1-10.39-.48-2.56-.28-5.18-.02-7.7-.96-1.39-.52-2.13-1.23-2.44-2.71-.75-3.62-.21-7.17.29-10.74.34-2.42.77-4.85.82-7.28.13-6.91.1-13.83.19-20.75l.8-6.98c.46-4.12.88-8.26 1.1-12.4.04-.72.06-1.45.09-2.17l.16-.84c.15-.51.19-1.02.19-1.53.07-.73.12-1.46.17-2.18l.62-8.48c.21-1.18.41-2.36.57-3.54.12-.23.24-.46.28-.7.23-1.35.35-2.72.52-4.09.35-2.8.58-5.62 1.73-8.25.9-2.05 3.18-4.25 5.27-5.28.65.74 1.22 1.54 1.72 2.38a9 9 0 0 0 1.09 2.02l.63 1.29c1.18 2.5 2.4 4.99 3.5 7.52.98 2.25 2.09 4.45 3.04 6.71.7 1.66 1.24 3.31 2.15 4.8.84 1.73 1.73 3.45 2.52 5.21.38.86.72 1.74 1.04 2.62.15.52.31 1.04.42 1.57l.2.18.38 1.08c.04.12.1.22.16.33 2.46 8.04 3.09 16.57 3.01 25.04a11.89 11.89 0 0 0-.32 3.78Zm.75-35.59c-.07.25-.17.54-.32.81.08.8-.77 1.25-1.46 1.03l-.31.02c-.28-.74-.56-1.47-.88-2.19l-.07-.14a62.25 62.25 0 0 0-2.84-7.03c-1.31-2.69-2.7-5.35-4.02-8.04-.23-.47-.47-.93-.72-1.4l-.52-1.14c-.93-2.05-1.9-4.09-2.87-6.12-.5-1.63-.74-3.32-.52-5.09.07-.59.52-.92.98-1.01.1-.11.21-.21.34-.31.99-.81 1.9-1.72 3.25-2.96 6.1.88 11.59 3.46 15.13 9.67l-.02.03c.75 1.3.92 2.74.7 4.22-.03.2-.08.4-.12.59 0 .27-.04.54-.09.75-1.2 4.51-2.32 9.05-3.78 13.48-.54 1.62-1.41 3.13-1.87 4.83ZM228 225.75c-.27.03-.53.07-.81.07l-.31-.01-.13-.03a18.52 18.52 0 0 1-3.61-1.41l-.43-.3a27.74 27.74 0 0 1-6.36-7.25 1.36 1.36 0 0 0-.54-.48 2.34 2.34 0 0 1-.13-.73c-.15-4.7-.35-9.4-.33-14.09.01-2.28-.19-4.48-.63-6.71-.16-.83.17-1.81.46-2.65.28-.84.8-1.61 1.2-2.41 2.38-4.69 4.06-9.66 5.63-14.66.29-.92.2-1.97.33-3.56l1.35.97c.81 1.42 1.99 2.45 3.3 3.54 1.39 1.16 2.31 2.51 3.28 3.92l.04.06.89 1.3c2.8 3.95 6.39 7.2 9.7 10.7a51.9 51.9 0 0 1 4.91 6.05c.7 1 1.42 2 2.21 2.93.36.43.81.87 1.19 1.34.12.21.26.41.37.62.59 1.09-1.09 4.6-1.1 4.93a34.46 34.46 0 0 1-4 5.22 24.56 24.56 0 0 1-3.39 2.95c-2.36 1.66-4.51 3.6-6.72 5.47-1.97 1.66-3.73 3.64-6.38 4.23Zm64.68-6.28-4.71 2.01c-.22.3-.34.66-.27 1.13a2.1 2.1 0 0 0 1.31 1.61c.8.28 1.55.03 2.82-.63.9-.47 1.94-.68 3.11-1.07l.15.91c.13.03.25.09.37.17-.09 2.34-.15 4.68-.18 7.02v.37c-.02 2.12 0 4.24.02 6.36a64.1 64.1 0 0 0-9.81-2.58l-1.04-.38a.96.96 0 0 1-.49.11h-.56a63.82 63.82 0 0 0-4.99-.19c-.96-.07-1.92-.16-2.87-.28-1.32-.24-2.61-.6-3.94-1.02a73.87 73.87 0 0 0-12.82-2.81c-3.03-.39-6.1-.51-9.13-.85-2.23-.36-4.45-.8-6.65-1.33-2.9-.86-5.72-1.96-8.66-2.66v-.04a1.09 1.09 0 0 0-.1-.25c2.63-1.62 4.22-3.83 6.56-5.28 2.76-1.72 5.19-4 7.62-6.2.93-.85 1.51-2.11 2.15-3.24.51-.9 1.12-1.15 2.09-.82 3.91 1.3 7.58 3.12 11.25 4.96 1.27.64 2.77.83 4.15 1.25 3.54 1.08 7.23 1.33 10.87 1.77 1.41.17 2.98-.01 4.33-.46l.55-.16c.34-.07.67-.16 1-.26 2.81-.64 5.74-.7 8.46-1.76a5.52 5.52 0 0 1 2.03-.38c.14-.07.29-.1.45-.09 2.27.25 4.63 1.18 6.36 2.7.44.39.89.92.96 1.53v.02c.15.56-.19 1.23-.77 1.36-.71.17-1.43.13-2.12-.13l-.27-.11a3.44 3.44 0 0 1-1.34-.51c-.13-.08-.26-.14-.39-.2a25.8 25.8 0 0 0-1.24-.42c-1.43-.24-2.87.25-4.28.85Zm11.39 104.94.08 2.98a12.71 12.71 0 0 0 .05 1.67c.3 8.88.81 17.76 1.36 26.63.34 5.48.76 10.93 1.25 16.39v.15l.02 1.1c-.02.48-.07.95-.24 1.41-.17.47-.33.7-.67 1 .14-.12-.11.07-.15.1-.04.03-.33.17-.16.1-.33.15-.68.26-1.01.4-.37.16-.72.27-1.26.26a5.42 5.42 0 0 1-1.58-.32c-.67-.22-1.4-.49-2.03-.83-1.43-1.48-2.43-3.57-2.36-5.41.08-2.3.11-4.59.23-6.89.19-3.59.12-7.16.68-10.77.58-3.69.25-7.52.19-11.29-.06-3.29-.31-6.58-.46-9.87-.01-.23.12-.49.05-.68-.22-.56-.39-1.13-.52-1.7-.13-4.24-.29-8.48-.46-12.72 0-.11-.05-.2-.07-.3a1259.51 1259.51 0 0 1 1.12-65.16c.1-2.29.24-4.6-.13-6.85l.03-.04c.48-.55.08-1.87.08-3.03h2.67c.33 4.05-.02 8.08-.19 12.13-.14 3.23-.05 6.45.1 9.67-.06.36-.05.74.06 1.13l.08 1.51c.24 4.3.43 8.6.59 12.91a2.8 2.8 0 0 0-.06 1.04l.12.74c.12 3.42.22 6.84.28 10.26 0 .11.02.22.04.32.18 5.56.42 11.12.78 16.68.37 5.77.87 11.54 1.48 17.29Zm2.65-88.12c-.83.71-1.94.94-2.99 1.06-.28.03-.58.03-.87.04-1.3-.16-2.57-.53-3.81-1.06a3.18 3.18 0 0 1-1.14-.73c-.34-.38-.47-.89-.6-1.36l-.09-.45c.05-.07.07-.16.13-.23 0-.18.03-.36.08-.54.21-.19.45-.35.73-.44.95-.32 2.05.07 3 .21 1.71.26 3.48.31 5.13.84.45.24.86.59.98 1.11a1.6 1.6 0 0 1-.55 1.56Zm.79-6.01-.09.23c-.06.14-.1.26-.18.38-.08.12-.17.23-.27.33-.09.3-.27.49-.7.44-.2.08-.4.14-.61.19-.2.05-.4.08-.59.11-.78-.13-1.56-.35-2.23-.44l-2.12-.25a7.8 7.8 0 0 1-1.69-.56c-.21-.11-.39-.2-.47-.36-.1-.2-.1-.5-.12-.73-.02-.26-.04-.53.02-.78.06-.24.15-.38.3-.53.09-.09.13-.12.19-.16l.14-.09c.26-.07.52-.12.79-.17l.18-.02 1.46-.16h.19l.19-.02c.59-.01 1.17.02 1.75.09l.34.06.04-.01c.79.13 1.57.33 2.32.6.51.19.85.44 1.12.8.12.32.15.68.04 1.04Zm-.49-7.13c.06.13.1.27.15.4.34 1.62-.28 2.55-2.01 2.59h-.17l-.1.06c-.83.09-1.66.14-2.49.17a.5.5 0 0 0-.27-.08c-.27 0-.53 0-.8-.04l-.11-.01a.59.59 0 0 1-.13-.02l-.4-.07c-.47-.08-.95-.16-1.43-.2a1.73 1.73 0 0 1-.7-.61 1.73 1.73 0 0 1-.16-1.26l-.08-.06.12-.09c.07-.22.17-.42.32-.6.14-.16.3-.26.47-.33a2.9 2.9 0 0 1 1.04-.52l.76-.17.61-.08h.1l.35-.07.22-.06c.76-.1 1.53-.17 2.28-.15.89.02 2.03.36 2.44 1.22Zm47.76-83.71c-2.45 4.04-4.82 8.13-8.06 11.6-4.02 4.29-9.3 6.9-14.09 10.17a8.1 8.1 0 0 1-.59.41 35.27 35.27 0 0 0-4.22 3.4l-.28.27-11.29 7.25c-1.43.92-2.86 1.83-4.31 2.71l-.1.06c-.89.54-1.78 1.07-2.7 1.57-.75.42-1.49.84-2.16 1.33a1 1 0 0 1-.16-.24l-.05.03c-.12-.92-.24-1.84-.34-2.78l-.13-1.23c0-.04-.02-.07-.01-.11v-.02c-.32-2.99-.67-5.97-.84-8.97v-.21a47.57 47.57 0 0 1-.92-6.91c-.31-8.8-.2-17.61-.63-26.4-.29-2.02-.61-4.03-.88-6.05-.6-4.46-.73-8.86-.56-13.35.18-4.81.49-9.62.25-14.43-.04-.76.57-1.1 1.16-1.05.02-.09.04-.19.08-.28l.42.44c.19.11.34.25.44.46 3.34 3.44 7.53 5.9 11.5 8.54l.19.13a214.9 214.9 0 0 0 13.17 9.86c.43.41.89.79 1.24 1.29.68.97 1.33 1.82 2.27 2.55a49.88 49.88 0 0 0 6.42 4.15 41.47 41.47 0 0 1 6.25 4.3c.03.07.05.14.1.21l.3.38c1.1.74 2.17 1.55 3.14 2.53 2.05 2.08 3.72 4.49 5.45 6.83.07.1.12.2.15.29-.03.41-.1.83-.2 1.25Z"/>
    <path d="m347.03 150.71-.3.34c-3.21 3.43-7.24 5.79-11.17 8.27a14.89 14.89 0 0 0-3.63 3.71c-.64.98-1.09 2.09-1.75 3.38 1.25-.02 1.69-.8 2.19-1.57.58-.89 1.18-1.78 1.92-2.52a64.74 64.74 0 0 1 4.54-4.23c1.41-1.17 2.84-2.41 4.48-3.16 2.05-.95 3.52-2.57 5.33-3.79.25-.17.36-.54.73-1.13-.73.1-1.11.07-1.41.22l-.94.48ZM208.99 113.94c-1.59-1.06-3.36-.76-5.02-.62-4.2.35-8.37.97-12.57 1.32-1.36.11-2.35.6-3.13 1.54-.52.63-.16 1.61.64 1.78l.54.1c1.28.17 2.7-.03 3.83.45 2.74 1.17 5.25.45 7.89-.43 1.16-.39 2.34-.71 3.53-.99 1.62-.38 3.13-.88 4.36-1.97.36-.32.34-.92-.06-1.18ZM187.75 84.69c-.04.59-.49 1.1-1.08 1.16-2.58.27-4.99-.16-7.3-.99a9.5 9.5 0 0 0-6.27-.07c-1.75.54-3.5 1.08-5.27 1.53-.94.24-1.92.27-3 .4-.16-1.08-.2-1.72.84-2 2.41-.67 4.81-1.41 7.2-2.13 1.64-.49 3.27-1.01 4.91-1.48a8.13 8.13 0 0 1 6.01.42c.89.43 1.82.78 2.7 1.22 1.04.52 1.33.85 1.25 1.94ZM199.42 81.48l-.07-.2c-.19-.54.01-1.15.49-1.46.31-.2.61-.39.92-.57 2.65-1.48 5.3-2.96 7.97-4.41 1.29-.71 2.59-1.18 4.15-.74 1.68.48 3.43.76 5.47 1.2-.03.52.18 1.44-.18 1.84-.5.54-1.42.83-2.2.95a5.41 5.41 0 0 1-2.28-.26c-3.9-1.13-7.07.28-9.87 2.82a5.54 5.54 0 0 1-3.11 1.65 1.22 1.22 0 0 1-1.28-.82ZM192.94 108.1c-.79-1.4.06-1.53 5.67-2.19.29-2.33-.55-4.46-1.31-6.59-.3-.83-1.06-1.73.21-2.36.85-.43 1.41.08 1.84 1.61.6 2.08 1.3 4.15 1.7 6.27.32 1.68-.61 2.85-2.27 3.12-1.12.19-2.29.11-3.43.13-.9.02-1.25 0-2.42 0ZM174.55 95.81v-1.56c0-.77.59-1.4 1.35-1.46l7.15-.58c.59-.05 1.15.26 1.42.79l.13.25c.33.65.12 1.48-.5 1.89-2.33 1.57-5.03 2.02-8 2.15a1.48 1.48 0 0 1-1.55-1.47ZM145.69 101.02c.11.31 0 .66-.26.86l-1.29.98c-.29-.2-.73-.35-.86-.64a81.68 81.68 0 0 1-1.91-4.67 4.49 4.49 0 0 1-.25-1.59c0-2.58 1.91-3.97 4.33-3.19l1.87.58c-.03 1.17-.65 1.56-1.49 1.55-.4 0-.8-.1-1.22-.2s-.89.19-.95.65c-.16 1.28-.06 2.34.95 3.35.54.55.76 1.42 1.08 2.32ZM205.46 87.36l6.51-1.16c.9-.16 1.7.6 1.57 1.51l-.2 1.47c-.07.53-.47.97-1.01 1.1-2.03.49-4.15 1.07-6.44 1.03a1.36 1.36 0 0 1-1.34-1.15l-.19-1.29c-.1-.7.39-1.38 1.11-1.5Z"/>
  </g>
</svg>
