<svg xmlns="http://www.w3.org/2000/svg" viewBox="0 0 393 393">
  <defs>
    <style>
      .d{fill:#f2ceb6}.f{fill:#6aaf8d}.g{fill:#9fc077}.h{fill:#2e5e60}
    </style>
  </defs>
  <g id="b">
    <path d="M239.15 50.75c.04-.12.06-.26.06-.4-.08-1.52-1.01-2.47-1.99-3.53a1.08 1.08 0 0 0-.73-.84 22.8 22.8 0 0 1-2.28-3 17.58 17.58 0 0 1-1.64-3.59c.08-1.21.02-2.43-.06-3.65-.04-.51-.3-.92-.71-1.13 1.07-1.8 1.88-3.8 2.38-5.83a3.41 3.41 0 0 0-1.21-3.45 2.72 2.72 0 0 0-1.38-1.38 46.87 46.87 0 0 0-10.74-3.39c-3.11-.96-6.22-1.91-9.34-2.84a71.52 71.52 0 0 0-8.89-2.16c-3.31-.54-6.59-.58-9.93-.69-3.12-.1-5.9-1.02-8.95-1.49-3.12-.48-6.05.12-9.02 1.1a58.8 58.8 0 0 0-5.21 1.95c.6-1.15.83-2.45.41-3.89-1.01-3.49-4.69-4.57-7.73-5.66-1.67-.6-3.47-.86-5.13-.07-1.72.82-2.57 2.31-3.25 4.01-.24.6-.44 1.23-.6 1.87-6.2-2.2-12.02 2.4-17.3 5.27-2.77 1.51-6.24 2.84-8.41 5.21-2.08 2.28-2.74 5.47-2.69 8.48.05 2.96 1.11 6.26-.07 9.1-.67 1.61-1.41 2.98-1.55 4.76-.14 1.77.27 3.57.72 5.27.97 3.73 3.07 6.35 6.9 7.34 1.79.46 3.69.66 5.52.76 1.08.06 2.36-.09 3.5.08-.41 4.35 1.7 8.65 3.66 12.56a42.6 42.6 0 0 0 2.03 3.69c.6.95 1.55 1.94 1.89 3.02.32 1-.21 2.2-.47 3.16l-1.22 4.57c-.58 2.15.94 3.62 2.65 3.91a8.28 8.28 0 0 0 2.64 4.3c.56.49 1.24.77 1.94.86.54.28 1.07.56 1.55.94.55.43 1.3.52 1.83-.01.45-.46.54-1.39-.01-1.83l-.46-.34c.9-1.23.91-3.18-.3-4.22-1.76-1.52-1.07-3.83-.02-5.6.58-.98 3.06-5.02 4.5-4.23 2.99 1.65 5.64-1.62 4.39-4.42l-2.35-5.27a5.95 5.95 0 0 1-.44-4.64c.95-3.68 1.76-7.48 3.01-11.07 1.07-3.07 3.4-5.08 6.01-6.87a20.3 20.3 0 0 1 2.61-1.54c.25.07.52.11.81.13 5.54.32 11.13-.12 16.55-1.32 2.51-.56 4.92-1.43 7.42-2 .38.61.99 1.08 1.84 1.22 3.65.59 7.25.82 10.89.01 2.97-.66 5.78-1.92 8.52-3.24 1.91.12 4.07.08 5.99-.38.13.11.29.21.48.27.63.2 1.4.4 2.14.41.05.19.14.38.3.56 1.65 1.88 4.12 2.96 5.36 5.18.61 1.09 1.07 2.25 1.82 3.26.3.4.68.79 1.03 1.21.4.77.77 1.56.94 2.43.3 1.5 2.44 1.07 2.54-.32a4.36 4.36 0 0 0-.72-2.63Z" style="fill:#fdf7b7"/>
    <path class="d" d="M234.41 49.57a19.62 19.62 0 0 0-4.38-4.53c-1.9-1.51-3.8-3.01-6.26-3.4-2.48-.4-4.72.58-7.07 1.23a57.1 57.1 0 0 1-7.66 1.55c-4.92.67-9.9.81-14.86 1.03a987 987 0 0 1-17.19.63c-5.28.14-9.95 3.14-11.23 8.48-.05.19-.06.38-.08.56a25.35 25.35 0 0 0-2.34 15.07c.44 2.65 1.45 5.15 2.18 7.73.31 1.11.61 2.25.68 3.41.01.27-.02.56-.05.86-.46-.22-.92-.44-1.41-.55a8.27 8.27 0 0 0-4.19.11 6.88 6.88 0 0 0-4.9 5.68c-.36 2.77.88 5.44 1.76 8 .96 2.79 1.9 5.59 2.93 8.36a3.75 3.75 0 0 0 1.92 2.15c-1.37 7.7 2.58 15.05 3.68 22.65.28 1.94.33 3.98-.16 5.89-.51 2.01-1.53 3.82-1.73 5.91-.47 4.81 3.42 6.91 7.18 8.61 7.79 3.52 16.08 5.76 24.53 3.24a29.04 29.04 0 0 0 10.45-5.69c1.65-1.39 3.2-2.97 3.64-5.16.44-2.22.08-4.63 0-6.87l-.28-8.11-.07-1.68c2.89-1.17 5.74-2.42 8.58-3.7.75-.19 1.48-.45 2.18-.77a2.9 2.9 0 0 0 3.22.06c3.99-2.32 5.93-6.44 7.64-10.53a40.1 40.1 0 0 0 3.29-15.07c.09-5.08-.56-10.13-.57-15.21 0-5.12.95-10.12 1.64-15.17.65-4.77 1.68-10.47-1.11-14.76ZM298.75 44.2c-3.14-2.99-7.47-2.97-11.38-4.13-2.12-.63-3.91-1.64-6.18-1.78-2.16-.14-4.35.43-6.28 1.36-4.56 2.19-7.16 6.93-7.45 11.87-.15 2.55.47 4.93 1.37 7.28.46 1.19.57 2.37.79 3.61a21 21 0 0 0 1.45 4.51c.59 1.42 2.5 1.87 3.89 1.41.37.3.78.57 1.25.8 2.14 1.03 4.63 1.19 6.95 1.57 2.41.39 5.22 1.25 7.51-.04 2.35-1.32 2.83-4.1 3.54-6.46.73-2.43 1.45-4.86 2.2-7.29a19.63 19.63 0 0 1 2.55-5.61c1.55-2.24 1.94-5.06-.21-7.1ZM116.34 248.92c-1.2-.84-2.81-1.08-4.23-1.36-1.43-.28-2.86-.5-4.29-.81a16.02 16.02 0 0 1-7.02-3.36c-2.59-2.07-5.82-.11-5.39 3.11.11.84-.47 1.92-.82 2.65-.54 1.15-1.11 2.29-1.66 3.44-1.16 2.39-2.39 4.75-3.45 7.19a15.44 15.44 0 0 0-1.4 7.63c.13 1.35.36 2.62.93 3.86.24.53.52.97.87 1.44.28.31.45.52.54.63v.06l-.05-.04.06.11c.23 2.3 2.5 3.2 4.28 2.67 1.33.89 2.96.63 4.51.52 1.72-.12 3.63-.05 5.28-.6a6.45 6.45 0 0 0 3.7-3.29c.3-.58.53-1.2.82-1.79l.22-.39c.05 0 .26-.1.19-.1.88-.17 2.57.08 3.68.19 1.72.17 3.26-1.59 3.24-3.21-.02-3.06-.05-6.14.29-9.19.16-1.46.45-2.9.85-4.31.53-1.87.61-3.81-1.16-5.06Z"/>
    <path class="f" d="M292.1 71.98c-.75-.39-1.52-.39-2.31-.6-.96-.26-1.81-.67-2.8-.84-1.71-.29-3.4-.18-5.12-.2-1.75-.02-3.35-.58-5.05-.94-3.7-.78-7.69-.57-8.85 3.68-.96 3.53-1.63 7.17-2.43 10.73-.93 4.11-1.84 8.21-2.39 12.39a82.94 82.94 0 0 0-.48 6.08l-.07.9c-.33.94-.61 1.89-.86 2.83-.09.19-.17.38-.27.56-.4.77-.49 1.49-.38 2.13-.66 3.19-1.03 6.41-1.46 9.73-.56 4.4-4.2 6.41-7.52 8.75-4.3 3.03-8.32 6.44-12.23 9.94-2.9 2.6-5.84 5.16-8.43 8.06-.1-.01-.19-.04-.29-.04-2.76-.1-5.44.62-8.21.43-2.58-.18-5.12-.78-7.71-.96-5.44-.38-10.28 1.82-15.07 4.12-2.42 1.16-4.39 2.64-6.56 4.17-1.8 1.26-3.94 1.31-6.06 1.24-4.13-.13-8.79-.68-12.04-3.48a3.45 3.45 0 0 0-3.37-.71 25.38 25.38 0 0 0-3.57-2.9c-3.46-2.3-6.65 3.31-3.2 5.61 4.32 2.87 7.07 7.57 10.47 11.37 3.71 4.13 8.21 7.46 11.78 11.72 1.83 2.18 3.2 4.72 5.27 6.71 2.08 1.99 4.58 3.54 6.96 5.15 4.5 3.03 9.17 6.9 14.56 8.25a3.62 3.62 0 0 0 2.61 1.38c3.64.3 6.92 2.18 10.04 3.93 3.49 1.96 7.01 3.94 10.91 4.95 1.83.47 3.31-.65 3.95-2.28l4.06-10.33c.59-1.52 1.19-3.05 1.55-4.64.37-1.65.45-3.33.71-4.99.87-5.45 4.43-9.78 8.28-13.51 4.63-4.48 9.69-8.51 14.42-12.89 2.64-2.45 5.23-4.94 7.78-7.48 2.44-2.43 4.93-4.76 6.21-8.03 1.35-3.42 2.06-7.23 2.8-10.82a54.44 54.44 0 0 0 1.29-12.59v-.04c.61-2.75.47-5.65.66-8.45.26-3.81.78-7.62 1.26-11.41.47-3.7 1-7.4 1.56-11.09.56-3.69 1.4-7.39 1.79-11.1.19-1.83-.5-3.6-2.2-4.48ZM234.36 227.45c-.4-.15-.82-.17-1.23-.12-13.28-6.06-26.46-12.43-38.8-20.25a149.01 149.01 0 0 1-18.39-13.6 195.02 195.02 0 0 1-8.87-8.39c-2.78-2.77-5.61-5.51-8.15-8.51-4.77-5.64-6.66-14.07-14.18-16.84l-.12-.03c-.1-.26-.22-.5-.31-.77-.83-2.62-4.48-3.33-5.93-.79-10.29 18.14-20.67 36.35-29.92 55.04a161.97 161.97 0 0 0-6.06 13.68c-.84 2.19-1.61 4.41-2.3 6.66-.71 2.32-2.2 5.64-.96 7.97 1.14 2.16 3.98 2.73 6.07 3.55l7.71 3.03c2.32.91 4.55 1.71 7.08 1.1 2.38-.58 4.48-2.08 6.25-3.72 3.19-2.97 5.29-6.91 7.63-10.54 2.71-4.21 5.85-8.1 8.96-12.02l9.38-11.84c.78-.99 1.55-1.98 2.35-2.96.34-.42 1.05-1.61 1.61-1.73 1.26-.27 1.62 2.59 1.75 3.39 1.66 10.24 1.9 20.85 1.76 31.2-.03 2.36.35 4.74 2.69 5.91 1.14.57 2.47.59 3.72.72l4.48.49c5.24.57 10.48 1.21 15.73 1.66 11.29.96 22.26-.72 32.94-4.42 2.69-.93 5.34-1.98 7.97-3.07 2.36-.98 4.9-1.87 7.09-3.2 2.17-1.31 3.94-3.38 3.97-6.03a5.7 5.7 0 0 0-3.93-5.59ZM170.2 323.36a61.52 61.52 0 0 1-17.47 1.72c-1.09-.05-2.27-.27-3.36-.1-3.03.47-3.16 2.98-3.87 5.37-1.24 4.2-3.59 8.01-4.89 12.22-1.33 4.31-2.11 8.76-2.89 13.19-.3 1.71.49 3.47 2.28 3.95.79.21 1.71.07 2.46-.35a11.8 11.8 0 0 0 3.87 1.72c2.98.87 6.25 1.16 9.35 1.27 2.89.1 5.88-.7 7.49-3.3.79-1.28 1.19-2.83 1.68-4.24l1.89-5.41c2.55-7.31 5.36-14.59 7.37-22.07.64-2.37-1.58-4.53-3.93-3.96ZM259.37 352.6c-.3-3.53-.89-7.03-1.64-10.48-.83-3.79-1.86-7.54-2.9-11.28-1.06-3.82-2.33-7.7-2.73-11.66-.18-1.8-1.32-3.14-3.21-3.24-2.09-.11-3.98.59-5.98 1.03-1.88.42-3.81.43-5.73.44-4.47.03-8.95.04-13.42.06-2.9.01-3.79 3.14-2.66 5.04a4 4 0 0 0-.26 2.19c1.26 6.8 3.94 13.45 6.15 19.99 2.1 6.23 4.36 12.85 8.25 18.23 2.37 3.28 6.33 2.16 9.63 1.1 3.39-1.09 6.89-2.06 10.19-3.4 3.53-1.43 4.62-4.41 4.31-8.01Z"/>
    <path class="g" d="M255.19 288.84c-.28-7.47-2.83-13.82-5.36-20.8l-8.91-24.52a3.91 3.91 0 0 0-1.65-2.05c-.82-1.94-3.07-3.4-5.5-2.16-10.51 5.36-20.87 8.69-32.58 9.8-11.42 1.08-22.93.48-34.39.35a4.1 4.1 0 0 0-1.62.31c-1.74-1.51-4.8-1.56-5.98.86-3.67 7.5-2.73 15.14-2.71 22.93-2.65 15.58-7.31 30.61-12.31 45.9-1.29 3.96 3.69 5.98 6.28 3.8 16.38-.1 32.76-2 49.07-3.37 15.75-1.32 31.5-2.58 47.25-3.97 5.5-.49 8.8-1.66 9.81-7.63 1.08-6.39-1.15-13.06-1.39-19.44Z"/>
    <path class="h" d="M144.68 75.51c-1.32-3-3.18-5.74-4.56-8.72-1.02-2.21-1.66-4.61-3.49-6.32a7.41 7.41 0 0 0-4.78-2.14c-3.41-.16-2.91.72-4.95-2.9-1.75-3.1-6.01-2.11-7.09.93-2.08 5.87-7.23 2.61-10.55.22-3.78-2.72-7.3 3.01-4.64 6.12.88 1.03 1.84 3.71 2.55 6.44a24.8 24.8 0 0 0 1.15 7.54c.05.16.12.3.18.45-.22.17-.5.24-.88.15a4.02 4.02 0 0 0-2.63.39c-1.67-4.64-9.14-2.72-7.48 1.97 2.31 6.52 4.83 23.03 15.44 20.53 4.27-1.01 5.64-7.23 7.05-10.77a18 18 0 0 0 .41-1.15l.35.49c2.95 3.94 5.81 1.38 9.64 1.15 5.11-.31 8.56 3.49 12.55-1.5 3.12-3.9 3.71-8.43 1.74-12.89ZM163.97 374.34c-.19-2.58-.58-7.9-2.19-10.13a6.1 6.1 0 0 0-4.41-2.38c-3.48-.35-6.84.1-10.42-.51-4.02-.68-8.72-3.18-11.83.72-2.84 3.55-4.98 10.66-5.33 15.16-.26 3.33 3.11 4.42 5.5 3.31 2.88 1.68 8.01.43 10.86.34 3.73-.11 7.45.07 11.18.01 2.06-.03 4.18-.07 5.64-1.79 1.22-1.45 1.15-2.94 1.01-4.73ZM279.32 371.13c-1.15-8.2-14.76-10.2-21.2-10.75-5.55-.47-10.31 2.15-15.46 3.85a15.64 15.64 0 0 0-4.6 2.22c-2.53-.43-5.46 1.47-4.5 4.62 1.18 3.86 2.49 7.85 6.83 8.82 5.38 1.21 11.87.53 17.33.52 5.7-.01 22.91.18 21.59-9.28Z"/>
    <path d="M220.06 100.34a2.63 2.63 0 0 0-3.53-.94l-.2.11-.19.06-.36.08a13.2 13.2 0 0 1-1.63 0c-1.27-.07-2.54-.18-3.81-.27l-7.8-.56c-1.35-.1-1.1 1.36-1.05 2.69.06 1.48-.41 2.37 1.03 2.47l8.4.6c2.75.2 5.67.7 8.19-.72 1.18-.66 1.69-2.36.94-3.53Z" style="fill:#fff"/>
    <path class="g" d="M234.31 206.07a181.4 181.4 0 0 1-26.1-11.75 3.79 3.79 0 0 0-1.92-1.27c-4.46-1.34-8.21-6.15-11.89-8.94-2.25-1.71-3.63-4.12-5.77-5.92-1.57-1.32-3.45-2.1-5.05-3.3-3.15-4.38-6.11-9.02-9.68-13.07-3.49-3.96-8.72-6.83-10.37-12.1-.98-3.12-4.55-3.34-6.46-1.77a18.64 18.64 0 0 0-8.01 3c-2.75-.42-5.93 2.52-4.17 5.74l.98 1.78c.37.67.97 1.16 1.65 1.48.79 4.57 5 8.86 7.8 12.02 2.77 3.12 6.02 5.66 9.13 8.42 3.2 2.84 5.83 6.14 9.16 8.8.15.22.31.43.52.64 3.05 3.06 6.66 5.39 10.17 7.85 1.39 2.55 4.2 4.3 6.74 5.9.33.55.78 1.08 1.39 1.54 6.52 4.91 13.92 8.63 20.99 12.67 6.26 3.58 12.39 7.39 19.41 9.28 3.57.96 6-2.25 5.54-5.5-.99-7.02 4.65-12.28-4.08-15.49Z"/>
    <path class="g" d="M165.25 125.98c-.22-1.43-1.78-2.36-3.11-2.41-2.89-.11-4.95 1.68-7.56 2.51-2.83.9-5.78 1.44-8.64 2.27-4.77 1.4-9.44 3.12-14 5.09-1.43.03-4.24.32-5.13 1.5-.65.61-.51 2.14-.46 3.04 0 .04.95-.25.95-.21-.37 6.68 3.4 12.5 3.43 19.05 0 .76.17 1.41.43 1.97-.23.73-.43 1.48-.56 2.26-.28 1.72.48 3.47 2.28 3.95 1.56.42 3.67-.55 3.95-2.28.11-.67.29-1.31.49-1.95a4.03 4.03 0 0 0 2.44-3.9c0-.3-.02-.59-.03-.88a55.2 55.2 0 0 1 2.56-3.46 11.43 11.43 0 0 1 4.33-3.63c2.03-.93 4.2-1.61 6.29-2.39 2.2-.82 4.4-1.63 6.59-2.46 2.43-.92 3.87-2.08 4.76-4.57 1.54-4.31 1.69-9 .99-13.48Z"/>
    <path d="m163.81 118.84-.72-3.87c-.24-1.27-.33-2.72-.98-3.86-1.55-2.69-5.59-1.56-8.03-1.22-5.27.73-10.35 2.25-15.48 3.63-2.49.67-5.09.59-7.58 1.23-2.56.66-4.97 1.65-7.57 2.15-2.17.42-4.42.72-6.11 2.29-2.12 1.96-2.27 4.77-1.74 7.44.5 2.55 1.73 6.36 4.54 7.12 1.43.39 3.1-.01 4.54-.27 1.51-.27 2.97-.69 4.42-1.19.13-.04.24-.1.36-.16 1.86-.26 3.7-.75 5.49-1.16 2.93-.68 5.86-1.39 8.75-2.22 3.06-.88 6.02-1.98 8.99-3.1 3.15-1.19 6.58-1.75 9.62-3.19 1.34-.63 1.76-2.28 1.51-3.61Z" style="fill:#798b5d"/>
    <path d="M301.33 43.4c-1.8-2.29-4.12-3.79-6.75-4.15-.32.18-.8.17-1.1-.03-.99-.65-2.43-.52-3.57-.58-.15 0-.3-.03-.44-.04l-.46.2-1.79-.56-1.25-.29c-1.75-.43-3.5-.88-5.26-1.2-1.07-.08-2.15-.16-3.22-.28a8.74 8.74 0 0 1-.87-.14h-.07a13.59 13.59 0 0 0-8.73 3.42 10.08 10.08 0 0 0-2.33 4.49c-.37 1.67-.93 3.34-1.05 5.03-.2 2.88.38 5.63 2.02 8.11.34.51.57 1.16.64 1.77.25 2.46.43 4.93.61 7.4V66.97c0 .21-.04.41-.14.56l-.1.17a10.24 10.24 0 0 0-.63 3.24c-.03.37-.08.73-.13 1.1a31.91 31.91 0 0 0-1.29 4.17c-.35 1.5-.47 3.03-.62 4.55l-.14.68-.15.75-.22.68c-.12.65-.22 1.3-.31 1.95l-.24 1.16c-.49 1.38-1.05 2.74-1.22 4.22-.09.82-.09 1.64-.13 2.45l-.37 1.83-.31 1.52c-.18.58-.37 1.15-.51 1.74-.22.89-.33 1.79-.38 2.69l-.8 3.95-.11.31c-.23 1.02-.53 2.03-.72 3.06-.13.75-.23 1.51-.33 2.26-.4 1.82-.81 3.66-1.16 5.5-.19.56-.4 1.12-.66 1.65-.5 1.01-1.1 1.97-1.73 2.9l-.81 1.2c-.8.57-1.46 1.42-2.22 2.07-1.53 1.3-3.21 2.44-4.6 3.87a66.2 66.2 0 0 1-8.86 7.7c-.54.38-.94.94-1.42 1.42l-2.51 2.47c-.12.12-.25.25-.4.3-1.46.49-2.54 1.53-3.62 2.55l-.59.52c-.09.11-.18.21-.32.29l-.24.13a5.4 5.4 0 0 1-2.95 1.07c-.84.17-1.7.25-2.55.26l-2.26-.12-1.36-.16c-.15 0-.29-.03-.44-.06a22.3 22.3 0 0 1-4.57-1.02c-2.15-.78-3.96-2.21-4.58-4.49a25.37 25.37 0 0 1-.73-4.75c-.12-1.61.04-3.2.1-4.8.15-.52.31-1.03.48-1.54l.42-1.23.08-.23c-.1.35 0 .03.04-.06l.07-.13.79-.05c1.6-.08 3.19.03 4.79-.08.6-.04 1.18-.16 1.76-.31l1.89-1.13c1.38-.82 2.78-1.62 4.13-2.5 1.15-.75 2.36-1.46 3.34-2.41 1.04-1.01 1.84-2.26 2.71-3.43a22.17 22.17 0 0 0 3.2-6.37c.37-1.1.59-2.24.84-3.38.56-2.49 1.36-4.97 1.59-7.5.24-2.72-.1-5.49-.13-8.25a517.05 517.05 0 0 1 .21-21.41c.01-.43.05-.85.09-1.28l1.4-2.68c.24-.1.45-.21.54-.39.54-1.02.91-2.14 1.36-3.21l1.31-3.07c.53-1.26 1.27-2.48 1.51-3.79.4-2.14.21-4.25-1.67-5.85-.86-.73-1.55-1.66-2.36-2.45-2.62-2.51-3.51-5.69-3.56-9.17-.05-3.03.07-6.06-.04-9.08-.08-2.23-.47-4.38-2.22-6.11-1.17-1.16-2.56-1.53-4.03-1.77-.83-.13-1.68-.22-2.52-.29-2.04-.35-4.03-.9-6.04-1.34h-.01l-1.2-.61a30.65 30.65 0 0 0-6.81-2.59c-2.05-.53-4.12-.93-6.15-1.51-.3-.02-.6-.07-.9-.13-.83-.24-1.67-.45-2.51-.62-.38-.11-.77-.21-1.16-.3-1.15-.25-2.33-.16-3.51-.08-.02 0-.04 0-.06.02l-.11.04c-.95.08-1.9.23-2.82.5-.37.11-.73.23-1.1.3a5 5 0 0 1-.61-.16c-1.44-.53-3.06-.57-4.6-.78-.65-.09-1.31-.03-1.96-.09-.58-.06-1.14-.25-1.72-.29-1.43-.11-2.88-.14-4.31-.27-1.06-.09-2.12-.41-3.18-.42-.7 0-1.36.08-1.98.25-.33.15-.65.32-.95.51l-.26.18c-.04.03-.12.13-.05.03a4.57 4.57 0 0 0-.68.69s-.05.07-.07.1a3.5 3.5 0 0 0-.34.65c-.22.44-.8.53-1.2.32-.33-.18-.46-.54-.41-.89.01-.13.04-.26.1-.38l.08-.14.08-.24c.07-.22.12-.45.17-.67l.13-.66.04-.23v-.17l-.04-.15-.01-.05-.03-.06c-.1-.18-.21-.34-.33-.5l-.02-.02-.05-.07c-.68-.45-1.44-.82-2.18-1.2-.78-.4-1.66-.64-2.45-1.03-.92-.46-1.77-1.07-2.71-1.5-.71-.33-1.46-.6-2.2-.85-.64-.17-1.28-.32-1.93-.42a4.96 4.96 0 0 0-2.51.09c-.63.25-1.11.75-1.6 1.21-1.16 1.1-2.53 2-3.57 3.23-.78.91-1.61 1.81-2.91 1.61a.7.7 0 0 1-.41-.25 1.24 1.24 0 0 1-.32-.45c-.57-1.21-2.15-1.5-3.32-.8-.65.39-1.32.74-1.99 1.08-.62.46-1.24.92-1.89 1.34-1.54.98-3.18 1.68-4.6 2.86a21.94 21.94 0 0 1-4.37 3.08c-1.62.8-3.32 1.41-5 2.06a14.6 14.6 0 0 0-4.03 2.1c-1.55 1.27-1.59 2.8-1.49 4.69.22 4.09.61 8.14.63 12.25.13.38.12.87-.22 1.13-1.04.81-1.9 1.61-1.93 2.99-.02.83.1 1.65.14 2.48.01.29 0 .59-.02.89l.1.63c.07.39.18.77.3 1.15-.38.86-.73 1.72-1.07 2.59a.83.83 0 0 0-.31.34c-.86 2.09-1.71 4.18-2.48 6.3-.16.44-.4.78-.7.99-.17.04-.36.03-.66-.06-.65-.19-1.28-.53-1.91-.77a54.4 54.4 0 0 0-4.83-1.57 6.58 6.58 0 0 1-.39-.17 1.1 1.1 0 0 0-.37-.05l-2.8-.76c-1.15-.3-2.7-1.02-3.85-.4-.48.26-.75.65-.86 1.08-.13.24-.21.53-.2.74.03.6.31 1.18.48 1.77.52 1.8 1.06 3.6 1.56 5.41.54 1.97 1.05 3.94 1.58 5.91l.17.52c.47 1.21.96 2.42 1.42 3.64.18.48.33.99.49 1.48l-.29.29c-.88-.38-1.75-.8-2.65-1.14-1.2-.45-2.43-.84-3.64-1.25-.27-.09-.59-.12-.82-.27l-.23-.17c-1.59-.16-3.37-.21-3.75.83-.32.28-.51.69-.38 1.21 1.02 4.2 2.13 8.39 3.24 12.57a46.03 46.03 0 0 0 1.82 5.62c.75 1.85 1.49 3.67 1.74 5.66.07.52.37.78.73.88.06.04.09.1.16.13 1.35.68 2.88.77 4.27 1.32 1.37.54 2.78 1.18 4.16 1.76.09.04.19.05.29.08a6.02 6.02 0 0 1 2.49 2.75c.35.81.75 1.61.97 2.45.61 2.29 1.13 4.6 1.71 6.9.06.24.06.44 0 .6.23.39.15.91-.15 1.25-.99.4-1.9.92-2.56 1.61l-.24.11a10.3 10.3 0 0 0-1.59 3.84c-.32 1.82.01 3.62.56 5.36.55 1.76 1.09 3.84 2.11 5.39.46.7 1.1 1.26 1.76 1.8l.17.04c1.08.61 1.96 1.35 2.96 1.59 1.08.26 2.27.06 3.14.06.51 1.77.86 3.33 1.43 4.8.47 1.21 1.04 2.37 1.07 3.7.01.52.01 1.07.15 1.57.72 2.6 1.53 5.19 2.22 7.8.35 1.33.51 2.72.75 4.08l.85 4.71c.15.8.39 1.6.46 2.41.11 1.23.23 2.49.08 3.71-.01.12-.1.24-.22.35.1.43.11.82.03 1.26-.08.47-.3.91-.52 1.34 0 .05 0 .1-.03.13-.89 1.86-1.84 3.69-2.76 5.54-.51.71-1.01 1.42-1.48 2.15-.88 1.36-1.46 2.83-2.13 4.29-.2.43-.42.85-.64 1.27-.53.93-1.05 1.86-1.55 2.8-2.02 3.39-4.25 6.66-5.53 10.42-.22.16-.42.39-.57.7-3.56 7.35-7.86 14.3-11.19 21.75-3.52 7.87-7.01 15.74-10.49 23.62l-.45.78a30.34 30.34 0 0 0-1.62 3.47c-.37.92-.46 1.96-.88 2.85-.94 2.02-2.1 3.94-2.98 5.98a28.79 28.79 0 0 0-2.01 5.86 12.78 12.78 0 0 0-.04 5.47c.4 1.57.8 3.28 1.97 4.65.74.87 1.12 2.06 1.57 3.15.59 1.42 2 2.54 3.48 2.53 2.3-.02 4.6-.09 6.9-.19.77-.03 1.53-.32 2.29-.31.96.02 1.93.11 2.89.19h.04a6.5 6.5 0 0 0 2.6-.52c.5-.27.97-.57 1.44-.89l.13-.14.02-.02c0-.01 0-.02.03-.04l.18-.27c.12-.19.23-.39.33-.58l.15-.31.08-.18.09-.23.1-.26.22-.61.11-.34c.35-.61.53-1.29.72-2.01.23-.89.34-1.26 1.31-.79l.22.11.03.09c1.3.73 2.56 1.7 3.83 1.02l.03-.03.22-.2.16-.17c1.3-.61 2.18-2.08 2.65-3.64.43-1.41.45-2.88.44-4.34-.02-1.65.14-3.19.5-4.8.69-3.08 1.42-6.18 2.89-9l.01-.03c1.03-.59 2.06-1.17 3.07-1.8.24-.15.35-.54.49-.82.13-.25.2-.55.36-.78 1.43-1.89 2.88-3.75 4.3-5.65.53-.71.93-1.52 1.47-2.22 2.48-3.22 4.97-6.43 7.48-9.63.36-.46 1.3-1.88 1.4-2.16l2.72-3.38c.16-.08.33-.15.42-.28l1.31-1.82c2.28-2.61 4.88-4.94 6.84-7.81 1.22-1.79 2.17-3.75 3.37-5.53l.4-.48c.31 2.2.87 4.38 1.04 6.6.28 3.48.21 7.01.28 10.5l.11 5.98-.18 6.86c-.02.86-.02 1.72-.06 2.58-.05.3-.07.6-.08.91 0 .06 0 .12-.02.18-.14 1.09-.48 2.13-.58 3.23-.22 2.28-.02 4.62-.09 6.91l-.09 1.08-.07 1.09c-.53 3.15-.99 6.32-1.34 9.5a168.12 168.12 0 0 0-.7 8.5c-.32 2.76-.84 5.48-1.15 8.23-.06.55-.86 2.83-.94 3.7a20.8 20.8 0 0 0-.85 3.02c-.27 1.48-.4 2.97-.56 4.47-.86 3.21-1.96 6.38-2.97 9.51l-.17.31a43.06 43.06 0 0 0-3 6.81 31.53 31.53 0 0 0-1.08 4.03l-.35.85a33.82 33.82 0 0 0-1.17 3.48l-.07.15c-.92 2.64-.75 6.7 1.54 8.67.23.2.5.35.79.48 0 .2-.04.41-.12.65-.14.38-.25.77-.37 1.16l-1.04 3.27c-.25.8-.51 1.6-.74 2.42-.08.29-.11.6-.17.9l-.76 1.87c-.4.87-.8 1.73-1.15 2.62-.27.7-.47 1.42-.67 2.14a85.56 85.56 0 0 0-1.33 3.91 54.12 54.12 0 0 0-1.51 5.99c-.1.52-.16 1.07-.22 1.64-.08.3-.18.6-.3.89-.48 1.09-.5 2.37-.74 3.56-.19.96-.23 1.98-.62 2.86-1.2 2.74-2.55 5.42-3.81 8.14-.45.97-.91 1.95-1.26 2.97-.85 2.45-1.58 4.94-2.47 7.37-.11.29-.15.56-.16.82-.1.52-.04 1.06.2 1.62a3.92 3.92 0 0 0 1.85 2c.76.38 1.58.64 2.42.82.9.27 1.86.42 2.83.44.92.02 1.85.01 2.77 0 1.41.18 2.84.24 4.26.2 2.31-.06 4.62-.39 6.93-.53 2.99-.19 6.01.4 8.98-.45 1.17-.33 2.38-.53 3.58-.72.97-.15 1.96-.16 2.92-.32 1.27-.21 3.42-2.49 3.21-3.72v-.1c0-.06.03-.11.04-.17.14-1.26.09-2.6-.06-3.86-.07-.55-.24-1.07-.34-1.62-.11-.61-.13-1.24-.21-1.85-.13-1.02-.4-2-.78-2.94a6.84 6.84 0 0 0-.44-1.64c-.04-.08-.06-.16-.09-.25l-.05-.28-.07-.28a4.11 4.11 0 0 0-.25-.93c-.1-.33-.2-.65-.27-.99a6.77 6.77 0 0 1 .31-4.06l.06-.1c2.79-5.24 4.35-10.85 5.85-16.65l.02-.09c.95-2.33 1.99-4.62 2.81-7 .78-2.27 1.44-4.55 2.41-6.75.62-1.42 1.44-2.79 1.89-4.26 2.54-.28 5.09-1.13 7.6-1.38 3.67-.37 7.38-.5 11.07-.72l2.69-.16c3 .05 5.98-.36 8.99-.45 1.65-.05 3.25-.05 4.88-.33l.3-.05 4.89-.29.09.05.2-.07h.03c.75 2.2 1.47 4.41 2.17 6.62.3 1.2.65 2.39 1.09 3.55l.09.23c.49 1.59.96 3.19 1.44 4.79.11.84.25 1.68.5 2.48.39 1.21.83 2.41 1.3 3.6l.32 1.08c1.05 3.55 2.71 6.84 4.34 10.14.66 1.69 1.34 3.38 2.02 5.06.35 1.53.57 3.1.84 4.69l.08.23c.39 1.26.31 2.53.1 3.81-.21 1.27-.43 2.5-.53 3.79a9.75 9.75 0 0 1-.4 2.23c-.01.33-.02.65 0 .98.07 1.51.6 2.98 1.5 4.19a9.05 9.05 0 0 0 1.86 1.85c2.26 2.01 5.62 2.39 8.57 2.61 5.18.38 10.42.16 15.64-.19 1.46.05 2.92 0 4.4-.32 2.23-.17 4.44-.35 6.65-.5.17-.01 2.01-.36 2.78-.55.2-.03.98-.2 1.11-.31a249.52 249.52 0 0 0 5.96-2.79 5.35 5.35 0 0 0 1.58-2.26c.92-3.02.87-6-.78-8.82a7.44 7.44 0 0 0-2.57-2.57c-.97-.61-3.83-2.3-4.19-2.47-1.53-.75-3-1.66-4.59-2.23-1.66-.6-3.43-.85-5.15-1.29-.3-.08-.54-.17-.76-.27-.27-.78-.52-1.56-.77-2.35.15-.53-4.89-21.64-5.58-24.24-.56-2.11-.64-4.35-1.02-6.52-.09-.49-.2-.98-.31-1.47-.13-1.49-.26-2.99-.65-4.43-.21-.78-.38-1.47-.43-2.27a7.28 7.28 0 0 0-.3-1.77c.03-.18.08-.35.15-.5a4.63 4.63 0 0 1 2.31-1.89c1.05-.44 1.46-1.19 1.47-2.1.02-1.09-.37-2.18-.38-3.27-.04-4.18-.87-8.31-.8-12.5 0-.14-.09-.29-.12-.44-.11-.59-.25-1.18-.3-1.77-.25-2.87-.62-5.74-.65-8.62-.03-2.54-.99-4.86-1.25-7.34l-.05-.29c-.66-1.9-1.37-3.79-2.03-5.67-1.54-4.4-2.86-8.9-4.25-13.35-.41-1.3-1-2.58-1.6-3.86-1.25-2.03-1.92-4.31-2.83-6.48-.25-.6-.5-1.21-.72-1.83-.22-.59-.35-1.22-.61-1.79-.72-1.57-1.55-3.1-2.22-4.69-.19-.45.06-1.08.11-1.62.07-.69.27-1.4.19-2.07-.23-1.83-.71-3.64-.85-5.47-.12-1.52.01-3.09.21-4.61.18-1.36.82-2.69.87-4.04.08-2.33.38-4.59.95-6.85.55-2.16.86-4.38 1.48-6.52.56-1.92 1.61-3.7 1.73-5.76 0-.15.08-.29.13-.43.88-2.53 1.78-5.06 2.63-7.6.58-1.76.99-3.59 1.65-5.33.55-1.45.95-2.76.24-4.32-.32-.69-.31-1.91.11-2.5a37.82 37.82 0 0 1 4.34-5.18c.91-.89 1.79-1.82 2.72-2.7 2.16-3.01 5.33-5.18 7.86-7.95 1.17-1.27 2.25-2.65 3.43-3.91a1.42 1.42 0 0 0-.04-.2l.18.04c.47-.49.95-.97 1.47-1.42.24-.2.49-.38.74-.57 1.99-1.93 4.07-3.79 6.05-5.73 1.17-1.14 2.34-2.29 3.73-3.18.86-.55 1.76-1.04 2.63-1.57.69-.83 1.55-1.54 2.29-2.33l.67-.66c.39-.83.69-1.71.92-2.6.64-2.46.86-5.01 1.47-7.48.24-.24.44-4.13.53-5.03.26-2.78.69-5.53.99-8.31.1-.9-.06-1.82.02-2.72.31-3.72.66-7.43 1-11.14l.48-3.79c.62-4.92 1.28-9.83 1.96-14.74.21-.83.42-1.65.59-2.49.23-1.14.18-2.34.36-3.49.3-1.91.7-3.8 1.01-5.71.21-1.29.33-2.58.47-3.88.1-.97.09-1.87-1.09-2.29-.33-.12-.74-.66-.71-.98.1-1.3.15-2.66.58-3.87.9-2.57 2.03-5.05 3.06-7.57l.02-.04.01-.11c.01-.65.04-1.31.25-1.94.22-.65.56-1.27.85-1.88.23-.48.39-.98.56-1.48l.16-.17a10.66 10.66 0 0 0 2.12-3.62l.08-.13.06-.25c.18-.71.26-1.45.54-2.11.91-2.13.27-4.05-.99-5.65Zm-67.65 15.97c-.08 1.4-.29 2.78-.63 4.19-.49 2.03-.37 4.22-.43 6.34a555.3 555.3 0 0 0-.21 12.23c0 1.89 0 3.8.3 5.65.35 2.21 1.03 4.39.78 6.66-.22 2.02-.68 4.02-.88 6.04a26.84 26.84 0 0 1-3.05 9.56c-1.2 2.34-3.05 4.15-4.92 5.9a38.18 38.18 0 0 1-5.26 4.03 11.06 11.06 0 0 1-3.52 1.31c-.93.22-1.94.15-2.91.11-2.87-.12-5.74.35-8.6.02-1.64-.19-3.22.43-4.92.04-1.55-.36-3.3.07-4.83-.34a15.3 15.3 0 0 0-4.94-.42c-.49.03-1.15-.2-1.07.72.07.81.85 1.71 1.46 1.74 1.47.07 2.94.17 4.41.29.9.08 1.8.18 2.68.36 1.19.24 2.35.75 3.55.83 1.95.14 3.88.34 5.79.68.18-.05.37-.07.59-.03.33.06.66.08.99.11-.25.93-.41 1.88-.46 2.84a6.06 6.06 0 0 0-.59 2.95c.25 3.19.71 6.37 1.1 9.55.03.24.18.49.32.7.31.48.65.94 1.04 1.49-1.12.42-1.65 1.27-2.76 1.58-1.67.47-3.11 1.71-4.68 2.55-1.56.84-3.12 1.72-4.76 2.38-1.88.76-3.86 1.3-5.79 1.95-.61.21-1.22.45-1.83.65-1.44.48-2.87 1.23-4.43.86a61.84 61.84 0 0 1-5.84-1.68c-1.53-.52-2.99-1.28-4.51-1.84-.58-.27-1.15-.54-1.72-.83-.77-.49-1.51-1.03-2.37-1.27a70.99 70.99 0 0 1-5.9-3.7c.33-.69.6-1.41.78-2.14l1.48-3.6c.65-1.58 1.43-3.21 1.74-4.9.6-3.27-.6-6.67-1.68-9.72-1.15-3.26-2.33-6.52-3.12-9.88-.38-1.62-.79-3.24-.27-4.87.24-.76.7-1.47.9-2.24.19-.72-.08-1.18-.5-1.71-.5-.44-1.06-.8-1.61-1.11-1.88-1.05-3.04-2.28-3.03-4.49 0-1.35-.23-2.66-.72-3.87l-.34-.73c-.18-.33-.36-.67-.59-.98-.99-1.34-1.12-2.9-1.61-4.36-.14-.41 0-.98.17-1.42.74-2.03 2.52-3.27 3.87-4.83.16-.18.69-.17.99-.08.92.27 1.81.64 2.72.96a5.75 5.75 0 0 1 3.18 2.67c.46.81 1.36 1.4 2.32 1 .75-.32 1.4-1.05.92-1.93a14.4 14.4 0 0 0-.99-1.58 22.32 22.32 0 0 1-1.84-4.6l-.13-.48-.05-.43-.12-.22a33.38 33.38 0 0 0-1.25-3.69 16.95 16.95 0 0 1-1.38-5.37c-.12-1.77 0-3.55.12-5.32.26-1.73.64-3.44 1.22-5.11.7-2.01 1.58-4.11 2.88-5.85.01-.02 0-.06.02-.08.56-.87.99-1.88 1.74-2.55.82-.74 1.61-1.6 2.65-1.99.6-.12 1.22-.16 1.85-.16.52.05 1.04.09 1.56.06l.98.04c1.73.04 3.46.09 5.18.11a13.55 13.55 0 0 0 3-.31c.63-.12 1.26-.27 1.89-.42l.86-.2.24-.08c1.42-.36 2.85-.7 4.34-.78 3.43-.2 7-.4 10.36.45 1.51.38 2.94 1.07 4.53.96a8.36 8.36 0 0 0 2.73-.72c.7-.2 1.39-.45 2.05-.73 3.52-1.51 6.64-3.73 10.67-3.3a9.12 9.12 0 0 1 5.71 3.04c.44.55.88 1.1 1.34 1.62.5.69.96 1.42 1.37 2.15a12.16 12.16 0 0 1 1.69 5.49c.05 1.38-.09 2.73-.01 4.08Zm2.91 163.66c.06.68-.21.88-.92.91-3.02.14-5.83-.63-8.6-1.7-2.65-1.02-5.32-1.98-7.9-3.15-2.46-1.12-4.83-2.47-7.21-3.77-1.74-.95-3.37-2.12-5.16-2.92-1.34-.6-2.28-1.75-3.68-2.28-1.41-.53-2.64-1.49-3.99-2.19-1.02-.53-2.05-1.03-3.09-1.53-5.41-3.86-10.53-8.16-15.65-12.35-.91-.74-1.8-1.5-2.7-2.25a1.54 1.54 0 0 0-.49-.57l-1.52-1.1-.68-.57-.37-.35c-.55-.49-1.12-.95-1.69-1.42-1.35-1.17-2.68-2.36-4.01-3.55l-.14-.18a2.1 2.1 0 0 0-.89-.74l-.39-.34a126.1 126.1 0 0 1-5.01-4.81 28.58 28.58 0 0 1-1.7-1.95l-.15-.2c-.36-.37-.71-.76-1.06-1.14-.81-.98-1.6-1.98-2.39-2.98-.3-.43-.61-.87-.89-1.32a1.35 1.35 0 0 0-.49-.44l-1.16-1.54c-.3-.45-.61-.89-.9-1.35a50.26 50.26 0 0 0-3.66-5.28c-.41-.5-.85-1.02-1.28-1.56-.72-1.08-1.41-2.17-2.1-3.26a6.8 6.8 0 0 1-.49-1.57l-.2-.28c-.4-.63-.17-1.66-.21-2.51 0-.09.1-.23.18-.27 2.2-.89 4.41-1.77 6.62-2.64.47-.18.97-.3 1.43-.49 1.19-.49 2.35-1.04 3.55-1.49.88-.33 1.66-.58 2.38.61.36.59.9 1.06 1.46 1.52l7.25 9.07c1.36 1.7 2.7 3.41 4.09 5.07a143.35 143.35 0 0 0 45.19 37.3c6.56 3.43 13.42 6.53 20.72 7.88-.17.85-.35 1.73-.55 2.62-.11.47-.34.92-.41 1.39-.41 2.92-.8 5.84-1.19 8.76-.04.29.01.6.04.89ZM128.98 91.88c.35-1.51.88-1.67 2.21-.88.96.56 1.91 1.26 2.96 1.52 1.94.48 3.82 1.15 5.78 1.56.05 0 .09.04.14.06.55 1.06.97 2.21 1.41 3.31a131.12 131.12 0 0 1 4.35 12.8l-2.92.36c-.45.05-.89.1-1.34.12-1.28.08-2.56.13-3.84.23-.7.05-1.07-.06-1.41-.86a37.82 37.82 0 0 0-1.45-3.01c-.01-.02-.04-.03-.05-.06l-.19-.41c-.41-.77-.81-1.55-1.19-2.33-.2-.42-.38-.85-.55-1.28-.5-1-1-2-1.52-2.99-.76-1.45-1.61-2.9-2.18-4.45l-.36-1.17a7.67 7.67 0 0 1-.11-.46 1.07 1.07 0 0 1 0-.4c-.35-.61.14-1.12.26-1.65Zm-.95-16.33c-.27-1.1-.58-2.2-.81-3.31-.19-.93-.3-1.88-.46-2.95.54.06.81.03 1.04.12 2.16.82 4.29 1.73 6.49 2.41.42.13 1.27-.58 1.67-1.1.76-1 1.31-2.17 2.01-3.22.4-.59.82-.83 1.22.13.9 2.13 1.87 4.23 2.86 6.33.19.41.63.71.83 1.12a12.46 12.46 0 0 1 1.19 5.45l.02.1c0 .73.07 1.45.06 2.18a4.93 4.93 0 0 1-.56 2.45l-.02.02a74.4 74.4 0 0 1-2.79 4.93c-.13.21-.95.09-1.41-.03-.74-.2-1.44-.53-2.16-.8-.52-.2-1.05-.38-1.57-.57-.52-.19-1.02-.49-1.55-.54-1.83-.17-3.08-1.54-3.38-3.32-.24-1.43-.88-2.79-1.35-4.19-.02-.07-.11-.12-.13-.18l-1.2-5.03Zm17.1 18a.92.92 0 0 1 0-1c-.2-.66-.12-1.3.29-1.94l6.91 6.45c.16.15.26.36.42.52.63.65 1.28 1.27 1.9 1.93.39.42.72.9 1.11 1.32.62.66 1.25 1.32 1.9 1.96.24.53.47 1.07.69 1.61l.08.23c.05.15.09.29.12.44v.06c-.1.47.04 1.07.04 1.63l-.09.02c.03.55-.3 1.12-1.01 1.13-1.13.02-2.23.2-3.32.5-.83.22-1.71.84-2.58.78-1.78-.13-2.02-2.3-2.55-3.61-.86-2.11-1.4-4.32-2.02-6.5-.28-.98-.67-1.91-.96-2.88-.27-.9-.49-1.83-.97-2.65Zm24.54-74.36c.12-.02.24-.05.37-.12 1.52-.88 2.95-1.76 4.62-2.33 1.44-.5 2.75-1.34 4.21-1.76.7-.2 1.46-.26 2.23-.27.14.03.28.07.41.08.86.1 1.73.08 2.59.17 1.41.15 2.82.34 4.22.51l-5.41 4.12-1.01.58-.32.19c-.61.52-1.31.89-2 1.3a6.37 6.37 0 0 0-.82.54l-.05.04-.08.07c-.38.3-.76.61-1.18.86h-.01c-.26.29-.49.57-.47.94.03.57.7 1.45 1.22 1.56.61.13 1.43-.32 2.05-.7 1.41-.86 2.73-1.86 4.12-2.74.69-.44 1.48-.72 2.19-1.13 1.1-.65 2.13-1.44 3.28-2.01 1.64-.82 3.35-1.48 5.03-2.22.44-.19.84-.47 1.3-.6.29-.09.59-.23.87-.32 1.64-.18 3.28-.36 4.92-.12 1.76.25 3.52.67 5.26 1.13 1.22.45 2.42.95 3.62 1.45 4.47 1.86 8.97 3.75 13.83 4.17 1.72.3 3.44.55 5.16.87 1.17.22 1.3 1.36 1.38 2.19.17 1.74.03 3.52.06 5.28.04 2.9-.1 5.83.22 8.7a8.32 8.32 0 0 0 2.62 5.13c1.15 1.08 2.34 2.14 3.36 3.33a5.77 5.77 0 0 1 1.2 2.41c.2.94.08 1.96.02 2.94-.02.27-.34.52-.57.85-.2-.26-.32-.36-.31-.43.34-2.28-1.41-3.79-2.31-5.51-.9-1.72-2.68-2.97-4.07-4.43-.51-.54-.96-1.14-1.5-1.65-.55-.52-1.15-1-1.73-1.5-2.26-.77-4.45-1.74-6.82-1.98a4.55 4.55 0 0 0-3.06.11 28.84 28.84 0 0 0-5.58 2.36 16.81 16.81 0 0 1-8.74 2.19c-1.51-.29-2.99-.68-4.52-.84-1.9-.49-3.75-1-5.75-.69-2.26.36-4.35 1.42-6.6 1.85-2.45.47-4.92.85-7.38 1.27-1.72.05-3.44.03-5.19.06-3.05.04-5.75 1.89-7.49 4.29-.56.77-1.03 1.6-1.47 2.43a39.43 39.43 0 0 0-3.22 5.28l-.25.58a15.38 15.38 0 0 0-1.65 3.53 10.6 10.6 0 0 0-.25 6.16c.3 1.3.78 2.45 1.31 3.6.23.67.45 1.35.69 2.02.34.95.81 1.84 1.18 2.78.17.57.33 1.14.52 1.7l.3 1.17c-.54-.19-.94-.27-1.3-.46-.28-.14-.53-.33-.79-.52-1.64-.64-3.14.24-4.36 1.41a29.66 29.66 0 0 0-3.44 4.06c-1.14 1.56-2.15 3.43-1.44 5.39.71 1.96 1.97 3.62 2.46 5.69.22.92-1.2 1.31-1.42.39l-.1-.35c-.65-.59-1.32-1.18-1.94-1.8-.86-.86-1.66-1.78-2.5-2.66-1.21-1.25-1.2-2.81-1.22-4.39-.03-2.33.06-4.69-.25-6.99-.2-1.47-.97-2.88-1.57-4.28a83.8 83.8 0 0 0-2.22-4.7c-.77-1.52-1.77-2.94-2.35-4.52a7.52 7.52 0 0 1-.45-3.8c.17-.91.48-1.79.84-2.67.2-1.06.6-2.07 1.05-3.05l.73-1.55.35-.78.02-.06.07-.18.1-.26a15.78 15.78 0 0 0-.75-6.95c-.81-2.1-.76-4.23-.84-6.38v-.58a4.96 4.96 0 0 1 .75-2.88 8.88 8.88 0 0 1 2.74-2.47c1.1-.71 2.27-1.37 3.54-1.73.39-.26.85-.41 1.29-.15.43.26.59.73.58 1.22-.02.87-.38 1.71-.64 2.53a28.63 28.63 0 0 0-.92 3.76c.12 1.04.45 1.28 1.41 1.27.79 0 1.54-.89 1.55-1.87a8.83 8.83 0 0 1 1.23-4.54c.43-.72.36-1.72.6-2.57l.02-.05c.14-1 .54-1.98 1-2.86a7.87 7.87 0 0 1 2.2-2.72c.36-.28.75-.51 1.14-.74l.06-.05c1.07-.55 2.1-1.18 3.13-1.81a14.5 14.5 0 0 1 4.87-2.72c.77-.29 1.49-.66 2.18-1.09Zm-15.84-6.33c.77-1.21 1.52-2.52 2.81-3.2.27-.3.58-.64.94-.97 1.9-1.75 3.14-1.65 5.45-.53 1.81.88 3.59 1.82 5.32 2.85.34.2.64 1 .51 1.37-.47 1.35-1 2.71-1.77 3.91-.26.69-.87 1.13-1.48 1.49-.69.41-1.4.8-2.12 1.16-.87.43-1.78.77-2.68 1.14-.86.35-1.69.79-2.56 1.13a.75.75 0 0 1-.47 0c-.18 0-.39-.11-.65-.46-.46-.61-1.08-1.1-1.57-1.69-.6-.72-1.13-1.5-1.7-2.24a2.45 2.45 0 0 1-.62-1.6c-.27-.84.13-1.63.59-2.35Zm-28.64 31.37c.49-.33 1.27-.31 1.92-.28 1.62.09 3.24.26 4.86.42.84.08 1.67.22 2.51.34.6.08 1.27.38 1.78.21.71-.23 1.09-.77.51-1.68l-.12-.21c-.62-.78-1.09-1.56-2.01-2.07a3.73 3.73 0 0 0-2.49-.32c-1.45.2-4.07.51-4.82-1.16l-.03-.12a2.4 2.4 0 0 1-.28-.8c-.2-1.41-.23-2.84-.39-4.26-.13-1.14-.2-2.32-.55-3.4-.74-2.31-.26-4.47.78-6.49.28-.54 1.33-.69 2.02-1.03 1.24-.6 2.53-1.11 3.71-1.82 1.34-.79 2.58-1.75 3.85-2.64.48-.34.91-.77 1.41-1.09 1.13-.74 2.29-1.45 3.44-2.15 1.63-.99 3.24-2.02 4.91-2.92.18-.1.41-.14.64-.17l.13-.01c.33-.02.66.03.95.11.03 0 .06.05.08.1.26.12.51.27.75.47 1.23 1.05 2.03 2.7 2.74 4.12.55 1.1 1.02 2.25 1.59 3.35.4.54.81 1.07 1.2 1.62.16.23.24.77.11.91a17.1 17.1 0 0 1-2.14 1.85c-1.2.87-2.5 1.6-3.67 2.51-.72.55-1.27 1.32-2.04 2.13-.67.35-1.45.92-2.32 1.17-2.27.63-3.34 2.61-4.79 4.13-.98 1.02-.58 2.48-.57 3.77.02 1.16.03 2.33.11 3.48.06.8.24 1.58.38 2.37.06.33.15.66.22.99.36 1.74.75 3.47 1.03 5.22.01.08 0 .17-.04.26a9.13 9.13 0 0 1-.67 3.22c-.51 1.3-.93 3.12-2.56 3.39-.61.1-1.25.03-1.87-.12a14.9 14.9 0 0 1-4.22-.83c-1.17-.42-2.28-.63-2.85-1.85-1.01-2.2-2.53-4.19-2.69-6.75-.05-.79-.51-1.55-.65-2.35-.09-.55-.15-1.44.14-1.63Zm-20.67 15.15a.92.92 0 0 1 .04-.7c-.13-.14-.09-.54-.17-1.11 1.98.54 3.76.92 5.46 1.52 2.11.75 4.23 1.53 6.2 2.57 1.27.67 2.21.13 3.18-.32l.06-.06.14-.15c.4-.7.86-1.38 1.15-2.12.51-1.28.92-2.6 1.45-3.87.22-.53.7-.91 1.31-.74.02 0 .04.03.07.03.22.02.44.06.46.12.23.73.87 1.33 1.12 2.06.31.35.59.72.83 1.12.51.87.9 1.61 1.9 1.97.37.13.76.24 1.15.35.05 0 .11 0 .16.02l2.19.52c1.16.19 2.33.12 3.5.05.2-.01.36.03.49.09l.31.07c.4-.04.8.19 1.05.52.17.22.27.46.34.72a52.9 52.9 0 0 1-1.35 2.72c-.62 1.16-1.27 2.28-1.65 3.51a87.28 87.28 0 0 0-9.58-3.16l-1.87-.84c-.65-.3-1.49.32-1.34 1.12.27 1.42.64 2.82 1.03 4.21.61 2.15 1.26 4.29 1.92 6.42.26.84.64 1.64.88 2.48.34 1.18.56 2.39.9 3.57.39 1.35.9 2.67 1.29 4.02.12.42.14.94 0 1.34a6.01 6.01 0 0 1-.97 1.73c-.49.6-.99.92-2 .67-1.37-.34-1.6-.86-1.4-2.14.19-1.21-.78-5.35-1.07-5.87-1.2-4-2.75-7.88-4.63-11.6-.15-.34-.3-.68-.49-.99l-.18-.36c-.16-.3-.38-.45-.62-.55a2.98 2.98 0 0 0-.58-.35c-.97-.43-2.31.02-2.64 1.03-.12.36-.2.74-.29 1.11-.88 1.38-1.77 2.75-2.67 4.12a.98.98 0 0 1-.68-.86 1.3 1.3 0 0 1-.44-.82c-.14-1.09-.6-2.18-.9-3.24a310 310 0 0 0-.95-3.26c-.67-2.24-1.39-4.47-2.11-6.7Zm11.07 37.55c-.5.97-1.02 1.8-2.17 2.01-.17.03-.36.02-.54.03l-.03.04c-.15.19-.84.05-1.24-.06l-.39-.12c-.64-.14-1.27-.34-1.83-.53a32.46 32.46 0 0 1-4.24-1.83.87.87 0 0 1-.48-1.09l-.21-.56a83.75 83.75 0 0 1-1.52-4.89c-.6-2.07-1.12-4.16-1.74-6.22-.54-1.79-1.18-3.56-1.78-5.33l-.71-2.01c2.04.86 4.1 1.67 6.18 2.44l.56.35c.82.32 1.65.59 2.5.75.42.15.83.31 1.25.45.21.07.42.05.63 0 .52.14 1.07-.22 1.35-.62a44.85 44.85 0 0 0 3.61-6.36c.1 0 .19.01.28.03.68 2.07 1.59 4.06 2.36 6.11.84 2.25 1.47 4.58 2.1 6.91-.16 2.09-1.06 4.09-1.95 6.05-.67 1.48-1.24 3.01-1.98 4.45Zm1.01 4.27a801.84 801.84 0 0 0 5.01-8.55c2.63.02 3.38.65 4.25 3.12.19.52.45 1.02.73 1.51a172.07 172.07 0 0 0 5.97 15.16l-.06.01c-.2.24-.49.41-.83.44-3.42.33-6.67 1.67-10.14 1.64-.4 0-.67-.2-.84-.47a.8.8 0 0 1-.24-.43c-.16-.99-.51-1.93-.79-2.89-.31-1.06-.66-2.1-1-3.14-.32-.97-.66-1.93-1.06-2.87a11.7 11.7 0 0 1-.91-2.87 1.6 1.6 0 0 1 .02-.49.62.62 0 0 0-.11-.17Zm8.35 31.08c-1.36.25-3.17.65-4.52.13-.5-.19-.84-.53-1.08-.93a3.8 3.8 0 0 1-.5-.7c-1.52-2.74-1.74-5.66-1.49-8.64-.03-.08-.07-.16-.08-.26l-.01-.4c.57-2.76 6.36-3.43 8.36-3.9 3.78-.89 7.58-1.7 11.38-2.45l.75-.1 4.19-.58c2.34-.21 4.68-.35 6.99-.85 3.76-.82 7.5-1.76 11.25-2.66l.27.09a42.46 42.46 0 0 1 2.26 10.71c-1.22.4-2.44.77-3.67 1.13-1.61.31-3.21.8-4.8 1.32l-1.2.32-5.41 1.4c-1.25.32-2.5.64-3.69 1.11-2.2.57-4.39 1.15-6.57 1.79-4.1 1.21-8.23 2.69-12.44 3.47Zm4.48 14.79v-.04c.12-1.39-.76-2.44-.56-3.75.09-.59-.37-1.24-.53-1.88-.17-.66-.32-1.33-.47-1.99-.12-1.17-.14-2.35.01-3.53l.11-.12c5.5-2.08 11.05-4.02 16.67-5.72l.46-.07c1.53-.17 2.95-.65 4.35-1.18 2.42-.59 4.82-1.22 7.2-1.93 2.48-.56 4.98-1.07 7.5-1.5 1.14 3.15.7 6.33-.03 9.67-.39 1.76-.58 3.52-.88 5.29a8.08 8.08 0 0 1-.71 2.11 1.3 1.3 0 0 1-.68 0l-.23.08-2.04.67c-.34.11-.67.25-1.01.36-1.95.64-3.92 1.25-5.86 1.93-2.05.72-4.15 1.35-6.08 2.31-1.3.64-2.46 1.67-3.49 2.72-.69.7-1.24 1.5-1.76 2.32-.78.79-1.54 1.59-2.28 2.39a18.05 18.05 0 0 0-3.64 5.43l-1.72 2.91a408.3 408.3 0 0 1-3.45-12.9l-.87-3.55Zm-12.19 105.62a38.14 38.14 0 0 0-1.62 12.23c.09 1.16.23 2.38-.2 3.49-.21.56-.7.94-1.29.91-1.52.46-2.38-1.11-2.58-2.5-.19-1.28-.12-2.59-.2-3.88-.12-2.04-.32-5.01-1.79-6.63l-.56-.42c-.36-.26-1.42-.25-1.56-.01-.36.64-.6 1.49-.51 2.21.17 1.39.78 2.73.86 4.11.07 1.21-.36 2.45-.53 3.68-.25 1.8-.44 3.62-.7 5.42l-.02.11c-.06.94-.2 1.87-.67 2.74-.35.65-1.05 1.19-1.79 1.03l-.02.02c-.11.09-.89-.27-.95-.51l-.06-.36c-.12-.23-.2-.48-.24-.74a27.33 27.33 0 0 1-.29-4.43c-.01-1.65.19-3.29.23-4.94l-.1-.08c-.3-.21-.78-.23-1.17-.22-.19 0-.38.09-.57.18-.15.79-.37 1.56-.58 2.34-.15 1.11-.33 2.21-.42 3.32-.07.87.01 1.75.06 2.63.04.62.27 1.29.15 1.85a1.3 1.3 0 0 1-.91 1.38c-.7.19-1.34-.24-1.57-.89-.35-1-.35-2.06-.35-3.11 0-1.03-.02-2.06.07-3.08.1-1.11.44-2.19.72-3.27l-.17-.15a.68.68 0 0 0-.25-.3.67.67 0 0 0-.48-.06.68.68 0 0 0-.4.3l-.25.52-.16.09c-.21.77-.36 1.56-.52 2.34-.22 1.08-.52 2.15-.7 3.25-.17 1.05-.16 2.12-.16 3.18 0 1.65-2.55 1.64-2.55 0 0-1.26.03-2.5.23-3.75.18-1.13.49-2.24.72-3.36.13-.61.26-1.22.41-1.83a.72.72 0 0 0 .26-.49v-.02l.02-.1.06-.22.03-.09.11-.21c.18-.31.39-.6.45-.96.08-.43 0-.91-.35-1.21a1.15 1.15 0 0 0-.59-.27l-.1-.08-.04-.03-.01-.01-.26-.08h-.23l-.07.02-.13.04-.21.11-.03.02-.13.12c-.02.03-.02.02-.04.03-.16.25-.29.5-.41.77-.2.45-.4.88-.69 1.28 0 .03-.02.05-.03.08-.47 1.55-.5 3.11-.5 4.72 0 1.48-2.3 1.48-2.3 0 0-1.7.05-3.41.51-5.05-.03-.31.07-.63.27-.86.12-.34.25-.67.39-1.01a82.34 82.34 0 0 1 1.95-5.53c.63-1.6 1.34-3.16 2.11-4.7 1.32-2.65 2.72-5.25 4.18-8.05.63.49.99.86 1.43 1.08 1.88.94 3.77 1.87 5.69 2.72 1.9.85 3.85 1.61 5.78 2.39.36.15.75.25 1.13.32 1.39.25 2.8.41 4.16.76.24.06.49.18.61.41.36.27.58.72.41 1.28Zm39.02-70.27c-.21.05-.38.72-.39 1.12-.04 1.29-.05 1.71-.18 1.98.1 1.3.04 2.62.02 3.94l.02.25c.17 1.86.56 3.69.85 5.52.21 1.28-.31 2.72.08 4.16.18.66-.22 1.49-.38 2.23-.05.25-.12.53-.28.71-1.38 1.48-2.85 2.87-4.15 4.42a46.04 46.04 0 0 0-3.44 4.76c-.62.97-.9 2.15-1.48 3.16l-.35.54c-1.74 1.96-3.67 3.79-5.31 5.82a359.32 359.32 0 0 0-13.8 18.02c-.62.69-1.15 1.52-1.72 2.25-1.11 1.43-2.11 2.96-3.29 4.33-.11.13-.35.19-.61.22-1.33.81-3.03.61-4.54.51l-.59-.04a30.61 30.61 0 0 1-7.72-1.57 46.62 46.62 0 0 1-5.42-2.38l-2.78-1.43a2.83 2.83 0 0 1-.24-.13c-.31-.3-.62-.6-.9-.92-.1-.11-.17-.27-.22-.44l2.7-6.26 1.75-4.07.64-1.53c.16-.12.31-.3.41-.54 3.53-7.96 7.58-15.67 11.57-23.41l.96-1.87c.29-.22.52-.54.64-.99l.19-.63 5.11-9.9a45.07 45.07 0 0 0 2.89-5.33c1.28-2.92 3.23-5.31 4.91-7.99a52.48 52.48 0 0 0 4-7.83c.64-.25.82-1.08 1.17-1.62 1.3-2.05 2.44-4.2 3.72-6.26.52-.84 1.21-1.6 1.9-2.32.29-.3.65-.62 1.17.06 1.42 1.84 3.05 3.52 4.51 5.33 1.13 1.4 2.14 2.9 3.25 4.31 2.21 3 4.5 5.93 6.87 8.81 1.27 1.53 2.33 3.14 3.44 4.79a16.34 16.34 0 0 0 3.9 3.97l3.18 2.33c2.04 2.49 4.63 4.28 7.2 6.22l.68.55.27.28a7.6 7.6 0 0 0 1.81 1.45 50.56 50.56 0 0 1 5.33 5.52c2.32 2.79 5.55 4.49 8.65 6.29a63.88 63.88 0 0 0 5.81 3.01c.99.67 1.98 1.34 2.99 1.97 1.63 1.01 3.35 1.89 5 2.88.93.55 1.78 1.22 2.7 1.78 1.67 1.02 3.36 2.01 5.07 2.98 1.24.7 2.5 1.36 3.77 2.01.52.27 1.09.46 1.64.66 1.97.72 3.94 1.46 5.92 2.15 1.33.46 2.68.89 4.03 1.27 1.36.37 2.74.63 4.1.98.9.23 1.81.47 2.65.85.33.14.55.64.7 1.02.26.64.42 1.32.65 2.07-.04.28-.2.7-.14 1.09.26 1.91-.45 2.72-2.35 3.12-1.14.23-2.2.83-3.28 1.31-1.61.72-3.19 1.51-4.8 2.21-1.42.62-2.88 1.16-4.31 1.75-.91.37-1.78.86-2.72 1.11-2.63.7-5.31 1.23-7.93 1.96-1.61.45-3.13 1.25-4.74 1.7-1.6.46-3.26.7-4.9 1-1.07.2-2.14.43-3.22.47-2.33.07-4.66-.06-6.99.04-.98.04-1.95.13-2.92.22l-12.01-.64c-2.82-.15-5.67-.18-8.46-.62-1.87-.3-4.06-.68-5.95-1.44l-1.18-.64-.03-.01-.35-19.4c-.06-3.4-.01-6.82-.25-10.21-.04-.61-.12-1.21-.21-1.81l.05-.22c-.99-4.84-.75-9.93-1.01-14.84l-.2-3.14-.05-.1c-.04-.08-.02-.19.02-.31-.3-4.04-.78-8.07-1.58-12.05l-.19-.23c-.26-.29-.91-.41-1.31-.31Zm4.57 196.99c-2.06.58-4.09 1.1-6.23.84-1.89-.23-3.77-.6-5.66-.76-.86-.07-1.74.24-2.62.3-.79.06-1.59-.05-2.38.02l-1.36.14a280.3 280.3 0 0 1-5.01-.29c-.1.03-.21.07-.32.07-.47 0-.95.02-1.42 0-1.2-.02-2.56-.13-3.51-.95-.61-.53-.76-1.36-.72-2.13.05-.95.33-1.85.58-2.75.03-.13.1-.23.17-.33a43.83 43.83 0 0 1 4.11-11.94c.03-.06.08-.11.12-.16.4-.24.82-.38 1.35-.5.53-.12 1.13.06 1.69.07.31.04.61.07.92.08 1.68.06 3.33.16 4.89.89.23.11.49.17.74.21 1.62.24 3.26.38 4.87.7 2.75.56 5.49.92 8.3.67.89-.08 1.74.84 1.73 1.78-.02 1.95.18 3.82.84 5.7.58 1.66.8 3.44 1.16 5.17.4 1.9-.28 2.63-2.24 3.18Zm11.45-51.7c-.85 2.23-1.8 4.43-2.62 6.67-1.22 3.37-2.4 6.75-3.5 10.16a95.95 95.95 0 0 0-1.91 6.88 26.06 26.06 0 0 1-2.54 6.31c-.25.18-.44.45-.52.85-.15.75-2.98.94-3.69.99-1.52.1-3.06.03-4.59-.04-1.59-.08-3.13-.4-4.7-.65a74.7 74.7 0 0 0-3.39-.45 22.07 22.07 0 0 0-5.86-.95 2.1 2.1 0 0 1 0-1.17c.27-1.12.37-2.29.66-3.4.37-1.44.93-2.83 1.28-4.27.36-1.48.54-3 .84-4.49.2-1 .48-1.99.73-2.98.27-1.06.61-2 1.32-2.95.75-1.01.94-2.47 1.24-3.76.42-1.81.73-3.62 1.75-5.24.27-.43.22-1.1.24-1.66 0-.3.06-.55.15-.76h.04c1.8.22 3.62.16 5.43.14l2.24-.02c1.25.48 2.54.39 3.85.22.44-.06.87-.21 1.31-.34 1.04-.05 2.08-.11 3.12-.2 2.88-.27 5.69-.94 8.55-1.3l1.3-.1c-.25.85-.44 1.7-.74 2.51Zm86.99 34.14c3.25-.09 6.18.69 9.06 1.89.4.29 2.01.9 2.36 1.07.09.04 1.09.62 1.56.72 2.52 1.13 5.27 2.35 6.34 4.78.15.85-.23 1.91-.56 2.79a7.9 7.9 0 0 1-1.48 2.22c-.44.51-1.12.8-1.58 1.3-.96 1.02-2.23 1.22-3.43 1.72-1.84.77-3.61.81-5.46.89-.06 0-.11.02-.16.03-1.53-.06-3.06-.12-4.59-.2a185.07 185.07 0 0 0-10.07-.3c-.18-.03-.37-.1-.55-.09l-1.25.12h-.03c-3.51.09-7.95.94-11.25-.6-1.65-.77-2.15-2.42-2.62-4.05l-.17-.65c0-.46.03-.92.05-1.37.04-.88.08-1.77.25-2.64a8.16 8.16 0 0 1 .53-1.72l.04-.08 1.37-.39c.8-.15 1.59-.28 2.38-.45 1.41-.3 2.81-.63 4.2-.99.74-.19 1.48-.43 2.19-.71 1.04-.41 2.08-.84 3.11-1.26l2.23-.66.29.06a17.53 17.53 0 0 1 4.69-1.47 8.3 8.3 0 0 1 2.44.05h.11Zm-4.74-26.91c.18 1.19.36 2.37.59 3.55.37 1.92 1.01 3.8 1.52 5.7.24.9.43 1.81.66 2.7.72 2.83.77 5.71.74 8.61-.01 1.04-.49 1.62-1.43 1.88-1.37.38-2.77.65-4.12 1.09a53.58 53.58 0 0 0-4.55 1.78c-.91.4-1.77.91-2.62 1.43-1.27.78-2.57 1.44-4.1 1.48-.68.02-1.37-.05-2.04.07a3.12 3.12 0 0 1-3.09-1.01 48 48 0 0 0-2.79-6.91c-.89-2.25-1.86-4.48-2.87-6.68-.38-.82-.79-1.63-1.2-2.44a95.28 95.28 0 0 1-1.53-4.89c-.48-1.7-.85-3.42-1.5-5.07l-.16-.37c.04-.4-.16-.85-.35-1.35-.37-.96-.44-2.02-.76-3-.62-1.89-1.37-3.75-1.99-5.64-.44-1.35-.75-2.73-1.12-4.1l-.43-1.62v-.04l-.02-.04-.04-.13 3.9-.38c1.74-.17 3.48-.3 5.21-.52 1.27-.16 2.52-.46 3.79-.64.37-.05.77.15 1.15.12 1.47-.09 2.93-.21 4.4-.34.4-.04.78-.22 1.18-.25 3.09-.2 6.19-.36 9.28-.59.26 4.38 1.69 8.61 3.08 12.81.07.52.16 1.03.3 1.53.31 1.09.61 2.17.89 3.26Zm-14.6-90.02a49.91 49.91 0 0 1 1.64 4.48c.48 1.55.77 3.16 1.28 4.7.54 1.64 1.23 3.24 1.85 4.86l1.57 4.23c.43 1.15.92 2.28 1.31 3.44.79 2.34 1.53 4.7 2.3 7.05.45 1.38.98 2.73 1.33 4.13.58 2.35 1.57 4.56 1.51 7.11-.08 2.9.36 5.81.59 8.71l.38 4.45a36.83 36.83 0 0 0-.22 4.92c.04 1.04.14 2.08.33 3.11.07.38.17.75.28 1.13.02 1.52-.27 2.99-.82 4.44a1.3 1.3 0 0 1-.47.59c-.56.37-1.12.72-1.71 1-1.71.51-3.7.57-5.09.48-2.11-.12-4.19-.32-6.3-.25-2.2.07-4.39.32-6.58.62-3.21.43-6.42.92-9.63 1.41l-1.09.11c-2.4.26-4.79.52-7.18.84-.49.07-.98.16-1.48.25l-4.54.01c-.44 0-.88.03-1.31.04a6.68 6.68 0 0 0-2.95.16c-2.04.16-4.07.38-6.11.62-3.42.4-6.85.78-10.26 1.28l-1.57.26c-1.39.04-2.78-.03-4.16.13-1.65.19-3.28.61-4.91.93-.96.19-1.92.41-2.88.61-2.09.44-4.18.88-6.27 1.3-.26.05-.53.04-.79.05-4.49.23-8.98.46-13.47.71a81.24 81.24 0 0 1-3.5-.33 7.27 7.27 0 0 1-2.84-1.07c-.39-.24-.76-.45-1.01-.84-.24-.36-.4-.78-.56-1.19-.11-3.26.43-6.53 1.46-9.67 1.49-4.56 4.67-8.47 5.69-13.17.5-2.3.6-4.66.91-6.99.06-.46.16-.9.26-1.35l.18-.63.1-.53c.44-1.6 1.02-3.14 1.55-4.75 1.59-4.81 1.11-10.28 1.56-15.28.54-5.99 1.45-11.93 2.68-17.82 1.69.89 3.46 1.67 5.33 2.07 1.39.3 2.81.42 4.22.5h.03c2.95.75 5.96 1.01 9 .98a94.5 94.5 0 0 0 19.09-.67c3.54-.28 7.03-.76 10.48-1.55l2.02-.27c3.4-.45 6.75-1.09 9.95-2.35.95-.37 1.76-1.08 2.69-1.53 1.64-.79 3.37-1.41 4.99-2.26 2.01-1.06 3.91-2.32 5.92-3.38.76-.4 1.68-.53 2.53-.74.14-.03.42.08.48.2.77 1.55 1.57 3.1 2.24 4.69Zm50.55-154.37-.26.88c-.81 3.03-1.07 6.13-1.42 9.23-.34 2.96-.8 5.9-1.02 8.88-.21 2.79-.58 5.56-.87 8.34l-.13 1.56c-.2 1.85-.36 3.71-.51 5.56-.56 1.88-.9 3.84-1.19 5.83a43 43 0 0 0-.37 1.54c-.18.84-.14 1.73-.24 2.59l-.07.59c-.65 4.08-1.65 8.04-4.43 11.31-.16.19-.34.36-.52.54-.24.16-.48.31-.71.48-1.31.93-2.59 1.89-3.87 2.85-.09.17-.21.33-.4.46-2.76 1.92-5.05 4.37-7.52 6.64-1.1 1.01-2.27 1.95-3.43 2.9l-.02.03c-.57 1-1.61 1.72-2.39 2.61-.93 1.07-1.78 2.21-2.72 3.27-1.64 1.83-3.32 3.63-4.99 5.44-.9.98-1.84 1.93-2.7 2.95-.77.91-1.43 1.9-2.17 2.82-.18.23-.49.46-.75.47-.16 0-.39-.38-.49-.64-.71-1.81-1.41-3.62-2.08-5.44-.77-2.07-1.47-4.17-2.28-6.23-.32-.8-.88-1.49-1.3-2.25-.25-.45-.51-.91-.65-1.4-.36-1.27-1.66-1.97-2.8-1.41-.16.08-.33.44-.29.62.33 1.17.55 2.41 1.11 3.46 1.17 2.21 1.68 4.59 2.29 6.97.31 1.23 1.02 2.35 1.48 3.55.3.78.39 1.65.72 2.42.68 1.6 1.7 3.1 2.15 4.75.67 2.43 1.17 4.94-.11 7.43-.68 1.33-1.01 2.84-1.56 4.24-.66 1.66-1.39 3.28-2.1 4.92-.06.14-.14.27-.17.41l-1.15 4.67c-.33-.05-.67-.1-1-.17-.46-.15-.92-.36-1.4-.39-.11 0-.23 0-.34.02a54.57 54.57 0 0 1-7.92-2.75 324 324 0 0 0-3.93-1.6l-.1-.04-.06-.02-2.08-.82c-1.74-.81-3.38-1.83-5.12-2.64-.32-.15-.62-.31-.93-.48-1.23-.77-2.45-1.56-3.67-2.36a1.37 1.37 0 0 0-.54-.35 60.13 60.13 0 0 0-5.61-3.26 25 25 0 0 0-.91-.4l-.79-.46-1.28-1.08a74.18 74.18 0 0 0-7.94-6.16c-.92-.89-2.08-1.53-3.06-2.37-1.5-1.28-2.94-2.62-4.39-3.97-2.6-2.42-5.21-4.84-7.75-7.31-1.17-1.14-2.2-2.43-3.31-3.64-1.68-1.83-3.38-3.63-5.05-5.47-1.78-1.97-3.56-3.93-5.26-5.97-.95-1.14-1.73-2.41-2.76-3.88.87.04 1.53-.09 2.06.13 1.21.5 2.34 1.2 3.53 1.75 1.17.54 2.38 1 3.57 1.48 1.67.67 3.34 1.34 5.03 1.98 1 .38 2.02.71 3.05 1.01 1.38.41 2.76.88 4.18 1.12.94.16 1.87.25 2.8.23a9.8 9.8 0 0 0 1.84-.67c2.22-1.05 4.53-1.89 6.77-2.91 2.78-1.26 5.51-2.58 8.24-3.93.21-.02.43-.09.65-.23 1.26-.8 3.05-.86 4.49-1.1a48.9 48.9 0 0 1 4.97-.63c3.38-.22 6.71.38 10.09.32.83-.02 1.65-.09 2.46-.22.76-.04 1.53-.16 2.27-.36.51-.02 1.02-.1 1.5-.29a5.3 5.3 0 0 0 2.01-1.15c.42-.43.78-.92 1.18-1.37.24-.28.5-.54.76-.8a31.63 31.63 0 0 0 3.53-3.79l1.17-.96c.37-.31.69-.71.9-1.14.89-1.76 2.65-2.63 3.97-3.95 1.69-1.69 3.48-3.29 5.25-4.89 1.24-1.12 2.51-2.2 3.78-3.28.41-.35.72-.36.95-.18l.02.07c.11 1.53.33 3.08 1.11 4.35.62 1.01 1.9 1.6 3.01.97 1.12-.63 1.13-1.91.85-3.01-.27-1.07-.57-2.08-.62-3.18-.06-1.19.03-2.39.13-3.58.2-2.34.35-4.69.77-7v-.02l.55-2.35a42.4 42.4 0 0 0 1.12-8.06l.03-.17.06-.22.1-.44c.19-.97.36-1.95.58-2.91.42-1.87.86-3.74 1.32-5.61.25-.99.68-1.95.82-2.96.12-.85.19-1.74.11-2.59l1.28-6.29c.43-2.13.88-4.25 1.39-6.36.35-1.43.76-2.85 1.12-4.28.16-.2.4-.38.6-.39 2.24-.15 4.43.1 6.59.72l.23.04c1.03.17 2.07.19 3.11.27 1.9.13 3.79.31 5.66.68l.88.19c.51.02 1.05.19 1.59.42.31.09.63.17.93.29.85.31 1.95.77 2.45 1.6l.36.1c-.07.36-.04.73.02 1.11-.7 4.73-1.39 9.46-2.05 14.2Zm3.62-30.19c-.73 2.2-2.02 4.19-2.32 6.57a6.7 6.7 0 0 1-1.2 3.18c-.33.42-1.55.24-2.36.17-.89-.08-1.77-.36-2.66-.52-1.18-.21-2.36-.37-3.54-.56-.33.1-.69.08-1.03-.08-.57-.27-1.28-.35-1.92-.46-.71-.11-1.35-.33-2.03-.54-.71-.22-1.46-.3-2.18-.45-.75-.15-1.49-.33-2.22-.57a1.47 1.47 0 0 1-.39-.21c-.57-.24-.7-.74-.71-1.87 0-1.06-.08-2.12.02-3.17.19-1.93-.68-3.54-1.4-5.21-1.02-2.38-1.73-4.85-1.3-7.44.27-1.6.69-3.25 2.15-4.44-.06 2.14.95 3.89 1.89 5.62.47.86 1.28 1.81 2.14 2.1 1.31.45 2.79.34 4.2.5.37.04 1 .09 1.06.27.21.72.73.83 1.3.85 1.12.04 2.03.64 3.03 1 1.55.56 3.22.77 4.81 1.23.89.26 1.71.73 2.58 1.06.3.11.66.08.99.09h1.97c-.32 1.05-.59 1.96-.89 2.87Zm5.07-11.94c-.5 1.36-1.21 2.64-1.83 3.95l-.04-.07a4.94 4.94 0 0 1-1.8 1.58c-.33.14-.65.28-1 .35-.32.06-.6.03-.89-.12a1.15 1.15 0 0 1-.53-.69 1.03 1.03 0 0 1 0-.55l.19-.58.39-1.22c.32-1.06 1.09-4.06-.6-4.34-.12-.08-.25-.13-.38-.19-.12.06-.25.11-.37.18l-.12.08-.1.07-.08.08-.05.08-.03.09v.04a1.86 1.86 0 0 0-.12.51l.02-.16-.02.2-.08.73v.24c-.05 1.31-.27 3.06-1.3 4-.34.32-.77.49-1.2.52-.17-.07-.35-.14-.51-.23a2.3 2.3 0 0 1-1.12-2.14c.02-.97.36-1.91.62-2.84.26-.92.69-1.89.03-2.73-.32-.41-.94-.11-1.08.29-.6 1.81-1.24 3.68-2.39 5.22-.85.49-1.96.5-2.74-.02a1.3 1.3 0 0 1-.52-.45c-.03-.04-.03-.09-.05-.14l-.1-.22c.01-.29.07-.59.14-.84.42-1.6 1.11-3.15 1.85-4.63a.64.64 0 0 0-.12-.75.64.64 0 0 0-.6-.19c-.66.14-1.09.6-1.44 1.13a11.12 11.12 0 0 0-.82.92l-.17.23-.33.46c-.47.67-.93 1.36-1.42 2.02-.08.11-.17.19-.27.27a1.2 1.2 0 0 1-.6.29c-.19.12-.4.22-.63.23-1.04.07-1.73-.82-2.02-1.7a6.98 6.98 0 0 1 .62-5.16 4.57 4.57 0 0 1 1.95-1.99 4.32 4.32 0 0 1 2.14-.42l-.04-.14.23.15.38.04c.28 0 .56-.02.83 0 1.25.09 2.39.53 3.58.85 1.24.34 2.52.53 3.76.83 1.23.3 2.43.65 3.68.84.63.1 1.26.19 1.89.31.19.03.39.06.58.06 2.11-.05 3.51.95 4.61 2.7.68 1.08.39 2.05.04 2.99Z"/>
    <path d="M223.24 99c-1.01-1.16-2.37-1.53-3.97-1.25-1.04.18-2.14.09-3.2-.03-1.07-.12-2.12-.55-3.19-.61-2.92-.16-5.84-.23-8.76-.26-1.76-.02-3.54.12-5.05 1.19-.22.16-.41.61-.39.92l-.05.1c-.13.37-.14.75-.07 1.13-.03.4.05.83.18 1.24.26.82.46 1.75.96 2.48a2.37 2.37 0 0 0 1.99 1.61c.03 0 .06.02.08.03l.69.12c.95.38 1.92.72 2.9 1.01 1.2.35 2.33.32 3.56.3l1.8-.04c.64.1 1.29.23 1.92.21 1.41-.05 2.81-.31 4.22-.42a6.76 6.76 0 0 0 2.84-.84c.62-.41 1.2-.92 1.71-1.53.32-.38.6-.79.88-1.21.28-.43.63-.87.78-1.36.15-.49.32-.95.52-1.4-.05-.53-.07-1.06-.35-1.39Zm-4.5 4.01c-.2.07-.4.12-.6.15-.13.1-.29.17-.49.21-2.35.46-4.82 1.19-7.24 1.08-1.2-.06-2.39-.28-3.59-.38l-1.44-.14c-1.43-.39-3-1.04-3.25-2.58v-.13c.17-.22.42-.42.58-.53.62-.44 1.18-.44 1.92-.5.82-.06 1.66-.16 2.49-.2.82.05 1.64.11 2.46.19l.16.03c.16.04.3.05.44.03l1.99.2c1.12.11 2.24.19 3.36.21.82.01 1.77.25 2.56-.05a.97.97 0 0 1 .69.03c.28.05.57.15.73.33.05.05.04.19.01.33.03.06.08.12.09.18.19.69-.24 1.3-.87 1.53ZM201.37 57.76l.01-.07c.04-1.21-1.06-1.92-2.16-1.97-1.29-.06-2.59.41-3.82.73-.86.23-1.68.32-2.52.35h-.11c-1.21-.05-2.42-.16-3.63-.11a19.6 19.6 0 0 0-5.08.15c-.71-.05-1.29.23-1.93.31-.86.1-1.32 1.29-1.06 2.37.22.94.98 1.4 1.9 1.24h.06l1.31-.06c.49-.02.97-.08 1.44-.15.53.01 1.07 0 1.63-.11 1.33-.25 2.68-.2 4.03-.36 1.24-.15 2.39-.37 3.65-.39 1.41-.02 2.84-.07 4.24-.25.27-.03.55-.1.8-.2l.5-.12c.61-.16.93-.8.74-1.37ZM167.12 89.71c-.13-.36-.36-.68-.57-1l-.94-.81c-.81-.47-1.59-.99-2.49-1.24a3.52 3.52 0 0 0-.79-.04c-.35.16-.7.35-.98.52-.51.3-.8.84-1.07 1.37l-.34.68c-.09.29-.16.6-.22.9v.03l-.01.06a6.95 6.95 0 0 0-.08 2.17v.03a12 12 0 0 0 1.09 3.06c.18.37.38.73.59 1.09.26.42.55.82.85 1.22l.3.41c.37.38.79.68 1.23 1 .21.09.42.26.65.32.32.08.81.21.97.05.24-.23.39-.63.43-.99a5.43 5.43 0 0 0-1.19-2.21c-.84-1.06-1.75-2.07-2.27-3.34-.47-1.14-.57-3.04.87-3.55.91-.32 1.62.22 2.12.93.26.19.52.36.79.48s.85.12.95-.03c.18-.29.24-.78.12-1.11ZM206.53 86.22a.7.7 0 0 0-.07.64 5.43 5.43 0 0 0 3.18.65c.91-.04 1.81 0 2.72-.03 1.37-.06 3.64-.23 4.3-1.67.27-.59.28-1.27.28-1.91 0-.34-.04-.68-.07-1.02-.1-.57-.28-1.12-.47-1.68l-.48-1.39c-.19-.33-.38-.67-.54-1.01-.22-.47-.43-.93-.72-1.36l-.5-.73h-.02c-.94-.8-1.6-.66-1.72.56 0 .09-.03.17-.05.24l.12.42c.08.27.11.55.18.83.14.56.3 1.12.41 1.69.06.29.11.57.15.86l.04.33a.42.42 0 0 1 0-.01l.06.31c.06.31.1.62.07.93l.1.77c.03.19-.28.58-.49.63-1.09.23-2.19.42-3.3.54-.63.07-1.36-.18-1.91.05-.52.22-.96.81-1.27 1.34ZM198.25 72.34c-.85.39-2.04.76-3.02 1.44-.97.67-2.02.73-2.9.39a19.68 19.68 0 0 1-3.99-2.26c-1.12-.78-.92-2.26.35-3.12.85-.58 1.76-1.08 2.67-1.56.99-.52 2.77-.11 3.65.59.7.56 1.63.82 2.35 1.36.86.65 1.01.69 1.72 1.51.46.53.59 1.66-.84 1.66ZM232.48 57.34l-.07-.13v-.12l-.08-.1-.23-.2c-.09-.09-.19-.16-.29-.23-.35-.27-.73-.5-1.09-.51l-.57.02a8.99 8.99 0 0 0-.71-.03c-1.35.02-2.72.07-4.06.18-.89.07-1.72.34-2.54.64-.91.25-1.81.53-2.74.72-.86.18-1.67.4-2.32.97-.41.2-.81.47-.93.94-.16.67.3 1.16.86 1.42 1.39.64 2.92.67 4.39.36.71-.15 1.42-.37 2.12-.56l.17-.05c1.95-.24 3.89-.52 5.79-1.01 1.04-.27 2.88-.84 2.3-2.32ZM221.96 72.38l.14.08c-.07-.06.07.05.09.06l.17.09c.11.05.24.08.36.12.27.08.56.13.84.17.6.08 1.22.1 1.82.17l1.23.13c.58-.13 1.17-.29 1.74-.45.27-.08.62-.37.67-.62.6-2.86-.91-5.25-3.99-5.11l-.2-.01c-.21.03-.43.05-.64.1-1.08.23-2.07.68-3.14.91-.97.78-1.19 1.84-.51 3.03.28.49.81.85 1.41 1.35Z"/>
  </g>
</svg>
