<svg xmlns="http://www.w3.org/2000/svg" viewBox="0 0 393 393">
  <defs>
    <style>
      .f{fill:#8c705d}.g{fill:#2b2b2b}.h{fill:#3b7477}.i{fill:#78bdd5}.j{fill:#4d8ca3}
    </style>
  </defs>
  <g id="b">
    <path class="j" d="M335.95 175.39c-.53-1.25-1.74-1.78-3.05-1.54-4.85.86-9.8.69-14.69.52a26.41 26.41 0 0 1-6.55-.98c-2.32-.66-4.66-1.14-7.03-.42-1.48.45-2.63 2.38-1.6 3.83 1.47 2.07 2.96 4.13 4.41 6.22 1.19 1.73 2 3.63 3.08 5.43 2.23 3.73 7.16 6.85 11.62 5.6a2.44 2.44 0 0 0 1.54-1.18c1.23-.77 2.05-2.46 2.78-3.82 2.12-3.97 4.17-8.32 8.41-10.4 1.15-.57 1.57-2.12 1.09-3.24ZM167.74 188.49c-2.73 1.34-6.19 1.07-9.14 1.1-3.36.04-6.69-.1-9.92-1.07-2.8-.84-4.64 3.44-1.97 4.78.36.18.28.18.57.57l1.25 1.68 2.37 3.18c1.35 1.82 3.07 3.66 3.53 5.94.28 1.38 1.87 2.21 3.18 1.87.43-.11.79-.33 1.08-.6 1.13.27 2.48.18 3.53.17 2.03-.03 2.96-1.27 3.86-2.9.68-1.24 1.36-2.48 2.01-3.74a57.68 57.68 0 0 0 3.47-8.04c.77-2.3-1.94-3.86-3.82-2.93Z"/>
    <path class="h" d="M213.52 130.81c-2.1.27-3.71-.89-5.65-1.38a5.93 5.93 0 0 0-5.69 1.32 2.23 2.23 0 0 0-.62 2.62 7.9 7.9 0 0 0-2.16 2.01c-.94 1.27-1.53 2.71-2.3 4.08a23.32 23.32 0 0 1-2.7 3.77c-2.06 2.39-4.38 4.54-6.49 6.89-2.06 2.29-3.82 5.04-6.52 6.63-2.56 1.5-.9 5.44 1.96 4.78 3.94-.9 7.82-2.02 11.62-3.38 1.87-.67 3.84-1.27 5.4-2.56 1.4-1.16 2.45-2.78 3.47-4.26 3.65-5.31 6.42-11.72 11.64-15.74 2.37-1.82 1.04-5.17-1.96-4.78ZM175.8 157.37a44.21 44.21 0 0 1-13.72-12.04 1.85 1.85 0 0 0-.19-.37 84.22 84.22 0 0 1-8.33-15.97c-.49-1.27-1.73-2.32-3.18-1.87-.17.05-.34.13-.5.22-2.34-.8-5.15-.19-7.26 1.28-2.13 1.48-1.03 4.54.86 4.92l.1.24a80.18 80.18 0 0 1 4.13 10.06c1.26 3.52 3.4 7.16 7.36 7.99.3.06.6.07.9.04.72.58 1.45 1.13 2.23 1.62 2.38 1.5 5.15 2.45 7.39 4.18.67.52 1.48.79 2.25.69a56.7 56.7 0 0 0 5.38 3.54c2.9 1.68 5.49-2.84 2.58-4.53Z"/>
    <path class="i" d="M329.41 169.18c-1.8.08-3.62-.58-5.44-.79-.21-.28-.5-.53-.89-.73l-.84-.43a2.59 2.59 0 0 0-.6-.97 2.59 2.59 0 0 0-1.16-.66l-.98-.36a2.23 2.23 0 0 0-1.23-.01l-2.05-.49a2.73 2.73 0 0 0-1.98.26c-.16.09-.32.22-.47.36a8.5 8.5 0 0 0-4.82 2.35l-4-.17c-3.36-.15-3.38 5.07-.03 5.22l9.4.41.69.1c1.49.28 2.91.82 4.4 1.09 3.23.58 6.69.15 9.95.05 3.34-.16 3.4-5.32.03-5.22ZM329.6 230a13.28 13.28 0 0 0-3.32-4.13c-1.42-1.26-2.88-2.57-4.68-3.24-1.84-.68-4.11-.29-6.03-.23-1.07.03-2.22.04-3.14.66-.92.62-1.45 1.58-1.99 2.52-.43.74-.84 1.5-1.18 2.29-.44 1.01-1.03 2.3-.99 3.43.13 3.48 4 3.35 6.56 3.44 1.07.04 2.15.03 3.22-.01.97-.04 2.24-.21 2.96-.05.68.16 1.41.04 2.01-.3.83.22 1.68.38 2.56.44a6.2 6.2 0 0 0 3.16-.53c1.66-.86 1.52-2.86.85-4.29ZM168.9 183.83l-5.95-2.39c-1.87-.75-3.69-1.5-5.71-1.72-2.06-.23-4.09.26-6.09.69l-6.29 1.37c-3.06.66-2.12 5.07.66 5.11a2.41 2.41 0 0 0 2.21 1.38c6.83.13 13.65.37 20.48.7 1.29.06 2.43-1.03 2.58-2.26.17-1.39-.65-2.36-1.89-2.86ZM167.06 239.19a64.74 64.74 0 0 1-4.83-6.97 2.62 2.62 0 0 0-3.24-1.09c-.26.11-.5.27-.72.46-.14-.02-.27-.05-.41-.06-1.79-.18-3.63.59-5.11 1.54a14.78 14.78 0 0 0-5.86 7.38c-.48 1.28.56 2.91 1.84 3.19 1.08.24 2-.12 2.62-.86.46.41 1.04.68 1.71.71l6.94.33 3.47.16c1.3.06 2.7-.02 3.61-1.1.98-1.18.93-2.51-.03-3.69Z"/>
    <path class="h" d="M225.67 378.23c-2.48-3.6-5.2-6.4-8.42-9.33-2.58-2.35-3.5-4.99-7-5.86-6.07-1.51-16.67-1.02-22.31 2.06-.28.15-.56.32-.83.5-2.42-1.35-6.24-.19-5.94 3.21.09.96-.28 1.93-.29 2.91-.01 1.25.36 2.47.43 3.72.12 2.25-.21 4 .89 6.11a3.36 3.36 0 0 0 3.15 1.96c.07.04.13.1.21.14.84.45 1.66.56 2.4.45.61.49 1.42.78 2.46.72 10.6-.68 21.21-.72 31.83-.71 2.78 0 5.14-3.36 3.41-5.87ZM148.91 370.12c-.55-2.79-.55-7.1-2.98-8.98-2.33-1.81-6.86-1.25-9.54-1.36-5.12-.22-10.24-.27-15.36-.22-2.91.03-4.15 2.65-3.7 4.85-.31.57-.5 1.2-.52 1.79-.1 4.16-1.78 6.84-3.52 10.41-.57 1.17-.8 2.74.01 3.89 2.88 4.07 7.42 3.05 11.96 2.97 6.58-.12 13.11-.11 19.64.86 1.9.28 4.45-.49 4.79-2.77.6-4.03.02-7.48-.77-11.45Z"/>
    <path d="m218.65 271.08-47.81-.96-23.26-.47c-7.7-.15-15.73.28-23.31-1.25-2.11-4.34-9.69-1.97-8.46 3.35 1.6 6.96.49 14.52.21 21.59-.27 6.64-.66 13.29-.79 19.93-.25 12.64 1.27 25.42 2.09 38.02a4.49 4.49 0 0 0 1.31 2.97c-.26 1.75.52 3.55 2.78 3.99 6.61 1.27 13.81 2.36 20.54 1.5.71-.09 1.35-.23 1.94-.41.49.24 1.07.39 1.75.39 3.09 0 4.29-2.93 3.61-5.2.62-1.15 1.18-2.44 1.81-3.85 4.93-11.1 8.11-22.92 14.44-33.31 6.51 11.31 8.44 24.44 13.4 36.46 1.96 4.74 3.94 11.26 10.07 10.79 3.62-.28 7.03-1.44 10.72-1.57 2.52-.09 5.2.33 7.51-.99 5.09-2.91 4.67-10.61 5.05-15.58.6-8.04.77-16.13 2.19-24.08 1.26-7.11 4.07-13.78 4.86-20.99.91-8.37 1.51-16.44 3.75-24.6a4.6 4.6 0 0 0-4.38-5.74Z" style="fill:#89c9ca"/>
    <path class="i" d="M130.08 239.34c-.07-.01-.07-.01 0 0Z"/>
    <path d="M295.26 196.69c.23-2.84-2.19-5.63-4.83-6.33-11.17-2.95-22.51-6.42-33.21-10.79-4.34-1.77-7.04-4.73-10.39-7.93-3.05-2.91-4.64-6.28-8.48-7.71-4.56-6.56-10.03-12.51-14.19-19.39a6.32 6.32 0 0 0-3.03-2.68c-2.39-4.12-8.66-5.78-10.94-.32-2.35 5.63-7.18 12.84-12.57 16.06-5.45 3.25-12.41 2.39-17.99 5.93-.13.08-.23.18-.35.27-5.89-.84-12.42-3.77-16.24-5.65a107.24 107.24 0 0 1-9.82-5.51c-4.53-2.86-6.1-5.84-7.65-10.91a6.82 6.82 0 0 0-1.58-2.67c-1.65-5.44-2.35-11.84-9.42-11.67-7.81.18-16 8.01-20.93 13.38-6.65 7.25-11.67 15.85-18.64 22.81-2.69 2.68-5.69 4.95-7.98 8-2.51 3.35-3.34 7.64-5.57 11.08a15.1 15.1 0 0 0-1.76 2.42 5.73 5.73 0 0 0-.77 3.82c-1.93 3.21-3.39 6.63-2.95 10.22.76 6.14 5.98 9.62 10.73 12.84a175.51 175.51 0 0 0 29.12 15.79c-.06.23-.1.48-.14.73-1.46 10.36-1.27 20.57-.73 30.99.17 3.18 1.97 5.23 4.83 6.33 12.96 4.99 26.38 2.95 39.89 2.81 6.7-.07 13.21 1.14 19.88 1.48 6.13.31 12.32.07 18.47-.07 1.54.25 3.08.47 4.62.63 4.9.51 9.5.27 14.03-.8 2.11.42 4.35-.04 5.79-1.73l-.75.22v-.03c.53-.21 1.07-.4 1.62-.63 4.23-1.8 3.96-6.91 1.47-9.93.33-7.55-.05-15.5 1.76-22.52.94-3.64 1.97-6.94 2.07-10.75.12-4.78-.94-9.31.39-14l.06-.26c10-.23 18.56 4.21 28.29 5.73a599.55 599.55 0 0 0 30.15 3.8c3.28.34 6.85-3.22 6.55-6.48-.27-2.97 1.11-5.07 1.54-7.95.43-2.93-.58-5.72-.35-8.65Zm-125.61-12.17c5.03 4.49 2.08 8.71-.3 13.59a4.49 4.49 0 0 0-1.63 5.19c1.18 3.91 3.46 7.07 3.32 11.28-.09 2.68-1.25 11.51-4.18 13.04-3.22 1.68-3.14 5.79-1.05 8.23 1.21 1.42 3.44 4.92 2.21 6.9-.96 1.53-7.34 1.32-8.83 1.28-4.87-.15-9.27-.79-12.63-3.94.11-.13.24-.25.34-.38 4.57-1.89 3.93-10.03-2.01-10.03-.28 0-.52.04-.78.08a7.47 7.47 0 0 0-1.4-.4c-1.76-.77-3.72-1.1-5.51-1.8-1.55-.61-3.18-.87-4.81-1.18.55-1.96 1.05-3.93 1.54-5.91 1.32-4.86 2.28-9.76 2.98-14.75l.09-.54h-.01l.2-1.38c1.79-.34 3.45-.2 5.54.14 4.87.8 9-4.83 5.01-8.75-2.95-2.89-7.22-9.44-3.8-13.2 3.54-3.89 8.59-3.7 13.26-2.63 4.15.96 9.21 2.26 12.46 5.15Z" style="fill:#8acbe0"/>
    <path class="f" d="M241.13 53.27c.06-5.09-3.48-7.46-6.88-10.78-3.08-3.01-5.61-5.79-10.23-5.06-5.68.89-10.44 3.41-16.48 2.42-9.45-1.55-14.81-8.43-24.79-3.46-8.26 4.12-14.11 9.56-13.62 19.16.23 4.55.56 9.58 2.04 13.92 1.75 5.14 4.98 10.43-.46 13.66a62.26 62.26 0 0 1-5.05-10.02c-1.69-4.33-7.13-4.45-8.82-.03-2.61 6.81-.91 11.96 2.21 18.08 2.06 4.04.43 9.62-.1 14.02-.55 4.65-1.23 8.69-3.41 12.9-3.4 6.57-2.51 11.29 1.73 17.4 4.72 6.8 10.57 12.86 15.99 19.1.29.33.59.58.9.79-.12 2.83 4.26 4.74 6.15 1.7 3.09-4.94 7.59-8.75 11.54-12.97a48.62 48.62 0 0 0 5.63-7.08c1.57-2.47 2.72-5.19 4.98-7.12.27-.23.46-.52.61-.83 7.92.69 15.9 1.21 22.05-4.83 6.29-6.18 9.05-14.31 8.75-22.92-.42-11.95 2.34-21.94 4.85-33.4 1.02-4.65 2.35-9.84 2.4-14.65ZM164.91 206.37a35.18 35.18 0 0 1-9.07 1.92l-1.57.01-.32-2.37c-.42-3.08-4.36-4.06-6.7-2.8a4.43 4.43 0 0 1-3.43.72 4.8 4.8 0 0 0-5.55 5.63c-1.65 4.15-1.91 9.03-2.68 13.31-.79 4.36 4.1 6.79 6.96 5.17.15.07.3.13.46.18 6.83 2.07 13.94 4.34 20.85 1.04 6.75-3.22 6.04-12.04 6.76-18.38.33-2.85-3.12-5.3-5.71-4.44ZM326.19 203.16c-.39-3.76-1.94-7.18-6.28-7.26a6.24 6.24 0 0 0-4.36 1.6 14.2 14.2 0 0 0-1.92-4.29 11.66 11.66 0 0 0-5.35-4.13c-2.79-.94-4.93.79-7.69.69-3.25-.12-4.81 2.93-4.44 5.71.4 3.07 1.14 6.31 1.17 9.4.01 1.98-.62 3.74-.49 5.65-5.48 1.42-3.16 10 2.5 8.77 7.92-1.72 16.58 2.79 24.54 1.38a4.48 4.48 0 0 0 3.26-3.24c.98-4.25-.47-9.94-.92-14.28Z"/>
    <path class="g" d="M181.03 32.14c-.8-1.39-3.03-2.25-4.45-1.19a41.6 41.6 0 0 0-8.97 9 26.12 26.12 0 0 0-3.24 5.64c-.83 2.09-1.03 4.25-1.36 6.45-.68 4.56-1.75 8.96-.27 13.49 1.45 4.45 3.31 8.81 4.97 13.19.62 1.64 2.14 2.81 3.98 2.33 1.56-.41 2.96-2.32 2.33-3.98-1.5-3.94-3.02-7.88-4.49-11.84a13.64 13.64 0 0 1-1.08-5.14c.04-1.95.46-3.85.77-5.77.29-1.8.4-3.65.88-5.41.48-1.76 1.51-3.34 2.54-4.83a32 32 0 0 1 7.21-7.48c1.41-1.05 2.15-2.8 1.19-4.45Z"/>
    <path class="g" d="M239.5 30.02a107.38 107.38 0 0 0-6.31-5.76c-2.29-1.91-4.76-2.99-7.46-4.17-2.68-1.17-4.7-3.01-7.09-4.63-2.48-1.68-5.26-2.83-8.03-3.92-2.85-1.12-5.83-2.42-8.95-2.34-3.23.08-6.14 1.77-8.98 3.13l-17.61 8.44-.11.04c-4.98 2.24-9.66 5.05-14.37 7.79l-7.2 4.18c-2.19 1.27-4.4 2.65-5.81 4.82a11.01 11.01 0 0 0-1.53 6.96c.25 2.81 1.34 5.46 1.62 8.25.26 2.72.02 5.54-.12 8.27-.15 2.95-.39 5.9-.7 8.84-.07.66.14 1.29.52 1.82-.9 3.79-1.37 7.64-.56 11.54a17.38 17.38 0 0 0 3.77 7.49c1.23 1.51 3.21 3.19 3.28 5.27.14 4.19 6.66 4.23 6.52.03-.1-2.99-1.46-5.41-3.3-7.68-1.38-1.71-2.94-3.23-3.61-5.38-.18-.58-.31-1.16-.41-1.75.6-.58.97-1.4 1.07-2.34l.03-.3.06-.42a28.76 28.76 0 0 1 .95-3.91c.13-.41.28-.82.43-1.23l.06-.16c.06-.17.15-.34.22-.51l.49-1.03a3.3 3.3 0 0 0 2.11-.93l.32-.3.13-.11.43-.25.44-.25.16-.06.42-.13c.27-.08.54-.13.81-.19l.31-.02.87.02c.09.02.19.03.28.06 1.04.22 1.98.06 2.82-.59.73-.57 1.39-1.55 1.28-2.54a5.27 5.27 0 0 0-2.99-4.47c2.34-5.46 3.25-11.4 3.9-17.31 3.58-.71 6.85-3.11 9.69-5.46.66-.55.94-1.38.92-2.23.33 0 .68-.03 1.06-.15a59.12 59.12 0 0 1 9.28-2.22c1.25-.19 2.54-.38 3.81-.38 1.39 0 2.44.61 3.65 1.22 5.13 2.6 10.87 4.43 16.68 4.18 3.1-.13 5.93-.87 8.79-2.05 2.28-.94 4.29-1.32 6.69-.49 5.16 1.79 7.99 7.16 10.52 11.61 1.56 2.76 6.17 1.65 6.08-1.61-.16-5.67-1.12-12.55-5.36-16.7Z"/>
    <path d="M219.06 100.08c-.49-1.6-2.25-2.91-3.98-2.33-.37.12-.75.21-1.13.28-.66.05-1.33.04-1.99-.02a25.36 25.36 0 0 1-4.33-1.22 3.27 3.27 0 0 0-2.35.27 6.89 6.89 0 0 1-.42-.14c-.55-.24-1.11-.49-1.68-.69-.57-.2-1.14-.35-1.72-.51a2.73 2.73 0 0 0-1.98.26c-.55.32-1.07.95-1.21 1.58a2.65 2.65 0 0 0 1.84 3.19c.7.19 1.39.39 2.06.64.66.29 1.31.6 2.01.79l.36.07c.39.36.84.63 1.39.83 3.42 1.22 7.21 2.15 10.78.97a3.46 3.46 0 0 0 2.01-1.54 3.3 3.3 0 0 0 .32-2.44Z" style="fill:#fff"/>
    <path d="M327.43 192.71c.86-1.77 1.69-3.58 2.74-5.24 2.11-3.35 4.05-6.8 6.98-9.62 2-1.93 1.95-4.44.14-5.74a21.97 21.97 0 0 0-5.71-3.18 25.41 25.41 0 0 1-8.18-4.24c-3.97-3.19-8.18-3.09-12.53-.76-1.27.68-2.61 1.53-3.98 1.69a14.02 14.02 0 0 0-6.82 2.71 4.3 4.3 0 0 0-1.05 1.08c-.57.89-.53 1.84-.53 2.86 0 .46-.04.97-.03 1.46.23.69.57 1.34 1.04 1.96 1.32 1.74 2.82 3.35 4 5.17.46.72 1.01 1.33 1.58 1.89 1.02 1.61 2.06 3.2 3.12 4.77-.49-.08-.95-.18-1.45-.21a11 11 0 0 0-1.72.06c-1.1.12-2.27.46-3.33.89a.68.68 0 0 1-.42.03c-.14.03-.27.08-.41.1-2.75.37-5.4 1.19-8.32-.02-2.54-1.06-5.45-1.2-8.18-1.84-2.3-.54-4.67-.95-6.82-1.86-5.1-2.14-9.95-4.83-15.4-6.17a31.78 31.78 0 0 1-3.02-.91 16.4 16.4 0 0 1-1.92-.6c-.17-.03-.34-.05-.5-.09-2.37-.56-4.77-1.58-6.33-3.4a7.92 7.92 0 0 1-.53-.48c-.21-.14-.39-.37-.55-.53-1.74-1.84-3.41-3.75-5.13-5.61-.9-.97-2.08-1.77-2.71-2.89-1.84-3.23-4.49-5.8-6.69-8.73-.78-1.04-1.13-2.43-1.96-3.42a1100 1100 0 0 0-13-15.11c-1.75-2-1.76-3.78.43-5.23 2.95-1.95 5.09-4.68 7.3-7.32 1.44-1.72 2.79-3.51 4.16-5.28l.29-.51c.32-.56.69-1.11 1.06-1.65a31.77 31.77 0 0 0 1.8-4.01c.74-2.15.6-4.55.59-6.8 0-2.35-.08-4.7-.14-7.04-.1-4.63-.1-9.28.7-13.85.84-4.82 2.38-9.53 3.69-14.23l.75-2.57c.21-1.81.49-3.62.98-5.37.28-.98.68-1.95.98-2.94.1-.86.16-1.73.15-2.6 0-.32.13-.53.32-.68.15-.31.5-.44.84-.4l.07-.04h.06c2.66-1.23 2.95-3.5 2.74-6.05-.37-4.65-.83-9.3-1.03-13.95a7.63 7.63 0 0 0-2.91-5.89c-3.18-2.71-6.26-5.55-9.4-8.31-.54-.47-1.15-1.14-1.78-1.19-3.32-.29-5.61-2.52-8.21-4.15-2.15-1.35-4.08-3.21-6.39-4.12a32.27 32.27 0 0 1-8.3-4.78c-1.09-.41-2.17-.88-3.31-1.21-.49-.14-.98-.24-1.48-.31l-.12-.01h-.03c-.85-.06-1.69 0-2.51.11a452.33 452.33 0 0 1-6.77 3.04c-2.58 1.13-5.2 2.16-7.77 3.3-2.24.99-4.46 2.03-6.64 3.15-1.44.74-2.74 1.75-4.18 2.47-3.63 1.84-7.38 3.44-10.94 5.4-5.63 3.1-11.16 6.39-16.7 9.65-1.25.74-2.22 1.62-2.38 3.39a38.6 38.6 0 0 0-.09 6.8c.27 3.06.42 6.14.4 9.2-.01 1.43-.73 2.84-.81 4.27-.3 5.07-.55 10.13-1.23 15.17-.45 3.33-.57 6.71-.71 10.07-.1 2.46-.13 4.96 1.78 6.93 1.46 1.5 2.97 2.96 4.37 4.52a172.9 172.9 0 0 1 5.13 6.01c.75.91 1.34 1.95 2.15 3.14l-.06.08c.9 1.43.3 4.01.1 5.41-.4 2.8-.39 5.59-1.15 8.34-.4 1.46-.65 3.22-1.8 4.31-.98.93-2.38 1.36-3.59 1.91a19.19 19.19 0 0 1-4.29 1.51c-1.67.32-3.37.25-5.06.42-1.68.16-3.32.39-4.98.71-.61.12-1.22.21-1.83.26l-.41.08c-2.25.29-4.41.58-6.61 1.16-2.92.76-6.18 1.58-8.44 3.58l-.16.23c-.78 1.1-1.6 2.18-2.35 3.31-1.55 2.33-2.85 4.86-4.64 6.99-2.17 2.58-4.62 4.89-6.61 7.68-2.23 3.14-5.12 5.82-7.73 8.69-1.98 2.17-4.32 4.1-5.88 6.53a95.03 95.03 0 0 1-6.54 9.15c-3.22 3.94-6.14 8.14-9.05 12.32a18.03 18.03 0 0 0-2.67 5.17c-1.35 4.78-1.75 9.69.71 14.25 1.22 2.26 2.43 4.66 4.99 5.99 1.84.96 3.37 2.49 5.13 3.62 2.75 1.77 5.44 3.77 8.41 5.05 4.92 2.12 10.07 3.73 15.1 5.61 1.94.73 3.82 1.63 5.53 2.37-.19.94-.52 1.57-.4 2.11.81 3.46.62 6.97.58 10.47-.02 1.46-.16 2.92-.2 4.37-.1 3.47-.07 6.94-.27 10.4-.17 3.06-.04 6.02 1.37 8.82.18.35.21.81.2 1.22-.03 1.16-.18 2.31-.18 3.46 0 2.25.17 4.51.08 6.76-.08 1.91-.77 3.84-.58 5.69.48 4.56.33 9.09.19 13.66-.14 4.7.24 9.42.19 14.13-.04 3.75.05 7.45.57 11.18.92 6.6.93 13.25.7 19.9-.11 3.17.13 6.28.54 9.44.35 2.71.65 5.38 1.44 8.01.21.71.04 1.72-.33 2.38a23.4 23.4 0 0 0-1.65 3.77c-.74 3.49-2.34 6.74-3.37 10.14-.15.51-.33 1.03-.51 1.56l-.46.94a4.25 4.25 0 0 0-.46 2.19c-.09.42-.16.83-.19 1.24-.11 1.47.12 2.93.19 4.4.66 1.27 1.86 1.67 3.2 1.71 5.2.16 10.41.32 15.61.39 5.3.07 10.61.11 15.91.02 1.61-.03 3.22-.5 4.82-.77 1.86-.32 2.68-1.6 2.66-3.31-.04-3.1-.09-6.22-.43-9.3-.27-2.43-.59-4.98-1.58-7.16-1.1-2.42-.82-4.52.04-6.77a2654.95 2654.95 0 0 1 9.48-24.53c.63-1.61 1.3-3.21 2-4.79.95-2.13 1.95-4.23 3.02-6.56l.29.3c.44 1.22.86 2.44 1.26 3.68.34 1.05.83 2.05 1.37 3.02a58.68 58.68 0 0 0 2.64 6.43 27.87 27.87 0 0 1 1.42 3.22c1.15 3.36 2.22 6.74 3.35 10.11.37 1.11.9 2.18 1.17 3.31.95 3.97 1.82 7.95 3.75 11.58-.25.69-.65 1.35-.7 2.03a99.67 99.67 0 0 0-.22 7.33c.01 1.39-.01 2.74-.3 4.07-.1 1.68-.24 3.5.51 4.98a9.82 9.82 0 0 0 7.89 3.37c10.61-.18 21.23-.14 31.84-.19 2.2 0 4.4-.02 6.6.03 1.12.03 2.02-.3 2.49-1.31 1.07-2.3 1.25-4.61-.37-6.75a67.32 67.32 0 0 0-4.17-5.05c-3.14-3.4-6.4-6.68-9.54-10.08-.57-.62-1.2-1.57-1.14-2.31.41-5.32.87-10.65 1.52-15.95.06-4.49.99-8.91 1.69-13.34.68-4.24.71-8.56 1.69-12.74.19-1.98.39-3.96.61-5.94.88-7.79 1.26-15.69 3.82-23.18.62-1.8.07-3.51.43-5.24.4-1.92.66-3.9.77-5.86.18-3.19.46-6.29 2.43-9.02 2.18-3.02 2.01-6.7 2.46-10.18.21-1.62.35-3.26.35-4.89 0-3.19-.13-6.38-.15-9.57a44.3 44.3 0 0 1 .15-4.89c.37-3.52.99-7.02 1.27-10.55.39-4.99.56-10 .83-15 .09-1.6.38-2.07 1.95-1.91 2.26.23 4.61.44 6.7 1.25a69.42 69.42 0 0 0 23.15 4.9c3.09.09 6.16.75 9.24 1.14 1.44.18 2.88.36 4.33.49 2.91.26 5.81.52 8.72.72a93 93 0 0 0 6.25.26c1.89 0 3.85-.51 5.67-.17 3.75.69 7.46 1.46 11.31 1.15.26-.02.56.39.91.66-.98 2.12-2.02 4.14-2.87 6.24-1.54 3.84 0 6.34 4.12 6.46 4.02.13 8.03.4 12.04.66 1.36.09 2.76.14 4.07.48 1.72.44 3.22.25 4.65-.82.21-.67.54-1.36.61-2.06.27-2.61.19-5.34-2.12-6.96a9.3 9.3 0 0 1-2.34-2.52 1.04 1.04 0 0 1-.36-.51l-.64-.92.2-.03v-.06c.19-.06.39-.15.56-.33.3-.31.53-.63.72-.95l.06-.03c.08-.05.28-.23 0 0l.15-.12.25-.26.07-.11c.09-.25.16-.5.21-.75l.04-.25c.03-.44.02-.9 0-1.36.06-.91.03-1.85.07-2.81.07-1.45.45-2.83.4-4.29-.04-1.3-.28-2.59-.31-3.9-.03-1.28.33-2.52.31-3.79a9.02 9.02 0 0 0-.82-3.35l-.78-1.84-.32-1.25c-.31-1.23-.52-2.69 0-3.82 0-.22.03-.45.16-.7Zm-23.02-22.81c1.96-.9 4.02-1.52 6.06-2.2.74-.46 1.49-.91 2.28-1.25 2.77-1.18 5.62-1.62 8.45.56.63.48 1.31.88 2.02 1.26.54.22 1.08.45 1.62.71 1.91.92 3.82 1.49 5.82 2.18.91.31.94 1.59 0 1.88-.9.28-1.77.08-2.68.03-1.07-.06-2.14.06-3.21.07l-.45-.01-.43.1c-3.49.87-6.84-.19-10.24-.59-1.64-.2-3.27-.43-4.91-.66-1.38-.02-2.76.01-4.08-.3-.78-.19-1-1.43-.23-1.79Zm-147.6-72.8c-2.56-1.8-4.36-4.22-6.23-6.57a10.67 10.67 0 0 1-2.17-4.66 16.19 16.19 0 0 1-.63-5.04c0-.06.02-.11.03-.16-.08-1.93.02-3.91.12-5.81.41-8.17 1.72-16.45 1.08-24.65l-.06-.62a2.8 2.8 0 0 1-.05-.65c-.28-2.62-.79-5.3-.16-7.9.06-.24.14-.47.22-.7-.17-1.17.42-2.04 1.17-2.93 1.76-2.08 4.01-3.43 6.35-4.68 2.48-1.32 4.98-2.61 7.46-3.92.32-.17.66-.34.91-.6 3.38-3.39 8.07-4.33 12.15-6.39 4.12-2.09 8.39-3.84 12.21-6.51 1.38-.96 3.09-1.47 4.66-2.16 1.73-.76 3.54-1.39 5.21-2.27 2.22-1.16 4.16-1.54 6.61-.19 2.98 1.64 6.3 2.65 9.48 3.92.34.14.73.18 1.03.38 2.53 1.75 5.04 3.52 7.55 5.28 1.7 1.2 3.27 2.48 5.53 2.75 1.14.13 2.26 1.12 3.21 1.93 2.36 1.99 4.61 4.12 6.94 6.15 1.48 1.29 2.6 2.64 2.72 4.79.19 3.64.67 7.27.99 10.91.05.53-.08 1.07-.12 1.6l-.57.27c-1.36-1.53-2.7-3.07-4.07-4.59-.82-.91-1.55-1.85-2.65-2.56-1.43-.92-2.55-2.33-3.84-3.48-1.08-.97-2.12-2.02-3.33-2.8-2.74-1.77-3.39-1.87-5.75.26-2.41 2.17-5.27 1.97-8.05 2.15-3 .2-6.03.12-9.04-.04a6.92 6.92 0 0 1-3.33-1.09 43.75 43.75 0 0 1-6.3-4.82c-2.02-1.98-4.09-2.31-6.45-1.12-3.97 2-7.92 4.05-11.8 6.23-1.07.6-1.84 1.74-2.79 2.58a157.83 157.83 0 0 1-3.91 3.38c-.49.41-1.05.72-1.55 1.1-3 2.3-4.33 5.09-3.26 9.01l.04.22c-.26 4.07.32 8.14 1.38 12.1.7 2.62 1.59 5.19 2.51 7.75.19.52 1.65 4.93 2.26 6.76-.36.99-2 1.47-2.51.3-1.33-3.04-2.75-6.05-3.86-9.17a5.65 5.65 0 0 0-2.4-2.19 5.6 5.6 0 0 0-5.35.67c-1.75 1.2-2.75 3.18-3.83 4.94l-.3.5a27.1 27.1 0 0 0-1.13 3.83c-.44 2.19-.23 4.22.56 6.3 1.53 4 4.2 7.66 4.53 12.05.07.88-1.19.92-1.42.17Zm-1.33 27.48c.71-1.27 1.41-2.49 1.93-3.85.99-2.6 1.5-5.34 2.43-7.95l.07-.2c.34-2.34.61-4.7.88-7.05.19-1.6-.04-3.25.03-4.87.09-2.04.27-4.08.44-6.31-.05-.35-.12-.7-.23-1.05-.31-.97-.79-1.87-1.29-2.75-1.03-1.78-2.1-3.51-2.67-5.51a12.1 12.1 0 0 1-.36-1.87 7.89 7.89 0 0 1 .23-5.2c.25-1.38.6-2.76 1.19-4.01.53-1.12 1.37-2.46 2.65-2.82h.06l.02-.02h.04c.74-.15 1.39.1 1.92.54.39.34.72.77.97 1.22 1.18 2.11 1.56 4.69 2.65 6.83a10.18 10.18 0 0 0 1.49 2.03c.22.21.42.42.68.6a5.96 5.96 0 0 0 2.83 1.18c1 .07 2-.29 2.87-.76.18-.1.35-.2.51-.31.11-.17.21-.36.31-.54.32-.56.39-1.11.4-1.75 0-.25-.02-.48-.03-.72-.45-1.39-.49-2.91-1.07-4.26-.71-1.65-.94-3.51-1.57-5.21a23.09 23.09 0 0 1-1.11-4.02 40.78 40.78 0 0 1-1.44-5.89 30.78 30.78 0 0 1-.34-4.7c-.02-1.48.01-3 .53-4.4.16-1.51.52-2.96 1.88-4.14 1.48-1.28 2.6-2.8 4.62-3.59a20.68 20.68 0 0 0 6.14-3.97c1.52-1.37 3.54-1.38 5.08-2.54 1.85-.65 3.72-1.11 5.63-.82 1.55.24 2.89 1.1 4.18 1.95l.95.62c1.69 1.94 3.88 2.68 6.47 2.71 4.01.04 8.02.18 12.04.28 1.63.04 3.08.03 4.58-1.16 1.48-1.17 3.56-1.58 5.69-2.45 1.65 1.5 3.61 3.01 5.24 4.82 2.49 2.76 5.37 5.24 6.91 8.75.27.62.42 1.37.35 2.03-.14 1.42-.43 2.83-.72 4.24-.99 4.89-1.05 9.98-3.45 14.56-.57 1.09-.62 2.45-.93 3.68-1.79 7.15-3.89 14.21-2.84 21.79.55 3.96.34 8.03.27 12.05a7.74 7.74 0 0 1-1.14 3.61c-3.05 5.19-6.63 9.98-11.46 13.68a6.57 6.57 0 0 1-4.44 1.48c-1.13.3-2.28.18-3.46-.05-1.54-.3-3.08-.59-4.64-.85-3.57-.6-7.02-1.84-10.62-2.24a40.64 40.64 0 0 0-3.49-.25c-1.1.08-2.25.26-3.37.55-.38.23-.87.6-.87.95 0 .46.72.85 1.27 1.11.98.26 1.95.34 2.94.39 1.92.1 3.85.09 5.76.29.97.1 1.89.56 2.83.86-4.36 5.64-8.56 11.17-12.86 16.62-2.47 3.13-5.04 6.2-7.68 9.19-.88.99-2.12 1.66-3.35 2.59-.59-.59-1.12-1.04-1.56-1.57-4.97-5.86-10.62-11.12-15.3-17.24-1.28-1.67-2.58-3.34-3.68-5.12-.11-.18-.22-.4-.31-.62-.79-.96-1.38-2.1-1.86-3.25a5.55 5.55 0 0 1-.67-2.21 5.7 5.7 0 0 1 .85-3.13Zm59.94 7.5a36.2 36.2 0 0 1-4.36 6.59 82.94 82.94 0 0 0-9.91 13.68c-.45.79-.9 1.59-1.43 2.32-1.05 1.45-2.3 2.49-4.28 2.49-1.54 0-3.1.26-4.63.55-1.42.27-2.98.45-4.17 1.17-1.6.97-3.23.92-5.03 1.19.16-.48.17-.86.34-.96 3.3-1.91 4.83-5.42 7.26-8.11 3.05-3.37 5.95-6.87 8.79-10.42 1.81-2.26 3.38-4.7 5.05-7.07.16-.22.21-.52.36-.74 2.02-2.86 2.68-2.99 6.02-1.96 1.87.58 3.85.82 5.99 1.25Zm-71.15-3.17c.48-.81 1.47-1.2 2.31-1.51.85-.32 1.66-.4 2.48.03 1.62.84 2.37 2.82 3.24 4.31.52.88 1.25 1.63 1.84 2.47.27.39.51.8.74 1.22l.45.49c.3.33.78.59.92.98 1.49 4.15 5.11 6.78 7.37 10.36 2.46 3.9 6.36 6.45 9.1 10.06.77 1.02 1.59 2.01 2.58 3.26a47.58 47.58 0 0 1-9.39-3.68c-3.84-1.9-7.59-4.07-11.23-6.33a13.33 13.33 0 0 1-4.49-4.28c-1.19-1.95-1.75-4.23-2.52-6.37-1.05-2.9-2.23-5.75-3.52-8.55-.24-.82-.33-1.68.12-2.45Zm-27.04 128.68c.21-2.08.03-4.01-.54-5.98.26-7.23.45-14.47.57-21.7.89.29 1.67.54 2.45.76 3.25.87 6.46 1.99 9.77 2.51 3.48.55 4.89-.59 6.22-3.95.1-.24.24-.47.46-.9l12.89 4.8c-1.23 1.76-2.5 3.38-3.54 5.12-2.23 3.75-1.68 5.1 2.63 6.08 2.47.56 5.03.77 7.56 1.04 2.27.25 4.55.51 6.82.5 2 0 4-.32 5.99-.59.6-.08 1.2-.42 1.74-.74 1.55-.93 1.9-1.92 1-3.4-1.56-2.55-3.26-5.01-4.88-7.51-.44-.69-.83-1.42-1.33-2.28 2.44-1.14 4.21-2.7 4.52-5.72.05-.47.2-.94.41-1.41.26-1.32 1.13-2.61 1.64-3.86.61-1.49-.36-2.54-.38-4.02-.01-.79.35-1.46.52-2.21.18-.79 0-1.57-.16-2.34l-.01-.07a6.41 6.41 0 0 1-.39-2.37c.04-.86 0-1.97-.6-2.65-.36-.41-.85-.7-1.28-1.03a2.21 2.21 0 0 1-.64-.79 2.17 2.17 0 0 1-.31-1.19 5.64 5.64 0 0 1 1.1-3.16c1.05-2.97 3.28-5.45 4.66-8.27.82-1.67 1.02-3.32.15-5.02a15.3 15.3 0 0 0-.73-1.23l-.11-.07a4.23 4.23 0 0 0-.92-1.28c-1.2-1.07-2.72-1.9-4.1-2.71a50.58 50.58 0 0 0-7.08-3.4l-1.04-.75a29 29 0 0 0-5.89-.43c-2.26.41-4.6.27-6.8.89-1.5.42-2.97.97-4.43 1.54a12.39 12.39 0 0 0-2.97 2.25c-.25 1.1-.73 2.13-.95 3.2-.17.81.84 1.93 1.44 2.83 2.11 3.18 4.29 6.31 6.4 9.48.39.59.58 1.32.96 2.22h-.02c.48.5.32 1.49-.45 1.65a.88.88 0 0 1-.42.11h-.07l-.31.07-.83.23c-.66.19-1.31.39-1.98.52-.36.07-.74.1-1.13.11-.38.06-.76.08-1.13.02a2.3 2.3 0 0 1-1.29-.71c-.38-.19-.7-.49-.93-.94-1.24-2.38-3.43-3.47-5.69-4.47-4.23-1.88-8.49-3.69-12.73-5.52-.73-3.87 1.05-7.18 2.2-10.58.87-2.59 1.96-5.11 2.96-7.65.06-.84.02-1.67-.21-2.46-.37-1.27-1.79-2.01-2.92-1.1-.55.44-.92 1.09-1.26 1.68l-.34.63c-2.2 6.02-4.31 12.03-5.81 18.45-1.25-.2-2.4-.31-3.53-.58a83.97 83.97 0 0 1-6.09-1.63h-.06c-.27-.03-.55-.04-.83-.05-.3 0-.59 0-.89.03h-.11l-.08.02-.33.07-.25.08-.18.09-.07.05-.09.1-.06.1-.04.15-.01.19.01.2c0 .01 0 0 0 0v.03c.11.54.32 1.03.59 1.47a6.83 6.83 0 0 0 4.52 2.4c2.32.26 4.56 1.16 6.86 1.69 2.48.58 4.96 1.24 7.48 1.53 2.28.27 4.47.49 6.52 1.7 1.62.96 3.47 1.51 5.17 2.37 1.64.83 2.41 2.04 1.75 4.03-.39 1.18-.17 2.55-.38 3.81-.65 3.95-1.31 7.9-2.09 11.82-.4 2.03-.57 4.08-1.62 6.03-1.06 1.98-1.83 2.98-3.06 3.42-2.34.35-4.77-.42-6.96-1.35-2.94-1.25-5.84-2.61-8.75-3.92l-18.54-8.33c-5.22-2.35-11.19-4.46-14.57-9.38a17.37 17.37 0 0 1-2.8-12.76c.26-.55.55-1.09.94-1.63.94-1.3 1.4-2.95 2.14-4.4a50.07 50.07 0 0 1 5.99-9.06c1.56-1.89 2.91-3.94 4.38-5.91 2.27-3.04 4.5-6.11 6.86-9.08.97-1.22 2.22-2.23 3.35-3.33.26-.25.58-.46.76-.76 2.95-4.98 7.42-8.7 10.94-13.2 1.61-2.05 3.16-4.15 4.77-6.21 1.01-1.29 1.98-2.62 2.98-3.92 1.84-2.11 3.91-3.97 6.66-4.69 2.28-.6 4.59-1.09 6.88-1.62l.32-.06c1.92-.12 3.88-.07 5.9.31.36.87.8 1.83 1.16 2.82 1.09 3.08 2.11 6.19 3.22 9.26.95 2.64 1.81 5.33 3.07 7.82.6 1.18 1.89 2.18 3.09 2.85 2.62 1.45 5.4 2.6 8.08 3.93 1.87.93 3.77 1.82 5.5 2.96 3.36 2.21 7.12 3.27 10.94 4.17 2.25.53 2.31.47 2.45 2.84.16 2.89.84 5.91.25 8.65-.82 3.76-.02 7.38-.13 11.06-.11 3.65.21 7.32.43 10.97.13 2.09.54 4.17.63 6.26.2 5 .26 10.01.43 15.01.06 1.91.25 3.82.39 5.73.36 4.91.71 9.83 1.1 14.74.11 1.45.35 2.88.46 4.33.51 7.01-.04 13.99-.54 20.98-.1 1.38-.05 2.78-.03 4.32l-18.06-.66c-2.1-.4-4.4-.24-6.58-.31-3.29-.1-6.58 0-9.87-.09-1-.03-1.99-.1-2.98-.19l-.08-.02-1.32-.1c-.54-.05-1.07-.09-1.61-.12-.68-.04-1.41-.17-2.07-.11a46.14 46.14 0 0 0-5.76.07c-.4.03-.81.09-1.21.14-1.07-.23-2.13-.5-3.2-.71a6.46 6.46 0 0 1-2.02-.29c-1.23-.36-2.43-.83-3.65-1.23-1.18-.38-2.48-.63-3.45-1.45a3.04 3.04 0 0 1-.66-.78c-.79-1.04-1.01-2.63-.78-4.95Zm29.51-67.58.18.02a.86.86 0 0 1 .57-.49c1.36-.37 2.76.21 4.07.51a26 26 0 0 0 5.76.63c3.93.03 7.84-.09 11.67-1 .67-.16 1.47.47 1.2 1.2-.52 1.4-1.39 2.57-2.19 3.79l-4.03 9.41-8.17 1.55-7.48-12.91c-.47-.47-.82-1.01-1.26-1.55-.23-.29-.3-.67-.22-.99l-.1-.17Zm-1.05-4.38c-.53-.07-1.05-.17-1.56-.32-.73-.2-.93-1.1-.43-1.63 1.31-1.4 3.36-1.54 5.11-2 1.87-.49 3.75-.85 5.67-.96.59-.1 1.19-.19 1.79-.25a6.2 6.2 0 0 1 4.39 1.23c.59.25 1.18.52 1.77.83 1.8.96 3.76 1.68 5.37 2.96.55.43.26 1.53-.43 1.63-1.95.29-3.89.06-5.86.09-1.43.02-2.85.06-4.27.06-.7.14-1.41.32-2.05.19l-1.53-.34a30.9 30.9 0 0 1-3.17-.42 62.32 62.32 0 0 1-4.79-1.08Zm3.61 18.33c.52-.24 1.11-.28 1.63.1l.06.06c.49.11.89.54.66 1.14-.56 1.5-2.21 1.72-3.55 2.18-.27.09-.77.21-.97.42-.21.22-.17.74-.06 1.02.24.58 1.04.78 1.59.9 1.92.4 4.18-.09 6.05-.57 1-.26 1.96-.67 2.97-.89.95-.21 1.91-.27 2.88-.35l.54-.1c1.99-.53 4.07-.62 6.11-.98.8-.14 1.58.65 1.1 1.43-.84 1.38-2.79 1.55-4.23 1.74-1.49.2-3.07.48-4.51.97-1 .33-2.49 1.03-1.9 2.33.26.57.98.63 1.55.63 1 0 1.97-.3 2.94-.52 1.04-.24 2.11-.33 3.16-.54 1.05-.21 2.1-.42 3.17-.53a.7.7 0 0 1 .42.1c.05.02.11.02.16.05l-.21-.09.09.03c.11.03.21.08.31.12a.98.98 0 0 1 .48.84c-.02.14-.03.3-.07.44-.04.13-.1.26-.15.38-.08.18-.21.33-.33.48a6 6 0 0 1-2.65 1.41c-1.03.31-2.03.53-3.11.6-1.04.07-2.19 0-3.16.43-.4.18-.76.48-1 .86-.14.21-.26.44-.31.69v.15c.05.06 0 .05.08.11a2.86 2.86 0 0 0 1.13.4c.65.08 1.32-.02 1.98-.11 1.22-.24 2.42-.48 3.66-.64.57-.07 1.07-.19 1.62-.33.5-.12 1.04-.16 1.45.22.91.88-.04 2.17-.8 2.76a9.52 9.52 0 0 1-3.49 1.45c-1.08.27-2.16.39-3.25.57-.62.1-1.6.32-1.14 1.18.29.54.92.75 1.55.83a220.2 220.2 0 0 0 2.98-.42h.02c.53-.2 1.08-.28 1.59.01.36.21.49.59.44.96.03.15.04.3 0 .44-.1.31-.26.58-.49.82-.11.12-.25.21-.38.31l-.23.14c-.23.12-.48.23-.73.29l-.27.03c-.07.04-.13.08-.21.1-2 .33-3.94.74-5.89 1.3-.97.28-1.94.55-2.94.69-.5.07-.98.11-1.48.01-.07-.01-.14-.04-.22-.07-.22.02-.44.02-.65 0-4.33-.46-8.73-.71-12.45-3.48-1.01-.75-2.22-1.21-3.23-1.75l2.93-19.16 8.76-1.62Zm-.42 35.53c.97-.52 1.53-1.56 2.06-2.48.59-1.03 1.15-2.12 2.04-2.94a7.82 7.82 0 0 1 3.18-1.65c.58-.17 1.18-.31 1.76-.49a6.2 6.2 0 0 1 1.99-.37c.35 0 .59.17.75.4.25.21.51.56.91 1.1 1.57 2.11 3.2 4.17 4.77 6.27.34.46.53 1.03.86 1.71-6.16 2.05-11.99 1.15-18.13.24l.02-.04c-.69-.25-1.04-1.31-.21-1.75Zm.62 141.47c-.38 1.55-1.18 2.08-2.78 2.06-7.75-.09-15.5-.23-23.25-.27a26.28 26.28 0 0 1-8.44-1.32l-.13-.2a4.49 4.49 0 0 1-.19-.38l-.1-.29c-.05-.17-.07-.34-.11-.5l-.02-.32.01-.53.06-.6v-.06l.06-.33.15-1c.62-2.04 1.23-4.05 1.88-6.02.14-.43.29-.85.45-1.28l.03-.05c.1-.16.15-.33.17-.51.76-2.11 1.58-4.2 2.28-6.33.31-.94.85-1.26 1.7-1.49 4.95-1.37 9.97-.9 14.97-.61 2.35.13 4.68.6 7.02.84 2.79.29 3.28.59 4 3.1 1.25 4.39 2.27 8.83 2.47 13.41.04.89-.02 1.82-.24 2.68Zm68.22-9.85a57.36 57.36 0 0 1 4.8 6.58c.68 1.08 1.66 2.3 2.07 3.52.18.53-.08.81-.51.96h-.04c-6.74-.85-13.48.34-20.24-.02-4.99-.27-10.02.47-15.04.77-.27.02-.54.11-.82.11-3.5.08-5.18-1.58-5.04-5.07.16-3.92.39-7.84.58-11.72.24-.13.41-.31.55-.29 4.52.74 8.86-.54 13.27-1.12 2.07-.27 4.2-.12 6.28-.35l.19-.03c.12.02.23.05.36.03 2.66-.29 5.52-.62 7.85.98 2.16 1.48 4.04 3.66 5.73 5.64Zm-4.47-52.56c-.91 6.94-1.98 13.86-2.79 20.81-.59 5.06-.8 10.16-1.3 15.23-.19 1.88-.72 3.73-1.15 5.89-1.1 0-2.17-.04-3.24 0-2.17.11-4.38-.09-6.49.42a57 57 0 0 0-4.53.49c-1.56.23-3.07.54-4.66.55-1.65 0-3.3-.03-4.94-.05l-1.67-3.3c-.35-.98-.68-1.96-1-2.95a26.37 26.37 0 0 0-1.91-6.34c-1.09-3.86-2.11-7.75-3.2-11.62a68.14 68.14 0 0 0-3.99-11.2l-.35-.71c-.21-.59-.42-1.18-.66-1.76-.76-1.84-1.78-3.53-2.33-5.46a18 18 0 0 1-.66-4.6c1.23-3.28 2.26-6.66 3.77-9.8 2.28-4.71 4.37-9.43 5.03-14.72-1.97-1.89-3.1-1.74-3.98.72-.73 2.04-1.14 4.19-1.94 6.2-.75 1.91-1.86 3.67-2.72 5.54-.59 1.3-1.01 2.68-1.53 4.02-1.43 3.68-3.2 7.27-4.24 11.06-1.62 5.94-4.57 11.28-6.9 16.9-.8 1.93-1.9 3.75-2.61 5.71-1.76 4.87-3.36 9.79-5.04 14.69-.11.5-.24.99-.41 1.47-.35 1.02-.86 2.25-1.87 2.78-.26.14-.54.15-.8.07-3.52-.21-6.93-.44-10.34-.6-3.83-.18-7.66-.28-11.49-.46-1.96-.09-3.27-1.78-3.36-4.26-.06-1.73.04-3.46-.08-5.18-.38-5.63-.84-11.26-1.25-16.89-.06-.8-.06-1.61-.03-2.42.11-3.38 0-6.7-.54-10.09-.69-4.4-.74-8.93-.75-13.4-.02-5.83.24-11.67.41-17.5.07-2.46.54-4.95.25-7.36-.5-4.14 1.23-8.05.53-12.33 5.33 2.69 10.77 2.35 16.09 2.64 4.2.23 8.49-.2 12.58.56 9.93 1.84 19.9.46 29.84 1.01.27.02.57-.04.82.04 4.36 1.51 8.83.26 13.24.49 3.79.2 7.62-.12 11.41.07 5.97.3 11.92.84 18.03 1.29-.15.65-.27 1.3-.32 1.98-.14 1.76-.09 3.52-.25 5.28a84.06 84.06 0 0 1-1.92 11.24c-1.24 5.51-2.66 11-3.42 16.6-.35 1.36-.7 2.73-.91 4.11-.25 1.7-.23 3.44-.45 5.15Zm77.63-101.13c-.25.64-.94.76-1.43.55-1.74-.16-3.4-.29-5.05-.47-3.35-.37-6.7-.77-10.05-1.15-.18-.02-.37 0-.55-.01-3.81-.38-7.61-.88-11.42-1.13-4.51-.29-8.86-1.48-13.31-2.13-2.1-.31-4.03-.98-5.81-2.2-2.02-1.38-4.38-1.67-6.79-1.77-1.7-.07-3.4-.32-5.43-.53 0-1.19-.15-2.1.03-2.95.66-3.26-.18-6.36-.95-9.45-.26-1.05-.84-1.8-2.25-1.37a2.6 2.6 0 0 0-.34.71l-.13.55v3.9l.06 1 .04 1.24c.07.92.13 1.83.06 2.74 0 .71.02 1.42 0 2.13-.05 2.13-.34 4.24-.51 6.36-.34 4.16-.46 8.33-.68 12.5-.21 4.09-.67 8.15-.91 12.24-.08 1.46-.28 2.9-.5 4.33l-.06 2.54c-.15 5.75-.33 11.5-.51 17.25-.12 4.08-1.56 5.66-5.58 6.43-5.24 1-10.52 1.03-15.82.76-6.1-.32-12.21-.52-18.49-.77-.08-.16-.37-.48-.36-.79l.08-2.16v-.11l.29-7.51a61.69 61.69 0 0 1-.06-4.08c-.14-.41-.1-.71.04-.94l.08-1.18c-.05-1.44-.11-2.89-.12-4.33-.05-.41-.1-.81-.13-1.22-.35-6.3-.1-12.62-1.03-18.9-.46-3.09-.31-6.27-.42-9.41-.08-2.1-.08-4.2-.21-6.3-.16-2.56-.48-5.1-.61-7.66-.32-5.91-.67-11.81-.81-17.72-.11-4.81.09-9.64.09-14.46 0-1.36-.31-2.71-.39-4.07-.07-1.17-.01-2.35-.01-3.73l.13-.04c.07-.18.2-.35.44-.47.98-.46 2-.56 3.03-.68.19-.05.38-.11.58-.15l2.66-.55c1.36-.39 2.7-.82 4.14-1.06 3.32-.56 7.48-1.44 10.05-3.78 2.56-2.34 4-5.82 5.77-8.74 2.03-3.34 5.06-5.96 6.91-9.41.34-.63 1.03-.57 1.45-.21l.09-.12c2.42 2.76 4.87 5.53 7.29 8.33 2.21 2.54 4.39 5.11 6.59 7.66.29.34.73.59.94.97 2.7 4.97 7.27 8.37 10.72 12.71 2.48 3.11 5.16 6.06 7.69 9.12l.17.13c.74.48 1.53.91 2.34 1.26.84.37 1.73.64 2.63.81.37.07.75.12 1.12.2h.02c5.23 1.16 10.1 3.35 15.03 5.43 4.86 2.05 9.79 4.1 15.06 4.61.78.08 1.46.24 2.05.49 1.37.27 2.66.77 3.62 1.77 1.71 1.77 2.19 4.53 2.44 6.88.66 6.24-.73 12.38-3.02 18.15Zm17.9 1.28a23.79 23.79 0 0 1-4.16-.77l-9.86-1.03c.83-2.46 1.51-4.31 2.08-6.19.73-2.44 1.63-4.87 1.96-7.37.23-1.73-.38-3.58-.61-5.37l-.7-5.34c3.29-.76 6.49-1.52 9.71-2.22 1.36-.3 2.43.2 3.36 1.27.74.85 1.63 1.59 2.57 2.42.2.04.39.13.54.26.16.14.24.36.27.56.03.23-.03.41-.12.62.12-.29 0 .02-.03.09l-.08.22a6.47 6.47 0 0 0-.26.94l-.01.07-.01.19v.31l.02.13.06.24v.03l.13.2.02.03.19.19c.4.37.34 1.01 0 1.38a.86.86 0 0 1-.46.24l.02.07-.19-.04c-.16 0-.32-.03-.47-.09-.59-.1-1.08-.15-1.4-.41-.91-.74-1.65-1.68-2.47-2.53-.81-.84-1.56-1.8-2.99-1.84h-.06l-.05.02-.05.04-.13.09-.15.15-.33 1.01v.03l.04.18.08.27.04.1.03.06.14.26.32.51.11.15v.01l.19.23.44.5c.5.54 1.02 1.06 1.45 1.65.15.13.3.27.46.39a6.84 6.84 0 0 1 2.65 4.6c.08.47.05.96 0 1.45.15 1.12.17 2.24 0 3.36-.1 1.84-.96 3.55-1.43 5.32 0 .89.15 1.78.03 2.68-.05.39-.57.76-.94.72Zm13.12-5.35c-1.65-.24-3.34.06-4.99-.18-1.46-.21-2.75-1.14-2.44-2.78.22-1.16 1.04-1.73 2.01-1.99.67-.04 1.36 0 2.02 0h3.04c.62 0 .96-.95.33-1.23a8.14 8.14 0 0 0-3.42-.54h-1.63a6.12 6.12 0 0 1-1.61-.34.89.89 0 0 1-.42-.32 2.55 2.55 0 0 1-.47-1.34c.08-.35.28-.71.69-1.02 1.11-.85 2.46-1.06 3.81-1.17l.99-.03c.57-.02 1.18-.01 1.68-.33.58-.37.32-1.17-.33-1.23a5.02 5.02 0 0 0-.67-.01h-.01l-.88-.03a8.03 8.03 0 0 1-1.76-.25 3.21 3.21 0 0 1-1.47-.77 1.74 1.74 0 0 1-.35-1.99c.5-1 1.8-1.22 2.81-1.23a8.26 8.26 0 0 1 3.16.47c.5.2.94.47 1.31.81a5 5 0 0 1 1.72 1.87c.59 1.13.64 2.52.7 3.77.07 1.53-.01 3.06-.06 4.59-.05 1.53-.04 3.04.12 4.57.15 1.43.39 2.9.24 4.34a3.55 3.55 0 0 1-.51 1.58l.05.21a1.6 1.6 0 0 0-.21.05c-.63.81-1.64 1.18-2.94 1.02l-.06-.02-.21.03c-1.52.18-3.05.06-4.57.04-1.1-.02-2.36-.05-3.32-.67a2.25 2.25 0 0 1-.92-2.49c.04-.14.12-.26.19-.38v-.14l.13-.08a2.9 2.9 0 0 1 1.59-.93 7.52 7.52 0 0 1 2.27-.21c.9.02 1.81.12 2.69.18.36.03.91.14 1.46.18.46-.05.93-.14 1.43-.23 0 0 .02 0 .03-.02l.07-.1c.03-.1.07-.2.08-.33.11-.92-.61-1.21-1.39-1.32Zm6.86 17.14c.44.83.41 1.41.08 1.82l.02.13-.18.02c-1.12 1.02-4.31.77-5.49.8-1.93.04-3.86-.04-5.8 0-1.33.03-2.68.23-4.01.17-1.14-.05-2.32-.33-3.09-1.24-.73-.88-.78-1.99-.53-3.05.28-1.19.84-2.36 1.48-3.4.41-.67.93-1.43 1.59-1.93.3-.53.9-.84 1.55-.9 2.18-.19 4.42-.33 6.55.02 1.04.17 2.03 1.24 2.83 2.14a15.11 15.11 0 0 1 4.98 5.4Zm-1.85-45.54c-.92 1.43-1.84 2.85-2.63 4.36a13.5 13.5 0 0 1-1.33 2.09c-.19.77-.49 1.05-1.27 1.23-.61.4-1.31.63-2.15.62-.56.06-1.12.02-1.67-.07-.99.16-1.62-.39-2.4-.96a1.2 1.2 0 0 1-.28-.27 2.2 2.2 0 0 1-.89-1.11 4.83 4.83 0 0 1-.63-2.4c-.27-.57-.53-1.14-.83-1.69-.63-1.17-1.46-2.24-2.25-3.31a47.66 47.66 0 0 0-2.65-3.19c-.54-.61-.96-1.32-1.46-1.95l-.4-.38c-.54-.5-1.25-.94-1.7-1.52-.99-1.28.04-2.51 1.48-2.42 1.89.12 3.83.74 5.69 1.06 2.58.44 5.19.61 7.8.78 2.48.16 4.94.19 7.43.07l1.23-.04 4.77-.5c.19-.05.39-.11.58-.18.73-.26 1.37.53 1.2 1.2-.57 2.27-3.3 2.94-4.77 4.45-1.18 1.21-1.97 2.74-2.88 4.15Z"/>
    <path d="M161.73 76.41a2.96 2.96 0 0 0-1.74.24c-1.14.65-1.37 2.4-1.56 3.56a8.59 8.59 0 0 0 .54 4.62c.64 1.55 1.77 2.87 2.58 4.33.35.64.65 1.83 1.46 2.03.81.19 1.09-.67 1.13-1.28l-.02-.33c-.47-1.91-1.59-3.68-2.29-5.64-.4-.73-1.08-1.77-.81-2.61.45-1.42 2.2-.26 2.9.23.57.4 1.21.87 1.92.54l.09-.06.27-.41c.01-.22-.11-.47-.27-.72l-.11-.14a7.25 7.25 0 0 1-1.8-2.45c-.17-.28-.33-.55-.52-.82-.48-.67-.95-1-1.78-1.09ZM223.26 99.58c-2.37-1.12-4.69-2.29-7.43-2.52-4.76-.41-9.6-.41-14.29-1.9a2.12 2.12 0 0 0-1.18-.45l-.16-.02a1.54 1.54 0 0 0-.97.03c-.29.12-.54.3-.79.49a3.2 3.2 0 0 0-1.32 1.73c-.06.24-.07.49-.06.73-.1.39-.02.98.21 1.25l.48.57c.12.16.26.3.41.44.45.48.94.91 1.49 1.21 3.43 1.86 6.89 3.67 10.44 5.28.95.43 2.45.44 3.37-.02 2.91-1.46 5.99-2.43 9.02-3.56.34-.13.67-.31 1-.52.32-.35.59-.73.74-1.19.05-.16.08-.32.09-.48-.36-.48-.66-.89-1.04-1.07Zm-5.72 2.28c-.19 0-.38.02-.57.04l-.34.03-.14.02c-.42.06-.83.14-1.24.24-.21.05-.42.12-.62.18l-.26.09-.17.06-.05.02c-.18.08-.35.17-.52.27-1.68 1.58-3.32 1.09-5 .22-1.75-.9-3.42-1.96-5.1-2.97-1.48-.89-2.93-1.83-4.43-2.68v-.03l.09-.16.02-.03.16-.16.15-.13.24-.17c.12.12.27.23.46.34.7.39 1.43.75 2.18 1.03 3.29 1.21 6.74 1.5 10.19 1.67.14 0 .27.02.41.03.52-.04 1.04-.05 1.56-.04 1.08.02 2.18.12 3.23.37.44.1.69.55.64.97-.05.45-.43.75-.87.77ZM219.88 77.38c-.21-1.54-.88-2.02-2.39-1.77l-.13.07-.12.08h-.01l-.2.21v.02l-.04.05v.02a1.2 1.2 0 0 0-.05.18l-.02.09c.02.13-.02.29-.02.42l.01.46c.13.94.24 1.88.32 2.82.08 1.06.33 2.12.2 3.18a2.99 2.99 0 0 1-2.22 2.65 4.2 4.2 0 0 1-1.75.11c-.47.03-.97.02-1.52-.09-.76-.15-1.5-.46-2.25-.58l-.38.09c-.15.04-.29.07-.43.12l-.06.02c-.05.04-.12.06-.17.09l-.06.04-.11.11-.07.11-.03.04v.03c-.03.09-.04.22-.08.3v.16c.02.03.02.08.03.11.02.08.14.28.02.09l.1.19.12.18.05.07.37.38c.06.05.13.1.18.16s.05.04.07.05c.22.16.45.29.69.42 2.01.75 4.14.65 6.25.38a4.62 4.62 0 0 0 4.14-4.55 45.6 45.6 0 0 0-.44-6.5ZM194.04 54.43a6.72 6.72 0 0 1 2.2-.42c1.64-.11 3.23-.58 4.78-1.11a6.84 6.84 0 0 1 3.59-.24c.9.18 1.55 1 1.46 1.91-.13 1.32-.65 1.65-2.28 2.1-1.92.53-3.83 1.06-5.76 1.57-1.75.46-3.12.21-4.34-.87-.95-.84-.81-2.43.35-2.95ZM235.8 59.48l.17-.02.13-.03.36-.11.12-.05.23-.13.14-.1.13-.13.03-.02.02-.03.11-.18.03-.06.04-.15c-.47-.66-.84-1.22-1.31-1.68-2.89-2.79-6.55-2.94-10.19-3.47a1.34 1.34 0 0 0-1.34 2.02c.46.77 1.17 1.28 2.31 1.66 2.92.97 5.91 1.72 8.89 2.48h.13ZM203.33 62.95c.75.08 1.39.6 1.58 1.34l.11.45c.29 1.38.46 3-.89 3.7-1.38.71-3.1.91-4.59-.13-.95-.67-2-1.25-2.79-2.07l-.02-.02c-.87-.94-.28-2.51.97-2.81 1.92-.46 3.75-.65 5.63-.45ZM232.59 66.18c-.67-1.5-2.32-2.41-4.26-2.21-1 .1-2.01.28-3.06.47l-.12.06-.33.21-.04.02-.12.11a3 3 0 0 0-.3.32l-.12.19-.19.36-.03.09-.03.1c1.11 2.14 5.49 3.85 7.68 2.98 1.07-.42 1.45-1.51.92-2.69Z"/>
  </g>
</svg>
