<svg xmlns="http://www.w3.org/2000/svg" viewBox="0 0 393 393">
  <defs>
    <style>
      .c{fill:#e8c2a7}.e{fill:#6bae8c}.f{fill:#9fc077}.h{fill:#487760}.i{fill:#2e5e60}.j{fill:#798b5d}
    </style>
  </defs>
  <g id="b">
    <path class="f" d="M214.96 143.53c.16-2.35-3.5-3.4-4.51-1.21l-.06.12c-2.7-.18-5.4-.28-8.1-.26-1.29.01-2.45.13-3.51.45a5.68 5.68 0 0 0-1.43-.69c-2.27-.61-4.03 1.82-3.51 3.89.06.25.18.47.29.69-3.22 4.41-6.25 8.96-9.38 13.43-2.99 4.27-6.57 9.28-4.86 14.78 1.47 4.74 5.86 7.61 9.95 9.94 2.01 1.14 3.84-.88 3.55-2.62 1.91-2.66 2.72-5.72 3.69-8.85 1.06-3.42 2.94-6.42 5.07-9.27 2.17-2.91 4.51-5.68 6.55-8.67a72.83 72.83 0 0 0 5.17-8.94 4.47 4.47 0 0 0 1.1-2.79ZM175.61 173.9c-2.02-.33-3.84-.6-5.71-1.46-7.07-3.26-14.9-3.88-21.96-7.14-3.84-1.78-8.39-3.24-12.28-.73l-.35.26a9.85 9.85 0 0 0-5.17 2.08c-2.51 1.9-4.24 4.63-6.31 7-2.21.91-4.45 1.75-6.46 3.08-3.25 2.16-5.58 5.04-6.09 8.98-.17 1.29 1.21 2.42 2.4 2.43.36 0 .69-.07.97-.19 1.25 1.28 3.59 1.27 5.23 1.37 3.91.23 7.81-.27 11.7-.69 4.02-.43 8.18-.85 12.19-.12 3.94.72 7.72 2.17 11.55 3.3 2.07.61 4.15 1.19 6.23 1.73 1.73.45 3.57 1.02 5.38.88 1.73-.14 3.3-.9 4.3-2.34 1.03-1.48 1.42-3.37 2.16-5.01a40.2 40.2 0 0 1 2.79-5.17c.94-1.47 2.62-3.04 2.67-4.89.06-1.99-1.46-3.07-3.24-3.36ZM293.15 297.51c-2.59-5.59-6.55-10.68-9.96-15.78-1.96-2.94-3.9-5.9-5.76-8.9.09-.47.03-1-.23-1.53-1.83-3.68-3.68-7.37-4.89-11.32-1.29-4.2-2.31-8.5-3.44-12.74-.32-1.18-.87-2.75-1.82-2.77-4.22-10.71-8.96-20.31-13.36-30.94-2.22-5.36-4.41-10.73-6.69-16.07-2.14-5-5.32-10.2-5.81-15.71-.11-1.22-.91-2.27-2.17-2.4-1.09-1.33-3.68-1.4-4.28.78-1.55 5.71-2.97 11.43-3.09 17.37-.12 5.87.74 11.74 1.63 17.53.76 4.91 1.74 9.93 4.23 14.3a23.55 23.55 0 0 0 4.59 5.6c1.47 1.37 1.11 2.77 2.2 4.43-.24.49 1.54.94 1.74 1.47 2.32 6.26 6.04 11.72 9.6 17.31l.92 1.48a2.1 2.1 0 0 0-.25 1.79 70.16 70.16 0 0 0 6.33 13.61c-.03.48.06.98.27 1.45l3.9 8.81c.79 1.99 1.53 4 2.22 6.04-.32.38-.51.88-.44 1.5l.08.62v.03c.33 2.7.89 5.34 1.71 7.9a396.59 396.59 0 0 0 9.38 34.37c.7 2.18 4.1 2.5 4.67.02a85.95 85.95 0 0 1 7.11-19.27c1.49-2.96 3.97-3.39 4.41-6.7.46-3.37-1.37-9.18-2.79-12.23ZM136.14 330.32c-.85-3.25-1.83-6.52-1.92-9.9-.1-3.55.48-7.13.86-10.65l1.94-18.03c.25-.36.39-.83.35-1.42l-.08-1.11.17-1.57c.05-.48-.1-.94-.37-1.32l-1.4-20.12c-.47-6.78-.26-14.45-3.63-20.58-.21-6.94.22-13.95.37-20.82.06-2.62-3.2-3.04-4.51-1.21-2.22 3.08-4.37 6.2-5.8 9.73a21.04 21.04 0 0 0-1.4 5.11c-.28 2.06-.09 4.06-.06 6.13.05 3.89-1.73 7.47-2.51 11.22-.85 4.1-1.09 8.29-1.31 12.46a2.2 2.2 0 0 0 .37 1.42c.14 2.28.41 4.55.64 6.82a118.47 118.47 0 0 1-.62 28.61c-.83 6.37-1.92 12.7-2.54 19.09a95.75 95.75 0 0 0 .05 18.85c.31 3.13.66 6.27.99 9.4.29 2.68 0 6.34 2.03 8.4.86.88 2.01 1.33 3.13 1.78l4.47 1.8 4.47 1.8c1.32.52 2.73.94 4.1.33 1.3-.57 1.96-1.72 2.22-3.07.33-1.72.52-3.49.76-5.23.43-3.11.81-6.23 1-9.37a58.3 58.3 0 0 0-1.77-18.56Z"/>
    <path class="e" d="M249.59 23.2c-.21-.65-.04-1.29-.44-1.78-.37-.45-1.19-.65-1.28-1.2-.29-1.8-.3-3.68-.28-5.49 0-.85-.73-1.26-1.39-1.16l.1-.38c.41-1.5-1.92-2.13-2.33-.63a64.47 64.47 0 0 0-1.74 8.92c-.48.8-.76 1.76-1.15 2.59-.72 1.51-2.23 2.23-3.65 2.96a15.9 15.9 0 0 0-4 2.7c-2.39.58-5.56 1.27-6.4 3.83-.2.59.24 1.35.85 1.48.47.1.94.12 1.39.1 1.65.5 3.33.93 5.02 1.26 1.38.26 2.85.45 4.21 0 1.42-.47 2.49-1.59 3.53-2.6a50.97 50.97 0 0 0 5.98-7.01c.66-.93 2-2.32 1.59-3.58ZM273.06 33.03a30.87 30.87 0 0 1-5.73-1.76 18.87 18.87 0 0 0-5.8-1.25c-.68-.05-1.42-.15-2.17-.23a.98.98 0 0 0-.3-.11 3.37 3.37 0 0 0-1.38.01c-.72 0-1.42.07-2.06.28a3.02 3.02 0 0 0-2.15 2.79c-.64.42-1.29.84-1.91 1.28-1.7 1.22-3.27 2.64-3.96 4.68-.75 2.2-.66 4.81-.5 7.09a31.1 31.1 0 0 0 1.47 7.52c.44 1.35 2.42.95 2.38-.27.21-.15.39-.36.48-.61.88-2.47 1.71-4.97 2.67-7.41.94-2.38 1.91-4.69 4.22-5.99 2.15-1.2 4.39-2.32 6.83-2.79 2.62-.51 5.31-.19 7.9-.89 1.11-.3 1.24-2.1 0-2.34ZM315.69 188.66c-1.55-.59-3.09-.98-4.47-1.95-1.7-1.19-2.4-2.88-2.86-4.84-.54-2.31-.8-4.66-.8-7.04 0-.76-.61-1.19-1.22-1.18-.32-.84-1.62-1.24-2.18-.23a31.6 31.6 0 0 0-2.38 5.43c-.62 1.88-.99 3.7-.44 5.64.53 1.88 1.36 3.72 2.08 5.54.3.77.62 1.52 1.3 2.02.76.57 1.7.63 2.61.75 2.04.26 4.1.46 6.16.57 1.44.08 3.81.53 4.66-1.06.92-1.74-1.04-3.14-2.43-3.67ZM298.27 194.78c-.23-1.17-1.23-1.54-2.19-2.03a14.31 14.31 0 0 1-3.04-2.01c-2.05-1.86-4.63-1.53-7.23-1.57-.09 0-.17.03-.25.05l-1.53-.59a4.1 4.1 0 0 0-1.48-.57c-.52-.1-.91.08-1.16.37a88.39 88.39 0 0 0-5.56-1.37c-1.52-.31-2.15 2.02-.63 2.33 2.78.58 5.52 1.31 8.23 2.17.13.26.25.55.41.86.56 1.14 1.91 1.66 3.02 2.14.6.26 1.29.61 1.99.79.03.62.06 1.25.11 1.87.32 3.94 1 7.84 2.03 11.66.28 1.03 1.68 1.2 2.22.29a60.98 60.98 0 0 0 3.49-7.18c.94-2.19 2.04-4.76 1.57-7.2Z"/>
    <path class="j" d="m153.49 320.03-.39-1.2a7.56 7.56 0 0 0-2.01-8.09c-1.4-7.73-1.49-15.66-.93-23.53.2-2.78.47-5.55.79-8.31.33-2.83.81-5.57.29-8.42-.33-1.79-1.04-3.47-1.7-5.16.48-3.17.59-6.37.3-9.58a3.57 3.57 0 0 0-1.73-2.64c.31-3.11-.25-6.25-1.32-9.32-.81-2.31-1.75-4.58-2.65-6.85-.85-2.17-1.9-4.35-2.22-6.68-.2-1.43-1.39-2.12-2.65-2.18-.68-2.33-1.15-4.5.05-6.83a3.32 3.32 0 0 0-.67-3.77c-.42-.5-.97-.89-1.55-1.04-1.72-.46-3.1.61-3.7 2.13a2.7 2.7 0 0 0-.12 1.58 13.93 13.93 0 0 0-.12 8.55c.7 2.44 1.43 4.86 2.17 7.29a3.03 3.03 0 0 0-1.2 2.29c-.37 5.01.65 10.21 1.18 15.19l1.44 13.51c-.46 1.67.03 3.56.32 5.34a104.44 104.44 0 0 1 1.04 22.87c-.33 5.08-1.06 10.1-2.15 15.07-.92 4.18-2.63 12.25 3.07 13.91 2.12.62 4.8.3 6.94-.06a12 12 0 0 0 2.78-.83l.3.15c1.13.49 2.3.56 3.33-.26.87-.7 1.48-1.99 1.09-3.13ZM198 321.88c-.16-.29-.37-.55-.58-.81-.45-.64-.81-1.33-1.17-2.02a12.33 12.33 0 0 0-1.85-2.74l-.62-.47-.71-.29a3.02 3.02 0 0 0-1.92.15c-.27.07-.5.21-.7.4a1.5 1.5 0 0 0-.56.56c-.19.19-.31.41-.38.67-.18.35-.26.72-.25 1.12l-.31 3.2c-.4.39-.71.9-.84 1.4a3.1 3.1 0 0 0 .3 2.29 3.08 3.08 0 0 0 1.83 1.41c.8.18 1.56.09 2.29-.3.16-.05.32-.1.48-.13h.33c.23.05.46.1.68.18.64.29 1.42.44 2.1.23l.75-.31c.47-.27.84-.65 1.11-1.12.14-.2.27-.57.35-.8.09-.27.12-.58.12-.86 0-.62-.17-1.19-.46-1.74ZM270.94 310.19c-2.57-7.08-3.69-14.54-5.58-21.8-1.93-7.44-5.06-14.46-8.23-21.44-.03-.08-.08-.13-.12-.2a22.98 22.98 0 0 0-2.9-5.72 8.58 8.58 0 0 0-1.51-4.73c-1.08-1.62-1.33-3.56-2.32-5.23-2.27-3.83-4.98-7.63-6.73-11.71a2.38 2.38 0 0 0-1-1.15c-.72-.77-2.31-5.49-3.47-5.19-1.44.38-2.16 6.46-1.57 7.99l.2.48c-.7 3.78-.02 7.55.47 11.36.23 1.82.42 3.72.17 5.55-.31 2.28-1.13 4.42-1.33 6.73-.39 4.45.17 9.08.35 13.53l.58 14.34a2.85 2.85 0 0 0 1.23 2.32c2 8.23 2.1 16.8.18 25.07-.57 2.46 2.12 4.82 4.43 3.4 3.8-2.34 8.12-3.38 12.36-4.61a57.5 57.5 0 0 0 6.65-2.32c1.63-.7 3.09-1.61 4.52-2.55.27 0 .53-.03.8-.12l.16-.06c.2-.07.4-.17.61-.27 1.43-.43 2.63-2.14 2.08-3.65Z"/>
    <path class="h" d="M258.35 22.72c-.09-.98-.53-1.85-1.5-2.23a2.42 2.42 0 0 0-2.63.52c-1.32 1.36-2.19 3.14-3.41 4.43-.68.72-1.42 1.37-2.08 2.11-.61.69-1.15 1.44-1.71 2.16a14.4 14.4 0 0 1-1.86 2.04c-.73.64-1.54 1.18-2.24 1.85-1.5 1.45-2.72 3.24-4.01 4.87-.81 1.02-.97 2.43.02 3.42.85.84 2.6 1 3.42-.02 1.27-1.59 2.46-3.32 3.9-4.75.73-.72 1.58-1.29 2.35-1.96a14.4 14.4 0 0 0 1.86-2.04 48.19 48.19 0 0 1 3.05-3.47c.41 0 .82-.09 1.19-.29a7 7 0 0 0 3.66-6.62ZM304.62 193.56c-.6-.82-1.36-1.9-1.69-2.67-.13-.29-.29-1.1-.39-1.59a9.28 9.28 0 0 0-.65-1.97c-.48-1.09-1.09-2.13-1.65-3.19l-.83-1.57c.1-.94.02-1.89-.56-2.64a2.62 2.62 0 0 0-2.6-.98l-.17-.78c-.22-1.25-1.77-2.09-2.95-1.73-1.33.41-1.97 1.61-1.73 2.95.35 1.99 1 3.96 1.58 5.92-.37.7-.4 1.55.03 2.3.98 1.7 2.44 2.94 3.86 4.26a25.9 25.9 0 0 1 3.14 3.5l.42.6c.74 1.02 2.12 1.64 3.3.88 1.03-.66 1.65-2.18.88-3.3Z"/>
    <path class="c" d="m210.16 111.18-1.42-19.54a2.4 2.4 0 0 0-1.69-2.18 163.4 163.4 0 0 0-2.96-20.85c-.42-2.04-.59-4.86-2.21-6.37-1.53-1.42-5.67-2.68-7.66-2.48-3.89.4-5.42 3.54-8.99 4.93-2 .78-3.88 1.06-6.02.89-2.13-.17-7.06-1.38-9.19-1.1-2.03.26-1.19 1.92-2.61 3.45-1.3 1.41-1.78 3.42-3.1 4.76-1.18 1.2-3.09 1.25-4.67 1.26-2.01.02-6.26-.33-8.21.3-2.4.78-1.67 2.81-2.61 5.04-1.02 2.41-1.98 4.85-2.95 7.28-1.85 4.64-2.82 9.81.72 13.92.36.41.76.64 1.16.73a94.9 94.9 0 0 0 4.19 9.25c.02 2.09-.17 4.21-.35 6.26-.12 1.46-.23 2.96-.74 4.35a3.64 3.64 0 0 1-1.64 2.07c-1.51.71-3.71.2-4.51-1.01a3.62 3.62 0 0 0-.97-.98l-.89-4.85c-.32-1.72-.47-3.6-1.03-5.26a5.43 5.43 0 0 0-2.98-3.28c-.68-.3-1.36-.5-2.06-.71l-.54-.17a3.04 3.04 0 0 0-5.34.95c-1.1 3.25-2.23 6.62-2.81 10.01-.67 3.97 2.95 5.93 5.85 7.76 1.2.76 2.45 1.45 3.71 2.1a8.79 8.79 0 0 0 2.97 2.63c.13.06.27.1.4.15 1.16 2.16 1.5 4.89 2.38 7.14a44.4 44.4 0 0 0 1.97 4.4c.74 1.42 1.72 2.75 2.36 4.22 1.06 2.45-1.11 4.35-1.83 6.63-1.74 5.55 1.55 11.59 6.89 13.56 3.53 1.3 7.48 1.81 11.15 2.62l11.82 2.62a3.1 3.1 0 0 0 3.7-2.13c2.61-8.03 9.5-13.83 12.41-21.76.81-2.19.84-4.43 1.41-6.66.44-1.74 2.12-2.5 3.7-3.01 4.47-1.45 9.31-2.24 11.57-6.95 1.25-2.6 1.5-5.47 1.77-8.3l.92-9.4c.09-.91-.4-1.74-1.1-2.31ZM288.15 69.52c-2.22-2.76-5.86-4.26-7.74-7.3-1.31-2.12-3.88-1.79-5.24.01a175.61 175.61 0 0 1-9.04 11.05l-.63.69-.33-.43c-.15-.85-.27-1.71-.43-2.54l-1.13-6.17c-.29-1.56-2.2-2.62-3.68-2.16-1.66.51-2.47 2.02-2.16 3.68l1.13 6.17.19 1.11c-.08.27-.14.57-.15.89l-.24 7.29-.11 3.5c-.03.82.2 2.3-.12 3.07-.62 1.51-.42 3.24 1.13 4.12.15.09.31.15.49.21.13.3.28.6.49.89 1.03 1.48 2.9 2.41 4.42 3.33a66.7 66.7 0 0 0 5.12 2.79c1.4.69 3.35.41 4.12-1.13 2.25-4.47 4.76-8.81 7.56-12.96 1.21-1.79 2.4-3.76 3.93-5.3 1.38-1.38 2.6-2.54 2.89-4.24 2.19-2.04 1.22-4.5-.45-6.58ZM108.9 289.43a13.94 13.94 0 0 1-.73-7.43c.45-2.94.61-5.85.29-8.81-.16-1.5-1.24-3.19-3-3.04a5.4 5.4 0 0 0-2.06.6 3 3 0 0 0-2.38-1.28c-2.82-.16-6.18-.75-8.67.93-1.34.9-2.02 2.17-2.62 3.62l-1.88 4.55c-1.22 2.95-2.94 6.02-3.23 9.24-.3 3.35 1.95 6.07 3.65 8.73.64 1 1.75 1.56 2.88 1.48.14.35.31.69.52 1.04 2.03 3.31 7.26.3 5.23-3.02-.3-.49-.25-.83 0-1.63.24-.79.65-1.52 1.05-2.25 1.04-1.88 2.23-3.66 3.29-5.52l.7-1.3c.07 1.91.42 3.79 1.12 5.61.59 1.52 1.98 2.61 3.68 2.16 1.44-.38 2.75-2.15 2.16-3.68Z"/>
    <path d="M218.4 98.3a3.47 3.47 0 0 0 1.85-.84c4.73-4.17 6.71-10.57 5.65-16.71a2.64 2.64 0 0 0-1.01-1.56c-.06-.14-.12-.29-.21-.42a365.83 365.83 0 0 0-13.41-17.47c-.61-3.79.67-7.78-.12-11.56-.39-1.86-1.48-3.33-2.61-4.81a94.14 94.14 0 0 0-3.8-4.66c-2.42-2.77-5.01-5.61-7.89-7.9a4.03 4.03 0 0 0-3.86-.76 2.82 2.82 0 0 0-2.6-1.71c-8.19-.26-16.34-3.37-24.49-.91a17.12 17.12 0 0 0-9.04 6.34c-.39.52-.75 1.09-1.11 1.67-6.52-2.7-13.69-2-20.61-1.59-3.53.21-7.03.83-9.45 3.67-1.87 2.2-2.84 4.92-3.56 7.67-.54.22-1.04.62-1.42 1.24a36.79 36.79 0 0 0-3.93 8.86c-.84 2.88-.94 5.92-1.8 8.79-.78 2.6-3.15 4.15-5.17 5.76a63.14 63.14 0 0 0-6.99 6.49c-2.12 2.3-4.21 4.77-5.2 7.79-1.06 3.24-.38 6.68.67 9.82 2 6.04 5.42 11.43 7.98 17.21 1.56 3.53 2.76 7.62 2.63 11.56-1 .16-1.89.82-2.16 2.14l-1.63 7.79c-.53 2.54-.76 5.01.63 7.33 2.4 4.01 7.4 6.34 11.31 8.58 4.25 2.44 8.77 4.65 13.6 5.65 2.48.51 5.06.79 7.59.57 2.26-.19 4.85-.51 6.8-1.77a5.1 5.1 0 0 0 1.82-6.92c-1.05-2.09-2.41-4.04-3.47-6.13a64.07 64.07 0 0 1-2.84-6.47c-.86-2.28-1.8-4.18-3.9-5.56-3.27-2.15-6.75-3.56-8.71-7.21-2.11-3.93-.84-8.7.64-12.61.62-1.63 1.13-3.95 3.14-4.11 2.39-.19 4.69 1.13 6.64 2.35.81.5 1.76 1.01 2.35 1.78.68.89.97 2.07 1.3 3.12l2.81 8.89c1.03 3.27 5.77 2.72 5.94-.74a42.2 42.2 0 0 0-.99-12.33c-1.08-4.32-3.2-7.75-5.96-11.17-1.03-1.28-1.83-2.45-1.29-4.11.64-1.95 1.9-3.72 2.7-5.61a39.86 39.86 0 0 0 3.14-13.56l4.73-.38c1.05-.09 2.2-.1 3.34-.19.92 1.06 2.51 1.59 3.85.79a15.94 15.94 0 0 0 6.81-8.45c.13-.36.17-.71.16-1.04 1.57-1.5 3.77-1.44 5.89-1.14 3.54.5 6.75 1.04 10.31.28 3.12-.67 6.02-2.06 9.08-2.92 2.36-.67 4.96-1.1 7.26 0 2.31 1.11 2.55 3.36 2.76 5.69.13 1.49.25 3.03.7 4.47.49 1.57 1.3 2.99 2.07 4.43a26.74 26.74 0 0 1 2.79 8.19c1.13 6.66-.88 13.4 2.39 19.7.17.34.39.59.62.81.14 2.27.39 4.53.76 6.79.04.27.12.5.22.71a7.09 7.09 0 0 0-1.15 2.74c-.27 1.61.46 3.25 2.13 3.7 1.46.39 3.42-.52 3.7-2.13.22-1.29 1.34-2.09 2.38-3.31 1.25-1.46 2.3-3.15 2.31-5.15.02-2.45-1.47-4.58-2.27-6.82-.31-.86-.58-1.74-.82-2.62Z" style="fill:#76512d"/>
    <path class="i" d="M186.39 184.12c-.31-.15-.6-.33-.89-.5h-.02v-.02a4.12 4.12 0 0 1-.31-.28l-.11-.12-.13-.19-.08-.13c-.13-.27-.2-.61-.34-.86a3.11 3.11 0 0 0-3.45-1.43l-.24.09-.37-.28c-1.88-1.35-4.54.51-4.51 2.61 0 .86-.04 1.71-.12 2.57v.1l-.03.16-.09.51c-.1.51-.22 1.01-.35 1.5-.16.57-.36 1.12-.56 1.67l-.56.96a3.1 3.1 0 0 0 .39 3.52c1.38 3.65 5.88 7.43 9.88 5.34 1.93-1.01 2.64-3.02 3.38-4.92.32-.82.63-1.64.92-2.47.37-1.02.8-2.05.88-3.15.18-2.28-1.36-3.76-3.25-4.66ZM235.86 376.73c-3.49-.73-5.59-3.27-7.97-5.73-1.11-1.15-2.36-2.26-3.24-3.6-.94-1.43-1.73-2.93-3.01-4.1-.73-.66-1.89-1.14-2.88-.77-2.19.81-4.4.71-6.69.79-2.32.07-5.1.16-6.9 1.85-1.82 1.71-1.86 4.72-1.77 7.04.1 2.48.57 4.93 1.44 7.25.5 1.32 1.63 2.31 3.03 2.26 2.56 1.94 7.23 1.3 10.18 1.31 5.67.02 11.34-.04 17.01-.37 1.5-.09 2.8-1.07 2.98-2.62.17-1.42-.69-3-2.19-3.31ZM168.47 363.36a3.13 3.13 0 0 0-3.29.2 2.3 2.3 0 0 0-.69-.09c-2.56.03-5.12.04-7.67.09-2.67.05-5.14.73-6.88 2.88-1.42 1.76-2.01 3.82-3.06 5.79-.9 1.69-2.98 2.71-4.08 4.6-1.04 1.8.29 4.77 2.61 4.51l8.72-.95c2.48-.27 5.1-.35 7.49-1.1 2.38-.75 4.52-2.17 5.55-4.51.58-1.32.75-2.71 1.13-4.09.33-1.2.71-2.14 1.29-3.22a3.08 3.08 0 0 0-1.13-4.12Z"/>
    <path d="M270.13 98.26a36.15 36.15 0 0 0-9.75-4.29c-.29-.08-.56-.11-.83-.14-1.71-1.68-4.35-2.14-6.25.3a57.93 57.93 0 0 0-8.08 13.55c-2.07 5.04-2.57 10.79-6.36 14.91-3.82 4.14-8.6 7.69-13.21 10.88-4.12 2.85-7.27 4.82-8.44 9.89-2.37 10.29-11.07 17.12-16.6 25.91a95.68 95.68 0 0 0-12.39 30.88c-.57.23-1.12.59-1.64 1.11l-1.22 1.23c-4.2-1.24-13.19-6.33-14.95-6.59-3.05-.47-5.95-.14-9-.91-3.18-.8-6.23-2.04-9.43-2.78a93.8 93.8 0 0 0-18.29-2.15c-5.47-.16-13.71-1.47-18.79.89-4.24 1.96-5.57 8.4-7.54 12.23-2.74 5.32-6.13 10.13-9.23 15.21-3.03 4.97-3.77 9.84-4.12 15.58-.32 5.23-.77 10.44-1.33 15.64l-.81 6.84c-.05.43-.04.82 0 1.19-.2.73-.41 1.46-.64 2.18a4.48 4.48 0 0 0-.04 2.78c-1.69 3.76 2.33 9 6.69 6.27.37-.23.72-.42 1.07-.6a5.11 5.11 0 0 0 3.68.88c7.1-.92 10.11-1.2 13.37-7.87 2.43-4.99 5.38-10.8 5.69-16.43.21-3.91-.44-7.03 1.28-10.81 1.26-2.76 2.96-5.36 4.59-7.91a79.89 79.89 0 0 1 11.77-14.49c-.43 3.18-.69 6.38-.11 9.57.78 4.26 3.07 7.93 4.81 11.85a78.57 78.57 0 0 1 6.52 29.86c.09 3.4 2.93 5.14 6.05 4.7 14.72-2.08 29.96.93 44.52-2.25 6.82-1.49 12.74-1.37 19.7-1.47 4.47-.06 13.03.95 16.17-3.18 1.34-1.75 1.26-3.67 1.05-5.73-.4-3.95-.48-7.73-.59-11.7-.19-7.07-1.79-13.62-3.65-20.39-1.93-7.03-.34-14.14-1.31-21.27-1.04-7.69-1.41-14.35.7-21.7 3.59-5.91 7.14-11.84 10.84-17.68 3.62-5.72 8.9-9.96 12.8-15.51 7.86-11.18 11.44-24.79 14.19-37.99.15-.73.16-1.4.07-2.02.25-.63.52-1.26.83-1.9a4.96 4.96 0 0 0-1.8-6.59Z" style="fill:#6aaf8d"/>
    <path d="M238.84 300.47c-.34-11.1-.93-22.19-1.73-33.26-.2-2.69-2.03-4.72-4.81-4.86-12.39-.61-24.57.38-36.78 2.47-6.29 1.08-12.58 2.33-18.96 2.66-6.47.34-12.81-.77-19.25.18a3.98 3.98 0 0 0-2.94 1.78c-1.57.61-2.74 2.02-2.58 4.27.2 2.81.26 5.59.21 8.37-.2.48-.36 1-.42 1.6a77.39 77.39 0 0 0-.31 8.14l-.02.56c-.02.45.02.85.09 1.24.08 2.12.22 4.25.45 6.45.36 3.34-.3 6.58.08 9.9.37 3.16 1.39 6.09 1.53 9.31.56 12.65-1.47 25.83-2.31 38.46-.18 2.65 2.32 4.78 4.81 4.86 5.95.17 15.24.61 19.95-3.78 4.28-3.99 4.77-12.4 6.13-17.74 2.64-10.39 5.45-20.74 9.35-30.69.14.53.28 1.06.44 1.58 1.4 4.54 4.95 8 7.24 12.1 2.65 4.73 4.67 8.88 4.42 14.4-.28 6.29-1.73 12.41-3.68 18.37-1.09 3.33 2.17 6.5 5.4 6.02a4.2 4.2 0 0 0 2.56.43c6.43-.72 18.94.78 20.94-7.33 1.12-4.54 1.7-8.89 3.29-13.33 1.56-4.36 3.42-8.61 4.78-13.04 2.93-9.52 2.41-19.28 2.11-29.11Z" style="fill:#538d71"/>
    <path d="M298.45 306.38c-.53-2.07-.84-4.22-1.59-6.21a40.4 40.4 0 0 0-7.7-12.69 91.01 91.01 0 0 1-3.71-4.37c-3.82-4.84-5.37-10.81-7.99-16.25a46.66 46.66 0 0 1-1.86-4.52c-.18-.75-.34-1.49-.5-2.24-1.02-4.76-3.07-9.15-4.98-13.61l-1.67-3.83a206.75 206.75 0 0 0-5.74-13.03c-.24-.49-.53-.96-.81-1.43a523.7 523.7 0 0 0-8.22-16.86c-.42-.84-.89-1.67-1.34-2.52a17.84 17.84 0 0 1-1.13-3.08 74.71 74.71 0 0 0-3.87-10.84 47.8 47.8 0 0 1-1.9-5.83 39.76 39.76 0 0 0-2.09-6.3c-.89-2.04-2.09-3.93-3.11-5.91-.43-.83-.89-1.6-.12-2.65 1.8-2.46 3.1-5.22 4.2-8.06.27-.71.58-1.41.97-2.06 1.18-1.96 2.58-3.76 3.73-5.76 1.27-2.22 3.05-4.17 4.77-6.09 2.14-2.38 4.81-4.27 6.6-7 2.1-3.2 4.31-6.37 5.29-10.1.78-2.97 2.79-5.46 3.06-8.59.03-.42.25-.82.42-1.32.07-.69.16-1.37.26-2.06-.03-.4-.03-.71.11-.93l.04-.04c.4-2.26.97-4.49 1.67-6.68.61-1.32 1.31-2.61 1.74-4.01.35-1.14.53-2.32.73-3.49.17-.99.37-1.97.35-2.97.25-1.29.51-2.57.81-3.84.28-1.2.73-2.37 1.23-3.51.38-.87 1-1.64 1.44-2.5a43.37 43.37 0 0 1 2.28-3.83c.45-1.36 1.41-2.58 2.06-3.81.6-1.14 1.2-2.34 2.01-3.35.15-.26.32-.52.48-.77.43-.65.88-1.3 1.34-1.94.41-.4.83-.8 1.25-1.18 1.34-1.2 2.83-2.23 3.68-3.87 1.24-2.39 1.1-5.31-.83-7.09l-.66-.81c-.41-.79-.8-1.59-1.32-2.31a5.76 5.76 0 0 0-1.96-1.54 5.32 5.32 0 0 1-2.05-2.11 5.09 5.09 0 0 0-1-1.22c-.31-.29-.62-.61-.91-.87-2.43-2.16-3.58-2.45-6.17-.49-1.38 1.04-2.56 2.36-3.78 3.61a6.68 6.68 0 0 0-1.18 1.61 19.82 19.82 0 0 1-3.79 5.02c-.75-1.75-1.28-3.21-1.98-4.58a53.03 53.03 0 0 0-2.54-4.38 2.79 2.79 0 0 0-3.34-1 4.28 4.28 0 0 0-2.17 4.98c.37 1.27.74 2.59.78 3.9.11 3.33-.15 6.64-1.19 9.84-.17.54-.38 1.44-.42 2-.11 1.63-.16 3.27-.28 4.91-.08 1.17.11 2.52-.41 3.46-1.06 1.89-2.57 3.52-3.8 5.32-1.2 1.75-2.11 3.7-3.1 5.54a70.17 70.17 0 0 0-2.32 4.78c-1.21 2.73-3.16 5.08-3.95 8.04-.56 2.12-1.48 4.15-2.38 6.17-.96 2.16-2.13 4.15-4.53 5.03-.79.29-1.55.65-2.25 1.11-1.69 1.1-3.41 2.19-5.02 3.4-1.59 1.21-3.31 2.36-4.56 3.88-1.74 2.09-4.03 3.37-6.12 4.94a2 2 0 0 1-2.5.07c-1.46-.98-2.72-.1-4.44 1.59-.72.7-1.7.92-2.7 1.07-.35.05-1.03.68-1.49.58-1.27-.28-2.52-.69-4.02-1.12.47-.32.63-.5.83-.56 3.02-.9 5.49-2.61 7.25-5.19 1.02-1.49 2.19-2.93 2.27-4.97.09-2.52.51-5.03.74-7.1 1.03-1.12 1.76-2.01 2.59-2.78.91-.83 1.93-1.54 2.87-2.34.49-.42.98-.87 1.36-1.38.4-.53.57-1.25 1.01-1.73 1.73-1.92 1.63-4.38 1.97-6.69.11-.73-.35-1.54-.57-2.31l-.25-.78a.65.65 0 0 1-.22-.3c-.34-.99-.86-1.94-1.02-2.98-.04-.29-.06-.58-.04-.87-.29-1.44.49-2.69 1.4-3.9 1.11-1.47 2.14-3.11 3.56-4.21 1.71-1.33 2.21-3.03 2.59-4.93.46-2.26.83-4.5-.38-6.65-.68-1.21-1.35-2.43-2.05-3.63-.52-.89-.93-1.91-1.65-2.59-1.71-1.58-2.86-3.55-4.26-5.36-1.72-2.24-3.56-4.4-5.43-6.51l-.03-.06c-.36-1.56-.12-3.36.03-4.87.19-1.84.99-3.99.7-5.9a2.03 2.03 0 0 0-.71-1.84 42.1 42.1 0 0 0-4.02-5.61 27.26 27.26 0 0 0-4.09-4.02c-1.93-2.04-3.63-4.31-5.95-5.99a10.08 10.08 0 0 1-2.79-2.99c-1.17-1.98-3.09-2.89-4.89-4.02-.7-.44-1.31-.36-2.09-.22-2.1.38-4.21.77-6.33.96l-3.75.15c-5.91.05-11.82-.5-17.72-.03-.68.05-1.36.4-1.99.7-2.24 1.06-3.48 3.12-4.78 5.06a2.73 2.73 0 0 1-2.56 1.18c-3.24-.36-6.5-.71-9.75-.72-5.56-.01-11.13.31-16.7.35-.94.26-1.9.49-2.79.87l-.43.82c-.47.91-.85 1.85-1.21 2.81a67.16 67.16 0 0 0-3.19 5.37c-1.49 2.78-3.13 5.61-4.04 8.65-.62 2.06-.82 4.22-1.11 6.36-.81 3.29-2.14 6.46-4.44 8.99-2.01 2.21-4.42 3.99-6.68 5.92a26.19 26.19 0 0 0-5.42 6.09c-.44.53-.84 1.09-1.22 1.66a5.67 5.67 0 0 0-2 4.31 14.98 14.98 0 0 0-.23 5.94c.8 5.4 3.38 10.77 6.4 15.4.99 2.29 1.79 4.62 2.7 6.97.62 1.6 1.58 3.07 2.11 4.7.18.56.29 1.14.35 1.71v.12c-.3 1.28-.84 2.5-1.24 3.75-.88 2.73-1.79 5.44-2.58 8.19a18.06 18.06 0 0 0-.76 4.1c-.04.88.53 1.78.66 2.69.36 2.59 1.74 4.49 3.82 5.97l1.35 1 .16.15a19.9 19.9 0 0 0 2.11 1.53l.66.49c2.72 1.93 5.34 3.99 8.51 5.25 1.69.67 3.28 1.79 4.66 2.99a6.6 6.6 0 0 0 5.65 1.69c1.2.1 2.41.11 3.62.01 1.37-.11 2.72-.37 4.1-.4 1.27-.03 2.64.06 3.98-.01.87.12 1.52.53 2.1 1.3-.88.88-1.86.92-2.92 1-1.79.12-3.58.33-5.37.55-3.24.69-5.72 3.06-7.73 5.62-.88 1.12-1.64 2.48-2.59 3.58-.76 1.4-2.05 2.15-3.38 2.98-1.83 1.14-3.86.94-5.85 1.06-2.1.13-4.56 1.85-5 3.81a14.25 14.25 0 0 0-.29 4.6c.11.99-.22 1.63-.53 2.46-.5 1.33-1.34 3.06-.24 4.18 1.35 1.37 1.16 2.46.41 3.85-.28.52-.4 1.12-.61 1.67l-.09.26-1.4 2.38a401.75 401.75 0 0 1-10.13 16.58c-2.35 2.45-3.7 5.51-5.66 8.18-.29.4-.55.94-.55 1.42-.03 3.82.05 7.64 0 11.47a158.1 158.1 0 0 1-.3 9.24c-.3 4.42-1.54 8.75-1.24 13.23.03.38-.23.79-.31 1.18-.3 1.42-.59 2.84-1.14 4.18-1.03 2.53-.76 4.92.3 7.33-1.29.38-1.17 1.56-1.41 2.52-.24.99-.17 2.08-.55 3-1.11 2.71-2.46 5.32-3.54 8.04a9.7 9.7 0 0 0 .35 8.42c.27 1.47.42 3.1 1.43 4.27 1.02 1.17 2.53 1.64 3.91 2.26.73.33 1.41.71 1.99 1.27.6.57 1.11 1.22 1.72 1.78.16.15.34.29.52.43.62.57 1.33.99 2.27 1.02.46.01.89-.09 1.29-.26a5.8 5.8 0 0 0 1.87-3.11c.24-1.03.17-2.07.26-3.12.11-1.39.43-2.75.8-4.09.36-1.3 1.98-1.08 2.42 0 .46 1.12 2.18 1.49 3.22 1.67 1.19.2 2.23-.16 3.21-.69a8.13 8.13 0 0 0 2.23-6.84c-.22-2.09-.32-4.19-.46-6.28-.02-.14-.03-.28-.02-.42a6.4 6.4 0 0 1 .02-1.07l.07-.55c-.02-.52-.06-1.03-.11-1.54-.09-.92-.14-1.84-.21-2.76-.08-1.01-.05-2.07.58-2.91.38-.51.81-.88 1.32-1.26l.46-.35.22-.19c.22-.21.47-.32.73-.4.73-.75 1.55-1.47 2.38-2.2l.03-.03.07-.06a54.63 54.63 0 0 1 1.45 13.21c-.01 1.48-.2 2.95-.26 4.43-.11 2.53-.17 5.07-.3 7.6a38.76 38.76 0 0 1-.52 4.02 99.52 99.52 0 0 0-1.34 12.06c-.22 3.78-.59 7.56-.9 11.34-.17 2-.42 3.99-.52 5.98-.1 2.08-.07 4.16-.07 6.24.01 2.9-.04 5.81.12 8.71.14 2.65.73 5.29.76 7.94.03 3.56-.26 7.13-.47 10.69-.06 1.07.26 1.74 1.15 2.42 2.54 1.93 5.63 2.69 8.49 3.74 3.56 1.32 7.02 2.69 10.19 4.77 1.23.81 1.83.71 2.52-.54 2.77-4.98 4.96-10.09 4.3-16.04-.26-2.34.04-4.74.09-7.11.03-1.33.19-2.66.09-3.98-.14-1.86-.44-3.71-.73-5.55-.31-1.92-.61-3.85-1.08-5.74-.4-1.58-.49-3.11-.15-4.8.79.12 1.51.35 2.22.31 2.29-.11 4.57-.33 6.85-.49.42-.03 1.02-.09 1.24.09.06 0 .12-.04.19-.04l.52-.06c.42-.06.85-.13 1.26-.23.35-.09.69-.03 1 .13.11.06.19.15.28.24h.13v.16c.08.12.15.25.19.38.07.21.04.46-.02.69.02.13.04.27.02.4-.03.2-.11.37-.22.54-.08 5.81-.02 11.47-1.2 17.1-.64 3.08-1.35 6.17-1.29 9.42.05 2.78-1.22 5.51-1.21 8.37 0 .18-.23.35-.33.53-.27.5-.62.98-.78 1.51-1.23 4.04-2.95 7.74-6.43 10.42a6.6 6.6 0 0 0-1.85 2.68c-.56 1.37.26 3.25 1.39 3.51 3.69.84 7.44 1.3 11.22 1.47.5.02 1.02-.16 1.52-.26.88-.17 1.74-.45 2.62-.51 2.95-.21 5.91-.39 8.87-.49 1.39-.05 2.22-.6 2.62-1.94.89-2.99 1.84-5.96 2.76-8.95l2.1-6.95c.84-.05 1.36-.04 1.87-.12 2.87-.48 3.62-1.16 4.15-3.15.3-1.15.93-2.98 1.34-4.09l3.31-9.01c1.11-3 1.64-6.14 2.5-9.2.72-2.57 1.49-5.11 1.8-7.77.12-.99.5-1.94.69-2.63h9.22l.2-.07c.28-.07.58-.12.87-.1.12 0 .21.03.32.05 1.05-.44 1.54.52 1.96 1.28a15.37 15.37 0 0 1 2.01 7.65c-.03 2.46-.08 4.87-.83 7.31a55.48 55.48 0 0 0-1.79 8.18c-.4 2.71-1.2 5.37-1.57 8.08-.34 2.48.59 3.92 2.92 4.73.8.28.97.69.96 1.48 0 2.5.12 5.01.14 7.51.02 1.82-.05 3.64-.07 5.46-.1.37.27.67.44 1.05.68 1.6 1.93 2.33 3.59 2.55.43.06.84.28 1.26.4 2.83.83 5.61 1.93 8.64 1.74 1.38-.09 2.76-.44 4.13-.42 4.76.07 9.49-.06 14.2-.82 2.82-.46 4.71-2.09 5.43-4.82.23-.87.17-1.61-.58-2.2-1.22-.96-2.41-1.93-3.62-2.89-2.38-1.88-4.79-3.74-7.15-5.65-1.56-1.26-2.95-2.67-3.15-4.9.39-.08.68-.2.96-.2 2.16.01 3.42-1.04 3.92-3.14.72-3.02 2.15-5.78 2.69-8.91.63-3.68 2.04-7.23 3.09-10.84.3-1.02.81-2.1.7-3.1-.25-2.4.91-4.46 1.34-6.68.27-1.4.87-2.74 1.28-3.98 10.85-3.14 21.21-7.31 31.7-11.32.15.33.34.63.38.98.27 2.25 1.02 4.41 1.74 6.55 1.54 4.62 3.21 9.2 4.82 13.79.73 2.09 1.56 4.16 2.15 6.3.25.92.66 1.65 1.49 1.66a4.6 4.6 0 0 0 1.52-.27c2.29-3.58 2.72-8.35 4.35-12.19a61.35 61.35 0 0 1 3.26-6.42c.08-.61.43-1.04.82-1.45 1.06-1.85 2.12-3.7 3.08-5.61a46.25 46.25 0 0 0 4.18-12.22c-.06-.16-.11-.3-.14-.44ZM259.69 76.99c-.06-2.44.4-4.89.49-7.34.02-.39-.05-.78-.13-1.17-.2-.51-.48-1-.59-1.54a6.65 6.65 0 0 1-.04-1.89c.02-.32.04-.65.11-.96l.09-.3v-.03c.07-.19.15-.37.21-.56a.56.56 0 0 1 .38-.38h.02a.5.5 0 0 1 .17-.03h.04l.06.02c.08 0 .15.03.22.07l.03.01c.44.11.77.54 1.02.88a10.98 10.98 0 0 1 1.8 4.25c.26 1.28.37 2.59.63 3.88.29 1.41.7 2.8.95 4.22l.29 1.66c.38 1.3.79 2.59 1.23 3.87.03.09.1.18.2.28.29.28.77.53.91.45.43-.24.97-.84.93-1.25a20.71 20.71 0 0 0-.79-4.71c-.56-1.68-.19-2.91.85-4a28.3 28.3 0 0 1 1.82-2.91c.52-.76 1.03-1.52 1.52-2.3.36-.57.74-1.15 1.25-1.59a13.14 13.14 0 0 1 4.42-3.84c.64-.31 1.55-.49 1.87.34.05.12.07.25.08.37l.07.08-.07.03c-.01.63-.48 1.23-.86 1.7-.64.79-1.37 1.49-1.97 2.32-.89 1.23-1.71 2.51-2.58 3.76-.47.68-1.02 1.41-1.54 2.18l-.09.18c-.24.55-.43 1.11-.7 1.63.02.42.08.86.07 1.28.06.1.14.19.24.27.66.53 2.19-2.04 2.49-2.47a65.69 65.69 0 0 0 3.21-5.08c.41-.73.84-1.46 1.36-2.12.46-.58 1.08-1.28 1.84-1.44.68-.15 1.19.35 1.2 1.02 0 .5-.19.93-.42 1.34-.29 1.08-.97 2.07-1.51 3.05-.8 1.46-1.63 2.89-2.4 4.36a15.8 15.8 0 0 0-1.05 2.29c-.13.4-.49 1.26-.05 1.46h.04l.12-.02c.37-.06.77-.27 1.09-.52.45-.35.72-.77 1-1.26l1.22-2.08c.88-1.52 1.51-3.15 2.48-4.61.48-.71 1.8-2.73 2.84-1.63.64.68.29 1.66-.16 2.33-.28.42-.62.8-.93 1.21-.38.49-.66 1.07-.99 1.59-.79 1.26-1.54 2.53-2.31 3.8-.4.66-.85 1.31-1.19 2.01-.09.18-.13.34-.14.5.05.15.13.29.23.42h.1c.34-.03.64-.18.91-.38 1.06-.79 1.62-2.16 2.26-3.27.64-1.12 1.35-2.19 2.06-3.26.45-.69 1.03-1.62 1.87-1.91.15-.11.31-.2.49-.26.68-.22 1.31.23 1.53.88.25.74-.05 1.54-.37 2.21-.35.72-.82 1.38-1.29 2.04-.59.83-1.19 1.64-1.92 2.36-.2.2-.41.38-.62.57a47.45 47.45 0 0 1-2.81 3.19l-1.72 2.61a499.58 499.58 0 0 0-4.98 7.91c-1.24 2-2.42 4.04-3.71 6.21-1.23-.91-2.5-1.96-3.88-2.84-1.47-.95-3.04-1.75-4.56-2.61l-4.32-2.44c.02-.05-.48-.61-.53-1.05-.13-1.06.27-2.04.43-3.07.1-.67.11-1.34.1-2.01-1.1-2.66.46-5.27.39-7.92Zm-49.72 66.71c.82-.35 1.69-.61 2.77-.96-.99 4.67-2.92 9.03-5.17 13.23a33.03 33.03 0 0 1-3.16 3.54c-1.9 1.86-3.74 3.78-5.54 5.73-.98 1.07-1.91 2.2-2.14 3.63a15.42 15.42 0 0 0-1.83 4.44c-.14.62-.21 1.29-.27 1.96-.52 1.5-1.02 3.01-1.62 4.48l-.28.67c-.25.29-.48.57-.66.88-1.2 2.08-1.17 2.1-3.29 1a4.73 4.73 0 0 1-1.03-.45l-.56-.37a6 6 0 0 1-.24-.18l-.24-.18-1.06-.79c-.86-.47-1.62-1.2-2.44-1.77-.47-.33-.79-.88-1.21-1.3a5 5 0 0 1-1.34-4.63c.25-1.45.72-2.91 1.37-4.23 1.57-3.2 3.26-6.35 5.01-9.45.46-.8 1.3-1.43 2.06-2.01 1.24-.94 1.78-2.2 2.3-3.63.84-2.33 1.33-4.82 2.99-6.86.8-.98 1.12-2.37 1.59-3.6v-.02c.47.12.95.16 1.43.19h.09v.14c.22.04.43.06.63.11 1.23.26 2.54.33 3.66.82 2.83 1.23 5.49.79 8.18-.37Zm-20.62 43.69c-.8 4.56-3.84 8.06-5.5 12.21-3.53-1.04-6.08-3.55-8.84-5.71-.84-.66-.9-2.3-.26-3.22.32-.46.77-.93.87-1.44.07-.37.15-.71.25-1.04.1-.81.51-1.61.9-2.3.32-.57.65-1.11.92-1.7.31-.68.64-1.35 1.13-1.91.6-.68 1.45-.92 2.3-.6.76.29 1.44.72 2.08 1.22.1.08.16.18.21.29l5.94 4.19Zm19.36-58.31a10.15 10.15 0 0 1-7.42 7.46c-4 1.12-8.03 2.14-12.08 3.05-1.93.43-3.9.59-5.88.66a9.93 9.93 0 0 0-4.92 1.42c-.06.03-.14.04-.21.06-.02.04-.03.06-.04.05l-.03.04-.12.22-.06.13c-.06.11.05-.09.04-.09-.06 0-.15.51-.16.57V143.08l.03.1s0 .03.02.05l.06.1.08.07c.02 0 .03.02.05.03l.18.05.08.02h.41l.85-.08c.5-.05 1-.09 1.5-.09.39 0 .77.03 1.16.02l.35-.01h.05l.17-.03h.04l.04-.02h.04c.24-.13.49-.18.74-.13 3.09-.52 6.18-.88 9.35-.75-1.67.81-2.03 2.21-2.35 3.67-.3 1.35-.36 2.87-1.04 4.01-1.09 1.84-1.77 3.92-3.77 5.27a11.52 11.52 0 0 0-4.16 4.97c-.98 2.27-1.57 4.71-3.24 6.72-.95 1.14-1.25 2.82-1.89 4.37-3.08-.77-6.09-1.5-9.1-2.27-3.02-.77-6.04-1.56-9.05-2.39-2-.55-4.04-1.03-5.94-1.84-1.08-.47-1.93-1.51-2.84-2.34-.27-.24-.38-.64-.63-.92-.9-1.02-2.14-1.84-1.69-3.55.35-1.33.38-2.67 1.45-3.85 1.55-1.72 1.16-3.95.81-6.07-.11-.69-.13-1.4-.2-2.15-2.58-2.26-4.33-5.11-4.57-8.76-.17-2.51-1.38-4.66-2.26-6.93-.12-.3-.45-.66-.75-.8-3.05-1.43-5.74-3.5-8.8-4.9-3.1-1.42-3.83-3.43-3.88-6.87-.03-2.62 1.36-4.63 1.99-6.92l.04-.12.02-.1c.02-.08.05-.15.06-.23l.11-.42c1.12-2.9 5.65-.92 7.41.51.23.19.42.41.59.64l.09.46c.54 2.93 1.07 5.84 2.6 8.49.38.66.39 1.57.43 2.38.09 1.92 2.63 3.32 4.39 3.31 1.76 0 3.57-.28 5.28-.74.17-.05.33-.14.48-.27a3.24 3.24 0 0 0 .97-3.08c-.66-3.7-.82-7.43-.45-11.21a9.2 9.2 0 0 0-2.79-7.39 13.5 13.5 0 0 1-2.45-3.81 7.29 7.29 0 0 0-1.1-1.61c-2.28-2.69-2.34-4.11-1.05-7.62 1.62-4.43 3.59-8.76 4.28-13.48 0-.06.09-.11.29-.33.5-.03 1.01-.07 1.52-.09 2.16.06 4.33.53 6.48.25l.14.02a4.2 4.2 0 0 0 3.76-1.21c.66-.68 1.5-1.18 2.22-1.81.6-.52 1.1-1.08 1.48-1.74l.74-.92c.9-1.19 1.6-2.62 2.63-3.7 1.09-1.15 3.08-.61 4.5-.52 1.7.12 3.42.16 5.08.52.83.18 1.61.31 2.4.39.44.2.88.42 1.31.67 1.81 1.04 3.07-.27 4.17-1.13a18.1 18.1 0 0 0 3.47-3.97 3.9 3.9 0 0 1 1.73-1.49c1.59.02 3.25.29 4.82.4 1.35.1 3.39-.07 4.21 1.2.37.8.68 1.62.73 2.48.04.69-.01 1.39.06 2.08.06.58.21 1.11.4 1.64.05.34.15.69.35 1.06.28.54.3 1.21.38 1.85.09.2.16.41.18.64a21.31 21.31 0 0 1 2.33 10.23 38.9 38.9 0 0 0 .28 5.5c.11.82.02 1.66.11 2.48.17 1.7.25 3.42.6 5.08.51 2.39.73 4.85 1.25 7.19.93 4.23.49 8.53 1.42 12.78.92 4.22.79 8.71-.38 12.99Zm-66.75 25.53c-.39.05-.75.12-1.12.14-2.52.14-5.04.33-7.56.36a9.71 9.71 0 0 1-3.26-.51c-2.69-.95-5.39-1.9-8.06-2.91-1.5-.82-3-1.66-4.48-2.51-2.38-1.36-4.88-2.63-7.13-4.2-.21-.15-.39-.3-.58-.46l-.72-.69c-1.35-1.5-1.9-3.36-2.08-5.34.03-.49 0-.98-.07-1.47-.02-1.33.05-2.69.1-4.02.46-1.72.97-3.42 1.41-5.14.66-2.57 1.32-5.14 1.84-7.74a3.42 3.42 0 0 0-.39-2.09l-.43-.76a47.08 47.08 0 0 0-4.25-9.44l-2.88-7.52c-.98-2.56-2.05-5.13-2.53-7.84-.22-1.21-.32-2.41-.61-3.6-.31-1.3-.03-2.36.41-3.6a18.15 18.15 0 0 1 2.92-5.16c3.48-2.87 8.1-4.96 11.03-7.81a16.14 16.14 0 0 0 3.71-5.76.9.9 0 0 0 .15-.41c.38-1.03.7-2.1.97-3.19.45-1.86.8-3.75 1.32-5.6.57-2.03 1.34-4 2.09-5.97l1.84-4.84c.49-.91.9-1.85 1.1-2.89l1.05-2.76c.38-.65.8-1.29 1.17-1.93.1-.17.22-.31.34-.46.57-.44 1.26-.7 2.02-.84 2.62-.5 5.46-.37 8.11-.44 5.25-.13 10.49-.04 15.73.22l-8.98 13.02-.04.26c0 .64.22 1.27.67 1.84a3 3 0 0 0 .99.31c.63.1 1.38.1 1.9-.31.62-.5.98-1.36 1.31-2.07a25.6 25.6 0 0 1 3.57-5.25c.69-.83 1.37-1.7 2.17-2.42.93-1.82 2.84-2.88 4.01-4.5a274.4 274.4 0 0 0 4.38-6.18c.07-.11.15-.19.23-.28 2.61-1.35 5.99-1.33 8.85-1.62l1.93-.17c.36.03.73.04 1.08.09 4.55.59 9.11.34 13.66.46.42.01.84.04 1.44.45-.44.27-.85.59-1.32.81-1.71.8-3.52 1.43-5.13 2.39-1.66 1-1.93 2.11-1.12 3.12-.08.3-.14.62-.14.94-.01.99.4 1.92.87 2.78.49.91 1.01 1.8 1.52 2.7.23.41.45.87.74 1.26.04.06.08.11.13.15.26.32.58.58 1.01.71.87.25 1.84-.09 2.24-.92.41-.87.02-1.92-.24-2.78-.3-.98-.66-1.93-.94-2.91a7.3 7.3 0 0 1-.42-2.96c.06-.45.27-.81.55-1.1l.39-.2c2.05-.98 4.13-1.91 6.55-3.02l5.59 6.12c.3.33.61.66.96.93 3.33 2.58 5.82 5.89 8.04 9.42.77 1.22 1.88 2.22 1.54 3.98-.27 1.41-.18 2.85-.8 4.23-.43.95-.45 2.08-.73 3.51 1.85 2.19 3.68 4.86 6.05 7.16 1.89 1.83 3.41 4.05 4.94 6.21 1.27 1.78 2.17 3.82 3.51 5.54 1.72 2.22 1.65 4.57.78 6.93-.47 1.27-1.07 2.52-1.57 3.8a4.98 4.98 0 0 1-2.53 2.92 1.4 1.4 0 0 0-.35.25l-.76.39-.36.19-.24.12c-.1-.03-.54-.26-.56-.27-.53-.3-1.02-.64-1.55-.93-.6-.33-1.24-.6-1.89-.83-.64-.23-1.22.37-1.26.96-.03.46.04.92.19 1.36.22.92.59 1.8.97 2.67.19.44.45.65.8.95.07.06.13.15.19.22l.2.28.13.14.26.39c.53.75 1.1 1.48 1.5 2.31l.88 1.84c.34 1.19.76 2.35 1.17 3.52.71 1.99 0 3.77-1.15 5.23-1.77 2.24-3.82 4.26-5.92 6.56-.11-.71-.29-1.27-.27-1.82.34-6.74-1.2-13.23-2.61-19.75a58.52 58.52 0 0 1-.75-4.59c-.24-1.76-.77-3.58-.54-5.29.71-5.21-.96-9.96-2.39-14.78a37.77 37.77 0 0 0-1.46-3.92c-.09-.21-.2-.4-.32-.55-.02-.61 0-1.22 0-1.83 0-1.5-.12-2.95-.73-4.34 0-.02-.02-.02-.03-.04l.03-.03c-.19-.26-.33-.69-.59-.8-.51-.2-1.03-.39-1.55-.57a7.55 7.55 0 0 0-2.38-.7 24.92 24.92 0 0 0-8.05-.75c-.33.02-.7.09-.97.26-1.52.29-1.97 1.11-3.01 2.23-1.63 1.77-2.82 1.73-4.99 2.78-.22.1-3.2.2-3.32.35l-.37-.03-.55-.09c-.54-.07-1.09-.13-1.63-.17-1.88-.3-3.75-.63-5.6-1.06-1.37-.32-2.27-.34-3.44.93l-.7.76a16 16 0 0 0-2.54 2.17c-1.09 1.18-1.96 2.55-3.07 3.7a6.36 6.36 0 0 1-4.08 1.87c-.95.12-1.91.21-2.87.3l-2.58-.44a2.34 2.34 0 0 0-1.48.38c-.17.11-.35.19-.52.28h-.04c-.74.16-1.4.47-2.06.79-1.75.44-3.57.45-5.38.52l-1.09.05a47.02 47.02 0 0 0-7.12.17c-.81.08-1.5.62-1.51 1.49 0 .74.68 1.59 1.49 1.51 3-.3 6.02-.33 9.03-.04 1.14.11 2.22.21 3.3-.02-.58 3.41-1.85 6.5-3.16 9.7-.93 2.28-2.08 4.77-2.19 7.26l-.04.07c-.61 1-.6 1.85.2 2.81l.55.67a189.5 189.5 0 0 1 5.88 7.38 22 22 0 0 1 1.77 5.73c.11.74.07 1.51.03 2.26-.08.36-.12.73-.06 1.09-.05 1.05-.08 2.11-.14 3.16a7.46 7.46 0 0 1-.66 2.83c.01-.02-.34.66-.22.55.11 0 .09 0-.05.02h-.25c-.28.01-.68.01-.95-.14-.24-1.7-1.23-3.09-1.88-4.63l-.05-.12-.3-1.02a1.37 1.37 0 0 0-.5-.78 12.26 12.26 0 0 1-1.2-4.47c-.03-.92-.58-1.5-1.42-1.81-3.12-1.18-6.25-2.34-9.38-3.51-1.54-.58-3.22.49-3.83 1.87-.39.87-.7 1.8-.91 2.73-.67 3.02-1.49 6.02-1.82 9.08-.17 1.56.19 3.18-.21 4.8-.12.47.4 1.32.86 1.69 1.39 1.1 2.79 2.3 4.38 3.02a36.12 36.12 0 0 1 7.87 4.86c.46.37.7 1.1.88 1.71.25.85.41 1.74.52 2.62.28 2.23 1.55 4.05 2.4 6.04l.68 1.62c-1.33.93-2.7 1.94-4.13 2.54-.81.34-1.74.36-2.59.12a15.78 15.78 0 0 1-3.57-3.54 4.02 4.02 0 0 0-2.3-1.61 7.39 7.39 0 0 0-1.68-.62c-.74-.16-1.64-.13-2.32-.46-1.27-.61-3.34-.47-3.97-1.61-.92-1.64-.15-3.86-1.49-2.99-1.6 1.04-1.76 2.86-1.27 4.57.36 1.28 1.07 1.96 2.01 2.25 1.28.77 2.44.82 3.66.64l.2-.02c.39.14.79.24 1.2.31 1.51.26 2.72.56 3.8 1.73.79.86 1.32 1.84 2.12 2.65.32.45.64.9.94 1.37.91 1.44 2.09 1.91 3.59 1.12.39-.21.77-.44 1.14-.69 2.35-.35 4.46-1.98 6.43-3.33.49.93 1.07 1.78 1.18 2.68.11.88-.46 1.84-.76 2.86-1.57.04-2.72.86-3.24 2.53Zm-26.91 25.58a4.76 4.76 0 0 1 2.89-1.86c2.53-.56 4.71-1.79 6.93-2.97 1.47-.79 2.41-2.14 3.36-3.47.82-1.15 1.6-2.34 2.55-3.37a9.48 9.48 0 0 1 4.49-2.79c1.98-.55 3.8-1.62 6.01-1.38l.56.07c.6-.1 1.26 0 1.85.12.61.13 1.21.3 1.79.51.56-.06 1.11.19 1.77.74 1.33 1.09 3.14 1.6 4.74 2.38 4.87 2.38 10.41 2.19 15.44 4.01 2.16.78 4.38 1.4 6.56 2.11.34.11.65.34.95.54.55.38 1.09.78 2.02 1.45h-.01c.09.09.16.17.24.29l.03.06.11.27v.03l.02.04.04.3v.06c0 .11-.03.23-.04.34l-.01.07a6.84 6.84 0 0 1-.32.71c-.87 2.08-1.71 4.18-2.68 6.21-1.19 2.51-2.44 5-3.83 7.41-.52.9-1.32 1.7-2.75 1.33-1.12-.29-2.37-.16-3.56-.14-1.96.04-3.71-.54-5.51-1.32-2.3-1-4.75-1.67-7.18-2.33-2.29-.62-4.65-1.02-6.97-1.56a21.64 21.64 0 0 0-8.85-.14c-3.14.1-6.29.32-9.43.41-1.02.03-2.04.04-3.06.03a21.45 21.45 0 0 0-3.17-.55c-1.55-.14-3.11-.24-4.77-.33a3.05 3.05 0 0 1-1.04-.69 2.93 2.93 0 0 1-.74-1.78c.22-1.69.71-3.31 1.59-4.79Zm-7.17 95.37c-.14.87-.11 1.76-.21 2.64-.15 1.24-.31 2.44-.4 3.66v3.71c.05.81.15 1.6.41 2.4.27.83.45 1.78.16 2.62-.42 1.17-1.74 1.52-2.82 1.05-.92-.41-1.43-1.31-1.69-2.25-.49-1.78-.26-3.69-.32-5.51-.02-.72-.09-2.31-1.23-2.06-.6.13-1.14.72-1.63 1.27-.22.4-.39.84-.48 1.39a12.82 12.82 0 0 1-1.54 4.3 20.62 20.62 0 0 0-2.25 5.56c-.13 1.1-.11 2.22-.15 3.32 0 .17-.03.36-.06.54 0 .31-.03.62-.1.92-.11.27-.23.62-.44.82-.24.22-.6.23-.9.24-1.47.05-1.84-1.37-2.06-2.58-.48-2.65.07-5.41 1.13-7.85.3-.71-.74-1.31-1.05-.6-.8 1.86-1.4 4.02-1.48 6.15 0 .03-.03.05-.03.09l-.07.24c-.06.1-.14.19-.22.27a1.5 1.5 0 0 1-.44.19c-.39.1-.87.21-1.23 0-.77-.46-.65-1.84-.67-2.6-.02-1.04.03-2.09.17-3.13.03-.24.08-.47.15-.68v-.02c.22-.64.57-1.19.99-1.78.46-.63-.6-1.22-1.05-.6l-.3.43-.02.02-.03.04-.08.12c-.19.3-.37.6-.51.92-.26.6-.34 1.24-.41 1.89-.05.44-.08.89-.11 1.34-.29.32-.8.27-1.05-.1-.47-.7-.52-1.68-.59-2.5-.08-.97.19-1.94.55-2.83.38-.94.9-1.8 1.36-2.69.66-1.66 1.31-3.32 1.9-5.01.68-1.95 1.16-3.97 1.64-5.98.22-.91.6-1.33 1.6-1.49 2.87-.48 5.69-.65 8.57.02 1.49.35 3.07.32 4.62.43h.44c.31-.06.63-.11.95-.13.74-.04 1.18.61 1.26 1.26.1.87-.13 1.7-.27 2.56Zm6.98-14.41c-1.01 1.63-2.32 3.1-3.28 4.75-.74 1.28-1.87 2.01-3.88 1.71a32.3 32.3 0 0 0-10.65.16c-1.44.26-2.95.17-4.89.26.19-4.41.29-8.49.56-12.56.24-3.63.65-7.24 1-10.86.42-4.33.88-8.67 1.3-13 .15-1.55.37-3.11.34-4.66a8.94 8.94 0 0 1 1.1-4.26 28.08 28.08 0 0 1 4.62-6.63 46.51 46.51 0 0 0 7.04-10.19c.3-.56.66-1.09 1-1.63l.23-.8c1.05-3.6 2.31-7.3 4.97-10.05.12-.12.25-.2.38-.27.98-.21 2.04-.11 3.03-.09 1.13.02 2.26.03 3.39-.01 2.27-.09 4.44-.64 6.68-.85 2.7-.25 5.41-.39 8.12-.52 1.76.1 3.52.2 5.27-.07 1.3-.2 2.67-.03 4 .07 4.39.34 8.62 1.28 12.64 3.2 3 1.43 6.26 1.7 9.56 1.55.37-.02.76.05 1.12-.03 2.71-.67 4.71.9 6.78 2.18 1.8 1.12 3.47 2.52 5.38 3.4 1.76.81 3.23 2.57 5.66 1.91l2.85-5.46c1.05-2.01 2.12-4 3.16-6.01.62-1.19 1.21-2.35.99-3.82-.08-.56.36-1.28.73-1.81a34.09 34.09 0 0 0 4.05-8.18c1.02-2.79 2.36-5.45 3.52-8.19.14-.33.23-.68.32-1.04.88-1.53 1.87-2.98 2.85-4.49a70.24 70.24 0 0 0 2.09-3.45c.48-.51 1.01-.98 1.51-1.46 2.65-2.59 4.51-5.76 6.22-8.93 1.49-2.77 2.35-5.9 3.26-8.94.56-1.88 1.95-2.86 3.31-3.96.63-.51 1.45-.88 1.88-1.51 1.32-1.94 3.34-2.91 5.2-4.14 1.66-1.1 3.26-2.3 4.89-3.46 1.51-1.08 2.93-2.34 4.56-3.19 2.52-1.31 4.01-3.28 5.07-5.85 1.46-3.56 3.24-6.99 4.83-10.49.15-.33.27-.67.39-1.01a23.65 23.65 0 0 0 1.69-4.02l.49-1.6a77.04 77.04 0 0 1 2.74-5.05l2.12-3.18c2.53-.25 4.83.54 7 1.73 1.92 1.05 3.74 2.28 5.62 3.4.61.37 1.25.72 1.92.95 1.67.58 2.39 1.52 1.97 3.21-1.05 4.19-1.96 8.41-3.2 12.55-1.26 4.24-2.71 8.42-3.54 12.81-.75 3.99-2.48 7.74-5.7 10.59-1.02.9-1.68 2.24-2.42 3.42-1.41 2.25-2.75 4.55-4.16 6.81-.23.37-.65.6-.93.94a317.2 317.2 0 0 0-3.98 4.93c-2.59 3.3-4.2 7.2-6.52 10.68-.44.65-.84 1.33-1.22 2.01l-5.19 7.02c-.85 1.16-1.78 2.29-2.42 3.59a.08.08 0 0 0-.05.02l-.03.16-.16.32a9.68 9.68 0 0 0-.67 3.32l-.05.22c-.49 2.16-.45 4.27-.51 6.46-.01.45-.04.89-.06 1.34.2 1.26.25 2.49.11 3.81-.27 2.49-.11 5.04-.1 7.56 0 1.26.07 2.53.09 3.79-.06.17-.1.35-.1.57 0 .39.04.77.07 1.15v.25c-.21 3.18.4 6.19 1.26 9.23.24.85.46 1.71.68 2.57l.08.31.02.06c.74 2.97 1.37 5.97 2.18 8.92.08.3.18.59.29.89.35 1.84.61 3.7.8 5.57-.14 1.38.11 2.69.29 4.02.05 1.11.09 2.23.09 3.35v.72c-.4 1.49 0 3.02-.1 4.51a53.55 53.55 0 0 0-.15 5.07c-.1 2-.3 4-.87 5.89l-.14.16c-.79.88-2.29 1.38-3.55 1.55-5.54.74-11.12.69-16.7.54-.88-.02-1.76.03-2.63.11a20.28 20.28 0 0 0-6.18.55c-.69.08-1.37.16-2.06.26-2.55.36-5.06 1.01-7.61 1.42-1.39.23-2.81.28-4.22.33-5.68.21-11.38.14-17.03.66-1.03.1-2.05.14-3.08.18-1.95-.01-3.9 0-5.85.04-3.13.08-6.24.46-9.36.55-1.63.05-4.52-.43-5.38-2.06l.08-.19-.18-.13v-1.69c.02-.17.03-.32 0-.47v-4.1c.02-2-.11-3.94-.68-5.9-.76-2.63-1-5.41-1.76-8.04a39.3 39.3 0 0 1-.56-3.39c-.21-2.19-1.29-2.61-2.13-4.64-.82-1.98-1.87-4.05-2.4-6.14-.51-2.03-.94-4.6-1.91-6.48-1.1-2.15-1.12-4.76-1.15-7.19-.02-2.23.1-4.42-.36-6.62-.13-.61-.81-1.16-1.44-1.12-.3.02-.56.08-.8.15-.17 0-.34-.02-.51 0l-.3.03h.2c-.06 0-.17 0-.24.02l-.29.08-.08.02-.24.13-.12.08-.21.18-.05.06c-.04.08-.17.24-.19.28l-.08.15-.04.09c-.04.15-.05.35-.07.44.05-.31 0 .02 0 .15l-.06.53c-.17.32-.33.65-.49.99-.89 1.86-2.23 3.41-3.56 4.97a60.7 60.7 0 0 0-4.8 6.63c-.32.34-.63.7-.91 1.07-1.9 2.55-3.88 5.07-5.5 7.79a9.46 9.46 0 0 0-1.18 7.17c.32 2.21.46 4.47.26 6.69-.22 2.39-1.19 4.68-1.95 6.94l-3.03 8.99Zm21.89 89.34c-.18 3.84-.85 7.67-1.43 11.49-.17 1.14-.76 2.23-1.14 3.28-1.91.49-3.19-.23-4.44-.84a69.42 69.42 0 0 0-10.23-4.21c-1.61-.48-2.57-1.39-2.79-3.04-.12-.88-.27-1.77-.25-2.66.07-2.88.26-5.76.32-8.64.05-2.52-.05-5.04 0-7.56.05-2.28.3-4.56.34-6.84.02-1.25-.06-2.54-.33-3.75a17.6 17.6 0 0 1-.02-7.91c.34-1.48.16-3.07.34-4.6.13-1.17.3-2.38.73-3.45 1.19-2.96 1.36-6.08 1.61-9.18.66-8.1.97-16.22.65-24.34-.08-1.99-.58-3.97-.84-5.96-.36-2.79-.88-5.58-.94-8.38-.03-1.65.65-3.33 1.16-4.94 0-.02.04-.04.05-.06.72-2.53 1.5-5.04 2.16-7.6.49-1.91.92-3.85 1-5.82.07-1.96-.39-3.86-.42-5.81-.05-2.86 1.28-5.51 2.8-7.92.26-.58.56-1.14.98-1.64.9-1.07 1.53-2.37 2.34-3.53.53-.76 1.17-1.43 2.08-2.53.64 3.27 1.39 6 1.64 8.77.17 1.88-.36 3.82-.55 5.73-.35 3.5-.24 7.02.78 10.37.83 2.71.72 5.43.95 8.16.54 6.37 1.15 12.73 1.69 19.1.32 3.7.66 7.41.83 11.12.07 1.54-.31 3.1-.43 4.66-.29 3.77-.54 7.54-.82 11.31l-.83 11.12c-.13 1.82-.4 3.65-.29 5.46.1 1.76.6 3.49.94 5.24.8 4.09 1.39 8.21 1.46 12.39.01.59-.01 1.22.16 1.77 1.17 3.7.9 7.53.73 11.29Zm13.64-29.21c-1.83-.17-3.5.7-5.27.91-2.2.26-4.41.5-6.61.7-.34.03-.7-.16-1.33-.32.26-3.48-.72-6.88-.04-10.39.47-2.46.56-5.01.75-7.52.32-4.14.48-8.29.92-12.41.46-4.36-.24-8.66-.38-12.98-.21-6.47-1.96-12.76-1.8-19.27.08-3.01-.59-6.03-.73-9.05-.09-1.99.18-3.99.26-5.99.03-.74.03-1.48 0-2.22-.09-1.62-.1-3.26-.34-4.86-.62-4.1-1.39-8.17-2.01-12.27-.21-1.35-.77-2.6-.52-4.11.3-1.85 1.38-2.99 2.63-4.35.24.35.46.55.52.79.3 1.29.86 3.81 1.13 5.1 1.11 5.35 3.48 8.8 6.07 13.51.8 1.46 1.52 2.97 1.96 4.56.09 2.1.03 4.21.15 6.32.03.56.1 2.15.08 2.39-.08 1.02.89 6.11 1.21 7.72.11 1.31.21 2.62.29 3.93a15.8 15.8 0 0 0 2.54 7.87c.73 1.11.69 3.11.28 4.49-.82 2.78-.79 5.56-.86 8.37-.11 4.7-.14 9.4-.18 14.1-.02 1.85-.06 3.72.1 5.56.03.36.04.72.04 1.08.8 2.92.66 6.02 1.63 8.91.92 2.75 1.95 5.52 1.77 8.47-.01.24-.09.43-.19.6v.06l-.06.02c-.46.65-1.46.75-1.99.26Zm16.62 48.61c-.12.58-.39 1.13-.48 1.72a8.9 8.9 0 0 1-2.63 5.05c-.46.46-.75 1.11-1.26 1.5a4.1 4.1 0 0 1-1.91.95c-3.54.29-7.09.56-10.64.62-2.04.04-4.11-.11-6.67-.86 3.15-4.18 6.29-7.85 7.29-12.52 3.29-2.37 6.89-2.43 10.57-2.18 1.48.1 2.98 0 4.46.01.72 0 1.45.09 2.39.16-.07 2.05-.75 3.78-1.11 5.56Zm22.12-44.88 3.04-8.67.57-.16 5.37 8.78c-1.35.61-7.24.64-8.98.05Zm36.16 45.3c.17.29.57.46.9.64 4.12 2.26 7.25 5.71 10.83 8.79-.65 1.39-1.84 1.25-2.78 1.51-.92.26-1.9.39-2.85.41-5.8.12-11.6.28-17.39.21a17.23 17.23 0 0 1-5.19-1.15 4.85 4.85 0 0 1-3.35-3.6c-.6-3.09-1.03-6.22-.41-9.39.12-.63.02-1.29.02-2.12 3.56-.08 6.99-1.73 10.73-1.48.72.05 1.46-.2 2.18-.35 1.14-.24 2.27-.5 3.16-.7 1.48 2.6 2.79 4.92 4.15 7.22Zm12.63-57.11a52 52 0 0 1-2.06 9.01c-.48 1.39-.64 2.89-.93 4.34-.4 2.04-.72 4.09-1.16 6.12-.63 2.9-1.29 5.8-2.02 8.67-.67 2.66-1.45 5.29-2.18 7.93-.5 1.81-1 3.62-1.54 5.42-.42 1.41-.84 2.83-1.37 4.2a2.26 2.26 0 0 1-2.25 1.55c-1.49-.05-2.97-.21-4.45-.27-.71-.03-1.43 0-2.13.08-1.76.22-3.52.45-5.26.75-1.09.19-2.15.52-3.23.76-2.46.55-4.92.97-7.39.04-.2-.08-.36-.25-.79-.56.5-2.42.98-4.96 1.55-7.48.88-3.91 2.12-7.76 2.65-11.72.44-3.3.49-6.7-.8-9.99a68.66 68.66 0 0 0-6.36-12.09 31.79 31.79 0 0 1-3.17-6.06c-.44-1.19-1.64-2.09-1.46-3.56-.62-2.66.41-5.8 1.07-8.31.28-1.08.35-2.41.04-3.53-.1-.37-.11-.4-.29-.72l-.11-.16-.08-.09-.15-.13c-.18-.13-.26-.13-.45-.13-.18 0-.35.02-.52.06a5.43 5.43 0 0 0-1.58 2.96c-.41 1.67-.06 3.52-.26 5.26-.19 1.6-.6 3.2-1.08 4.75a54.47 54.47 0 0 1-4.4 10.13c-.48.88-.58 1.99-.76 3.01-.65 3.65-1.08 7.35-1.93 10.95-.6 2.51-1.91 4.85-2.61 7.35-.81 2.91-1.93 5.72-2.52 8.71a15.04 15.04 0 0 1-1.22 6 7.42 7.42 0 0 1-4.34 4.01c-1.34.5-2.77.73-4.2.9a.77.77 0 0 1-.29.1c-1.3.19-2.49.05-3.77-.18-1.13-.2-2.24-.12-3.37-.06-1.16.06-2.32-.03-3.48.04-.82.05-1.57.31-2.37.44-.83.14-1.66.04-2.26-.63-.6-.67-.7-1.67-.61-2.53.11-1.09.45-2.16.86-3.19a8.7 8.7 0 0 1 .25-1.91c.94-3.43.98-6.93 1.12-10.42.2-5.04.24-10.1.44-15.14.07-1.84.58-3.67.56-5.51-.02-1.91-.44-3.82-.69-5.73-.17-1.33-.31-2.66-.52-3.98a89.74 89.74 0 0 0-.99-5.44c-.47-2.1-.59-4.22-.83-6.34-.4-3.48-.26-6.94-.32-10.41-.08-4.15.02-8.32.36-12.45.19-2.29 0-4.69 1.15-6.89.56-1.07 1.22-1.51 2.42-1.55 2.31-.07 4.61-.25 6.91-.46 1.15-.11 2.28-.52 3.43-.56 4.01-.14 8.03-.14 12.04-.41 5.95.05 11.9 0 17.81-.77 1.73-.22 3.44-.54 5.14-.91l7.65-.92c.29-.04.59-.12.85-.24a8.28 8.28 0 0 1 2.23-.63c.85 0 1.7.06 2.58.17 1.17.15 2.33.28 3.48.38 1.58.17 3.16.21 4.74.26 3.78.11 7.57.03 11.5.03.16 2.4.53 4.99.46 7.56-.1 3.93-.11 7.82.45 11.74.44 3.06.44 6.19.46 9.29.02 3.08.87 6.01 1.36 9.01.36 2.19.86 4.36 1.13 6.55.14 1.15.05 2.36-.14 3.52Zm32.08-1.08c-.08.02-.15.01-.23.05a391.5 391.5 0 0 1-25.72 9.75c-.9.31-3.5 1.66-3.9.37l-.07-.12a19.6 19.6 0 0 0 1.29-4.24c.16-1.24.27-2.49.29-3.74.02-1.25.15-2.49.26-3.74 0-.51 0-1.01-.02-1.51-.09-5.26-1.46-10.84-2.03-16.06a265.5 265.5 0 0 1-1.41-26.3c.32-1.72.1-2.57.17-4.27.02-.47.09-.93.2-1.39.23-.91.61-3.11.54-3.34.28-2.02.22-5.19.25-7.25l.21-14.36c.27.21 1.45 2.12 1.62 2.37.52.76.89 1.64 1.39 2.42 2.57 4.06 4.97 8.23 6.98 12.6 1.66 3.61 3.41 7.21 5.42 10.65a52.7 52.7 0 0 1 5.35 12.84c1.06 3.86 2.39 7.64 3.49 11.49a596.5 596.5 0 0 1 3.92 14.35c.72 2.77 1.29 5.59 1.93 8.38.1.44.12.79.06 1.08Zm24.5-1.78c-.07.48-.39.95-.68 1.37-1.41 2.06-2.89 4.08-4.26 6.16-1.31 1.97-2.45 4.06-3.79 6-1.38 2-2.03 4.26-2.6 6.55-.44 1.78-.75 3.58-1.17 5.64-1.78-1.47-1.98-3.45-2.85-5.05-.31-.56-.52-1.18-.74-1.79a61.28 61.28 0 0 1-1.08-3.14c-.79-2.55-1.64-5.09-2.29-7.67-.4-1.62-.48-3.32-.7-4.98-.06-.44-.06-.89-.17-1.32-.93-3.41-1.95-6.8-2.82-10.22-.53-2.08-.84-4.22-1.27-6.33a100.14 100.14 0 0 0-4.89-16.35c-1.36-3.52-2.48-7.15-4.08-10.56-2.89-6.16-5.06-12.66-8.72-18.44-1.02-1.61-2.47-3.03-3.12-4.77-.89-2.39-2.82-4.08-3.51-6.7-.47-1.8-7.21-9.43-8.17-12.65l-.47-1.59-.02-.03v-.02a149.7 149.7 0 0 1-1.4-5.02 24.45 24.45 0 0 1-.67-3.28c-.12-.99-.11-1.99-.21-2.97-.11-1.08-.47-2.08-.7-3.13-.05-.22-.07-.43-.11-.65l-.02-.18-.02-.02c-.02-.13-.05-.25-.06-.38 0-.08 0-.16.02-.23-.53-6.58-.34-13.2-.31-19.8-.31-1.7.2-3.72.61-5.51a8.05 8.05 0 0 1 2.64-4.21 17.82 17.82 0 0 1 2.96 6.69c.24 1 .6 1.98.9 2.97.45 1.48.93 2.96 1.33 4.45.99 3.75 2.68 7.21 4.42 10.64.65 1.27 1.32 2.53 1.99 3.78.49 1.13 1.07 2.22 1.63 3.31 1.12 2.18 2.22 4.37 3.31 6.57.26.78.5 1.56.82 2.31a45.87 45.87 0 0 0 4.07 7.99c.16.24.3.49.44.73l1.26 2.67.51 1.11.16.41c.17.44 1.67 4.06 2.28 5.42l.56.76c.9 2 1.79 4.01 2.67 6.02.69 1.59 1.43 3.19 2.15 4.8 1.38 4.09 2.64 8.23 4.1 12.29.28 1.29.57 2.57 1.01 3.82.54 1.55 1.53 3.03 2.21 4.58.24.84.47 1.7.74 2.53l.03.1c.03.09.05.19.09.28.43 1.25.85 2.53 1.5 3.66 1.34 2.29 2.8 4.52 4.27 6.73 2 2.99 3.76 6.12 6.2 8.85a26.19 26.19 0 0 1 5.13 8.18c.33.89.7 1.76 1.06 2.64.98 2.36.16 4.69-.16 7.02Z"/>
    <path d="m319.88 189.67-.48-.62c-.4-.4-.82-.79-1.25-1.15-.31-.26-.6-.54-.89-.82a28.1 28.1 0 0 1-1.72-1.33c-1.39-.53-2.43-1.73-3.66-2.53-.39-.25-.79-.52-1.16-.82-1-.37-1.4-1.43-1.49-2.46-.13-1.44.1-2.93.15-4.36.07-2.06.04-4.01-.61-5.97-.24-.74-.48-1.46-.64-2.19-.09-.23-.18-.46-.25-.7l-.02-.08a29.9 29.9 0 0 0-.3-.93l-.04-.11-.06-.12-.1-.18c0-.02-.02-.03-.03-.05l.04.04-.13-.13h-.34l-.12.02c-.42.09-.66.19-.98.36l-.03.02c-.58.81-1.4 2.38-3.03 5.55-1.27 2.47-2.39 5.02-3.61 7.59a16.68 16.68 0 0 0-6.38-4.38l-.07-.04c-.64-.39-1.31-.94-2.11-.77-.77.17-1.23.84-1.47 1.54-.16.47-.21.97-.17 1.47-.01.73.11 1.49.25 2.26l1.19 6.75-1.64 1.44c-1.07-.21-1.84-.42-2.61-.51-2.88-.33-5.77-.6-8.65-.92a512.9 512.9 0 0 1-7.76-.94c-.99-.13-1.63.44-1.97 1.18-.35.78.23 1.37.84 1.88a21.8 21.8 0 0 0 8.54 4.58c.92.24 1.86.61 2.64 1.14 1.34.91 2.85 1.2 4.35 1.59.57.15 1.22.21 1.69.53.63.43 1.43.75 1.51 1.77.21 2.59.51 5.18.79 7.77.21 1.91.38 3.82.67 5.71.36 2.28 1.45 2.82 3.51 1.77a4.2 4.2 0 0 0 1.41-1.04c.97-1.21 2.12-2.38 2.83-3.7l.45-1.23.11-.32.37-1.03c.1-.61.33-1.19.6-1.74l-.05-.03 2.39-5.88 4.38 3.89.06.02.18.08.05.02.04.01c.14.05.27.1.41.13l.09.02.2.01c.06 0 .26-.04.05 0l.15-.03.17-.05.29-.17.02-.02.11-.1.13-.14c.79-1.07.93-2.26.32-3.68-.3-.69-.51-1.41-.73-2.13a.89.89 0 0 1-.19-.62l-.15-.49.4-.2.05.06a.84.84 0 0 1 .51-.23c2.51-.19 5.01.12 7.52.25 1.15.06 2.29-.01 3.44.05.96.05 2.07.27 2.99-.13l.13-.07.63-.74c.3-1.14-1.18-2.86-1.76-3.65Zm-23.26-5.84c-.9.48-1.85.89-2.94 1.4-.4-.21-.62-.81-.76-1.33l-.64-4.23c-.02-.45-.02-.91 0-1.36.01-.31-.02-.72.27-.86.47.26.86.47 1.21.73a74.5 74.5 0 0 1 3.14 2.41c1.51 1.22 1.42 2.34-.28 3.24Zm-1.66 20.1a47.52 47.52 0 0 1-1.81 4.05c-.3.58-.92 1-1.61 1.4a48.98 48.98 0 0 0-.76-5.12c-.19-2.1-.35-4.21-.38-6.32 0-.53.03-1.11 0-1.69.03-.46.05-.93-.04-1.37a1.69 1.69 0 0 0-1.32-1.34l-.26-.05-14.21-5.2.11-.47c.61.07 1.22.12 1.82.22 1.6.27 3.18.64 4.79.82 1.92.22 3.85.32 5.78.38.16 0 .33 0 .5-.03 1.08.43 2.26.59 3.43.67l7.3 5.77c-1.15 2.87-2.22 5.59-3.33 8.3Zm7.68-7.89c-.62-.55-1.2-1.13-1.78-1.71-1.02-.5-1.9-1.25-2.76-1.99-.96-.82-1.87-1.7-2.75-2.61l-.2-.26-.5-.67c-.17-.25-.23-.29-.07-.55a8.26 8.26 0 0 1 1.51-1.79c.33-.21.64-.44.95-.66.65-.45 1.33-.81 2.02-1.19a.64.64 0 0 1 .85.22c.94 1.63 1.12 3.52 1.73 5.27.33.94.72 1.86 1.05 2.8.3.86.7 1.68.98 2.54.2.63-.6.99-1.04.61Zm2.15-4.65c-.19-1.19-.32-2.26-.53-3.31-.1-.48-.34-.93-.56-1.37-.32-.63-.69-1.24-1.02-1.87-.37-.71-1-1.43-1-2.14 0-.82.21-1.64.45-2.6.03-.73.29-1.41.61-2.05l.06-.22c.24-.7.54-1.38.86-2.04.12-.25.21-.51.31-.77.11-.16.21-.32.34-.47.18-.2.37-.38.6-.53.28-.19.33-.27.55-.01.36.42.6.91.8 1.42.58 1.78.77 3.58.54 5.37-.19 1.46.27 2.36 1.32 3.27 2.46 2.12 4.84 4.34 7.23 6.52.14.13.19.37.32.65-3.6.97-7.12-.06-10.87.15ZM252.51 23.82l.03-.03-.02.03Z"/>
    <path d="M277.76 33.34a3.54 3.54 0 0 0-.71-.58c-3.1-1.82-6.35-3.21-10.01-3.44a18.91 18.91 0 0 1-7.57-1.82c-.17-.26-.3-.55-.33-.9-.02-.17-.01-.34 0-.52.1-.32.22-.63.32-.92.26-.79.48-1.6.66-2.41.18-.81.36-1.65.35-2.48 0-.81-.14-1.95-.93-2.38-.79-.43-1.83.23-2.55.54-.74.32-1.47.67-2.2 1.03-1.33.66-2.65 1.35-3.99 2l-1.15-3.85c-.71-2.27-1.52-4.51-2.13-6.8a9.93 9.93 0 0 0-2.02-4.25c-.19-.11-.38-.2-.58-.23-1.59-.22-1.85 2.65-2.08 3.66-.37 1.6-.94 3.13-1.4 4.7 0 .09-.02.17-.03.26l-.37 1.33-.12.51c-.26 1.42-.48 2.83-.92 4.18l-.08.5c-.07.51-.23 1-.37 1.5-.06.21-.1.48-.25.6-1.36 1.01-2.64 2.19-4.14 2.92-1.03.5-1.91 1.28-2.87 1.91l-.76.44a4.9 4.9 0 0 1-.85.35c-.58.42-1.17.82-1.78 1.19-.41.25-.86.45-1.29.66a20.41 20.41 0 0 1-4.73 3.12c-.95.43-1.01 1.26-.22 1.93.37.32.89.54 1.38.62 1.02.18 2.06.29 3.1.34 3.46.14 6.82.76 10.19 2.06-.08.18-.16.36-.22.54-.21.67-.2 1.39-.38 2.08-.18.71-.39 1.43-.32 2.17.13 1.27 1.2 1.52 2.28 1.38.47-.06.92-.2 1.35-.39.26-.2.57-.36.85-.51l.61-.28 1.12-.7 3.1-1.98c.1.47.22.95.23 1.44.07 2.78 0 5.57.17 8.34.1 1.63.56 3.14 1.4 4.43.28.29.57.56.9.78a2.3 2.3 0 0 0 1.76.31 4.78 4.78 0 0 0 2.19-2.7c.93-2.39 2.04-4.72 3.11-7.06 1.04-2.27 2.14-4.53 3.3-6.99 1.1-.26 2.46-.6 3.84-.91 2.58-.58 5.16-1.16 7.75-1.72 1.3-.28 2.61-.67 3.93-.7 1.71-.04 2.9-.6 3.57-2.01.01-.14.03-.29.03-.44 0-.29-.06-.6-.15-.89Zm-25.41-9.23.03-.07.12-.21-.03.03.03-.03.02-.03.02-.02c.07-.08.15-.14.24-.21l-.21.16c.45-.34.85-.72 1.25-1.12l1.06-.68a6.1 6.1 0 0 1 2.26-.84c0 .19 0 .39-.03.56l-.09.92c-.07.6-.17 1.19-.3 1.77-.14.6-.31 1.2-.55 1.77-.1.22-.21.47-.33.6a.96.96 0 0 1-.87-.2l-.16-.13-.02-.02-.03-.02-.22-.15c-.53-.18-1.03-.59-1.52-.93-.18-.11-.36-.2-.53-.32a.99.99 0 0 1-.3-.35l.14-.47Zm-13.11 11.82c-1.83.75-3.57-.82-5.55-.98-1.64-.13-3.29-.35-5.16-.58-.11-.04-.26-.12-.41-.17.08-.13.17-.29.23-.36.82-.92 1.94-1.51 3-2.11a95.26 95.26 0 0 0 7.64-4.74c1.1-.76 2.43-1.51 3.33-2.52.81-.91.94-2.05 1.04-3.22l.4-4.75.87-3.49c.09.01.19.03.31.07.07.02.13 0 .19.02 2.1 3.14 2 6.99 4 10.13l-9.91 12.7Zm7.64.2-.22.28c-1.4 1.32-2.8 2.64-4.24 3.92-.61.54-1.49.78-2.34 1.21.43-1.58.5-3.15 1.24-4.29 1.59-2.46 3.47-4.73 5.32-7 .75-.93 1.63-1.77 2.51-2.65a1.98 1.98 0 0 1 1.71.07l1.37.88c.07.07.14.14.19.22.63 1.02-.81 2.55-1.33 3.31l-.15.19c-.45.45-.89.91-1.35 1.35l-1.47 1.4c-.44.35-.87.7-1.25 1.12Zm21.01-.8a24.53 24.53 0 0 1-6.97 1.4c-2.56.14-4.26 1.22-5.28 3.67-1.85 4.41-3.89 8.74-5.96 13.36-.26-.59-.54-1-.61-1.45a92 92 0 0 1-.66-5.48c-.17-2-.14-4.01-.39-6a3.88 3.88 0 0 1 1.18-3.53l.24-.25c.51-.43 1.04-.82 1.56-1.24a9.79 9.79 0 0 0 1.81-1.99l.51-.71c.68-.7 1.37-1.38 2.05-2.09.99-1.03 1.65-1.19 2.9-.63a21.83 21.83 0 0 0 7.66 1.81c2.38.14 4.52.8 6.98 1.67-1.9.55-3.49.92-5.01 1.46ZM182.57 124.2c1.02 0 1.9-.05 2.77.01 2.59.19 5.19.3 7.75.68 2.93.44 4.68.13 6.54-3.83-.94 0-1.8-.15-2.59.03-2.28.52-4.53 1.19-6.8 1.76-.72.18-2.2-.69-2.28-1.42-.04-.42.24-.95.54-1.31.2-.25.67-.37 1.02-.39 3.48-.18 6.76-1.46 10.2-1.9 2-.25 2.29 0 2.45 2.07a7.34 7.34 0 0 1-5.1 7.44c-.92.27-1.91.54-2.85.48-3.34-.24-6.68-.54-9.99-.98-1.75-.23-1.73-.38-1.66-2.64ZM113.66 82.97c1.82 1.09 2.12 2.67 2.27 4.54.23 2.95-1.93 4.7-3.04 6.96-.64 1.3-1.57 2.45-2.13 3.78-.23.55.1 1.41.35 2.06.32.81.82 1.55 1.24 2.33.62 1.14.97 2.38 1.73 3.51.86 1.28 1.08 3.03 1.46 4.6.19.8-.48 1.34-1.39 1.3-1.04-.05-1.8-.78-1.91-1.6-.44-3.16-2.52-5.65-3.31-8.66-.21-.8-.95-1.49-1.54-2.14-.73-.82-.69-1.55-.06-2.39 1.2-1.57 2.3-3.21 3.55-4.73 1.7-2.06 2.06-4.37 1.65-6.9q-.25-1.49 1.12-2.63ZM137.2 120.71h-.02c-.58-.31-.88-.85-1.31-1.3a4.82 4.82 0 0 1-1.09-1.52 2.6 2.6 0 0 1-.12-1.63c.24-.83 1.12-1.16 1.89-.83.23.1.42.23.62.37l.23.14h.04s.02.02 0 .01l.14.03.64-.67c-.39-.95-.73-1.79-1.09-2.62-.62-1.41-1.35-1.57-2.48-.58-.35.31-.71.6-1.09.92a3.3 3.3 0 0 0-1.21 2.45c-.03 1.47.18 3 .71 4.55.77 2.23 2.78 2.81 4.51 3.88a.9.9 0 0 0 1.21-.26c.4-.58.29-1.37-.25-1.82l-1.32-1.12ZM189.06 112.64c-1.16.07-2.06-.39-2.48-1.47a1.83 1.83 0 0 1 .07-1.38c.12-.21.86-.3 1.16-.14 1.37.75 2.62.19 3.87-.23 2.1-.71 2.52-2.27 1.15-4l-6.01-7.63c-.23-.29-.55-.58-.61-.91-.07-.38-.04-.96.19-1.18.25-.23.85-.29 1.21-.15.46.17.88.55 1.22.92 1.89 2.07 3.82 4.09 5.59 6.26a7.1 7.1 0 0 1 .47 7.71c-.92 1.49-2.61 1.55-4.05 2.05-.54.19-1.18.11-1.77.16ZM154.62 87.18c.11-.44.09-.75.23-.85 2.35-1.65 4.49-3.65 7.32-4.52a5.36 5.36 0 0 1 1.54-.22c2.38-.02 4.75.02 7.13 0 .58 0 1.15-.2 1.73-.3 1.2-.22 1.51.07 1.49 1.37l-.01 1.1c0 .06-.07.12-.3.49-2.61 0-5.42.07-8.23-.02a8.51 8.51 0 0 0-5.92 2.18 4.44 4.44 0 0 1-4.98.77ZM163.7 97.72a1.24 1.24 0 0 1-.6-1.67c.12-.23.26-.44.44-.59 1.5-1.19 3.12-2.21 4.68-3.33 1.46-1.05 3.7-1.07 5.68.65.63.55.58 1.55-.12 2-.25.16-.51.31-.78.44-1.86.9-3.79 1.66-5.63 2.62-1.35.7-1.62.84-3.68-.12ZM201.94 74.12v-1.09l-.01-.13-.03-.12v-.02l-.01-.02a.2.2 0 0 0-.04-.06c-.88-.07-1.8-.2-2.48.14-1.15.57-2.26.3-3.35.55-2.04.48-4.29.67-5.71 2.21a5.85 5.85 0 0 0-1.8 2.57 2.1 2.1 0 0 0-.12 1.19l.02.05v.05c0 .05.02.09.03.13l.03.09.04.08.04.06.09.1.06.05.11.07c.25.23.58.37.94.34 1-.06 1.52-1.04 1.96-1.82l.41-.68c.78-.5 1.57-.98 2.42-1.2 1.98-.52 4.04-.76 6.27-1.1l.38-.16c.22-.09.53-.17.68-.34l.1-.39c0-.19-.03-.4-.04-.56ZM194.72 89.4a1.53 1.53 0 0 1-.57-2.03c1.61-2.94 4.42-4.64 7.39-4.42 1.82.13 2.21.69 1.73 2.4-.14.49-.08 1.04-.26 1.5-.15.37-.45.82-.79.96-1.68.71-3.41 1.29-5.09 1.99-1 .42-1.71.03-2.4-.4Z"/>
  </g>
</svg>
