<svg xmlns="http://www.w3.org/2000/svg" viewBox="0 0 393 393">
  <defs>
    <style>
      .c{fill:#e9d3c3}.d{fill:#fff}.f{fill:#89c9ca}.h{fill:#3b7477}.i{fill:#78bdd5}
    </style>
  </defs>
  <g id="b">
    <path class="i" d="M306.09 148.18c-.33-.68-1.31-.81-1.89-.39-.95-.44-2.18-.63-2.94-.88-1.54-.5-3.26-1.23-4.79-.28-1.32.81-1.81 2.31-1.99 3.77-.23 1.81-.37 3.64-.54 5.46a44.52 44.52 0 0 0-.24 6.53 18.7 18.7 0 0 1-.86 6.21c-.02.08 0 .14-.02.21-.42.68.12 1.62.82 1.81l4.45 1.22c1.06.29 2.25.7 3.19-.1.14-.12.25-.26.35-.41.41-.02.81-.21.99-.63.27-.6.5-1.21.72-1.82.43-.62.76-1.31.92-2.05.15-.7.19-1.42.19-2.14.24-1.31.42-2.64.54-3.98l.27-1.23a35 35 0 0 0 .24-1.79l.27-1.51c.24-1.45.44-2.9.64-4.35.18-1.29.27-2.43-.32-3.64ZM296.38 196.31c-.52-1.05-1.72-1.3-2.76-1.55-.9-.22-1.86-.41-2.78-.38a2.68 2.68 0 0 0-2.65 2.22c-.37 1.76-.39 3.64.16 5.37a9.04 9.04 0 0 0 3.37 4.66c.82.6 2.2.13 2.64-.72.19-.37.26-.73.23-1.07.27-.24.48-.54.54-.92.06-.37.16-.73.29-1.08l.05-.14.02-.03.28-.62c.37-.79.75-1.6.92-2.45.22-1.11.2-2.25-.31-3.28ZM278.8 190.03c-1.58-2.57-3.08-5.93-5.79-7.52-6.15-3.6-11.92 3.79-17.54 5.48-10.11 3.03-14.02-9.51-18.44-16.43a423.42 423.42 0 0 0-15.69-22.84c-1.46-1.98-4.19-2.74-6.11-.78-6.35 6.47-13.83 12.34-15.41 21.74-1.39 8.23-.16 17.79 4.67 24.72a3.82 3.82 0 0 0 3.15 1.71c.54.35 1.2.59 1.99.61 8.03.26 4.46 11.94 3.83 16.85-.65 5.07-1.7 10.18-2.09 15.28-.37 4.72 1.18 8.65 2.07 13.22 1.12 5.73-1.61 10.51-3.59 15.7-.84 2.21 1.39 5.08 3.72 4.87 4.99-.45 18.87 1.31 19.83-6.06.23-1.75-.62-3.48-.95-5.16a47.17 47.17 0 0 1-.71-8.31c-.11-5.85 0-11.72.01-17.57 0-.38-.06-.72-.14-1.04-.19-4.14-2.51-8.76-1.48-12.71l-.6-2.02a161.06 161.06 0 0 1 8.21 4.65c4.8 2.9 10.32 8.92 16.39 8.06 6.62-.94 12.77-6.07 17.9-9.97 3.94-2.99 11.69-8.25 11.2-14.02-.25-3-2.94-6.04-4.46-8.49Z"/>
    <path class="i" d="M202.07 189.05c-2.62-6.48-1.38-12.4-2.27-19-.69-5.16-6.62-6.06-10.75-7.84-6.48-2.79-12.95-5.61-19.47-8.29-4.18-1.71-9.94-5.47-14.56-3.92-4.85 1.63-9.79 6.69-13.61 9.96-4.09 3.5-9.01 7.26-11.61 12.09-2.72 5.06-1.07 11.01-2.06 16.44-1.09 6.02-3 11.71-3.21 17.88a3.48 3.48 0 0 0 1.03 2.72c-.38 6.73.17 13.42-.61 20.16-.65 5.57-2.29 12.68 1.65 17.46 3.46 4.2 9.83 4.46 14.76 5.33 6.94 1.23 13.89 2.65 20.9 3.39 4.37.46 12.87 2.11 16.38-1.59 1.33-1.39 1.45-3.43 1.69-5.23.59-4.33.65-8.35 2.12-12.54 1.09-3.09-1.76-4.98-4.31-4.62a4.72 4.72 0 0 0-.93-.45l-15.39-5.1c-2.36-.78-6.07-1.19-7.61-3.37-1.34-1.89-1.26-5.04-1.32-7.21-.27-10.13 1.18-20.17.51-30.32 5.15-2.33 16.77 1.96 21.26 2.99a489.6 489.6 0 0 1 22.62 5.77c2.54.71 5.88-1.93 4.75-4.72Z"/>
    <path class="h" d="M307.27 142.34c-.11-.64-.41-1.24-.67-1.83-.05-.11-.13-.21-.21-.31.07-1.68-.7-3.55-2.49-3.98a3.54 3.54 0 0 0-3.38.97 6.16 6.16 0 0 0-1.11 1.73 12.53 12.53 0 0 0-1.12 3.58c-.1.33-.12.66-.05.99.01.35.12.67.3.97.32.55.94 1.06 1.57 1.2.26.06.53.08.81.07.18.38.42.72.76.98.42.32.99.57 1.53.54.78-.05 1.5-.17 2.2-.54a3.7 3.7 0 0 0 1.65-1.9 4.4 4.4 0 0 0 .21-2.46ZM201.56 159.45a2.46 2.46 0 0 0-1.09-1.27 2.6 2.6 0 0 0-1.87-.27l-.12-.07a4.3 4.3 0 0 0-3.28-.57c-1.14.21-2.06.95-2.93 1.65-.47.38-.74 1.22-.74 1.8a2.59 2.59 0 0 0 2.57 2.59l.44-.06c.36.54.87 1 1.52 1.14.69.15 1.32.06 1.96-.26.86-.42 1.68-.92 2.46-1.49.31-.17.56-.4.75-.69.23-.25.38-.54.45-.88.13-.56.09-1.1-.13-1.64Z"/>
    <path class="f" d="M216.69 375.41c-2.93-4.01-5.77-7.95-7.27-12.74-.55-1.77-2.32-3.55-4.35-3.38-9.41.8-18.88.28-28.18 1.41-8.36 1.02-9.15 10.87-11.09 17.74-.7 2.47.91 4.74 3.19 5.53 1.51.61 3.07 1.06 4.67 1.37 1.39.33 2.57.06 3.49-.57 1.67.3 3.56 0 5.12-.04 3.14-.07 6.87.39 9.9-.61a9.95 9.95 0 0 0 5.02-4.02l.85-1.26 13.55 3.18c3.45.81 7.53-3.27 5.08-6.62ZM211.79 142.94c-2.47-1.05-4.76-1.26-7.29-.28-2.12.82-3.73 2.36-5.73 3.37a3.92 3.92 0 0 0-2.13 2.46c-3.1 1.71-3.57 7.25.83 8.37 1.78.45 3.68.76 5.52.58 1.97-.19 3.24-1.32 4.58-2.66 2.32-2.32 5.07-3.56 6.35-6.74.67-1.67-.46-4.38-2.13-5.09Z"/>
    <path class="f" d="M190 150.18c-6.67-1.15-13.51-5.62-19.87-8.09-4.62-1.8-9.7-3.77-11.98 2.08-1.52 3.89 2.57 6.15 5.77 5.13 8.24 2.14 15.41 8.16 23.75 9.6 5.69.98 8.08-7.74 2.34-8.73Z"/>
    <path d="M225.34 261.52c-2.97.27-5.95.36-8.94.09-2.69-.24-6.37-1.72-9.11-.9-5.69 1.7-6.09 8.43-6.49 13.27-.31 3.79-1.05 8.8-3.06 12.14-2.81 4.65-6.99 3-11.6 2.05l-25.21-5.22c-3.42-.71-7.8 2.39-6.33 6.29a185.16 185.16 0 0 1 8.66 31.7c1.85 9.93 1.97 20.98 5.37 30.51-2.36 3.25.34 9.32 5.48 8.2 9.22-1.99 20.18 1.9 28.98-1.84 7.93-3.37 8.97-14.72 11.25-21.95 6.85-21.71 14.83-43.23 18.37-65.8.07-.45.08-.87.05-1.28l.36-.66c2.83-5.21-4.02-9.85-7.78-6.6Z" style="fill:#579db6"/>
    <path d="m224.2 21.96-.32-2.07c-.2-3.52-3.13-5.19-5.82-4.97a5.36 5.36 0 0 0-1.93-1.17c-9.18-3.27-23.23-7.6-32.93-4.43-4.99 1.63-9.72 5.29-14.15 8.03-2.09 1.3-4.83 2.6-7.02 4.32-.58.09-1.17.27-1.76.59-6.61 3.49-13.55 7.54-17.15 14.39-1.82 3.47-2.41 7.24-2.83 11.04-2.65 3.63-3.5 8.37-3.65 12.91-2.4 5.23-4.8 10.77-5.05 16.33a4.85 4.85 0 0 0 3.37 4.77l.11.15c1.55 1.75 2.99 3.64 5.04 4.27a91.33 91.33 0 0 0 5.01 12.11l.06.09c-.09.97.1 1.96.7 2.84 1.39 2.02 3.23 3.85 5.86 3.91.42 0 .84-.04 1.25-.11 1.33.42 2.79.5 4.23.18 2.63-.6 4.5-3.69 3.7-6.3a5.3 5.3 0 0 0-4.35-3.78 5.43 5.43 0 0 0-2.15-1.1c-.09-.3-.19-.59-.34-.9a72.62 72.62 0 0 1-3.22-7.44c.93-2.83 1.09-5.75.56-8.64a5.46 5.46 0 0 0 4.96-3.45c2.14-5.24 4.65-10.63 6.19-16.1 1.2-4.24.2-7.15-.81-11.37a4.86 4.86 0 0 0-1.37-2.35 72.79 72.79 0 0 0 10.74-15.09c1.86-.14 3.71-.25 5.57-.35 6.03 2.82 11.41-1.05 17.1-3.39 6.16-2.53 13.13-1.31 19.61.47.76.5 1.5 1.03 2.22 1.6 3.69 2.91 10.19.36 8.62-4.98Z" style="fill:#ececeb"/>
    <path class="c" d="M237.65 62.02c.53-3.74-.78-7.21-2.64-10.41-1.5-2.58-4.5-3.06-7.05-1.89-.26.12-.39.26-.46.37a4.39 4.39 0 0 0-.32-1.08c-.67-1.67-.69-4.27-.98-6.1-.48-3.01-.66-6.31-1.54-9.23-1.73-5.72-6.49-6.19-11.73-7.35-4.89-1.08-10.57-3.27-15.59-1.86-2.06.58-3.88 1.8-5.77 2.77a27.59 27.59 0 0 1-12.73 3.02c-.83 0-1.56.22-2.2.54-2.06-.33-3.9-1-6.28.85-3.59 2.79-6.11 7.84-8.78 11.46-1.06 1.43-.79 3.69.01 5.14 2.96 5.33 2.62 8.3.92 13.91-1.23 4.05-2.59 8.15-3.15 12.36a24.2 24.2 0 0 0-.17 2.09c-.66.25-1.3.67-1.9 1.31-3.47 3.71-6.47 8.78-3.57 13.81a9.5 9.5 0 0 0 4.5 3.8c1.25.54 3.32.63 5 1.06-3.1 5.69.15 9.99 3.1 15.62 1.97 3.76 2.36 7.67 3.32 11.74.44 1.86.96 3.69 1.52 5.51-.29.13-.57.29-.86.51l-1.66 1.25a6.14 6.14 0 0 0-1.53 1.69c-4.7 2.09-2.41 10.02 2.94 8.48.49-.14.95-.3 1.38-.47 1.13.52 2.34.89 3.81 1.26 3.98 1.02 7.14 3.4 10.78 5.4 2.89 1.59 4.81 2.73 8.05 1.5a30.98 30.98 0 0 0 9.64-6.4c5.4-5.36 1.93-12.67 4.57-19.04 3.27-7.91 17.5-10.94 24.87-13.23a4.34 4.34 0 0 0 2.8-2.45c.99-.81 1.59-2.08 1.38-3.84-1.26-10.43-2.86-21.37-2.58-31.9.11-4 2.36-6.36 2.9-10.19ZM302.54 182.41c-.22-.66-.71-1.42-.97-2.15l.26-.3a4.81 4.81 0 0 0-1.43-7.26 4.36 4.36 0 0 0-4.87-.78 39.7 39.7 0 0 0-7.61-.55c-3.77.1-7.58 1.6-9.68 4.87-1.6 2.49-3.89 4.46-3.34 7.73.3 1.75 1.28 2.9 2.43 4.2a9.27 9.27 0 0 1 2.18 4.16c1.29 4.58 7.38 3.89 8.68.41a5.68 5.68 0 0 0 2.75-.8l.1-.07a7.45 7.45 0 0 0 3.28 1.7c3.95 1.02 7.5-1.97 8.5-5.68a9.74 9.74 0 0 0-.28-5.48ZM213.56 242.68c-.74-4.61-4.25-7.42-8.72-8.18-4.86-.82-10.96-.25-15.5 1.65-1.85.77-3.83 1.77-4.92 3.54-1.43 2.32-.13 5.52-1.87 7.58-2.91 3.43.33 8.04 3.69 7.82 2.64 3.04 8.78 2.23 12.25 2.5 4.65.37 10.07 1.77 12.13-3.57 1.41-3.63 3.61-7.22 2.95-11.34Z"/>
    <path class="d" d="M207.79 197.22a404.4 404.4 0 0 0-22.8-5.5c-7.88-1.71-16.84-2.32-24.2-5.75-3.01-1.4-6.73.3-6.76 3.9-.08 10.08.11 20.16.56 30.23.15 3.46 3.43 4.86 5.99 4.21l.14.06c6.65 2.23 15.09 4.23 21.55 7.79.77 2.79 4.76 4.94 7.83 2.47 3.57-2.87 12.53-.84 16.7-.57 1.82.12 4.08-1.48 4.39-3.35 1.22-7.49 2.2-15.02 2.79-22.59.5-6.35.19-9.12-6.19-10.9ZM199.35 258.5c-4.48-.14-8.48-2.02-12.84-2.78-3.62-.63-7.1-.25-10.68.36-9.03 1.54-17.26-.26-26.31-1.02-8.41-.71-10.63.08-12.01 8.53-.53 3.26-2.16 7.91-1.01 11.19 1.08 3.07 4.41 4.06 7.09 5.38 2.08 1.02 5.1 1.84 6.38.53 13.16 2.68 25.35 4.46 38.63 6.22 13.84 1.83 9.35-13.85 14.66-21.65 1.99-2.92-.74-6.66-3.9-6.76Z"/>
    <path d="m308.98 146.88-.21-2.72a33.1 33.1 0 0 0-.9-5.14l-.09-.34v-.03l-.14-.56-.08-.29-.1-.33a9 9 0 0 0-.33-1c-.2-.59-.42-1.18-.6-1.77l-.33-.28c-1.21-1-2.29-1.4-3.26-1.03a.67.67 0 0 0-.29.08c-2.36 1.28-3.88 3.51-5.18 5.8-.76 1.33-1.49 2.67-2.34 3.95a8.4 8.4 0 0 0-1.31 3.66c-.19 1.48-.19 2.97-.37 4.45-.21 1.7-.55 3.39-.85 5.08l-1.28 7.29-.22.74c-.51 1.78-1 3.57-1.47 5.27-1.47.18-2.96.27-4.41.57-1.44.3-2.86.74-4.29 1.09l-.1.04-.12.05a8.74 8.74 0 0 0-1.44.82c-.02.01-.19.15-.31.27-.27.27-.52.56-.78.83a8.9 8.9 0 0 1-1.22 1.07c-.21.32-.45.62-.64.95-.74 1.28-1.44 2.59-2.24 3.84-.12.19-.87.25-1.06.08q-2.82-2.62-6.09-.87c-.2.11-.41.19-.61.31-1.03.59-2.21 1.03-3.04 1.83-1.94 1.86-4.35 2.88-6.64 4.12-1.07.58-2.06 1.34-3.18 1.78-.92.36-1.89 1.54-2.97.32-.64-.72-1.32-1.46-1.74-2.31a43.5 43.5 0 0 1-5.91-6.59c-2.4-3.16-3.91-6.89-6.14-10.16-2.45-3.6-5.16-7.22-7.13-11.11-.91-1.8-1.79-3.58-2.83-5.31-.43-.71-.81-1.52-1.29-2.22-1.2-.71-2.4-1.45-3.7-1.88a16.34 16.34 0 0 0-4.3-2.68 30.23 30.23 0 0 0-2.64-2.02c-1.91-1.26-3.93-2.35-5.81-3.46.12-.57.3-.98.29-1.4 0-.82-.04-1.65-.07-2.47a1.16 1.16 0 0 1-.12-.51c0-.98.05-1.98.09-2.98 0-.2 0-.4.02-.59l.01-.14c.05-1.36.07-2.71-.05-4.05l.11-1.84c.06-1.02.11-2.19.95-2.9a.14.14 0 0 0 .03-.04c2.73-1.24 5.32-2.76 8.01-4.1 2.71-1.35 5.56-2.38 8.37-3.5a57.93 57.93 0 0 0 8.2-3.88c1-.6 1.97-1.25 2.93-1.91a6.06 6.06 0 0 0 1.59-2.94c1.02-5.08-.66-10.62-.96-15.71-.19-3.18-.22-6.39-.63-9.55-.23-1.78-.69-3.54-.93-5.32-.26-1.88-.69-4.84.03-7.03.8-.23 1.53-.58 2.08-1.09.81-.74.81-1.82.79-2.84a33.5 33.5 0 0 0-.27-3.32c-.28-2.25-.7-4.47-1.17-6.69a91.15 91.15 0 0 0-.77-3.36 7.76 7.76 0 0 0-1.04-2.68l-.1-.32a3.8 3.8 0 0 0-1.58-2.15h-.34c-.28 0-.55.02-.83.05-.33.03-.35.04-.68.09-.31.05-.62.12-.93.19-.04 0-.08.03-.12.04l-.14.01c-.49.15-.99.27-1.48.4a1.17 1.17 0 0 1-1.02-.82c-.01-.05 0-.09 0-.14a1.54 1.54 0 0 1-.54-.94c-.51-2.28-.97-4.57-1.54-6.83-.34-1.33-.73-2.64-.96-3.98-.97-2.14-1.76-4.29-1.27-6.7l.03-.1c.04-.46.12-.92.09-1.35-.1-1.34.13-2.71.12-4.06-.01-1.93-.07-3.87-.19-5.79l-.12-.26-.17-.27c.22.38.02.06-.08-.04a2.3 2.3 0 0 0-.13-.11l-.17-.12a21.6 21.6 0 0 1-.93-.6l-.27-.22a10.2 10.2 0 0 1-1.53-.42c-1.9-.71-3.8-1.42-5.72-2.1-.79-.28-1.6-.53-2.4-.78-2.27-.52-4.55-.98-6.81-1.5-.81-.18-1.65-.33-2.46-.53-4.26-.46-8.38-1.69-12.68-1.97-3.59-.24-7.08-.13-10.42 1.06-.31.19-.62.38-.95.51-1.38.54-2.94.74-4.17 1.49-2.5 1.54-4.82 3.38-7.24 5.06a94 94 0 0 1-4.61 3.04c-1.22.76-2.51 1.41-3.78 2.1l-5.03 2.74c-1.15.63-2.31 1.22-3.45 1.88-1.58.91-3.12 1.88-4.7 2.77-.98 1.43-2.57 2.29-4.18 3.05l-.01.02a10.9 10.9 0 0 0-2.45 4.3c-.83 3.06-2.28 5.9-2.84 9.08-.67 3.82-1.68 7.59-2.54 11.38-.56 2.46-1.02 4.95-1.72 7.38-.43 1.5-1.26 2.87-1.84 4.33-1.04 2.59-1.98 5.22-3.04 7.8-.51 1.24-.02 4.53.94 5.4 1.55 1.42 3.13 2.82 4.66 4.26 1.75 1.64 3.37 3.42 5.22 4.94a7.5 7.5 0 0 1 2.97 5.99c0 .45.05.9.12 1.35.33 2.12.73 4.24.99 6.37.13 1.04.73 1.55 1.56 1.96.59.29 1.16.64 1.76.92.56.26 1.15.66 1.72.66 3.12-.03 6.23-.19 9.35-.26.73-.02 1.47.1 2.25.18.38-.09.8-.03 1.05.27 1.1 1.3 1.76 2.84 2.66 4.27.94 1.49 1.91 3.01 2.45 4.7.02.05 0 .11.01.16.24.81.37 1.68.62 2.5.7 2.34 1.43 4.68 2.21 7.21l-.11.07c.08.26.07.55-.11.85-1.68 2.9-3.65 6.06-6.21 8.45l-.34.49c-.57.83-1.29 1.54-1.87 2.36-.5.71-.9 1.49-1.33 2.25-.27.47-.51.95-.79 1.41-.2.33-.45.62-.64.95-.25.43-.46.89-.71 1.33a8.07 8.07 0 0 1-2.7 2.75c-.39.27-.73.6-1.07.95a1.2 1.2 0 0 1-.44.52l-.28.2-.28.26c-1.2.98-2.49 1.85-3.69 2.83-1.34 1.09-2.58 2.3-3.94 3.37l-.76.71c-1.43 1.34-2.84 2.7-4.31 4-.57.51-1.18.97-1.78 1.43v.02l-.09.06c-.96.74-1.93 1.45-2.9 2.17-.18.14-.37.2-.54.22a35.12 35.12 0 0 0-5.87 6.54c-.68.93-1.27 1.96-1.7 3.02-.53 1.33-1.29 2.79-1.19 4.13.26 3.47-1.05 6.86-.36 10.32.06.28-.15.61-.2.92-.26 1.69-.92 3.45-.65 5.05.26 1.54-.37 2.82-.4 4.25-.05 2.61-.63 5.21-1 7.81-.12.88-.29 1.75-.38 2.3.16.88.33 1.49.36 2.11.03.63-.14 1.26-.13 1.89.07 3.28.23 6.55.25 9.83.01 1.71-.23 3.43-.27 5.14-.05 2.02.05 4.04-.01 6.05 0 .25-.11.52-.21.78-.01 1.06-.02 2.12 0 3.18.01 1.58.2 3.16.18 4.74-.02 1.38-.22 2.76-.28 4.14-.04.8-.06 1.67.1 2.48.15.32.31.64.44.97.42 1.09 1.42 1.04 2.24 1.35 1.24.48 2.48.94 3.73 1.41.7.26 1.4.54 2.11.78s1.42.44 2.14.64l3.36.9-.12.16c.53.2.92.7.66 1.39a31.38 31.38 0 0 0-1.31 4.71l.1.03-.17.29a63.23 63.23 0 0 0-.97 8.91l-.03.79c0 .05.02.08.03.13.06.3.02.54-.06.74-.05 1.53-.09 3.06-.22 4.58-.32 1.13-.47 2.43.2 3.38.81 1.16 2.64 1.52 3.91 1.9.57.17 1.15.3 1.73.44 1.28.55 2.58 1.12 3.93 1.4 1.85.39 3.77.48 5.66.67.97.1 1.49.2 1.75.62.06.07.13.13.18.22.74 1.42.59 2.94.89 4.45.14.68.36 1.34.59 1.99h.09c.5 1.09 1.27 2.32 1.64 3.65.77 2.74 1.33 5.54 2 8.3a40.36 40.36 0 0 0 1.45 4.59c.36 2.4.88 4.79 1.45 7.16 1.14 4.75 2.26 9.49 3.18 14.28 1.59 8.22 2.84 16.5 4.1 24.77.04.51.07 1.02.14 1.53.13 1.01.17 2.09.42 3.07.27.12.5.33.56.62.21 1.11.22 2.18.1 3.24.04.31-.03.6-.15.88a21.2 21.2 0 0 1-1.29 4.2c-.3.81-.67 1.62-.92 2.44-.44 1.43-.77 2.9-1.21 4.34-.32 1.04-.78 2.03-1.08 3.08a44.4 44.4 0 0 0-.77 3.27c.03 1.15.18 2.29.62 3.26a13.26 13.26 0 0 0 6.54 2.4c2.38.19 4.75.53 7.13.69 1.8.13 3.61.17 5.41.09 1.54-.07 3.07-.51 4.61-.55 2.8-.07 5.61.07 8.32-.81.31-.1.61-.25.9-.4l.45-.34c.74-.61 1.28-1.39 1.99-2.04l.21-.16c.06-.35.19-.67.42-.78.62-.3 1.81-.55 2.06-.24l.12.11c.67-.02 1.35.05 2.04.16 3.89.65 7.73 1.54 11.71 1.12.18-.02.37-.05.55-.09a9.72 9.72 0 0 0 2.4-1.74c.77-.73 1.36-1.65 1.99-2.52.11-.67.08-1.37-.15-2.1-.26-.81-.68-1.6-1.18-2.37-.74-.92-1.56-1.78-2.34-2.67-1.41-1.59-2.7-3.24-3.42-5.17l-.32-.42-.74-1.01a14.9 14.9 0 0 1-1.11-4.4 30 30 0 0 1 .56-6.68c1.31-2.79 2.45-5.68 2.72-8.73.02-.19.08-.34.17-.48 0-.08.02-.16.04-.24 1.01-3.23 2.14-6.42 3.09-9.66 0-.46.09-.9.37-1.29l.24-.84.58-2.13c.1-1.06.2-2.12.44-3.15.42-1.84 1.09-3.64 1.7-5.43.5-1.48 1.06-2.95 1.61-4.41.86-2.73 1.75-5.45 2.56-8.19l.02-.07.06-.19c.36-1.22.74-2.44 1.13-3.65l-.03-.03c-.11-.09.06-.57.16-.85.52-1.42 1.36-2.81 1.53-4.27.33-2.85 1.65-5.32 2.58-7.94.51-1.44 1.12-2.86 1.42-4.34.56-2.74.71-5.58 1.45-8.27.83-3.03 1.27-6.1 1.76-9.18.17-1.09.4-2.17.65-3.24.12-.53.43-1.03.51-1.56.12-.75.15-1.52.16-2.29 0-1.54.11-3.09.06-4.62-.04-.07-.09-.11-.12-.19-1.1-2.92-.99-6.15-1.42-9.21a96.8 96.8 0 0 1-.86-10.06c-.27-6.97-.12-13.96-.92-20.9-.03-.26.03-.46.12-.64l-.37-3.51c.23.06.42.14.59.23l.5.3c.13.09.26.18.39.25.78.46 1.63.81 2.38 1.31 1.56 1.05 3.06 2.19 4.63 3.24 1.19.79 2.45 1.48 3.65 2.26.69.45 1.3 1.02 2 1.47.53.34 1.13.6 1.72.84 1.41.57 2.45 2.09 4.22 1.74.71-.14 1.39-.45 2.1-.66 3.46-1.04 6.47-2.9 9.33-5.05.9-.68 1.71-1.57 2.68-2.07.82-.71 1.76-1.29 2.68-1.87 1.02-.64 1.82-1.56 2.76-2.31l.2-.26a5.1 5.1 0 0 1 1.2-1.37c1.14-.8 2.39-1.45 3.52-2.25 1.21-.86 2.35-1.81 3.5-2.75.98-.8 1.94-1.64 2.88-2.49.45-.41.83-.88 1.29-1.38 1.58 2.44 3.53 4.03 6.39 4.25.43.03.83.41 1.25.42.96.03 1.99.12 2.89-.14 2.27-.66 2.75-2.7 3.2-4.67.52-2.24.82-4.54 1.54-6.71.27-.83 1.22-1.43 1.96-2.1.61-.64 1.33-1.19 1.83-1.96.24-.37.43-.76.6-1.18.4-3.95.43-7.73-.75-11a1.25 1.25 0 0 1-.33-.67 1.12 1.12 0 0 1-.16-.93c1.16-4.69 1.57-9.54 2.52-14.27.5-2.48 1.36-4.86 1.77-7.36.28-1.73.42-3.47.48-5.22l.04-.14a7.75 7.75 0 0 0 .36-2.42c.19-.77.11-1.55.05-2.32Zm-97.04-1.91c1.35.54 1.6 1.36.61 2.47-1.42 1.59-2.93 3.1-4.4 4.64-1.39 1.46-2.76 2.93-4.18 4.35-.23.23-.68.42-.99.38l-.31-.05c-.83 0-1.66-.03-2.48-.1-.87-.07-1.8-.13-2.64-.39-1.62-.51-2.56-1.83-3.17-3.34-.19-.47.12-1 .54-1.25l.03-.07a14.1 14.1 0 0 1 3.03-3.09 86.05 86.05 0 0 0 3.5-2.52c1.11-.85 2.34-1.72 3.44-2.7.41-.2.83-.37 1.27-.5a.99.99 0 0 1 1.07.31c1.56.6 3.12 1.23 4.67 1.85Zm-10.48 14.65c-1.27 1.05-2.47 2.19-3.84 3.08-.46.3-1.35.06-2-.1-.94-.23-1.88-.55-2.75-.98-.24-.12-.44-.93-.29-1.11.76-.89 1.64-1.69 2.49-2.51.05-.05.18-.07.26-.05l6.04 1.14.09.52ZM227.6 51.48a55.2 55.2 0 0 1 4.76-.71c.36-.04 1.04.34 1.12.66.85 2.97 1.61 5.97 2.39 8.97l.13.15c.86 1.63.51 3.29-1.31 3.95-.3.11-.6.18-.91.23a3.3 3.3 0 0 1-.38.12c-2.91.66-5.81 1.35-8.75 1.85a2.7 2.7 0 0 1-.57.02c-.45.11-.89.21-1.35.28-1.14.18-2.69.45-3.57-.52a3 3 0 0 1-.6-1.18 3.75 3.75 0 0 1-.63-1.3c-.39-1.28-.72-2.58-1.15-3.84-.1-.28-.22-.56-.33-.83a46.6 46.6 0 0 0-.79-4.58c.13-.18.28-.36.46-.52.21-.26.53-.44.87-.44h.12c1.48-.5 3.04-.61 4.55-1.04 1.36-.39 2.74-.67 4.14-.89.59-.14 1.19-.26 1.78-.37Zm-4.25-16.02c.14.47.13.98.24 1.45.45 1.95.9 3.89 1.39 5.83.32 1.28.64 2.57 1.09 3.81.31.85-.05 1.03-.74 1.12-1.03.13-2.05.29-3.08.41-.35.04-.73.03-1.01.17a13.5 13.5 0 0 0-3.18.81c-1.75.36-3.53.6-5.28.96a324.4 324.4 0 0 0-20.59 4.9h-.04a3.3 3.3 0 0 0-.7.12l-.83.28-.04.02-1.5.4c-1.92.52-3.79 1.08-5.77 1.37l-1.69.26-.03.04-.03.03c-1.56.17-3.12.33-4.68.55a.94.94 0 0 0-.54.3c-.49.21-.96.47-1.4.85-1.2 1.06-2.27 2.23-3.53 3.23-2.76 2.17-5.84 3.92-8.53 6.18-.91.76.9-5.67 1.71-7.87.75-2.03 1.18-4.18 1.79-6.27.12-.4.52-.81.64-1.16a1.84 1.84 0 0 0-.14-.61c-.19-.5-.48-.97-.76-1.42-.63-.97-1.39-1.83-2.01-2.8-.36-.57-.69-1.17-.95-1.79-.46-.68-.88-1.39-1.22-2.16-.49-1.12.63-1.67 1.12-2.35 1-1.38 2.23-2.6 3.33-3.91.8-.95 1.47-2.01 2.26-2.98l.5-.8c.36-.56.69-1.15 1.16-1.63.28-.28.59-.53.92-.75l.03-.13c2.32-1.66 4.79-.96 7.2-.56 1.23.2 2.44.55 3.63.94 2.21.72 3.75-.56 5.47-1.58 2.11-1.26 4.36-2.29 6.54-3.43 1.04-.54 2.03-1.2 3.1-1.67 1.52-.66 2.99-1.63 4.81-.69.82.42 1.82.49 2.73.74 1.91.51 3.81 1.07 5.73 1.55 2.85.71 5.72 1.35 8.57 2.04 1.05.26 2.09.58 2.66.74.62 2.03 1.16 3.74 1.65 5.45Zm-21.41 33.18c.01.97-.06 1.94-.11 2.91-.01.23-.55.56-.88.62-1.7.31-3.43.53-5.14.82-2.38.4-4.75.87-7.14 1.21-1.65.23-3.32.29-4.98.39-.79.05-1.04-.4-1.14-1.17-.24-1.81-.53-3.6-.85-5.4l-.22-5.59c.21-.59.52-1.13 1.12-1.51l.12.06c.08-.05.17-.1.27-.14 1.36-.23 2.73-.41 4.1-.56 1.12-.07 2.25-.14 3.36-.34l.93-.09c2.92-.28 5.98-1.67 8.92-1.07.06.39.09.78.09 1.17.49 2.26 1.05 4.68 1.44 7.14.04.26.06.52.08.79l.03.77Zm-43.14 34.57c-.06.18-.51.24-.78.33a5.2 5.2 0 0 1-1.78.24c-.06 0-.11.03-.17.03-1.3-.05-2.6-.09-3.89 0-1.09.08-2.17.22-3.19-.28-1.37-.66-2-2.23-2.35-3.62a18.2 18.2 0 0 1-.42-2.32c-.1-.7-.18-1.47-.26-1.94-.34-2-1.19-3.83-1.99-5.67-.95-1.13-1.8-2.34-2.82-3.43a46.2 46.2 0 0 0-4.81-4.47c-1.58-1.26-3.27-2.42-4.25-4.24-.05-.09-.06-.18-.08-.27l-.2-.12c.77-2.4 1.49-4.86 2.36-7.26l.44-1.13c1.44-5.03 3.12-9.99 4.44-15.06.42-1.62.8-3.24 1.27-4.85.44-1.49 1.08-2.97 1.39-4.5.46-2.26.53-4.43 1.73-6.37l.05-.23c.13-.52.64-.96 1-1.4 1.26-1.54 2.54-3.08 3.82-4.61.22-.26.44-.52.68-.76 1.04-1.62 3.26-2.85 4.67-3.61 4.05-2.2 8.1-4.37 12.23-6.42 2.51-1.25 5.02-2.51 7.44-3.91 1.9-1.1 3.64-2.43 5.46-3.65 3.4-2.28 7.5-4.45 11.64-3.01 5.21.32 10.18 1.91 15.39 2.58 3.18.41 6.37.69 9.49 1.45 2.21.54 4.68.8 6.55 2.19.29.21.43.49.47.78.08.19.13.41.1.71-.21 2.32-.38 4.65-.56 6.98 0 .05-.02.1 0 .14l.21.57c-1.69.13-3.37-.33-5-.74-1.9-.47-3.8-.93-5.71-1.36-2.62-.59-5.31-1.31-8-1.69-1.34-.67-2.84-.56-4.19-1-.8-.03-1.6-.05-2.4.01h-.15l-.09.02-.15.08c-1.82.9-3.64 1.81-5.44 2.74-.41.21-.76.55-1.17.77-1.74.93-3.74 1.55-5.17 2.83-1.79 1.59-3.6 1.23-5.53.97-2.84-.39-5.71-.68-8.52-1.24-1.88-.37-3.7-1.07-5.51-1.74a4.63 4.63 0 0 0-1.5-.25l-.36.09-.4.13-.19.07-.06.03c-.23.1-.46.22-.68.36l-.13.09-.07.06a2.4 2.4 0 0 0-.22.23l-.03.05-.08.14-.01.02v.01c0 .04-.03.09-.04.13l-.01.06v.25l.03.12v.04c.88 1.11 2.12 1.48 3.67 1.36.82-.07 1.67.26 2.69.44v.06c.6.05 1.18.7.79 1.4a21.53 21.53 0 0 1-2.99 3.94c-.96 1.06-1.84 2.18-2.74 3.28l.12.12-.54.39h-.01c-.57.7-1.13 1.4-1.73 2.07-.52.58-1.11 1.09-1.62 1.68a3.13 3.13 0 0 0-.77 2.77c.47 1.09 1.17 2.01 1.93 3.01.57.75 1.49 1.61 1.67 2.75.69 1.31.58 2.81.13 4.21-.53 1.65-1.25 3.2-1.71 4.89a80.2 80.2 0 0 1-1.52 4.85c-.1.2-.2.38-.28.59-.15.37-.26.75-.37 1.13-.12.28-.8 2.46-1.04 3.22-.12.39-.24.77-.33 1.17l-.11.58v.02l-.02.14-.02.35c-.02.54-.97 1.11-.98 1.17-1.8.95-3.79 1.89-5.67 3.02-1.68 1.01-3.25 2.2-4.84 3.37-.44.33-.82.79-1.12 1.25-.14.22-.16.77 0 .9.58.49 1.21 1.11 1.91 1.23.72.13 1.56-.21 2.31-.45.22-.07.44-.19.64-.31.53-1.18 2.51-.59 2.12.77-.27.94-.64 1.89-.74 2.87-.08.81.11 1.61.32 2.38a19.69 19.69 0 0 0 1.98 4.71 8.73 8.73 0 0 0 2.98 3.34c1.23.77 2.57 1.27 3.95 1.68.49.14.72.5.78.89l.17.07c-.48 1.5-.94 3.02-1.48 4.51Zm11.89 26.75c.59 1.66 1.15 3.3 1.76 4.92.02.05.05.1.1.15.08.08.18.15.27.22.11.06.22.11.32.14.39.09.79.16 1.18.24.47-.15.44-.56.42-1.08-.06-1.71-.79-3.44-1.37-5.02a42.52 42.52 0 0 1-1.04-3.33c-.21-.4-.42-.83-.36-1.19v-.16c-.06-.24-.13-.46-.18-.7-.32-1.3-.71-2.55-1.22-3.79a11.27 11.27 0 0 1-.95-3.19c-.2-.46-.42-.91-.7-1.32-.4-.59-.39-1.22-.38-1.83-.3-.83-.57-1.66-.83-2.5-.19-.45-.35-.92-.6-1.32-.86-1.36-1.76-2.71-2.65-4.06a8.04 8.04 0 0 1-1.06-1.33c-.47-.76-.78-1.46-.59-2.37.15-.73.52-1.43.92-2.05.08-.12.19-.19.29-.27.16-.27.43-.4.96-.27.72.18 1.45.47 2.17.45.42 0 .84-.21 1.26-.41l.08-.12.05-.1c-.05.1-.05.09 0-.03-.03-.2.03.13 0-.15l-.01-.37v-.2a7.5 7.5 0 0 0-.25-.49c-.8-1.35-2.14-1.28-3.48-1.47a16.84 16.84 0 0 1-3.92-1.24 23.44 23.44 0 0 1-3.72-1.85 9.13 9.13 0 0 1-.71-.51 5.6 5.6 0 0 1-2.39-3.26c-.3-.64-.55-1.3-.72-1.98-.4-1.6-.51-3.73.6-5.05.25-.65.56-1.26.91-1.78.92-1.37 2.41-1.52 3.36-2.58.17-.19.41-.3.79-.57.91.77 1.95 1.5 2.79 2.4 1.01 1.09 2.32 1.05 3.58 1.19.32.04.64.04.97.03s.08-.09.12-.13l.1-.16.03-.08c0-.01.01-.05.04-.08s.01-.05.02-.07l-.07-.38-.09-.34a272.16 272.16 0 0 0-3.97-3.65c-.55-.5-1.22-.88-1.75-1.39-.14-.13-.1-.73.05-.84 1.82-1.29 3.7-2.5 5.51-3.8 2.52-1.8 4.97-3.69 7.49-5.49.95-.68 1.99-1.28 3.29-2.08-.04.99.07 1.97.22 2.98l.08.56c-.04.64.12 1.26.27 1.87l.24 1.62c0 .06.05.11.07.16.07 1.53.31 3.04.47 4.57.07.67-.01 1.38.2 2 .38 1.09 1.01 2.01 2.28 2.22 2.22-.06 4.42-.37 6.64-.54l1.13-.09c1.65-.59 3.42-.59 5.18-.66 2.12-.4 4.24-.86 6.38-1.17 2.35-.34 4.62-1.07 5.06-3.68.35-2.05-.2-4.21-.42-6.25-.16-1.43-.24-2.87-.38-4.3-.17-.27-.3-.53-.4-.8-.2-1.78-.45-3.56-.55-5.35l2.38-.82c1.11-.09 2.21-.23 3.29-.47.76-.17 1.5-.4 2.25-.62l.15.15c1.24 1.32 1.2 3.06 1.54 4.71a37.5 37.5 0 0 0 1.41 5.37l.14.9c.29 1.67.68 3.98 1.94 5.22.7.69 1.59.72 2.51.64l3.28-.29c.35-.03.62-.19.82-.4 2.86-.62 5.72-1.24 8.64-1.48 1.09-.09 1.34 1.16.79 1.83l.15.87c.22 1.66.79 3.28 1.16 4.92.19.85.34 1.71.43 2.57.14 1.29.18 2.59.31 3.88.28 2.97.61 5.93.88 8.89.1 1.07 0 2.16.12 3.23.26 2.39.7 4.77.85 7.17a3.86 3.86 0 0 1-1.42 3.17c-1.77 2.44-4.92 3.44-7.59 4.57a285.66 285.66 0 0 0-12.12 5.45c-3.76 1.81-7.57 3.65-11.66 4.57-2.74.61-5.51 1.31-8.3 1.72a4.55 4.55 0 0 0-.63 1.77c-.06.76.31 1.34.97 1.58 1.54-.4 3.1-.73 4.66-1.04.58-.16 1.21-.29 1.85-.37l.74-.15c.31-.06.61-.05.9 0 .87-.05 1.68-.04 2.31.01-1.2 3.19-.92 6.44-.68 9.75.12 1.7.12 3.44-.59 5.27-.09.23-.21.42-.31.63a8.89 8.89 0 0 1-1.65 1.82c-1.27 1.11-2.64 2.11-3.98 3.11a53.19 53.19 0 0 1-4.43 3.02c-.89.54-1.76 1.08-2.52 1.74a213.72 213.72 0 0 1-6.82-3.29c-2.16-1.09-4.26-2.35-6.48-3.31-2.16-.94-4.52-1.3-6.76-2.02a68.63 68.63 0 0 1-5.9-2.18c-.33-.14-.83-.29-1.25-.51 0-.06.02-.11.03-.16l-.18.09c-.13-.88 4.35-6.93 5.87-7.99Zm-8.84 12.02c.04-.06.1-.12.17-.16.24-.56.88-.98 1.59-.63.23.12.48.2.71.31.27.05.54.17.77.33 1.1.43 2.23.78 3.37 1.11.18-.02.44.06.67.19.76.22 1.51.44 2.26.69 1.9.63 3.76 1.35 5.61 2.12a12.2 12.2 0 0 1 2.91 1.26l.64.28c.17.08.3.18.39.3l.6.33 2.98 1.57c1.45.77 2.91 1.52 4.34 2.32.64.36 1.27.75 1.84 1.21 1.02.82 1.01 1.95.11 2.84-.58.58-1.06 1.26-1.6 1.88-.83.95-1.65.08-2.45-.08-.5-.1-.96-.43-1.45-.6-1.75-.61-3.55-1.09-5.25-1.83-2-.87-3.85-2.1-5.87-2.9-2.06-.82-4.26-1.29-6.38-1.97-.9-.29-1.74-.74-2.63-1.08-.84-.32-1.7-.61-2.57-.85-1.16-.32-2.34-.58-3.68-.9.99-2.02 1.82-3.97 2.92-5.74ZM129.9 248.96a2.56 2.56 0 0 1-.64-.32 3.85 3.85 0 0 1-2.34-1.79l-.26-.21v-.37c-.61-1.72-.06-3.48-.05-5.26 0-.11.04-.2.06-.3a63.51 63.51 0 0 1 0-5.52c.04-.9.07-1.8.09-2.71l.01-.33c.07-3.1.03-6.2 0-9.3-.04-3.9-.09-7.79-.17-11.69a59.3 59.3 0 0 1 .51-10.23 1.18 1.18 0 0 1-.04-.42c.2-2.16.37-4.32.65-6.47.11-.86.52-1.68.69-2.55.08-.42-.06-.89.1-1.26.25-.97.56-1.92.73-2.9.28-1.63.9-3.34.62-4.88-.41-2.26.33-4.31.62-6.39.27-1.91 1.21-4.1 2.59-5.37 1.08-.99 1.79-2.08 2.69-3.12a12.9 12.9 0 0 1 4.74-3.58c1.06-.44 1.83-1.61 2.7-2.49 1.38-1.39 2.48-3.32 4.14-4.11 2.32-1.1 3.5-3.57 6.03-4.29.82-.23 1.45-1.1 2.18-1.65.86-.65 1.74-1.02 2.88-.59 1.12.42 2.35.55 3.45 1 1.89.77 3.71 1.72 5.57 2.56.96.43 2.01.69 2.95 1.16 1.25.62 2.43 1.38 3.65 2.08.23.13.48.3.73.33 1.86.19 3.17 1.48 4.74 2.25 1.47.72 3.07 1.18 4.63 1.72 2.12.73 4.36 1.22 6.35 2.19 2.02.98 4.19 1.61 6.12 2.77.29.17.57.59.6.92.17 1.75.19 3.52.39 5.27.17 1.43.54 2.83.77 4.25.13.8.14 1.61.26 2.41.33 2.13.79 4.24 1.02 6.37.14 1.32.06 2.67.04 4.02.05.21.07.42.03.63-.15.68-.89.99-1.52.86-1.75-.36-3.56-.44-5.28-.96l-1.06-.14c-2.46-.39-4.9-.9-7.37-1.2-2.32-.28-4.47-1.11-6.7-1.69-1.9-.5-4-.22-5.94-.63-2.34-.49-4.6-1.36-6.9-2.05-.26-.08-.54-.07-.8-.15-1.75-.52-3.5-1.07-5.26-1.55-.64-.18-1.33-.19-1.98-.33-.72-.15-1.45-.3-2.13-.57-1.31-.52-3.25.63-3.38 2.03a4.3 4.3 0 0 1-.38 1.37l-.03.06c-.1 1.26-.1 2.53-.07 3.8v.14c.04 1.89.12 3.78 0 5.66l-.02.1.07 6.16c.02 1.68-.06 3.35.01 5.03.09 2.02.34 4.03.44 6.05.12 2.5.16 5.01.16 7.52 0 .18-.57.53-.84.5a31.44 31.44 0 0 1-3.97-.71c-1.25-.33-1.98.1-2.02 1.38-1.57.73-2.03 2.38-.77 3.1.31.17.65.28 1.01.36 4.13-.65 8.24.06 12.25 1.15a60.93 60.93 0 0 1 1.89.38l1.87.48c.24.08.49.17.73.23l1.44.33 7.21 1.85c1.11.49 2.19 1.07 3.33 1.45 1.82.61 3.7 1.19 5.6 1.4 2.22.25 2.85.62 2.32 3.15-.47 2.21-.76 4.46-1.14 6.69-.35 2.02-.73 4.03-1.07 6.05-.16.95-.23 1.91-.33 2.86-.15 1.44-.55 2.47-2.14 3.19-1.71.77-3.35.82-5.09.76-1.03-.03-2.06.06-3.08-.04-3.04-.31-6.07-.7-9.11-1.03-4.12-.44-8.25-.78-12.37-1.27-1.86-.22-3.69-.72-5.55-1.01-1.24-.19-2.53-.05-3.74-.34-2.74-.65-5.45-1.43-8.14-2.26Zm82.62-47.88a95.1 95.1 0 0 1-.28 6.32c-.12 1.47-.35 2.92-.57 4.38a1 1 0 0 1 .07.39c-.2 2.78-.75 5.52-1.14 8.28 0 .05-.04.07-.05.12-.3 3.56-.7 7.11-1.12 10.65-.27 2.28-.3 2.11-2.71 1.65-2.07-.39-4.22-.38-6.33-.48-1.75-.08-3.5-.11-5.25-.13-.06.03-.12.07-.19.09l-2.14.47a6.1 6.1 0 0 1-2.47.7c-.89.32-1.74.73-2.53 1.28a.75.75 0 0 1-.55.1l-.71.39v-.17c.18-1.15 0-2.3-.89-3.26a5.17 5.17 0 0 0-1.79-1.16 5.87 5.87 0 0 0-.96-.72 23.48 23.48 0 0 0-4.04-1.95c-1.93-.68-3.93-1.53-5.92-1.59-2.38-.08-4.37-1.31-6.67-1.5a25.15 25.15 0 0 1-5.3-1.06 10.18 10.18 0 0 1-3.71-1.92 4.88 4.88 0 0 1-1.43-3c-.3-4.33-.45-8.67-.51-13.01-.08-5.97 0-11.94-.03-17.91 0-1 .32-1.33 1.27-1.16 1.95.36 3.91.67 5.86 1.07 2.44.5 4.87 1.07 7.31 1.62.22.05.41.19.63.23 1.72.31 3.47.51 5.16.94 1.1.28 2.16.71 3.23 1.1.19-.05.41-.07.65 0 2.4.71 4.85 1.28 7.29 1.88.17-.04.35-.04.55 0 2.14.48 4.28.39 6.37 1.16 1.95.72 3.81 1.61 5.82 2.18 2.03.58 4.1.98 6.17 1.33 1.01.17 2.03.3 3.04.5.93.18 1.8.44 2.75.43 1.01 0 1.37.99 1.09 1.72l.01.03Zm-8.61 46.04.53.16c1.28.32 2.58.49 3.86.8.69.17 1.84.47 2.27 1.17.12.14.23.29.3.47.26.61.03 1.26-.59 1.54-.51.23-1.12.13-1.65.04-.99-.16-1.95-.45-2.94-.6-.68-.1-1.36-.19-2.05-.19-.52 0-1.22 0-1.62.37-.04.15-.06.3-.06.45 0 1.29 2.1 1.62 3.06 1.85.48.11.98.12 1.54.18.64.07 1.35.12 1.93.42.54.29.97.9.8 1.53-.15.56-.67.84-1.2.93-1.11.18-2.27-.06-3.38-.18-2.06-.22-4.13-.33-6.17-.7-.04 0-.07-.04-.1-.05-1.66.04-3.31.1-4.95-.03-1.9-.15-3.77-.83-5.64-1.31-1.33-.34-2.64-.73-3.96-1.11-.33-.1-.64-.25-.91-.35.49-2.55.93-4.99 1.45-7.41.37-1.75.74-3.51 1.32-5.18.18-.51 1.05-.86 1.67-1.12 1.86-.8 3.74-1.54 5.63-2.27 1.16-.45 2.31-.96 3.52-1.19h.16c.15-.03.31-.03.47-.05 1.37-.71 3.14-.52 4.69-.37l.12-.02c3.08 0 6.12.49 8.59 2.45.33.26.33.74.13 1.09-.06.16-.19.29-.33.41s-.06.04-.08.06c-.05.03-.09.07-.14.09-.03.01-.04.04-.07.04a.7.7 0 0 1-.35.08c-.19 0-.38-.02-.57-.04-.19-.03-.38-.05-.55-.13-.04-.01-.08-.05-.12-.07-.64-.08-1.27-.23-1.9-.36l-.8-.14-1.47-.17c-.73-.06-1.47-.08-2.2-.01-.2.02-.16 0-.42.06l-.3.07c-.07.04-.16.06-.22.12-.66.54-.62 1.49-.33 2.22l.35.22.18.08c2.1.4 4.31.64 6.37.92 1.51.2 3.31.24 4.52 1.29l.01.02.13.1.03.02h.01l.15.2.04.06c.04.09.09.18.11.27.02.1.04.2.04.3l.01.03c.14.39-.11.8-.41 1.01-.68.49-1.6.57-2.41.57-1.68 0-3.36-.38-5.04-.27l-.23.02-.18.03c-.16.03-.31.08-.46.12l-.06.02-.03.02-.19.11-.03.01-.01.02-.09.09c.03.45.1.86.23 1.19Zm-52.86 32.17c-.22-.02-.41 0-.57.07l-.8-.09c-2.92-.43-5.87-.75-8.73-1.43a3.03 3.03 0 0 1-2.39-2.23 7.78 7.78 0 0 1 .11-4.4c.21-2.19.86-4.36 1.01-6.55.2-2.94.27-5.93 1.07-8.79l.08-.17c1.81.03 3.61.1 5.41.23 2.27.5 4.62.5 6.92.75 3.16.34 6.35.36 9.53.6 2.43.18 4.94.18 7.25.84 2.07.59 4.08.79 6.08.41 1.61-.31 3.09-1.21 4.65-1.8a9.46 9.46 0 0 1 1.99-.47c.29-.04.6-.04.92-.03.14-.04.3-.06.48 0l.08.02h.24l.02.06c2.15.57 4.34.89 6.52 1.31 1.74.33 3.45.81 5.16 1.31.54.1 1.08.22 1.62.35 1.16.26 2.29.63 3.65 1.01-.09.89-.15 2-.33 3.1-.46 2.91-.9 5.83-1.49 8.71-.64 3.09-1.53 6.13-2.15 9.22a6.8 6.8 0 0 1-2.35 4.16c-.56.45-1.53.62-2.29.56-1.22-.09-2.43-.75-3.62-.69-2.1.11-3.89-.85-5.83-1.23-2.13-.41-4.32-.57-6.42-1.1a21.1 21.1 0 0 0-6.13-.4c-6.53-1.3-13.09-2.6-19.68-3.3Zm45.09 99.54c-.09.6-.27 1.16-.49 1.72l.12.12c-1.05 2.65-3.37 2.42-5.44 2.53-3.14.18-6.29.24-9.44.27-3.16.04-6.32.07-9.48-.06-1.34-.05-2.83-.01-3.83-1.24-.17-.21-.33-.54-.3-.8.15-1.43.24-2.88.57-4.27.35-1.46.95-2.86 1.44-4.29.43-1.27.83-2.54 1.28-3.8.76-2.11 1.54-4.21 1.89-6.45.05-.32.86-.78 1.28-.74 2.71.25 5.4.71 8.11.9 1.15.08 2.33-.38 3.5-.49 2.45-.22 4.91-.37 7.5-.56.75 3.34 1.46 6.38 2.13 9.44.34 1.53.66 3.06.93 4.6.18.19.24.41.27.67a9.5 9.5 0 0 1-.05 2.44Zm15.86-8.75c.59.75 1.13 1.52 1.56 2.35.43.5.84 1.02 1.18 1.58.82 1.35 1.55 3.48.24 4.77-1.01 1-2.71.91-4.02.77-.72-.08-1.44-.19-2.15-.3l-.18-.02h-.08l-.58-.05c-.44-.04-.88-.09-1.31-.18a5.89 5.89 0 0 1-.75-.2c-1.71-.06-3.44-.37-5.15-.58-1.41-.18-1.13-1.61-1.36-2.43-1.21-4.23-2.23-8.52-3.28-12.79-.17-.67-.21-1.33.8-1.52.41-.08.8-.31 1.16-.57 3.06-.29 6.14-.5 9.21-.61-.16.61 0 1.1.54 1.63.5.49.86 1.17 1.13 1.83.66 1.59 1.19 3.23 1.86 4.81.24.57.76 1.03 1.15 1.53Zm19.82-101.81a45.75 45.75 0 0 0-.8 4.17c-.56 3.72-1.07 7.45-1.62 11.17-.25 1.68-.36 3.41-.88 5.01-.57 1.76-1.57 3.38-2.3 5.09-.45 1.06-.73 2.19-1.07 3.29-.35 1.13-.87 2.27-1.2 3.4a124.6 124.6 0 0 0-4.65 12.71c-1.4 4.64-2.4 9.37-3.54 14.07a521.16 521.16 0 0 1-4.84 18.25l-.24.72c-.58 1.83-.89 3.81-1.76 5.48-1.09 2.09-2.19 4.45-5.15 4.57-1.08.04-2.17.11-3.25.17-.26.01-.56-.03-.79.07-1.16.5-1.43.33-1.5-.86-.03-.48-.4-.96-.38-1.43.05-.87.37-1.72.41-2.59.07-1.57.04-3.15.07-4.72.62-5.11 1.23-10.22 1.26-15.37.01-2.05-.09-4.11-.23-6.17.17-1.66.36-3.32.48-4.99.1-1.25-.28-2.56-.07-3.78.33-1.9-.46-3.94.19-5.6.58-1.5.5-2.91.65-4.35.13-1.25.06-2.51.04-3.81l-.07-.19-.02-.05-.12-.21-.07-.11-.01-.02c-.58-.11-1.12-.25-1.65-.22-1.19.07-1.88.67-2.13 1.9l.08 1.09c-.88 5.37-.55 10.74-.15 16.11a60.47 60.47 0 0 1-.12 3.56c-.23 3.69-.46 7.38-.66 11.07a38.22 38.22 0 0 1-1.41 8.96c-.14.93-.28 1.86-.4 2.79a36.3 36.3 0 0 0-.37 3.89c-.05 1.76.03 3.53.05 5.29 0 .26.01.52.08.73v.11l-.09.26-.1.27a24 24 0 0 1-5.14.66c-.09-.04-.17-.08-.26-.08-3.19-.11-6.37-.24-9.56-.22-.19 0-.37.04-.56.06-2.05-.22-4.1-.47-6.16-.5-.4-3.64-.76-7.17-1.22-10.69-.16-1.27-.63-2.49-.9-3.75-.42-1.99-.84-3.98-1.17-5.99-.45-2.66-.78-5.34-1.23-8.01-.37-2.21-.83-4.4-1.27-6.6a1.9 1.9 0 0 0-.28-.74c-.41-.58-.6-1.1-.59-1.91.01-1-.65-2-1-3-.08-.25-.07-.53-.1-.79-.28-2.06-.51-4.13-.84-6.18-.39-2.4-.81-4.8-1.31-7.19-.23-1.12-.66-2.2-1.01-3.3-.25-.8-.46-1.62-.77-2.4-.05-.12-.13-.21-.19-.32l-3.38-12.55c.35-.12.89-.19 1.26-.19.6 0 1.19.31 1.79.37 2.81.3 5.71.25 8.42.93 1.12.28 2.23.5 3.35.68l1.15.28c.25.07.46.04.66-.01l1.68.22c.41.05.82.15 1.22.27 1.97.25 3.92 1.1 5.86 1.39 2.78.42 5.6.57 8.39.93 2.13.28 4.9.8 7.11.21a4.7 4.7 0 0 0 1.58-1.05c.66-3.7 1.48-7.38 2.28-11.06a378.23 378.23 0 0 1 3.49-14.46c.09-.35.58-.88.83-.84 1.29.16 2.56.46 3.83.74.04 0 .07.03.11.04.53.12 1.05.27 1.58.41l1.83.26c1.54.07 3.08-.08 4.63-.12 1.76-.05 3.52-.02 5.26-.28.79-.12 1.56-.3 2.32-.5.22-.13.43-.26.65-.37 1.58-.78 3.23-.26 4.86-.26.3 0 .86.27.88.45.19 1.91.71 3.92.27 5.7Zm50.47-68.3c-.98 1.04-2.04 2-2.99 3.06-.33.37-.45.93-.58 1.23-.79.57-1.51 1.12-2.27 1.63-1.2.8-2.4 1.59-3.62 2.35-.35.22-.71.43-1.07.63-1.37 1.31-2.65 2.72-3.97 4.01a35.2 35.2 0 0 1-2.82 2.48l.05.16-.15-.08a27.23 27.23 0 0 1-6.65 3.93c-.61.29-1.22.57-1.82.88l-1.19.65c-1.7.41-3.53-.25-5.16-.96a50.55 50.55 0 0 1-6.37-3.41 103.93 103.93 0 0 1-5.81-3.94c-1.71-1.23-3.87-2.44-5.2-4.14v-.07a127 127 0 0 1-.74-2.74c-.5-1.61-.59-3.27-.69-4.95l-.15-2.6c-.06-.51-.14-1.03-.19-1.54-.08-.79-.22-1.82-.02-2.5-.13-2.84-.21-5.69-.24-8.53l-.22-.13-.22-.11-.1-.04c-.18-.06-.36-.12-.55-.16l-.3-.06h-.1c-.26.15-.51.34-.75.64a4.24 4.24 0 0 0-.88 3.62c.09.51-.11 1.06-.11 1.59l.01 3.86c-.07.57-.12 1.13-.11 1.69.04 2.13.29 4.27.45 6.39.31 4.02.26 8.32 1.27 12.25.26 4.44.55 8.88.85 13.32.07 1.02.55 2.03.51 3.04-.15 3.48-.02 6.94.22 10.4.13 1.87.25 3.75.4 5.62.03.4.16.8.23 1.2.23 1.26.41 2.53.67 3.79.28 1.36.64 2.7.94 4.05.06.29 0 .61 0 .95-1.46.22-2.9.34-4.28.68-1.63.4-3.18 1.14-4.81 1.46-2.1.41-4.26.9-6.37-.08a2.68 2.68 0 0 0-.85-.29l-6.76-.76c0 .06-.05-.15.02-.19a3.2 3.2 0 0 0 1.4-1.82v-.05c.13-1.29.94-2.2 1.58-3.27.3-.5.4-1.01.49-1.61l.08-.4c-.08-1.05.35-2.14 1.47-3.17.52-.48.74-1.59.66-2.37-.2-1.87.16-3.98-1.79-5.33-.23-.16-.3-.8-.21-1.24 0-.32-.02-.64-.05-.96v-.04l-.05-.24-.1-.44a6.78 6.78 0 0 0-.3-.9v-.03c-.02-.07-.07-.15-.11-.22l-.24-.48a1 1 0 0 1-.09-.61c-.03-.03-.07-.05-.09-.09l-.09-.21a.97.97 0 0 1 0-.48l.07-.16v-.05c.09-2.99.5-5.93.82-8.9.29-2.65.33-5.33.98-7.93.71-2.85.86-5.64 1.29-8.53.21-1.41.55-2.8.67-4.22.06-.66.08-1.33.1-2a30.05 30.05 0 0 0-1.26-5.4c-.27-.79-1.5-1.39-2.41-1.78l-.33-.13a27.52 27.52 0 0 1-7.19-2.02c-.44-.21-.63-.72-.59-1.19a.52.52 0 0 1-.11-.24c-.49-2.6-.68-5.28-1.4-7.81-.85-2.98-.61-6.01-1.02-9-.34-2.41-1-4.78-1.49-7.18-.06-.31-.02-.76.17-.98 1.14-1.34 2.39-2.59 3.49-3.97.67-.84 1.13-1.86 1.69-2.79.12-.2.24-.43.41-.58a17.9 17.9 0 0 0 4.29-5.26c1.23-2.47 3.17-4.37 5.11-6.27.21-.21.76-.34 1-.22 1.55.8 3.2 1.49 4.61 2.47l.03.03c1.27 1.36 1.96 3.11 3.21 4.47.5.55 1.04.98 1.51 1.51.61 1.02 1.17 2.08 1.8 3.08l.37.7 3.14 5.88c1.99 3.71 4.61 6.88 7.02 10.31 2.13 3.02 3.67 6.51 6.4 9.06a8.98 8.98 0 0 0 1.97 3.01c.5.5 1.08.92 1.65 1.34l.35.24c.05.11.1.21.13.32.38 1.21 3.1 1.34 4.38.36.44-.33.89-.68 1.4-.87a29.41 29.41 0 0 0 6.38-3.51c1.5-1.06 3.31-1.69 5.04-2.39 1.16-.47 2.03-1.41 3.52-1.42 1.58-.01 2.18 1.07 2.98 1.85.81.79 1.21 1.98 1.85 2.95 1.15 1.74 2.81 3.08 3.49 5.21.34 1.07 1.57 1.84 2.24 2.85.86 1.31 1.58 2.71 2.31 4.09.1.18.03.58-.11.74Zm4.95-21.69c-.36.57-.75 1.12-1.09 1.7-.08 1.52 0 3.07.37 4.51.4 1.57.97 2.95-.25 4.34-.63.72-.65 1.48-.33 2.38.57 1.63-.37 3.42-2.13 4.16-1-1.42-2.04-2.82-3-4.28-.68-1.04-1.21-2.18-1.84-3.24a76.81 76.81 0 0 0-2.04-3.24c-.38-.58-1.07-1.07-1.17-1.67-.09-.53.38-1.21.72-1.75.8-1.27 1.65-2.51 2.49-3.75.97-1.66 1.97-3.21 4.04-3.97 1.69-.61 3.45-.74 5.21-.64.35.02.7.04 1.05.08h.08c.96.11 1.92.27 2.88.33 1.43.09 2.88.19 4.3.08.7-.05 1.69.17 2.52.6.71.21 1.45.54 1.79 1.13.78 1.38-.79 2.2-1.94 2.25-1.55.06-3.04-.57-4.61-.55-1.74.03-3.62.08-5.28.68-.62.22-1.21.53-1.79.86Zm7.27 24.91c-.21.81-.84 1.57-1.91 1.52-.18 0-.34-.04-.51-.07a2.91 2.91 0 0 1-2.49-1.43 6.2 6.2 0 0 1-.53-2.89l.03-1.5v-.81l-.02-.34-.02-.19v-.05c-.07-.39 0-.75.21-1.04.08-.49.41-.91 1-.98v-.06l.14.03h.01c.2 0 .38.04.53.11l4.92.97c-.45 2.28-.81 4.53-1.37 6.73Zm6.73-14.6c-.1.54-.66 1.02-1.06 1.49-.24.28-.5.52-.76.74a1 1 0 0 1-.3.27l-.16.07c-.58.38-1.2.6-1.88.65-.76.14-1.54.18-2.32.14-.5-.03-1-.09-1.51-.11-.51-.02-1.07-.04-1.53-.28a1.3 1.3 0 0 1-.56-.6c-.45-.24-.46-.78-.24-1.18a3.64 3.64 0 0 1 1.67-.71l.16-.01h.52l.28.02.66-.01c.94.07 1.87.17 2.81-.1.7-.2.58-1.26-.16-1.27l-2.86-.05c-.57-.03-1.15-.06-1.68-.23a2.28 2.28 0 0 1-.93-.57c-.08-.07-.17-.14-.23-.24a1.05 1.05 0 0 1-.13-.36c-.02-.06-.06-.12-.07-.18v-.17a1.23 1.23 0 0 1-.03-.51c.08-.64.61-1.16 1.18-1.43.1-.05.2-.07.3-.11h.48l1.5-.02c1.01-.01 2.02 0 3.02.1.2.02.38-.1.5-.26h.04l.01-.03v-.02l.02-.03v-.03a.68.68 0 0 0 .07-.27c0-.38-.29-.61-.64-.65a25.31 25.31 0 0 0-3.26-.1l-1.62.02-.45.01-.72-.04c-.45-.05-.92-.18-1.17-.61a.94.94 0 0 1-.08-.84c0-.23.04-.46.14-.64.14-.24.45-.52.74-.57.6-.1 1.21-.16 1.81-.21.95-.25 1.98-.13 2.98-.11h.28c.94 0 1.89.18 2.8.4.43.1 1.02.4 1.14.75.87 2.55 1.76 5.13 1.24 7.88Zm2.92-27.45c-.45 2.99-1.35 5.86-1.84 8.83a1.2 1.2 0 0 1-1.12.1c-1.91-.23-3.82-.45-5.72-.73a1.9 1.9 0 0 1-.61-.2c-.78.03-1.56-.56-1.2-1.47 1.33-3.3 1.63-7.03 1.92-10.54.24-2.99.2-6.33 1.71-9.02v-.14h.11a1.1 1.1 0 0 1 1.18-.47c.21-.05.42-.08.62 0 1.9.63 3.85 1.19 5.83 1.46.3.04.51.23.66.47-.45 3.91-.95 7.82-1.53 11.71Zm1.37-16.38c-.12.37-.38.64-.69.79-.3.38-.85.59-1.31.44-1.23-.39-2.55-.29-3.7-.97l-.12-.1a1.25 1.25 0 0 1-1.1-1.21c0-.19.05-.37.13-.53 0-1.11.47-2.18 1.1-3.07.35-.49.74-.96 1.12-1.43l.44-.54c.17-.26.06-.08.01-.01h-.01v.03s.05-.09.09-.13l.21-.29c.35-.51.93-.7 1.49-.5.24-.16.51-.25.83-.21.49.07.89.41 1.02.88.66 2.25 1.23 4.54.49 6.85Z"/>
    <path d="M208.52 88.01c.21 0 .42.02.68.05.78-.1 1.56-.23 2.33-.41 1.37-.47 2.85-.97 4.32-1.54a3.38 3.38 0 0 0 1.64-1.22c.25-.42.46-1 .49-1.51-.02-.05-.06-.09-.08-.15-.33-1.13-.79-2.2-1.19-3.31-.3-.81-.56-1.64-.83-2.47l-.04-.03.01-.05-.3-.92c-.5-1.51-1.03-3.02-1.34-4.57l-.03-.06-.04-.05-.05-.05-.1-.07-.06-.04-.08-.04c-.21-.08-.43-.14-.64-.2l-.31-.07a.49.49 0 0 0-.12.13c-.52.78-1.16 1.39-.49 2.59.59 1.03.54 2.41.84 3.62.32 1.27.86 2.5 1.06 3.78.24 1.56-.61 2.63-1.95 2.81-1.54.21-3.09.35-4.62.63-.36.07-.83.51-.91.87-.48 2.04-.3 2.22 1.8 2.27ZM161.06 92.75c.17.07.31.2.42.35l.02.02v.01l.14.1c-.18-.13.07.03.11.05l.2.09.47.17.19.06h-.04c-.06-.03-.1-.05 0-.01l.06.02c.43.11.87.16 1.31.23l.66.11.26.04.22.02H165.15l.03-.03.14-.17.16-.22c-.07.11.06-.12.08-.16l.04-.09v-.02l-.1-.22-.08-.12-.15-.21-.18-.22-.8-.75c-.46-.41-.9-.85-1.4-1.22-.51-.38-1.09-.68-1.56-1.1-.94-.83-1.83-2.52-.63-3.54.72-.61 1.76-.52 2.62-.36.08.01.15.05.22.08l.16-.07c.11-.07.22-.15.32-.24.05-.06.11-.12.15-.19l.03-.07v-.03l-.01-.13-.08-.18c-.09-.15-.2-.29-.32-.36-.78-.47-1.63-.81-2.47-1.19-1.1-.5-2.75-.21-3.77.55-.16.31-.33.62-.45.95l-.22.66c.08 1.41.09 2.84.93 4.05.51.75 1.31 1.3 1.96 1.95.45.45.88.92 1.31 1.39ZM226.19 96.83c-.45-1.17-2-.56-2.88-.83-.31-.1-.67-.16-1-.26-1.51.12-3.01.25-4.52.25-.09 0-.17-.03-.26-.05-1.78.3-3.57.54-5.35.83-1.5.24-3.08.31-4.47.86-1.22.48-3.16-.25-3.57 1.84-.02.08.98 1.35 1.66 1.34 1.7-.02 3.48 0 5.08-.5a29.1 29.1 0 0 1 8.49-1.21c1.12 0 2.23-.56 3.35-.58 1.53-.02 3.88-.65 3.47-1.68ZM192.83 64.46c.98.32 2.13.47 2.18.77.13.97.02 2.05-.31 2.98a3.74 3.74 0 0 1-1.48 1.68c-.77.5-3.52-.93-3.79-1.84-.23-.77.94-1.85 2.07-1.76 1.09.09 1.7-.15 1.34-1.82ZM223.33 58.49c.25-.42.47-1.16.76-1.2 1.01-.11 2.23-1.63 3.05.36.23.56.81.97 1.21 1.46.52.63.03 2.24-.74 2.45-1.91.53-4.01-.99-4.29-3.06Z"/>
    <path d="M193.95 64.77a1.87 1.87 0 0 0-1.42-.44 2.72 2.72 0 0 0-1.43.52c-.36.16-.7.37-.99.62-.34.29-.55.67-.71 1.08a1.9 1.9 0 0 0 .12 1.53c.05.1.11.17.18.26.06.08.12.17.2.24.16.14.34.28.54.38.33.16.68.28 1.02.41.29.11.72.02.98-.13.21-.12.39-.34.5-.58a2.12 2.12 0 0 0 1.04-1.13c.03-.04.08-.07.11-.12.46-.77.54-1.97-.15-2.64ZM228.55 59.72a1.29 1.29 0 0 0-1.57-.93c-.03 0-.05.03-.08.04.17-.22.3-.51.29-.78a1.34 1.34 0 0 0-.38-.93c-.24-.21-.57-.4-.9-.37-.34.03-.69 0-1.03.1-.4.11-.73.32-1.04.6-.14.13-.25.29-.36.44a2.47 2.47 0 0 0-.4 1.42 3.17 3.17 0 0 0 .55 1.55c.13.18.26.38.43.52.33.29.71.5 1.15.57.34.06.71.11 1.05.09a2.52 2.52 0 0 0 2.15-1.35c.15-.3.22-.63.13-.96ZM214.04 71.69a.8.8 0 0 0-.19-.22c-.13-.1-.22-.16-.37-.21-.36-.12-.81 0-1.06.27-.13.14-.2.28-.27.46-.05.13-.06.27-.07.4l-.04.65c0 .16.08.35.19.46.11.11.29.19.45.19a.6.6 0 0 0 .46-.19.7.7 0 0 0 .19-.45l.01-.22c.07.03.15.05.22.04a.6.6 0 0 0 .46-.19c.11-.12.2-.28.19-.45a1.03 1.03 0 0 0-.16-.54Z"/>
  </g>
</svg>
