<svg xmlns="http://www.w3.org/2000/svg" viewBox="0 0 393 393">
  <defs>
    <style>
      .c{fill:#f4d75c}.f{fill:#b68561}.h{fill:#c7b051}
    </style>
  </defs>
  <g id="b">
    <path class="c" d="m168.81 41.68-9.87-.68c-1.34-3.28-.88-7.02-.38-10.46.05-.35 0-.69-.1-1.01 1.29-1.94-1.54-4.52-3.42-2.67-2.11 2.06-4.23 4.11-6.33 6.2a26.52 26.52 0 0 0-3.3 4.09l-.93.55a38.33 38.33 0 0 0-4.84 3.34h-1.15c-2.7-.07-5.4-.12-7.98.81-1.95.7-2.03 2.9-.51 3.93.04.62.34 1.25 1.04 1.69l1.07.69a5.71 5.71 0 0 1 1.55 1.86c.33.61 1.13 1.14 1.85 1.09.58.84.82 1.72.3 2.58-.87 1.44.29 3.21 1.88 3.26 3.83.12 7.72 1.87 9.58 5.36.9 1.68 3.52 1.26 3.99-.53a38.2 38.2 0 0 1 1.59-4.7c.39-.03.78-.03 1.18 0 2.29.15 5.35 1.59 7.55.39 1-.55 1.82-2.01 2.51-2.9a97.03 97.03 0 0 0 6.61-9.6c.89-1.48-.31-3.15-1.88-3.26ZM224.54 288.54c-.76-6.29-1.51-12.6-2.55-18.84a63.6 63.6 0 0 0-2.34-10.2c-1.06-3.09-3.79-7.17-3.18-10.48.6-3.31-1.94-6.01-5.31-5.35-11.85 2.32-25.36 3.43-37.42 2.16-4.23-.44-8.05-1.85-12.36-1.68-6.12.25-10.87 1.71-16.78-1.16-3.88-1.89-7.35 2.2-6.39 5.29-.19.34-.36.7-.47 1.13-3.13 11.96-3.13 24.81-3.96 37.09-.86 12.67-1.16 25.22 1.89 37.65a4.42 4.42 0 0 0 5.32 3.12 244.54 244.54 0 0 1 42.13-7.41c7.54-.66 15.1-1.04 22.66-1.27 4.55-.14 12.84 1.46 16.89-.88 7.66-4.42 2.69-22.39 1.87-29.17Z"/>
    <path d="M253.27 39.12c-2.12-1.23-4.6-1.65-6.74-2.81-1.98-1.07-2.43-3.2-3.23-5.24a14.43 14.43 0 0 0-5.93-7.37c-2.6-1.65-5.55-2.92-8.36-4.17-6.2-2.76-12.66-4.65-19.49-3.7-2.82.39-5.18 1.46-7.59 2.76a5.56 5.56 0 0 0-2.76-3.92c-3.29-1.89-7.24-3.11-10.82-4.34-1.93-.66-3.88-1.27-5.84-1.82-1.8-.51-3.78-1.22-5.66-1.18-4.37.09-5.17 4.21-7.09 7.22a18.26 18.26 0 0 1-3.98 4.38c-.4-1.05-1.2-1.93-2.37-2.13-2.43-.42-4.83-.51-7.2.27a26.69 26.69 0 0 0-5.84 2.7c-.58.37-1.1.77-1.56 1.21-.68-.05-1.39.1-2.06.44-1.76.91-2.64 2.63-3.25 4.42-.35 1.04-.67 2.09-1 3.13l-.22.27a3.66 3.66 0 0 0-.26 4.75 3.6 3.6 0 0 0 4.66.94c.49-.31 1.04-.6 1.45-1.02.39-.4.62-.86.81-1.35l2.02-2.5c.68-.84 1.36-1.68 1.95-2.58.22-.34.47-.69.66-1.05l.28-.3.15-.08.49-.29c.33-.19.68-.36 1.02-.53l1.26-.62.57-.26.33-.13.36-.12c.2-.06.39-.13.59-.18l.6-.15.13-.03c.22-.02.44 0 .67-.01a58.6 58.6 0 0 0-1.32 7.09c-.29 2.34-.99 5.61.8 7.5 1.54 1.62 4.35 1.77 6.42 2.23 1.44.32 3.07.53 4.62.88.12.73.46 1.34.81 1.93l-.31.58-1.3 2.37c-.85 1.54-1.66 3.11-2.55 4.63-1.57 2.66-4.15 4.46-5.69 7.15-.07.13-.1.26-.16.39l-.18-.07c-1.67-.52-3.67-1.24-5.42-.81-2.17.54-3.23 2.3-3.75 4.32l-.13.43c-.07.1-.21.35-.26.46l-.3.34-.46.42a16.57 16.57 0 0 1-2.37 1.43l-.14.07-.41-.66a13.07 13.07 0 0 0-3.03-3.63 11.5 11.5 0 0 0-9.65-2.66c-.25.05-.49.13-.72.24a3.6 3.6 0 0 0-1.47.86c-1.51 1.53-1.2 3.6.04 5.14 3.24 4.02 5.66 9.48 7.2 14.38.82 2.61 1.19 5.17.2 7.8-.93 2.47-2.41 4.69-3.34 7.17-.99 2.63-1.38 5.58-.55 8.31.79 2.59 2.63 4.42 4.21 6.54 1.3 1.75 2.28 3.48 3.72 4.96-1 1.57-.06 3.93 1.45 4.79 1.86 1.06 3.74.23 4.92-1.32l.19.05-.13.72a81.77 81.77 0 0 0-.65 6.99v.05l-.16.22a3.72 3.72 0 0 0-.36 2.71c.53 1.71 2.53 3.33 4.43 2.6 1.86-.72 4.23-1.23 5.3-3.06.96-1.65.49-3.53.34-5.31a83.05 83.05 0 0 1-.23-9.06 3.68 3.68 0 0 0-2.69-3.53 4 4 0 0 0-1.03-.09 69.8 69.8 0 0 0 6.73-16.72c.46-1.79.62-3.87 1.33-5.58.57-1.37 2.44-1.22 3.78-1.74 3.86-1.5 6.73-4.48 8.86-7.96 2.16-3.54 3.38-7.53 4.86-11.37 1.22-3.17 2.82-6.56 5.68-8.58 3.3-2.33 7.5-2.97 11.19-4.44a23.39 23.39 0 0 0 10.03-7.36c2.9-3.69 4.9-7.91 7.5-11.78a21.8 21.8 0 0 1 3.74-4.36l.52.19c.13.65.33 1.29.69 1.88 1.4 2.37 4.33 3.76 6.25 5.7a27.76 27.76 0 0 1 7.29 13.51c1.31 5.89.08 11.57-1.46 17.29-1.89 7.02-3.8 14.03-5.71 21.05-.84 3.1 2.59 5.56 5.32 4.08 4.95-2.68 5.23-8.02 7.16-12.68.88-2.12 2.48-3.41 4.53-4.48 2.62-1.36 5.94-1.94 7.33-4.82.79-1.63.42-3.1.29-4.81-.1-1.25.18-2.41.66-3.55 1.14-2.68 3.04-4.96 4.23-7.62 2.55-5.71 2.54-12.5-3.46-15.99Z" style="fill:#784f2e"/>
    <path d="M160.29 123.55c-.03-.1-1.64-12-1.67-12.1-.04-.87-8.54 8.57-9.13 7.97-.15-.31-.3-.61-.51-.89-.31-.42-.61-.85-1-1.2a8.51 8.51 0 0 0-.58-.47l-1.27-1.02c-.33-.35-.73-.6-1.18-.74-.34-.17-.7-.25-1.07-.27a5.77 5.77 0 0 0-.37-.54c-2.84-3.65-4.86-7.94-6.8-12.11-.38-.82-1.07-1.8-1.06-2.73.01-.94.6-2.13.86-3.04.72-2.52 1.43-5.05 2.17-7.56.32-1.08.64-2.16 1.13-3.18.55-1.14 1.22-2.17 1.33-3.47.19-2.41-1.3-4.64-2.43-6.67-1.25-2.25-2.57-4.46-3.69-6.76-.08-.25-.19-.5-.34-.74l-.05-.07a27.1 27.1 0 0 1-1.69-4.7 3.21 3.21 0 0 0-1.14-1.79c.95-3.8-4.7-5.75-6.74-2.43-.34.56-1.03.88-1.56 1.23a19.05 19.05 0 0 0-6.77 7.54c-1.21.72-2.57 1.04-3.67 1.99a7.16 7.16 0 0 0-2.19 3.43c-.8 2.8-.07 5.51 1.04 8.1.44 1.03 1.06 2.12 1.21 3.25.17 1.24-.41 2.49-.92 3.58a89.88 89.88 0 0 0-3.75 9.22c-.5 1.49-1.21 3.07-1.21 4.66 0 1.9 1.03 2.96 2.27 4.21 1.96 1.98 3.45 4.83 4.89 7.21.74 1.22 1.5 2.41 2.65 3.29 1.16.89 2.56 1.29 3.79 2.07 2.59 1.65 4.89 3.95 7.24 5.91a3.9 3.9 0 0 0 4.03.72c1.39.25 2.85.01 4.1-.74.48-.29.92-.71 1.34-1.09l.06-.05.18-.05.25-.01c.31 0 .62.03.92.04h.09l.17.04a27.18 27.18 0 0 1 4.32 1.06l.34.12c.32.56.75 1.04 1.32 1.37.41.25.85.39 1.32.41.46.1 6.7 4.96 7.16 4.82.91-.28 6.57-2.82 7.01-3.69.42-.82-.14-3.19-.42-4.1Z" style="fill:#603d1f"/>
    <path class="f" d="M233.13 49.42a13.1 13.1 0 0 0-4.52-8.63c-2.73-2.39-5.64-4.61-8.45-6.89-2.09-1.7-5.25-1.16-6.06 1.65-1.1 3.84-2.22 7.72-4.47 11.07-2.06 3.08-5.36 4.85-8.77 6.06-3.9 1.39-8.55 2.08-11.7 4.96-1.68 1.54-2.51 3.53-3.32 5.6-.95 2.42-1.87 4.85-2.81 7.27-1.26 3.27-2.42 6.99-4.88 9.59-2.71 2.87-7.06 2.86-10.18 5.18-3.58 2.66-5.08 6.89-6.51 10.94-1.67 4.74-2.51 9.3-1.69 14.32.43 2.66 1 5.23 1.12 7.94.13 2.76.06 5.52-.05 8.28-.21 5.6-.66 11.2-1.41 16.76-.24 1.78.4 3.55 2.09 4.27.16.28.35.53.61.74l7.53 6.11c2.4 1.95 4.75 4.15 7.36 5.82 5.33 3.42 10.9.74 14.6-3.66 1.93-2.3 3.68-4.76 5.49-7.15 1.74-2.28 3.98-4.56 5.19-7.18 1.31-2.83.53-5.57.46-8.52-.02-.77 0-1.54.07-2.3.04-.44.32-1.23.23-1.62.03.13.04-.14.04-.29l.05-.02c.43-.1.97-.29 1.43-.43 5.32-1.64 11.73-2.77 15.43-7.33 3.5-4.31 6.82-10.09 7.57-15.65.42-3.12-.19-6.24.16-9.36.33-2.95-.72-9.73.08-12.57 1.64-5.9 4.75-8.03 5.37-14.12.7-6.89.8-13.96-.06-20.84ZM318.84 137.66c3.12-2.66-.97-7.87-4.4-5.69-1.13.72-2.3 1.38-3.57 1.8-1.6.53-3.23.89-4.74 1.66-2.59 1.3-4.98 3.21-7.29 4.94a134.07 134.07 0 0 0-12.52 10.55l-.25.1c-4.89 2.56-9.39 5.79-14.25 8.4-4.26 2.29-9.61 4.72-14.42 2.94-5.66-2.1-11.1-4.75-16.38-7.68a45.18 45.18 0 0 0-8.01-3.49c-2.13-.69-4.29-1.28-5.88-2.94-3.25-3.36-8.35 1.81-5.1 5.17.68.71 1.44 1.3 2.23 1.83-.02.36 0 .74.1 1.14 1.47 5.85 3.93 11.52 4.74 17.53.39 2.91-.37 6.17 1.85 8.51 2.06 2.17 5.97 2.92 8.7 3.89a281.86 281.86 0 0 0 18.64 5.9c3.4.95 6.4 1.15 9.48-.85 2.74-1.78 5.4-3.8 7.88-5.92 5.74-4.92 11.24-10.15 16.84-15.22.88-.8 1.2-1.72 1.13-2.6.83-.57 1.7-1.1 2.49-1.72 1.6-1.25 2.97-2.76 4.46-4.13 2.64-2.43 5.61-4.77 9.03-5.98 2.04-.72 4.13-.87 5.65-2.58 1.57-1.77 1.48-4.21.85-6.35-.49-1.67-1.36-3.56-.98-5.33.36-1.63 2.53-2.85 3.74-3.88ZM335.87 137.04a3.73 3.73 0 0 0-2.2-1.69 3.69 3.69 0 0 0-2.76.36 3.69 3.69 0 0 0-1.69 2.2 56.23 56.23 0 0 1-1.94 6.61 3.7 3.7 0 0 0 .36 2.76 3.73 3.73 0 0 0 2.2 1.69c.92.2 1.94.16 2.76-.36l.77-.6c.45-.46.75-.99.92-1.61a56.23 56.23 0 0 0 1.94-6.61c.21-.93.12-1.92-.36-2.76ZM150.65 168.62a133.17 133.17 0 0 0-6.33-13.67c-1.61-3.11-7.04-1.81-6.78 1.8.5 6.96-3.68 13.29-4.49 20.11-.1.81-.13 1.62-.18 2.43-.03.57-.22 1.17-.29 1.72l-.04-.02a6.41 6.41 0 0 0-2.45-.41c-1.1.03-2.13.42-2.94 1.07l-13.97-.53c-2.75-.11-6.81.29-9.57-1.06a9.05 9.05 0 0 0-3.89-3.95 3.88 3.88 0 0 0-1.75-.44l-.5-.44c-1.87-1.64-3.69-3.61-5.86-4.85-2.27-1.29-5-1.22-6.99.56-.24.21-.46.48-.7.71a.97.97 0 0 1-.46.09c-1.19-.1-2.38-.16-3.57-.3l-7.07-.83c-2.67-.31-5.06-.59-7.06 1.61-3.02 3.33-4.84 8.24-4.15 12.72 1.43 9.22 12.49 13.04 20.41 14.39 4.34.74 8.73 1.12 13.07 1.87a119 119 0 0 1 14.56 3.47c5.22 1.6 10.24 3.68 15.32 5.66a175.93 175.93 0 0 0 16.72 5.54c2.36.65 4.43-1.19 4.57-3.49.31-4.97.92-9.9 2.05-14.76 1.12-4.77 2.81-9.4 3.6-14.25.82-5.05.59-9.94-1.24-14.75ZM236.61 361.11c-3.39-10.36-7.56-20.42-11.72-30.49-.99-2.41-1.97-4.82-2.98-7.22-1.28-3.03-3.75-3.19-6.7-3.23l-16.69-.23c-4.47-.06-4.69 6.55-.63 7.2.08.37.19.73.4 1.09 2.49 4.33 5.09 8.62 7.37 13.07 2.25 4.4 3.6 8.84 4.74 13.63 1.03 4.33 2.37 10.28 7.46 11.32 5.15 1.06 11.05.27 16.15-.7 1.85-.35 3.18-2.66 2.6-4.43ZM169.24 322.84a3.5 3.5 0 0 0-3.03-.61c-5.14 1.4-10.3 3.11-15.54 4.1-2.45.46-4.92.29-6.84 2.18a8.38 8.38 0 0 0-2.3 5.07 4.8 4.8 0 0 0-.5 1.65c-.72 6.06-1.28 12.17-2.53 18.15-.58 2.76-1.88 5.81-1.22 8.65.76 3.3 3.61 4.45 6.63 4.87 3.08.42 6.16.78 9.25 1.03 3.31.27 6.77.82 8.11-3 1.97-5.62 2.67-11.6 4.59-17.21.6-.28 1.15-.71 1.55-1.33 1.62-2.48 1.8-5.27 1.72-8.1a157.5 157.5 0 0 0 3.3-11.03c.65-2.56-1.16-4.26-3.19-4.41Z"/>
    <path d="M227.94 173.62c-.55-3.25-.92-6.56-2.21-9.62-1.18-2.82-2.58-5.5-3.6-8.39-1.04-2.96-1.57-6.03-2.51-9-1.04-3.3-3.68-4.07-6.54-5.34-3.47-1.54-6.99-.59-9.82 1.76-2.53 2.1-3.66 5.28-5.87 7.64-.5.53-.77 1.11-.9 1.69-3.22 2.77-5.59 6.42-9.07 8.98-1.84 1.35-3.92 2.11-6.19 1.57-2.81-.67-5.29-2.46-7.67-4.02a31.83 31.83 0 0 1-6.82-5.75c-1.75-2.02-2.82-4.45-4.39-6.58-1.8-2.43-4.9-5.34-8.14-4.29-1.63.53-3.17 1.54-4.69 2.32l-5.05 2.6c-1.54.79-1.92 2.51-1.7 4.06.59 4.25 2.62 8.1 4.68 11.81.99 1.79 2.01 3.57 2.84 5.43.89 1.99 1.44 4.11 2.54 6.01.41.71.95 1.17 1.53 1.45-1.46 4.68-2.07 9.58-2.8 14.42-.89 5.93-1.71 11.88-2.69 17.8-.95 5.73-3.49 10.69-5.51 16.07a131.96 131.96 0 0 0-2.76 8.44c-.87 2.91-1.42 6.13 1.59 8.03 2.2 1.39 5.3 1.67 7.82 2.22 2.8.61 5.62 1.16 8.46 1.56 5.96.83 11.85.77 17.85.44l18.43-1.03 8.87-.5c2.85-.16 6.13.06 8.81-1 2.79-1.1 4.37-3.47 5.47-6.15a85.29 85.29 0 0 0 3.14-9.16 97.96 97.96 0 0 0 3.38-19.38 2.9 2.9 0 0 0-.14-1.06c1.37-4.2 2.74-8.4 4.04-12.62 2.11-6.84.79-13.54-.38-20.42Z" style="fill:#e3c724"/>
    <path d="m329.42 163.58-.03-.04.03.04Z" style="fill:#a3a3a3"/>
    <path d="M347.35 116.1c-.77-1.19-2.56-2.31-4.06-1.7a24.6 24.6 0 0 1-5.85 1.86c-1.98.29-4.03.16-6.02-.04-4.35-.43-8.63-1.27-13-1.51-2.09-.11-4.19-.18-6.28-.39-1.93-.19-3.74-.77-5.63-1.1-5.18-.89-8.19 3.34-7.87 8.14.12 1.74 1.25 3.25 2.95 3.58a8.15 8.15 0 0 0 2.32 3.07 13.1 13.1 0 0 0 3.88 2.2 3.77 3.77 0 0 0 4.42.63h.02c1.36-.11 2.64-.44 4.02-.35 1.4.1 2.82.33 4.19.62a9.6 9.6 0 0 1 1.55.49c-.05.32-.04.66 0 1.02l-.5.37a5.16 5.16 0 0 0-1.59 2.05c-.06.15-.46 1.17-.32 1.11-.29.31-.7.56-.98.86a7.78 7.78 0 0 0-1.42 2.07c-.68 1.48-1 3.06-1 4.69 0 1.52.34 3.02.42 4.53.08 1.61-.08 3.22-.06 4.83.02 2.46.27 4.92.69 7.35a3.85 3.85 0 0 0-.89 3.27 10.5 10.5 0 0 0-2.31.12 6.73 6.73 0 0 0-4.69 3.63c-1.15 2.22-1.78 5.04.54 6.8 1.63 1.23 4.08 1.29 6.05 1.28 1.74 0 3.48-.2 5.21-.36l1.6-.14a3.2 3.2 0 0 0 2.89 1.54c3.05-.17 5.69-1.4 8.32-2.87a3.68 3.68 0 0 0 1.7-4.06 4.11 4.11 0 0 0-.28-.65c.03-.41.02-.83-.09-1.28-.39-1.73-1.85-2.89-3.44-3.46-.75-.27-1.54-.41-2.3-.65l-.06-.03c-.12-.13-.14-.13-.09-.07l.08.06-.04-.02c.04.06.1.12.17.19l-.12-.11a.55.55 0 0 0-.06-.08c-.24-.1-.18-.14-.03-.04a7.7 7.7 0 0 0-.33-.42 4.15 4.15 0 0 0-3.82-1.56c.24-1.54.21-3.11.29-4.69.1-2 1-3.83 1.44-5.76.48-2.11.52-4.24.39-6.38-.12-2.04-.42-4.17-.02-6.19.05-.25.07-.5.08-.75l1.6-.97a3.67 3.67 0 0 0 1.62-2.4c1.93.31 3.85.03 5.37-1.54.87-.9 1.44-1.99 2.4-2.73 1-.77 2.06-1.12 3.35-1.35 1.8-.33 2.9-2.34 2.65-4.07 2.73-2.04 5.17-5.19 2.94-8.62Z" style="fill:#bc902d"/>
    <path class="c" d="M339.13 109.6c-2.31-.94-4.69-.23-7.07-.51-2.74-.32-5.42-.97-8.18-1.24-5.46-.54-10.93-.85-16.41-.98-4.68-.11-4.71 7.16-.04 7.26 5.28.12 10.56.42 15.82.92 2.44.23 4.8.73 7.22 1.09 1.31.2 2.57.3 3.89.24 1.05-.05 1.91-.17 2.9.23 1.82.74 3.98-.84 4.45-2.57.56-2.09-.74-3.71-2.57-4.45Z"/>
    <path class="h" d="M249.45 371.73a88.18 88.18 0 0 0-4.96-2.48c-2.91-1.92-5.68-4.25-9.1-4.58-1.97-.19-3.69.49-5.56.96-3.83.95-7.13 1.25-11.01.48-2.46-.49-5.8 1.2-5.49 4.19a32.2 32.2 0 0 0 1.56 7.5 4.36 4.36 0 0 0 4.15 3.02c.69.75 1.73 1.18 3.13 1.01 6.69-.83 13.92-.12 20.44-2.45.42-.15.8-.32 1.15-.52.79.3 1.6.59 2.4.87 4.7 1.62 7.6-5.66 3.29-7.99ZM158.37 369.57c-2.74-1.13-6.23-1.11-9.13-1.28-3.59-.21-7.24-1.04-10.82-.95-3 .08-4.6 2.84-4.23 5.24-.9 2.21-2.14 4.09-.66 6.6 1.55 2.63 5.04 3.17 7.77 3.79.8.18 1.53.14 2.18-.04.12.04.22.09.35.12 3.94.97 8.09.53 12.12.62 2.4.05 5.31.79 7.46-.59 1.22-.78 2.31-2.21 2.18-3.75a12.1 12.1 0 0 0-7.22-9.77Z"/>
    <path d="M217.35 101.4c-.27-1.04-1.55-1.99-2.66-1.56l-3.38 1.3a2.1 2.1 0 0 0-1.15-.35c-5.31.07-10.6-.35-15.89-.78-.5-.04-5.53-.11-5.91.21-.27-.09 7.55-.4 7.28-.49-2.67-.87-9.95 2.29-7.29 3.15 2.15.7 6.93 2.88 9.12 3.43 2.05.51 4.17 1.09 6.29 1.21 4.13.22 8.27-2.02 12.03-3.47 1.1-.42 1.88-1.43 1.56-2.66Z" style="fill:#fff"/>
    <path d="M350.35 118.4c-.46-2.59-1.34-4.6-2.6-6.05-.57-.51-1.16-1-1.85-1.38-.63-.35-1.29-.63-1.95-.9-.13-.03-.27-.04-.4-.06-.78-.37-1.59-.67-2.41-.93l-2.76-.84c-1.05-.32-2.11-.36-3.2-.43-.17-.01-.33.03-.48.09-5.98-.6-11.98-1-17.92-1.81-4.48-.61-8.99-1.25-12.99 1.14-2.97 1.77-7.14 2.27-7.7 7.16-.43 3.73-1.52 7.32 1.74 10.24 2.98 2.67 6.1 5.18 9.17 7.77-3.14 1.95-6.16 3.45-8.72 5.51-3.25 2.62-6.09 5.75-9.21 8.55a28.7 28.7 0 0 1-5.08 3.79c-2.27 1.27-4.78 2.09-7.13 3.24-3.01 1.48-5.86 3.35-8.96 4.59-2.73 1.1-5.88 1.2-8.55 2.41-3.27 1.48-5.28-.52-7.74-1.74-4.24-2.1-8.57-4.04-12.89-5.99-4.33-1.96-8.86-3.54-12.98-5.85-6.03-3.39-11.42-7.96-18.5-9.32-.15-.03-.28-.09-.41-.14l-.51-.03c-.59-2.02-.77-4.13-1.27-6.18a.82.82 0 0 1 .26-.22c1.04-.49 2.12-.47 3.2-.54 3.8-.97 7.48-2.53 10.62-4.88a18.02 18.02 0 0 0 3.07-2.97c.2-.41.52-.77.88-1.14.27-.38.55-.77.8-1.18.69-1.1 1.4-2.18 2.09-3.27.52-1.02.99-2.07 1.38-3.11.61-1.65.92-3.38 1.41-5.07.32-1.09.63-2.17.85-3.27l.06-.54-.03-.87c-.03-1.97-.03-3.97.26-5.93.12-.8.34-2.03 1.05-2.62.24-.3.54-.56.97-.78 1.97-1 3.95-2.04 5.77-3.31 1.11-.77 2.36-1.84 2.76-3.04.56-1.68.11-3.69.64-5.39a7.64 7.64 0 0 1 2.59-3.86 26.16 26.16 0 0 1 6.56-3.28c3.26-1.12 3.88-4.04 5.09-6.6.15-.33.12-.93-.09-1.21-1.77-2.46-.32-4.48.71-6.66a30.43 30.43 0 0 0 2.02-5.7c.4-1.62.41-3.35.56-5.03.64-7.2-1.39-12.24-9.46-14.06a4.44 4.44 0 0 1-2.52-1.91c-2.08-3.48-3.93-7.1-5.93-10.63-1.03-1.82-2.31-3.2-4.59-3.73a34.87 34.87 0 0 1-6.74-2.63c-3.02-1.42-6.17-2.72-8.86-4.64-3.01-2.16-6-1.45-9.07-.92-1.65.29-3.26 1.41-4.85 1.33-2.39-.11-4.79-.79-7.11-1.49-2.29-.69-4.43-1.87-6.72-2.54-4.4-1.27-8.96-2.04-13.27-3.54-5.12-1.77-4.69-1.18-8.51 2.43-.46.43-.73 1.05-1.15 1.52-1.43 1.61-2.45 3.61-5.14 3.72-1.66.07-3.26 1-4.93 1.41-3.69.9-7.37 1.91-11.11 2.5-2.25.35-3.98 1.18-4.6 3.29-1.52 5.16-2.79 10.4-4.22 15.59-.21.76-.73 1.98-1.22 2.04-4.34.54-8.71.84-13.06 1.27-1.87.19-2.79 2.18-1.53 3.63 2 2.29 4.21 4.39 6.39 6.52.46.45.95.89 1.43 1.32a.9.9 0 0 0-.22.06c-.94.41-1.38 1.35-2.04 2.07-.42.47-.89.89-1.32 1.35h-.03c-1.68 1.58-3.64 2.86-5.53 4.19-2.99 2.09-5.3 4.98-8.19 7.2l-.04.01a37.66 37.66 0 0 0-4.17 4.11c-3 3.63-2.73 3.97-.11 8 .96 1.48 1.96 3.48 1.73 5.07-.41 2.86-1.55 5.66-2.72 8.34-1.48 3.41-3.36 6.64-4.94 10.01-.7 1.49-.56 2.86.74 4.25 2.32 2.47 4.25 5.29 6.57 7.76.96 1.03 2.5 1.51 3.76 2.28.39.24.77.53 1.08.86 2.6 2.78 5.04 5.72 7.8 8.32 3.48 3.28 7.81 3.54 11.59.69 2.09-1.58 3.84-1.31 5.8-.1.78.48 1.55 1.28 2.38 1.35 2.26.19 3.55 1.81 5.15 3 .35.26.7.5 1.05.68.19.22.42.36.66.43.08.07.15.16.24.23.45.34.91.68 1.42.92.82.4 1.54.28 2.31-.18l4.09-2.45c.08 1.5-.12 3-.6 4.43-.41 1.23-.98 2.39-1.37 3.6-1.69.59-3.12.97-4.35 1.66-2.06 1.17-3.89 2.72-5.93 3.92-2.55 1.49-5.23 2.76-7.81 4.19-.3.17-.43.74-.54 1.16l-4.47 17.13c-.36 1.38-.82 2.73-1.23 4.09-.87 2.86-1.71 5.73-2.66 8.57-.12.35-.82.74-1.24.73-6.31-.11-12.62-.23-18.92-.46-2.65-.1-5.1-.72-7.08-2.84a20.7 20.7 0 0 0-5.24-4.13 139.54 139.54 0 0 0-8.99-4.28l-.06-.01c-.27-.04-.53-.11-.8-.18-.04 0-.08-.02-.11-.03-.3-.01-.6-.02-.91 0l-.21.03a1.45 1.45 0 0 0-1.01.14l-.1.05-.3.1c-.29.1-.59.2-.86.35-.41.21-.78.49-1.2.7l-.65.32-.26.13h-.05l-.16-.03a6.83 6.83 0 0 0-1.01-.15l-.34-.08c-3.79-.48-7.58-.97-11.38-1.31-2.25-.2-4.78.51-5.67 3.48-.88 2.95-1.66 5.94-2.41 8.93-.39 1.55-1.08 3.21-.83 4.68a13.12 13.12 0 0 0 2.26 5.48c3.9 5.25 8.58 9.55 15.5 10.27 6.51.68 13.05 1.16 19.55 1.93 2.7.32 5.38 1.08 8 1.86 1.68.5 3.19 1.56 4.86 2.13 7.59 2.59 15.24 4.99 22.79 7.66 3.38 1.19 6.59 2.85 10.31 4.48-2 6.7-3.98 13.23-5.91 19.78-.43 1.47-.52 3.08-1.13 4.46l-.36.78c-.16.82-.35 1.63-.59 2.44a92.16 92.16 0 0 0-1.78 7.15c-1.1 5.38-1.5 10.78-1.93 16.24-.26 3.27-.42 6.55-.39 9.82-.13 4.47-.17 8.94.05 13.41.07 1.49.18 2.98.3 4.47-.05 1.08-.1 2.16-.13 3.24-.02.78.02 1.57.19 2.32.4 3.17.69 6.36.72 9.54.04 4.28-.04 9.07.98 13.46a7.76 7.76 0 0 0 4.91 5.45c.47.18 1.04 1.03 1 1.51-.27 2.91-.64 5.81-1.11 8.69-.32 1.93-.94 3.81-1.31 5.73-1.31 6.79-2.51 13.59-3.91 20.36-.11.55-.26 1.1-.42 1.64a18.38 18.38 0 0 1-1.06 3.82c-.54 1.47-1.1 2.96-1.58 4.46a4.83 4.83 0 0 0-.18 2.94c.34.71.91 1.27 1.73 1.49 4.66 1.24 9.39 2.48 14.16 2.97 5.42.56 10.93.38 16.4.4 4.66.02 6.54-2.4 5.13-6.9a58.53 58.53 0 0 0-2.12-5.48 21.66 21.66 0 0 1-1.73-3.12c-.89-2.08-.61-4.3-.03-6.43 1.4-5.07 3.43-9.97 5.2-14.92 1.78-4.97 3.08-9.91 4.08-15.09.19-.99.45-1.93.76-2.85l.01-.16c.63-2.34.81-5.51 3.15-6.87.8-.46 1.7-.56 2.61-.59.84-.22 1.73-.33 2.55-.36 1.3-.05 2.6.05 3.89 0 2.08-.09 4.13-.46 6.21-.49.61 1.18 1.48 2.24 2.26 3.34 1.3 1.83 2.55 3.7 3.73 5.6a89.58 89.58 0 0 1 6.26 11.97 125.5 125.5 0 0 1 4.85 13.25l1.05 2.76c.52 1.36.98 2.71 1.33 4.1l.05.11c.94 1.9 1.02 3.76 1.13 5.83.13 2.37.19 4.74.22 7.11.02 1.21-.04 2.5.26 3.68.14.54.35 1.06.58 1.56 1.25 1.2 3.18 1.67 5.63 1.68 6.22.03 12.49-.29 18.66-1.1 3.14-.42 6.39-.15 9.56-.45 1.16-.17 2.32-.33 3.45-.65a8.83 8.83 0 0 0 1.59-.62c.04-.02.44-.3.27-.17.13-.1.25-.22.36-.33l.11-.13.05-.07.18-.3.07-.15.03-.07.13-.45.05-.29.02-.3v-.49l-.03-.43-.03-.23c-.05-.27-.12-.55-.19-.81-.25-.53-.53-1.06-.84-1.56-1.92-2.64-3.81-5.3-6.86-6.95a18.3 18.3 0 0 1-5.64-3.28c-.27-.24-.49-.5-.72-.77-2.21-6.68-4.99-13.17-7.67-19.68-.25-.9-.5-1.8-.79-2.69-.45-1.33-.9-2.66-1.33-3.99a101.52 101.52 0 0 1-5.43-13.73c-.45-1.46.05-1.99 1.06-2.93 1.45-1.34 3.14-3.04 3.47-4.82.53-2.93.18-6.05-.05-9.08-.17-2.27-.85-4.51-1.06-6.78-.37-4.11-.4-8.25-.88-12.35-.36-3.1-1.16-6.15-1.85-9.2-.93-4.13-1.86-8.26-2.94-12.36-.86-3.25-2.27-6.38-2.85-9.66a33.19 33.19 0 0 1-.53-5.15c.02-1.21.08-2.42.15-3.63.18-1.68.52-3.36 1.04-5.02.69-2.19 1.4-4.4 1.74-6.66.45-2.94.49-5.96.92-8.89.93-3.62 1.84-7.26 2.68-10.9.95-3.38 1.93-6.75 2.86-10.14 1.06-3.88 2.21-7.75 3.07-11.68.6-2.74.77-5.58 1.16-8.62.87.16 1.86.26 2.78.54 8.46 2.53 16.87 5.19 25.37 7.57 2.94.82 5.77 2.41 8.95-.86 3.63-3.73 8.34-6.39 12.53-9.58 6.15-4.66 11.5-10.15 16.41-16.07 3.44-4.16 7.7-7.2 12.44-9.62.51-.26 1.06-.46 1.63-.64.99-.17 1.95-.5 2.94-.72.05 1.31.12 2.63.15 3.94 0 .27-.06.57-.17.88.02 1.33-.8 2.38-2.12 3.04-.54.27-1.1.49-1.66.71-.88.67-1.85 1.25-2.74 1.78a6.56 6.56 0 0 0-2.78 2.81c-.42.82-.73 1.69-1.05 2.57l.01.39a6.57 6.57 0 0 0 1.09 3.07 6.37 6.37 0 0 0 3.15 2.32c1.17.05 2.34.27 3.49.48 1.66.3 3.33.59 5 .8.74-.01 1.48-.04 2.25-.08 1.37-.08 2.73-.07 4.09-.09 1.43.05 2.87.17 4.3 0 .76-.09 1.5-.31 2.23-.57a67.42 67.42 0 0 0 5.8-3.43c1.77-1.2 3.78-2.95 3.37-5.33a4.2 4.2 0 0 0-.79-1.79l-3.75-2.62a24.77 24.77 0 0 1-3.1-1.94c-.86-.64-2.03-1.34-2.45-2.4h-.02c-1.05-2.06-1.73-6.29-.72-7.14 1.81-1.52 3.8-2.86 6.17-4.5a6.65 6.65 0 0 0 1.69-3.66l.46-3.23c.06-1.4.13-2.87.22-4.34.07-1.26-.13-2.99.59-3.69 1.93-1.86 3.88-4 6.14-5.21 4.3-2.28 7.51-4.17 6.42-10.22Zm-35.5-9.69c5.84.76 11.73 1.23 17.59 1.88 1.67.18 3.35.43 4.97.86.8.22 1.45.95 2.6 1.74a26.85 26.85 0 0 1-10.18 1.16c-5.47-.31-10.76-1.39-16.11-2.31-2.82-.48-5.68-.78-8.7-1.18 3.05-2.33 6.29-2.61 9.84-2.15Zm-89.14-15.05c.15 2.44.25 4.92.78 7.29.78 3.55-.22 6.77-1.66 9.8-1.4 2.96-3.37 5.65-5.17 8.4-.81 1.24-1.87 2.3-2.75 3.5-2.17 2.95-5.38 3.21-8.56 3.07-5.39-.24-10.8-.54-16.12-1.33-.06 0-.12-.03-.18-.04a11.8 11.8 0 0 1-3.32-1.34l-.69-.07c-.59-.05-1.18-.09-1.76-.15-.52-.06-1.11-.21-1.62-.04-.64.21-.62.83-.4 1.38.04.11.12.19.17.29.18.28.38.49.63.6 2.21.98 4.43 1.92 6.67 2.85 1.12.31 2.23.65 3.37.88 2.32.47 5.27.81 6.54 3.1l.45 8-.08.12c.04.49-.19 1.06-.38 1.46-.34.72-.78 1.41-1.23 2.07-.23.33-.49.62-.75.92-.7 1.1-1.58 2.11-2.5 3.12-3.99 4.36-8.31 8.42-12.45 12.66-1.36 1.39-2.14 1.38-3.71-.09-3.04-2.84-6.58-5.14-9.85-7.74-2.76-2.19-5.66-4.27-8.08-6.8a6.22 6.22 0 0 1-1.31-2.44c-.41-.6-.79-1.21-1.15-1.84l-.3-.51c.1-.99.25-1.97.49-2.94.36-1.44.97-2.81 1.26-4.27.53-2.72.18-5.64-.02-8.38-.39-5.28-1.05-10.54-1.06-15.83a3.55 3.55 0 0 1-.16-1.34c.03-.55.06-1.11.17-1.65.12-.57.2-1.17.35-1.73v-.02c.05-3.41 1.39-6.5 1.78-9.79.39-3.35 2.3-5.79 5.64-7.06a60.16 60.16 0 0 0 6.85-3.22 5.08 5.08 0 0 0 2.09-1.99c1.19-2.32 2.16-4.76 3.24-7.15 1.07-2.35 2.21-4.67 3.23-7.04.45-1.06.67-2.21.86-2.87 1.83.77 3.4 1.82 5.08 2.05 2.32.31 4.8.38 6.96-.89-.63-3.52-2.14-4.76-10.3-3.57-.21-1.22 1.3-4.21 2.23-4.8 2.53-1.6 5.47-1.63 8.22-2.38 3.81-1.04 8.15-1.37 10.51-5.16a99.39 99.39 0 0 0 5.26-10.02c1.19-2.5 2.07-5.14 3.12-7.79 5.96 2.42 10.67 5.72 13.37 11.04 1.22 2.41 1.37 5.4 1.85 8.16.93 5.32-.26 10.37-1.49 15.57-2.01 8.51-4.65 17-4.11 25.93Zm8.35-69.8c.65-.33 2.16-.21 2.49.26 1.89 2.68 3.56 5.52 5.27 8.33.15.24.02.66.02 1.29l-8.59-2.93h-.75l-.3.02h-.02l-.11.03-.24.07a.92.92 0 0 0-.13.07l-.04.02-.01.03-.06.07-.09.17-.06.19V31.6c.17.91.91 1.5 1.78 1.9 2.91 1.32 5.93 2.4 8.84 3.72 3.67 1.66 7.35 3.32 10.84 5.31.93.53 1.54 2.22 1.67 3.44a25.24 25.24 0 0 1-3.92 16.9c-.93-.9-1.72-1.62-2.46-2.4-.97-1.02-1.85-2.14-2.88-3.09-.33-.31-1.24-.5-1.49-.28-.41.34-.79 1.16-.65 1.62.66 2.16 1.66 4.07 3.95 5.09 1.55.69 3.08 1.42 3.74 3.4.99 2.98.67 4.5-2 5.91-2.32 1.23-4.7 2.35-7.03 3.54-1.21.62-1.29-.15-1.69-1.03-.35-.75-1.38-1.79-1.95-1.7-.82.13-1.54 1.12-2.19 1.85-.17.19-.04.81.14 1.12 1.86 3.19 1.62 6.26.08 9.57-1.2 2.57-2.81 4.47-5.42 5.53-.24.1-.51.09-1.08.18.34-1.77.69-3.32.93-4.89.5-3.32.24-6.96 1.55-9.91 2.21-4.96 1.94-10.22 2.94-15.3.78-3.95.84-8.17.39-12.17-.25-2.25-.38-4.9-2.3-6.89-1.07-1.11-1.43-2.87-2.31-4.21a13.85 13.85 0 0 0-6.28-5.46c-.73-.3-1.27-1.07-1.73-1.48 1.84-1.52 3.5-3.05 5.32-4.35a45.6 45.6 0 0 1 5.89-3.62Zm-88.34 1.37c1.6-3.24 4.17-5.71 8.33-5.56.72.03 1.45-.15 2.18-.33a.9.9 0 0 1 .46-.18c-.19.02.06-.03.09-.04l.1-.04c.16-.07.32-.14.48-.19.35-.1.71-.12 1.06-.11h.94l.84.03 2.71-.76.25.4-2.5 2.65-.97-.86-.32-.01h-1.39a.36.36 0 0 0-.11.02l-.22.06c-.03 0-.05.02-.08.03l-.28.12c-.09.04-.19.04-.28.06l-12.94 13.01-.46-.29c.67-2.7.92-5.6 2.12-8.04Zm-1.9 17.04c.48-.33.99-.66 1.55-1.02.03-.47.21-.96.36-1.36.26-.67.58-1.31.94-1.94l2.06-3.16c2.06-2.13 4.21-4.18 6.35-6.24l.03-.03.13-.15.02-.02v-.02c.05-.05.08-.11.11-.16.02-.03.05-.1.02-.03a.9.9 0 0 1 .38-.45v-.02l.25-.16c.43-.3.88-.64 1.38-.84.12 2.1-.13 4.23-.22 6.33v.24a16.71 16.71 0 0 0-.27 3l-.03.21c-.09.73-.17 1.44-.13 2.1v.07c-.15.78-.35 1.74.33 2.34.65.58 1.72.62 2.54.71l10.29 1.11c.3.21.49.69.36 1.03-1.27 3.23-3.9 5.9-6.14 8.49-.97 1.13-1.94 2.82-3.32 3.48-1.32.63-2.53-.19-3.55-.98-.64-.49-1.32-.9-2.03-1.26a7.22 7.22 0 0 0-.68-.58c-1.19-.93-2.5-2-3.88-2.64-1.37-.64-2.8.64-3.9 1.31l-2 1.23c-.45.16-.89.34-1.32.55l-1.31.65a8.85 8.85 0 0 1-3.78 1.84c-.39.07-.84-.09-1.07-.41-.45-.16-.8-.58-.61-1.13.23-.66.48-1.33.75-1.99a235.2 235.2 0 0 1 6.39-10.1Zm8.03 14.39c-.13.35-.3.68-.51.99a37.17 37.17 0 0 0-1.31 2.42l-.33.7-.04.08-.05.11-.13.34c-.13.35-.39.59-.72.67l-.19.39-.6-.54-.05-.04-5.12-4.63c2.14-.58 3.93-1.1 5.67-1.5l3.26-.35.03.03c.24.4.24.9.08 1.33Zm-21.48-12.33 7.09-1.49.24-.16c.31-.23.8-.14 1.08.08.28.22.48.66.35 1.02-.18.49-.43.94-.73 1.37-.26.36-.55.71-.78 1.09-.55.92-1.09 1.86-1.61 2.8-.26.47-.87.59-1.33.35a.86.86 0 0 1-.43-.57l-3.87-4.49Zm18.27 78.64c-.17.75-.19 1.53-.33 2.76-2.38-1.08-4.56-2.03-6.72-3.05-1.38-.65-2.69-1.52-4.12-2-.49-.16-1.32.48-1.92.87-1.64 1.07-3.25 2.2-5.16 3.5l-11.58-9.85c1.68-1.81 3.23-3.44 4.72-5.11 1.44-1.62 2.83-3.28 4.21-4.96.19-.23.24-.65.22-.98-.18-4.27-4.9-8.98-9.09-9.27h-.59l-.17.04-.12.04a.91.91 0 0 0-.13.08l-.07.07-.05.12-.03.09-.03.15V95.79l6.32 5.55-8.15 10.26-5.51-5.4c-2.93-2.85-1.21-5.72.03-8.52 1.5-3.37 3.05-6.73 4.73-10.02 2.09-4.08 1.03-7.69-1.58-10.96-1.28-1.59-1.34-2.89-.07-4.26 1.96-2.11 3.97-4.17 6.06-6.16 2.82-2.68 5.73-5.27 8.99-8.25l5.29 12.3-.51.46c-3.25-2.63-6.78-1.91-10.41-1.35-3.1.48-3.14.26-2.67 3.37.37 2.51.66 5.04 1.17 7.53.13.66.85 1.27 1.43 1.76.51.43 1.19.66 2.06 1.13 1.32-3.55-1.48-6.77-.46-10.31 3.38-2.05 6.99-1.37 10.59.22.3.13.65.4.77.7 1.26 3.05 2.63 6.07 3.6 9.21.28.91-.49 2.24-.99 3.28-1.52 3.17-3.31 6.21-4.69 9.44-1.74 4.09-1.5 4.74 1.03 7.36 2.99 3.11 5.88 6.27 7.71 10.34.76 1.68 2.49 3.08 4.07 4.21 2.29 1.65 2.81 2.51 2.18 5.3Zm-.88-8.38c-1.61-1.93-2.79-4.2-4.3-6.22a21.83 21.83 0 0 0-3.68-4.1c-2.59-2.05-3.15-4.39-1.94-7.4 1.46-3.63 2.64-7.38 4.23-10.95 1.62-3.63.25-6.67-1.29-9.8-2.11-4.29-4.19-8.6-6.27-12.91-.46-.94-.87-1.9-1.34-2.94.77-.33 1.43-.68 2.12-.91 3.95-1.33 8 .49 11 4.92 1.4 2.07 2.95 2.37 4.19.78.56-.72 1.03-1.51 1.52-2.28.3-.47.54-.97.83-1.45 2.04-3.38 2.03-3.33 5.89-2.36.8.2 1.61.33 2.44.44l.05-.05c.09 0 .18-.01.27-.04.85-.26 1.69-1.35 2.24-2 .55-.64 1.03-1.34 1.5-2.05.89-.93 1.65-2.05 2.36-3.09l.43-.67c.72-.87 1.44-1.74 2.1-2.66l.13-.2.02-.02c1.17-1.23 2.34-2.45 3.5-3.69.46-.5 1.23-1.34 1.26-1.69.1-.12.21-.22.3-.35.21-.32.42-.74.32-1.14-.13-.51-.6-.68-1.07-.77l-1.4-.24c-.2-.15-.41-.28-.63-.34-2.87-.78-5.88-1.03-8.82-1.56a14.24 14.24 0 0 1-3.42-.96c-.46-.21-.95-1.14-.85-1.62.92-4.55.67-9.45 3.59-13.45 1.29-1.76 2.83-3.34 4.23-5.02 1.07-1.29 2.11-2.61 3.18-3.9.35-.42.61-.98 1.06-1.27a5.56 5.56 0 0 1 3.92-2.77c1.26-1.3 2.31-1.61 4.95-.7 2.99 1.03 6.23 1.39 9.19 2.47 3.49 1.28 6.81 3.03 10.43 4.68-1.62 2.08-3.18 4.01-4.67 5.99-1.35 1.8-2.53 3.73-3.96 5.46-2.67 3.24-6.47 4.3-10.39 4.89-2.94.44-5.85.75-8.4 2.54-.75.52-1.93.37-2.85.71-.48.18-1.11.71-1.15 1.13-.04.45.53 1.37.83 1.37 1.84 0 4.12.43 5.42-.48 1.8-1.25 3.75-1.47 5.62-1.99 3.02-.83 6.19-1.1 9.24-1.82a5.87 5.87 0 0 0 2.76-1.74c3.9-4.25 7.69-8.6 11.65-13.05l.03.02a7.89 7.89 0 0 1 3.62-2.05c.6-.16 1.22-.28 1.84-.33 1.34-.58 2.78-.96 4.24-1.2 1.93-.31 4.16.26 6.06.98 2.69 1.02 5.2 2.52 7.77 3.85.41.21.73.6 1.27 1.06-1.78 1.07-3.18 2.06-4.71 2.79a29.24 29.24 0 0 1-5.43 2.12 9.22 9.22 0 0 0-5.68 3.96c-1.57 2.45-2.71 5.18-3.94 7.83-1.12 2.4-2.12 4.86-3.17 7.3-1.33 3.1-4.11 4.42-7 5.42-3.58 1.25-7.24 2.28-10.89 3.31-3.54.99-7.14 1.77-10.67 2.81-1.89.56-3.68 1.48-5.77 2.35 1.63 2.45 3.81 1.54 5.57 1.55 1.9 0 3.81-.6 6.21-1.02-1 1.94-1.88 3.6-2.71 5.29-.46.93-.83 1.92-1.29 2.85-.6 1.22-1.32 2.4-1.86 3.64-1.05 2.41-1.99 4.88-3.03 7.3-.99 2.3-3.47 2.6-5.31 3.71-2.04 1.23-4.34 2.03-6.49 3.11-.65.33-1.45.86-1.67 1.48-1.14 3.21-2.31 6.44-3.1 9.75-.73 3.08-.78 6.32-1.53 9.39-.43 1.78-1.61 3.39-2.53 5.04-.51.92-1.21 1.74-1.76 2.64-1.58 2.61-2.32 2.76-4.4.27Zm8.38 13.38-1.64.98-.81.49-.27.16-.27-.16a4.22 4.22 0 0 1-.62-.47l-.1-.1-.21-.2c-1.46-2.78-.06-6.01 1.19-8.64.8-1.68 1.65-3.33 2.55-4.95.37-.66.72-1.36 1.22-1.94.19-.22.4-.44.66-.58a1 1 0 0 1 .26.72l.03.22.02-.03c.22 3.9.66 7.79.95 11.69l.08.97-3.05 1.83Zm-39.68 77.84c-4.4-1.49-8.57-3.71-12.98-5.16-2.55-.84-5.38-.82-8.1-1.13-4.25-.49-8.51-1.3-12.76-1.27-3.66.03-6.88-1.31-9.84-2.76-2.39-1.17-5-2.52-6.52-4.93a7.45 7.45 0 0 1-1.44-1.9c-.23-.45-.07-.96.27-1.24l-.04-.19c.09 0 .17.03.26.04a.85.85 0 0 1 .85.06l.4.22c1.38.43 2.65 1.19 3.94 1.93 1.2.61 2.33 1.29 3.68 1.57.78.16 2.4.43 2.97-.36-.96-2.13-3-2.42-4.53-3.28-.55-.31-1.13-.58-1.71-.84l-1.45-.4c-2.04-.6-4.37-1.18-5.31-3.33-.27-.63.03-1.49.84-1.46l.16.02c0-.04 0-.07.02-.11l.34.16c2.14.3 3.88 1.8 5.84 2.63a50.36 50.36 0 0 0 7.54 2.66c.21.05.84.24 1.28.23l.41-.23c.19-.41-.16-1.29-.32-1.61l-.02-.04c-1.71-.99-3.33-1.94-5.02-2.75-1.57-.76-3.19-1.42-4.8-2.1l-1.59-.53c-1.04-.33-2.84-.72-3.15-1.96-.47-1.86 1.98-1.62 3.04-1.39 2.17.47 4.25 1.26 6.3 2.1l3.57 1.47c.76.3 1.56.65 2.38.75.22.03.4 0 .57-.01.25-.08.51-.19.77-.32.24-.23.35-.55.35-.91-.53-.51-1.01-1.03-1.6-1.26-3.83-1.48-7.72-2.79-11.56-4.26-.57-.22-1.27-.9-1.31-1.41-.04-.45.7-1.26 1.23-1.4 2.96-.79 5.83-.18 8.67.58l.5.07c1.06.17 2.12.44 3.13.84 2.47.29 3.75 2.21 5.12 4.16 1.81 2.58 3.79 5.06 5.78 7.51.34.42 1.04.57 1.61.81l.14-.13c.15-.16.11-.11.22-.29l.12-.22.02-.07c-1.2-2.21-2.56-4.37-3.51-6.68a6 6 0 0 0-1.28-1.8c-.63-.43-1.23-.91-1.77-1.42-.92-.88-1.92-2.11-1.84-3.47.02-.41.28-.84.71-.94 1.14-.25 2.36.29 3.35.78.59.29 1.21.65 1.74 1.09l.14.07c4.07 2.27 8.01 4.73 10.73 8.73.84 1.23 1.38 3.27 3.95 1.45l.09-.04c.8-.5 1.73-.61 2.82-.49 1.7.19 3.4.55 5.1.79 1.93.28 3.78.11 5.72.19l4.03.21c1.26-.09 2.6-.22 4.16-.33l-.13.33.09.03c.44.23.63.91.35 1.33-.11.16-.21.33-.3.51l-.06.12-.07.2a7.3 7.3 0 0 0-.19.77v.05c-.04.4-.05.79-.06 1.19 1.34 1.17 2.95.82 4.1-1.42.58-1.13.79-2.46 1.08-3.72 1.16-4.92 2.23-9.87 3.46-14.78.9-3.55 1.99-7.05 3.05-10.55.2-.67.68-1.26 1.36-2.45 1.6 3.61 2.9 6.62 4.27 9.6.77 1.67 1.53 3.36 2.49 4.92 2.29 3.7 2.6 7.69 2.5 11.93-.05 2.29-1.32 4.03-1.63 6.13-.65 4.39-1.26 8.78-2.11 13.13-.99 5.05-2.21 10.05-3.27 14.76-9.23-2.95-18.32-5.74-27.32-8.79Zm47.62 172.34c.62 2.14.42 3.4-.68 3.98-.27.24-.59.44-.97.56-.85.28-1.84.33-2.73.29a16.71 16.71 0 0 1-3-.45c-5.76-.37-11.52-.71-17.27-1.16a17.35 17.35 0 0 1-4.47-1.07c-.58-.21-1.41-1.14-1.32-1.58a74.47 74.47 0 0 1 2.32-9.25c.25-.74 1.84-1.56 2.74-1.48 6.52.56 13.03 1.24 19.51 2.15a5.67 5.67 0 0 1 3.47 2.35 21.02 21.02 0 0 1 2.4 5.66Zm5.14-46.08c-1.14 4.07-2.48 8.08-3.73 12.11-1.21 3.89-2.47 7.76-3.57 11.68a94.93 94.93 0 0 0-1.49 5.98c-.39 1.85-.71 3.66-1.64 5.31-.67.08-1.48.04-2.54-.09-3.56-.45-7.14-.81-10.71-1.18-.07-.03-.14-.06-.22-.06a16.03 16.03 0 0 1-3.14-.56c-.91-.26-1.94-.55-2.72-1.12-.76-.55-.81-1.42-.81-2.29 0-.64.03-1.28.09-1.92.13-.4.27-.8.35-1.21.6-2.91 1.12-5.83 1.58-8.76.42-2.68.68-5.38 1.08-8.06.46-3.12.95-6.25 1.55-9.35.03-.82.22-1.66.7-2.33.23-.33.5-.6.78-.84.22-.29.48-.57.82-.81 1.9-1.33 4.6-1.72 6.84-2.01 3.05-.39 6.02-1.16 9.05-1.64 2.28-.36 4.7-.32 6.96-.85 1.22.18 1.65 1.1 1.75 2.3.15 1.9-.48 3.9-.99 5.71Zm71.74 35.51c4.2 2 7.61 4.87 9.75 9.42-.56.2-.99.45-1.45.5-7.67.88-15.36 1.56-22.99 2.68-3.17.46-6.11.3-9.03-.78-.74-.27-1.79-1.06-1.82-1.65-.18-3.36-.08-6.74-.08-10.57a31.34 31.34 0 0 0 11.1.79c2.88-.01 5.61-.67 8.32-1.52l.58-.14c2.28-.57 3.89.45 5.63 1.28Zm-15.47-31.38 2.51 6.16c2.64 6.5 5.45 12.97 7.76 19.6l.17.75a36.4 36.4 0 0 1-7.19 1.94c-.21.2-.49.33-.88.31-1.2-.08-2.37-.05-3.52.04a63.2 63.2 0 0 1-4.13-.31c-1.48-.17-3.33-.35-4.75-1.06l-.06-.13a1.9 1.9 0 0 1-.46-.39 3.15 3.15 0 0 1-.58-1c-.2-.29-.39-.6-.53-.94-.78-1.91-1.46-3.9-2.13-5.84-.75-2.16-1.08-4.37-1.61-6.58-1.03-4.33-3.44-8.2-5.09-12.31l-.94-2.41c-.69-1.18-1.29-2.43-1.94-3.64-.28-.51-.57-.99-.86-1.47-.57-.75-1.14-1.49-1.63-2.29a14.25 14.25 0 0 1-2.05-3.1l-.05-.17c-.32-.5-.26-1.16.15-1.61.25-.27.61-.37.96-.35l.16-.03.18-.02.41-.02 1.78-.04.55-.03c.43 0 .87 0 1.29-.02 4.06-.19 8.14-.22 12.17-.72 1.73-.21 3.2.02 4.29.82l3.08 7.58a53.1 53.1 0 0 0 2.96 7.28Zm-5.94-66.09c1.16 5.03 2.35 10.07 3.21 15.15.67 3.96.87 8 1.23 12 .31 3.35.62 6.71.81 10.07.1 1.82-.07 3.65-.05 5.48 0 .67.2 1.34.37 2.34l-.24-.02.02.11c.01.32-.15.69-.38.91l-.07.05c-.12.18-.26.35-.46.52-1.48 1.24-4.48.54-6.22.52-6-.05-12.01-.2-18.01.03-6.11.23-12.21.73-18.31 1.19-5.99.45-12.03.54-18.01 1.08-2.96.27-5.77.88-8.59 1.8-1.54.5-3.07.98-4.64 1.32l-.66.26a92.4 92.4 0 0 1-9.51 2.78c-2.02.47-3.05-.77-2.97-2.88.17-3.96.17-7.85-.63-11.83-1.13-5.62-1.41-11.37-1.13-17.17.14-2.88.09-5.81.26-8.71.36-6.09.95-12.17 1.42-18.26.18-2.28.15-4.59.46-6.86.58-4.29 1.33-8.56 2.04-12.84.2-1.24.49-2.47.8-4 1.57.69 2.61 1.19 3.68 1.61 4.22 1.67 8.69 1.85 13.12 1.9a1463 1463 0 0 0 33.78.08c4.69-.06 9.38-.35 14.07-.66l.29-.01.05-.01 4.7-.31c1.43-.09 2.84-.6 4.69-1.01.11 1.37.39 2.64.27 3.87-.1 1.05-.11 2.08-.06 3.1.27 2.89 1.27 5.66 1.8 8.52l.48 1.29c1.09 2.75 1.73 5.7 2.4 8.59Zm6.62-75.14c-.64 3.6-1.54 7.16-2.51 10.69-1.24 4.54-2.41 9-3.03 13.67l-.46 3.59c-.6 2.42-1.22 4.83-1.85 7.24a88.72 88.72 0 0 0-1.09 4.77c-.96 2.15-2.26 4.02-4.54 5.16a18.73 18.73 0 0 1-6.17 1.87c-2.75.7-5.53 1.17-8.35 1.46-9.18.27-18.38.26-27.56.18-9.44-.08-19.41.15-28.21-3.63.26-2.56.73-5.09 1.32-7.59a18.13 18.13 0 0 0 1.47-5.74l.65-2.46a89.5 89.5 0 0 0 1.79-8.11c.32-1.96 1.14-4.01 1.35-6.03l.17-1.02c.82-5.12 1.42-10.16 3.02-15.13l.1-.34.13-.77c.45-2.4 1.08-4.77 1.79-7.11.33-1.89.59-3.8.74-5.77.13-1.78.17-3.59 0-5.35a20.57 20.57 0 0 0-2.14-5.35c-2.02-3.58-3.48-7.47-5.33-11.15-.95-1.88-2.26-3.58-3.32-5.41-.4-.69-.53-1.52-.86-2.56 3.6-2.09 6.9-3.98 10.15-5.93 1.47-.88 2.74-1.05 4.07.28 3.04 3.05 6.21 5.97 9.22 9.05 3.85 3.95 7.95 7.53 13.13 9.65 1.65.68 3.52 2.09 4.94 1.74 1.43-.35 2.37-2.52 3.62-3.81 2.72-2.81 5.25-5.88 8.31-8.26 3.57-2.78 5.84-6.57 8.81-9.8.51-.55.94-1.16 1.52-1.28 2.67-1.71 6.81.63 8.98 2.24 1.2.9 2.35 1.9 3 3.28 1.03 2.2 1.55 4.67 2.17 7.01.76 2.83 1.34 5.69 2.2 8.5.85 2.77 1.56 5.5 2.06 8.36a105 105 0 0 1 1.25 8.84c.14 1.57.11 3.17.34 4.73.18 1.18.46 2.36.5 3.55a17.4 17.4 0 0 1-1.36 6.73Zm88.32-56.77a37.58 37.58 0 0 1-4.18 2.74c-1.39.82-2.95 1.59-4.16 2.67-.65.58-1.21 1.27-1.73 1.97l-.72.93c.17.5.64 1.31.94 1.34 1.02.1 2.28 0 3.11-.52 1.98-1.26 3.76-2.81 5.87-4.44.38.91.85 1.56.9 2.24.15 2.39.28 4.79.4 7.18l-2.48.72c-.69.2-1.36.45-2.02.74-.22.03-.44.06-.68.13-5.62 1.51-9.19 5.92-13.4 9.28-3.58 2.86-6.14 6.98-9.44 10.25-3.07 3.04-6.5 5.71-9.82 8.49-2.83 2.37-5.65 4.75-8.6 6.98-2.01 1.52-4.04 2.75-6.94 1.53-3.44-1.45-7.1-2.42-10.73-3.39-5.91-1.58-11.87-2.95-17.78-4.54a2.97 2.97 0 0 1-1.76-1.74c-.94-3.29-1.64-6.66-2.49-9.98-1.41-5.54-2.86-11.07-4.31-16.6-.49-1.88-1.05-3.74-1.68-5.97 3.5 1.83 6.6 3.6 9.84 5.1 5.01 2.32 10.12 4.43 15.17 6.68 5.32 2.37 9.65 5.69 11.39 11.63.48 1.65 1.77 2.47 3.93 1.36l-3.33-8.39c3.36-1.22 6.21-2.07 8.92-3.27 5.68-2.52 11.53-4.81 16.83-7.99 3.51-2.11 6.17-5.63 9.24-8.49 1.29-1.2 2.49-2.81 4.04-3.39.23-.08.45-.18.67-.27 1.23-.78 2.67-1.27 3.86-2.1 1.66-1.16 3.17-2.35 5.03-3.21 1.57-.72 3.23-1.26 4.72-2.14 1.05-.62 2.75-1.71 4-.99 2.37 1.37-1.58 4.68-2.61 5.48Zm14.72 8.93c-1.93-4.94 1.49-7.74 3.91-10.98 2.03 2.92.63 11.35-3.91 10.98Zm16.89-24.28c-4.4 3.04-8.91 5.91-13.26 9.01-1.31.93-2.21 2.43-3.35 3.63-.73.76-1.55 1.44-2.31 2.17-.98.94-1.79 1.79-1.53 3.46.3 1.95.12 3.99 0 5.98-.29 4.95-.62 9.89-1 14.83.24 1.17.12 2.37-.04 3.56-.08.59-.17 1.17-.2 1.76-.02.38-.04.82.1 1.14.1.24.25.35.55.42.15.03.32.04.49.04.21.12.43.2.68.2.78-.03 1.47-.63 1.46-1.44-.01-1.52.03-3.05.05-4.57.16.04.31.12.42.27.58.35 1.13.66 1.61 1.02.74.55 1.45 1.12 2.18 1.68.49.64.96 1.29 1.43 1.94.52.71 1.34 1.51 1.64 2.35.05.15.07.29.08.43a3.53 3.53 0 0 1-1.44 1.69c-1.3.93-2.75 1.49-4.26 1.86a12.4 12.4 0 0 1-4.74.68l-1.31-.05c-1.39.02-2.78 0-4.11 0-1.86.02-4.48.01-6.63-.71-.03 0-.06 0-.09-.02a6.76 6.76 0 0 1-2.88-1.41c-.95-.8-1.54-2.18-.92-3.35.26-.49.68-.85 1.14-1.15 1.31-1.2 3.72-1.79 5.12-2.19.17-.05.33-.05.48-.03l.09-.07c.58.36 1.4.89 2.24 1.39 1.11.65 1.79.45 1.71-.97-.08-1.23-.23-2.45-.35-3.68-.43-4.37-.91-8.74-1.29-13.12-.24-2.78-.35-5.57-.46-8.35a2.1 2.1 0 0 1 .43-1.32c1.53-1.87 3.24-3.62 4.67-5.56 1.55-2.1-.68-5.43-3.83-5.91-2.79-.42-5.23.66-7.54 1.93-1.35.74-1.89.36-2.85-.6-2.49-2.47-5.29-4.62-7.72-7.15-.76-.79-1.11-2.42-.91-3.53.21-1.16 1.06-2.69 2.05-3.15 4.46-2.06 9.08-.99 13.61-.04a93.26 93.26 0 0 0 22.71 2.08c1.95-.07 3.91-.73 5.78-1.35 1.45-.48 2.04.21 2.43 1.3.36 1 .73 2.05.77 3.09.03.6-.42 1.45-.92 1.8Z"/>
    <path d="M219.47 101.43c-.73-2.1-4.29-3.72-7.14-3.37-2.94.36-5.89.8-8.85.86-2.5.05-5-.39-7.51-.58-1.11-.08-2.25-.15-3.41-.21a7.88 7.88 0 0 0-3.71-.08c-.57.11-1.13.29-1.68.5-.73.29-1.6.55-2.03 1.26-.53.88-.1 1.75.34 2.55.31.56.62 1.18 1.1 1.62.33.31.75.51 1.18.68.36.41.96.66 1.57.86 4.07 1.32 8.11 2.79 12.24 3.89 2.06.55 4.45.99 6.42.47 2.8-.75 5.45-2.27 7.98-3.78 1.41-.84 2.48-2.27 3.62-3.5.18-.19 0-.79-.13-1.16Zm-9.89 4.38c-2.61 1.45-5.43 1.38-8.18.52a304.84 304.84 0 0 1-10.19-3.44c-.04-.03-.06-.07-.11-.09-.28-.15-.57-.28-.83-.46l-.26-.23-.35-.35h1.59l4.3.01.08-.02c4.42.63 8.79 1.11 13.27.18 2.14-.44 4.41-.26 6.63-.36l.05.55c-2 1.24-3.95 2.55-6 3.69ZM206.13 88.59c1.53-.04 3.49-.04 4.71-1.1.12-.1.19-.22.28-.34l.2-.26c.32-.59.4-1.29.45-1.97-.07-1.67-.49-3.25-.64-4.93-.1-1.1-.16-2.24-.42-3.32-.71-1.25-1.42-2.77-3.27-2.82-.22.2-.37.48-.48.78.49 2.28.96 4.42 1.4 6.55.61 2.91-1.56 5.18-4.49 4.87-1.1-.12-2.25.14-3.37.22l-.14.77c.34.45.63.99.97 1.44 1.59.14 3.18.15 4.79.11ZM219.5 50.96c-.95-.21-1.95-.32-2.93-.37H215c-.51.06-.99.23-1.16.66a2.2 2.2 0 0 0-.12.8c.42.65.85 1.28 1.44 1.5 3.28 1.24 6.65 2.26 10.04 3.16.82.22 1.76.03 2.68-.1.21-.17.37-.38.42-.63.04-.19.06-.4.09-.6-.96-3.98-5.03-2.65-7.52-4.13-.45-.08-.91-.18-1.38-.28ZM225.15 68.36c.1-.68.06-1.42-.12-1.97a2.03 2.03 0 0 0-.2-.42c-.42-.39-.83-.69-1.27-.75-2.9-.37-5.85-.38-8.75-.49-.27.2-.48.47-.66.76-.07 2.22.88 3.21 3.78 4.54 2.38 1.09 4.68-.02 7.21-1.67Z"/>
  </g>
</svg>
