<svg xmlns="http://www.w3.org/2000/svg" viewBox="0 0 393 393">
  <defs>
    <style>
      .c{fill:#f7e3d5}.h{fill:#78bdd5}
    </style>
  </defs>
  <g id="b">
    <path class="h" d="M148.97 190.86c.65-.91 1.9-4.27 2.82-5.57 2.42-.57 4.64-2.63 3.55-5.41-1.9-4.85-3.96-9.63-6.36-14.27-2.42-4.68-6.48-9.43-7.52-14.62-.75-3.78-6.63-4.62-8.33-1.1-6.54 13.47-12.01 27.4-17.56 41.29-1.87 4.67-5.28 9.88-1.85 14.56 1.33 1.82 3.21 2.81 5.09 3.9l.06.11a29.88 29.88 0 0 0 4.67 5.5c3.86 4.8 9.1 11.48 13.97 14.07.19 3.67 4.67 6.75 7.5 3.2 2.44-3.07 7.28-3.48 8.3-7.81.95-4.07-1.99-9.54-3.41-13.21-1.38-3.57-7.09-11.58-5.93-15.23.48-1.52 3.94-3.91 5-5.41ZM243.21 190.05a3.4 3.4 0 0 0-.31-.6c-.75-1.66-1.73-3.21-2.71-4.78.5-.23.85-.72.61-1.4a122.33 122.33 0 0 0-3.87-9.59c-.65-1.42-1.27-2.88-2.21-4.13-.8-1.08-1.83-1.96-2.75-2.93a28.24 28.24 0 0 0-3.02-5.85 2.57 2.57 0 0 0-1.82-1.13c-1.69-3.04-3.2-6.2-5.1-9.08-.92-1.38-3.17-.1-2.25 1.3 1.83 2.76 3.31 5.73 4.91 8.63a2.12 2.12 0 0 0-.22 2.88c2.22 3.19 3.25 6.64 4.56 10.25.51 1.41 1.07 2.8 1.67 4.18-.07.22-.1.46-.1.72-.31.41-.5.92-.49 1.49a26.1 26.1 0 0 1-.29 4.41l-.08.62-.1.68c-.3 2.03-.83 4.22-.48 6.27-.84 2.56-1.78 5.1-2.4 7.62-1.68 6.81-1.02 13.98-3.31 20.66-.6 1.75-.86 3.29-.18 5.07a15.06 15.06 0 0 0 2.43 4.1c2.04 2.46 5.68 3.55 7.78.61 1.91-2.67 2.97-5.88 4.1-8.93 1.19-3.22 2.9-5.99 4.45-9.02a27.12 27.12 0 0 0 1.19-22.04ZM186.92 381.75c-2.58-4.84-5.19-9.69-6.96-14.9-.45-1.32-1.74-2.23-3.16-1.86a2.6 2.6 0 0 0-1.21.73l-.35-.17a7.98 7.98 0 0 0-3.44-.19c-1.31.11-2.77.11-4.03.49-2.76.84-3.4 3.97-4.35 6.34l-2.95 7.34c-.52 1.3.59 2.84 1.83 3.18 1.1.3 2.03-.14 2.64-.92.31.46.78.81 1.4.93 1.52.3 3 .32 4.54.23 1.36-.08 2.72-.2 4.05.1 3.05.67 6.05 1.66 9.05 2.5 2.23.62 3.95-1.86 2.92-3.8ZM256.89 376.36l-3.79-2.85a49.26 49.26 0 0 0-6.65-4c-2.21-1.16-3.71-3.28-6.08-4.17-2.62-.98-5.49-.49-8.19-.23-2.8.27-5.7.45-6.9 3.43-1.13 2.82.24 6.17 1.31 8.81 1.1 2.74 2.86 5.28 5.62 6.55 1.2.55 2.62.34 3.39-.77 2.36.65 4.85.56 7.34.32 1.76-.17 3.45-.22 5.21-.11a5.9 5.9 0 0 0 3.21-.55l.65.05c2.37.13 7.09.22 7.1-3.24 0-1.61-1.07-2.39-2.24-3.27Z"/>
    <path d="M189.72 191.91a110.06 110.06 0 0 0-15.9-11.38 3.95 3.95 0 0 0-4.7.65c-4.27 4.42-8.69 8.73-12.82 13.28-2.79 3.06-6.79 7.46-6.7 11.84.09 4.79 3.45 11.31 5.28 15.71 1.81 4.34 4.68 4.68 7.97 7.08.84 2.54 4.09 4.25 6.33 1.68 4.35-5 8.78-9.95 13.04-15.04 3.82-4.57 8.65-9.8 10.91-15.39 1.56-3.85-.53-5.94-3.41-8.44Z" style="fill:#3b7477"/>
    <path d="M228.22 174.56c-2.72-10.86-9.92-19.9-14.36-30.04-1.23-2.82-5.38-2.29-6.75.02-2.8 4.74-7.17 8.13-10.44 12.51-.54.73-1.02 1.74-1.58 2.59l-1.85-.78a65.54 65.54 0 0 1-21.89-16.06c-3.64-4.02-6.34-6.01-11.96-5.19-6.59.95-22.62 3.36-17.14 13.36 1.58 2.88 3.14 5.09 4.33 8.22a51.7 51.7 0 0 0 3.19 7.13c2.87 5.1 6.47 9.54 7.44 15.43l-.34.45c-1.23 1.72-.22 4.32 1.45 5.31 1.97 1.15 4.09.24 5.31-1.45a33.02 33.02 0 0 1 7.97-7.81 3.9 3.9 0 0 0 2.31.92c5.78.41 9.39 6.06 13.01 9.98 2.46 2.67 4.49 4.29 5.32 7.89.85 3.65.14 6.76-1.58 10.18-4.5 8.96-13.74 15.18-20.19 22.64-2.13 2.46-.75 6.6 2.75 6.62 13.38.06 26.7 2.2 39.96 3.81 2.11.26 3.87-1.96 3.91-3.87.2-8.75 4.54-18.34 7.26-26.59a3.38 3.38 0 0 0-.18-2.77c3.7-10.46 6.8-21.41 4.02-32.49Z" style="fill:#89c9ca"/>
    <path d="M241.04 356.9c-1-7-1.78-14.12-3.19-21.05-1.32-6.51-3.3-12.02-2.78-18.81a5.79 5.79 0 0 0-.97-3.9c.55-10.6.48-21.21-.4-31.79-.79-9.39-1.69-17.87-6.51-26.14-4.33-7.42-6.24-15.48-15.84-14.91a80.97 80.97 0 0 1-21.6-2.01 5.45 5.45 0 0 0-5.74-1.33c-1.26-.28-2.5-.55-3.73-.8a6.8 6.8 0 0 0-4.85.68c-2.6-.29-5.13-.22-7.42 1.93-4.04 3.78-5.89 11.73-8.1 16.67a6.75 6.75 0 0 0-.59 3.45 95.39 95.39 0 0 0-3.53 9.81 5.71 5.71 0 0 0 1.24 5.8c0 .4 0 .8.02 1.2.35 8.96 3.95 17.1 6.8 25.45 6.26 18.33 5.91 37.52-.63 55.7-2.23 6.18 5.05 9.54 9.63 6.9.54.08 1.13.1 1.78.03 10.68-1.2 20.63-.09 31.22 1.27 9.57 1.23 19.28.33 28.89-.03 4.55-.17 6.91-3.9 6.31-8.12Z" style="fill:#579db6"/>
    <path class="c" d="M236.32 75.04c-1.47-10.11-.53-19.76-.89-29.96a3.87 3.87 0 0 0-1.12-2.7c.93-1.72.76-3.89-1.51-4.84l-6.69-2.78a4.45 4.45 0 0 0-2.14-.35 86.07 86.07 0 0 1-4.28-2.17 3.65 3.65 0 0 0-3.13-.25c-7.71-2.73-15.94-.08-23.71 2.14-4.13 1.18-6.98 2.54-10.04 5.65-4.32 4.4-7.49 8.29-14.29 7.7-2.35-.21-3.58 1.41-3.72 3.22a9.15 9.15 0 0 0-2.59 4.18c-1.42 4.34-.24 6.75.48 11.04.83 4.92-.04 10.16-.65 15.13-2.53-.92-5.24-1.18-7.1.68-2.83 2.84-2.9 8-1.26 11.43 2.13 4.46 6.72 8.32 10.02 11.93a3.4 3.4 0 0 0 2.51 1.2c.04.16.09.31.12.48.82 3.75-.72 5.89-1.33 9.36-.9 5.17 2.01 9.9 2.73 14.9.59 4.11 1.06 7.25 3.87 10.46.14.16.29.29.45.42 4.6 7.5 12.85 11.5 20.06 16.09 2.29 1.46 4.85-.17 5.68-2.37 2.01-5.29 7.9-8.03 10.02-13.38 1.98-4.98-1.76-18.4 5.39-19.51a3.76 3.76 0 0 0 2.53-1.5c4.17-.65 8.04-2.51 10.36-6.27 3.14-5.09 5.07-11.38 7.05-17.04.47-.34.88-.82 1.18-1.54 2.63-6.4 2.96-14.5 1.96-21.33Z"/>
    <path d="M230.19 28.19c-3.78-2-8.07-3.71-11.35-6.48-2.6-2.19-5.84-3.88-8.28-6.15a3.73 3.73 0 0 0-2.75-.99l-.08-.11a3.72 3.72 0 0 0-2.85-1.78 3 3 0 0 0-.98-.39l-.66-.11a4.73 4.73 0 0 0-1.05-.05 3.02 3.02 0 0 0-1.42-.86l-.12-.08c-.94-.67-2.14-.66-3.21-.25-7.28.04-12.65 4.8-20.13 5.15-1.3.06-2.26.64-2.89 1.45-3.03.03-6.39-.18-9.77-.57a3.59 3.59 0 0 0-2.48-2.17c-2.8-.8-5.85-.8-8.62.11-.89-.24-1.76-.49-2.59-.76-5.99-1.96-8.83-5.9-15.82-4.18-4.93 1.22-10.62 4.68-11.71 10.02-1.24 6.06 2.61 13.62 4.84 19.09 1.46 3.58 3.8 6.87 5.13 10.46 1.49 4.03-.33 7.71.37 11.76.68 3.95 3.64 7.17 3.62 11.31-.01 3.5-2.26 6.48-2.98 9.81-.97 4.49.15 8.81 3.68 11.56.19.4.44.79.82 1.16 3.29 3.24 7.51 5.05 11.02 7.98 3.61 3.02 6.66 5.97 10.59 8.65 4.13 2.82 7.97-3.94 3.85-6.76-3.72-2.55-6.62-5.62-10.14-8.37l-.43-.32c-1.76-4.84-2.56-9.54.37-14.35 1.96-3.21 4.31-1.98 6.49-4.49 5.75-6.64.78-12.56-1.96-18.89 2.31-2.71 3.48-5.92 5.98-8.72 4.02-4.48 10.97-3.15 15.79-6.77 1.82-1.36 3.02-3.15 4.59-4.73 2.4-2.42 4.76-2.94 7.97-3.66 2.94-.66 5.55-1.85 8.34-2.95 4.43-1.75 8.47-1.53 13.14-.72a3.9 3.9 0 0 0 3.05-.68c2.83 1.72 5.93 3.09 8.8 4.6 4.42 2.33 8.3-4.41 3.85-6.76Z" style="fill:#c08f5f"/>
    <path class="c" d="M165.76 233.07c-2.01-1.96-5-2.62-6.47-5.15-1.22-2.09-4.43-2.69-6.14-.79a27.71 27.71 0 0 1-6.65 5.5c-2.94 1.74-2.06 5.42.16 6.78.58 3.8 4.25 7.92 6.92 9.56 2.23 1.37 4.95 2.1 7.01.06 2.15-2.12 3.4-5.77 4.86-8.41 1.41-2.56 2.83-5.11.31-7.57ZM231.04 249.58a24.32 24.32 0 0 0-1.7-4.17 2.96 2.96 0 0 0 1.42-2.62c-.06-1.12-.12-2.25-.06-3.38.06-1.32.26-2.61-.17-3.9a9.77 9.77 0 0 0-1.52-2.85c-.53-.71-1.08-1.41-1.46-2.23a3.26 3.26 0 0 0-1.97-1.51c-.14-.04-.3-.06-.46-.07a3.11 3.11 0 0 0-2.3-2.79c-1.54-.41-3.71.55-3.97 2.29-.63 4.29-1.66 9.08 1.13 12.87l.74.96c-.18-.23-.15-.19.08.14.13.21.26.42.37.64.17.38.2.45.12.21.47 1.05.82 2.16 1.32 3.2.86 1.82 1.74 3.26 2.2 4.94.13.49.4.92.73 1.3a2.93 2.93 0 0 0 2.96 2.19c3 0 3.85-3.33 2.55-5.22Z"/>
    <path d="M260.06 376.2a9.67 9.67 0 0 1-2.15-1.2c-2.72-1.89-5.5-3.71-8.1-5.76-2.07-1.63-3.9-3.56-5.93-5.44l.04-.06a1.16 1.16 0 0 1-.11-1.31c.25-.43.31-.83.31-1.4 0-.3-.03-.6-.06-.9l-.03-.24-.04-.31-.05-.47c-.04-.43-.04-.86-.06-1.29-.63-3.64-1.2-7.29-1.96-10.91-1.06-5.04-2.28-10.05-3.46-15.06-.55-2.33-1.36-4.62-1.68-6.98-.72-5.31-.13-10.67-.25-16.01-.19-8.57.15-17.15-.33-25.7-.25-4.49-.83-8.99-.83-13.51 0-2.09-.55-3.99-1.42-5.85-.15-.31-.41-.68-.48-.98a6.15 6.15 0 0 1-.55-1.63c-.24-1.32-.04-2.65-.04-3.97-.02-2.9-.58-5.76-.72-8.65-.11-2.22-.35-4.42-.49-6.64-.12-1.91-.1-3.95.9-5.64.21-.36.52-.51.84-.54l.06-.07c3.17-2.25 3.37-5.99 4.61-9.19 1.11-2.85 1.93-5.8 2.94-8.69 1.45-4.17 3.2-8.25 3.61-12.72.15-1.65.48-3.3.96-4.88.83-2.71 1.03-5.36.05-8.08a40.38 40.38 0 0 1-1.54-5.28c-1.07-5-3.24-9.55-5.66-13.98-1.05-1.92-2.32-3.72-3.46-5.6-.66-1.1-1.21-2.26-1.85-3.37l-4.05-6.93c-.6-.82-1.18-1.66-1.72-2.52-.98-1.57-1.88-3.3-3.04-4.78a11.68 11.68 0 0 0-2.54-2.14 18.41 18.41 0 0 1-2.84-2.12c-1.72-1.07-2.96-2.8-4.76-3.79-1.61-.89-3.47-2.06-3.48-4.03a.83.83 0 0 1-.05-.58c-.09-1.34.15-2.71.24-4.05.15-2.08-.35-4.15-.12-6.23-.03-.32-.04-.65-.03-.99l-.03-.25c0-.07.03-.13.04-.2.01-.07.01-.13.04-.19a.75.75 0 0 1 .21-.32c.09-.1.2-.17.32-.21l.12-.03c.1-.06.21-.1.35-.13 1.68-.32 3.32-1.04 4.96-1.54a35.17 35.17 0 0 0 5.35-1.92c3.01-1.46 4.67-3.95 6.18-6.85 1.39-2.67 2.75-5.37 4.17-8.03a57.32 57.32 0 0 0 4.1-8.9c1.13-3.38 1.34-6.8 1.45-10.34.12-3.8.11-7.61.1-11.42a141.6 141.6 0 0 0-.35-11.29c-.3-3.76-.72-7.52-.8-11.3-.07-3.3.12-6.77-.1-10.16a135.9 135.9 0 0 0-4.05-12.75 6.56 6.56 0 0 0-4.26-4.09c-4.85-1.54-8.73-4.64-12.66-7.73-4.85-3.81-9.77-7.57-15.47-10.12a3.98 3.98 0 0 0-2.9-.3c-2.91.78-5.83 1.52-8.76 2.25a42.7 42.7 0 0 1-7.55 1.94c-.62.1-1.22.23-1.81.38-1.19.55-2.41.93-3.7 1.13l-.25.08c-1.19.42-2.43.79-3.69.98-2.09.77-4.23.37-6.38-.07-3.44-.71-6.88-1.44-10.32-2.17l-.35-.01c-.5 0-1.01-.04-1.51-.05-.2.05-.4.08-.6.15-1.37.46-2.82.97-4.11-.02a3.45 3.45 0 0 1-.48-.45c-.31-.23-.6-.5-.86-.83-.33-.43-.62-.89-.98-1.29l-.26-.28c-.4-.33-.79-.68-1.17-1.03a9.53 9.53 0 0 0-2.35-1.59c-.36-.18-.74-.35-1.13-.51-.19-.04-.38-.1-.57-.12a21.4 21.4 0 0 0-5.76.26h-.02a25 25 0 0 0-.89.47c-2.23 1.28-4.54 2.42-6.77 3.71-1.06.62-2.11 1.26-3.13 1.89-.56.69-1.04 1.46-1.45 2.22a15.73 15.73 0 0 0-1.33 3.97c-.19.82-.15 1.71-.29 2.58.17 3.1.34 6.2.57 9.28.09.53.19 1.07.3 1.59l.1.48c.36.79.73 1.57 1.08 2.37a54.75 54.75 0 0 1 1.81 4.92c.5 1.56.87 3.21 1.55 4.7.44.98 1.05 1.86 1.58 2.77.06.07.13.12.18.2.38.53.74 1.07 1.13 1.59l.35.4c.29.23.58.44.89.61 2.29 1.22 2.37 3.11 1.86 5.22-.35 1.44-.8 2.86-1.33 4.24-.93 2.44.96 4.2 1.47 6.29.13.55.96 1.03 1.57 1.36 1.01.55 1.19 1.3.95 2.33-.3 1.26-.55 2.54-.78 3.81l-2.03 11.51a81.65 81.65 0 0 0-.01 3.13c.03 1.27.07 2.67.59 3.86.35.8 1.02 1.43 1.63 2.09h.02l10.39 9.33a9.05 9.05 0 0 0-3.18 5.77l.02.17.04.4c-.03-.37.01.07.02.12l.09.39.06.1.12.14.14.13.11.06c.16.1.34.19.51.28.02.01.02 0 .03.02l.28.1c.19.07.39.12.59.17l.51.11.08.01.4.02.42-.02h.05l.08-.02.22-.05c.29-.12.59-.27.9-.48.93-.83 1.87-1.64 2.65-2.61l.18-.25c.24-.35.54-.59.94-.73.41-.13.85-.03 1.22.16.22.12.41.33.55.56 3 2.41 5.97 4.79 8.92 7.19.33.27.61.69.74 1.1.58 1.94 1.12 3.89 1.63 5.85.82 3.13 1.59 6.27 2.41 9.39.25.95.61 1.88.94 2.9-.58.26-.98.55-1.41.61-2.64.32-5.31.49-7.94.91-2.75.43-5.47 1.08-8.2 1.66-.35.07-.66.32-1 .46-2.31.92-4.53 1.96-7.09 2.23a13.17 13.17 0 0 0-5.82 4.61c-1.49 2.21-2.57 4.65-3.87 6.97-.7 1.26-1.37 2.55-2.1 3.79-.1.47-.28.93-.48 1.34-1.84 3.6-3.89 7.09-5.61 10.74a358.05 358.05 0 0 0-7.74 17.35c-2.09 5.11-3.85 10.36-5.67 15.58-.6 1.71-.62 3.6.43 5.1a36.8 36.8 0 0 0 4.95 5.95c2.83 2.63 6.14 4.74 8.53 7.86.95 1.24 2.08 2.35 3.17 3.48 2.56 2.65 5.19 5.25 7.71 7.93 1.39 1.48 2.54 3.1 4.62 3.85.85.31 1.54 1.09 2.35 1.88 1.88 1.41 3.04 3.52 4.11 5.62a16.43 16.43 0 0 1 1.92 3.51c1.44 2.31 3.19 4.34 5.62 5.61 1.21.26 2.41.63 3.37 1.56-.32 1.1-.71 2.13-.9 3.19-.98 5.34-1.98 10.68-2.83 16.04-.41 2.56-.77 5.15.05 7.59.37 3.9 2 7.44 3.59 11.06 1.99 4.54 4.06 9.05 5.81 13.69 2.93 7.79 4.54 15.86 4.28 24.09l-.31 1.21c-.27 1.09-.49 2.31-.79 3.51-.28 2.21-.55 4.42-1.02 6.61-.29 1.35-.34 2.75-.52 4.12-.15 1.19-.13 2.45-.54 3.54-1.05 2.83-1.35 5.76-1.56 8.72-.06.83-.27 1.64-.41 2.46l-.85 5.16a7.7 7.7 0 0 0 .27.89l1.71 1.17c.03.31.04.63.02.96-.63 1.5-1.29 2.94-1.69 4.43-.53 1.98-2.03 3.54-2.29 5.63a5.06 5.06 0 0 1-.73 1.97c-2.03 3.34-.74 5.97 3.11 6.23 1.02.07 2.04.05 3.06.07l18.9.4c1.48.03 2.97.2 4.43.08 2.71-.22 3.73-1.85 2.88-4.43-.17-.51-.45-1-.74-1.45-1.58-2.38-3.16-4.77-4.79-7.12-1.18-1.69-2.2-3.41-1.84-5.48h.03c0-.44.24-.86.79-.98.06-.02.09-.06.16-.07 2.91-.72 6.11-.62 9.09-.57 3.15.05 6.2.69 9.31 1.09 3.32.43 6.67.71 10.02.84 1.59.06 3.21.19 4.8.09 1.44-.09 2.8-.59 4.23-.73.69-.07 1.04.4 1.09.93.07.12.12.25.15.38h.07c.22 1.04.49 1.92.57 2.82.19 2.05.34 4.09.5 6.14-.07.15-.13.33-.14.53a9.74 9.74 0 0 0 1.96 6c1.07 1.4 3.33 1.78 4.98 1.96l.61.04c.88.18 1.79.26 2.71.27a78 78 0 0 0 5.07-.13c3.92.2 7.86.03 11.79.05l.75-.02c1.97-.31 3.97-.33 5.96-.56.64-.07 1.28-.17 1.92-.27l1.07-.48a4.23 4.23 0 0 0 2.69-4.13c-.02-1.98-.78-3.56-2.81-4.32Zm-39.45-224.91.77.49.68.44c2.02 3.13 4.1 6.23 5.98 9.44 2.65 4.5 5.2 9.06 7.63 13.68 1.32 2.51 2.19 5.26 3.44 7.82 1.98 4.03 3.46 8.25 3.04 12.71-.44 4.66-1.57 9.27-2.44 13.89-.2 1.08-.54 2.13-.79 3.2-.13.53-.08 1.16-.34 1.61-2.48 4.22-3.46 9.08-5.67 13.41-.53 1.04-1.14 2.04-1.62 2.9-.44 0-.56.04-.62 0-2.83-2.01-5.55-4.15-7.38-7.17-.27-.45-.14-1.24 0-1.83 1.26-5.19 2.59-10.36 3.83-15.55.41-1.7.64-3.43.94-5.15.14-.82.13-1.7.43-2.46 1.91-4.87 1.74-10.07 2.53-15.12.16-2.5.71-4.92.07-7.45a34.99 34.99 0 0 0-2.3-6c-1.1-2.99-2.38-5.92-3.66-8.85-.97-2.22-1.91-4.45-2.98-6.62-.47-.96-1.46-2.15-1.62-3.21 0-.41.02-.47.08-.15Zm8.3 99.55c.06.89.08 1.79-.06 2.75-1.19-1.68-2.81-2.95-3.45-5.04-.39-1.27-1.32-2.38-1.98-3.57-1.13-2.06-2.2-4.15-3.38-6.19-1.34-2.33-.43-4.66.01-6.93.31-1.58 1.15-3.06 1.8-4.71 2.23 2.08 4.4 4.17 6.67 6.17 1.01.89.95 1.89.77 3.02-.33 2.09-.84 4.18-.87 6.27-.04 2.74.31 5.49.48 8.23ZM133 45.7c-1.18-1.1-2.48-1.91-2.9-3.77-.48-2.13-1.37-4.17-2.17-6.21-.44-1.13-.1-1.87.67-2.72.4-.44.72-.8.98-1.13.21-.36.42-.73.55-1.12.24-.69-.07-1.48-.41-2.09a2.69 2.69 0 0 0-.14-.22l-.23-.13c-.2-.07-.41-.13-.62-.17-.35 0-.71.05-1.06.04h-.04l-.03.01c-2.41.64-2.98-2.32-2.94-4.05.03-1.19.26-2.35.52-3.51.03-.56.06-1.12.07-1.68.03-1.51.2-2.82 2-3.46.81-.29 1.33-1.37 1.98-2.09.25-.27.49-.75.76-.77 2.24-.14 3.83-2.32 6.26-1.94.57.09 1.24-.29 1.84-.53a5.33 5.33 0 0 1 6.64 2.1c1.32 2 1.85 3.91-.05 5.98-.84.92-1.15 2.31-1.86 3.39-.75 1.14-1.68 2.16-2.81 3.59.23.98.42 2.43.95 3.76.19.48 1.27 1 1.76.86.64-.19 1.51-.98 1.55-1.57.27-3.88 1.91-7.18 3.89-10.39 1.22-1.99 3.29-2.45 5.24-2.55 2.35-.12 4.74.37 7.1.64.3.03.56.34 1.36.84-4.4.21-7.06 3.09-10.48 4.31-.67.24-1.16 1.14-1.61 1.81-1.44 2.13-2.78 4.33-4.24 6.44-1.26 1.81-2.63 3.53-3.96 5.28-.65.85-1.31 1.71-2.03 2.51-2.35 2.63-3.37 6.28-6.55 8.55Zm14.28 55.08c-2.63-2.21-4.99-4.2-7.36-6.17-.93-.77-1.9-1.47-2.84-2.22a4.61 4.61 0 0 1-1.74-4.91c.37-1.71.65-3.44 1.02-5.15.23-1.07.5-2.14.87-3.18l.26-.63.05-.73c.08-.74.25-1.42.48-2.12.38-1.15.82-2.28 1.16-3.43.44-1.46.74-3.03.39-4.47a3.24 3.24 0 0 0-.53-1.03c-1.19-1.48-2.63-2.75-3.89-4.18-.69-.78-.96-1.66-.42-2.77 1.11-2.29 1.31-4.75 1.28-7.3-.05-3.94 2.11-7.08 4.21-10.18 1.8-2.65 3.7-5.22 5.59-7.8 3.34-4.55 7.05-8.75 11.75-11.96a6.44 6.44 0 0 1 2.24-1.04c3.16-.66 6.36-1.15 9.51-1.81 4.87-1.03 9.75-2.07 14.59-3.27 3.39-.84 6.72-1.93 10.07-2.95a6.82 6.82 0 0 0 2.26-1.02c1.83-1.46 3.65-.87 5.45-.11a18.9 18.9 0 0 1 3.43 1.78c5.2 3.64 10.34 7.38 15.54 11.01 1.11.78 2.4 1.31 3.62 1.93 1.56.79 3.28 1.34 4.64 2.38 1.06.81 1.48 2.26 1.1 4.16-3.59-1.23-6.95-2.56-10.41-3.51-3.2-.89-6.51-1.94-9.76-1.89-3.54.05-7.21.89-10.56 2.1-3.23 1.17-6.4 2.36-9.8 2.77-2.55.3-4.44 1.56-6.16 3.37-2.03 2.13-4.24 4.1-6.33 6.17-2.51 2.49-5.64 2.92-8.96 2.82l-9.7-.29c-1.39-.04-2.15.81-2.97 1.63l-.12.17-.25.41-.07.13-.12.36-.03.12V48.32c.01.07.04.14.06.2.86 1 1.97 1.04 3.26.73 1.58-.38 3.19-.69 5.01-1.07-.3 2.06-1.35 3.29-2.35 4.58-1.34 1.73-2.93 3.38-3.75 5.34-.46 1.12.11 2.94.74 4.17 1.04 2.01 2.51 3.79 4.09 6.08l-2.2 8.54c-3.85-.93-4.82-.38-6.56 3.46-.99 2.18-2.22 4.25-3.08 6.47a6.11 6.11 0 0 0 .28 5.35c.54.96 1.14 1.88 1.93 3.19l-4.93 5.44Zm15.43 11.03c-3.8-1.41-6.11-5.13-10.11-6.77l4.11-4.77 8.11 6.9q-.51 2.92-2.11 4.64Zm3.45 6.66c-.15-.51-.34-1.11-.2-1.58.68-2.3 1.43-4.58 2.22-6.85.78-2.23.53-3.53-1.25-5.15l-2.99-2.69c-1.13-.93-2.38-1.65-3.59-2.47-3.79-2.57-7.18-6.36-6.54-11.27.18-1.37.71-2.65 1.27-3.91.45-1.01.79-2.24 1.51-3.1.52-.62 1.59-.92 2.43-.73.72 0 1.44.3 2.09.68a21.5 21.5 0 0 1 2.7 1.85c.97.78 1.8 1.65 2.89 2.19l.26.05h.26s.24-.02.13 0l.24-.06c.11-.03.03 0 .08-.03a.65.65 0 0 0 .28-.2c.19-.21.33-.52.42-.85a2.6 2.6 0 0 0-1.55-2.38c3.26-3.95 6.46-7.96 9.84-11.82 1.27-1.45 2.57-2.83 3.56-4.46.12-.3.23-.59.31-.9l.1-.41.01-.03V63.9l-.02-.06-.09-.36-.05-.16-.01-.02-.06-.09-.03-.03-.04-.04-.44-.28-.17-.09c.21.12-.12-.05-.18-.06a21.16 21.16 0 0 0-3.44.37c-.88.2-1.73.99-2.36 1.71-2.68 3.05-5.27 6.18-7.9 9.27-.28.33-.64.6-1.18 1.09-.61-1.35-.41-2.47-.19-3.61.21-1.07.18-2.19.49-3.23.63-2.13-.68-3.57-1.8-4.93-1.72-2.09-2.3-4.32-1.01-6.67 1.24-2.25 2.72-4.36 4.09-6.54 1.09-1.74 2.8-1.52 4.21-.9 1.52.66 2.82.33 4.09-.21 1.7-.72 3.44-1.51 4.85-2.65 1.13-.92 1.66-2.52 2.67-3.63a78.93 78.93 0 0 1 5.29-5.22 3.43 3.43 0 0 1 2.02-.68c4.05-.17 7.79-1.62 11.45-3.1 5.51-2.22 10.96-2.83 16.71-.78 3.19 1.13 6.45 2.03 9.72 2.87 3.45.88 5.8 2.64 6.01 6.72-1.61.05-3.23.13-4.85.13-3.46 0-6.29.98-7.92 4.38-.4.83-1.46 1.35-2.22 2.01l-.97.86c-.86.76-.66 2.19.4 2.64l.25.05.15.01.31.01c.21 0 .42-.01.62-.03h.05l.06-.01.32-.06c.21-.05.43-.11.63-.18l.25-.09c.67-.82 1.38-1.62 2.2-2.26.95-1.28 2.33-2.19 3.37-3.39.58-.67 1.8-.96 2.78-1.09 1.64-.23 3.31-.19 5.13-.27.24.8.63 1.48.62 2.16-.04 2.64-.27 5.28-.32 7.92-.07 3.61-.19 7.24-.02 10.84.31 6.55 1.2 13.1 1.11 19.65-.05 3.84-.68 7.87-2.79 11.4-.65 1.09-.86 2.44-1.36 3.62-2.34 5.49-4.83 10.96-8.64 15.59-2.27 2.76-5.69 3.95-9.2 4.61h-.02c-2.21.58-4.64.63-6.95.34h-.42c-.72-.03-1.51-.09-2.3-.21-.52 0-1.04-.02-1.55-.09-2.06-.28-4.08-.9-6.11-1.43l-.29-.02c-.82-.04-2.11-.13-2.56.73a2.07 2.07 0 0 0-.08 1.58c.28.6 1 .74 1.6.89 1.75.42 3.62.43 5.4.65 1.99.24 3.97.52 5.96.78.12.02.23.06.33.1.15.02.28.06.38.13l.48.06c.08 2.05.16 3.79.21 5.53.06 2.22.06 4.45.15 6.66a3.84 3.84 0 0 1-.98 2.95 55.66 55.66 0 0 1-5.09 7.6c-.95 1.22-2.09 2.33-2.99 3.58-.3.41-.6.84-.91 1.24a19.46 19.46 0 0 1-4 5.24c-3.95-1.39-6.56-4.41-9.57-6.9-2.11-1.74-4.36-3.31-6.48-5.04a92.95 92.95 0 0 1-6.06-5.32 4.44 4.44 0 0 1-1-2.49 121.97 121.97 0 0 0-4.25-19.17Zm-13.11 22.59c3-.34 5.96-1.23 8.9-2.01 2.1-.56 3.49-.14 5.11 1.55 4 4.19 8.34 8.06 12.61 11.99.93.86 2.12 1.47 3.23 2.1 3.14 1.77 6.35 3.38 9 5.93 1.58 1.52 2.52 1.6 4.14.1a59.28 59.28 0 0 0 6.27-6.97c2.54-3.26 4.85-6.71 7.28-10.06.2-.28.51-.48.94-.88 5.38 7.77 10.56 15.48 14 24.19 1.18 2.99 2 6.15 2.71 9.29.12.52.21 1.04.28 1.56.39 1.29.66 2.61.7 4 .09 3.47-.99 6.92-1.65 10.3-.68 3.5-1.27 7.04-2.37 10.44l-.16.47c-.08.63-.15 1.27-.24 1.9-.23 1.69-.73 3.27-1.16 4.9-.88 3.31-1.89 6.57-2.77 9.88-.88 3.31-1.6 6.65-2.57 9.94-.82 2.78-1.48 5.62-2.54 8.32-1.4.46-3.75.15-4.61.13-1.9-.05-3.8-.14-5.7-.31-4-.36-7.68-1.42-11.56-2.32-3.65-.84-7.6-.86-11.33-1.05-3.09-.15-6.18-.2-9.28-.2l-1.23-.29c2.41-3.2 4.58-6.25 6.93-9.15 2.09-2.58 4.47-4.93 6.56-7.51 2.78-3.45 5.41-7.02 8.1-10.55.39-.51.73-1.06 1.14-1.55 3.37-4.04 3.43-7.76.05-11.85a112.4 112.4 0 0 0-11-11.36c-2.78-2.13-5.47-4.46-9.16-4.61-2.99-.12-5.15 1.73-7.11 3.77l-.53.67c-.43.44-.84.89-1.25 1.37a60.87 60.87 0 0 1-3.09 3.33l-.64.48-.5.38a.96.96 0 0 1-.38-.43c-.6-1.22-.84-2.56-1.22-3.85-.4-1.33-.87-2.64-1.38-3.92-1.06-2.63-2.31-5.18-3.51-7.74-.06-.13-.08-.26-.1-.39a99.67 99.67 0 0 1-2.14-4.26c-1.54-3.34-2.99-6.65-4.82-9.84-.8-1.4-1.61-2.79-2.17-4.3-.19-.52-.36-1.04-.54-1.57l-2.93-4.74c2.99-4.04 7.23-4.8 11.72-5.31Zm5.7 54.19c2.16-2.34 4.41-4.59 6.47-7.03.48-.68.97-1.35 1.5-1.98 1.16-1.34 2.7-2.22 4.12-3.26.54-.4 1.06-.9 1.71-1.13.73-.78 1.54-.64 2.44 0 1.43 1.01 2.83 2.06 4.22 3.13 2.77 2.12 5.62 4.16 8.26 6.43 1.88 1.62 3.63 3.5 3.92 6.17.09.79.07 1.73-.27 2.41-1.33 2.64-2.86 5.19-4.19 7.82l-1.33 1.63-6.69 8.3c-2.08 2.58-4.07 5.28-6.33 7.71-1.94 2.09-4.3 3.73-6.17 5.89l-3.22-3.09a14.3 14.3 0 0 1-1.68-1.04 10.68 10.68 0 0 1-2.56-2.5c-1.52-1.64-2.17-3.83-2.84-6.17-1.12-3.93-3-7.65-4.68-11.78a42.02 42.02 0 0 1 7.32-11.5Zm-10.67 6.39-1.7-3.53c2.05-4.73 6.25-7.39 9.37-11.67l1.68 3.99-9.35 11.21Zm-6.59 31.23-7.89-7.82c-1.63-1.62-3.35-3.17-4.87-4.89-2.19-2.48-4.01-5.35-6.41-7.59a66.7 66.7 0 0 1-7.44-8.51c-.31-.41-.73-1.05-.74-1.44-.02-.05-.06-.09-.07-.15-.19-.8-.05-1.6.25-2.37.18-2.17 1.03-4.19 1.97-6.15a84.46 84.46 0 0 0 3.03-7.37 56.24 56.24 0 0 1 3.47-7.64c1.16-3.09 2.3-6.2 3.56-9.25 1.51-3.65 2.99-7.32 4.82-10.82 1.48-2.84 3.46-5.42 5.2-8.14.53-.83.97-1.72 1.56-2.77 4.22 5.03 5.78 11.22 8.83 16.61 3.07 5.43 3.84 11.76 7.27 16.83-1.68 2.41-3.09 4.57-4.63 6.63-1.47 1.96-3.09 3.82-4.68 5.79a17.9 17.9 0 0 1-.68-1.01c-.12-.04-.21-.12-.3-.2l-.5-.62-.49-.59c-.74-1.09-1.85-2.62-2.85-2.12-.61.31-.95 1.22-1.03 1.84-.11.83.19 1.7.54 2.44.88 1.82 2.12 3.43 3.03 5.24.32.64.62 1.28.89 1.93 1.15 1.99 2.19 3.71 3.14 5.47 1.32 2.43 2.61 4.87 3.81 7.35a23.92 23.92 0 0 1 1.66 4.41c1.13 4.39-.29 7.83-4.09 10.47-1.44 1-2.79 2.12-4.2 3.14-.58.42-1.23.73-2.13 1.26Zm8.17 10.66c-.26-.89-1.19-1.56-1.7-2.4-1.04-1.73-2.01-3.51-3.2-5.6 2.03-1.37 4.07-2.62 5.95-4.07 1.87-1.43 3.59-3.06 5.58-4.76.45.32 1.22.81 1.92 1.38 2.36 1.92 4.73 3.84 7.03 5.83 1.68 1.45 1.55 2.13.4 4.03-1.75 2.87-3.2 5.92-4.89 8.82-.67 1.14-1.65 2.11-2.7 3.41-3.18-1.7-7.12-2.31-8.39-6.65Zm34.11 133.63.54.93c.51.94 1.22 2.05 1.37 3.13.3 2.07-4.89 1.07-6.13 1.01l-2.05-.07-2.73-.41c-3.82-.55-7.75-.3-11.63-.42-.48-.02-.96-.08-1.44-.15a2.1 2.1 0 0 1-.2-1.09c1.39-1.92 1.86-4.25 2.57-6.47a175 175 0 0 0 1.16-3.75c.69-1.23 1.41-2.26 2.89-2.78 1.73-.61 3.64-.78 5.46-.75a17.54 17.54 0 0 1 3.12.33 7.47 7.47 0 0 1 1.36.71h.02v.03a85.5 85.5 0 0 0 5.69 9.76Zm32.51-13.99c-1.83-.05-3.65-.06-5.47-.18-4.38-.28-8.75-.77-13.13-.86-3.98-.09-7.88-.61-11.81-1.06-3.13-.36-6.49.29-9.61 1.05-2.98.73-5.85.43-8.78.28l-1.89-.11c-1.7-4.6.94-8.67 1.53-12.99.38-2.77.88-5.52 1.35-8.27.23-1.34.52-2.68.79-4.02.46-2.24 1.05-4.47 1.34-6.73.19-1.51.4-2.99.94-4.39.1-.58.19-1.17.25-1.78.22-2.41-.2-4.79-.81-7.12-1.25-4.72-2.88-9.33-4.34-13.98-.73-2.33-1.31-4.72-2.21-6.99-.84-2.11-1.88-4.12-2.8-6.19-.91-2.06-1.82-4.11-2.75-6.17-.35-.78-.58-1.55-.78-2.33a17.17 17.17 0 0 1-.45-1.17c-.44-2.53-.39-5.15-.36-7.72.04-3.85.71-7.58 1.88-11.25 2.18-6.87 5.68-13.31 8.91-19.75.37-.59.72-1.19.99-1.82.62-1.44 1.72-1.91 3.09-1.9 3.34.02 6.68.03 10.02.2 6.68.34 13.12 2.17 19.68 3.23 1.46.24 2.96.23 4.44.31 3.7.21 7.4.38 11.09.65 1.16.09 1.83.79 2.35 1.95 1.12 1.23 1.63 2.87 2.14 4.49l.01.01c1.61 2.58 2.99 5.23 4.39 7.92.46.89.95 1.79 1.4 2.7 3.36 4.63 3.84 10.2 4.17 15.85.16 2.85.55 5.7.82 8.54.11 1.11.28 2.22.27 3.33-.03 8.25-.12 16.5-.15 24.76-.02 3.99-.11 7.98.12 11.96.11 1.99.87 3.95 1.33 5.93 1.27 5.4 2.33 10.85 3.86 16.17 1.21 4.2 1.67 8.5 2.44 12.76.15.86.02 1.76.02 2.57-4.61.38-8.98.47-13.24 1.19a55.9 55.9 0 0 1-11.02.91Zm40.77 18.62c-.84.2-1.74.25-2.6.31-3.68.25-7.38.07-11.06.21-1.89.07-3.78.15-5.67.26a41.6 41.6 0 0 1-5.32-.78l-.18-.06a2.55 2.55 0 0 0-.73-.14 5.8 5.8 0 0 1-2.85-1.26 6.12 6.12 0 0 1-.97-1.23l-.2-.54a23.9 23.9 0 0 1-1.35-5.78c-.13-1.48-.08-2.98-.05-4.65.21-.45.45-.88.83-1.15.74-.52 1.7-.73 2.58-.92 1.97-.42 4.01-.39 6.01-.36.42 0 .74-.15.95-.39 1.78-.1 3.28.22 4.88 1.73 3.27 3.06 7.06 5.57 10.7 8.23 1.78 1.3 3.75 2.34 5.54 3.62.12.09.24.2.35.31.08.19.18.37.24.57.31 1.09-.04 1.74-1.11 2Z"/>
    <path d="m224.07 98.09.07-.24.01-.04v-.23l-.01-.11-.04-.15c0-.03-.04-.09-.04-.11l-.06-.1-.08-.1-.09-.09a2.35 2.35 0 0 0-.37-.24l-.24-.13c-.95-.19-1.9-.34-2.87-.37-1.34-.04-2.68.14-4.01.29-2.57.29-5.34.3-7.91-.08-1.33-.2-2.54-.74-3.81-1.14-1.26-.4-2.55-.73-3.85-.98-.69-.13-1.41-.3-2.13-.42l-.99-.09c-.16 0-.32-.02-.48-.01-.7.04-1.05.4-1.1.89 1.4 1.58 2.27 3.42 4.78 3.49 1.59.05 3.18.73 4.73 1.28 2.02.71 4.02 1.01 6.22.77a26.4 26.4 0 0 1 5.55.05 8.53 8.53 0 0 0 6.39-1.73c.15-.11.25-.25.33-.39ZM211.95 86.03c.52.3 1.23.23 1.8.25.87.04 1.72.24 2.59.29.31-.03.63-.05.94-.1 1.87-.32 3.21-1.19 3.27-3.21.06-1.87-.64-3.71-1.24-5.45-.72-2.06-1.46-4.1-2.22-6.15a4.07 4.07 0 0 0-1.37-1.21 1.9 1.9 0 0 0-.56-.17h-.08l-.16.04-.19.06h-.03l-.04.03-.12.07-.06.04-.04.03-.13.15-.04.04-.06.1-.12.23-.04.12-.08.29c.4 1.49 1.03 2.91 1.55 4.36.66 1.24.94 2.7 1.48 4.02.23.57.22 1.26.18 1.89-.1 1.69-.59 2.22-2.05 2.34a5 5 0 0 1-.47.1c-.26.04-.53.04-.8.05-.49.13-1 .19-1.53.2-.26.07-.51.17-.67.31-.39.35-.11 1.04.28 1.27ZM184.54 59.67a1.17 1.17 0 0 1 .14-2.12c2.58-.99 5-1.93 7.44-2.83 2.53-.93 5.05-.73 7.55.21 2.75 1.04 5.15 1.85 7.99 2.87 1.66 1.21-.78 2.2-2.01 1.97a43.05 43.05 0 0 1-6.14-1.53c-2.19-.74-4.27-.9-6.43.04a57.43 57.43 0 0 1-4.64 1.75 4.8 4.8 0 0 1-3.92-.37ZM166.86 97.44c-.74-.46-1.57-.81-2.27-1.32a5.86 5.86 0 0 1-2.07-2.78 2.3 2.3 0 0 1-.32-1.22c.04-1.25 1.3-2.3 2.52-1.82a5.62 5.62 0 0 1 1.09.59l.2.1c.28.09.6.08.86-.03.26-.12.4-.31.45-.61-.32-2.18-1.94-3.57-4.82-4.04-.25.02-.5.05-.75.12-.48.14-.82.43-1.19.88l-.1.15c-.39.81-.78 1.65-.97 2.54-.88 4.13 1.61 6.66 4.59 8.83.56.41 1.36.62 2.06.65.45.02 1.14-.33 1.33-.71.09-.19.1-.48.04-.77a1.58 1.58 0 0 0-.63-.57ZM203.72 67.25c.42.66.26 1.57-.43 1.95-3 1.66-8.08 1.83-10.54.15-.46-.31-.98-1.06-.9-1.5.12-.62.67-1.48 1.21-1.65 1.99-.6 3.88-1.48 6.14-1.28 2.01.18 3.52.75 4.52 2.32ZM231.46 60.52c-.99 3.35-4.44 4.69-7.84 3.08a1.4 1.4 0 0 1-.76-1.66c.85-2.66 3.77-3.9 7.52-3.13.77.16 1.3.95 1.07 1.71Z"/>
  </g>
</svg>
