<svg xmlns="http://www.w3.org/2000/svg" viewBox="0 0 393 393">
  <defs>
    <style>
      .d{fill:#e3c724}.e{fill:#fff}.f{fill:#8f8f8f}.h{fill:#d9b298}.i{fill:#a3a3a3}
    </style>
  </defs>
  <g id="b">
    <path d="M337.08 81.85c-1.17-.26-2.39-.21-3.56-.44-1.53-.31-2.99-.97-4.47-1.47-6.3-2.14-12.82-3.46-19.31-4.87-3.22-.7-6.43-1.48-9.66-2.08-3.1-.57-6.21-.19-9.29-.93-1.75-.42-2.86 1.11-2.78 2.49-.4.36-.69.87-.75 1.55-.47 6.14-2.32 11.62-4.21 17.42-1.58 4.85-1.9 10.7 2.25 14.39 3.85 3.42 9.94 4.52 14.86 5.21 5.64.8 11.39.26 16.77 2.44 2.5 1.02 4.9 1.35 7.58 1.48 2.3.12 5.83.93 7.85-.54 1.92-1.39 1.73-4.15 2.17-6.26a74.73 74.73 0 0 1 2.36-8.3c.84-2.53 1.73-5.04 2.5-7.6.77-2.56 1.85-5.55 1.84-8.25 0-2.41-2.01-3.78-4.14-4.25Zm-37.8 20.97a12.29 12.29 0 0 1-3.05-6.74c.08-.41.03-.86-.18-1.32-.07-.32-.19-.6-.35-.84a8.01 8.01 0 0 1-.59-2.03c.88-1.64.98-3.46 1.83-5.19.99-2.02 3.52-3.66 5.57-4.39 2.52-.9 5.39.28 7.82 1.02 2.28.69 4.67 1.54 6.5 3.13 3.69 3.2 4.37 8.64 2.22 12.93-1.05 2.1-2.61 4.19-4.88 4.99a25.33 25.33 0 0 1-7.59 1.18c-2.81.07-5.34-.67-7.32-2.75Zm34.74-6.47-.25.74c-.31-.02-.62.03-.92.14a36.03 36.03 0 0 1-8.1-2.27 15.2 15.2 0 0 0-.99-6.3c.35.07.72.12 1.11.1a28.5 28.5 0 0 1 10.96 1.43h.02a92.48 92.48 0 0 1-1.83 6.15Z" style="fill:#4f5253"/>
    <path class="d" d="M195.37 133.87c-1.17-2.16-3.53-3.62-5.67-4.67-1.17-.57-2.37-1.09-3.55-1.63-1.25-.57-2.42-1.25-3.83-1.12-1.3.12-2.58.74-3.81 1.17l-4.7 1.62c-1.58.55-1.86 2.24-1.29 3.39-.39 2 1.84 4.28 2.94 5.72 1.34 1.76 3.78 4.72 3.23 7.06-.35 1.49-1.18 3.01-1.76 4.42a300.74 300.74 0 0 1-6.35 14.42c-1.23 2.6 2.37 4.73 3.92 2.23.62-1 1.25-2.01 1.89-3 .75.39 1.67.35 2.39-.52 1.74-2.11 3.45-4.24 4.44-6.83.33-.86.56-1.75.8-2.63l.74-.77c3.79-3.74 7.21-7.49 9.58-12.32 1.02-2.07 2.26-4.28 1.04-6.54ZM164.5 169.28c-3.95-3.12-8.46-5.07-12.98-7.18.24-.92-.02-1.94-1.06-2.38a60.2 60.2 0 0 1-7.89-4.2c-.2-.15-.41-.28-.6-.43a7.07 7.07 0 0 0-3.25-2.51 1.87 1.87 0 0 0-.89-.11c-.5-.34-1.01-.67-1.51-1.02-1.41-1-2.35-2.29-3.58-3.48-2.37-2.3-5.8-3.62-8.64-5.24a12.9 12.9 0 0 1-3.79-2.92c-1.11-1.34-1.99-2.86-3.09-4.21-.25-.3-.55-.49-.88-.58a2.34 2.34 0 0 0-2.9-.76c-1.39.64-2.71 1.51-3.34 2.96-.77 1.78.02 3.41.53 5.14.53 1.82.81 3.68.81 5.57 0 1.94-.41 3.87-.16 5.81a6.22 6.22 0 0 0 1.52 3.47c.03.71.37 1.38 1.12 1.7 7.7 3.26 15.63 5.92 23.78 7.81l1.7.38c1.72.61 3.44 1.21 5.17 1.78.69.23 1.32.08 1.81-.28 1.18.26 2.36.54 3.53.84a263.4 263.4 0 0 1 12.41 3.63c2.05.63 3.97-2.36 2.17-3.78ZM225.82 367.59c-1.69-2.21-4.75-3.62-7.2-4.82-5.81-2.86-11.36-5.37-17.93-3.79-3.44.83-6.64 1.73-10.18 2-3.38.26-6.68.63-9.69 2.32-.55.31-.86.73-1 1.2-.17.14-.33.28-.48.46-1.22 1.42-.86 3.26-.54 4.94.45 2.35.92 4.71 1.4 7.06.45 2.19 1.56 3.31 3.83 3.61 1.25.16 2.54.14 3.84.06.29.15.62.25 1 .23a194.7 194.7 0 0 1 18.87-.05 1.92 1.92 0 0 0 1.99-1.17l.37.01c3.4.16 6.89.57 10.29.28 2.72-.23 5.63-.74 6.06-3.85.37-2.64 1.11-6.2-.64-8.48ZM153.28 380.71c-.29-.99-1.02-1.71-1.68-2.47-.51-.59-.95-1.21-1.37-1.85.17-.95-.27-2-1.34-2.5-1.61-3.72-3.13-9.5-7.69-9.75-1.04-.06-2.08.16-3.12.17-1.46.02-2.84-.22-4.25-.55-2.82-.65-5.65-1.29-8.5-1.81-1.67-.31-3.34-.59-5.02-.84-1.42-.21-2.78-.34-3.69 1-.64.94-.88 2.18-1.4 3.2-.66 1.3-1.43 2.54-2.11 3.83-1.15 2.19-2.39 4.79-1.84 7.33a5.5 5.5 0 0 0 2.14 3.39c.98.71 2.19.93 3.17 1.64.83.59 1.63.49 2.23.04 4.52 1.79 9.42 2.33 14.25 2.43 2.86.06 5.73-.02 8.59-.02 2.89 0 5.74.43 8.6.5 2.11.05 3.63-1.63 3-3.74Z"/>
    <path d="M197.96 273.29c-.47-2.29-3.27-3.95-5.5-3.23-9.51 3.08-17.03-2.47-21.29-10.69-2.25-4.33-7.96-1.84-8.41 2.23-.62 5.61-2.32 12.16-8.34 13.35-4.27.84-10.59-.51-14.95-.72-9.62-.46-19.41-.45-28.91-2.12-4.08-.72-6.44 3.57-5.32 6.42a4.1 4.1 0 0 0 .27 2.1c3.71 9.43 1.47 19.82 3.09 29.66.82 4.99 2.33 9.85 3.15 14.84.96 5.91.66 11.86 1 17.81.35 6.15.25 14.27 6.8 16.87 6.11 2.43 20.53 6.2 26.52 2.58 6.15-3.72 7.68-15.82 10.28-21.97.75-1.77 3.79-11.34 6.22-11.3 2.11.03 5.46 13.05 6.13 15.17 1.74 5.49 3.11 15.58 9.77 17.04 8.83 1.94 21.57-2.68 29.77-5.49 1.73-.59 3.58-2.29 3.37-4.34-2.72-26.43-8.36-52.23-13.66-78.23Z" style="fill:#bc902d"/>
    <path class="f" d="M318.39 89.34a12.16 12.16 0 0 0-3.99-3.92c-3.36-2.22-7.34-3.9-11.32-2.33a9.59 9.59 0 0 0-6.09 9.49c-.11.25-.23.5-.32.77a6.9 6.9 0 0 0 .94 6.02 16.75 16.75 0 0 0 3.95 4.19c1.72 1.22 4.08 1.54 6.13 1.73 1.82.16 3.75-.01 5.46-.67a10 10 0 0 0 4.87-3.75c1.13-1.68 1.49-3.79 1.55-5.77.06-1.98-.18-4.02-1.19-5.76Zm-13.52 9.23-.04-.01-.29-.26a23.1 23.1 0 0 1-1.68-1.88l-.26-.38a6.7 6.7 0 0 1-.2-.37l-.03-.1-.02-.14.01-.18.05-.15.1-.26.28-.51c.17-.3.36-.58.56-.87l.39-.54.4-.52c.39-.49.8-.97 1.26-1.42l.42-.38c0 .02.4-.27.52-.33l.26-.13.13-.03c.15-.03.3-.08.45-.1h.14c.31 0 .61 0 .92.03l.48.1c.23.06.45.13.68.21l.19.08c.16.09.33.17.49.27.12.07.23.16.36.22l.06.03.11.1a8.1 8.1 0 0 1 .73.74l.22.31c.16.26.3.53.44.79l.03.08-.03-.1.04.12.05.16.07.21c.09.29.13.59.21.88v.02c.01.17.03.33.03.5l-.03.73c-.01-.04-.1.53-.14.66-.03.12-.09.23-.11.35v.04l-.02.04c-.13.25-.26.51-.41.75l-.2.31-.03.04-.02.02c-.2.2-.38.43-.59.62l-.32.29-.71.44c-.12.07-.25.12-.37.18l-.12.04-.18.08a13 13 0 0 1-2.87-.3c-.72-.16-1.03-.33-1.42-.48Z"/>
    <path class="f" d="M312.05 92.99v-.02l.05.18a.98.98 0 0 1-.05-.16ZM314.02 69.15c-.18-1.02-1.16-1.9-2.13-2.14-3.55-.89-7.23-1.79-10.92-1.43-.83.08-1.55.28-2.16.9a3.03 3.03 0 0 0-.86 2.09c.05 1.29 1 2.73 2.34 2.99.23.31.53.57.91.74 2.15.99 4.33 1.58 6.7 1.72.98.06 1.99.06 2.97 0 1.5-.09 2.82-.77 3.26-2.31.25-.86.04-1.7-.12-2.56Z"/>
    <path class="i" d="M312.66 93.33c-.08-.24-.2-.46-.35-.66l-.28-.69a2.96 2.96 0 0 0-1.11-1.11c-.36-.22-.77-.37-1.17-.52a7.74 7.74 0 0 0-1.82-.32c-.43-.01-.88.07-1.3.13a3.01 3.01 0 0 0-2.14 2.13c-.06.19-.11.38-.14.57-.05.32-.12.68-.13 1.02 0 .34.06.7.11 1.02a3.83 3.83 0 0 0 2.75 2.83 6 6 0 0 0 1.34.17h.59c.34-.03.69-.06 1.02-.13.33-.07.71-.26.98-.38l.24-.13c.19-.13.61-.41.81-.66.29-.28.5-.6.62-.98.18-.35.26-.72.25-1.12.02-.41-.07-.79-.25-1.15ZM334.27 91.18a2.23 2.23 0 0 0-.65-1.01 3.03 3.03 0 0 0-2.09-.86c-.38.01-.77.09-1.13.22-.24 0-.48-.02-.72-.04-.58-.11-1.16-.25-1.71-.46a2.14 2.14 0 0 0-1.15-.05c-.4.02-.78.13-1.13.35-.37.19-.66.46-.87.8-.26.29-.44.63-.53 1.02-.17.76-.13 1.6.3 2.28l.49.64c.38.37.82.62 1.33.76.63.24 1.28.41 1.94.52l.67.08c.06.06.1.14.16.19l.62.47c.34.21.7.32 1.09.34.26.07.51.07.77 0 .4-.02.78-.13 1.13-.35a3.19 3.19 0 0 0 1.4-1.82c.18-.63.26-1.28.32-1.93.02-.41-.07-.79-.25-1.15Z"/>
    <path class="h" d="M197.3 65.89a8.52 8.52 0 0 0-2.86-5.95c-.22-.21-.48-.49-.73-.67a.85.85 0 0 1-.14-.11c-.14-.74-.05-1.52-.07-2.27-.04-2.02-.36-4.1-1.02-6.01-1.28-3.69-3.49-7.24-6.99-9.17a9.84 9.84 0 0 0-5.06-1.27c-1.99.09-3.59.96-5.38 1.7-1.35.56-2.63-.04-3.92-.55-1.86-.73-3.66-1.47-5.69-1.55-3.27-.13-6.19 1.4-8.91 3.05-1.11.67-2.23 1.44-3.43 1.91-1.59.63-3.15.42-4.77 0-4.53-1.14-8.92-2.29-13.65-1.83-4.39.43-7.74 3.89-10.94 6.84-1.21-.84-2.85-1.1-4.04-.22-1.21.9-2.27 1.78-3.2 2.96-1.39 1.77-1.33 3.54.04 5.31.4.52.87 1.03 1.39 1.49.17 1.3.41 2.58.77 3.73.89 2.82 2.67 5.33 3.96 7.97 2.77 5.67 4.91 11.63 7.2 17.5.43 1.11 1.14 2.39 1.19 3.61.05 1.14-.61 2.6-1.03 3.65-.84 2.08-1.8 3.1-4.21 2.93-2.22-.15-3.09-2.35-3.95-4.14a41.4 41.4 0 0 1-2.99-8.72 3.35 3.35 0 0 0-2.49-2.61c-.04-.09-.07-.19-.13-.28-.94-1.63-3.46-2.55-5.13-1.37-2.08 1.47-4.42 3.22-5.73 5.46-1.5 2.56-.58 5.22.06 7.89 1.23 5.14 2.23 10.51 7.4 12.87-.05.15-.1.3-.13.47-.27 1.61-1.27 2.94-1.68 4.52a7.27 7.27 0 0 0 .76 5.8c.17.28.41.52.66.75-.03 1.34.04 2.66.44 3.98.6 2.02 1.44 3.98 2.17 5.96.75 2.01 1.36 4.2 2.62 5.96 1.69 2.37 4.37 3.96 6.99 5.45a3.37 3.37 0 0 0 1.06 3.24c2.08 1.98 4.6 2.98 7.1 4.28a75.39 75.39 0 0 1 6.94 4.21c2.26 1.5 4.49 3.06 6.79 4.49.98.61 2.2 1.49 3.49 2.17.43.69 1.1 1.27 2.08 1.57a28 28 0 0 1 12.11 7.63c2.5 2.64 7.4-.09 6.27-3.62a8.51 8.51 0 0 1-.38-1.8c.04-.13.1-.24.13-.38a82.74 82.74 0 0 1 3.07-9.74c.58-1.5 1.23-2.98 1.92-4.43.74-1.56 1.82-3.16 2.22-4.85.94-3.97-2.82-6.44-5.03-9.11-.9-1.09-1.55-2.39-2.43-3.46l-.23-.3.09-.05c.45-.22.9-.46 1.36-.67 6.65-3.16 13.31-6.28 19.97-9.42 2.83-1.34 6.16-2.66 7.09-5.99.94-3.38-.88-7.32-1.81-10.53a72.03 72.03 0 0 1-2.7-23.68v-.13a37.42 37.42 0 0 0 4.99-10.5 3.3 3.3 0 0 0-1.46-3.95ZM306.48 195.15c-2.29-.62-4.76-.43-7.1-.34-2.37.09-4.75.23-7.13.22-3.33 0-7.08-.52-10.29.57.39-.67.81-1.34 1.19-2.01a10.26 10.26 0 0 0 2.24-4.2c1.05-4.08-4.79-6.62-6.89-2.83-.57 1.02-1.16 2.03-1.76 3.03-1.37 1.29-3.38 2.24-4.74 3.1-3.17 2.03-6.31 4.17-7.7 7.82-1.41 3.69.24 6.77 1.16 10.32.87 3.38 2.02 7.1 1.22 10.6-.67 2.92 1.88 4.79 4.16 4.65.46.5 1.1.89 1.96 1.12 2.36.63 4.6-.86 6.81-1.39 2.37-.57 4.96-.16 7.35.11 1.45.17 2.89-.99 3.47-2.3 2.57-2.16 5.25-4.08 6.31-7.41.95-2.96 1.19-8.07-1.79-9.89.12-.34.22-.68.31-1.03 1.82-.51 3.57-1.25 5.41-1.75 1.9-.51 3.83-.89 5.79-1.15 1.62-.22 2.8-2.1 2.81-3.61a3.86 3.86 0 0 0-2.78-3.65ZM109.9 246.31c-.32.36-.17.2 0 0Z"/>
    <path class="h" d="M119.56 240.22c-1.39-1.26-3.98-1.59-5.31.04-1.52 1.86-2.77 3.88-4.16 5.83a2.5 2.5 0 0 1-.18.23l.17-.19c-.17.19-.32.41-.49.61-.33.4-.68.8-1.04 1.17-.66.67-1.4 1.27-2.15 1.85-1.51 1.14-3.05 2.29-4.22 3.79-.62.81-1.07 1.56-1.08 2.62a3.78 3.78 0 0 0 3.74 3.78c.94-.04 2.09-.34 2.7-1.12a16.74 16.74 0 0 1 3.12-2.94l-.8.62c2.07-1.6 4.05-3.1 5.64-5.19a69.4 69.4 0 0 0 2.45-3.45c.34-.5.67-1 1.02-1.49.17-.24.37-.48.53-.73-.59.97-.08.11.11-.11a4.1 4.1 0 0 0 1.08-2.62c0-.93-.41-2.06-1.12-2.7Z"/>
    <path d="M197.53 25.23a13.2 13.2 0 0 1-2.92-4.68c-1.01-2.67-3.22-4.2-6.1-3.37-2.36.68-4.69 1.84-6.98 2.75l-.81.32a3.05 3.05 0 0 0-1.5-1.6c-4.7-2.1-9.38-4.3-14.12-6.31a6.57 6.57 0 0 0-3.8-.6c-1.13.19-2.1.78-3.2 1.08-2.16.6-4.47.13-6.6-.38-4.6-1.1-9.19-2.51-13.94-1.46-4.82 1.06-8.01 5.07-11.29 8.44a4.1 4.1 0 0 0-.61.83c-7.18 1.15-14.4 2.4-20.73 5.79A5.3 5.3 0 0 0 98 24.86c-2.36 1.47-3.34 4.5-4.17 6.99-1.48 4.46-1.94 9.36-4.31 13.49-2.41 4.2-7.51 5.26-10.18 9.26a8.62 8.62 0 0 0-1.23 6.89c.68 2.62 2.57 4.5 4.02 6.7 2.86 4.34 3.91 9.17 3.93 14.32.01 3.06-.23 6.1-.4 9.15-.15 2.75-.85 6.49.69 8.94 1.34 2.13 3.96 3.21 6.28 3.84 1.76.47 4.12.56 5.47 1.82.3.28.62.48.94.64.33 1.29.68 2.58 1.44 3.7a7.74 7.74 0 0 0 2.8 2.49 3.81 3.81 0 0 0 1.21 4.81 3.74 3.74 0 0 0 6.5-1.39c.21-.89.34-1.8.33-2.71l.06-.18c.35-1.5.36-2.93-.32-4.35a4.98 4.98 0 0 0-2.56-2.33c-.16-.3-.35-.58-.58-.83-.07-.43-.13-.86-.27-1.28a11.43 11.43 0 0 0-1.48-2.99c-.39-.56-.82-1.09-1.23-1.62l-.65-.85a4.1 4.1 0 0 0-2.76-3.59 3.6 3.6 0 0 0-3.1-3.46 64.9 64.9 0 0 1-.8-4.8 64.08 64.08 0 0 1-.39-6.19 3.1 3.1 0 0 0 1.6-.5c1.25-.82 2.31-1.82 3.42-2.81.94-.84 2.27-1.46 3.49-2.09l4.38-2.29.76-.39c.21 1.08.55 2.09.99 3.14 1.03 2.41 2.6 4.44 4.22 6.49a53.15 53.15 0 0 1 3.95 5.67c1.02 1.71 2.42 3.63 2.62 5.67.2 2.02 1.56 3.76 3.74 3.78 1.87.01 3.98-1.71 3.78-3.74-.47-4.81-3.15-9.22-5.96-13.07-2.04-2.8-5.39-5.84-6-9.45.63-.88.93-1.99.56-3.04-1.22-3.43-2.66-6.86-3.59-10.39-.64-2.43-.58-4.73 1.04-6.75 1.83-2.28 4.4-2.24 7.01-2.94 3.39-.91 5.83-3.33 8.79-5.05 2.71-1.57 5.18-2.06 8.19-1.13 3.12.96 6.11 2.28 9.45 1.94 2.99-.3 5.5-1.76 7.88-3.5 1.77-1.3 3.76-3.16 6.01-3.09 1.73.06 3.44.89 5.15 1.19 2 .35 4 .4 6.02.3 3.37-.17 7.05-.8 10.05 1.11a3.2 3.2 0 0 0 3.57.1c.5-.06 1.02-.24 1.55-.59a17.6 17.6 0 0 0 3.69-3.27s.05-.06.07-.09l.41-.5h-.01c.2-.26.41-.51.6-.78.37-.5.53-1.03.58-1.55.99-1.3 1.97-2.6 2.9-3.94.95-1.37.46-3.42-.63-4.54Z" style="fill:#707274"/>
    <path d="M266.59 220.22a49.63 49.63 0 0 1-1.92-10.81c-.08-1.39.16-3.34-.44-4.72-1.59-3.69-4.65-3.56-8.25-3.98-3.28-.38-7.14-.57-10.36-1.58-4.19-1.31-6.48-3.49-9.36-6.63-3.76-4.1-5.34-8.23-8.12-12.92a4.27 4.27 0 0 0-2.27-1.92c-5.75-8.81-8.83-19.58-17.2-26.44-4.42-3.62-8.65-5.13-12.62-4.49l-.03-.02a5.1 5.1 0 0 0-3.37-.45c-.91.16-1.86.76-2.52 1.39-.43.41-.85.96-1.11 1.51a9.22 9.22 0 0 0-.62 1.81c-.64.64-1.28 1.33-1.9 2.11-3.74 4.69-7.27 9.57-11.11 14.18-2.14 2.58-4.47 5.5-7.86 6.45-4.23 1.19-10.09-1.07-14.24-2.1a785.98 785.98 0 0 1-19.08-4.98c-7.22-1.98-16.09-3.28-21.96-8.21-2.02-1.7-4.35-1.61-6.37.05a143.16 143.16 0 0 0-22.45 22.92 167.23 167.23 0 0 0-7.9 11.01c-.62.95-1.94 3.63-3.32 6.29-3.68 2.07-6.16 5.19-7.39 9.65a4.51 4.51 0 0 0 .6 3.56c-3.94 9.93-3.23 20.1 7.21 28.45 8.53 6.82 26.6 20.43 33.06 7.13l1.09-.36a4.39 4.39 0 0 0 2.83-2.63c2.67-2.56 5.9-5.65 6.89-8.76.13-.4.3-.67.36-.87l.58.47c.07.13.12.27.21.39.59.78 1.27 1.54 1.97 2.29.55 1.11.9 2.33 1.25 3.65a4.1 4.1 0 0 0 2.62 2.96c-.08.47-.25.92-.47 1.35-.81 1.59-2.1 2.9-3.32 4.18a22.72 22.72 0 0 1-4.05 3.47c-1.73 1.12-3.49 2.15-5.07 3.48-3.05 2.57-5.02 6.88-3.69 10.83.65 1.92 2.52 3.23 4.58 2.69.03 0 .06-.03.1-.04.96.65 2.06.95 3.62 1.15 6.21.76 12.53.12 18.81 1.07 6.75 1.01 16.75 6.06 22.5.26 2.84-2.86 4.02-7.44 5.84-10.96 1.68-3.24 1.48-5.16 4.86-4.16 1.59.47 5.1 3.77 6.4 4.93 2.54 2.28 4.15 6.31 7.41 7.58 3.9 1.53 10.32-.51 14.23-.95.12-.01.22-.05.34-.07a4.55 4.55 0 0 0 6.16-4.16c.09-6.93.13-13.85.13-20.78 0-.95-.26-1.72-.66-2.36l.04-1.59c.12-3.62.25-7.25.63-10.85.21-1.94.38-7.44 1.49-10.77a44.7 44.7 0 0 1 5.77 3.61c2.97 2.1 3.84 3.89 5.73 6.68 2.29 3.37 5.81 3.99 9.7 3.88 11.89-.32 23.46-6.07 35.52-5.57a3.93 3.93 0 0 0 3.74-1.92c2.01-.81 3.34-3.21 2.73-5.34Z" style="fill:#f4d75c"/>
    <path class="e" d="M175.58 104.82c-2.44 1.42-5.26 1.58-8.02 1.59-3.31 0-8.24-.39-11.55-.45-2.91-.05-1.88 5.52 1.02 5.56 3.53.06 7.63-.57 11.16-.62 3.34-.04 6.71-.48 9.65-2.19 2.51-1.46.26-5.36-2.25-3.9ZM322.05 116.39c-.8.05-1.61.08-2.41.09-4.4-1.75-9.44-1.79-14.08-2.49-3.29-.49-6.56-1.07-9.83-1.69a2.6 2.6 0 0 0-.92-.55l-9.14-3.08-4.57-1.54c-.52-1.02-.27-3.18-.23-4.13.07-1.84.36-3.64.74-5.43.73-3.36 1.79-6.63 2.64-9.96.88-3.42 1.37-6.92 2.17-10.36.38-1.63.73-3.4 1.55-4.88.96-1.72 2.17-1.66 3.97-1.27a2.2 2.2 0 0 0 1.79-.35c.22.03.44.07.66.07l.14.07c.53.12 1.07-.05 1.44-.41.09-.05.19-.07.27-.13a3.78 3.78 0 0 0 1.75-2.28l.64-3.04.06-.27c.43.07.89.03 1.37-.19.87-.4 1.63-.24 2.49.08 2.74 1.02 3.82-3.3 1.17-4.35a6.18 6.18 0 0 1-.89-.45 2.43 2.43 0 0 0-.53-1.16 30.81 30.81 0 0 1-2.73-3.95c-.71-1.4-1.3-2.87-1.99-4.28a35.46 35.46 0 0 0-5.46-8.01 2.83 2.83 0 0 0-1.03-1c-1.8-1.04-3.53.67-3.29 2.33-.24.15-.64.79-.77.95a77.37 77.37 0 0 0-4.82 6.56c-1.9 2.93-3.23 6.15-5.05 9.11-.25.41-.67 1.19-1.18 1.31-.48.12-1.41-.49-1.84-.66a111.68 111.68 0 0 0-16.5-5.29c-2.37-.56-4.13 3.06-1.7 4.13 2.69 1.19 4.14 2.86 5.53 5.41l2.09 3.86 1.04 1.93.44.81c-.69.22-1.47.37-1.93.5-1.17.34-2.36.61-3.56.82-2.43.42-4.9.47-7.36.32-2.52-.16-3.14 4.01-.6 4.43a21.7 21.7 0 0 1 8.74 3.46 17.46 17.46 0 0 1-4.66 4.44c-2.3 1.44-4.69 2.69-6.56 4.71-1.54 1.67 0 4.21 2.17 3.76a24.84 24.84 0 0 1 8.55-.25c.43.07.85.15 1.27.25-.43 1.36-1.43 2.89-1.97 3.84a34.52 34.52 0 0 1-3.3 4.82 95.95 95.95 0 0 1-8.35 8.76c-1.59 1.53.05 4.39 2.17 3.76l8.03-2.36a43.92 43.92 0 0 1-2.08 7.83 32.08 32.08 0 0 0-2.04 9.37c-.1 1.42 1.49 2.6 2.82 2.19l.23-.07c.3.08.62.1.98.04 5.38-.82 10.56-1.87 15.49-4.27 4.64-2.27 9.12-4.89 13.64-7.38.67 1.12 1.16 2.3 1.4 3.61.28 1.52-.05 3.08.3 4.59.35 1.51 1.23 2.9 1.71 4.37.57 1.77.94 3.59 1.09 5.44.2 2.45 3.73 3.2 4.43.6a13.38 13.38 0 0 1 2.21-4.65c1.15-1.5 2.71-2.6 3.93-4.04.82-.96 2.54-3.82 4.4-5.26 1.07.57 2.4.58 3.09 1.68.76 1.21 1.3 2.39 2.35 3.41 1.05 1.01 2.27 1.81 3.26 2.88 1.89 2.05 3.19 4.18 5.93 5.18 1.38.5 2.84-.81 2.84-2.16-.01-5.98.2-11.94.64-17.9.09-1.16-1.09-2.34-2.24-2.27Z"/>
    <path d="M311.8 197.86a3.8 3.8 0 0 0-.52-.84l-2.26-1.89a14.6 14.6 0 0 0-.77-.42l-.88-.4c-1.94-.28-3.92-.3-5.85-.64l-16.74-.88c1-2.07 2.11-3.64 2.47-5.36.29-1.39.1-3.26-.67-4.39-.59-.86-2.74-1.59-3.6-1.17a57.88 57.88 0 0 0-9.77 5.81c-2.93 2.22-5.5 4.95-8.06 7.61-2.87 2.98-5.86 4.62-9.99 2.89l-.74-.08c-1.37-.19-2.75-.29-4.13-.39-1.37-.1-2.75-.22-4.13-.19-.87.02-1.72.02-2.57-.06-1.29.23-2.57-.34-3.5-1.87-2.77-4.59-5.48-9.23-8.3-13.79-4.32-6.98-8.72-13.9-13.06-20.86-1.62-2.61-3.1-5.31-4.75-7.9-.44-.69-.88-1.39-1.36-2.05a8.39 8.39 0 0 0-2.52-1.71c-.68-.29-1.38-.5-2.07-.77-.41-.16-.83-.32-1.25-.45-.59-.04-1.21-.32-1.79-.53-3.33-1.21-6.64-2.44-10.3-3.79.79-1.2 1.71-2.29 2.29-3.55.85-1.84 1.76-3.75 1.99-5.71.09-.78-1.42-1.95-2.41-2.63-2.73-1.89-4.38-5.34-8.55-5.55 2.75-1.64 5.14-3.12 7.57-4.51 3.44-1.96 4.22-5.31 4.53-8.79.04-.45.06-.9.06-1.35-.05-.43-.11-.87-.19-1.3-.64-3.3-1.84-6.44-2.65-9.7-.88-3.53-.9-6.87-.48-10.47.2-1.74.43-3.47.11-5.21-.29-1.61-.78-3.15-.89-4.79a.8.8 0 0 1 .26-.68l-.03-.15c2.29-1.26 4.53-2.41 6.69-3.7.58-.35 1.39-1.23 1.29-1.68-1.27-5.5-2.88-10.93-4.02-16.45-.87-4.21-3.18-6.17-7.25-6.03-.58-1.61-1.05-3.11-1.66-4.56-.92-2.17-.66-3.9 1.3-5.46 2.23-1.77 4.32-3.72 4.66-6.88.07-.65.8-1.29 1.34-1.83 1.67-1.66 2.68-3.87 1.49-5.79-2.64-4.23-5.7-8.21-8.78-12.15-.86-1.1-2.15-1.5-3.79-.43-2.62 1.7-5.85 2.5-8.77 1.6-3.02-.94-5.77-2.84-8.55-4.47a43.35 43.35 0 0 0-6.83-3.38c-.5-.12-1-.21-1.5-.3-.46-.09-1.03-.26-1.43.04-.4.3-.66.79-1.02 1.14-.3.29-.66.51-1.04.7-.95 1.1-1.94 1.08-4.62.72-3.63-.48-7.2-1.38-10.83-1.83a29.47 29.47 0 0 0-7.56-.15c-3.22.44-4.54 3.67-6.85 5.48-1.52 1.19-1.92 3.6-4.47 3.68-4.82.15-9.44 1.48-14.03 2.86-1.23.37-2.39.95-3.58 1.43l.12-.33-11.21-.73c-1.19.31-2.23.9-2.81 2.02-.25.49-.46 1.01-.66 1.53-.86 4.03-1.43 8.2-3.03 11.92-1.74 4.02-1.57 9.27-7.14 11.4-2.31.88-4.3 3.81-5.42 6.27-1.24 2.72-1.38 5.9.95 8.63a34.49 34.49 0 0 1 3.73 5.52c1.51 2.66 2.72 5.31 1.76 8.67-.69 2.43-.56 5.12-.57 7.7-.03 3.79 0 7.59.25 11.38.24 3.75 1.12 7.41 4.91 9.22a44.48 44.48 0 0 0 7.44 2.57c3.92 1.07 4.83 1.55 4.94 5.51.14 5.2 3.17 7.37 7.46 8.11 2.93.51 4.16 2.41 5.27 4.62.6 1.19.87 2.55 1.24 3.67-2.21 2.79-4.35 5.44-6.41 8.16-.29.38-.25 1.08-.2 1.62.28 3.16.49 6.34.96 9.48.35 2.33-.62 3.98-2.1 5.52-5.13 5.36-10.29 10.7-15.37 16.11a50.53 50.53 0 0 0-3.89 4.84c-.92 1.24-1.68 2.6-2.14 3.33-2.03 1.97-3.75 3.43-5.22 5.11-1.86 2.13-3.46 4.49-5.3 6.65-.83.97-1.74 1.63-2.32 3.02-1.41 3.37-3.61 6.4-5.36 9.64-3.41 6.31-7.07 12.54-7.31 20.01.15 1.84.58 3.61 1.18 5.34 2.37 3.48 4.46 7.24 7.36 10.22 3.23 3.31 7.14 6.06 11.07 8.57 6.41 4.1 13.08 7.79 19.63 11.67 2.24 1.33 4.33 2.93 4.63 5.71.39 3.55.58 7.12.71 10.69.27 7.18.16 14.39.74 21.54.56 6.96 1.76 13.88 2.73 20.81.77 5.43.87 11.11 2.61 16.23 2.89 8.48 3.16 17.34 4.92 25.95a7.9 7.9 0 0 0-.11.85l-.04.62c-.12.39-.3.78-.5 1.14a19 19 0 0 1-1.71 4.3c-.86 2.99-1.81 5.95-2.6 8.96-.5 1.92.03 3.9 1.38 5.13.33.52.73.99 1.26 1.35 1.05.72 2.4 1.08 3.59 1.48 2.63.9 5.31 1.73 8 2.44.52.14 1.05.25 1.57.36l.73.21c1.39.35 2.84.45 4.3.48 1.66.12 3.33.16 5 .16.35.03.69.07 1.04.12 5.76.9 11.27-.49 16.8-1.5 3.73-.69 4.48-2.47 2.74-5.95-2.53-5.09-5.37-10.02-8.08-15.01 1.27-.65 3.29-3.96 5.2-7.87.66-1.83 1.25-3.64 2.03-5.43l.07-.17c.49-1.39.95-2.79 1.43-4.19.33-.97.69-1.93 1.05-2.89l.16-.77c.78-1.46 1-3.2 1.51-4.78l1.31-4.07.33-.89.32-.83.04-.11.04-.1.18-.41c.04-.1.1-.19.15-.29.12.08.23.18.3.29.48.94.87 1.58 1.15 2.27 1.12 2.79 2.29 5.57 3.27 8.41a338.8 338.8 0 0 1 5.05 15.43c.71 2.44 1.31 4.64 4.63 4.74.8 5.46 1.51 10.81 2.43 16.14.16.9 1.09 2.26 1.83 2.37 4.31.68 8.65 1.16 13.01 1.46 1.87.13 3.78-.43 5.68-.5 7.37-.3 14.75-.51 22.13-.8a17.7 17.7 0 0 0 3.78-.48c2.02-.53 3.52-1.72 3.88-3.95.26-1.64.53-3.28.74-4.93.37-2.83-1.79-7.2-4.3-8.58-2.55-1.41-5.18-2.67-7.72-4.09-1.96-1.1-3.84-2.35-5.59-3.42 1.01-1.59 2.4-2.77 2.32-3.84-.34-4.76-1.08-9.5-1.72-14.24-.67-4.89-1.45-9.76-2.09-14.66-.58-4.39-.64-8.89-1.63-13.19-1.8-7.81-4.12-15.5-6.21-23.25l-4.01-14.89c2.84.16 4.08-.73 4.5-3.59.4-2.75.73-5.53.75-8.3.08-11.93.04-23.86.04-35.8v-3.2l.7-.5c.24.5.39 1.09.75 1.48 3.3 3.56 6.6 7.12 9.96 10.62 1.67 1.74 3.57 2.77 6.17 1.9 1.33-.44 2.83-.47 4.26-.54a86.72 86.72 0 0 0 15.28-2.12c3.34-.75 6.83-.86 10.23-1.37 4.15-.62 8.28-1.33 12.41-2.07.96-.17 1.87-.86 2.82-.91 5.96-.27 11.92-.38 17.87-.63a19 19 0 0 0 4.7-.7c1.69-.52 3.58-1.07 4.84-2.2 5.38-4.82 7.52-10.57 3.88-17.7 1.26-.4 2.3-.69 3.31-1.06.62-.22 1.23-.47 1.84-.72.99-.14 1.98-.3 2.94-.55a8.28 8.28 0 0 0 3.54-1.8 8.19 8.19 0 0 0 1.98-1.55 3.8 3.8 0 0 0 .28-3.36Zm-118.82-64.59c2.62 2.01 2.94 2.92 1.18 5.5-4.02 5.91-8.04 11.84-12.39 17.5-2.84 3.71-6.26 6.98-9.96 10.25.64-2.1 1.25-4.21 1.92-6.31.3-.95.83-1.83 1.05-2.8a22 22 0 0 1 4.58-9.69c2.36-2.79 1.98-5.7-.34-8.67-2.07-2.66-3.75-5.62-5.79-8.75 3.49-1.09 6.83-2.46 10.3-3.06 1.28-.22 2.95 1.24 4.31 2.14 1.79 1.19 3.45 2.57 5.16 3.88Zm1.47-71.77c.89 2.44 1.58 4.96 2.41 7.43.62 1.88-.38 2.57-1.96 3.04-2.37.7-4.74 1.42-7.07 2.25-1.77.63-3.53-.73-3.9-3.1-.38-2.48-.79-4.95-1.32-8.28 3.39-.88 6.83-1.82 10.32-2.59.41-.09 1.32.7 1.53 1.26Zm-2.56-9.24-17.38 3.81c2.34-5.15 6.82-6.68 11.51-8.02l-.01-.16-.03-.3-.02-.19-.02-.13-.03-.14c-.94-1.24-1.8-1.64-3.65-1.11-3.89 1.13-6.86 3.37-9.79 5.92-1.8 1.57-.28 2.6.53 3.98-2.01.23-3.85.36-5.67.65-4.55.73-9.08 1.56-13.62 2.28-.61.1-1.35-.09-1.93-.35-2.76-1.26-5.28-3.04-8.64-2.55-2.4.34-4.89.03-7.31.23-1.76.15-3.52.59-5.23 1.09-.33.1-.72 1.24-.53 1.63.68 1.37 1.83 1.42 3.26.98a36.4 36.4 0 0 1 5.51-1.14c1.7-.25 3.43-.48 5.14-.42 1.58.05 3.15.49 4.72.76l.01.91c-1.75.5-3.49 1.07-5.26 1.49-6 1.41-12.01 2.76-18.01 4.14-1.21.28-2.88 1.24-3.52.77-1.26-.93-1.99-2.61-2.87-4.03a9.79 9.79 0 0 1-1.21-7.83c.44-1.74.99-3.2 3.57-2.54 3.33.86 5.33-.34 7.35-3.57 2.93-4.7 7.27-6 12.93-3.81 3.37 1.3 6.7 2.79 10.41 2.61a6.7 6.7 0 0 0 3.27-1.03 62.92 62.92 0 0 0 6.23-4.8c1.52-1.32 3.11-1.89 4.74-.67 3.9 2.91 8.04 2.12 12.24 1.08 5.15-1.27 8.87.45 10.02 6.57.55 2.94.64 2.92 3.27 3.92Zm-34.32 26.72c-3.26 1.06-5.95 2.27-8.77 2.78-2.91.53-5.98.68-8.92.37-1.1-.11-2.36-1.83-2.92-3.09-.88-2-1.24-4.23-1.94-6.82 5.06-1.62 9.9-3.33 14.84-4.65 1.5-.4 3.3.19 4.94.47.4.07.96.63 1.03 1.04.64 3.34 1.18 6.7 1.73 9.91ZM127.1 89.95l.89 1.35c.82 1.27 1.4 2.93.44 4.3-.4.57-1.04.85-1.72.67a2.8 2.8 0 0 1-1.35-.98 7.12 7.12 0 0 1-1.19-2.15c-3.42-4.06-4.52-9.82-8.85-13.23 1.47-.48 2.82-1.12 4.23-1.3.72-.09 1.92.43 2.25 1.03 1.86 3.39 3.65 6.81 5.3 10.3Zm-16.83 21.4c-.35 2.26-.84 4.51-1.29 6.82-3.51.21-4.64-.65-4.82-4.3-.24-4.88-3.39-7.13-7.38-8.96a58.49 58.49 0 0 1-7.63-4.4c-.69-.45-1.07-1.59-1.3-2.48a48.28 48.28 0 0 1-.7-21.75c.49-2.5.31-4.72-1.36-6.85-1.7-2.18-3.11-4.59-4.6-6.92a7.54 7.54 0 0 1 1.98-10.15c2.76-2.05 5.41-4.26 8.06-6.45.3-.25.42-.81.48-1.25.34-2.73.34-5.54 1.04-8.17a49.09 49.09 0 0 1 3.76-9.99c.43-.82 2.86-.62 4.38-.83.46-.07.94.04 1.97.11-1.61 4.14-3.18 8.04-4.63 11.98-.54 1.46-1.59 3.01 1.27 3.77 1.71.46 1.92-.13 2.28-1.26 1.3-4.02 3.37-7.65 5.3-11.38 2.15-4.18 5.84-4.04 9.51-4.85 4.46-.97 9.15-1.48 13.03-4.22.64-.45.65-1.74 1.24-2.36a72.62 72.62 0 0 1 5.5-5.17 3.24 3.24 0 0 1 2.36-.69c4.57.84 9.1 1.84 14.06 2.88-.69.6-1.23 1.17-1.86 1.59-2.65 1.75-5.37 3.4-7.96 5.23-.48.34-.82 1.87-.68 1.96 1.01.61 2.45 1.65 3.21 1.32 2.1-.91 3.94-2.44 5.89-3.72 1.99-1.3 4.02-2.54 5.95-3.93 1.69-1.22 3.22-2.68 4.92-3.88.51-.36 1.53-.51 2.05-.24 4.27 2.25 8.47 4.61 12.98 7.1l-6.57 4.28c.73 2.33 3.2 2.71 5.79 1.33 4.64-2.49 9.38-4.79 14.32-7.29 1.74 2.71 4.17 5.33 5.1 8.4.52 1.71-1.06 4.44-2.34 6.25-1.77 2.5-4.15 4.57-6.37 6.93-2.54-1.92-5.2-3.99-8.85-2.76-.95.32-1.88.71-2.85.97-3.27.89-6.25.39-9.23-1.36-2.64-1.55-5.64-1.68-8.3.19-2.23 1.58-4.26 3.44-6.47 5.06-.63.46-1.63.87-2.33.72-3.4-.71-6.86-1.33-10.1-2.54-4.29-1.6-8.7-1.35-12.54 3.42-1.6 1.99-3.02 3.74-6.27 2.95-4.16-1-7.21 2.93-8.86 6.02-1.62 3.03-.68 5.4 1.01 7.91.83 1.24 1.21 2.78 1.98 4.07.85 1.42 1.93 2.71 2.71 3.78-5.1 1.86-10.72 3.89-16.33 5.96-1.11.41-2.17.95-3.21 1.5-.32.17-.71.54-.74.86-.58 4.98-1.18 9.96-1.55 14.95-.06.76.88 2.12 1.61 2.34 3.43 1.03 4.63 4.13 6.54 6.55 2.28 2.9 3.19 6.77 6.39 9.05.41.29.54 1.28.45 1.9Zm3.64-.88c.23-.59 1.4-1.03 2.19-1.14 1.6-.22 3.27-.1 4-1.91v-.04l-.08-.29a3.9 3.9 0 0 0-.27-.47l-.02-.02.03.03-.14-.17c-2.05-2.24-4.82-.93-7.35-.88-.58.01-1.52.03-1.69-.28-2.26-4.25-5.32-8.13-5.51-13.32-.14-3.57 3.65-8.71 7.95-8.45.75.04 1.77.67 2.14 1.33 2.34 4.17 4.54 8.42 6.78 12.65.98 1.84 2.14 3.64 4.56 3.04 5.44-1.35 7.65-5.65 5.57-11.19-1.26-3.34-3.08-6.47-4.6-9.71-.34-.73-.52-1.54-.78-2.31l.8-.34 1.31 2.71c2.47 5.21 6.02 9.39 12.06 10 2.79.28 5.76-.57 8.57-1.24a142.3 142.3 0 0 0 11.5-3.28c1.74-.57 3.39-1.48 5.37-2.44l.07-.21c.38-.23.72-.53.96-.96.47-.85.42-1.85.24-2.78-.41-2.07-.84-4.02-.84-6.15 0-1.06.06-2.13.23-3.17.04-.24.09-.54.16-.83.11-.12.23-.24.38-.34.93-.61 2.15-.66 3.3-.61 1.29-.19 2.58-.35 3.87-.41.49-.02 1.2.63 1.49 1.16 1.47 2.64 2.77 5.37 4.25 8 1.88 3.34 4.62 5.08 8.62 4.27 1.15-.23 2.35-.19 3.5-.27 0 4.83-.36 9.56.11 14.21.43 4.24 1.79 8.37 2.66 12.57.45 2.17 1.08 4.41.89 6.56a5.5 5.5 0 0 1-2.53 3.72c-3.39 1.84-7 3.25-10.57 4.75-3.97 1.67-7.91 3.45-11.99 4.79-4.76 1.56-9.65 2.74-14.51 3.97-.32.08-.61.16-.88.25-.52.48-.96 1.35-.43 1.97.07.08.16.15.25.21.82.14 1.6.25 2.33.43 1.04-.03 2.1-.24 3.1-.47 1.15-.27 2.28-.61 3.43-.9 1.06-.26 2.12-.53 3.1-1.04a.9.9 0 0 1 1.05.12l.04-.02c1.18 1.37 2.17 2.37 3 3.5 1.67 2.29 4.01 4.47 4.62 7.04.48 2.04-1.14 4.62-1.93 6.93-2.09 6.12-4.23 12.22-6.35 18.33l-.72 1.98c-7.42-4.9-14.63-9.68-21.85-14.43-1.52-1-3.18-1.81-4.66-2.87-5.03-3.6-10.01-7.28-15.01-10.93-.7-.51-1.48-.93-2.17-1.46-2.39-1.86-4.55-3.77-5.46-6.97a54.95 54.95 0 0 0-3.97-9.83c-2.13-4.19-1.74-8.28-.15-12.39Zm-.53 25.61c.91-1.19 2.32-1.28 2.59.03 1.17 5.69 6.61 6.78 10.26 9.57 8.7 6.66 17.81 12.79 26.87 18.96 2.54 1.73 5.5 2.85 8.23 4.32.83.45 1.53 1.16 2.29 1.76l-.29.63c-1.43-.23-2.88-.4-4.3-.72-3.01-.66-6.03-1.34-9.01-2.12-10.02-2.65-20.02-5.34-30.03-8.02l-1.39-.35c-4.17-1.01-5.31-2.19-5.81-6.41-.59-5.04-1.08-10.08-1.59-14.91.78-.99 1.49-1.85 2.17-2.74ZM97.43 253.35c-.42.27-1.39.02-1.93-.3-4.08-2.42-7.95-5.27-12.21-7.3-5.33-2.55-9.26-6.74-13.51-10.53a21.8 21.8 0 0 1-5.42-7.15c-.96-2.17-1.01-5.02-.65-7.45.93-6.31 3.39-12.05 6.74-17.58C77.14 192 86 182.8 94.48 173.24c2.56-2.88 4.64-6.19 7.09-9.17 1.13-1.38 2.64-2.46 3.98-3.67l3.27-2.94c2.33 3.31 5.77 4.32 9.03 5.46 6.6 2.3 13.28 4.36 19.94 6.48 1.19.38 2.45.53 3.67.77 4.9.97 9.81 1.89 14.71 2.9 2.71.56 5.37 1.39 8.09 1.89 1.49.27 1.51 1.14 1.44 2.24-.4 6.44-.86 12.87-1.17 19.31-.12 2.37.12 4.76.18 7.14.22 8.18.72 16.36.58 24.53-.13 7.85-.95 15.69-1.39 23.54-.07 1.29.27 2.61.1 3.7-.59 1.34-1.19 2.68-1.75 4.02-1.47 3.5-2.73 7.11-4.45 10.48-2.08 4.06-4.98 4.98-9.63 3.9-8.61-1.99-17.27-3.29-26.18-2.98-4.1.14-8.24-.71-12.33-1.28-.61-.09-1.44-1.08-1.55-1.76a51.16 51.16 0 0 1-.5-6.55c-.01-.42.51-.94.91-1.26 2.52-2.01 4.98-4.1 7.63-5.92 4.65-3.19 7.51-7.58 9.28-12.82.2-.59.67-1.09.84-1.69.33-1.12 1.12-2.83.67-3.3-.68-.71-1.79-.99-2.67-1.24l-.22.2-.29.31-.12.14-.08.1.03-.04c-.09.06-.17.24-.23.33l-.22.33-.04.07-1.29 4.34c-3.34-5.69-6.13-11.2-10.73-15.52a5.8 5.8 0 0 1-1.54-3.76c-.09-3.78.17-7.57.3-11.36.11-3.39.19-6.78.37-10.16.08-1.58.48-3.14.52-4.71a8.88 8.88 0 0 0-.54-3.23c-.11-.3-.44-.57-.81-.77-.46-.04-.92.06-1.35.21-.16.21-.33.44-.48.61-2.36 2.66-1.13 5.69-1 8.66.18 3.89.03 7.8-.05 11.7-.06 2.97-.25 5.94-.41 9.57l-9.6-6.22c-1.52-.98-2.98-2.53-4.88-1.2l-.23.41-.08.17-.05.13-.1.33c.53 1.79 1.92 2.75 3.6 3.39 6.58 2.5 12.2 6.46 17.14 11.38 2.87 2.86 2.82 4.44.37 7.76-2.55 3.44-4.91 7.07-7.8 10.19-1.9 2.05-4.56 3.43-6.98 4.96Zm8.64 3.98c-1.33 1.12-2.64 1.3-4.39 0l15.45-17.46c1.92 2.31 2.69 3.86.93 6.18-1.83 2.4-3.45 4.82-6.07 6.51-2.12 1.37-3.98 3.14-5.92 4.78Zm45.44 123.04c1.23 1.92.69 2.85-1.53 2.96-4.9.24-9.86.69-14.72.26-6.13-.55-12.2-1.8-18.27-2.92-3.68-.68-4.93-3.04-3.69-6.62a201.4 201.4 0 0 1 3.55-9.52c.08-.2.12-.37.15-.53a8.95 8.95 0 0 0 .55-1.6c2.28.8 4.56 1.63 6.9 1.92 5.81.72 11.69.8 17.54 1.21.59.04 1.27.37 1.7.78.61.6 1.22 1.34 1.5 2.14 1.51 4.3 3.88 8.11 6.32 11.92Zm66.06-16.17c5.67.83 9.15 5.63 7.37 11.06-.69 2.1-1.91 3.33-4.52 3.37-5.94.08-11.87.69-17.82.87-5.93.18-11.87.16-17.81.08-2.78-.04-3.65-1.85-3.43-5.67.18-3.22.04-6.46.04-9.99 5.64-1.15 11.34-2.31 17.03-3.49.85-.18 1.7-.42 2.49-.77 3.51-1.58 6.44-1.09 9.5 1.48a14.88 14.88 0 0 0 7.14 3.07Zm-17.1-70.25c1.99 8.67 4.24 17.29 5.89 26.03 1.34 7.09 1.99 14.31 2.86 21.49.27 2.22.5 4.46.56 6.7.23.79.27 1.62.24 2.44-.04 1.25-.2 2.98-1.67 3.36-.3.07-.61.1-.92.1l-8.89 2.31c-3.28.85-6.55 1.73-9.84 2.53-2.06.5-4.18.78-6.23 1.35-3.39.94-5.7.27-6.87-4.06-1.78-6.56-3.23-13.22-7.39-18.95a28.68 28.68 0 0 1-4.2-9.34c-.44-1.64.89-3.73 1.32-5.64 1.26-5.59 2.45-11.19 3.72-16.78.72-3.17 1.61-6.3 2.24-9.48.1-.51-.24-1.12-.55-1.71-.11-.09-.21-.21-.33-.28a3.17 3.17 0 0 0-.38-.17c-.79.33-1.71.58-2.06 1.17a9 9 0 0 0-1.13 3.85c-.7 9.33-3.63 18.04-7.02 26.66-1.94 4.93-3.51 10.01-5.26 15.02-1.99 5.7-3.86 11.46-6.07 17.08-1.39 3.55-4.82 5.52-8.87 4.89-7.15-1.11-14.24-2.61-21.32-4.08-.61-.13-1.39-1.21-1.44-1.9-.24-3.31.06-6.67-.4-9.94-1.39-9.89-3.02-19.74-4.59-29.6-.88-5.54-2.05-11.05-2.7-16.61-.71-6.05-.99-12.15-1.41-18.23-.2-2.82-.28-5.65-.45-9.14 6.14.85 12.01 1.84 17.92 2.45 7.83.81 15.54 2.96 23.53 2.04 1.24-.14 2.54.2 3.81.26 3.84.19 5.67-1.02 7.25-4.46 2.26-4.94 4.63-9.84 7.12-15.12 2 2.43 3.94 4.72 5.81 7.06a56.75 56.75 0 0 1 3.39 4.64c2.8 4.37 6.94 4.56 11.39 3.74 2.57-.47 5.12-1.05 7.9-1.63l5.04 21.98Zm48.94-66.17c-4.42.96-8.97 1.35-13.46 2.01-2.64.39-5.26.9-7.91 1.19-2.61.29-5.24.43-7.86.49-.57.01-1.31-.44-1.72-.9-3.69-4.15-6.97-8.76-11.1-12.4-3.61-3.18-3.87-6.71-3.2-10.72 1.43-8.54 3.01-17.05 4.54-25.57.23-1.28.29-2.64-1.39-2.61-.76.01-2.02.97-2.16 1.68-1.88 9.12-3.26 18.36-5.48 27.39-1.35 5.46-.43 10.62.11 15.91.19 1.89.33 3.79.4 5.69.33 8.6.74 17.19.88 25.79.07 3.92-.41 7.86-.64 11.66-2.89.13-5.11.15-7.32.35-2.33.2-4.67.49-6.98.89-2.54.43-4.69.4-6.62-1.91-2.69-3.23-5.76-6.14-8.72-9.14-3.08-3.12-3.3-6.75-2.78-10.92.71-5.73.75-11.55 1.05-17.34.15-2.85.36-5.7.34-8.55-.02-2.11-.56-4.21-.53-6.32.09-6.64.4-13.27.47-19.91.01-1.14-.11-2.27-.25-3.41.07-.66.15-1.33.25-1.99.3-2.03.57-4.02.35-6.05.04-1.47-.17-2.95-.35-4.42-.36-2.85 1.95-4.24 3.27-5.96 4.67-6.07 9.79-11.79 14.57-17.77 1.62-2.02 2.73-4.45 4.07-6.69.67-1.11 1.44-1.37 2.78-.89a86.03 86.03 0 0 0 9.5 2.92c5.45 1.28 8.14 5.51 10.88 9.72 4.51 6.95 9.1 13.87 13.4 20.95 4 6.58 7.68 13.35 11.47 20.05 1.11 1.96 2.14 3.96 3.19 5.95l.23.31c.33.38.75.61 1.2.72 2.15-.74 2.14-1.77.86-3.32-.79-.96-1.24-2.19-2.02-3.61 4.79 0 9.27-.25 13.71.07 3.87.28 5.56 2.04 6.09 5.9.77 5.63 1.28 11.3 1.86 16.69-4.97 1.38-9.93 2.98-15 4.08Zm45.26-11.63c.04 1.4-.02 2.82-1 3.91-.47.53-1.16.84-1.75 1.22-.7.45-1.4.89-2.18 1.22-1.04.44-2.99.32-2.78-1.27.1-.77.69-1.33 1.36-1.66l.47-.22c1.14-.19 2.24-.55 3.27-1.09.49-.26.5-1.05 0-1.3-.09-.04-.18-.05-.26-.08v-.06l-.11.03c-1.23-.36-2.52.46-3.77.69a2.35 2.35 0 0 1-1.07-.36l-.17.02.02-.14a1.28 1.28 0 0 1-.29-.32 1.26 1.26 0 0 1-.16-.43c.02-.44.04-.96.27-1.32a.44.44 0 0 1 .08-.11c.23-.28.58-.46.92-.6 1.19-.49 2.47-.81 3.69-1.21.35-.11.79-.19 1.06-.46.07-.07.1-.16.15-.25h.02l.07-.08.07-.07c0-.02.03-.05.05-.07l.04-.09-.12-.14c0-.1.03-.21 0-.31-.16-.68-.73-.93-1.33-.92-.05-.03-.09-.07-.14-.09-.9-.02-1.79-.05-2.68.04-.83.08-1.75.19-2.47-.29h-.16l.04-.07-.06-.03c-.4-.34-.31-.96 0-1.32.98-1.11 2.76-1.09 4.11-1.12.76-.02 1.51-.07 2.27 0 .28.03.56.02.84.01 1.89-.71 2.55.83 2.51 2.42a29.02 29.02 0 0 1-.83 5.9Zm12.83-15.57c-.63.71-1.73 1.01-2.62 1.24-2.22.59-4.57.86-6.85 1.1-2.34.25-4.69.31-7.03.59l-1.44.15c-1.35.28-2.71.57-4.07.82-.38.07-.75.2-1.13.23-2.56.14-4.22 3.09-2.78 5.24 1 1.5 1.58 2.89.84 4.58 0 .33 0 .66.04.98.12.84.68 1.52 1.07 2.25.49.93.57 1.81.65 2.84.06.86.5 1.55.82 2.34.19.47-.21 1.02-.65 1.15a.84.84 0 0 1-.59-.06c-2.24.09-4.66.16-7.07.3-2.51.15-5.02.38-7.81.6-.31-3.34-.46-6.8-1-10.2-.61-3.84-1.52-7.64-2.43-11.43-.28-1.16-.41-1.86.64-2.86 2.8-2.64 5.32-5.57 8-8.35a20.32 20.32 0 0 1 3.68-3.16c.13-.14.25-.29.4-.42a7.91 7.91 0 0 1 1.85-1.22c.97-.48 3.25-1.36 3.66.31.32 1.29-1.18 2.29-1.99 2.99-.62.53-1.21 1.1-1.79 1.69l-.16.24c-2.19 2.8-4.69 5.35-6.92 8.12-1.74 2.16-.82 4.27 1.93 4.55.62.06 1.52-.22 1.9-.68 1.26-1.51 2.34-3.16 3.48-4.77.63-.88 1.24-1.59 2.29-1.81 2.1-1.24 5.15-1.17 7.4-1.18 2.77 0 5.56-.11 8.32.16 1.9.18 4.01-.18 5.85.4 1.09.1 2.33.25 3.21.91.78.59.99 1.59.31 2.35Z"/>
    <path d="M342.49 83.09a4.29 4.29 0 0 0-.96-1.71c-.8-.85-1.93-1.04-2.96-1.47l-.11-.05c-7.88-1.05-14.81-4.59-22.42-5.82.26-.77.36-1.15.5-1.5 1.67-4.13.42-6.26-4.03-6.93-1.65-.25-3.28-.62-4.89-.92-.27-.79-.39-1.58-.77-2.22a694.27 694.27 0 0 0-7.26-11.99c-2.09-3.36-4.27-6.66-6.44-9.98-1.62-2.49-4.03-3.22-5.68-1.59a22.17 22.17 0 0 0-3.61 4.42c-2.07 3.51-3.91 7.16-5.84 10.76l-2.62 4.97-19.5-5.01c-.98-.01-2.07.15-2.21 1.16-.18 1.25.49 2.63.96 3.75.25.57.48 1.15.72 1.72 2.06 3.19 4.52 6.02 6.23 9.15l-11.31 2.4c-.45.16-.93.24-1.36.34-.43.09-.86.23-1.26.41-.37.16-.92.39-1.15.57-.59.47-.8 1.12-.58 1.76l.06.13c3 3.38 7.42 3.91 10.94 5.69-1.1 1.23-1.92 2.39-2.98 3.28-3.08 2.56-6.31 4.95-9.37 7.53-1.84 1.55-1.49 2.41.62 3.34 3.74 1.66 7.51 1.11 11.81 1.09l-16.25 18.25-.24.38a4.16 4.16 0 0 0-.3.6l-.08.21c-.05.16-.1.33-.13.49v.26l.02.13.04.13.06.14.09.14c.13.17.39.41.63.59 1.28.83 2.84.67 4.11.5 2.34-.32 4.53-1.62 6.81-2.43.84-.3 1.75-.44 3.06-.75-.55 2.21-1.08 3.94-1.4 5.71-.64 3.6-1.16 7.23-1.74 10.84-.37 2.31.88 3.69 3.31 3.33a75.1 75.1 0 0 0 26.21-9.11c1.28-.73 2.66-1.29 4.06-1.97.27.57.46.83.52 1.12 1.24 5.73 2.43 11.47 3.75 17.17.21.88.91 1.95 1.68 2.3.56.26 1.83-.28 2.38-.86 2.63-2.75 5.19-5.58 7.66-8.47 1.9-2.22 3.62-4.59 5.67-7.21 3.34 3.03 6.37 5.72 9.33 8.48 1.75 1.64 3.3 3.49 5.11 5.05.7.6 1.87.76 2.84.82.2.01.63-1.32.7-2.05.3-3.49.42-6.99.77-10.47.35-3.54.88-7.06 1.33-10.57 5.06.48 6.67-.36 8.36-4.7a72.44 72.44 0 0 0 2.65-8.56 461.36 461.36 0 0 0 4.12-17.66c.37-1.74.53-3.5.33-5.13Zm-31.07-15.45c1.81.37 2.36 1.48 2.02 3.12-.32 1.56-.77 2.66-2.97 2.15-2.98-.69-6.08-.81-9.1-1.34h-.02c-.33.01-.64 0-.95-.13-.86-.36-.98-1.33-.82-2.14l.08-.28c.28-3.46.77-3.65 4.14-3.1 2.56.41 5.06 1.2 7.61 1.72Zm11.24 59.03c-.25 2.53-.3 5.07-.48 7.6-.08 1.09-.24 2.17-.41 3.64-.74-.54-1.18-.79-1.55-1.13-3.88-3.64-7.7-7.35-11.65-10.91-1.2-1.08-2.54-1.53-3.96.28-3.34 4.25-6.92 8.32-10.42 12.44-.34.4-.78.72-1.65 1.52-1.19-5.9-2.4-11.32-3.33-16.8-.52-3.07-1.13-3.44-4.03-2.08a362.39 362.39 0 0 1-14.98 6.62 116.3 116.3 0 0 1-9.82 3.42c-1.41.44-2.95.46-4.95.75.42-2.5.68-4.63 1.14-6.71.8-3.61 1.78-7.18 2.57-10.8.2-.93.3-2.35-.21-2.82-.54-.5-1.93-.36-2.86-.12-2.74.71-5.43 1.61-8.3 1.9l16.49-18.41c.07-.43.1-.86.08-1.29-2.02-2.56-4.77-1.45-7.15-1.42-2.16.02-4.32.53-6.9.88 1.51-1.89 2.44-4.27 3.89-4.65 3.3-.85 4.84-3.83 7.63-5.18.35-.17.62-.52.86-.93.09-.18.16-.36.21-.53.17-.67-.25-1.37-.71-1.82l-.26-.23a5.37 5.37 0 0 0-.48-.24c-3.25-1.26-6.54-2.43-10.56-3.9 1.44-.57 2.23-1.08 3.06-1.18 2.4-.28 4.81-.59 7.22-.76a.88.88 0 0 1 .41-.09c1.27 0 2.55-.04 3.81-.18.27-.03.56-.13.82-.28l.04-.02h.02l.01-.03.14-.15.06-.1.08-.15.06-.16.07-.3.01-.04v-.04l.02-.35c.01-.48-.03-.93-.14-1.39 0-.03-.02-.05-.03-.08l-8.93-12.73.47-.57c2.13.5 4.33.82 6.39 1.53 3.67 1.27 7.3 2.7 10.9 4.16h.08c.65 0 1.38.06 1.97-.23.37-.18.64-.53.88-.9.08-.39.36-.8.53-1.19 1.19-2.83 2.31-5.69 3.61-8.47a16.5 16.5 0 0 1 2.54-3.89c1.79-1.99 3.79-3.8 6.11-6.09l13.29 21.6-.44.57c-1.02-.12-2.03-.28-3.05-.37-3.15-.28-3.83.31-4.19 3.5a8.06 8.06 0 0 1-.47 2.08c-.15.37-.71.92-.95.86l-1.59-.41-2.58-.42c-.83-.14-1.72-.37-2.57-.27-.35.04-.71.18-.97.43-1.05 3.68-2.27 7.32-3.13 11.05-1.31 5.7-2.33 11.47-3.48 17.2-.44 2.18-.81 4.37-1.33 6.53-.49 2.02.22 3.66 2.14 4.47 2.74 1.15 5.46 2.34 8.23 3.4 1.57.6 3.2 1.27 4.84 1.43 3.52.34 7.03.29 10.53 1.2 3.76.97 7.7 1.21 11.56 1.82 1.79.29 3.6.59 5.33 1.13.59.18 1.37 1.15 1.33 1.71-.16 2.37-.68 4.72-.91 7.1Zm14.86-31.89c-.97 4.55-1.58 9.17-2.63 13.7-.49 2.1-1.58 4.08-2.57 6.02-.56 1.1-1.29 1.26-2.85.9-5.49-1.28-11.13-1.95-16.7-2.91-.64-.11-1.27-.32-1.89-.53-1.64-.25-3.26-.62-4.88-.87-1.78-.28-3.59-.44-5.37-.71a38.59 38.59 0 0 1-5.2-1.25c-1.76-.53-3.54-.99-5.31-1.48-.93-.26-1.84-.62-2.78-.85-.6-.14-1.21-.22-1.79-.42-1.82-.61-2.92-2.61-2.82-4.51-.02-.82.08-1.68.26-2.44 1.4-6.09 3.03-12.12 4.5-18.19.56-2.28.88-4.62 1.43-6.91.37-1.55 1.54-1.8 2.96-1.52 11.07 2.2 22.19 4.19 33.2 6.66 4.98 1.12 9.75 3.17 15.11 4.96-.9 3.48-1.92 6.88-2.65 10.35ZM183.58 103.94c-.35-.74-1.91-1.36-2.89-1.28-2.34.18-4.62 1.07-6.95 1.2-5.63.33-11.27.38-16.91.59-.32.01-.64.08-.95.17-.38.03-.75.12-1.07.32-.21.13-.42.29-.6.47-.06.06-.1.14-.15.21a3.84 3.84 0 0 0-.86 2.01 5.05 5.05 0 0 0 .48 3.22 4.95 4.95 0 0 0 1.93 2.12l.07.05.03.02.04.04.18.09.05.02.2.11c.2.09.41.17.63.22.15.03.29.03.44.03 4.65.41 9.31.66 13.97.94.45.03.95-.1 1.38-.27 3.93-1.61 7.04-4.39 10.04-7.26.7-.67 1.27-2.28.93-3Zm-17.07 6.65c-3.46-.47-7-.38-10.5-.34l-.18.03c-.04 0-.07-.02-.11-.03l-.04-.02-.03-.03-.05-.06-.08-.13-.06-.09-.17-.34a2.6 2.6 0 0 1-.16-1.45 4.86 4.86 0 0 1 .21-.86l.07-.14.08-.13.14-.14.1-.06.13-.03c.4.22.8.39 1.21.4 4.54.08 9.08-.02 13.62-.14 2.39-.06 4.78-.29 7.17-.45-3.47 2.32-6.8 4.62-11.34 4ZM169.09 93.37c-.31.31-.58.65-.73 1.07-.41 1.12.23 1.42 1.3 1.56 1.41.18 2.93 0 4.34-.23.26-.14.52-.29.78-.49.66-.51 1.84-.29 2.75-.52.64-.16 1.5-.33 1.81-.8 1.32-2 1.62-4.1.82-6.52a35.36 35.36 0 0 1-1.55-7.64c-.21-2.08-.33-2.69-1.74-2.58l-.5.19c-.34.16-.46.42-.59.76-.35.89-.4 1.7-.28 2.65.12.97.27 1.95.44 2.91l.03.19c.39 1.65.83 3.3 1.15 4.96.35 1.84-.57 3.16-2.45 2.91a7.32 7.32 0 0 0-5.58 1.57ZM117.34 99.36c-.1-.14-.23-.25-.36-.37a11.01 11.01 0 0 1-2.8-1.83c-.04-.04-.07-.1-.12-.14-1.37-.84-3.02-1.83-3.57-3.35-.29-.81-.17-1.88.6-2.39.63-.43 1.44-.29 2.12-.09.51.15 1.32.61 1.74.34.29-.19.37-.46.35-.75-.78-2.04-3.22-3.69-5.18-3.37-2.75.45-4.58 3.18-3.24 5.91a29.13 29.13 0 0 0 5.56 7.56c1.44 1.45 3.83 1.25 5.36.01a2.6 2.6 0 0 0-.47-1.52ZM140.92 75.93c.12.62.39 1.29.78 1.67.37.36.85.4 1.33.32 1.4-.22 2.64-1.06 3.96-1.52 1.72-.6 3.55-.6 5.36-.69.54-.19 1.03-.46 1.21-.91.19-.49.13-.93-.08-1.29-.87-.6-2.09-.53-3.06-.74-3.21-.67-5.75 1.54-8.6 2.41-.45.14-.75.42-.9.74ZM193 67.8s.18-.24.04-.03l.1-.16.09-.16v-.04l.03-.14v-.14a2.22 2.22 0 0 0-.24-.74c-1.6-2.17-3.14-2.27-6.06-.84-.76.37-1.54 1.65-1.46 2.43.05.59 1.54 1.61 2.22 1.49 1.71-.31 3.37-.98 5.23-1.64l.04-.04Z"/>
    <path d="M306.13 81.57c4.17-.21 7.66 1.64 11.13 3.51 2.61 1.4 5.23 8.99 4.24 12.4-2.3 7.84-10.6 10.83-17.36 8.31-4.41-1.64-7.93-3.82-9.16-8.44a15.26 15.26 0 0 1-.05-6.42c.41-2.27 1.04-4.72 2.33-6.56 2.09-2.99 5.72-2.47 8.87-2.79Zm12.26 13.24c.15-5-1.98-8.54-6.44-10.35-1.1-.45-2.46-.22-3.62-.56-3.86-1.13-6.86.06-8.58 3.62-.48.99-.62 2.16-1.15 3.12-1.97 3.6-.98 7.16 1.11 9.95a10.9 10.9 0 0 0 10.79 4.25c4.73-.79 7.73-4.93 7.88-10.03ZM336.26 89.69c-2.31-1.91-5.22-1.73-7.99-2.05-4.84-.55-4.8-.57-5.08 4.26-.09 1.5-.23 2.96 1.42 3.67 3.13 1.36 6.26 2.92 9.4 2.03.2-.09.38-.21.56-.33a3.4 3.4 0 0 0 .85-1.09c.6-1.63 1.16-3.07 1.53-4.54.15-.57-.22-1.56-.7-1.95Zm-2.89 3.75c-.02.64.08 1.4-.25 1.98-.41.72-1.22.77-1.95.57-.27-.07-.53-.18-.8-.26a13.07 13.07 0 0 1-3.17-.81 2.4 2.4 0 0 1-.57-.36 1.43 1.43 0 0 1-.58-.54c-.18-.33-.21-.74-.26-1.1-.11-.83-.11-1.67-.02-2.5.05-.41.31-.75.75-.75a.6.6 0 0 1 .17.04c.51.05 1.02 0 1.53.04.47.04.93.1 1.4.1.46 0 .93-.02 1.4.03.19.02.38.05.58.06h.32l.27-.04c.86-.09 1.27.62 1.26 1.39-.01.71-.07 1.42-.09 2.13Z"/>
    <path d="M314.05 92.86c-.01-.19-.05-.36-.08-.53.09-.15.14-.33.09-.54-.41-1.93-2.69-2.38-4.29-2.92-.86-.29-1.76-.64-2.68-.6-.3.01-.57.08-.83.17h-.13c-.68.27-1.51.47-2.17.8l-.11.07c-.28.22-.51.49-.72.79-.18.27-.33.54-.48.82-.09.19-.17.38-.23.57-.61 1.72-.66 3.85.32 5.45a2.91 2.91 0 0 0 .56.65l.32.27.08.06.18.09v.02a4 4 0 0 0 1.45 1.1 7 7 0 0 0 1.65.68 4.65 4.65 0 0 0 3.82-.84c.47-.13.91-.33 1.29-.64 1.48-1.21 2.09-3.66 1.95-5.48Zm-5.75-2.16c2.07.03 3.79 1.44 3.29 3.36-.37 1.4-1.76 3.14-3.07 3.55-2 .64-3.66-1.08-3.64-2.96.03-2.54 1.29-4 3.42-3.96Z"/>
  </g>
</svg>
