<?xml version="1.0" standalone="no"?>
<!DOCTYPE svg PUBLIC "-//W3C//DTD SVG 20010904//EN"
 "http://www.w3.org/TR/2001/REC-SVG-20010904/DTD/svg10.dtd">
<svg version="1.0" xmlns="http://www.w3.org/2000/svg"
 width="512.000000pt" height="512.000000pt" viewBox="0 0 512.000000 512.000000"
 preserveAspectRatio="xMidYMid meet">
<metadata>
Created by potrace 1.14, written by Peter Selinger 2001-2017
</metadata>
<g transform="translate(0.000000,512.000000) scale(0.100000,-0.100000)"
fill="#000000" stroke="none">
<path d="M1658 4566 c-221 -77 -311 -325 -188 -516 64 -100 161 -153 280 -154
371 -3 486 491 151 651 -65 31 -182 40 -243 19z"/>
<path d="M3156 4165 c-140 -50 -182 -239 -78 -348 54 -58 97 -70 242 -71 103
0 171 7 214 23 11 5 26 9 31 10 68 8 354 136 339 151 -6 6 -22 6 -39 1 -104
-29 -252 24 -433 154 -51 36 -108 73 -127 81 -43 17 -98 17 -149 -1z"/>
<path d="M1689 3646 c-2 -2 -32 -7 -66 -10 -34 -4 -74 -11 -88 -16 -14 -5 -25
-8 -25 -5 0 8 -203 -66 -264 -97 -85 -42 -226 -131 -223 -141 1 -4 155 -160
342 -347 l340 -340 387 387 c214 213 388 390 388 393 0 7 -179 87 -248 111
-121 42 -234 61 -388 65 -82 3 -152 3 -155 0z"/>
<path d="M3377 3554 c-1 -1 -31 -4 -67 -5 -197 -8 -416 -96 -570 -229 -30 -26
-273 -266 -540 -533 -267 -267 -490 -483 -496 -479 -5 4 -57 61 -114 127 -58
66 -109 125 -115 131 -5 6 -32 37 -59 68 -27 31 -61 70 -75 85 -14 15 -42 47
-61 70 -19 24 -47 55 -61 69 -14 15 -52 58 -85 97 -32 38 -70 82 -84 96 -14
15 -54 60 -90 102 -36 41 -69 73 -73 70 -12 -7 -54 -106 -88 -205 -119 -348
-67 -707 142 -985 43 -58 753 -773 767 -773 4 0 492 485 1085 1078 827 827
1075 1081 1065 1089 -23 18 -122 60 -189 81 -67 21 -283 55 -292 46z"/>
<path d="M3049 2121 l-1111 -1113 196 -192 c114 -113 216 -204 244 -219 136
-73 299 -74 440 -3 36 18 206 182 648 624 695 697 678 679 731 757 174 254
229 566 154 861 -32 124 -64 197 -143 323 l-47 75 -1112 -1113z"/>
</g>
</svg>
